<svg xmlns="http://www.w3.org/2000/svg" width="715" height="430.255" viewBox="0 0 715 430.255">
  <g id="Grupo_115747" data-name="Grupo 115747" transform="translate(-705 -3761.3)">
    <g id="Grupo_80165" data-name="Grupo 80165" transform="translate(1332.478 3771.947)">
      <path id="Trazado_114952" data-name="Trazado 114952" d="M628.161,204.528H568.8a7.427,7.427,0,0,1-7.437-7.427V114.927A7.426,7.426,0,0,1,568.8,107.5H606.44l29.128,30.04V197.1a7.427,7.427,0,0,1-7.407,7.427Z" transform="translate(-548.047 -107.5)" fill="#e8e8e8"/>
      <path id="Trazado_114953" data-name="Trazado 114953" d="M607.31,107.5v23.124a6.868,6.868,0,0,0,6.917,6.868h22.211Z" transform="translate(-548.916 -107.5)" fill="#f6f6f6"/>
      <path id="Trazado_114957" data-name="Trazado 114957" d="M605.564,128.525c0,.147-7.015.255-15.7.255s-15.7-.108-15.7-.255,7.015-.255,15.7-.255S605.564,128.388,605.564,128.525Z" transform="translate(-548.29 -107.893)" fill="#afafaf"/>
      <path id="Trazado_114958" data-name="Trazado 114958" d="M620.429,140.285c0,.137-10.34.255-23.094.255s-23.094-.118-23.094-.255,10.34-.255,23.094-.255S620.429,140.148,620.429,140.285Z" transform="translate(-548.29 -108.115)" fill="#afafaf"/>
      <path id="Trazado_114959" data-name="Trazado 114959" d="M620.429,152.045c0,.137-10.34.255-23.094.255s-23.094-.118-23.094-.255,10.34-.255,23.094-.255S620.429,151.908,620.429,152.045Z" transform="translate(-548.29 -108.338)" fill="#afafaf"/>
      <path id="Trazado_114960" data-name="Trazado 114960" d="M620.429,163.805c0,.137-10.34.255-23.094.255s-23.094-.118-23.094-.255,10.34-.255,23.094-.255S620.429,163.668,620.429,163.805Z" transform="translate(-548.29 -108.561)" fill="#afafaf"/>
      <path id="Trazado_114961" data-name="Trazado 114961" d="M620.429,175.565c0,.137-10.34.255-23.094.255s-23.094-.118-23.094-.255,10.34-.255,23.094-.255S620.429,175.428,620.429,175.565Z" transform="translate(-548.29 -108.783)" fill="#afafaf"/>
      <path id="Trazado_114962" data-name="Trazado 114962" d="M620.429,190.065c0,.147-10.34.255-23.094.255s-23.094-.108-23.094-.255,10.34-.255,23.094-.255S620.429,189.928,620.429,190.065Z" transform="translate(-548.29 -109.058)" fill="#afafaf"/>
      <rect id="Rectángulo_34569" data-name="Rectángulo 34569" width="50.427" height="22.663" rx="4.22" transform="translate(0 58.354)" fill="#fc4b52"/>
      <path id="Trazado_114963" data-name="Trazado 114963" d="M553.75,174.51h3.924c2.806,0,4.729,1.687,4.729,4.277s-1.962,4.287-4.729,4.287H553.75Zm3.787,6.936a2.659,2.659,0,1,0,0-5.308h-1.805v5.308Z" transform="translate(-547.903 -108.768)" fill="#fff"/>
      <path id="Trazado_114964" data-name="Trazado 114964" d="M563.5,178.775a4.69,4.69,0,1,1,4.68,4.434,4.425,4.425,0,0,1-4.68-4.434Zm7.358,0a2.678,2.678,0,1,0-2.678,2.747,2.609,2.609,0,0,0,2.678-2.747Z" transform="translate(-548.087 -108.755)" fill="#fff"/>
      <path id="Trazado_114965" data-name="Trazado 114965" d="M574,178.784a4.709,4.709,0,0,1,8.172-2.943l-1.265,1.167a2.787,2.787,0,0,0-2.158-.981,2.743,2.743,0,1,0,2.158,4.5l1.265,1.177A4.709,4.709,0,0,1,574,178.764Z" transform="translate(-548.286 -108.764)" fill="#fff"/>
      <path id="Trazado_114966" data-name="Trazado 114966" d="M588.877,183.075l-2.06-2.943-2.031,2.943H582.51l3.169-4.356-3.012-4.209h2.286l1.962,2.776,1.962-2.776h2.139l-2.943,4.13,3.188,4.434Z" transform="translate(-548.447 -108.768)" fill="#fff"/>
    </g>
    <g id="Grupo_80164" data-name="Grupo 80164" transform="translate(1229.262 3861.899)">
      <path id="Trazado_114976" data-name="Trazado 114976" d="M513.354,110.472H455.209a7.279,7.279,0,0,1-7.279-7.279V22.709a7.279,7.279,0,0,1,7.279-7.279h36.878l28.526,29.422v58.342a7.279,7.279,0,0,1-7.259,7.279Z" transform="translate(-434.896 -15.43)" fill="#e8e8e8"/>
      <path id="Trazado_114977" data-name="Trazado 114977" d="M492.82,15.43V38.054a6.768,6.768,0,0,0,6.768,6.768h21.779Z" transform="translate(-435.629 -15.43)" fill="#f6f6f6"/>
      <path id="Trazado_114981" data-name="Trazado 114981" d="M491.191,36c0,.148-6.886.256-15.335.256S460.51,36.143,460.51,36s6.886-.256,15.345-.256S491.191,35.838,491.191,36Z" transform="translate(-435.101 -15.762)" fill="#afafaf"/>
      <path id="Trazado_114982" data-name="Trazado 114982" d="M505.749,47.466c0,.138-10.132.256-22.625.256S460.5,47.6,460.5,47.466s10.132-.256,22.624-.256S505.749,47.328,505.749,47.466Z" transform="translate(-435.101 -15.949)" fill="#afafaf"/>
      <path id="Trazado_114983" data-name="Trazado 114983" d="M505.749,59c0,.138-10.132.256-22.625.256S460.5,59.133,460.5,59s10.132-.256,22.624-.256S505.749,58.809,505.749,59Z" transform="translate(-435.101 -16.137)" fill="#afafaf"/>
      <path id="Trazado_114984" data-name="Trazado 114984" d="M505.749,70.436c0,.148-10.132.256-22.625.256s-22.624-.108-22.624-.256,10.132-.256,22.624-.256S505.749,70.3,505.749,70.436Z" transform="translate(-435.101 -16.324)" fill="#afafaf"/>
      <path id="Trazado_114985" data-name="Trazado 114985" d="M505.749,81.926c0,.148-10.132.256-22.625.256s-22.624-.108-22.624-.256,10.132-.256,22.624-.256S505.749,81.788,505.749,81.926Z" transform="translate(-435.101 -16.511)" fill="#afafaf"/>
      <path id="Trazado_114986" data-name="Trazado 114986" d="M505.749,96.1c0,.138-10.132.256-22.625.256S460.5,96.233,460.5,96.1s10.132-.256,22.624-.256S505.749,96,505.749,96.1Z" transform="translate(-435.101 -16.743)" fill="#afafaf"/>
      <rect id="Rectángulo_34570" data-name="Rectángulo 34570" width="49.39" height="22.192" rx="4.22" transform="translate(0 57.162)" fill="#fc4b52"/>
      <path id="Trazado_114987" data-name="Trazado 114987" d="M454.189,83.949c0,1.869-1.407,3.03-3.649,3.03h-1.682v2.312H446.89V80.9h3.62C452.782,80.9,454.189,82.061,454.189,83.949Zm-1.967,0c0-.925-.6-1.456-1.78-1.456h-1.584v2.9h1.584C451.622,85.386,452.222,84.854,452.222,83.949Z" transform="translate(-434.879 -16.499)" fill="#fff"/>
      <path id="Trazado_114988" data-name="Trazado 114988" d="M455.71,80.9h3.807c2.744,0,4.623,1.653,4.623,4.19s-1.879,4.19-4.623,4.19H455.71Zm3.708,6.787a2.6,2.6,0,1,0,0-5.194h-1.771v5.194Z" transform="translate(-435.023 -16.499)" fill="#fff"/>
      <path id="Trazado_114989" data-name="Trazado 114989" d="M467.707,82.454v2.213h3.876v1.564h-3.876v3.049H465.74V80.9h6.345v1.554Z" transform="translate(-435.187 -16.499)" fill="#fff"/>
    </g>
    <g id="Grupo_80160" data-name="Grupo 80160" transform="translate(841.537 3761.3)">
      <rect id="Rectángulo_34571" data-name="Rectángulo 34571" width="28.701" height="46.489" transform="translate(210.604 64.361) rotate(180)" fill="#fc4b52"/>
      <rect id="Rectángulo_34572" data-name="Rectángulo 34572" width="22.663" height="58.035" transform="translate(124.509 65.095) rotate(180)" fill="#feca2e"/>
      <path id="Trazado_114990" data-name="Trazado 114990" d="M126.48,13.261c0-.177,5.176-.321,11.574-.321s11.574.144,11.574.321-5.185.329-11.574.329S126.48,13.447,126.48,13.261Z" transform="translate(-24.894 -2.01)" fill="#d1a31b"/>
      <path id="Trazado_114991" data-name="Trazado 114991" d="M127.87,16.521c0-.177,4.906-.321,10.954-.321s10.945.144,10.945.321-4.906.329-10.945.329S127.87,16.7,127.87,16.521Z" transform="translate(-25.035 -2.517)" fill="#d1a31b"/>
      <path id="Trazado_114992" data-name="Trazado 114992" d="M138.621,57.2c-.189,0-.341-7.686-.341-17.163s.153-17.171.341-17.171.305,7.711.305,17.171S138.81,57.2,138.621,57.2Z" transform="translate(-26.09 -3.553)" fill="#d1a31b"/>
      <path id="Trazado_114993" data-name="Trazado 114993" d="M126.77,69.749c0-.177,4.969-.329,11.089-.329s11.1.152,11.1.329-4.969.321-11.1.321A100.755,100.755,0,0,1,126.77,69.749Z" transform="translate(-24.923 -10.786)" fill="#d1a31b"/>
      <path id="Trazado_114994" data-name="Trazado 114994" d="M126.77,72.7c0-.186,5.1-.329,11.376-.329s11.367.144,11.367.329-5.086.321-11.367.321S126.77,72.9,126.77,72.7Z" transform="translate(-24.923 -11.244)" fill="#d1a31b"/>
      <rect id="Rectángulo_34573" data-name="Rectángulo 34573" width="18.206" height="64.31" transform="translate(142.706 65.095) rotate(180)" fill="#fc4b52"/>
      <path id="Trazado_114995" data-name="Trazado 114995" d="M151.85,35.9a18.36,18.36,0,0,1,2.831,1.833l6.569,4.679,6.56,4.7a17.135,17.135,0,0,1,2.633,2.061,17.07,17.07,0,0,1-2.92-1.689c-1.743-1.115-4.125-2.711-6.686-4.553s-4.843-3.556-6.461-4.84a15.981,15.981,0,0,1-2.525-2.2Z" transform="translate(-27.466 -5.578)" fill="#e8242b"/>
      <path id="Trazado_114996" data-name="Trazado 114996" d="M151.76,24c.117-.135,4.3,3.032,9.309,7.078s8.986,7.433,8.869,7.6-4.3-3.032-9.309-7.078S151.634,24.117,151.76,24Z" transform="translate(-27.457 -3.728)" fill="#e8242b"/>
      <rect id="Rectángulo_34574" data-name="Rectángulo 34574" width="8.707" height="61.261" transform="translate(54.077 65.147) rotate(180)" fill="#feca2e"/>
      <path id="Trazado_114997" data-name="Trazado 114997" d="M64.33,14.4c0,.211,1.8.389,4.08.389s4.08-.177,4.08-.389-1.8-.38-4.08-.38S64.33,14.189,64.33,14.4Z" transform="translate(-18.591 -2.178)" fill="#d1a31b"/>
      <path id="Trazado_114998" data-name="Trazado 114998" d="M64.13,12.82c0,.22,1.8.389,4.08.389s4.08-.169,4.08-.389-1.8-.38-4.08-.38S64.13,12.609,64.13,12.82Z" transform="translate(-18.571 -1.932)" fill="#d1a31b"/>
      <path id="Trazado_114999" data-name="Trazado 114999" d="M64.33,71.449c0,.211,1.8.38,4.08.38s4.08-.169,4.08-.38-1.8-.389-4.08-.389S64.33,71.229,64.33,71.449Z" transform="translate(-18.591 -11.04)" fill="#d1a31b"/>
      <path id="Trazado_115000" data-name="Trazado 115000" d="M64.13,69.869c0,.211,1.8.38,4.08.38s4.08-.169,4.08-.38-1.8-.389-4.08-.389S64.13,69.657,64.13,69.869Z" transform="translate(-18.571 -10.795)" fill="#d1a31b"/>
      <path id="Trazado_115001" data-name="Trazado 115001" d="M69.014,54.694c.234,0,.413-7.01.413-15.668s-.18-15.676-.413-15.676-.4,7.019-.4,15.676S68.79,54.694,69.014,54.694Z" transform="translate(-19.025 -3.628)" fill="#d1a31b"/>
      <rect id="Rectángulo_34575" data-name="Rectángulo 34575" width="17.415" height="61.261" transform="translate(101.811 64.749) rotate(180)" fill="#a7e446"/>
      <path id="Trazado_115002" data-name="Trazado 115002" d="M120.035,66.2a1.506,1.506,0,0,0,.2-.329c.126-.228.3-.566.5-1.022a16.983,16.983,0,0,0,1.258-4.156,10.242,10.242,0,0,0-1.015-6.757,9.194,9.194,0,0,0-3.082-3.2,7.555,7.555,0,0,0-5.023-1.081,5.376,5.376,0,0,0-2.588,1.123A3.163,3.163,0,0,0,109,53.349a3.635,3.635,0,0,0,1.492,2.6,5.573,5.573,0,0,0,2.965,1.182,8.2,8.2,0,0,0,6.173-2.112,9.088,9.088,0,0,0,3.064-5.912,14.707,14.707,0,0,0-.9-6.833,12.508,12.508,0,0,0-4.268-5.972,7.249,7.249,0,0,0-3.756-1.394,5.11,5.11,0,0,0-3.873,1.326,2.942,2.942,0,0,0-.9,1.917,3.375,3.375,0,0,0,.6,2.01,5.664,5.664,0,0,0,3.514,2.247A8.474,8.474,0,0,0,120.78,40a11.627,11.627,0,0,0,2.992-6.892,16.012,16.012,0,0,0-.755-7.154,10,10,0,0,0-4.493-5.439,8.137,8.137,0,0,0-6.919-.676,3.446,3.446,0,0,0-2.255,2.492,3.783,3.783,0,0,0,.8,3.091,5.621,5.621,0,0,0,5.859,1.436,10.235,10.235,0,0,0,4.673-3.066,13.457,13.457,0,0,0,3.469-8.4,12.859,12.859,0,0,0-1.671-6.656,13.232,13.232,0,0,0-2.7-3.471,10.622,10.622,0,0,0-.9-.735,1.476,1.476,0,0,0-.341-.211,15.625,15.625,0,0,1,3.666,4.553,12.646,12.646,0,0,1,1.438,6.5,13.123,13.123,0,0,1-3.451,8.108,9.693,9.693,0,0,1-4.367,2.872,5.013,5.013,0,0,1-5.149-1.275,3.168,3.168,0,0,1-.647-2.576,2.8,2.8,0,0,1,1.851-2,7.424,7.424,0,0,1,6.29.667,9.3,9.3,0,0,1,4.143,5.068,15.4,15.4,0,0,1,.692,6.825,10.961,10.961,0,0,1-2.84,6.47,7.689,7.689,0,0,1-6.883,2.188,4.835,4.835,0,0,1-3-1.917,2.234,2.234,0,0,1,.189-2.982,4.258,4.258,0,0,1,3.271-1.073,6.373,6.373,0,0,1,3.325,1.233,11.817,11.817,0,0,1,4.017,5.608,14.152,14.152,0,0,1,.9,6.512,8.4,8.4,0,0,1-2.8,5.473,7.453,7.453,0,0,1-5.607,1.976c-1.914-.152-3.783-1.52-3.9-3.176a2.58,2.58,0,0,1,1.024-2.128,4.769,4.769,0,0,1,2.282-1.014,6.932,6.932,0,0,1,4.637.988,8.678,8.678,0,0,1,2.965,3,9.979,9.979,0,0,1,1.1,6.428,18.557,18.557,0,0,1-1.1,4.139A14.145,14.145,0,0,0,120.035,66.2Z" transform="translate(-23.121 -0.67)" fill="#7bb41e"/>
      <rect id="Rectángulo_34576" data-name="Rectángulo 34576" width="30.211" height="55.796" transform="translate(84.163 64.774) rotate(180)" fill="#fc4b52"/>
      <path id="Trazado_115003" data-name="Trazado 115003" d="M74.62,21.539c0,.211,6.542.389,14.62.389s14.62-.177,14.62-.389-6.542-.389-14.62-.389S74.62,21.327,74.62,21.539Z" transform="translate(-19.635 -3.287)" fill="#e8242b"/>
      <path id="Trazado_115004" data-name="Trazado 115004" d="M74.2,26.549c0,.211,6.461.38,14.431.38s14.44-.169,14.44-.38-6.461-.389-14.44-.389S74.2,26.337,74.2,26.549Z" transform="translate(-19.593 -4.065)" fill="#e8242b"/>
      <path id="Trazado_115005" data-name="Trazado 115005" d="M73.12,69.15c0,.22,6.8.389,15.2.389s15.2-.169,15.2-.389-6.8-.38-15.2-.38S73.12,68.964,73.12,69.15Z" transform="translate(-19.483 -10.684)" fill="#e8242b"/>
      <path id="Trazado_115006" data-name="Trazado 115006" d="M73.57,63.269c0,.211,6.632.38,14.809.38s14.818-.169,14.818-.38-6.632-.389-14.818-.389S73.57,63.057,73.57,63.269Z" transform="translate(-19.528 -9.77)" fill="#e8242b"/>
      <rect id="Rectángulo_34577" data-name="Rectángulo 34577" width="17.415" height="61.261" transform="translate(160.093 64.361) rotate(180)" fill="#a7e446"/>
      <path id="Trazado_115007" data-name="Trazado 115007" d="M184.9,65.748a1.776,1.776,0,0,0,.2-.338,10.931,10.931,0,0,0,.494-1.022,16.841,16.841,0,0,0,1.267-4.147,10.226,10.226,0,0,0-1.015-6.757,9.229,9.229,0,0,0-3.091-3.21,7.552,7.552,0,0,0-5.014-1.106,5.414,5.414,0,0,0-2.6,1.123,3.123,3.123,0,0,0-1.24,2.585,3.648,3.648,0,0,0,1.483,2.627,5.572,5.572,0,0,0,2.974,1.191,8.244,8.244,0,0,0,6.173-2.112,9.136,9.136,0,0,0,3.055-5.912,14.714,14.714,0,0,0-.9-6.833,12.659,12.659,0,0,0-4.268-5.972,7.233,7.233,0,0,0-3.765-1.385,5.03,5.03,0,0,0-3.909,1.3,2.876,2.876,0,0,0-.9,1.917,3.3,3.3,0,0,0,.593,2,5.7,5.7,0,0,0,3.522,2.289,8.518,8.518,0,0,0,7.7-2.449,11.641,11.641,0,0,0,2.983-6.9,15.971,15.971,0,0,0-.746-7.146,9.987,9.987,0,0,0-4.493-5.439,8.089,8.089,0,0,0-6.91-.684,3.5,3.5,0,0,0-2.255,2.534,3.79,3.79,0,0,0,.791,3.083,5.667,5.667,0,0,0,5.868,1.461,10.149,10.149,0,0,0,4.628-3.091,13.461,13.461,0,0,0,3.442-8.4,13.106,13.106,0,0,0-4.349-10.136,10.383,10.383,0,0,0-.9-.735,2.011,2.011,0,0,0-.332-.22,16.119,16.119,0,0,1,3.693,4.561,12.591,12.591,0,0,1,1.438,6.5,13.087,13.087,0,0,1-3.46,8.066,9.609,9.609,0,0,1-4.367,2.88,5.013,5.013,0,0,1-5.14-1.275,3.136,3.136,0,0,1-.647-2.576,2.787,2.787,0,0,1,1.842-1.993,7.338,7.338,0,0,1,6.236.667,9.263,9.263,0,0,1,4.152,5.068,15.436,15.436,0,0,1,.692,6.833,11.035,11.035,0,0,1-2.795,6.461,7.69,7.69,0,0,1-6.883,2.179,4.864,4.864,0,0,1-3-1.909,2.25,2.25,0,0,1,.189-2.99,4.281,4.281,0,0,1,3.262-1.106,6.466,6.466,0,0,1,3.334,1.242,11.937,11.937,0,0,1,4.017,5.6,14.184,14.184,0,0,1,.9,6.521,8.438,8.438,0,0,1-2.8,5.473,7.452,7.452,0,0,1-5.571,1.968c-1.914-.144-3.783-1.52-3.9-3.176a2.578,2.578,0,0,1,1.015-2.128,4.881,4.881,0,0,1,2.291-1.014,7.046,7.046,0,0,1,4.637.988,8.852,8.852,0,0,1,2.965,3,10.057,10.057,0,0,1,1.078,6.5,18.258,18.258,0,0,1-1.105,4.139,12.426,12.426,0,0,0-.557,1.411Z" transform="translate(-29.697 -0.601)" fill="#7bb41e"/>
      <rect id="Rectángulo_34578" data-name="Rectángulo 34578" width="24.199" height="64.361" transform="translate(45.37 64.361) rotate(180)" fill="#a7e446"/>
      <rect id="Rectángulo_34579" data-name="Rectángulo 34579" width="22.636" height="57.291" transform="translate(182.729 64.361) rotate(180)" fill="#feca2e"/>
      <path id="Trazado_115008" data-name="Trazado 115008" d="M217.42,42.145a18.625,18.625,0,0,0,3.594,2.407,13.206,13.206,0,0,0,4.556,1.182,12.344,12.344,0,0,0,5.652-.921c1.9-.769,3.657-1.748,5.392-2.331a9.171,9.171,0,0,1,4.933-.422,5.341,5.341,0,0,1,2.893,1.613,2,2,0,0,1,.566,1.022c-.063,0-.234-.355-.764-.845a5.516,5.516,0,0,0-2.768-1.351,8.847,8.847,0,0,0-4.61.541c-1.68.574-3.406,1.563-5.392,2.365a12.71,12.71,0,0,1-5.967.921,12.941,12.941,0,0,1-4.727-1.377,10.648,10.648,0,0,1-2.642-1.9,3.233,3.233,0,0,1-.719-.9Z" transform="translate(-34.115 -6.51)" fill="#e8242b"/>
      <path id="Trazado_115009" data-name="Trazado 115009" d="M216.85,48.855a19.012,19.012,0,0,0,3.594,2.407A13.2,13.2,0,0,0,225,52.453a12.467,12.467,0,0,0,5.652-.929c1.9-.769,3.657-1.748,5.392-2.323a9,9,0,0,1,4.933-.422,5.352,5.352,0,0,1,2.858,1.622,1.912,1.912,0,0,1,.557,1.03,10.987,10.987,0,0,0-.764-.845,5.515,5.515,0,0,0-2.759-1.351,8.933,8.933,0,0,0-4.61.541c-1.689.583-3.406,1.563-5.392,2.365a12.653,12.653,0,0,1-5.976.921,12.828,12.828,0,0,1-4.727-1.377,10.178,10.178,0,0,1-2.579-1.9,3.055,3.055,0,0,1-.737-.929Z" transform="translate(-34.058 -7.553)" fill="#e8242b"/>
      <path id="Trazado_115010" data-name="Trazado 115010" d="M217.27,27.119c0-.177,6.227-.329,13.91-.329s13.919.152,13.919.329-6.227.321-13.919.321S217.27,27.3,217.27,27.119Z" transform="translate(-34.1 -4.163)" fill="#e8242b"/>
      <path id="Trazado_115011" data-name="Trazado 115011" d="M205.384,19.169a3.428,3.428,0,0,0-1.968-.152,2.331,2.331,0,0,0-1.5,1.191,1.978,1.978,0,0,0,.585,2.072,2.015,2.015,0,0,0,3.431-1.025,2.954,2.954,0,0,0-.234-1.841,1,1,0,0,1,.431.4,2.228,2.228,0,0,1,.288,1.529,2.657,2.657,0,0,1-1.411,1.934,2.91,2.91,0,0,1-2.989-.531,2.5,2.5,0,0,1-.677-2.788,2.775,2.775,0,0,1,1.995-1.394,2.641,2.641,0,0,1,1.644.211C205.285,18.967,205.4,19.144,205.384,19.169Z" transform="translate(-32.467 -2.876)" fill="#d1a31b"/>
      <path id="Trazado_115012" data-name="Trazado 115012" d="M204.19,62.8c-.189,0-.35-8.024-.35-17.932s.162-17.94.35-17.94.341,8.032.341,17.94S204.379,62.8,204.19,62.8Z" transform="translate(-32.738 -4.184)" fill="#d1a31b"/>
      <path id="Trazado_115139" data-name="Trazado 115139" d="M0,0H234.246V12.568H0Z" transform="translate(0 64.031)" fill="#e8e8e8"/>
      <rect id="Rectángulo_34581" data-name="Rectángulo 34581" width="20.452" height="12.568" transform="translate(213.794 64.031)" fill="#afafaf"/>
    </g>
    <g id="Grupo_80209" data-name="Grupo 80209" transform="translate(1049.217 3761.3)">
      <rect id="Rectángulo_34571-2" data-name="Rectángulo 34571" width="28.701" height="46.489" transform="translate(210.604 64.361) rotate(180)" fill="#fc4b52"/>
      <rect id="Rectángulo_34572-2" data-name="Rectángulo 34572" width="22.663" height="58.035" transform="translate(124.509 65.095) rotate(180)" fill="#feca2e"/>
      <path id="Trazado_114990-2" data-name="Trazado 114990" d="M126.48,13.261c0-.177,5.176-.321,11.574-.321s11.574.144,11.574.321-5.185.329-11.574.329S126.48,13.447,126.48,13.261Z" transform="translate(-24.894 -2.01)" fill="#d1a31b"/>
      <path id="Trazado_114991-2" data-name="Trazado 114991" d="M127.87,16.521c0-.177,4.906-.321,10.954-.321s10.945.144,10.945.321-4.906.329-10.945.329S127.87,16.7,127.87,16.521Z" transform="translate(-25.035 -2.517)" fill="#d1a31b"/>
      <path id="Trazado_114992-2" data-name="Trazado 114992" d="M138.621,57.2c-.189,0-.341-7.686-.341-17.163s.153-17.171.341-17.171.305,7.711.305,17.171S138.81,57.2,138.621,57.2Z" transform="translate(-26.091 -3.553)" fill="#d1a31b"/>
      <path id="Trazado_114993-2" data-name="Trazado 114993" d="M126.77,69.749c0-.177,4.969-.329,11.089-.329s11.1.152,11.1.329-4.969.321-11.1.321A100.755,100.755,0,0,1,126.77,69.749Z" transform="translate(-24.923 -10.786)" fill="#d1a31b"/>
      <path id="Trazado_114994-2" data-name="Trazado 114994" d="M126.77,72.7c0-.186,5.1-.329,11.376-.329s11.367.144,11.367.329-5.086.321-11.367.321S126.77,72.9,126.77,72.7Z" transform="translate(-24.923 -11.244)" fill="#d1a31b"/>
      <rect id="Rectángulo_34573-2" data-name="Rectángulo 34573" width="18.206" height="64.31" transform="translate(142.706 65.095) rotate(180)" fill="#fc4b52"/>
      <path id="Trazado_114995-2" data-name="Trazado 114995" d="M151.85,35.9a18.36,18.36,0,0,1,2.831,1.833l6.569,4.679,6.56,4.7a17.135,17.135,0,0,1,2.633,2.061,17.07,17.07,0,0,1-2.92-1.689c-1.743-1.115-4.125-2.711-6.686-4.553s-4.843-3.556-6.461-4.84a15.981,15.981,0,0,1-2.525-2.2Z" transform="translate(-27.466 -5.578)" fill="#e8242b"/>
      <path id="Trazado_114996-2" data-name="Trazado 114996" d="M151.76,24c.117-.135,4.3,3.032,9.309,7.078s8.986,7.433,8.869,7.6-4.3-3.032-9.309-7.078S151.634,24.117,151.76,24Z" transform="translate(-27.457 -3.728)" fill="#e8242b"/>
      <rect id="Rectángulo_34574-2" data-name="Rectángulo 34574" width="8.707" height="61.261" transform="translate(54.077 65.147) rotate(180)" fill="#feca2e"/>
      <path id="Trazado_114997-2" data-name="Trazado 114997" d="M64.33,14.4c0,.211,1.8.389,4.08.389s4.08-.177,4.08-.389-1.8-.38-4.08-.38S64.33,14.189,64.33,14.4Z" transform="translate(-18.592 -2.178)" fill="#d1a31b"/>
      <path id="Trazado_114998-2" data-name="Trazado 114998" d="M64.13,12.82c0,.22,1.8.389,4.08.389s4.08-.169,4.08-.389-1.8-.38-4.08-.38S64.13,12.609,64.13,12.82Z" transform="translate(-18.572 -1.932)" fill="#d1a31b"/>
      <path id="Trazado_114999-2" data-name="Trazado 114999" d="M64.33,71.449c0,.211,1.8.38,4.08.38s4.08-.169,4.08-.38-1.8-.389-4.08-.389S64.33,71.229,64.33,71.449Z" transform="translate(-18.592 -11.04)" fill="#d1a31b"/>
      <path id="Trazado_115000-2" data-name="Trazado 115000" d="M64.13,69.869c0,.211,1.8.38,4.08.38s4.08-.169,4.08-.38-1.8-.389-4.08-.389S64.13,69.657,64.13,69.869Z" transform="translate(-18.572 -10.795)" fill="#d1a31b"/>
      <path id="Trazado_115001-2" data-name="Trazado 115001" d="M69.014,54.694c.234,0,.413-7.01.413-15.668s-.18-15.676-.413-15.676-.4,7.019-.4,15.676S68.79,54.694,69.014,54.694Z" transform="translate(-19.026 -3.628)" fill="#d1a31b"/>
      <rect id="Rectángulo_34575-2" data-name="Rectángulo 34575" width="17.415" height="61.261" transform="translate(101.811 64.749) rotate(180)" fill="#a7e446"/>
      <path id="Trazado_115002-2" data-name="Trazado 115002" d="M120.035,66.2a1.506,1.506,0,0,0,.2-.329c.126-.228.3-.566.5-1.022a16.983,16.983,0,0,0,1.258-4.156,10.242,10.242,0,0,0-1.015-6.757,9.194,9.194,0,0,0-3.082-3.2,7.555,7.555,0,0,0-5.023-1.081,5.376,5.376,0,0,0-2.588,1.123A3.163,3.163,0,0,0,109,53.349a3.635,3.635,0,0,0,1.492,2.6,5.573,5.573,0,0,0,2.965,1.182,8.2,8.2,0,0,0,6.173-2.112,9.088,9.088,0,0,0,3.064-5.912,14.707,14.707,0,0,0-.9-6.833,12.508,12.508,0,0,0-4.268-5.972,7.249,7.249,0,0,0-3.756-1.394,5.11,5.11,0,0,0-3.873,1.326,2.942,2.942,0,0,0-.9,1.917,3.375,3.375,0,0,0,.6,2.01,5.664,5.664,0,0,0,3.514,2.247A8.474,8.474,0,0,0,120.78,40a11.627,11.627,0,0,0,2.992-6.892,16.012,16.012,0,0,0-.755-7.154,10,10,0,0,0-4.493-5.439,8.137,8.137,0,0,0-6.919-.676,3.446,3.446,0,0,0-2.255,2.492,3.783,3.783,0,0,0,.8,3.091,5.621,5.621,0,0,0,5.859,1.436,10.235,10.235,0,0,0,4.673-3.066,13.457,13.457,0,0,0,3.469-8.4,12.859,12.859,0,0,0-1.671-6.656,13.232,13.232,0,0,0-2.7-3.471,10.622,10.622,0,0,0-.9-.735,1.476,1.476,0,0,0-.341-.211,15.625,15.625,0,0,1,3.666,4.553,12.646,12.646,0,0,1,1.438,6.5,13.123,13.123,0,0,1-3.451,8.108,9.693,9.693,0,0,1-4.367,2.872,5.013,5.013,0,0,1-5.149-1.275,3.168,3.168,0,0,1-.647-2.576,2.8,2.8,0,0,1,1.851-2,7.424,7.424,0,0,1,6.29.667,9.3,9.3,0,0,1,4.143,5.068,15.4,15.4,0,0,1,.692,6.825,10.961,10.961,0,0,1-2.84,6.47,7.689,7.689,0,0,1-6.883,2.188,4.835,4.835,0,0,1-3-1.917,2.234,2.234,0,0,1,.189-2.982,4.258,4.258,0,0,1,3.271-1.073,6.373,6.373,0,0,1,3.325,1.233,11.817,11.817,0,0,1,4.017,5.608,14.152,14.152,0,0,1,.9,6.512,8.4,8.4,0,0,1-2.8,5.473,7.453,7.453,0,0,1-5.607,1.976c-1.914-.152-3.783-1.52-3.9-3.176a2.58,2.58,0,0,1,1.024-2.128,4.769,4.769,0,0,1,2.282-1.014,6.932,6.932,0,0,1,4.637.988,8.678,8.678,0,0,1,2.965,3,9.979,9.979,0,0,1,1.1,6.428,18.557,18.557,0,0,1-1.1,4.139A14.145,14.145,0,0,0,120.035,66.2Z" transform="translate(-23.122 -0.67)" fill="#7bb41e"/>
      <rect id="Rectángulo_34576-2" data-name="Rectángulo 34576" width="30.211" height="55.796" transform="translate(84.162 64.774) rotate(180)" fill="#fc4b52"/>
      <path id="Trazado_115003-2" data-name="Trazado 115003" d="M74.62,21.539c0,.211,6.542.389,14.62.389s14.62-.177,14.62-.389-6.542-.389-14.62-.389S74.62,21.327,74.62,21.539Z" transform="translate(-19.635 -3.287)" fill="#e8242b"/>
      <path id="Trazado_115004-2" data-name="Trazado 115004" d="M74.2,26.549c0,.211,6.461.38,14.431.38s14.44-.169,14.44-.38-6.461-.389-14.44-.389S74.2,26.337,74.2,26.549Z" transform="translate(-19.593 -4.065)" fill="#e8242b"/>
      <path id="Trazado_115005-2" data-name="Trazado 115005" d="M73.12,69.15c0,.22,6.8.389,15.2.389s15.2-.169,15.2-.389-6.8-.38-15.2-.38S73.12,68.964,73.12,69.15Z" transform="translate(-19.483 -10.684)" fill="#e8242b"/>
      <path id="Trazado_115006-2" data-name="Trazado 115006" d="M73.57,63.269c0,.211,6.632.38,14.809.38s14.818-.169,14.818-.38-6.632-.389-14.818-.389S73.57,63.057,73.57,63.269Z" transform="translate(-19.529 -9.77)" fill="#e8242b"/>
      <rect id="Rectángulo_34577-2" data-name="Rectángulo 34577" width="17.415" height="61.261" transform="translate(160.093 64.361) rotate(180)" fill="#a7e446"/>
      <path id="Trazado_115007-2" data-name="Trazado 115007" d="M184.9,65.748a1.776,1.776,0,0,0,.2-.338,10.931,10.931,0,0,0,.494-1.022,16.841,16.841,0,0,0,1.267-4.147,10.226,10.226,0,0,0-1.015-6.757,9.229,9.229,0,0,0-3.091-3.21,7.552,7.552,0,0,0-5.014-1.106,5.414,5.414,0,0,0-2.6,1.123,3.123,3.123,0,0,0-1.24,2.585,3.648,3.648,0,0,0,1.483,2.627,5.572,5.572,0,0,0,2.974,1.191,8.244,8.244,0,0,0,6.173-2.112,9.136,9.136,0,0,0,3.055-5.912,14.714,14.714,0,0,0-.9-6.833,12.659,12.659,0,0,0-4.268-5.972,7.233,7.233,0,0,0-3.765-1.385,5.03,5.03,0,0,0-3.909,1.3,2.876,2.876,0,0,0-.9,1.917,3.3,3.3,0,0,0,.593,2,5.7,5.7,0,0,0,3.522,2.289,8.518,8.518,0,0,0,7.7-2.449,11.641,11.641,0,0,0,2.983-6.9,15.971,15.971,0,0,0-.746-7.146,9.987,9.987,0,0,0-4.493-5.439,8.089,8.089,0,0,0-6.91-.684,3.5,3.5,0,0,0-2.255,2.534,3.79,3.79,0,0,0,.791,3.083,5.667,5.667,0,0,0,5.868,1.461,10.149,10.149,0,0,0,4.628-3.091,13.461,13.461,0,0,0,3.442-8.4,13.106,13.106,0,0,0-4.349-10.136,10.383,10.383,0,0,0-.9-.735,2.011,2.011,0,0,0-.332-.22,16.119,16.119,0,0,1,3.693,4.561,12.591,12.591,0,0,1,1.438,6.5,13.087,13.087,0,0,1-3.46,8.066,9.609,9.609,0,0,1-4.367,2.88,5.013,5.013,0,0,1-5.14-1.275,3.136,3.136,0,0,1-.647-2.576,2.787,2.787,0,0,1,1.842-1.993,7.338,7.338,0,0,1,6.236.667,9.263,9.263,0,0,1,4.152,5.068,15.436,15.436,0,0,1,.692,6.833,11.035,11.035,0,0,1-2.795,6.461,7.69,7.69,0,0,1-6.883,2.179,4.864,4.864,0,0,1-3-1.909,2.25,2.25,0,0,1,.189-2.99,4.281,4.281,0,0,1,3.262-1.106,6.466,6.466,0,0,1,3.334,1.242,11.937,11.937,0,0,1,4.017,5.6,14.184,14.184,0,0,1,.9,6.521,8.438,8.438,0,0,1-2.8,5.473,7.452,7.452,0,0,1-5.571,1.968c-1.914-.144-3.783-1.52-3.9-3.176a2.578,2.578,0,0,1,1.015-2.128,4.881,4.881,0,0,1,2.291-1.014,7.046,7.046,0,0,1,4.637.988,8.852,8.852,0,0,1,2.965,3,10.057,10.057,0,0,1,1.078,6.5,18.258,18.258,0,0,1-1.105,4.139,12.426,12.426,0,0,0-.557,1.411Z" transform="translate(-29.697 -0.601)" fill="#7bb41e"/>
      <rect id="Rectángulo_34578-2" data-name="Rectángulo 34578" width="24.199" height="64.361" transform="translate(45.369 64.361) rotate(180)" fill="#a7e446"/>
      <rect id="Rectángulo_34579-2" data-name="Rectángulo 34579" width="22.636" height="57.291" transform="translate(182.729 64.361) rotate(180)" fill="#feca2e"/>
      <path id="Trazado_115008-2" data-name="Trazado 115008" d="M217.42,42.145a18.625,18.625,0,0,0,3.594,2.407,13.206,13.206,0,0,0,4.556,1.182,12.344,12.344,0,0,0,5.652-.921c1.9-.769,3.657-1.748,5.392-2.331a9.171,9.171,0,0,1,4.933-.422,5.341,5.341,0,0,1,2.893,1.613,2,2,0,0,1,.566,1.022c-.063,0-.234-.355-.764-.845a5.516,5.516,0,0,0-2.768-1.351,8.847,8.847,0,0,0-4.61.541c-1.68.574-3.406,1.563-5.392,2.365a12.71,12.71,0,0,1-5.967.921,12.941,12.941,0,0,1-4.727-1.377,10.648,10.648,0,0,1-2.642-1.9,3.233,3.233,0,0,1-.719-.9Z" transform="translate(-34.115 -6.51)" fill="#e8242b"/>
      <path id="Trazado_115009-2" data-name="Trazado 115009" d="M216.85,48.855a19.012,19.012,0,0,0,3.594,2.407A13.2,13.2,0,0,0,225,52.453a12.467,12.467,0,0,0,5.652-.929c1.9-.769,3.657-1.748,5.392-2.323a9,9,0,0,1,4.933-.422,5.352,5.352,0,0,1,2.858,1.622,1.912,1.912,0,0,1,.557,1.03,10.987,10.987,0,0,0-.764-.845,5.515,5.515,0,0,0-2.759-1.351,8.933,8.933,0,0,0-4.61.541c-1.689.583-3.406,1.563-5.392,2.365a12.653,12.653,0,0,1-5.976.921,12.828,12.828,0,0,1-4.727-1.377,10.178,10.178,0,0,1-2.579-1.9,3.055,3.055,0,0,1-.737-.929Z" transform="translate(-34.058 -7.553)" fill="#e8242b"/>
      <path id="Trazado_115010-2" data-name="Trazado 115010" d="M217.27,27.119c0-.177,6.227-.329,13.91-.329s13.919.152,13.919.329-6.227.321-13.919.321S217.27,27.3,217.27,27.119Z" transform="translate(-34.101 -4.163)" fill="#e8242b"/>
      <path id="Trazado_115011-2" data-name="Trazado 115011" d="M205.384,19.169a3.428,3.428,0,0,0-1.968-.152,2.331,2.331,0,0,0-1.5,1.191,1.978,1.978,0,0,0,.585,2.072,2.015,2.015,0,0,0,3.431-1.025,2.954,2.954,0,0,0-.234-1.841,1,1,0,0,1,.431.4,2.228,2.228,0,0,1,.288,1.529,2.657,2.657,0,0,1-1.411,1.934,2.91,2.91,0,0,1-2.989-.531,2.5,2.5,0,0,1-.677-2.788,2.775,2.775,0,0,1,1.995-1.394,2.641,2.641,0,0,1,1.644.211C205.285,18.967,205.4,19.144,205.384,19.169Z" transform="translate(-32.467 -2.876)" fill="#d1a31b"/>
      <path id="Trazado_115012-2" data-name="Trazado 115012" d="M204.19,62.8c-.189,0-.35-8.024-.35-17.932s.162-17.94.35-17.94.341,8.032.341,17.94S204.379,62.8,204.19,62.8Z" transform="translate(-32.739 -4.184)" fill="#d1a31b"/>
      <path id="Trazado_115139-2" data-name="Trazado 115139" d="M0,0H234.246V12.568H0Z" transform="translate(0 64.031)" fill="#e8e8e8"/>
      <rect id="Rectángulo_34581-2" data-name="Rectángulo 34581" width="20.452" height="12.568" transform="translate(213.793 64.031)" fill="#afafaf"/>
    </g>
    <g id="Grupo_80161" data-name="Grupo 80161" transform="translate(847.934 3878.667)">
      <path id="Trazado_115071" data-name="Trazado 115071" d="M147.295,223.493H83.457a7.977,7.977,0,0,1-7.987-7.987V127.147a7.987,7.987,0,0,1,7.987-7.987h40.486l31.339,32.3v64.045A7.987,7.987,0,0,1,147.295,223.493Z" transform="translate(-61.15 -119.16)" fill="#e8e8e8"/>
      <path id="Trazado_115072" data-name="Trazado 115072" d="M122.32,119.2v24.831a7.429,7.429,0,0,0,7.429,7.429h23.911Z" transform="translate(-59.527 -119.158)" fill="#f6f6f6"/>
      <path id="Trazado_115076" data-name="Trazado 115076" d="M122.278,140.659c0,.145-7.543.269-16.834.269S88.6,140.8,88.6,140.659s7.532-.269,16.844-.269S122.278,140.5,122.278,140.659Z" transform="translate(-60.696 -118.424)" fill="#afafaf"/>
      <path id="Trazado_115077" data-name="Trazado 115077" d="M138.263,152.649c0,.145-11.122.269-24.831.269s-24.831-.124-24.831-.269,11.112-.269,24.831-.269S138.263,152.494,138.263,152.649Z" transform="translate(-60.696 -118.008)" fill="#afafaf"/>
      <path id="Trazado_115078" data-name="Trazado 115078" d="M138.263,164.639c0,.145-11.122.269-24.831.269s-24.831-.124-24.831-.269,11.112-.269,24.831-.269S138.263,164.484,138.263,164.639Z" transform="translate(-60.696 -117.593)" fill="#afafaf"/>
      <path id="Trazado_115079" data-name="Trazado 115079" d="M138.263,176.629c0,.145-11.122.269-24.831.269s-24.831-.124-24.831-.269,11.112-.269,24.831-.269S138.263,176.474,138.263,176.629Z" transform="translate(-60.696 -117.178)" fill="#afafaf"/>
      <path id="Trazado_115080" data-name="Trazado 115080" d="M138.263,188.619c0,.145-11.122.269-24.831.269s-24.831-.124-24.831-.269,11.112-.269,24.831-.269S138.263,188.474,138.263,188.619Z" transform="translate(-60.696 -116.763)" fill="#afafaf"/>
      <path id="Trazado_115081" data-name="Trazado 115081" d="M138.263,200.609c0,.145-11.122.269-24.831.269s-24.831-.124-24.831-.269,11.112-.269,24.831-.269S138.263,200.464,138.263,200.609Z" transform="translate(-60.696 -116.347)" fill="#afafaf"/>
      <rect id="Rectángulo_34583" data-name="Rectángulo 34583" width="54.226" height="24.366" rx="4.22" transform="translate(0 62.793)" fill="#fc4b52"/>
      <path id="Trazado_115082" data-name="Trazado 115082" d="M82.417,190.852c0,2.069-1.542,3.332-3.994,3.332H76.561v2.535H74.43v-9.2h3.994C80.876,187.52,82.417,188.793,82.417,190.852Zm-2.162,0c0-1.035-.652-1.6-1.955-1.6H76.561v3.2H78.3C79.6,192.445,80.255,191.855,80.255,190.852Z" transform="translate(-61.187 -116.791)" fill="#fff"/>
      <path id="Trazado_115083" data-name="Trazado 115083" d="M83.61,187.52h4.139c3.011,0,5.08,1.811,5.08,4.6s-2.069,4.594-5.08,4.594H83.61Zm4.076,7.449a2.856,2.856,0,1,0,0-5.7H85.741v5.7Z" transform="translate(-60.868 -116.791)" fill="#fff"/>
      <path id="Trazado_115084" data-name="Trazado 115084" d="M96.241,189.227v2.431h4.252v1.707H96.241v3.352H94.11v-9.2h6.953v1.707Z" transform="translate(-60.505 -116.791)" fill="#fff"/>
    </g>
    <g id="Grupo_80162" data-name="Grupo 80162" transform="translate(705.13 3921.274)">
      <path id="Trazado_115085" data-name="Trazado 115085" d="M107.187,363.091H44.768a7.808,7.808,0,0,1-7.808-7.808V268.818A7.808,7.808,0,0,1,44.716,261H84.337l30.7,31.609v62.675a7.818,7.818,0,0,1-7.848,7.808Z" transform="translate(-22.901 -261)" fill="#e8e8e8"/>
      <path id="Trazado_115086" data-name="Trazado 115086" d="M83.26,261v24.333a7.265,7.265,0,0,0,7.265,7.275h23.4Z" transform="translate(-21.823 -261)" fill="#f6f6f6"/>
      <path id="Trazado_115090" data-name="Trazado 115090" d="M82.849,282.225c0,.154-7.378.266-16.475.266s-16.475-.112-16.475-.266S57.278,282,66.375,282,82.849,282.082,82.849,282.225Z" transform="translate(-22.599 -260.511)" fill="#afafaf"/>
      <path id="Trazado_115091" data-name="Trazado 115091" d="M98.485,294.1c0,.143-10.877.266-24.292.266S49.9,294.239,49.9,294.1s10.877-.266,24.292-.266S98.485,293.943,98.485,294.1Z" transform="translate(-22.599 -260.236)" fill="#afafaf"/>
      <path id="Trazado_115092" data-name="Trazado 115092" d="M98.485,306.006c0,.143-10.877.266-24.292.266S49.9,306.1,49.9,306.006s10.877-.266,24.292-.266S98.485,305.8,98.485,306.006Z" transform="translate(-22.599 -259.959)" fill="#afafaf"/>
      <path id="Trazado_115093" data-name="Trazado 115093" d="M98.485,317.816c0,.143-10.877.266-24.292.266S49.9,318.01,49.9,317.816s10.877-.266,24.292-.266S98.485,317.673,98.485,317.816Z" transform="translate(-22.599 -259.684)" fill="#afafaf"/>
      <path id="Trazado_115094" data-name="Trazado 115094" d="M98.485,329.676c0,.153-10.877.266-24.292.266S49.9,329.83,49.9,329.676s10.877-.266,24.292-.266S98.485,329.533,98.485,329.676Z" transform="translate(-22.599 -259.408)" fill="#afafaf"/>
      <path id="Trazado_115095" data-name="Trazado 115095" d="M98.485,341.546c0,.143-10.877.266-24.292.266s-24.292-.123-24.292-.266,10.877-.266,24.292-.266S98.485,341.393,98.485,341.546Z" transform="translate(-22.599 -259.132)" fill="#afafaf"/>
      <rect id="Rectángulo_34584" data-name="Rectángulo 34584" width="53.056" height="23.842" rx="4.22" transform="translate(0 61.406)" fill="#fc4b52"/>
      <path id="Trazado_115096" data-name="Trazado 115096" d="M43.687,331.864c0,2.047-1.5,3.254-3.909,3.254H37.967V337.6H35.92v-9h3.9C42.141,328.6,43.687,329.848,43.687,331.864Zm-2.108,0c0-1.023-.645-1.566-1.914-1.566h-1.7v3.121h1.7C40.934,333.42,41.579,332.847,41.579,331.864Z" transform="translate(-22.925 -259.427)" fill="#fff"/>
      <path id="Trazado_115097" data-name="Trazado 115097" d="M52.767,331.864c0,2.047-1.5,3.254-3.909,3.254H47.047V337.6H45v-9h3.9C51.262,328.6,52.767,329.848,52.767,331.864Zm-2.108,0c0-1.023-.645-1.566-1.914-1.566h-1.7v3.121h1.7C50.014,333.42,50.659,332.847,50.659,331.864Z" transform="translate(-22.714 -259.427)" fill="#fff"/>
      <path id="Trazado_115098" data-name="Trazado 115098" d="M55.686,330.3H52.8v-1.7h7.848v1.7H57.773V337.6H55.727Z" transform="translate(-22.533 -259.427)" fill="#fff"/>
    </g>
    <g id="Grupo_80159" data-name="Grupo 80159" transform="translate(705 3768.934)">
      <path id="Trazado_115099" data-name="Trazado 115099" d="M226.24,120.311H165.069a7.659,7.659,0,0,1-7.659-7.659V27.889a7.659,7.659,0,0,1,7.659-7.619h38.819L233.9,51.279v61.413A7.659,7.659,0,0,1,226.24,120.311Z" transform="translate(-143.646 -20.27)" fill="#e8e8e8"/>
      <path id="Trazado_115100" data-name="Trazado 115100" d="M203.43,20.27V44.115a7.124,7.124,0,0,0,7.124,7.164H233.48Z" transform="translate(-143.229 -20.27)" fill="#f6f6f6"/>
      <path id="Trazado_115104" data-name="Trazado 115104" d="M202.571,41.362c0,.141-7.225.262-16.145.262s-16.145-.121-16.145-.262,7.235-.262,16.145-.262S202.571,41.211,202.571,41.362Z" transform="translate(-143.529 -20.081)" fill="#afafaf"/>
      <path id="Trazado_115105" data-name="Trazado 115105" d="M217.9,53.142c0,.151-10.666.262-23.8.262s-23.814-.111-23.814-.262,10.656-.262,23.814-.262S217.9,53,217.9,53.142Z" transform="translate(-143.529 -19.974)" fill="#afafaf"/>
      <path id="Trazado_115106" data-name="Trazado 115106" d="M217.9,64.932c0,.141-10.666.262-23.8.262s-23.814-.121-23.814-.262,10.656-.262,23.814-.262S217.9,64.791,217.9,64.932Z" transform="translate(-143.529 -19.867)" fill="#afafaf"/>
      <path id="Trazado_115107" data-name="Trazado 115107" d="M217.9,76.722c0,.141-10.666.262-23.8.262s-23.814-.121-23.814-.262,10.656-.262,23.814-.262S217.9,76.571,217.9,76.722Z" transform="translate(-143.529 -19.759)" fill="#afafaf"/>
      <path id="Trazado_115108" data-name="Trazado 115108" d="M217.9,88.5c0,.151-10.666.262-23.8.262s-23.814-.111-23.814-.262,10.656-.262,23.814-.262S217.9,88.361,217.9,88.5Z" transform="translate(-143.529 -19.653)" fill="#afafaf"/>
      <path id="Trazado_115109" data-name="Trazado 115109" d="M217.9,100.292c0,.151-10.666.262-23.8.262s-23.814-.121-23.814-.262,10.656-.262,23.814-.262S217.9,100.151,217.9,100.292Z" transform="translate(-143.529 -19.546)" fill="#afafaf"/>
      <rect id="Rectángulo_34585" data-name="Rectángulo 34585" width="51.988" height="23.36" rx="4.22" transform="translate(0 60.161)" fill="#fc4b52"/>
      <path id="Trazado_115110" data-name="Trazado 115110" d="M161.939,96.249l-2.129-3.027-2.1,3.027H155.37l3.259-4.49-3.1-4.339h2.321l2.018,2.866,2.018-2.866h2.19l-3.027,4.258,3.29,4.571Z" transform="translate(-143.665 -19.66)" fill="#fff"/>
      <path id="Trazado_115111" data-name="Trazado 115111" d="M165,87.42h2.018v7.165h4.42v1.665H165Z" transform="translate(-143.577 -19.66)" fill="#fff"/>
      <path id="Trazado_115112" data-name="Trazado 115112" d="M171.82,95.383l.7-1.544a5.126,5.126,0,0,0,2.906.918c1.211,0,1.705-.4,1.705-.938,0-1.655-5.136-.525-5.136-3.8,0-1.493,1.211-2.745,3.724-2.745a5.853,5.853,0,0,1,3.027.787l-.636,1.544a5.045,5.045,0,0,0-2.442-.7c-1.211,0-1.675.464-1.675,1.009,0,1.635,5.126.5,5.126,3.754,0,1.473-1.221,2.735-3.744,2.735A6.267,6.267,0,0,1,171.82,95.383Z" transform="translate(-143.515 -19.662)" fill="#fff"/>
    </g>
    <g id="Grupo_80166" data-name="Grupo 80166" transform="translate(1333.164 3971.689)">
      <path id="Trazado_115113" data-name="Trazado 115113" d="M597.73,368.17H538.839a7.369,7.369,0,0,1-7.369-7.369V279.278a7.369,7.369,0,0,1,7.369-7.369h37.349l28.91,29.8V360.8A7.368,7.368,0,0,1,597.73,368.17Z" transform="translate(-518.262 -271.91)" fill="#e8e8e8"/>
      <path id="Trazado_115114" data-name="Trazado 115114" d="M578.26,271.91v22.937a6.852,6.852,0,0,0,6.852,6.853H607.17Z" transform="translate(-520.334 -271.91)" fill="#f6f6f6"/>
      <path id="Trazado_115118" data-name="Trazado 115118" d="M575.65,293.318c0,.143-6.958.248-15.53.248s-15.54-.105-15.54-.248,6.958-.249,15.54-.249S575.65,293.185,575.65,293.318Z" transform="translate(-518.842 -272.847)" fill="#afafaf"/>
      <path id="Trazado_115119" data-name="Trazado 115119" d="M590.394,305.3c0,.134-10.264.249-22.937.249s-22.937-.115-22.937-.249,10.255-.249,22.937-.249S590.394,305.155,590.394,305.3Z" transform="translate(-518.84 -273.378)" fill="#afafaf"/>
      <path id="Trazado_115120" data-name="Trazado 115120" d="M590.394,317.268c0,.143-10.264.248-22.937.248s-22.937-.105-22.937-.248,10.255-.249,22.937-.249S590.394,317.135,590.394,317.268Z" transform="translate(-518.84 -273.908)" fill="#afafaf"/>
      <path id="Trazado_115121" data-name="Trazado 115121" d="M590.394,329.248c0,.134-10.264.248-22.937.248s-22.937-.115-22.937-.248S554.775,329,567.457,329,590.394,329.105,590.394,329.248Z" transform="translate(-518.84 -274.439)" fill="#afafaf"/>
      <path id="Trazado_115122" data-name="Trazado 115122" d="M590.394,341.218c0,.143-10.264.249-22.937.249s-22.937-.105-22.937-.249,10.255-.249,22.937-.249S590.394,341.085,590.394,341.218Z" transform="translate(-518.84 -274.968)" fill="#afafaf"/>
      <path id="Trazado_115123" data-name="Trazado 115123" d="M590.394,355.988c0,.143-10.264.249-22.937.249s-22.937-.105-22.937-.249,10.255-.249,22.937-.249S590.394,355.855,590.394,355.988Z" transform="translate(-518.84 -275.622)" fill="#afafaf"/>
      <rect id="Rectángulo_34586" data-name="Rectángulo 34586" width="50.022" height="22.478" rx="4.22" transform="translate(0 57.887)" fill="#fc4b52"/>
      <path id="Trazado_115124" data-name="Trazado 115124" d="M523.71,340.15h3.823c2.781,0,4.683,1.673,4.683,4.253s-1.911,4.243-4.683,4.243H523.71Zm3.766,6.881a2.638,2.638,0,1,0,0-5.266h-1.8v5.266Z" transform="translate(-517.918 -274.932)" fill="#fff"/>
      <path id="Trazado_115125" data-name="Trazado 115125" d="M533.64,344.372a4.654,4.654,0,1,1,4.645,4.387,4.4,4.4,0,0,1-4.645-4.387Zm7.3,0a2.657,2.657,0,1,0-2.657,2.714,2.6,2.6,0,0,0,2.657-2.714Z" transform="translate(-518.358 -274.901)" fill="#fff"/>
      <path id="Trazado_115126" data-name="Trazado 115126" d="M544.35,344.4a4.683,4.683,0,0,1,8.1-2.867l-1.262,1.166a2.762,2.762,0,0,0-2.141-.956,2.719,2.719,0,1,0,2.141,4.435l1.262,1.156a4.664,4.664,0,0,1-8.1-2.867Z" transform="translate(-518.832 -274.927)" fill="#fff"/>
      <path id="Trazado_115127" data-name="Trazado 115127" d="M559.336,348.606l-2.045-2.867-2.017,2.867H553l3.135-4.32-2.982-4.176h2.236l1.911,2.753,1.911-2.753h2.122l-2.963,4.1,3.23,4.4Z" transform="translate(-519.215 -274.93)" fill="#fff"/>
    </g>
    <g id="Grupo_80163" data-name="Grupo 80163" transform="translate(705 4056.117)">
      <path id="Trazado_114970" data-name="Trazado 114970" d="M15.278,316.06v76.19H7.3v8.264h7.978V451.5H164.446V405.091H153.4V394.983h11.049V379.837h4.916v-6.9h-5.794V316.06Z" transform="translate(-7.1 -316.06)" fill="#f6f6f6"/>
      <path id="Trazado_114971" data-name="Trazado 114971" d="M125.16,316.283V450.9h39.611V404.423h-11.05v-9.284l11.05.318V380.266l5.006.016-.09-7.851-5.834-.223V316.06Z" transform="translate(-7.425 -316.06)" fill="#afafaf"/>
      <path id="Trazado_114972" data-name="Trazado 114972" d="M127.667,368.549c0,.329-27,.582-60.284.582S7.1,368.878,7.1,368.549,34.076,368,67.374,368,127.667,368.23,127.667,368.549Z" transform="translate(-7.1 -285.141)" fill="#e8e8e8"/>
      <path id="Trazado_114973" data-name="Trazado 114973" d="M127.667,363.682c0,.329-27,.593-60.284.593S7.1,364.011,7.1,363.682s26.986-.582,60.284-.582S127.667,363.363,127.667,363.682Z" transform="translate(-7.1 -288.047)" fill="#e8e8e8"/>
      <path id="Trazado_114974" data-name="Trazado 114974" d="M135.427,350.582c0,.329-27,.582-60.284.582s-60.294-.253-60.294-.582,27-.582,60.294-.582S135.427,350.263,135.427,350.582Z" transform="translate(-7.121 -295.85)" fill="#e8e8e8"/>
      <path id="Trazado_114975" data-name="Trazado 114975" d="M136.167,386.292c0,.318-26.985.582-60.284.582S15.6,386.61,15.6,386.292s26.986-.582,60.284-.582S136.167,385.962,136.167,386.292Z" transform="translate(-7.124 -267.363)" fill="#e8e8e8"/>
    </g>
    <g id="Grupo_80167" data-name="Grupo 80167" transform="translate(833.943 4109.945)">
      <path id="Trazado_114970-2" data-name="Trazado 114970" d="M14.26,316.06v45.909H7.3v4.98h6.96v30.721H144.4V369.706h-9.64v-6.09h9.64V354.49h4.289v-4.156h-5.055V316.06Z" transform="translate(-7.126 -316.06)" fill="#f6f6f6"/>
      <path id="Trazado_114971-2" data-name="Trazado 114971" d="M125.16,316.194v80.958h34.558V369.2h-9.64v-5.583l9.64.191v-9.136l4.368.01-.078-4.721-5.09-.134V316.06Z" transform="translate(-22.442 -316.06)" fill="#afafaf"/>
      <path id="Trazado_114972-2" data-name="Trazado 114972" d="M112.289,368.479c0,.287-23.552.508-52.595.508S7.1,368.766,7.1,368.479,30.635,368,59.686,368,112.289,368.2,112.289,368.479Z" transform="translate(-7.1 -318.261)" fill="#e8e8e8"/>
      <path id="Trazado_114973-2" data-name="Trazado 114973" d="M112.289,363.608c0,.287-23.552.517-52.595.517S7.1,363.895,7.1,363.608s23.544-.508,52.595-.508S112.289,363.33,112.289,363.608Z" transform="translate(-7.1 -318.053)" fill="#e8e8e8"/>
      <path id="Trazado_114974-2" data-name="Trazado 114974" d="M120.048,350.508c0,.287-23.552.508-52.595.508s-52.6-.22-52.6-.508S38.4,350,67.453,350,120.048,350.23,120.048,350.508Z" transform="translate(-8.107 -317.498)" fill="#e8e8e8"/>
      <path id="Trazado_114975-2" data-name="Trazado 114975" d="M120.789,386.218c0,.278-23.544.508-52.595.508S15.6,386.5,15.6,386.218s23.544-.508,52.595-.508S120.789,385.93,120.789,386.218Z" transform="translate(-8.205 -319.011)" fill="#e8e8e8"/>
    </g>
    <g id="Grupo_80210" data-name="Grupo 80210" transform="translate(915 3848.083)">
      <path id="Trazado_115013" data-name="Trazado 115013" d="M287.062,68.326,286,157.545c-.183,15.176,2.614,37.462,26.641,36.7h0c20.769-2.265,26.284-21.928,26.441-36.085.078-6.717.157-12.319.209-13.007,0,0,22.738-1.856,24.655-24.315.932-10.855,1.019-33.367.871-53.727a41.992,41.992,0,0,0-38.943-41.539l-2.161-.157C300.165,25.053,286.757,44.838,287.062,68.326Z" transform="translate(-168.56 -11.901)" fill="#ffbe9d"/>
      <path id="Trazado_115014" data-name="Trazado 115014" d="M342.886,161.264s-14.235-.2-28.636-10.794c0,0,5.942,16.945,28.514,16.553Z" transform="translate(-172.199 -28.008)" fill="#eb996e"/>
      <path id="Trazado_115015" data-name="Trazado 115015" d="M330.3,83.252c-.444.453-3.04-1.629-6.8-1.742s-6.569,1.742-6.97,1.263c-.192-.218.27-1.045,1.5-1.908a9.4,9.4,0,0,1,5.593-1.586,9.052,9.052,0,0,1,5.4,1.96C330.149,82.2,330.515,83.051,330.3,83.252Z" transform="translate(-172.487 -18.838)" fill="#12263f"/>
      <path id="Trazado_115016" data-name="Trazado 115016" d="M330.531,92.34a3.049,3.049,0,0,1-3.154,2.849,2.919,2.919,0,0,1-2.927-2.971,3.04,3.04,0,0,1,3.145-2.849,2.918,2.918,0,0,1,2.936,2.971Z" transform="translate(-173.513 -20.138)" fill="#12263f"/>
      <path id="Trazado_115017" data-name="Trazado 115017" d="M343.16,109.624c0-.2,2.169-.418,5.68-.6.871,0,1.742-.148,1.934-.732a4.482,4.482,0,0,0-.4-2.614c-.671-2.2-1.376-4.5-2.117-6.909-2.927-9.836-4.975-17.886-4.574-18s3.084,7.754,6.011,17.589q1.045,3.633,2,6.97a5.127,5.127,0,0,1,.209,3.485A2.221,2.221,0,0,1,350.356,110a6.29,6.29,0,0,1-1.507.1C345.329,109.964,343.16,109.816,343.16,109.624Z" transform="translate(-175.923 -19.03)" fill="#12263f"/>
      <path id="Trazado_115018" data-name="Trazado 115018" d="M328.434,67.182c-.366.871-3.372.209-6.97.392s-6.578.984-6.97.183c-.183-.383.375-1.159,1.6-1.9a11.5,11.5,0,0,1,5.28-1.49,11.221,11.221,0,0,1,5.367,1.054C328,66.067,328.591,66.79,328.434,67.182Z" transform="translate(-172.226 -16.916)" fill="#12263f"/>
      <path id="Trazado_115019" data-name="Trazado 115019" d="M369.48,75.177c-.392.68-3.328-.078-6.891-.192s-6.508.348-6.882-.366c-.165-.331.418-.941,1.664-1.481a12.2,12.2,0,0,1,5.227-.871,12.676,12.676,0,0,1,5.227,1.289C369.087,74.193,369.654,74.846,369.48,75.177Z" transform="translate(-177.535 -17.933)" fill="#12263f"/>
      <path id="Trazado_115020" data-name="Trazado 115020" d="M285.608,93.766c-.375-.192-15.115-5.7-15.751,9.705s14.967,12.868,15.011,12.423S285.608,93.766,285.608,93.766Z" transform="translate(-166.479 -20.561)" fill="#ffbe9d"/>
      <path id="Trazado_115021" data-name="Trazado 115021" d="M281.01,110.593c-.07-.052-.279.174-.741.366a2.675,2.675,0,0,1-2.012,0c-1.6-.662-2.866-3.3-2.823-6.1a8.921,8.921,0,0,1,.871-3.816,3.075,3.075,0,0,1,2.091-2,1.377,1.377,0,0,1,1.56.793c.192.444.078.749.157.775s.34-.244.244-.871a1.743,1.743,0,0,0-.566-.984,2.021,2.021,0,0,0-1.472-.453,3.79,3.79,0,0,0-2.9,2.274,9.262,9.262,0,0,0-1.106,4.251c0,3.11,1.446,6.1,3.642,6.813a2.849,2.849,0,0,0,2.474-.3A1.285,1.285,0,0,0,281.01,110.593Z" transform="translate(-167.055 -21.289)" fill="#eb996e"/>
      <path id="Trazado_115022" data-name="Trazado 115022" d="M337.793,124.667c.166-.392-2.857-1.289-4.975-4.121a17.424,17.424,0,0,1-2.134-4.025c-.444-1.115-.784-1.821-.958-1.742s-.113.8.131,2.021a11.379,11.379,0,0,0,1.986,4.5,9.218,9.218,0,0,0,3.938,3.014C336.921,124.772,337.74,124.8,337.793,124.667Z" transform="translate(-174.18 -23.41)" fill="#12263f"/>
      <path id="Trazado_115023" data-name="Trazado 115023" d="M391.658,44.949a3.615,3.615,0,0,0-1.742-2.117c-1.742-1.045-3.781-.871-5.741-.932a32.434,32.434,0,0,1-16.892-5.14,76.172,76.172,0,0,0-7.841-9.522c-6.813-7.022-12.415-11.8-18.208-14.131-7.492-3.014-20.038-4.243-27.878-2.187s-14.81,8.39-15.917,16.4c-4.356-3.7-10.968-3.676-16.3-1.533L281,25.73c-5.889,2.117-9.261,8.4-11,14.462s-2.5,12.545-5.715,17.973c-.671,1.141-1.464,2.5-.871,3.685a2.509,2.509,0,0,0,2.614,1.141,7.318,7.318,0,0,0,2.77-1.255L266.807,66.5a14.009,14.009,0,0,0,6.464-.436A138.9,138.9,0,0,0,277.5,82.053c2.492,0,4.765.174,6.3,1.551,2.073,1.873,3.006,5.393,6.464,4.06,1.742-.688,3.372-4.356,3.964-6.177a87.52,87.52,0,0,0,3.79-37.1,28.192,28.192,0,0,1,8.712-6.273l-.261.235c6.273-2.178,13.373-4.356,19.332-1.376,4.617,2.283,7.335,7.083,10.785,10.907a35.257,35.257,0,0,0,25.134,11.6c.331,6.325-.2,15.263.131,21.588l5.3-10.1h0c.436-.741.8-1.49,1.15-2.239l.122-.227h0a38.33,38.33,0,0,1,1.769-3.633l.061.052c3.424,3.023,8.477-1.6,5.767-5.288A9.042,9.042,0,0,0,374.1,57.72a6.246,6.246,0,0,0,5.959,1.542,4.914,4.914,0,0,0,3.485-4.844,4.156,4.156,0,0,0-2.492-3.345,14.122,14.122,0,0,0,8.015-1.742C390.639,48.425,392.2,46.944,391.658,44.949Z" transform="translate(-165.624 -9.903)" fill="#12263f"/>
      <path id="Trazado_115024" data-name="Trazado 115024" d="M305.8,32.85a19.346,19.346,0,0,0-2.248,2.056,16.073,16.073,0,0,0-3.485,7.466,28.11,28.11,0,0,0-.575,5.706c0,2.073.157,4.286.314,6.621a58.365,58.365,0,0,1,.174,7.37,26.261,26.261,0,0,1-.514,3.886,8.076,8.076,0,0,1-1.586,3.772,3.415,3.415,0,0,1-3.119,1.063,5.1,5.1,0,0,1-2.849-1.612c-1.446-1.69-1.8-3.825-2.169-5.715l.479.061a19.166,19.166,0,0,1-2.736,4.7,6.682,6.682,0,0,1-4.356,2.378,4.269,4.269,0,0,1-2.317-.4,3.737,3.737,0,0,1-1.568-1.551,3.833,3.833,0,0,1-.479-2,2.744,2.744,0,0,1,.723-1.742l.235.209a14.672,14.672,0,0,1-4.826,3.624,14.057,14.057,0,0,1-1.5.575,2.126,2.126,0,0,1-.531.131,3.621,3.621,0,0,1,.505-.209c.331-.139.828-.34,1.446-.653a14.949,14.949,0,0,0,4.661-3.676l.235.209a2.91,2.91,0,0,0-.148,3.345A3.337,3.337,0,0,0,281,69.841a3.859,3.859,0,0,0,2.1.34,6.246,6.246,0,0,0,4.051-2.256,18.486,18.486,0,0,0,2.614-4.609l.331-.723.148.784c.357,1.882.741,3.938,2.056,5.454a4.574,4.574,0,0,0,2.553,1.446,2.875,2.875,0,0,0,2.7-.871,7.684,7.684,0,0,0,1.464-3.485,26.059,26.059,0,0,0,.505-3.807,61.084,61.084,0,0,0-.139-7.3c-.148-2.335-.3-4.565-.27-6.656a28.033,28.033,0,0,1,.645-5.785,15.926,15.926,0,0,1,3.659-7.518,9.052,9.052,0,0,1,2.387-2Z" transform="translate(-166.869 -12.858)" fill="#727997"/>
      <path id="Trazado_115025" data-name="Trazado 115025" d="M380.293,52.842a1.331,1.331,0,0,1-.174.157l-.566.409a8.306,8.306,0,0,1-.95.61,12.194,12.194,0,0,1-1.368.714,19.906,19.906,0,0,1-9.583,1.742A25.456,25.456,0,0,1,354.1,51.466a43.974,43.974,0,0,1-11.648-13.425c-1.638-2.718-2.971-5.506-4.434-8.085a29.934,29.934,0,0,0-5.027-6.839,15.342,15.342,0,0,0-6.473-3.929A11.047,11.047,0,0,0,323.1,18.8a11.586,11.586,0,0,0-3.119.6,12.946,12.946,0,0,0-7.222,6.1,15.393,15.393,0,0,0-1.159,3.372.939.939,0,0,1,0-.235,5.127,5.127,0,0,1,.1-.688,11.152,11.152,0,0,1,.871-2.544,12.8,12.8,0,0,1,2.518-3.406,13.173,13.173,0,0,1,4.765-2.962,12.2,12.2,0,0,1,3.223-.653,11.413,11.413,0,0,1,3.555.383,15.682,15.682,0,0,1,6.691,4,29.734,29.734,0,0,1,5.131,6.97c1.49,2.614,2.823,5.375,4.443,8.067a43.938,43.938,0,0,0,11.482,13.3,25.265,25.265,0,0,0,13.295,5.027,20.107,20.107,0,0,0,9.5-1.542,30.141,30.141,0,0,0,3.11-1.742Z" transform="translate(-171.857 -10.993)" fill="#727997"/>
      <path id="Trazado_115026" data-name="Trazado 115026" d="M389.275,46.609a3.484,3.484,0,0,1-.8.558,16.4,16.4,0,0,1-2.387,1.211,22.891,22.891,0,0,1-3.781,1.246,26.188,26.188,0,0,1-4.826.636,25.429,25.429,0,0,1-4.87-.331,22.857,22.857,0,0,1-3.842-.993,18.093,18.093,0,0,1-2.466-1.054,3.7,3.7,0,0,1-.871-.505c0-.1,1.281.549,3.415,1.211a26.751,26.751,0,0,0,3.807.871,29.62,29.62,0,0,0,4.774.279,28.75,28.75,0,0,0,4.739-.584,26.78,26.78,0,0,0,3.746-1.115C388.029,47.236,389.223,46.522,389.275,46.609Z" transform="translate(-178.792 -14.63)" fill="#727997"/>
      <path id="Trazado_115027" data-name="Trazado 115027" d="M369.677,84.88c-.453.453-3.04-1.638-6.8-1.742S356.3,84.88,355.9,84.4c-.192-.218.27-1.054,1.5-1.908A9.383,9.383,0,0,1,363,80.9a9.078,9.078,0,0,1,5.393,1.969C369.521,83.818,369.921,84.68,369.677,84.88Z" transform="translate(-177.559 -19.046)" fill="#12263f"/>
      <path id="Trazado_115028" data-name="Trazado 115028" d="M366.411,93.564a3.041,3.041,0,0,1-3.154,2.849,2.91,2.91,0,0,1-2.927-2.962,3.058,3.058,0,0,1,3.2-2.831,2.918,2.918,0,0,1,2.884,2.945Z" transform="translate(-178.135 -20.299)" fill="#12263f"/>
      <path id="Trazado_115029" data-name="Trazado 115029" d="M521.176,187.032c0-6.525-6.238-6.525-6.238-6.525-2.378-3.128-5.053-1.986-5.053-1.986l-10.1,6.8c-1.481,2.553-11.282,12.2-11.282,12.2-2.675-1.986-2.675-5.959-5.872-10.785s-10.454-4.251-10.454-4.251,5.645,12.763,6.238,20.708-4.356,30.109-4.356,30.109l28.549,8.024s1.8-12.2,5-13.138c3.851-1.185,5.994-6.865,5.994-6.865,4.156-8.424,12.606-20.682,13.8-26.92S521.176,187.032,521.176,187.032Z" transform="translate(-192.541 -31.595)" fill="#ffbe9d"/>
      <path id="Trazado_115030" data-name="Trazado 115030" d="M277.281,172.12c18.182,11.421,36.5,15.682,55.06,8.32l27.878,7.126,27.443,183.387-160.9,1.437,7.928-42.593,19.95-153.026Z" transform="translate(-160.931 -30.797)" fill="#a7e446"/>
      <path id="Trazado_115031" data-name="Trazado 115031" d="M380,189.85s21.693,9.017,29.978,24.794,21.588,60.113,21.588,60.113l24.524-45.023,45.485,11.648S467.7,334.809,459.2,343.311c-9.313,9.313-34.682,18.7-47.106,11.456s-14.95-34.752-14.95-34.752Z" transform="translate(-180.668 -33.08)" fill="#a7e446"/>
      <path id="Trazado_115032" data-name="Trazado 115032" d="M381.656,272.511c-.122,0-.227-8.137-.227-18.182s.1-18.2.227-18.2.227,8.146.227,18.2S381.787,272.511,381.656,272.511Z" transform="translate(-180.852 -39.042)" fill="#7bb41e"/>
      <path id="Trazado_115033" data-name="Trazado 115033" d="M390.491,201.88a24.856,24.856,0,0,1-1.054,3.006c-.68,1.838-1.594,4.356-2.474,7.257s-1.586,5.489-2.065,7.388a24.552,24.552,0,0,1-.819,3.075,2.865,2.865,0,0,1,.087-.871c.078-.54.227-1.324.427-2.291.392-1.925,1.045-4.574,1.934-7.449s1.847-5.428,2.614-7.24c.375-.871.7-1.638.941-2.134a3.433,3.433,0,0,1,.409-.741Z" transform="translate(-181.193 -34.63)" fill="#7bb41e"/>
      <path id="Trazado_115034" data-name="Trazado 115034" d="M241.961,246.015,247,176.92s-37.88,3.485-50.416,30.239c-10.559,22.52-39.718,90.274-42.837,99.543-9.165,27.2,5.123,64.564,64.129,62.43L224.6,332.15Z" transform="translate(-151.198 -31.415)" fill="#a7e446"/>
      <path id="Trazado_115035" data-name="Trazado 115035" d="M206.7,361.832a3.488,3.488,0,0,1,.3-.662l.958-1.856c.871-1.647,2.108-3.964,3.615-6.8l1.211-2.248a6.6,6.6,0,0,1,1.742-2.222,4.731,4.731,0,0,1,2.919-.871,13.55,13.55,0,0,1,3.136.514,32.351,32.351,0,0,1,6.342,2.4,16.881,16.881,0,0,1,3.04,1.934l.348.3a1.282,1.282,0,0,1,.3.47,4.171,4.171,0,0,1,.192.95,15.065,15.065,0,0,1,0,1.882,72.409,72.409,0,0,1-.714,7.222c-.314,2.326-.671,4.548-1.028,6.673-.714,4.243-1.42,8.041-2.039,11.238s-1.115,5.724-1.472,7.553c-.174.871-.3,1.542-.409,2.056a7.22,7.22,0,0,1-.148.714,2.9,2.9,0,0,1,.061-.732c.061-.479.166-1.176.322-2.073l1.333-7.579c.575-3.2,1.255-6.97,1.943-11.247.34-2.117.688-4.356,1-6.665a72.089,72.089,0,0,0,.7-7.179,13.938,13.938,0,0,0,0-1.812,3.633,3.633,0,0,0-.166-.871.68.68,0,0,0-.183-.288l-.331-.3a16.546,16.546,0,0,0-2.962-1.89,32.353,32.353,0,0,0-6.238-2.387,13.077,13.077,0,0,0-3.04-.514,4.357,4.357,0,0,0-2.683.74,6.326,6.326,0,0,0-1.646,2.1l-1.237,2.23-3.737,6.726-1.037,1.821A5.3,5.3,0,0,1,206.7,361.832Z" transform="translate(-158.347 -53.343)" fill="#7bb41e"/>
      <path id="Trazado_115036" data-name="Trazado 115036" d="M175.25,326.268a2.312,2.312,0,0,1,.453,0l1.272.043c1.1.061,2.692.148,4.661.331a60.188,60.188,0,0,1,6.882,1,35.8,35.8,0,0,1,8.093,2.683,31.927,31.927,0,0,1,7.118,4.7,18.983,18.983,0,0,1,4.356,5.462,12.2,12.2,0,0,1,1.307,4.5,8.3,8.3,0,0,1,0,1.281,2.01,2.01,0,0,1,0,.436c-.052,0,0-.61-.166-1.742a12.693,12.693,0,0,0-1.42-4.356,19.166,19.166,0,0,0-4.312-5.3,32.234,32.234,0,0,0-7.039-4.6,35.867,35.867,0,0,0-7.98-2.683,67.794,67.794,0,0,0-6.821-1.089c-1.96-.227-3.554-.366-4.652-.47l-1.263-.139A1.614,1.614,0,0,1,175.25,326.268Z" transform="translate(-154.296 -50.65)" fill="#7bb41e"/>
      <path id="Trazado_115037" data-name="Trazado 115037" d="M220.635,322.27a17.318,17.318,0,0,1-.941,2.718c-.653,1.655-1.62,3.912-2.727,6.377s-2.065,4.609-2.84,6.351a22.889,22.889,0,0,1-1.237,2.614,15.217,15.217,0,0,1,.941-2.727c.645-1.647,1.612-3.9,2.718-6.377s2.065-4.583,2.849-6.316A19.641,19.641,0,0,1,220.635,322.27Z" transform="translate(-159.144 -50.136)" fill="#7bb41e"/>
      <path id="Trazado_115038" data-name="Trazado 115038" d="M245.807,256.957c-.131,0-.227-4.356-.227-9.784s.1-9.784.227-9.784.227,4.356.227,9.784S245.946,256.957,245.807,256.957Z" transform="translate(-163.355 -39.203)" fill="#7bb41e"/>
      <g id="Grupo_80155" data-name="Grupo 80155" transform="translate(35.374 296.048)">
        <path id="Trazado_115039" data-name="Trazado 115039" d="M211.481,349.72c-9.966,3.485-16.7,12.519-19.428,22.721-.279,1.063-.47,2.326.244,3.171a2.509,2.509,0,0,0,3.128.261,7.44,7.44,0,0,0,2.222-2.561C202.446,365.637,207.133,358.5,211.481,349.72Z" transform="translate(-191.802 -349.72)" fill="#7bb41e"/>
      </g>
      <g id="Grupo_80156" data-name="Grupo 80156" transform="translate(11.197 271.809)">
        <path id="Trazado_115040" data-name="Trazado 115040" d="M195.544,326.43a40.275,40.275,0,0,0-17.154-4.5,26.136,26.136,0,0,0-6.97.61c-3.11.653-6.691,2.23-7.37,4.461,7.153-2.239,17.685-.767,25,.871A26.868,26.868,0,0,1,206.6,340.282,24.986,24.986,0,0,0,195.544,326.43Z" transform="translate(-164.05 -321.897)" fill="#7bb41e"/>
      </g>
      <path id="Trazado_115041" data-name="Trazado 115041" d="M237.3,222.425a6.48,6.48,0,0,1-.348-1.089c-.183-.706-.488-1.742-.871-2.971a49.209,49.209,0,0,0-4.208-9.3,49.712,49.712,0,0,0-6.1-8.2c-.871-.967-1.629-1.742-2.152-2.23a5.478,5.478,0,0,1-.793-.871,5.227,5.227,0,0,1,.871.706c.566.47,1.35,1.2,2.274,2.143a42.933,42.933,0,0,1,10.367,17.616,30.683,30.683,0,0,1,.767,3.023A5.32,5.32,0,0,1,237.3,222.425Z" transform="translate(-160.424 -34.101)" fill="#7bb41e"/>
      <path id="Trazado_115042" data-name="Trazado 115042" d="M249.077,383.617,206.9,281.757c-1.925-4.652.488-8.416,5.4-8.416h8.485c3.485,0,5.828-1.908,6.055-4.887l.279-3.746c.227-2.98,2.614-4.887,6.1-4.887h40.354a14.122,14.122,0,0,1,9.339,4.129l3.276,3.171a14.07,14.07,0,0,0,9.27,4.182h51.4c4.9,0,10.4,3.764,12.275,8.416l41.817,103.917Z" transform="translate(-158.287 -42.092)" fill="#ff725e"/>
      <g id="Grupo_80157" data-name="Grupo 80157" transform="translate(47.952 217.727)">
        <path id="Trazado_115043" data-name="Trazado 115043" d="M249.077,383.617,206.9,281.757c-1.925-4.652.488-8.416,5.4-8.416h8.485c3.485,0,5.828-1.908,6.055-4.887l.279-3.746c.227-2.98,2.614-4.887,6.1-4.887h40.354a14.122,14.122,0,0,1,9.339,4.129l3.276,3.171a14.07,14.07,0,0,0,9.27,4.182h51.4c4.9,0,10.4,3.764,12.275,8.416l41.817,103.917Z" transform="translate(-206.24 -259.82)" fill="#feca2e"/>
      </g>
      <path id="Trazado_115044" data-name="Trazado 115044" d="M245.013,351.92,229.1,290.37c-1.045-4.051,1.612-8.12,5.306-8.12H359.175a5.7,5.7,0,0,1,5.314,4.583l23.174,92.643c1.019,4.069-.61,6.508-4.3,6.464H257.811a5.68,5.68,0,0,1-5.227-4.548Z" transform="translate(-161.202 -44.982)" fill="#e8e8e8"/>
      <path id="Trazado_115045" data-name="Trazado 115045" d="M256.3,383.451l-6.778-96.921a5.942,5.942,0,0,1,5.924-6.36H384.736V383.451Z" transform="translate(-163.86 -44.714)" fill="#f6f6f6"/>
      <path id="Trazado_115046" data-name="Trazado 115046" d="M255.64,385.672l15.385-99.926a7.152,7.152,0,0,1,7.031-5.576H408.84a7.065,7.065,0,0,1,6.6,9.845L387.2,381.49Z" transform="translate(-164.65 -44.714)" fill="#fff"/>
      <path id="Trazado_115047" data-name="Trazado 115047" d="M255.41,387.075l31.72-93.584A9.383,9.383,0,0,1,296,287H430.782a6.577,6.577,0,0,1,6.02,8.712l-29.5,91.406Z" transform="translate(-164.62 -45.593)" fill="#feca2e"/>
      <g id="Grupo_80158" data-name="Grupo 80158" transform="translate(93.54 285.594)" opacity="0.3">
        <path id="Trazado_115048" data-name="Trazado 115048" d="M321.008,377.934s-5.088.235-7.44.392a69.155,69.155,0,0,1-32.757-5.811c-3.171-1.411-6.525-3.406-7.492-6.743-1.072-3.737,1.35-7.632,4.3-10.167s6.543-4.356,9.1-7.266,3.772-7.658,1.246-10.62l-.7.514c-1.821,4.617-6.9,6.848-11.108,9.5A39.2,39.2,0,0,0,259.7,369.249c-1.481,4.844-1.873,10.454,1.063,14.619,2.082,2.936,5.5,4.6,8.869,5.846,10.2,3.781,21.1,3.929,31.982,3.938,3.433,0,13.939-.139,13.939-.139,3.319-.871,4.408-2.614,6.412-5.428C323.84,385.514,323.413,379.947,321.008,377.934Z" transform="translate(-258.568 -337.72)"/>
      </g>
      <path id="Trazado_115049" data-name="Trazado 115049" d="M317.183,377.606l-35.162-5.288-13.66-7.841a6.194,6.194,0,0,1-3.136-4.966.541.541,0,0,0,0-.113,6.246,6.246,0,0,1,3.868-5.95c4.356-1.821,11.195-4.251,14.122-9.383,4.2-7.362,0-8.895,0-8.895l-29.368,11.744L233.06,361.062l-4.19,23.618,29,9.47s32.321,1.821,41.242.819,8.912-5.149,8.912-5.149c1.655-.523,5.009-3.485,5.009-6.2,4.356-4.06,4.147-5.976,4.147-5.976" transform="translate(-161.202 -51.798)" fill="#ffbe9d"/>
      <path id="Trazado_115050" data-name="Trazado 115050" d="M278.61,395.54a6.576,6.576,0,0,1,1.446.279c.923.218,2.256.514,3.912.871a82.974,82.974,0,0,0,26.249.993c1.681-.2,3.032-.392,3.964-.549a6.784,6.784,0,0,1,1.472-.157,8.044,8.044,0,0,1-1.429.392c-.923.218-2.274.47-3.947.732a71.568,71.568,0,0,1-26.4-1.028c-1.655-.392-2.98-.749-3.886-1.045A7.357,7.357,0,0,1,278.61,395.54Z" transform="translate(-167.609 -59.574)" fill="#eb996e"/>
      <path id="Trazado_115051" data-name="Trazado 115051" d="M282.3,389.3a6.9,6.9,0,0,1,1.472.279c.932.227,2.291.523,3.973.871a85.666,85.666,0,0,0,13.286,1.472A91.058,91.058,0,0,0,314.4,391.3c1.742-.2,3.075-.4,4.025-.549a8.019,8.019,0,0,1,1.49-.174,7.229,7.229,0,0,1-1.446.4c-.941.227-2.309.479-4.016.741a75.223,75.223,0,0,1-13.443.793,72.124,72.124,0,0,1-13.355-1.655c-1.681-.375-3.032-.732-3.947-1.028A7.229,7.229,0,0,1,282.3,389.3Z" transform="translate(-168.084 -58.77)" fill="#eb996e"/>
      <path id="Trazado_115052" data-name="Trazado 115052" d="M507.191,225.574l-62.482,12.345a7.971,7.971,0,0,1-9.357-6.246l-17.084-86.484a7.971,7.971,0,0,1,6.273-9.365L464.188,128,501.1,153.561l12.388,62.683a7.971,7.971,0,0,1-6.3,9.331Z" transform="translate(-185.577 -25.114)" fill="#ebebeb"/>
      <path id="Trazado_115053" data-name="Trazado 115053" d="M471,128l4.809,24.341a7.405,7.405,0,0,0,8.712,5.837l23.4-4.617Z" transform="translate(-192.389 -25.114)" fill="#f5f5f5"/>
      <path id="Trazado_115057" data-name="Trazado 115057" d="M469.672,153.159c0,.122-7.336,1.681-16.44,3.485s-16.5,3.154-16.553,3.032,7.335-1.681,16.44-3.485S469.646,153.019,469.672,153.159Z" transform="translate(-187.968 -28.353)" fill="#263238"/>
      <path id="Trazado_115058" data-name="Trazado 115058" d="M488.058,163.549c0,.122-10.838,2.37-24.254,5.018s-24.324,4.7-24.394,4.583,10.838-2.37,24.263-5.027S488.032,163.427,488.058,163.549Z" transform="translate(-188.32 -29.692)" fill="#263238"/>
      <path id="Trazado_115059" data-name="Trazado 115059" d="M490.808,177.489c0,.122-10.838,2.37-24.254,5.018s-24.324,4.7-24.393,4.582,10.838-2.378,24.263-5.027S490.808,177.358,490.808,177.489Z" transform="translate(-188.675 -31.488)" fill="#263238"/>
      <path id="Trazado_115060" data-name="Trazado 115060" d="M445,201.02c0-.122,10.838-2.37,24.254-5.018s24.324-4.7,24.35-4.583-10.838,2.37-24.263,5.027S445,201.142,445,201.02Z" transform="translate(-189.04 -33.282)" fill="#263238"/>
      <path id="Trazado_115061" data-name="Trazado 115061" d="M496.324,205.359c0,.122-10.838,2.37-24.254,5.018s-24.324,4.7-24.35,4.583,10.838-2.37,24.254-5.027S496.3,205.237,496.324,205.359Z" transform="translate(-189.391 -35.077)" fill="#263238"/>
      <path id="Trazado_115062" data-name="Trazado 115062" d="M499.074,219.3c0,.122-10.838,2.37-24.254,5.018s-24.324,4.7-24.35,4.582,10.838-2.378,24.263-5.027S499.048,219.177,499.074,219.3Z" transform="translate(-189.745 -36.873)" fill="#263238"/>
      <rect id="Rectángulo_34582" data-name="Rectángulo 34582" width="54.093" height="24.306" rx="4.22" transform="translate(229.266 176.429) rotate(-11.17)" fill="#fc4b52"/>
      <path id="Trazado_115063" data-name="Trazado 115063" d="M431.05,218.211l4.095-.81c2.945-.584,5.314.793,5.854,3.485s-1.132,4.9-4.077,5.489l-4.095.81Zm5.428,6.508a2.849,2.849,0,1,0-1.1-5.584l-1.908.375,1.106,5.584Z" transform="translate(-187.244 -36.612)" fill="#fff"/>
      <path id="Trazado_115064" data-name="Trazado 115064" d="M443.6,220.3A5.036,5.036,0,1,1,449.451,224,4.748,4.748,0,0,1,443.6,220.3Zm7.754-1.525a2.875,2.875,0,1,0-2.256,3.485,2.8,2.8,0,0,0,2.256-3.485Z" transform="translate(-188.84 -36.193)" fill="#fff"/>
      <path id="Trazado_115065" data-name="Trazado 115065" d="M456.083,217.923a5.053,5.053,0,0,1,7.989-4.757l-1.1,1.472a2.971,2.971,0,0,0-2.474-.61,2.94,2.94,0,1,0,3.189,4.251l1.586.967a5.053,5.053,0,0,1-9.2-1.35Z" transform="translate(-190.462 -35.958)" fill="#fff"/>
      <path id="Trazado_115066" data-name="Trazado 115066" d="M507.851,165.59s4.617-5.837,8.172-2.614,2.526,4.948-.871,10.106c0,0,7.544-.392,5.123,7.353,0,0,7.518-.871,6.8,5.515,0,0,5.68,5.55,2.727,9.13s-13.66,10.045-16.361,8.93-2.727-4.94-2.727-4.94-3.215-1.446-4.1-3.145.636-4.068.636-4.068-2.709-2.77-3.38-3.546.366-4.356.366-4.356l4.356-4.2s-5.959,2.614-7.2,1.6-2.614-1.847-1.315-3.642,6.1-5.837,6.1-5.837Z" transform="translate(-196.065 -29.494)" fill="#ffbe9d"/>
      <path id="Trazado_115067" data-name="Trazado 115067" d="M513.07,203.1a20.492,20.492,0,0,1,1.96-2.37,22.473,22.473,0,0,1,5.506-5.044,53.956,53.956,0,0,0,6.185-3.981c1.438-1.194,2-2.239,2.108-2.169s-.349,1.2-1.742,2.544a40.665,40.665,0,0,1-6.1,4.208,27.769,27.769,0,0,0-5.523,4.783A9.586,9.586,0,0,1,513.07,203.1Z" transform="translate(-197.808 -33.04)" fill="#eb996e"/>
      <path id="Trazado_115068" data-name="Trazado 115068" d="M508.279,195.747c-.139-.139,2.614-3.128,6.186-6.673a58.476,58.476,0,0,1,4.635-4.487,5.62,5.62,0,0,1,2.317-1.377c.052.1-.81.627-1.978,1.742s-2.657,2.84-4.469,4.609C511.416,193.124,508.419,195.886,508.279,195.747Z" transform="translate(-197.19 -32.225)" fill="#eb996e"/>
      <path id="Trazado_115069" data-name="Trazado 115069" d="M509.909,181.385c-.139-.183,1.568-1.542,3.485-3.345s2.875-3.72,3.058-3.65-.531,2.274-2.553,4.164S509.987,181.516,509.909,181.385Z" transform="translate(-197.4 -31.089)" fill="#eb996e"/>
      <path id="Trazado_115070" data-name="Trazado 115070" d="M507.814,165.533a1.487,1.487,0,0,1-.07.436l-.3,1.228q-.444,1.742-1.22,4.7h0c-.871.767-1.856,1.647-2.91,2.614a25.586,25.586,0,0,0-3.215,3.441,1.839,1.839,0,0,0-.331,1.089,1.743,1.743,0,0,0,.584,1.019,11.194,11.194,0,0,0,1.063.871,1.594,1.594,0,0,0,1.2.235,23.062,23.062,0,0,0,5.846-1.812l1.394-.575-1.08,1.054-4.312,4.208.07-.087a5.5,5.5,0,0,0-.226,4.356,12.345,12.345,0,0,0,3.415,3.485l.3.218-.279.444c-.95,1.115-1.612,2.875-.383,3.955a15.969,15.969,0,0,0,4.095,2.8l-.514.279v-.1h0c.1.1-.2-.253.209.3.976-.462.279-.192.5-.261h0v.523a6.465,6.465,0,0,0,.07.706,5.682,5.682,0,0,0,.383,1.385,3.546,3.546,0,0,0,.767,1.15,2.117,2.117,0,0,0,1.115.636,6.664,6.664,0,0,0,2.849-.558,24.91,24.91,0,0,0,2.831-1.272,46.991,46.991,0,0,0,5.044-3.049,30.014,30.014,0,0,0,4.408-3.615,3.6,3.6,0,0,0,1.141-2.274,5.471,5.471,0,0,0-.462-2.535,14.485,14.485,0,0,0-2.971-4.356l-.1-.113v-.166a5.437,5.437,0,0,0-.253-2.474,3.659,3.659,0,0,0-1.525-1.795,8.067,8.067,0,0,0-4.643-.871h-.436l.1-.427c.113-.47.244-.932.34-1.394a7.548,7.548,0,0,0,.113-1.385,3.9,3.9,0,0,0-.775-2.457,5.68,5.68,0,0,0-4.5-1.742h-.505l.27-.418a43.053,43.053,0,0,0,2.413-3.99,5.932,5.932,0,0,0,.619-1.969,3.2,3.2,0,0,0-.392-1.821,8.093,8.093,0,0,0-2.37-2.614,3.485,3.485,0,0,0-2.823-.287,9.357,9.357,0,0,0-3.485,2.2c-.357.322-.61.592-.784.767s-.261.27-.279.261a1.193,1.193,0,0,1,.218-.314c.157-.192.392-.479.732-.871a12.064,12.064,0,0,1,1.359-1.194,7.2,7.2,0,0,1,2.178-1.167,3.772,3.772,0,0,1,3.084.253l.723.531.653.627a7.321,7.321,0,0,1,1.185,1.533,3.6,3.6,0,0,1,.462,2.065,6.049,6.049,0,0,1-.636,2.126,40.934,40.934,0,0,1-2.413,4.051l-.235-.409a7.841,7.841,0,0,1,2.614.375,4.9,4.9,0,0,1,2.344,1.551,4.513,4.513,0,0,1,.923,2.8,8.852,8.852,0,0,1-.113,1.507c-.1.488-.235.976-.348,1.481l-.331-.4a8.659,8.659,0,0,1,5.053.95,4.259,4.259,0,0,1,1.795,2.108,6.1,6.1,0,0,1,.314,2.8l-.1-.279a15.023,15.023,0,0,1,3.128,4.53,5.978,5.978,0,0,1,.523,2.866,4.194,4.194,0,0,1-.418,1.472,6.094,6.094,0,0,1-.871,1.211,29.965,29.965,0,0,1-4.513,3.72,47.064,47.064,0,0,1-5.123,3.1,25.592,25.592,0,0,1-2.91,1.307,7.388,7.388,0,0,1-3.206.6,3.563,3.563,0,0,1-2.431-2.222,6.451,6.451,0,0,1-.427-1.542c0-.261-.061-.523-.07-.784v-.653h0c.209-.078-.479.192.5-.27.409.558.113.2.2.3v.209l-.052.523-.453-.244a16.45,16.45,0,0,1-4.286-2.962,3.382,3.382,0,0,1-.74-1.176,2.813,2.813,0,0,1-.052-1.394,5.227,5.227,0,0,1,1.176-2.309l.052.505a12.683,12.683,0,0,1-3.6-3.737,4.453,4.453,0,0,1-.4-2.553,7.928,7.928,0,0,1,.636-2.387v-.052h.043l4.356-4.182.314.47a22.747,22.747,0,0,1-6.037,1.8,2.126,2.126,0,0,1-1.56-.357,12.085,12.085,0,0,1-1.089-.932,2.187,2.187,0,0,1-.714-1.324,2.213,2.213,0,0,1,.418-1.377,25.26,25.26,0,0,1,3.345-3.485c1.08-.976,2.073-1.838,2.962-2.614l-.044.078c.575-2,1.037-3.554,1.359-4.687.157-.488.279-.871.375-1.2a1.973,1.973,0,0,1,.148-.3Z" transform="translate(-196.027 -29.455)" fill="#eb996e"/>
    </g>
    <g id="Grupo_80168" data-name="Grupo 80168" transform="translate(1120.191 4090.238)">
      <path id="Trazado_114967" data-name="Trazado 114967" d="M576.246,314.885l-51.835,90.672-102.573,1.471a6.211,6.211,0,0,0-6.109,5.871h0l104.3.294,3.925-.136,130.594.26,26.393-45.511,33.746-48.317a4.774,4.774,0,0,0-3.96-7.489l-130.368.5A4.774,4.774,0,0,0,576.246,314.885Z" transform="translate(-415.73 -312)" fill="#afafaf"/>
      <path id="Trazado_114968" data-name="Trazado 114968" d="M701.475,315.068a2.264,2.264,0,0,1-.622.068l-1.833.057-7.059.125-25.929.2-85.6.226h-6.222a5.147,5.147,0,0,0-4.751,2.263q-2.952,5.306-5.8,10.476L552.633,348.35l-18.7,33.61-12.716,22.625c-1.482,2.591-2.658,4.627-3.507,6.12-.385.634-.69,1.131-.95,1.573a2.543,2.543,0,0,1-.351.509,1.963,1.963,0,0,1,.238-.577l.837-1.64,3.292-6.233c2.975-5.475,7.183-13.247,12.353-22.806L551.6,347.784l10.94-19.9,5.837-10.566a6.448,6.448,0,0,1,5.826-2.817h6.222l85.569.181,25.929.215,7.059.113,1.833.068a2.264,2.264,0,0,1,.656-.011Z" transform="translate(-402.513 -311.674)" fill="#636363"/>
      <path id="Trazado_114969" data-name="Trazado 114969" d="M598.953,355.58c-2.263,2.557-2.365,6.267-.125,8.281s5.928,1.584,8.236-.973,2.364-6.267.125-8.281S601.261,353.023,598.953,355.58Z" transform="translate(-391.908 -306.573)" fill="#e8e8e8"/>
    </g>
  </g>
</svg>
