<svg xmlns="http://www.w3.org/2000/svg" width="1240" height="321.015" viewBox="0 0 1240 321.015">
  <g id="Grupo_115820" data-name="Grupo 115820" transform="translate(-180 -2538.001)">
    <g id="Trazado_159039" data-name="Trazado 159039" transform="translate(180 2569.524)" fill="#dff7f9">
      <path d="M 1230 287.9911499023438 L 10 287.9911499023438 C 5.313076972961426 287.9911499023438 1.5 284.1780700683594 1.5 279.4911499023438 L 1.5 10.00006675720215 C 1.5 5.313143730163574 5.313076972961426 1.500066995620728 10 1.500066995620728 L 1230 1.500066995620728 C 1234.686889648438 1.500066995620728 1238.5 5.313143730163574 1238.5 10.00006675720215 L 1238.5 279.4911499023438 C 1238.5 284.1780700683594 1234.686889648438 287.9911499023438 1230 287.9911499023438 Z" stroke="none"/>
      <path d="M 10 3.00006103515625 C 6.14013671875 3.00006103515625 3 6.140228271484375 3 10.00006103515625 L 3 279.4911499023438 C 3 283.3509826660156 6.14013671875 286.4911499023438 10 286.4911499023438 L 1230 286.4911499023438 C 1233.85986328125 286.4911499023438 1237 283.3509826660156 1237 279.4911499023438 L 1237 10.00006103515625 C 1237 6.140228271484375 1233.85986328125 3.00006103515625 1230 3.00006103515625 L 10 3.00006103515625 M 10 6.103515625e-05 L 1230 6.103515625e-05 C 1235.522827148438 6.103515625e-05 1240 4.477142333984375 1240 10.00006103515625 L 1240 279.4911499023438 C 1240 285.0140686035156 1235.522827148438 289.4911499023438 1230 289.4911499023438 L 10 289.4911499023438 C 4.47705078125 289.4911499023438 0 285.0140686035156 0 279.4911499023438 L 0 10.00006103515625 C 0 4.477142333984375 4.47705078125 6.103515625e-05 10 6.103515625e-05 Z" stroke="none" fill="#9de655"/>
    </g>
    <path id="Trazado_159042" data-name="Trazado 159042" d="M10,0H390a10,10,0,0,1,10,10V50.491a10,10,0,0,1-10,10H10a10,10,0,0,1-10-10V10A10,10,0,0,1,10,0Z" transform="translate(600 2538.001)" fill="#a7e446"/>
    <path id="Trazado_159043" data-name="Trazado 159043" d="M58.847,7.523H55.362V17H53.019V7.523H49.581v-1.9h9.266ZM62.417,17H60.151V8.547h2.266Zm-2.4-10.641a1.112,1.112,0,0,1,.34-.836,1.465,1.465,0,0,1,1.848,0,1.105,1.105,0,0,1,.344.836A1.108,1.108,0,0,1,62.2,7.2a1.448,1.448,0,0,1-1.836,0A1.108,1.108,0,0,1,60.019,6.359Zm11.867,6.492A5.07,5.07,0,0,1,71,15.98,2.843,2.843,0,0,1,68.6,17.156a2.633,2.633,0,0,1-2.07-.891V20.25H64.276V8.547H66.37l.078.828a2.654,2.654,0,0,1,2.141-.984,2.862,2.862,0,0,1,2.43,1.156,5.207,5.207,0,0,1,.867,3.188Zm-2.258-.172a3.345,3.345,0,0,0-.418-1.826A1.36,1.36,0,0,0,68,10.211a1.478,1.478,0,0,0-1.461.815V14.5a1.5,1.5,0,0,0,1.477.839Q69.628,15.336,69.628,12.679Zm3.3.016a5.013,5.013,0,0,1,.484-2.242A3.546,3.546,0,0,1,74.812,8.93a4.069,4.069,0,0,1,2.113-.539,3.849,3.849,0,0,1,2.793,1.047,4.2,4.2,0,0,1,1.207,2.844l.016.578a4.418,4.418,0,0,1-1.086,3.121,4.209,4.209,0,0,1-5.832,0,4.5,4.5,0,0,1-1.09-3.187Zm2.258.16a3.16,3.16,0,0,0,.453,1.843,1.628,1.628,0,0,0,2.578.008,3.457,3.457,0,0,0,.461-2.015,3.128,3.128,0,0,0-.461-1.831,1.5,1.5,0,0,0-1.3-.649,1.474,1.474,0,0,0-1.281.646A3.516,3.516,0,0,0,75.19,12.856Zm11.719,1.808a.727.727,0,0,0-.41-.652,4.659,4.659,0,0,0-1.316-.426q-3.016-.633-3.016-2.562A2.323,2.323,0,0,1,83.1,9.145a3.766,3.766,0,0,1,2.441-.754,4.053,4.053,0,0,1,2.574.758,2.388,2.388,0,0,1,.965,1.969H86.823a1.092,1.092,0,0,0-.312-.8A1.322,1.322,0,0,0,85.534,10a1.351,1.351,0,0,0-.883.258.814.814,0,0,0-.312.656.7.7,0,0,0,.355.605,3.657,3.657,0,0,0,1.2.4,9.8,9.8,0,0,1,1.422.379A2.336,2.336,0,0,1,89.1,14.57a2.2,2.2,0,0,1-.992,1.871,4.28,4.28,0,0,1-2.562.715,4.47,4.47,0,0,1-1.887-.379,3.166,3.166,0,0,1-1.293-1.039,2.414,2.414,0,0,1-.469-1.426h2.141a1.179,1.179,0,0,0,.445.922,1.766,1.766,0,0,0,1.109.32,1.635,1.635,0,0,0,.98-.246A.766.766,0,0,0,86.909,14.664Zm7.281-1.953a5.094,5.094,0,0,1,.887-3.148A2.877,2.877,0,0,1,97.5,8.391a2.589,2.589,0,0,1,2.039.922V5h2.266V17H99.769l-.109-.9a2.657,2.657,0,0,1-2.172,1.055,2.869,2.869,0,0,1-2.395-1.176A5.258,5.258,0,0,1,94.19,12.711Zm2.258.161a3.355,3.355,0,0,0,.414,1.829,1.348,1.348,0,0,0,1.2.636,1.51,1.51,0,0,0,1.477-.887V11.1a1.489,1.489,0,0,0-1.461-.887Q96.448,10.211,96.448,12.872Zm11,4.285a4.15,4.15,0,0,1-3.027-1.141,4.054,4.054,0,0,1-1.168-3.039v-.219a5.106,5.106,0,0,1,.492-2.277,3.612,3.612,0,0,1,1.395-1.547,3.914,3.914,0,0,1,2.059-.543,3.508,3.508,0,0,1,2.73,1.094,4.444,4.444,0,0,1,1,3.1v.922h-5.383a2.1,2.1,0,0,0,.66,1.328,2,2,0,0,0,1.395.5,2.437,2.437,0,0,0,2.039-.945l1.109,1.242a3.389,3.389,0,0,1-1.375,1.121A4.511,4.511,0,0,1,107.448,17.156Zm-.258-6.945a1.411,1.411,0,0,0-1.09.455,2.357,2.357,0,0,0-.535,1.3h3.141v-.181a1.681,1.681,0,0,0-.406-1.165A1.456,1.456,0,0,0,107.19,10.211Zm12.891,6.945a4.15,4.15,0,0,1-3.027-1.141,4.054,4.054,0,0,1-1.168-3.039v-.219a5.106,5.106,0,0,1,.492-2.277,3.612,3.612,0,0,1,1.395-1.547,3.914,3.914,0,0,1,2.059-.543,3.508,3.508,0,0,1,2.73,1.094,4.444,4.444,0,0,1,1,3.1v.922h-5.383a2.1,2.1,0,0,0,.66,1.328,2,2,0,0,0,1.395.5,2.437,2.437,0,0,0,2.039-.945l1.109,1.242A3.389,3.389,0,0,1,122,16.754,4.511,4.511,0,0,1,120.081,17.156Zm-.258-6.945a1.411,1.411,0,0,0-1.09.455,2.357,2.357,0,0,0-.535,1.3h3.141v-.181a1.681,1.681,0,0,0-.406-1.165A1.456,1.456,0,0,0,119.823,10.211Zm9.594,4.453a.727.727,0,0,0-.41-.652,4.659,4.659,0,0,0-1.316-.426q-3.016-.633-3.016-2.562a2.323,2.323,0,0,1,.934-1.879,3.766,3.766,0,0,1,2.441-.754,4.053,4.053,0,0,1,2.574.758,2.388,2.388,0,0,1,.965,1.969h-2.258a1.092,1.092,0,0,0-.312-.8,1.322,1.322,0,0,0-.977-.316,1.351,1.351,0,0,0-.883.258.814.814,0,0,0-.312.656.7.7,0,0,0,.355.605,3.657,3.657,0,0,0,1.2.4,9.8,9.8,0,0,1,1.422.379,2.336,2.336,0,0,1,1.789,2.273,2.205,2.205,0,0,1-.992,1.871,4.28,4.28,0,0,1-2.562.715,4.47,4.47,0,0,1-1.887-.379,3.166,3.166,0,0,1-1.293-1.039,2.414,2.414,0,0,1-.469-1.426h2.141a1.179,1.179,0,0,0,.445.922,1.766,1.766,0,0,0,1.109.32,1.635,1.635,0,0,0,.98-.246A.766.766,0,0,0,129.417,14.664Zm6.352-8.2V8.547h1.445V10.2h-1.445v4.219a1.007,1.007,0,0,0,.18.672.9.9,0,0,0,.688.2,3.6,3.6,0,0,0,.664-.055v1.711a4.648,4.648,0,0,1-1.367.2,2.156,2.156,0,0,1-2.422-2.4V10.2h-1.234V8.547h1.234V6.469Zm7.453,4.2a6.134,6.134,0,0,0-.812-.062,1.654,1.654,0,0,0-1.68.867V17h-2.258V8.547H140.6l.063,1.008a2.092,2.092,0,0,1,1.883-1.164,2.366,2.366,0,0,1,.7.1Zm6.148,5.477a2.831,2.831,0,0,1-2.312,1.016,2.67,2.67,0,0,1-2.074-.781,3.335,3.335,0,0,1-.73-2.289V8.547h2.258v5.467q0,1.322,1.2,1.322a1.63,1.63,0,0,0,1.578-.8V8.547h2.266V17h-2.125Zm7.406-.8a1.481,1.481,0,0,0,1.016-.344,1.2,1.2,0,0,0,.406-.914h2.117a2.9,2.9,0,0,1-.469,1.574,3.093,3.093,0,0,1-1.262,1.109,3.949,3.949,0,0,1-1.77.395A3.67,3.67,0,0,1,153.956,16a4.56,4.56,0,0,1-1.047-3.184v-.148a4.508,4.508,0,0,1,1.039-3.117A3.627,3.627,0,0,1,156.8,8.391a3.555,3.555,0,0,1,2.543.9,3.2,3.2,0,0,1,.973,2.4H158.2a1.551,1.551,0,0,0-.406-1.072,1.51,1.51,0,0,0-2.223.163,3.333,3.333,0,0,0-.4,1.866v.235a3.375,3.375,0,0,0,.4,1.878A1.377,1.377,0,0,0,156.776,15.336Zm7.531-8.867V8.547h1.445V10.2h-1.445v4.219a1.007,1.007,0,0,0,.18.672.9.9,0,0,0,.688.2,3.6,3.6,0,0,0,.664-.055v1.711a4.648,4.648,0,0,1-1.367.2,2.156,2.156,0,0,1-2.422-2.4V10.2h-1.234V8.547h1.234V6.469Zm7.766,9.672a2.831,2.831,0,0,1-2.312,1.016,2.67,2.67,0,0,1-2.074-.781,3.335,3.335,0,0,1-.73-2.289V8.547h2.258v5.467q0,1.322,1.2,1.322a1.63,1.63,0,0,0,1.578-.8V8.547h2.266V17h-2.125Zm8.641-5.477a6.134,6.134,0,0,0-.812-.062,1.654,1.654,0,0,0-1.68.867V17h-2.258V8.547H178.1l.063,1.008a2.092,2.092,0,0,1,1.883-1.164,2.366,2.366,0,0,1,.7.1ZM186.464,17a2.507,2.507,0,0,1-.227-.758,2.732,2.732,0,0,1-2.133.914,3,3,0,0,1-2.059-.719,2.312,2.312,0,0,1-.816-1.812,2.389,2.389,0,0,1,1-2.062,4.915,4.915,0,0,1,2.879-.727h1.039v-.484a1.393,1.393,0,0,0-.3-.937,1.183,1.183,0,0,0-.949-.352,1.345,1.345,0,0,0-.895.273.929.929,0,0,0-.324.75h-2.258a2.268,2.268,0,0,1,.453-1.359,3,3,0,0,1,1.281-.98,4.669,4.669,0,0,1,1.859-.355,3.689,3.689,0,0,1,2.48.785,2.747,2.747,0,0,1,.918,2.207v3.664a4.041,4.041,0,0,0,.336,1.82V17ZM184.6,15.43a1.945,1.945,0,0,0,.922-.223,1.462,1.462,0,0,0,.625-.6V13.156H185.3q-1.7,0-1.8,1.172l-.008.133a.9.9,0,0,0,.3.7A1.153,1.153,0,0,0,184.6,15.43Zm13.422,1.727a4.15,4.15,0,0,1-3.027-1.141,4.054,4.054,0,0,1-1.168-3.039v-.219a5.106,5.106,0,0,1,.492-2.277,3.612,3.612,0,0,1,1.395-1.547,3.914,3.914,0,0,1,2.059-.543,3.508,3.508,0,0,1,2.73,1.094,4.444,4.444,0,0,1,1,3.1v.922h-5.383a2.1,2.1,0,0,0,.66,1.328,2,2,0,0,0,1.395.5,2.437,2.437,0,0,0,2.039-.945l1.109,1.242a3.389,3.389,0,0,1-1.375,1.121A4.511,4.511,0,0,1,198.019,17.156Zm-.258-6.945a1.411,1.411,0,0,0-1.09.455,2.357,2.357,0,0,0-.535,1.3h3.141v-.181a1.681,1.681,0,0,0-.406-1.165A1.456,1.456,0,0,0,197.761,10.211Zm7.094-1.664.07.977a2.951,2.951,0,0,1,2.43-1.133,2.453,2.453,0,0,1,2,.789,3.682,3.682,0,0,1,.672,2.359V17h-2.258V11.581a1.47,1.47,0,0,0-.312-1.045,1.4,1.4,0,0,0-1.039-.325,1.553,1.553,0,0,0-1.43.814V17h-2.258V8.547ZM218.1,17h-2.266V5H218.1Zm6.758,0a2.507,2.507,0,0,1-.227-.758,2.732,2.732,0,0,1-2.133.914,3,3,0,0,1-2.059-.719,2.312,2.312,0,0,1-.816-1.812,2.389,2.389,0,0,1,1-2.062,4.915,4.915,0,0,1,2.879-.727h1.039v-.484a1.393,1.393,0,0,0-.3-.937,1.183,1.183,0,0,0-.949-.352,1.345,1.345,0,0,0-.895.273.929.929,0,0,0-.324.75h-2.258a2.268,2.268,0,0,1,.453-1.359,3,3,0,0,1,1.281-.98,4.669,4.669,0,0,1,1.859-.355,3.689,3.689,0,0,1,2.48.785,2.747,2.747,0,0,1,.918,2.207v3.664a4.041,4.041,0,0,0,.336,1.82V17ZM223,15.43a1.945,1.945,0,0,0,.922-.223,1.462,1.462,0,0,0,.625-.6V13.156H223.7q-1.7,0-1.8,1.172l-.008.133a.9.9,0,0,0,.3.7A1.153,1.153,0,0,0,223,15.43Zm10.125-.766a.727.727,0,0,0-.41-.652,4.659,4.659,0,0,0-1.316-.426q-3.016-.633-3.016-2.562a2.323,2.323,0,0,1,.934-1.879,3.766,3.766,0,0,1,2.441-.754,4.053,4.053,0,0,1,2.574.758,2.388,2.388,0,0,1,.965,1.969h-2.258a1.092,1.092,0,0,0-.312-.8,1.322,1.322,0,0,0-.977-.316,1.351,1.351,0,0,0-.883.258.814.814,0,0,0-.312.656.7.7,0,0,0,.355.605,3.657,3.657,0,0,0,1.2.4,9.8,9.8,0,0,1,1.422.379,2.336,2.336,0,0,1,1.789,2.273,2.205,2.205,0,0,1-.992,1.871,4.28,4.28,0,0,1-2.562.715,4.47,4.47,0,0,1-1.887-.379,3.166,3.166,0,0,1-1.293-1.039,2.414,2.414,0,0,1-.469-1.426h2.141a1.179,1.179,0,0,0,.445.922,1.766,1.766,0,0,0,1.109.32,1.635,1.635,0,0,0,.98-.246A.766.766,0,0,0,233.12,14.664Zm10.8,2.492a3.677,3.677,0,0,1-1.965-.543,3.292,3.292,0,0,1-1.277-1.469,4.093,4.093,0,0,1-.328-2.059l.023-.312a5.465,5.465,0,0,1,.719-2.266,4.341,4.341,0,0,1,1.547-1.59,3.827,3.827,0,0,1,2.094-.527,2.924,2.924,0,0,1,2.473,1.2,4.117,4.117,0,0,1,.637,2.962l-.125.962h-5.18a1.814,1.814,0,0,0,.4,1.313,1.521,1.521,0,0,0,1.172.508,2.7,2.7,0,0,0,2.109-.937l1.008,1.25a3.135,3.135,0,0,1-1.375,1.121A4.5,4.5,0,0,1,243.925,17.156Zm.7-6.945a1.565,1.565,0,0,0-1.082.383,3.363,3.363,0,0,0-.848,1.383h3.031l.047-.2a2.071,2.071,0,0,0,.008-.594,1.134,1.134,0,0,0-.383-.707A1.2,1.2,0,0,0,244.628,10.211Zm7.266-1.672-.18.961a3.112,3.112,0,0,1,2.477-1.109,2.379,2.379,0,0,1,1.3.359,1.679,1.679,0,0,1,.7.93,3.255,3.255,0,0,1,2.625-1.289,2.126,2.126,0,0,1,1.754.8,3.271,3.271,0,0,1,.5,2.234l-.016.2-.9,5.383h-2.211l.9-5.4a3.9,3.9,0,0,0,.023-.54.837.837,0,0,0-.937-.845,1.86,1.86,0,0,0-1.555.97l-.023.18L255.354,17h-2.2l.9-5.383a3.9,3.9,0,0,0,.023-.539.836.836,0,0,0-.93-.852,1.867,1.867,0,0,0-1.508.789L250.581,17h-2.2l1.461-8.453ZM270.011,12.8a6.982,6.982,0,0,1-.7,2.359A3.826,3.826,0,0,1,268,16.688a3.058,3.058,0,0,1-1.75.477,2.44,2.44,0,0,1-1.937-.914l-.773,4h-2.2l2.023-11.7,2.031-.008-.148.852a2.7,2.7,0,0,1,2.156-1,2.4,2.4,0,0,1,1.93.9,3.922,3.922,0,0,1,.734,2.363A9.136,9.136,0,0,1,270.011,12.8Zm-2.187-.16.047-.751a2.089,2.089,0,0,0-.277-1.205,1,1,0,0,0-.855-.462,1.818,1.818,0,0,0-1.586.814l-.633,3.49a1.233,1.233,0,0,0,1.242.822,1.59,1.59,0,0,0,1.328-.618A4.234,4.234,0,0,0,267.823,12.636Zm8.672-1.972a4.548,4.548,0,0,0-.742-.078,2.136,2.136,0,0,0-1.867.883L272.909,17h-2.2l1.469-8.453,2.07-.008-.2,1.031a2.325,2.325,0,0,1,1.969-1.2,3.214,3.214,0,0,1,.766.109Zm3.969,6.492a3.677,3.677,0,0,1-1.965-.543,3.292,3.292,0,0,1-1.277-1.469,4.093,4.093,0,0,1-.328-2.059l.023-.312a5.465,5.465,0,0,1,.719-2.266,4.341,4.341,0,0,1,1.547-1.59,3.827,3.827,0,0,1,2.094-.527,2.924,2.924,0,0,1,2.473,1.2,4.117,4.117,0,0,1,.637,2.962l-.125.962h-5.18a1.814,1.814,0,0,0,.4,1.313,1.521,1.521,0,0,0,1.172.508,2.7,2.7,0,0,0,2.109-.937l1.008,1.25a3.135,3.135,0,0,1-1.375,1.121A4.5,4.5,0,0,1,280.464,17.156Zm.7-6.945a1.565,1.565,0,0,0-1.082.383,3.363,3.363,0,0,0-.848,1.383h3.031l.047-.2a2.071,2.071,0,0,0,.008-.594,1.134,1.134,0,0,0-.383-.707A1.2,1.2,0,0,0,281.167,10.211Zm8.648,4.406q.125-.625-.867-.906l-.711-.18q-2.523-.7-2.453-2.453a2.428,2.428,0,0,1,1.059-1.949,3.942,3.942,0,0,1,2.457-.738,3.536,3.536,0,0,1,2.313.758,2.5,2.5,0,0,1,.9,1.977l-2.187-.008a.963.963,0,0,0-1.078-1.1,1.551,1.551,0,0,0-.895.258,1.061,1.061,0,0,0-.465.7q-.117.625.945.883l.313.07a6.285,6.285,0,0,1,1.648.59,2.488,2.488,0,0,1,.879.824,2.04,2.04,0,0,1,.285,1.18,2.251,2.251,0,0,1-.52,1.406,3.18,3.18,0,0,1-1.359.93,4.736,4.736,0,0,1-1.816.3,3.568,3.568,0,0,1-2.344-.809,2.607,2.607,0,0,1-.953-2.051l2.078.016a1.142,1.142,0,0,0,1.3,1.227,1.845,1.845,0,0,0,1-.25A.987.987,0,0,0,289.815,14.617ZM297.862,17a2.281,2.281,0,0,1-.086-.766,2.863,2.863,0,0,1-2.156.922,2.594,2.594,0,0,1-1.84-.723,2.186,2.186,0,0,1-.684-1.746,2.527,2.527,0,0,1,1.16-2.121,5.266,5.266,0,0,1,2.965-.738l1.031.016.109-.508a1.764,1.764,0,0,0,.023-.492.846.846,0,0,0-.277-.574.955.955,0,0,0-.629-.215,1.345,1.345,0,0,0-.875.254,1.231,1.231,0,0,0-.461.777l-2.211.008a2.457,2.457,0,0,1,1.113-1.965,4.312,4.312,0,0,1,2.613-.738,3.117,3.117,0,0,1,2.25.855,2.5,2.5,0,0,1,.68,2.121l-.648,4.047-.039.5a2.412,2.412,0,0,0,.133.938l-.008.148Zm-1.7-1.555a2.017,2.017,0,0,0,1.664-.828l.273-1.461-.766-.008a2.139,2.139,0,0,0-1.758.742,1.292,1.292,0,0,0-.242.633.75.75,0,0,0,.176.668A.891.891,0,0,0,296.167,15.445Zm10.1-.828q.125-.625-.867-.906l-.711-.18q-2.523-.7-2.453-2.453A2.428,2.428,0,0,1,303.3,9.129a3.942,3.942,0,0,1,2.457-.738,3.536,3.536,0,0,1,2.313.758,2.5,2.5,0,0,1,.9,1.977l-2.187-.008a.963.963,0,0,0-1.078-1.1,1.551,1.551,0,0,0-.895.258,1.061,1.061,0,0,0-.465.7q-.117.625.945.883l.313.07a6.285,6.285,0,0,1,1.648.59,2.488,2.488,0,0,1,.879.824,2.04,2.04,0,0,1,.285,1.18,2.251,2.251,0,0,1-.52,1.406,3.18,3.18,0,0,1-1.359.93,4.736,4.736,0,0,1-1.816.3,3.568,3.568,0,0,1-2.344-.809,2.607,2.607,0,0,1-.953-2.051l2.078.016a1.142,1.142,0,0,0,1.3,1.227,1.845,1.845,0,0,0,1-.25A.987.987,0,0,0,306.269,14.617Z" transform="translate(620.368 2557.746)" fill="#12263f"/>
    <path id="Trazado_158912" data-name="Trazado 158912" d="M0,0H935.344" transform="translate(333.828 2710.185)" fill="none" stroke="#12263f" stroke-width="3" stroke-dasharray="8"/>
    <g id="Trazado_159045" data-name="Trazado 159045" transform="translate(238 2629.685)" fill="#feecec">
      <path d="M 180 159.5 L 10 159.5 C 5.313075065612793 159.5 1.5 155.6869201660156 1.5 151 L 1.5 10 C 1.5 5.313075065612793 5.313075065612793 1.5 10 1.5 L 180 1.5 C 184.6869201660156 1.5 188.5 5.313075065612793 188.5 10 L 188.5 151 C 188.5 155.6869201660156 184.6869201660156 159.5 180 159.5 Z" stroke="none"/>
      <path d="M 10 3 C 6.140182495117188 3 3 6.140182495117188 3 10 L 3 151 C 3 154.8598175048828 6.140182495117188 158 10 158 L 180 158 C 183.8598175048828 158 187 154.8598175048828 187 151 L 187 10 C 187 6.140182495117188 183.8598175048828 3 180 3 L 10 3 M 10 0 L 180 0 C 185.5228424072266 0 190 4.477157592773438 190 10 L 190 151 C 190 156.5228424072266 185.5228424072266 161 180 161 L 10 161 C 4.477157592773438 161 0 156.5228424072266 0 151 L 0 10 C 0 4.477157592773438 4.477157592773438 0 10 0 Z" stroke="none" fill="#feca2e"/>
    </g>
    <g id="Trazado_159044" data-name="Trazado 159044" transform="translate(550 2629.685)" fill="#feecec">
      <path d="M 180 159.5 L 10 159.5 C 5.313075065612793 159.5 1.5 155.6869201660156 1.5 151 L 1.5 10 C 1.5 5.313075065612793 5.313075065612793 1.5 10 1.5 L 180 1.5 C 184.6869201660156 1.5 188.5 5.313075065612793 188.5 10 L 188.5 151 C 188.5 155.6869201660156 184.6869201660156 159.5 180 159.5 Z" stroke="none"/>
      <path d="M 10 3 C 6.140182495117188 3 3 6.140182495117188 3 10 L 3 151 C 3 154.8598175048828 6.140182495117188 158 10 158 L 180 158 C 183.8598175048828 158 187 154.8598175048828 187 151 L 187 10 C 187 6.140182495117188 183.8598175048828 3 180 3 L 10 3 M 10 0 L 180 0 C 185.5228424072266 0 190 4.477157592773438 190 10 L 190 151 C 190 156.5228424072266 185.5228424072266 161 180 161 L 10 161 C 4.477157592773438 161 0 156.5228424072266 0 151 L 0 10 C 0 4.477157592773438 4.477157592773438 0 10 0 Z" stroke="none" fill="#feca2e"/>
    </g>
    <g id="Trazado_159041" data-name="Trazado 159041" transform="translate(860 2629.685)" fill="#feecec">
      <path d="M 180 159.5 L 10 159.5 C 5.313075065612793 159.5 1.5 155.6869201660156 1.5 151 L 1.5 10 C 1.5 5.313075065612793 5.313075065612793 1.5 10 1.5 L 180 1.5 C 184.6869201660156 1.5 188.5 5.313075065612793 188.5 10 L 188.5 151 C 188.5 155.6869201660156 184.6869201660156 159.5 180 159.5 Z" stroke="none"/>
      <path d="M 10 3 C 6.140182495117188 3 3 6.140182495117188 3 10 L 3 151 C 3 154.8598175048828 6.140182495117188 158 10 158 L 180 158 C 183.8598175048828 158 187 154.8598175048828 187 151 L 187 10 C 187 6.140182495117188 183.8598175048828 3 180 3 L 10 3 M 10 0 L 180 0 C 185.5228424072266 0 190 4.477157592773438 190 10 L 190 151 C 190 156.5228424072266 185.5228424072266 161 180 161 L 10 161 C 4.477157592773438 161 0 156.5228424072266 0 151 L 0 10 C 0 4.477157592773438 4.477157592773438 0 10 0 Z" stroke="none" fill="#feca2e"/>
    </g>
    <g id="Trazado_159040" data-name="Trazado 159040" transform="translate(1362 2629.685) rotate(90)" fill="#feecec">
      <path d="M 151 188.5 L 10 188.5 C 5.313075065612793 188.5 1.5 184.6869201660156 1.5 180 L 1.5 10 C 1.5 5.313075065612793 5.313075065612793 1.5 10 1.5 L 151 1.5 C 155.6869201660156 1.5 159.5 5.313075065612793 159.5 10 L 159.5 180 C 159.5 184.6869201660156 155.6869201660156 188.5 151 188.5 Z" stroke="none"/>
      <path d="M 10 3 C 6.140182495117188 3 3 6.140182495117188 3 10 L 3 180 C 3 183.8598175048828 6.140182495117188 187 10 187 L 151 187 C 154.8598175048828 187 158 183.8598175048828 158 180 L 158 10 C 158 6.140182495117188 154.8598175048828 3 151 3 L 10 3 M 10 0 L 151 0 C 156.5228424072266 0 161 4.477157592773438 161 10 L 161 180 C 161 185.5228424072266 156.5228424072266 190 151 190 L 10 190 C 4.477157592773438 190 0 185.5228424072266 0 180 L 0 10 C 0 4.477157592773438 4.477157592773438 0 10 0 Z" stroke="none" fill="#feca2e"/>
    </g>
    <g id="Capa_2" data-name="Capa 2" transform="translate(1217 2646.346)">
      <g id="Recursos" transform="translate(0 0)">
        <rect id="Rectángulo_40488" data-name="Rectángulo 40488" width="29.498" height="5.402" rx="2.701" transform="translate(52.218 62.199) rotate(90)" fill="#12263f"/>
        <rect id="Rectángulo_40489" data-name="Rectángulo 40489" width="20.381" height="5.402" rx="2.701" transform="translate(94.269 71.315) rotate(90)" fill="#12263f"/>
        <rect id="Rectángulo_40490" data-name="Rectángulo 40490" width="20.381" height="5.402" rx="2.701" transform="translate(10.804 71.317) rotate(90)" fill="#12263f"/>
        <rect id="Rectángulo_40491" data-name="Rectángulo 40491" width="88.212" height="5.402" rx="2.701" transform="translate(93.616 77.057) rotate(180)" fill="#12263f"/>
        <ellipse id="Elipse_5096" data-name="Elipse 5096" cx="8.104" cy="8.104" rx="8.104" ry="8.104" transform="translate(83.464 83.593)" fill="#fc4b52" stroke="#12263f" stroke-miterlimit="10" stroke-width="3"/>
        <ellipse id="Elipse_5097" data-name="Elipse 5097" cx="4.034" cy="4.034" rx="4.034" ry="4.034" transform="translate(87.534 87.663)" fill="#12263f"/>
        <ellipse id="Elipse_5098" data-name="Elipse 5098" cx="8.104" cy="8.104" rx="8.104" ry="8.104" transform="translate(41.414 83.593)" fill="#fc4b52" stroke="#12263f" stroke-miterlimit="10" stroke-width="3"/>
        <ellipse id="Elipse_5099" data-name="Elipse 5099" cx="4.034" cy="4.034" rx="4.034" ry="4.034" transform="translate(45.483 87.663)" fill="#12263f"/>
        <ellipse id="Elipse_5100" data-name="Elipse 5100" cx="8.104" cy="8.104" rx="8.104" ry="8.104" transform="translate(0 83.593)" fill="#fc4b52" stroke="#12263f" stroke-miterlimit="10" stroke-width="3"/>
        <ellipse id="Elipse_5101" data-name="Elipse 5101" cx="4.034" cy="4.034" rx="4.034" ry="4.034" transform="translate(4.07 87.663)" fill="#12263f"/>
        <rect id="Rectángulo_40492" data-name="Rectángulo 40492" width="33.237" height="5.402" rx="2.701" transform="translate(10.015 6.133) rotate(45)" fill="#12263f"/>
        <rect id="Rectángulo_40493" data-name="Rectángulo 40493" width="33.237" height="5.402" rx="2.701" transform="translate(95.062 9.954) rotate(135)" fill="#12263f"/>
        <ellipse id="Elipse_5102" data-name="Elipse 5102" cx="8.104" cy="8.104" rx="8.104" ry="8.104" transform="translate(83.791 0.099)" fill="#feca2e" stroke="#12263f" stroke-miterlimit="10" stroke-width="3"/>
        <ellipse id="Elipse_5103" data-name="Elipse 5103" cx="4.034" cy="4.034" rx="4.034" ry="4.034" transform="translate(87.861 4.168)" fill="#12263f"/>
        <ellipse id="Elipse_5104" data-name="Elipse 5104" cx="8.104" cy="8.104" rx="8.104" ry="8.104" transform="translate(0.063)" fill="#feca2e" stroke="#12263f" stroke-miterlimit="10" stroke-width="3"/>
        <ellipse id="Elipse_5105" data-name="Elipse 5105" cx="4.034" cy="4.034" rx="4.034" ry="4.034" transform="translate(4.133 4.07)" fill="#12263f"/>
        <path id="Trazado_158735" data-name="Trazado 158735" d="M194.812,219.859l-.715-7.211a7.608,7.608,0,0,0-5.495-6.569l-15.58-4.419-15.58,4.419a7.611,7.611,0,0,0-5.5,6.569l-.715,7.211Z" transform="translate(-123.5 -163.948)" fill="#12263f" stroke="#12263f" stroke-miterlimit="10" stroke-width="3"/>
        <rect id="Rectángulo_40494" data-name="Rectángulo 40494" width="11.538" height="11.538" transform="translate(43.722 40.711)" fill="#dff7f9"/>
        <rect id="Rectángulo_40495" data-name="Rectángulo 40495" width="11.538" height="14.959" transform="translate(43.722 26.425)" fill="#e8b98e" stroke="#12263f" stroke-miterlimit="10" stroke-width="3"/>
        <path id="Trazado_158736" data-name="Trazado 158736" d="M239.68,208.939l-5.43-1.969,1.529,7.306Z" transform="translate(-190.122 -168.151)" fill="#dff7f9" stroke="#12263f" stroke-miterlimit="10" stroke-width="3"/>
        <path id="Trazado_158737" data-name="Trazado 158737" d="M261.8,208.939l5.515-1.969-1.616,7.306Z" transform="translate(-212.323 -168.151)" fill="#dff7f9" stroke="#12263f" stroke-miterlimit="10" stroke-width="3"/>
        <path id="Trazado_158738" data-name="Trazado 158738" d="M249.34,234.568l1.3-5.668-.867-3.287,1.425-1.51-3.447-4.123L244.3,224.1l1.427,1.51-.869,3.287,1.3,5.668Z" transform="translate(-198.231 -178.689)" fill="#feca2e" stroke="#12263f" stroke-miterlimit="10" stroke-width="3"/>
        <path id="Trazado_158739" data-name="Trazado 158739" d="M200.6,204.229l-2.45-.713,6.151-5.885,4.45,18.993h-3.242l-7.8-10.5Z" transform="translate(-160.712 -160.705)" fill="#1d354f" stroke="#12263f" stroke-miterlimit="10" stroke-width="3"/>
        <path id="Trazado_158740" data-name="Trazado 158740" d="M277.932,204.229l2.448-.713-6.149-5.885-4.45,18.993h3.24l7.8-10.5Z" transform="translate(-218.8 -160.705)" fill="#1d354f" stroke="#12263f" stroke-miterlimit="10" stroke-width="3"/>
        <path id="Trazado_158741" data-name="Trazado 158741" d="M216.24,61.235c0,5.668-3.142,7.742-8.613,7.742s-8.516-1.1-9.657-6.65c-6.027-2.16-4.726-8.96-.53-9.825-.591-2.673,1.784-5.968,5.7-6.644C218.16,43.259,225.6,54.668,216.24,61.235Z" transform="translate(-157.733 -37.896)" fill="#505860" stroke="#12263f" stroke-miterlimit="10" stroke-width="3"/>
        <path id="Trazado_158742" data-name="Trazado 158742" d="M232.434,102.695c-5.01.455-14.19.672-17-2.775a7.163,7.163,0,0,0-1.125,4.434c0,7.824,4.017,12.474,9.423,12.474C230.517,116.822,233.552,109.116,232.434,102.695Z" transform="translate(-174.148 -81.913)" fill="#f7d2ac" stroke="#12263f" stroke-miterlimit="10" stroke-width="3"/>
      </g>
    </g>
    <g id="Capa_2-2" data-name="Capa 2" transform="translate(595 2646.02)">
      <g id="Recursos-2" data-name="Recursos" transform="translate(0 0)">
        <rect id="Rectángulo_40496" data-name="Rectángulo 40496" width="27.478" height="5.313" rx="2.656" transform="translate(52.948 68.324) rotate(90)" fill="#12263f"/>
        <rect id="Rectángulo_40497" data-name="Rectángulo 40497" width="32.686" height="5.313" rx="2.656" transform="translate(9.788 6.03) rotate(45)" fill="#12263f"/>
        <rect id="Rectángulo_40498" data-name="Rectángulo 40498" width="32.686" height="5.313" rx="2.656" transform="translate(95.145 9.79) rotate(135)" fill="#12263f"/>
        <ellipse id="Elipse_5106" data-name="Elipse 5106" cx="7.97" cy="7.97" rx="7.97" ry="7.97" transform="translate(84.06 0.097)" fill="#fc4b52" stroke="#12263f" stroke-miterlimit="10" stroke-width="3"/>
        <ellipse id="Elipse_5107" data-name="Elipse 5107" cx="3.968" cy="3.968" rx="3.968" ry="3.968" transform="translate(88.062 4.099)" fill="#12263f"/>
        <ellipse id="Elipse_5108" data-name="Elipse 5108" cx="7.97" cy="7.97" rx="7.97" ry="7.97" transform="translate(42.321 84.188)" fill="#feca2e" stroke="#12263f" stroke-miterlimit="10" stroke-width="3"/>
        <ellipse id="Elipse_5109" data-name="Elipse 5109" cx="3.968" cy="3.968" rx="3.968" ry="3.968" transform="translate(46.323 88.191)" fill="#12263f"/>
        <ellipse id="Elipse_5110" data-name="Elipse 5110" cx="7.97" cy="7.97" rx="7.97" ry="7.97" fill="#fc4b52" stroke="#12263f" stroke-miterlimit="10" stroke-width="3"/>
        <ellipse id="Elipse_5111" data-name="Elipse 5111" cx="3.968" cy="3.968" rx="3.968" ry="3.968" transform="translate(4.002 4.002)" fill="#12263f"/>
        <path id="Trazado_158743" data-name="Trazado 158743" d="M195.424,250.1l-.731-7.35a7.753,7.753,0,0,0-5.6-6.695l-15.876-4.5-15.878,4.5a7.753,7.753,0,0,0-5.6,6.695L151,250.1Z" transform="translate(-122.925 -187.852)" fill="#12263f" stroke="#12263f" stroke-miterlimit="10" stroke-width="3"/>
        <rect id="Rectángulo_40499" data-name="Rectángulo 40499" width="11.757" height="11.757" transform="translate(44.383 46.751)" fill="#dff7f9"/>
        <rect id="Rectángulo_40500" data-name="Rectángulo 40500" width="11.757" height="15.244" transform="translate(44.383 31.925)" fill="#e8b98e" stroke="#12263f" stroke-miterlimit="10" stroke-width="3"/>
        <path id="Trazado_158744" data-name="Trazado 158744" d="M242.6,239.066l-5.534-2.006,1.558,7.443Z" transform="translate(-192.322 -192.311)" fill="#dff7f9" stroke="#12263f" stroke-miterlimit="10" stroke-width="3"/>
        <path id="Trazado_158745" data-name="Trazado 158745" d="M265.62,239.066l5.621-2.006-1.647,7.443Z" transform="translate(-215.319 -192.311)" fill="#dff7f9" stroke="#12263f" stroke-miterlimit="10" stroke-width="3"/>
        <path id="Trazado_158746" data-name="Trazado 158746" d="M252.626,265.406l1.322-5.776-.884-3.349,1.454-1.539L251,250.54l-3.514,4.2,1.454,1.539-.886,3.349,1.324,5.776Z" transform="translate(-200.713 -203.155)" fill="#feca2e" stroke="#12263f" stroke-miterlimit="10" stroke-width="3"/>
        <path id="Trazado_158747" data-name="Trazado 158747" d="M202.152,234.1l-2.5-.729,6.268-5.995,4.535,19.355h-3.3l-7.947-10.7Z" transform="translate(-161.818 -184.492)" fill="#1d354f" stroke="#12263f" stroke-miterlimit="10" stroke-width="3"/>
        <path id="Trazado_158748" data-name="Trazado 158748" d="M282.2,234.1l2.5-.729-6.268-5.995-4.535,19.355h3.3l7.947-10.7Z" transform="translate(-221.97 -184.492)" fill="#1d354f" stroke="#12263f" stroke-miterlimit="10" stroke-width="3"/>
        <path id="Trazado_158749" data-name="Trazado 158749" d="M218.034,85.752c0,5.778-3.2,7.891-8.776,7.891s-8.678-1.12-9.85-6.784c-6.133-2.206-4.8-9.123-.535-10.007-.581-2.714,1.824-6.08,5.815-6.77C220,67.428,227.572,79.057,218.034,85.752Z" transform="translate(-158.587 -57.543)" fill="#505860" stroke="#12263f" stroke-miterlimit="10" stroke-width="3"/>
        <path id="Trazado_158750" data-name="Trazado 158750" d="M234.879,128.918c-5.105.465-14.451.686-17.322-2.828a7.291,7.291,0,0,0-1.147,4.518c0,7.974,4.094,12.713,9.6,12.713C232.926,143.323,236.019,135.467,234.879,128.918Z" transform="translate(-175.658 -102.916)" fill="#f7d2ac" stroke="#12263f" stroke-miterlimit="10" stroke-width="3"/>
      </g>
    </g>
    <g id="Capa_2-3" data-name="Capa 2" transform="translate(908 2645.852)">
      <g id="Recursos-3" data-name="Recursos" transform="translate(0 0)">
        <rect id="Rectángulo_40501" data-name="Rectángulo 40501" width="27.571" height="5.049" rx="2.525" transform="translate(49.401 64.854) rotate(90)" fill="#12263f"/>
        <rect id="Rectángulo_40502" data-name="Rectángulo 40502" width="19.049" height="5.049" rx="2.525" transform="translate(89.313 73.376) rotate(90)" fill="#12263f"/>
        <rect id="Rectángulo_40503" data-name="Rectángulo 40503" width="19.049" height="5.049" rx="2.525" transform="translate(10.099 73.376) rotate(90)" fill="#12263f"/>
        <rect id="Rectángulo_40504" data-name="Rectángulo 40504" width="83.652" height="5.049" rx="2.525" transform="translate(88.703 78.454) rotate(180)" fill="#12263f"/>
        <ellipse id="Elipse_5112" data-name="Elipse 5112" cx="7.575" cy="7.575" rx="7.575" ry="7.575" transform="translate(79.214 84.85)" fill="#fc4b52" stroke="#12263f" stroke-miterlimit="10" stroke-width="3"/>
        <ellipse id="Elipse_5113" data-name="Elipse 5113" cx="3.771" cy="3.771" rx="3.771" ry="3.771" transform="translate(83.018 88.654)" fill="#12263f"/>
        <ellipse id="Elipse_5114" data-name="Elipse 5114" cx="7.575" cy="7.575" rx="7.575" ry="7.575" transform="translate(39.303 84.85)" fill="#feca2e" stroke="#12263f" stroke-miterlimit="10" stroke-width="3"/>
        <ellipse id="Elipse_5115" data-name="Elipse 5115" cx="3.771" cy="3.771" rx="3.771" ry="3.771" transform="translate(43.107 88.654)" fill="#12263f"/>
        <ellipse id="Elipse_5116" data-name="Elipse 5116" cx="7.575" cy="7.575" rx="7.575" ry="7.575" transform="translate(0 84.85)" fill="#fc4b52" stroke="#12263f" stroke-miterlimit="10" stroke-width="3"/>
        <ellipse id="Elipse_5117" data-name="Elipse 5117" cx="3.771" cy="3.771" rx="3.771" ry="3.771" transform="translate(3.804 88.654)" fill="#12263f"/>
        <path id="Trazado_158751" data-name="Trazado 158751" d="M172,229.426l-.858-8.658a9.131,9.131,0,0,0-6.581-7.886l-18.658-5.3-18.66,5.3a9.131,9.131,0,0,0-6.581,7.886l-.856,8.658Z" transform="translate(-99.021 -170.692)" fill="#12263f" stroke="#12263f" stroke-miterlimit="10" stroke-width="3"/>
        <rect id="Rectángulo_40505" data-name="Rectángulo 40505" width="13.849" height="13.849" transform="translate(39.92 40.486)" fill="#dff7f9"/>
        <rect id="Rectángulo_40506" data-name="Rectángulo 40506" width="13.849" height="17.957" transform="translate(39.92 23.108)" fill="#e8b98e" stroke="#12263f" stroke-miterlimit="10" stroke-width="3"/>
        <path id="Trazado_158752" data-name="Trazado 158752" d="M232.937,216.772l-6.517-2.362,1.837,8.769Z" transform="translate(-186.056 -176.257)" fill="#dff7f9" stroke="#12263f" stroke-miterlimit="10" stroke-width="3"/>
        <path id="Trazado_158753" data-name="Trazado 158753" d="M261.8,216.772l6.621-2.362-1.942,8.769Z" transform="translate(-214.927 -176.257)" fill="#dff7f9" stroke="#12263f" stroke-miterlimit="10" stroke-width="3"/>
        <path id="Trazado_158754" data-name="Trazado 158754" d="M245.38,248.621l1.558-6.8-1.043-3.944,1.711-1.813-4.137-4.95-4.139,4.95,1.711,1.813L240,241.816l1.558,6.8Z" transform="translate(-196.592 -189.891)" fill="#feca2e" stroke="#12263f" stroke-miterlimit="10" stroke-width="3"/>
        <path id="Trazado_158755" data-name="Trazado 158755" d="M182.963,210.331l-2.938-.858,7.381-7.063,5.342,22.8h-3.891L179.5,212.6Z" transform="translate(-147.771 -166.473)" fill="#1d354f" stroke="#12263f" stroke-miterlimit="10" stroke-width="3"/>
        <path id="Trazado_158756" data-name="Trazado 158756" d="M281.835,210.331l2.938-.858-7.381-7.063-5.342,22.8h3.891l9.358-12.6Z" transform="translate(-223.297 -166.473)" fill="#1d354f" stroke="#12263f" stroke-miterlimit="10" stroke-width="3"/>
        <path id="Trazado_158757" data-name="Trazado 158757" d="M201.388,25.916c0,6.8-3.771,9.292-10.338,9.292s-10.222-1.319-11.605-7.982c-7.225-2.6-5.665-10.752-.636-11.79-.7-3.211,2.153-7.166,6.856-7.978C203.69,4.338,212.621,18.034,201.388,25.916Z" transform="translate(-143.724 -7.004)" fill="#505860" stroke="#12263f" stroke-miterlimit="10" stroke-width="3"/>
        <path id="Trazado_158758" data-name="Trazado 158758" d="M222.574,80.251c-6.013.553-17.023.809-20.4-3.331-.737.9-1.35,2.666-1.35,5.324,0,9.395,4.819,14.971,11.309,14.971C220.273,97.209,223.915,87.958,222.574,80.251Z" transform="translate(-165.175 -64.041)" fill="#f7d2ac" stroke="#12263f" stroke-miterlimit="10" stroke-width="3"/>
      </g>
    </g>
    <g id="Capa_2-4" data-name="Capa 2" transform="translate(283 2646.02)">
      <g id="Recursos-4" data-name="Recursos" transform="translate(0)">
        <path id="Trazado_158759" data-name="Trazado 158759" d="M62.41,313.923l-.9-9.049a9.546,9.546,0,0,0-6.895-8.242L35.07,291.09l-19.546,5.543a9.552,9.552,0,0,0-6.9,8.242l-.9,9.049Z" transform="translate(-7.73 -235.615)" fill="#12263f" stroke="#12263f" stroke-miterlimit="10" stroke-width="3"/>
        <rect id="Rectángulo_40507" data-name="Rectángulo 40507" width="14.475" height="14.475" transform="translate(20.325 59.206)" fill="#dff7f9"/>
        <rect id="Rectángulo_40508" data-name="Rectángulo 40508" width="14.475" height="18.768" transform="translate(20.325 40.812)" fill="#e8b98e" stroke="#12263f" stroke-miterlimit="10" stroke-width="3"/>
        <path id="Trazado_158760" data-name="Trazado 158760" d="M121.17,300.388l-6.81-2.468,1.918,9.163Z" transform="translate(-93.589 -241.233)" fill="#dff7f9" stroke="#12263f" stroke-miterlimit="10" stroke-width="3"/>
        <path id="Trazado_158761" data-name="Trazado 158761" d="M149.73,300.388l6.92-2.468-2.027,9.163Z" transform="translate(-122.069 -241.233)" fill="#dff7f9" stroke="#12263f" stroke-miterlimit="10" stroke-width="3"/>
        <path id="Trazado_158762" data-name="Trazado 158762" d="M133.583,332.922l1.629-7.112-1.088-4.122,1.789-1.895-4.326-5.173-4.326,5.173,1.789,1.895-1.088,4.122,1.627,7.112Z" transform="translate(-103.971 -254.598)" fill="#feca2e" stroke="#12263f" stroke-miterlimit="10" stroke-width="3"/>
        <path id="Trazado_158763" data-name="Trazado 158763" d="M71.052,294.2l-3.073-.9L75.7,285.92l5.582,23.828H77.213L67.43,296.575Z" transform="translate(-55.936 -231.444)" fill="#1d354f" stroke="#12263f" stroke-miterlimit="10" stroke-width="3"/>
        <path id="Trazado_158764" data-name="Trazado 158764" d="M170.207,294.2l3.071-.9-7.715-7.382-5.584,23.828h4.066l9.783-13.173Z" transform="translate(-130.294 -231.444)" fill="#1d354f" stroke="#12263f" stroke-miterlimit="10" stroke-width="3"/>
        <path id="Trazado_158765" data-name="Trazado 158765" d="M90.542,110.283c0,7.112-3.939,9.713-10.8,9.713s-10.686-1.379-12.13-8.343c-7.551-2.722-5.919-11.238-.664-12.322-.716-3.356,2.249-7.49,7.16-8.335C92.951,87.723,102.283,102.046,90.542,110.283Z" transform="translate(-51.929 -74.188)" fill="#505860" stroke="#12263f" stroke-miterlimit="10" stroke-width="3"/>
        <path id="Trazado_158766" data-name="Trazado 158766" d="M111.486,163.871c-6.284.578-17.79.845-21.325-3.481-.77.936-1.411,2.786-1.411,5.564,0,9.819,5.037,15.647,11.82,15.647C109.082,181.6,112.888,171.934,111.486,163.871Z" transform="translate(-72.929 -130.446)" fill="#f7d2ac" stroke="#12263f" stroke-miterlimit="10" stroke-width="3"/>
        <rect id="Rectángulo_40509" data-name="Rectángulo 40509" width="41.237" height="5.277" rx="2.639" transform="translate(50.846 47.601)" fill="#12263f"/>
        <rect id="Rectángulo_40510" data-name="Rectángulo 40510" width="24.396" height="5.277" rx="2.639" transform="translate(67.687 5.277)" fill="#12263f"/>
        <rect id="Rectángulo_40511" data-name="Rectángulo 40511" width="24.396" height="5.277" rx="2.639" transform="translate(67.687 89.276)" fill="#12263f"/>
        <rect id="Rectángulo_40512" data-name="Rectángulo 40512" width="88.637" height="5.277" rx="2.639" transform="translate(72.652 5.919) rotate(90)" fill="#12263f"/>
        <ellipse id="Elipse_5118" data-name="Elipse 5118" cx="7.917" cy="7.917" rx="7.917" ry="7.917" transform="translate(84.166)" fill="#fc4b52" stroke="#12263f" stroke-miterlimit="10" stroke-width="3"/>
        <ellipse id="Elipse_5119" data-name="Elipse 5119" cx="3.941" cy="3.941" rx="3.941" ry="3.941" transform="translate(88.142 3.976)" fill="#12263f"/>
        <ellipse id="Elipse_5120" data-name="Elipse 5120" cx="7.917" cy="7.917" rx="7.917" ry="7.917" transform="translate(84.166 42.322)" fill="#feca2e" stroke="#12263f" stroke-miterlimit="10" stroke-width="3"/>
        <ellipse id="Elipse_5121" data-name="Elipse 5121" cx="3.941" cy="3.941" rx="3.941" ry="3.941" transform="translate(88.142 46.298)" fill="#12263f"/>
        <ellipse id="Elipse_5122" data-name="Elipse 5122" cx="7.917" cy="7.917" rx="7.917" ry="7.917" transform="translate(84.166 83.999)" fill="#fc4b52" stroke="#12263f" stroke-miterlimit="10" stroke-width="3"/>
        <ellipse id="Elipse_5123" data-name="Elipse 5123" cx="3.941" cy="3.941" rx="3.941" ry="3.941" transform="translate(88.142 87.974)" fill="#12263f"/>
      </g>
    </g>
  </g>
</svg>
