<svg xmlns="http://www.w3.org/2000/svg" width="1240" height="321.015" viewBox="0 0 1240 321.015">
  <g id="Grupo_135173" data-name="Grupo 135173" transform="translate(-180 -2658.001)">
    <g id="Trazado_193020" data-name="Trazado 193020" transform="translate(180 2689.524)" fill="#dff7f9">
      <path d="M 1230 287.9911499023438 L 10 287.9911499023438 C 5.313076972961426 287.9911499023438 1.5 284.1780700683594 1.5 279.4911499023438 L 1.5 10.00006675720215 C 1.5 5.313143730163574 5.313076972961426 1.500066995620728 10 1.500066995620728 L 1230 1.500066995620728 C 1234.686889648438 1.500066995620728 1238.5 5.313143730163574 1238.5 10.00006675720215 L 1238.5 279.4911499023438 C 1238.5 284.1780700683594 1234.686889648438 287.9911499023438 1230 287.9911499023438 Z" stroke="none"/>
      <path d="M 10 3.00006103515625 C 6.14013671875 3.00006103515625 3 6.140228271484375 3 10.00006103515625 L 3 279.4911499023438 C 3 283.3509826660156 6.14013671875 286.4911499023438 10 286.4911499023438 L 1230 286.4911499023438 C 1233.85986328125 286.4911499023438 1237 283.3509826660156 1237 279.4911499023438 L 1237 10.00006103515625 C 1237 6.140228271484375 1233.85986328125 3.00006103515625 1230 3.00006103515625 L 10 3.00006103515625 M 10 6.103515625e-05 L 1230 6.103515625e-05 C 1235.522827148438 6.103515625e-05 1240 4.477142333984375 1240 10.00006103515625 L 1240 279.4911499023438 C 1240 285.0140686035156 1235.522827148438 289.4911499023438 1230 289.4911499023438 L 10 289.4911499023438 C 4.47705078125 289.4911499023438 0 285.0140686035156 0 279.4911499023438 L 0 10.00006103515625 C 0 4.477142333984375 4.47705078125 6.103515625e-05 10 6.103515625e-05 Z" stroke="none" fill="#9de655"/>
    </g>
    <path id="Trazado_193060" data-name="Trazado 193060" d="M10,0H390a10,10,0,0,1,10,10V50.491a10,10,0,0,1-10,10H10a10,10,0,0,1-10-10V10A10,10,0,0,1,10,0Z" transform="translate(600 2658.001)" fill="#a7e446"/>
    <path id="Trazado_193061" data-name="Trazado 193061" d="M27.1,9.428H22.831V21H19.4V9.428H15.214V6.781H27.1ZM31.864,21h-3.3V10.434h3.3Zm-3.5-13.291a1.469,1.469,0,0,1,.508-1.152,2.159,2.159,0,0,1,2.637,0,1.469,1.469,0,0,1,.508,1.152,1.469,1.469,0,0,1-.508,1.152,2.159,2.159,0,0,1-2.637,0A1.469,1.469,0,0,1,28.368,7.709ZM43.7,15.795a6.372,6.372,0,0,1-1.108,3.931A3.554,3.554,0,0,1,39.6,21.2a3.046,3.046,0,0,1-2.393-1.064v4.932H33.915V10.434h3.076l.1.977a3.046,3.046,0,0,1,2.49-1.172,3.582,3.582,0,0,1,3.037,1.44,6.45,6.45,0,0,1,1.084,3.96Zm-3.291-.205q0-2.812-1.641-2.812a1.549,1.549,0,0,0-1.562.84v4.16a1.6,1.6,0,0,0,1.582.879q1.572,0,1.621-2.715Zm4.326.029a6.236,6.236,0,0,1,.615-2.817,4.4,4.4,0,0,1,1.768-1.9,5.323,5.323,0,0,1,2.705-.664,4.858,4.858,0,0,1,3.74,1.47,5.64,5.64,0,0,1,1.367,4v.117a5.472,5.472,0,0,1-1.372,3.921,4.871,4.871,0,0,1-3.716,1.45,4.927,4.927,0,0,1-3.623-1.353,5.29,5.29,0,0,1-1.475-3.667Zm3.291.205a3.932,3.932,0,0,0,.459,2.148,1.529,1.529,0,0,0,1.357.684q1.758,0,1.8-2.705v-.332q0-2.842-1.816-2.842-1.65,0-1.787,2.451Zm13.887,2.207a.76.76,0,0,0-.439-.674,6.684,6.684,0,0,0-1.67-.527,7.615,7.615,0,0,1-2.031-.718,3.4,3.4,0,0,1-1.221-1.079,2.577,2.577,0,0,1-.42-1.455,2.92,2.92,0,0,1,1.2-2.4,4.948,4.948,0,0,1,3.145-.942,5.482,5.482,0,0,1,3.359.947,2.962,2.962,0,0,1,1.27,2.49h-3.3q0-1.27-1.338-1.27a1.326,1.326,0,0,0-.869.288.892.892,0,0,0-.352.718.819.819,0,0,0,.43.713,4.06,4.06,0,0,0,1.372.449,11.857,11.857,0,0,1,1.655.42,3.007,3.007,0,0,1,2.383,2.939A2.767,2.767,0,0,1,63.8,20.287a5.632,5.632,0,0,1-3.325.908,5.747,5.747,0,0,1-2.422-.488,4.05,4.05,0,0,1-1.66-1.328,3.007,3.007,0,0,1-.6-1.768h3.076a1.272,1.272,0,0,0,.488,1.069,2.009,2.009,0,0,0,1.2.337,1.58,1.58,0,0,0,1.011-.273A.875.875,0,0,0,61.913,18.031Zm9.277-2.393a6.455,6.455,0,0,1,1.084-3.955A3.568,3.568,0,0,1,75.3,10.238a3.035,3.035,0,0,1,2.383,1.113V6h3.3V21H78.026l-.166-1.133A3.116,3.116,0,0,1,75.282,21.2a3.562,3.562,0,0,1-2.988-1.445A6.659,6.659,0,0,1,71.19,15.639Zm3.291.205q0,2.813,1.641,2.813a1.62,1.62,0,0,0,1.563-.918V13.715a1.576,1.576,0,0,0-1.543-.937q-1.523,0-1.65,2.461ZM87.968,21.2a5.432,5.432,0,0,1-3.936-1.45,5.008,5.008,0,0,1-1.5-3.774V15.7a6.489,6.489,0,0,1,.6-2.861,4.395,4.395,0,0,1,1.753-1.919,5.292,5.292,0,0,1,2.734-.679,4.574,4.574,0,0,1,3.516,1.382,5.43,5.43,0,0,1,1.289,3.853v1.279H85.878a2.372,2.372,0,0,0,.771,1.4,2.3,2.3,0,0,0,1.543.508,2.958,2.958,0,0,0,2.441-1.094l1.5,1.777a4.2,4.2,0,0,1-1.743,1.353A5.891,5.891,0,0,1,87.968,21.2ZM87.6,12.777q-1.445,0-1.719,1.914H89.2v-.254a1.63,1.63,0,0,0-.4-1.226A1.593,1.593,0,0,0,87.6,12.777Zm20.1,2.188H102.3v3.4h6.367V21H98.876V6.781h9.814V9.428H102.3v3h5.391Zm7.754,3.066a.76.76,0,0,0-.439-.674,6.684,6.684,0,0,0-1.67-.527,7.615,7.615,0,0,1-2.031-.718,3.4,3.4,0,0,1-1.221-1.079,2.577,2.577,0,0,1-.42-1.455,2.92,2.92,0,0,1,1.2-2.4,4.948,4.948,0,0,1,3.145-.942,5.482,5.482,0,0,1,3.359.947,2.962,2.962,0,0,1,1.27,2.49h-3.3q0-1.27-1.338-1.27a1.326,1.326,0,0,0-.869.288.892.892,0,0,0-.352.718.819.819,0,0,0,.43.713,4.06,4.06,0,0,0,1.372.449,11.857,11.857,0,0,1,1.655.42,3.007,3.007,0,0,1,2.383,2.939,2.767,2.767,0,0,1-1.284,2.354,5.631,5.631,0,0,1-3.325.908,5.747,5.747,0,0,1-2.422-.488,4.05,4.05,0,0,1-1.66-1.328,3.007,3.007,0,0,1-.6-1.768h3.076a1.272,1.272,0,0,0,.488,1.069,2.009,2.009,0,0,0,1.2.337,1.58,1.58,0,0,0,1.011-.273A.875.875,0,0,0,115.448,18.031Zm8.545-10.225v2.627h1.738v2.285h-1.738v4.834a1.234,1.234,0,0,0,.215.83,1.152,1.152,0,0,0,.85.234,4.828,4.828,0,0,0,.82-.059v2.354a6.074,6.074,0,0,1-1.855.283,3.448,3.448,0,0,1-2.51-.8,3.282,3.282,0,0,1-.811-2.432V12.719h-1.348V10.434H120.7V7.807Zm9.424,5.605-1.084-.078a1.947,1.947,0,0,0-1.992.977V21H127.05V10.434h3.086l.107,1.357a2.548,2.548,0,0,1,2.314-1.553,3.209,3.209,0,0,1,.918.117Zm7.48,6.445a3.393,3.393,0,0,1-2.822,1.338,3.328,3.328,0,0,1-2.632-1.011,4.251,4.251,0,0,1-.894-2.905V10.434h3.291V17.3a1.183,1.183,0,0,0,1.318,1.357,1.72,1.72,0,0,0,1.611-.811V10.434h3.311V21H141Zm9.453-1.2a1.464,1.464,0,0,0,1.074-.376,1.379,1.379,0,0,0,.371-1.05h3.086a3.653,3.653,0,0,1-1.245,2.852,4.631,4.631,0,0,1-3.208,1.113A4.689,4.689,0,0,1,146.8,19.75a5.7,5.7,0,0,1-1.328-4v-.137a6.436,6.436,0,0,1,.591-2.827,4.3,4.3,0,0,1,1.7-1.885,5.081,5.081,0,0,1,2.637-.659,4.573,4.573,0,0,1,3.271,1.143,4.053,4.053,0,0,1,1.211,3.1H151.8a1.807,1.807,0,0,0-.4-1.26,1.382,1.382,0,0,0-1.074-.439q-1.279,0-1.494,1.631a11.507,11.507,0,0,0-.068,1.426,4.52,4.52,0,0,0,.381,2.207A1.319,1.319,0,0,0,150.351,18.656Zm9.756-10.85v2.627h1.738v2.285h-1.738v4.834a1.234,1.234,0,0,0,.215.83,1.152,1.152,0,0,0,.85.234,4.828,4.828,0,0,0,.82-.059v2.354a6.074,6.074,0,0,1-1.855.283,3.448,3.448,0,0,1-2.51-.8,3.282,3.282,0,0,1-.811-2.432V12.719h-1.348V10.434h1.348V7.807Zm9.326,12.051A3.393,3.393,0,0,1,166.61,21.2a3.328,3.328,0,0,1-2.632-1.011,4.251,4.251,0,0,1-.894-2.905V10.434h3.291V17.3a1.183,1.183,0,0,0,1.318,1.357,1.72,1.72,0,0,0,1.611-.811V10.434h3.311V21H169.53Zm11.377-6.445-1.084-.078a1.947,1.947,0,0,0-1.992.977V21h-3.291V10.434h3.086l.107,1.357a2.548,2.548,0,0,1,2.314-1.553,3.209,3.209,0,0,1,.918.117ZM187.655,21a3.716,3.716,0,0,1-.312-.947A3.06,3.06,0,0,1,184.8,21.2a3.749,3.749,0,0,1-2.539-.9,2.875,2.875,0,0,1-1.045-2.271,2.955,2.955,0,0,1,1.27-2.6,6.468,6.468,0,0,1,3.691-.879H187.2v-.559q0-1.462-1.26-1.462a1.03,1.03,0,0,0-1.172,1.158h-3.291a2.95,2.95,0,0,1,1.3-2.487,5.479,5.479,0,0,1,3.325-.956,4.8,4.8,0,0,1,3.193.986,3.429,3.429,0,0,1,1.2,2.705v4.678a4.79,4.79,0,0,0,.449,2.227V21Zm-2.061-2.148a1.836,1.836,0,0,0,1.021-.264,1.653,1.653,0,0,0,.581-.6V16.3h-.957q-1.719,0-1.719,1.543a.942.942,0,0,0,.3.728A1.1,1.1,0,0,0,185.595,18.852ZM202.411,21.2a5.432,5.432,0,0,1-3.936-1.45,5.008,5.008,0,0,1-1.5-3.774V15.7a6.489,6.489,0,0,1,.6-2.861,4.395,4.395,0,0,1,1.753-1.919,5.292,5.292,0,0,1,2.734-.679,4.574,4.574,0,0,1,3.516,1.382,5.43,5.43,0,0,1,1.289,3.853v1.279h-6.543a2.372,2.372,0,0,0,.771,1.4,2.3,2.3,0,0,0,1.543.508,2.958,2.958,0,0,0,2.441-1.094l1.5,1.777a4.2,4.2,0,0,1-1.743,1.353A5.891,5.891,0,0,1,202.411,21.2Zm-.371-8.418q-1.445,0-1.719,1.914h3.32v-.254a1.63,1.63,0,0,0-.4-1.226A1.593,1.593,0,0,0,202.04,12.777Zm9.17-2.344.107,1.24a3.583,3.583,0,0,1,3.018-1.436,3.015,3.015,0,0,1,2.466.986,4.7,4.7,0,0,1,.845,2.969V21h-3.3V14.33a1.783,1.783,0,0,0-.322-1.177,1.491,1.491,0,0,0-1.172-.376,1.569,1.569,0,0,0-1.436.762V21h-3.291V10.434ZM227.919,21h-3.3V6h3.3Zm7.979,0a3.716,3.716,0,0,1-.312-.947,3.06,3.06,0,0,1-2.539,1.143,3.749,3.749,0,0,1-2.539-.9,2.875,2.875,0,0,1-1.045-2.271,2.955,2.955,0,0,1,1.27-2.6,6.468,6.468,0,0,1,3.691-.879h1.016v-.559q0-1.462-1.26-1.462a1.03,1.03,0,0,0-1.172,1.158h-3.291a2.95,2.95,0,0,1,1.3-2.487,5.479,5.479,0,0,1,3.325-.956,4.8,4.8,0,0,1,3.193.986,3.429,3.429,0,0,1,1.2,2.705v4.678a4.79,4.79,0,0,0,.449,2.227V21Zm-2.061-2.148a1.836,1.836,0,0,0,1.021-.264,1.653,1.653,0,0,0,.581-.6V16.3h-.957q-1.719,0-1.719,1.543a.942.942,0,0,0,.3.728A1.1,1.1,0,0,0,233.837,18.852Zm12.256-.82a.76.76,0,0,0-.439-.674,6.684,6.684,0,0,0-1.67-.527,7.615,7.615,0,0,1-2.031-.718,3.4,3.4,0,0,1-1.221-1.079,2.577,2.577,0,0,1-.42-1.455,2.92,2.92,0,0,1,1.2-2.4,4.948,4.948,0,0,1,3.145-.942,5.482,5.482,0,0,1,3.359.947,2.962,2.962,0,0,1,1.27,2.49h-3.3q0-1.27-1.338-1.27a1.326,1.326,0,0,0-.869.288.892.892,0,0,0-.352.718.819.819,0,0,0,.43.713,4.06,4.06,0,0,0,1.372.449,11.857,11.857,0,0,1,1.655.42,3.007,3.007,0,0,1,2.383,2.939,2.767,2.767,0,0,1-1.284,2.354,5.632,5.632,0,0,1-3.325.908,5.747,5.747,0,0,1-2.422-.488,4.05,4.05,0,0,1-1.66-1.328,3.007,3.007,0,0,1-.6-1.768h3.076a1.272,1.272,0,0,0,.488,1.069,2.009,2.009,0,0,0,1.2.337,1.58,1.58,0,0,0,1.011-.273A.875.875,0,0,0,246.093,18.031ZM260.9,21.2a5.432,5.432,0,0,1-3.936-1.45,5.008,5.008,0,0,1-1.5-3.774V15.7a6.489,6.489,0,0,1,.6-2.861,4.395,4.395,0,0,1,1.753-1.919,5.292,5.292,0,0,1,2.734-.679,4.574,4.574,0,0,1,3.516,1.382,5.43,5.43,0,0,1,1.289,3.853v1.279h-6.543a2.372,2.372,0,0,0,.771,1.4,2.3,2.3,0,0,0,1.543.508,2.958,2.958,0,0,0,2.441-1.094l1.5,1.777a4.2,4.2,0,0,1-1.743,1.353A5.891,5.891,0,0,1,260.9,21.2Zm-.371-8.418q-1.445,0-1.719,1.914h3.32v-.254a1.63,1.63,0,0,0-.4-1.226A1.593,1.593,0,0,0,260.526,12.777Zm9.258-2.344.107,1.24a3.633,3.633,0,0,1,3.018-1.436,2.675,2.675,0,0,1,2.705,1.592,3.517,3.517,0,0,1,3.105-1.592q3.213,0,3.3,3.887V21h-3.3V14.33a2.014,2.014,0,0,0-.273-1.182,1.164,1.164,0,0,0-1-.371,1.559,1.559,0,0,0-1.455.869l.01.137V21h-3.3V14.35a2.117,2.117,0,0,0-.264-1.2,1.161,1.161,0,0,0-1.006-.371,1.578,1.578,0,0,0-1.445.869V21H266.7V10.434Zm23.926,5.361a6.372,6.372,0,0,1-1.108,3.931,3.554,3.554,0,0,1-2.993,1.47,3.046,3.046,0,0,1-2.393-1.064v4.932h-3.291V10.434H287l.1.977a3.046,3.046,0,0,1,2.49-1.172,3.582,3.582,0,0,1,3.037,1.44,6.45,6.45,0,0,1,1.084,3.96Zm-3.291-.205q0-2.812-1.641-2.812a1.549,1.549,0,0,0-1.562.84v4.16a1.6,1.6,0,0,0,1.582.879q1.572,0,1.621-2.715Zm11.133-2.178-1.084-.078a1.947,1.947,0,0,0-1.992.977V21h-3.291V10.434h3.086l.107,1.357a2.548,2.548,0,0,1,2.314-1.553,3.209,3.209,0,0,1,.918.117Zm6.3,7.783a5.432,5.432,0,0,1-3.936-1.45,5.008,5.008,0,0,1-1.5-3.774V15.7a6.489,6.489,0,0,1,.6-2.861,4.395,4.395,0,0,1,1.753-1.919,5.292,5.292,0,0,1,2.734-.679,4.574,4.574,0,0,1,3.516,1.382,5.43,5.43,0,0,1,1.289,3.853v1.279h-6.543a2.372,2.372,0,0,0,.771,1.4,2.3,2.3,0,0,0,1.543.508,2.958,2.958,0,0,0,2.441-1.094l1.5,1.777a4.2,4.2,0,0,1-1.743,1.353A5.891,5.891,0,0,1,307.851,21.2Zm-.371-8.418q-1.445,0-1.719,1.914h3.32v-.254a1.63,1.63,0,0,0-.4-1.226A1.593,1.593,0,0,0,307.479,12.777Zm11.68,5.254a.76.76,0,0,0-.439-.674,6.684,6.684,0,0,0-1.67-.527,7.615,7.615,0,0,1-2.031-.718,3.4,3.4,0,0,1-1.221-1.079,2.577,2.577,0,0,1-.42-1.455,2.92,2.92,0,0,1,1.2-2.4,4.948,4.948,0,0,1,3.145-.942,5.482,5.482,0,0,1,3.359.947,2.962,2.962,0,0,1,1.27,2.49h-3.3q0-1.27-1.338-1.27a1.326,1.326,0,0,0-.869.288.892.892,0,0,0-.352.718.819.819,0,0,0,.43.713,4.06,4.06,0,0,0,1.372.449,11.856,11.856,0,0,1,1.655.42,3.007,3.007,0,0,1,2.383,2.939,2.767,2.767,0,0,1-1.284,2.354,5.631,5.631,0,0,1-3.325.908,5.747,5.747,0,0,1-2.422-.488,4.05,4.05,0,0,1-1.66-1.328,3.007,3.007,0,0,1-.6-1.768h3.076a1.272,1.272,0,0,0,.488,1.069,2.009,2.009,0,0,0,1.2.337,1.58,1.58,0,0,0,1.011-.273A.875.875,0,0,0,319.159,18.031ZM329.823,21a3.716,3.716,0,0,1-.312-.947,3.06,3.06,0,0,1-2.539,1.143,3.749,3.749,0,0,1-2.539-.9,2.875,2.875,0,0,1-1.045-2.271,2.955,2.955,0,0,1,1.27-2.6,6.468,6.468,0,0,1,3.691-.879h1.016v-.559q0-1.462-1.26-1.462a1.03,1.03,0,0,0-1.172,1.158h-3.291a2.95,2.95,0,0,1,1.3-2.487,5.479,5.479,0,0,1,3.325-.956,4.8,4.8,0,0,1,3.193.986,3.429,3.429,0,0,1,1.2,2.705v4.678a4.79,4.79,0,0,0,.449,2.227V21Zm-2.061-2.148a1.836,1.836,0,0,0,1.021-.264,1.653,1.653,0,0,0,.581-.6V16.3h-.957q-1.719,0-1.719,1.543a.942.942,0,0,0,.3.728A1.1,1.1,0,0,0,327.763,18.852Zm12.256-.82a.76.76,0,0,0-.439-.674,6.684,6.684,0,0,0-1.67-.527,7.615,7.615,0,0,1-2.031-.718,3.4,3.4,0,0,1-1.221-1.079,2.577,2.577,0,0,1-.42-1.455,2.92,2.92,0,0,1,1.2-2.4,4.948,4.948,0,0,1,3.145-.942,5.482,5.482,0,0,1,3.359.947,2.962,2.962,0,0,1,1.27,2.49h-3.3q0-1.27-1.338-1.27a1.326,1.326,0,0,0-.869.288.892.892,0,0,0-.352.718.819.819,0,0,0,.43.713,4.06,4.06,0,0,0,1.372.449,11.856,11.856,0,0,1,1.655.42,3.007,3.007,0,0,1,2.383,2.939,2.767,2.767,0,0,1-1.284,2.354,5.631,5.631,0,0,1-3.325.908,5.747,5.747,0,0,1-2.422-.488,4.05,4.05,0,0,1-1.66-1.328,3.007,3.007,0,0,1-.6-1.768h3.076a1.272,1.272,0,0,0,.488,1.069,2.009,2.009,0,0,0,1.2.337,1.58,1.58,0,0,0,1.011-.273A.875.875,0,0,0,340.019,18.031Z" transform="translate(620.368 2677.746)" fill="#12263f"/>
    <path id="Trazado_158912" data-name="Trazado 158912" d="M0,0H935.344" transform="translate(333.828 2830.185)" fill="none" stroke="#12263f" stroke-width="3" stroke-dasharray="8"/>
    <g id="Trazado_193050" data-name="Trazado 193050" transform="translate(238 2750)" fill="#feecec">
      <path d="M 180 159.5 L 10 159.5 C 5.313075065612793 159.5 1.5 155.6869201660156 1.5 151 L 1.5 10 C 1.5 5.313075065612793 5.313075065612793 1.5 10 1.5 L 180 1.5 C 184.6869201660156 1.5 188.5 5.313075065612793 188.5 10 L 188.5 151 C 188.5 155.6869201660156 184.6869201660156 159.5 180 159.5 Z" stroke="none"/>
      <path d="M 10 3 C 6.140182495117188 3 3 6.140182495117188 3 10 L 3 151 C 3 154.8598175048828 6.140182495117188 158 10 158 L 180 158 C 183.8598175048828 158 187 154.8598175048828 187 151 L 187 10 C 187 6.140182495117188 183.8598175048828 3 180 3 L 10 3 M 10 0 L 180 0 C 185.5228424072266 0 190 4.477157592773438 190 10 L 190 151 C 190 156.5228424072266 185.5228424072266 161 180 161 L 10 161 C 4.477157592773438 161 0 156.5228424072266 0 151 L 0 10 C 0 4.477157592773438 4.477157592773438 0 10 0 Z" stroke="none" fill="#feca2e"/>
    </g>
    <g id="Trazado_193040" data-name="Trazado 193040" transform="translate(550 2749.685)" fill="#feecec">
      <path d="M 180 159.5 L 10 159.5 C 5.313075065612793 159.5 1.5 155.6869201660156 1.5 151 L 1.5 10 C 1.5 5.313075065612793 5.313075065612793 1.5 10 1.5 L 180 1.5 C 184.6869201660156 1.5 188.5 5.313075065612793 188.5 10 L 188.5 151 C 188.5 155.6869201660156 184.6869201660156 159.5 180 159.5 Z" stroke="none"/>
      <path d="M 10 3 C 6.140182495117188 3 3 6.140182495117188 3 10 L 3 151 C 3 154.8598175048828 6.140182495117188 158 10 158 L 180 158 C 183.8598175048828 158 187 154.8598175048828 187 151 L 187 10 C 187 6.140182495117188 183.8598175048828 3 180 3 L 10 3 M 10 0 L 180 0 C 185.5228424072266 0 190 4.477157592773438 190 10 L 190 151 C 190 156.5228424072266 185.5228424072266 161 180 161 L 10 161 C 4.477157592773438 161 0 156.5228424072266 0 151 L 0 10 C 0 4.477157592773438 4.477157592773438 0 10 0 Z" stroke="none" fill="#feca2e"/>
    </g>
    <g id="Trazado_193021" data-name="Trazado 193021" transform="translate(860 2749.685)" fill="#feecec">
      <path d="M 180 159.5 L 10 159.5 C 5.313075065612793 159.5 1.5 155.6869201660156 1.5 151 L 1.5 10 C 1.5 5.313075065612793 5.313075065612793 1.5 10 1.5 L 180 1.5 C 184.6869201660156 1.5 188.5 5.313075065612793 188.5 10 L 188.5 151 C 188.5 155.6869201660156 184.6869201660156 159.5 180 159.5 Z" stroke="none"/>
      <path d="M 10 3 C 6.140182495117188 3 3 6.140182495117188 3 10 L 3 151 C 3 154.8598175048828 6.140182495117188 158 10 158 L 180 158 C 183.8598175048828 158 187 154.8598175048828 187 151 L 187 10 C 187 6.140182495117188 183.8598175048828 3 180 3 L 10 3 M 10 0 L 180 0 C 185.5228424072266 0 190 4.477157592773438 190 10 L 190 151 C 190 156.5228424072266 185.5228424072266 161 180 161 L 10 161 C 4.477157592773438 161 0 156.5228424072266 0 151 L 0 10 C 0 4.477157592773438 4.477157592773438 0 10 0 Z" stroke="none" fill="#feca2e"/>
    </g>
    <g id="Trazado_193022" data-name="Trazado 193022" transform="translate(1362 2750) rotate(90)" fill="#feecec">
      <path d="M 151 188.5 L 10 188.5 C 5.313075065612793 188.5 1.5 184.6869201660156 1.5 180 L 1.5 10 C 1.5 5.313075065612793 5.313075065612793 1.5 10 1.5 L 151 1.5 C 155.6869201660156 1.5 159.5 5.313075065612793 159.5 10 L 159.5 180 C 159.5 184.6869201660156 155.6869201660156 188.5 151 188.5 Z" stroke="none"/>
      <path d="M 10 3 C 6.140182495117188 3 3 6.140182495117188 3 10 L 3 180 C 3 183.8598175048828 6.140182495117188 187 10 187 L 151 187 C 154.8598175048828 187 158 183.8598175048828 158 180 L 158 10 C 158 6.140182495117188 154.8598175048828 3 151 3 L 10 3 M 10 0 L 151 0 C 156.5228424072266 0 161 4.477157592773438 161 10 L 161 180 C 161 185.5228424072266 156.5228424072266 190 151 190 L 10 190 C 4.477157592773438 190 0 185.5228424072266 0 180 L 0 10 C 0 4.477157592773438 4.477157592773438 0 10 0 Z" stroke="none" fill="#feca2e"/>
    </g>
    <path id="Trazado_193051" data-name="Trazado 193051" d="M2,0H33a2,2,0,0,1,2,2V16a2,2,0,0,1-2,2H2a2,2,0,0,1-2-2V2A2,2,0,0,1,2,0Z" transform="translate(248 2821)" fill="#a7e446"/>
    <path id="Trazado_193052" data-name="Trazado 193052" d="M2,0H33a2,2,0,0,1,2,2V15a2,2,0,0,1-2,2H2a2,2,0,0,1-2-2V2A2,2,0,0,1,2,0Z" transform="translate(288 2839)" fill="#a7e446"/>
    <path id="Trazado_193053" data-name="Trazado 193053" d="M2,0H33a2,2,0,0,1,2,2V15a2,2,0,0,1-2,2H2a2,2,0,0,1-2-2V2A2,2,0,0,1,2,0Z" transform="translate(288 2804)" fill="#a7e446"/>
    <path id="Trazado_193054" data-name="Trazado 193054" d="M2,0H33a2,2,0,0,1,2,2V15a2,2,0,0,1-2,2H2a2,2,0,0,1-2-2V2A2,2,0,0,1,2,0Z" transform="translate(336 2804)" fill="#a7e446"/>
    <path id="Trazado_193055" data-name="Trazado 193055" d="M2,0H29a2,2,0,0,1,2,2V13a2,2,0,0,1-2,2H2a2,2,0,0,1-2-2V2A2,2,0,0,1,2,0Z" transform="translate(387 2794)" fill="#a7e446"/>
    <path id="Trazado_193056" data-name="Trazado 193056" d="M2,0H29a2,2,0,0,1,2,2V14a2,2,0,0,1-2,2H2a2,2,0,0,1-2-2V2A2,2,0,0,1,2,0Z" transform="translate(387 2816)" fill="#a7e446"/>
    <path id="Trazado_193057" data-name="Trazado 193057" d="M2,0H33a2,2,0,0,1,2,2V15a2,2,0,0,1-2,2H2a2,2,0,0,1-2-2V2A2,2,0,0,1,2,0Z" transform="translate(336 2863)" fill="#a7e446"/>
    <path id="Trazado_193058" data-name="Trazado 193058" d="M2,0H33a2,2,0,0,1,2,2V15a2,2,0,0,1-2,2H2a2,2,0,0,1-2-2V2A2,2,0,0,1,2,0Z" transform="translate(336 2780)" fill="#a7e446"/>
    <path id="Trazado_193059" data-name="Trazado 193059" d="M2,0H33a2,2,0,0,1,2,2V15a2,2,0,0,1-2,2H2a2,2,0,0,1-2-2V2A2,2,0,0,1,2,0Z" transform="translate(336 2839)" fill="#a7e446"/>
    <path id="Trazado_192799" data-name="Trazado 192799" d="M-2643.061-8713.5H-2650v-85h6.939v1.734h-5.2v81.531h5.2Z" transform="translate(2979.531 11586)" fill="#12263f"/>
    <path id="Trazado_192800" data-name="Trazado 192800" d="M-2662.765-8761.652h-1.735V-8779h1.735Z" transform="translate(2968.877 11600.327)" fill="#12263f"/>
    <path id="Trazado_192801" data-name="Trazado 192801" d="M1.735,47.7H0V0H1.735Z" transform="translate(282.694 2830.868) rotate(-90)" fill="#12263f"/>
    <path id="Trazado_192804" data-name="Trazado 192804" d="M1.735,9.541H0V0H1.735Z" transform="translate(371.163 2813.521) rotate(-90)" fill="#12263f"/>
    <path id="Trazado_192802" data-name="Trazado 192802" d="M-2643.061-8762.071H-2650V-8798.5h6.939v1.734h-5.2v32.959h5.2Z" transform="translate(2979.531 11610.286)" fill="#12263f"/>
    <path id="Trazado_192803" data-name="Trazado 192803" d="M-2643.061-8774.214H-2650V-8798.5h6.939v1.734h-5.2v20.816h5.2Z" transform="translate(3029.837 11599.011)" fill="#12263f"/>
    <path id="Trazado_193041" data-name="Trazado 193041" d="M2,0H30a2,2,0,0,1,2,2V13a2,2,0,0,1-2,2H2a2,2,0,0,1-2-2V2A2,2,0,0,1,2,0Z" transform="translate(629 2785)" fill="#a7e446"/>
    <path id="Trazado_193042" data-name="Trazado 193042" d="M2,0H30a2,2,0,0,1,2,2V14a2,2,0,0,1-2,2H2a2,2,0,0,1-2-2V2A2,2,0,0,1,2,0Z" transform="translate(591 2800)" fill="#a7e446"/>
    <path id="Trazado_193043" data-name="Trazado 193043" d="M2,0H29a2,2,0,0,1,2,2v8a2,2,0,0,1-2,2H2a2,2,0,0,1-2-2V2A2,2,0,0,1,2,0Z" transform="translate(598 2826)" fill="#a7e446"/>
    <path id="Trazado_193044" data-name="Trazado 193044" d="M2,0H29a2,2,0,0,1,2,2v8a2,2,0,0,1-2,2H2a2,2,0,0,1-2-2V2A2,2,0,0,1,2,0Z" transform="translate(699 2826)" fill="#a7e446"/>
    <path id="Trazado_193045" data-name="Trazado 193045" d="M2,0H29a2,2,0,0,1,2,2v8a2,2,0,0,1-2,2H2a2,2,0,0,1-2-2V2A2,2,0,0,1,2,0Z" transform="translate(560 2826)" fill="#a7e446"/>
    <path id="Trazado_193046" data-name="Trazado 193046" d="M2,0H29a2,2,0,0,1,2,2v8a2,2,0,0,1-2,2H2a2,2,0,0,1-2-2V2A2,2,0,0,1,2,0Z" transform="translate(661 2826)" fill="#a7e446"/>
    <path id="Trazado_193047" data-name="Trazado 193047" d="M2,0H29a2,2,0,0,1,2,2v9a2,2,0,0,1-2,2H2a2,2,0,0,1-2-2V2A2,2,0,0,1,2,0Z" transform="translate(560 2863)" fill="#a7e446"/>
    <path id="Trazado_193048" data-name="Trazado 193048" d="M2,0H30a2,2,0,0,1,2,2V14a2,2,0,0,1-2,2H2a2,2,0,0,1-2-2V2A2,2,0,0,1,2,0Z" transform="translate(667 2800)" fill="#a7e446"/>
    <path id="Trazado_192810" data-name="Trazado 192810" d="M5.733,140.094H0V0H5.733V1.575H1.574V138.52H5.733Z" transform="translate(715.046 2819.896) rotate(90)" fill="#12263f"/>
    <path id="Trazado_192811" data-name="Trazado 192811" d="M5.733,64.538H0V0H5.733V1.575H1.574V62.964H5.733Z" transform="translate(677.269 2819.896) rotate(90)" fill="#12263f"/>
    <path id="Trazado_192813" data-name="Trazado 192813" d="M-2641.926-8694.761h-1.574V-8715h1.574Z" transform="translate(3287.713 11515.444)" fill="#12263f"/>
    <path id="Trazado_192814" data-name="Trazado 192814" d="M-2641.926-8689.814h-1.574V-8715h1.574Z" transform="translate(3218.454 11553.222)" fill="#12263f"/>
    <path id="Trazado_192812" data-name="Trazado 192812" d="M1.574,44.074H0V0H1.574Z" transform="translate(667.037 2807.527) rotate(90)" fill="#12263f"/>
    <path id="Trazado_193049" data-name="Trazado 193049" d="M2,0H29a2,2,0,0,1,2,2v8a2,2,0,0,1-2,2H2a2,2,0,0,1-2-2V2A2,2,0,0,1,2,0Z" transform="translate(560 2845)" fill="#a7e446"/>
    <path id="Elipse_5142" data-name="Elipse 5142" d="M48.781,1.876A46.918,46.918,0,0,0,30.524,92,46.917,46.917,0,0,0,67.038,5.561,46.61,46.61,0,0,0,48.781,1.876m0-1.876A48.781,48.781,0,1,1,0,48.781,48.781,48.781,0,0,1,48.781,0Z" transform="translate(906.886 2778.438)" fill="#12263f"/>
    <path id="Trazado_192812-2" data-name="Trazado 192812" d="M-2687.619-8564.637l-.52-.781,95.686-63.789.521.779Z" transform="translate(3596.64 11424.14)" fill="#12263f"/>
    <path id="Trazado_192813-2" data-name="Trazado 192813" d="M-2592.453-8564.637l-95.686-63.791.52-.779,95.686,63.789Z" transform="translate(3594.764 11424.14)" fill="#12263f"/>
    <path id="Trazado_193023" data-name="Trazado 193023" d="M2,0H35a2,2,0,0,1,2,2V17a2,2,0,0,1-2,2H2a2,2,0,0,1-2-2V2A2,2,0,0,1,2,0Z" transform="translate(937 2818)" fill="#a7e446"/>
    <path id="Trazado_193024" data-name="Trazado 193024" d="M2,0H35a2,2,0,0,1,2,2V17a2,2,0,0,1-2,2H2a2,2,0,0,1-2-2V2A2,2,0,0,1,2,0Z" transform="translate(984 2786)" fill="#a7e446"/>
    <path id="Trazado_193025" data-name="Trazado 193025" d="M2,0H36a2,2,0,0,1,2,2V16a2,2,0,0,1-2,2H2a2,2,0,0,1-2-2V2A2,2,0,0,1,2,0Z" transform="translate(890 2850)" fill="#a7e446"/>
    <path id="Trazado_193026" data-name="Trazado 193026" d="M2,0H36a2,2,0,0,1,2,2V17a2,2,0,0,1-2,2H2a2,2,0,0,1-2-2V2A2,2,0,0,1,2,0Z" transform="translate(890 2786)" fill="#a7e446"/>
    <path id="Trazado_193027" data-name="Trazado 193027" d="M2,0H35a2,2,0,0,1,2,2V16a2,2,0,0,1-2,2H2a2,2,0,0,1-2-2V2A2,2,0,0,1,2,0Z" transform="translate(984 2850)" fill="#a7e446"/>
    <path id="Trazado_193028" data-name="Trazado 193028" d="M2,0H27.956a2,2,0,0,1,2,2V12.978a2,2,0,0,1-2,2H2a2,2,0,0,1-2-2V2A2,2,0,0,1,2,0Z" transform="translate(1222.44 2783.783)" fill="#a7e446"/>
    <path id="Trazado_193029" data-name="Trazado 193029" d="M2,0H27.956a2,2,0,0,1,2,2V12.978a2,2,0,0,1-2,2H2a2,2,0,0,1-2-2V2A2,2,0,0,1,2,0Z" transform="translate(1313.806 2788.276)" fill="#a7e446"/>
    <path id="Trazado_193030" data-name="Trazado 193030" d="M2,0H27.956a2,2,0,0,1,2,2V12.978a2,2,0,0,1-2,2H2a2,2,0,0,1-2-2V2A2,2,0,0,1,2,0Z" transform="translate(1313.806 2852.682)" fill="#a7e446"/>
    <path id="Trazado_193031" data-name="Trazado 193031" d="M2,0H27.956a2,2,0,0,1,2,2V12.978a2,2,0,0,1-2,2H2a2,2,0,0,1-2-2V2A2,2,0,0,1,2,0Z" transform="translate(1262.507 2852.682)" fill="#a7e446"/>
    <path id="Trazado_193032" data-name="Trazado 193032" d="M2,0H27.956a2,2,0,0,1,2,2V12.978a2,2,0,0,1-2,2H2a2,2,0,0,1-2-2V2A2,2,0,0,1,2,0Z" transform="translate(1322.044 2821.477)" fill="#a7e446"/>
    <path id="Trazado_193033" data-name="Trazado 193033" d="M2,0H27.956a2,2,0,0,1,2,2v9.48a2,2,0,0,1-2,2H2a2,2,0,0,1-2-2V2A2,2,0,0,1,2,0Z" transform="translate(1222.44 2810.743)" fill="#a7e446"/>
    <path id="Trazado_193034" data-name="Trazado 193034" d="M2,0H27.956a2,2,0,0,1,2,2v9.48a2,2,0,0,1-2,2H2a2,2,0,0,1-2-2V2A2,2,0,0,1,2,0Z" transform="translate(1222.44 2833.21)" fill="#a7e446"/>
    <path id="Trazado_193035" data-name="Trazado 193035" d="M2,0H38.441a2,2,0,0,1,2,2v9.48a2,2,0,0,1-2,2H2a2,2,0,0,1-2-2V2A2,2,0,0,1,2,0Z" transform="translate(1198.476 2855.678)" fill="#a7e446"/>
    <path id="Trazado_193036" data-name="Trazado 193036" d="M2,0H27.956a2,2,0,0,1,2,2v9.48a2,2,0,0,1-2,2H2a2,2,0,0,1-2-2V2A2,2,0,0,1,2,0Z" transform="translate(1259.886 2833.21)" fill="#a7e446"/>
    <path id="Trazado_193037" data-name="Trazado 193037" d="M2,0H27.956a2,2,0,0,1,2,2v9.48a2,2,0,0,1-2,2H2a2,2,0,0,1-2-2V2A2,2,0,0,1,2,0Z" transform="translate(1184.996 2833.21)" fill="#a7e446"/>
    <path id="Trazado_193038" data-name="Trazado 193038" d="M2,0H27.956a2,2,0,0,1,2,2v9.48a2,2,0,0,1-2,2H2a2,2,0,0,1-2-2V2A2,2,0,0,1,2,0Z" transform="translate(1182 2810.743)" fill="#a7e446"/>
    <path id="Trazado_193039" data-name="Trazado 193039" d="M2,0H27.956a2,2,0,0,1,2,2v9.48a2,2,0,0,1-2,2H2a2,2,0,0,1-2-2V2A2,2,0,0,1,2,0Z" transform="translate(1265.877 2810.743)" fill="#a7e446"/>
    <path id="Trazado_192830" data-name="Trazado 192830" d="M-2802-8549.018h-1.5V-8561h1.5Z" transform="translate(4040.918 11359.761)" fill="#12263f"/>
    <path id="Trazado_192827" data-name="Trazado 192827" d="M-2802-8551.516h-1.5V-8561h1.5Z" transform="translate(4040.918 11385.224)" fill="#12263f"/>
    <path id="Trazado_192833" data-name="Trazado 192833" d="M-2802-8540.031h-1.5V-8561h1.5Z" transform="translate(4109.817 11346.281)" fill="#12263f"/>
    <path id="Trazado_192823" data-name="Trazado 192823" d="M-2802-8540.031h-1.5V-8561h1.5Z" transform="translate(4109.817 11410.687)" fill="#12263f"/>
    <path id="Trazado_192825" data-name="Trazado 192825" d="M-2802-8540.031h-1.5V-8561h1.5Z" transform="translate(4058.518 11410.687)" fill="#12263f"/>
    <path id="Trazado_192824" data-name="Trazado 192824" d="M-2802-8540.031h-1.5V-8561h1.5Z" transform="translate(4118.055 11379.482)" fill="#12263f"/>
    <path id="Trazado_192831" data-name="Trazado 192831" d="M-2829-8549.765h-1.5v-9.735h41.938v1.5H-2829Z" transform="translate(4026.729 11360.508)" fill="#12263f"/>
    <path id="Trazado_192828" data-name="Trazado 192828" d="M-2829-8554.258h-1.5v-5.242h38.943v1.5H-2829Z" transform="translate(4029.725 11387.967)" fill="#12263f"/>
    <path id="Trazado_192826" data-name="Trazado 192826" d="M-2791.057-8554.258h-1.5V-8558H-2830v-1.5h38.943Z" transform="translate(4068.168 11387.967)" fill="#12263f"/>
    <path id="Trazado_192832" data-name="Trazado 192832" d="M-2786.564-8554.258h-1.5V-8558H-2830v-1.5h43.436Z" transform="translate(4068.167 11365.001)" fill="#12263f"/>
    <path id="Trazado_192829" data-name="Trazado 192829" d="M-2814.252-8519.514h-1.5v-5.378h19.1v-3.608h1.5v5.106h-19.1Z" transform="translate(4034.072 11375.19)" fill="#12263f"/>
  </g>
</svg>
