<svg xmlns="http://www.w3.org/2000/svg" width="400.01" height="310.854" viewBox="0 0 400.01 310.854">
  <g id="Capa_2" data-name="Capa 2" transform="translate(658.729 99.374)">
    <g id="Recursos" transform="translate(-658.729 -99.658)">
      <g id="Grupo_80402" data-name="Grupo 80402" transform="translate(350.408 0.285)">
        <path id="Trazado_117004" data-name="Trazado 117004" d="M670.421,32.592l.242-.2.04.317a1.389,1.389,0,0,0,.3.686l.2.242-.316.04a1.329,1.329,0,0,0-.685.294l-.242.207-.04-.317a1.308,1.308,0,0,0-.293-.686l-.207-.242.316-.04A1.317,1.317,0,0,0,670.421,32.592Z" transform="translate(-626.307 -15.321)" fill="#feca2e"/>
        <path id="Trazado_117005" data-name="Trazado 117005" d="M675.33,14.57l.409-.34.069.524a2.232,2.232,0,0,0,.495,1.153l.339.409-.524.069a2.191,2.191,0,0,0-1.151.5l-.409.34-.069-.53a2.214,2.214,0,0,0-.5-1.153l-.34-.409.529-.063a2.3,2.3,0,0,0,1.151-.5Z" transform="translate(-628.103 -7.625)" fill="#feca2e"/>
        <path id="Trazado_117007" data-name="Trazado 117007" d="M600.93,28.036c-1.3.536-2.612,1.037-3.9,1.6a4.193,4.193,0,0,0-2.382,2.587,4.582,4.582,0,0,0,.535,3.59c1.858,3.556,4.546,7.146,8.412,8.644a11.032,11.032,0,0,0,8.136-.277.887.887,0,0,0-.673-1.642,9.315,9.315,0,0,1-6.191.484,10.85,10.85,0,0,1-4.534-2.881,20.712,20.712,0,0,1-3.078-4.178,6.167,6.167,0,0,1-1.018-2.345,2.363,2.363,0,0,1,1.467-2.305c1.283-.576,2.6-1.066,3.9-1.6a.888.888,0,0,0-.673-1.642Z" transform="translate(-594.494 -13.462)" fill="#feca2e"/>
        <path id="Trazado_117008" data-name="Trazado 117008" d="M648.965,10.376c1.226-.507,2.445-1.014,3.671-1.51a2.517,2.517,0,0,1,2.215,0,3.451,3.451,0,0,1,1.439,2.363c.961,3.285,1.438,7.1,0,10.321a9.212,9.212,0,0,1-5.052,4.61.889.889,0,0,0,.679,1.642,11.184,11.184,0,0,0,5.593-4.748,12.618,12.618,0,0,0,1.433-6.27,22.285,22.285,0,0,0-.926-5.947A5.832,5.832,0,0,0,656.5,7.852a4.058,4.058,0,0,0-3.66-.934,32.117,32.117,0,0,0-4.551,1.809.89.89,0,0,0,.673,1.648Z" transform="translate(-617.101 -4.48)" fill="#feca2e"/>
        <path id="Trazado_117009" data-name="Trazado 117009" d="M645.941,61.6l-2.3.375h0l-.052.035h-.058l-1.91,1.36a22.607,22.607,0,0,1,1.065,7.953l3.988-1.637.109-.046L650.763,68A22.6,22.6,0,0,1,645.941,61.6Z" transform="translate(-614.504 -27.698)" fill="#feca2e"/>
        <path id="Trazado_117010" data-name="Trazado 117010" d="M644.854,59.505,639,61.908a1.478,1.478,0,0,1-1.933-.807h0a1.482,1.482,0,0,1,.811-1.954l5.858-2.409a1.484,1.484,0,0,1,1.933.813h0a1.488,1.488,0,0,1-.811,1.954Z" transform="translate(-612.518 -25.592)" fill="#cba124"/>
        <path id="Trazado_117011" data-name="Trazado 117011" d="M628.388,2.77l-13.81,5.676-.737.305L600.78,14.117c0,.317,9.782,28.1,24.869,21.368h.035C641.11,29.676,628.6,3.012,628.388,2.77Z" transform="translate(-597.163 -2.77)" fill="#feca2e"/>
        <path id="Trazado_117012" data-name="Trazado 117012" d="M655.007,72.57l-17.262,7.105h0a4.613,4.613,0,0,1,2.515-6.022l8.717-3.584a4.6,4.6,0,0,1,6.03,2.5Z" transform="translate(-612.711 -31.135)" fill="#cba124"/>
        <path id="Trazado_158877" data-name="Trazado 158877" d="M0,0,25.024-.013l-.006,12.059-25.024.013Z" transform="translate(21.873 49.572) rotate(-22.3)" fill="#feca2e"/>
        <path id="Trazado_158878" data-name="Trazado 158878" d="M0,0,17.7-.009l0,5.911L0,5.911Z" transform="translate(26.385 51.097) rotate(-22.3)" fill="#cba124"/>
        <path id="Trazado_117013" data-name="Trazado 117013" d="M626.89,24.43l3.447,3.043,4.454-1.112-1.824,4.218,2.44,3.9-4.575-.432-2.952,3.527-1-4.495-4.258-1.717,3.953-2.34Z" transform="translate(-606.436 -11.948)" fill="#cba124"/>
      </g>
      <g id="Grupo_80400" data-name="Grupo 80400" transform="translate(21.238 0)">
        <path id="Trazado_158879" data-name="Trazado 158879" d="M23.552-.218A23.737,23.737,0,1,1-.22,23.535,23.712,23.712,0,0,1,23.552-.218Z" transform="translate(0 42.329) rotate(-62.43)" fill="#fc4b52"/>
        <path id="Trazado_158884" data-name="Trazado 158884" d="M18.975-.063A19.008,19.008,0,1,1-.064,18.949,19.011,19.011,0,0,1,18.975-.063Z" transform="translate(10.302 48.429) rotate(-81.384)" fill="#fafafa"/>
        <path id="Trazado_158880" data-name="Trazado 158880" d="M14.148-.1A14.255,14.255,0,1,1-.1,14.163,14.231,14.231,0,0,1,14.148-.1Z" transform="matrix(0.948, -0.319, 0.319, 0.948, 13.822, 23.457)" fill="#fc4b52"/>
        <path id="Trazado_158881" data-name="Trazado 158881" d="M9.415-.089a9.505,9.505,0,1,1-9.5,9.511A9.487,9.487,0,0,1,9.415-.089Z" transform="matrix(0.882, -0.472, 0.472, 0.882, 19.004, 28.49)" fill="#fafafa"/>
        <path id="Trazado_158882" data-name="Trazado 158882" d="M4.7-.051A4.75,4.75,0,1,1-.051,4.7,4.742,4.742,0,0,1,4.7-.051Z" transform="translate(25.168 33.348) rotate(-53.55)" fill="#fc4b52"/>
        <path id="Trazado_117017" data-name="Trazado 117017" d="M34.514,76.205l-6.588-1.74,1.686-1.729L15.98,61.522l.754-.732,13.7,11.139,1.323-1.809Z" transform="translate(-2.037 -43.146)" fill="#12263f"/>
        <path id="Trazado_117018" data-name="Trazado 117018" d="M9.207,56.2,9,56.321a3.258,3.258,0,0,1-3.28-.046L0,52.84l3.844-.576L3.429,48.23l5.253,3.6a3.264,3.264,0,0,1,1.266,3.682h0Z" transform="translate(4.747 -37.824)" fill="#feca2e"/>
      </g>
      <g id="Grupo_80401" data-name="Grupo 80401" transform="translate(193 24.821)">
        <rect id="Rectángulo_34909" data-name="Rectángulo 34909" width="11.64" height="36.403" transform="translate(0 0)" fill="#a7e446"/>
        <rect id="Rectángulo_34910" data-name="Rectángulo 34910" width="11.64" height="28.088" transform="translate(17.377 8.316)" fill="#a7e446"/>
        <rect id="Rectángulo_34911" data-name="Rectángulo 34911" width="11.64" height="16.677" transform="translate(33.466 19.721)" fill="#a7e446"/>
      </g>
      <path id="Trazado_117034" data-name="Trazado 117034" d="M244.808,219.836a11.534,11.534,0,0,1,2.808-1.222l.575-2.783,4.7-.081.679,2.76a11.365,11.365,0,0,1,2.848,1.153l2.376-1.562,3.378,3.273L260.7,223.8a11.627,11.627,0,0,1,1.226,2.818l2.779.576.081,4.708-2.756.674a11.4,11.4,0,0,1-1.122,2.853l1.554,2.38-3.263,3.388-2.428-1.475a11.436,11.436,0,0,1-2.808,1.222l-.575,2.783-4.7.081-.673-2.76a11.5,11.5,0,0,1-2.877-1.153l-2.371,1.562-3.383-3.267,1.473-2.432a11.609,11.609,0,0,1-1.22-2.818l-2.779-.576-.086-4.7,2.762-.68a11.4,11.4,0,0,1,1.122-2.881l-1.559-2.38,3.263-3.383,2.428,1.469Zm2.5,6.27a5.044,5.044,0,1,0,7.129-.127A5.054,5.054,0,0,0,247.311,226.106Z" transform="translate(-84.181 -204.233)" fill="#feca2e"/>
      <g id="Grupo_80405" data-name="Grupo 80405" transform="translate(0 209.091)">
        <path id="Trazado_117037" data-name="Trazado 117037" d="M404.27,324.71c0,.081-89.551.15-199.988.15S4.27,324.813,4.27,324.71s89.533,2.366,200.011,2.366S404.27,324.623,404.27,324.71Z" transform="translate(-4.27 -291.538)" fill="#12263f"/>
        <path id="Trazado_117038" data-name="Trazado 117038" d="M402.524,279.074c0-.541-80.3-1-179.348-1s-179.366.464-179.366,1,80.286,1,179.366,1S402.524,279.654,402.524,279.074Z" transform="translate(-21.058 -278.07)" fill="#12263f"/>
        <path id="Trazado_117039" data-name="Trazado 117039" d="M405.5,370.586c0,.622-86.587,1.156-193.382,1.156s-193.4-.533-193.4-1.156,86.57-1.156,193.4-1.156S405.5,369.964,405.5,370.586Z" transform="translate(-10.406 -305.88)" fill="#1e2e34"/>
        <path id="Trazado_117040" data-name="Trazado 117040" d="M383.562,422.509c0,.63-81.656,1.169-182.415,1.169s-182.427-.54-182.427-1.169,81.656-1.169,182.427-1.169S383.562,421.835,383.562,422.509Z" transform="translate(-10.406 -321.632)" fill="#1e2e34"/>
        <path id="Trazado_117045" data-name="Trazado 117045" d="M138.16,300.538a51.257,51.257,0,0,1-4.58-6.368,25.732,25.732,0,0,1,2.411,3.1A25.717,25.717,0,0,1,138.16,300.538Z" transform="translate(-57.74 -284.037)" fill="#a7e446"/>
        <path id="Trazado_117046" data-name="Trazado 117046" d="M143.446,299.095a34.925,34.925,0,0,1-1.295-4.42,35.774,35.774,0,0,1-1-4.495,34.557,34.557,0,0,1,1.295,4.42A35.272,35.272,0,0,1,143.446,299.095Z" transform="translate(-60.879 -282.347)" fill="#a7e446"/>
        <path id="Trazado_117047" data-name="Trazado 117047" d="M150.2,291.08a37.5,37.5,0,0,0-1,3.763,35.172,35.172,0,0,0-.288,3.878,3.462,3.462,0,0,1-.173-1.153,12.961,12.961,0,0,1,.926-5.475,3.569,3.569,0,0,1,.535-1.014Z" transform="translate(-64.014 -282.728)" fill="#a7e446"/>
        <path id="Trazado_117048" data-name="Trazado 117048" d="M335.125,307.338a2.14,2.14,0,0,1,0,.7v.236l-.138-.207c-.437-.68-1.208-1.959-2.054-3.458-.65-1.124-1.22-2.149-1.617-2.881a5.71,5.71,0,0,1-.575-1.245,6.617,6.617,0,0,1,.777,1.153c.443.72,1.047,1.729,1.692,2.853.846,1.481,1.565,2.783,1.933,3.51l-.144.029A2.309,2.309,0,0,1,335.125,307.338Z" transform="translate(-139.267 -283.859)" fill="#1e2e34"/>
        <path id="Trazado_117049" data-name="Trazado 117049" d="M338,306.074a5.189,5.189,0,0,1-.547-1.262,20,20,0,0,1-1.088-6.541,4.927,4.927,0,0,1,.109-1.372c.092,0,.029,2.1.455,4.639S338.09,306.04,338,306.074Z" transform="translate(-141.615 -285.194)" fill="#1e2e34"/>
        <path id="Trazado_117050" data-name="Trazado 117050" d="M343.19,308.7a13.712,13.712,0,0,1,.363-2.829,13.885,13.885,0,0,1,.656-2.778,27.317,27.317,0,0,1-1.018,5.607Z" transform="translate(-144.448 -284.704)" fill="#1e2e34"/>
        <path id="Trazado_117051" data-name="Trazado 117051" d="M113.553,350.106a46.975,46.975,0,0,1-3.545-3.988,47.012,47.012,0,0,1-3.309-4.178,48.726,48.726,0,0,1,3.539,3.988A47.825,47.825,0,0,1,113.553,350.106Z" transform="translate(-47.761 -295.733)" fill="#a7e446"/>
        <path id="Trazado_117052" data-name="Trazado 117052" d="M114.58,338.47A36.976,36.976,0,0,1,116,343.011a38.232,38.232,0,0,1,1.151,4.61,38.075,38.075,0,0,1-1.421-4.547,39.359,39.359,0,0,1-1.151-4.6Z" transform="translate(-51.107 -294.627)" fill="#a7e446"/>
        <path id="Trazado_117053" data-name="Trazado 117053" d="M123.078,340.21c.092.029-.42,1.631-.61,3.677s0,3.717-.1,3.728a3.237,3.237,0,0,1-.2-1.089,14.168,14.168,0,0,1,0-2.668,13.849,13.849,0,0,1,.506-2.616,3.46,3.46,0,0,1,.409-1.031Z" transform="translate(-54.3 -295.323)" fill="#a7e446"/>
        <path id="Trazado_117054" data-name="Trazado 117054" d="M565.833,351.664a36.439,36.439,0,0,1-2.543-6.114,18.524,18.524,0,0,1,1.41,3A18.775,18.775,0,0,1,565.833,351.664Z" transform="translate(-234.146 -297.015)" fill="#a7e446"/>
        <path id="Trazado_117055" data-name="Trazado 117055" d="M568.931,349.528a56.942,56.942,0,0,1,0-8.408,59.143,59.143,0,0,1,0,8.408Z" transform="translate(-236.467 -295.469)" fill="#a7e446"/>
        <path id="Trazado_117056" data-name="Trazado 117056" d="M574.62,352.707a25.819,25.819,0,0,1,.616-3.855,25.033,25.033,0,0,1,.9-3.792A49.761,49.761,0,0,1,574.62,352.707Z" transform="translate(-238.957 -296.69)" fill="#a7e446"/>
        <path id="Trazado_117057" data-name="Trazado 117057" d="M379.658,414.438a23.615,23.615,0,0,1-3.8-3.838,24.931,24.931,0,0,1,3.8,3.838Z" transform="translate(-157.93 -316.061)" fill="#a7e446"/>
        <path id="Trazado_117058" data-name="Trazado 117058" d="M383.265,410.652a50.026,50.026,0,0,1-3.015-7.152,25.987,25.987,0,0,1,1.646,3.521,24.428,24.428,0,0,1,1.37,3.63Z" transform="translate(-159.754 -313.053)" fill="#a7e446"/>
        <path id="Trazado_117059" data-name="Trazado 117059" d="M391.393,411.815a16.24,16.24,0,0,1,.339-3.049,16.537,16.537,0,0,1,.656-3.037,32.316,32.316,0,0,1-1.018,6.114Z" transform="translate(-164.374 -313.998)" fill="#a7e446"/>
        <path id="Trazado_117060" data-name="Trazado 117060" d="M172.456,376.52a4.838,4.838,0,0,1,2.515,2.881,8.656,8.656,0,0,1,.339,3.873,15.351,15.351,0,0,1-3.245,7.054c-2.112-1.844-2.6-5.065-2.745-6.714-.224-2.6.944-7.457,3.136-7.065" transform="translate(-72.499 -301.621)" fill="#a7e446"/>
        <path id="Trazado_117061" data-name="Trazado 117061" d="M178.319,403.768a4.153,4.153,0,0,1,1.335-3.948,5.524,5.524,0,0,1,4.062-1.268,2.3,2.3,0,0,1,1.784.8,1.794,1.794,0,0,1,0,1.8,3.61,3.61,0,0,1-1.335,1.314c-1.83,1.153-3.809,1.925-5.875,1.3" transform="translate(-76.191 -310.946)" fill="#a7e446"/>
        <path id="Trazado_117062" data-name="Trazado 117062" d="M173.67,413.322a3.2,3.2,0,0,1,.075-.519c.063-.363.15-.83.253-1.395a14.687,14.687,0,0,1,1.439-4.455,8.956,8.956,0,0,1,3.193-3.4,6.457,6.457,0,0,1,1.3-.576,3.365,3.365,0,0,1,.374-.092.408.408,0,0,1,.138,0,8.272,8.272,0,0,0-4.856,4.155,15.7,15.7,0,0,0-1.473,4.391c-.127.576-.23,1.055-.311,1.383A3.115,3.115,0,0,1,173.67,413.322Z" transform="translate(-74.306 -312.789)" fill="#5e9540"/>
        <path id="Trazado_117063" data-name="Trazado 117063" d="M173.716,383.06a1.472,1.472,0,0,1,0,.225,4.145,4.145,0,0,0,.04.651c.029.576.063,1.372.092,2.38.069,2.011.121,4.795.1,7.866s-.086,5.855-.167,7.866c-.046,1.008-.081,1.821-.121,2.38a3.038,3.038,0,0,1-.04.651,1.056,1.056,0,0,1-.029.225,1.033,1.033,0,0,1,0-.23v-.645c0-.576.035-1.395.058-2.386.052-2.011.1-4.789.121-7.86s0-5.849-.052-7.86c0-.991-.029-1.8-.04-2.386v-.651a1,1,0,0,1,.035-.225Z" transform="translate(-74.303 -304.391)" fill="#5e9540"/>
        <path id="Trazado_117064" data-name="Trazado 117064" d="M166.163,404.786a9.715,9.715,0,0,0-5.3-7.117c-.7-.34-1.628-.576-2.2-.035a2.018,2.018,0,0,0-.167,2.2,8.292,8.292,0,0,0,7.618,5.158" transform="translate(-67.927 -310.431)" fill="#a7e446"/>
        <path id="Trazado_117065" data-name="Trazado 117065" d="M163.42,402.06a3.2,3.2,0,0,1,.449.2c.138.069.316.156.506.271a7.173,7.173,0,0,1,.644.409,8.744,8.744,0,0,1,.737.576,9.682,9.682,0,0,1,.783.715,10.331,10.331,0,0,1,1.49,1.919,10.493,10.493,0,0,1,.984,2.224,10.212,10.212,0,0,1,.247,1.031,7.255,7.255,0,0,1,.127.916,6.091,6.091,0,0,1,.035.761,3.572,3.572,0,0,1,0,.576,2.846,2.846,0,0,1-.052.49c-.04,0,.029-.7-.092-1.81a8.7,8.7,0,0,0-.15-.9,8.408,8.408,0,0,0-.259-1.008,10.255,10.255,0,0,0-2.434-4.08c-.259-.259-.506-.507-.76-.715s-.495-.4-.714-.576C164.035,402.389,163.4,402.1,163.42,402.06Z" transform="translate(-70.071 -312.442)" fill="#5e9540"/>
      </g>
      <g id="Grupo_80404" data-name="Grupo 80404" transform="translate(234.945 38.319)">
        <path id="Trazado_117043" data-name="Trazado 117043" d="M484.018,258.49c0,.1-8.675.18-19.37.18s-19.377-.083-19.377-.18,8.675-.18,19.377-.18S484.018,258.386,484.018,258.49Z" transform="translate(-445.27 -129.521)" fill="#1e2e34"/>
        <path id="Trazado_117044" data-name="Trazado 117044" d="M502.686,251.82c0,.1-8.275.18-18.439.18s-18.446-.083-18.446-.18,8.275-.18,18.446-.18S502.686,251.716,502.686,251.82Z" transform="translate(-451.643 -127.458)" fill="#1e2e34"/>
        <path id="Trazado_117070" data-name="Trazado 117070" d="M459,379.054l6.668-13.274,12.04,6.181-9.178,13.253Z" transform="translate(-449.533 -162.771)" fill="#ac6b62"/>
        <path id="Trazado_117071" data-name="Trazado 117071" d="M468.879,387.738l-.462.649s7.585,12.127,6.206,14.282L453.37,387.192l5.517-6.982A14.815,14.815,0,0,0,468.879,387.738Z" transform="translate(-447.785 -167.235)" fill="#feca2e"/>
        <path id="Trazado_117072" data-name="Trazado 117072" d="M453.38,389.568l1.324-1.678,19.887,15.449s.641,1.112.041,1.706Z" transform="translate(-447.787 -169.611)" fill="#cba124"/>
        <path id="Trazado_117073" data-name="Trazado 117073" d="M575.4,371.64l6.089-13.55,12.3,5.649-7.82,14.1Z" transform="translate(-485.665 -160.391)" fill="#ac6b62"/>
        <path id="Trazado_117074" data-name="Trazado 117074" d="M586.264,380.651l-.365.746s9.944,11.271,8.889,13.743l-24.687-12.4,4.524-8.184a15.563,15.563,0,0,0,11.64,6.091Z" transform="translate(-484.02 -165.487)" fill="#feca2e"/>
        <path id="Trazado_117075" data-name="Trazado 117075" d="M570.1,385.528l1.089-1.968,23.26,12.6s.855,1.043.338,1.768Z" transform="translate(-484.02 -168.271)" fill="#cba124"/>
        <path id="Trazado_117076" data-name="Trazado 117076" d="M577.342,262.416c-5.758-6.582-29.652-28.094-29.114-28.446l-3.448-7.555L522.362,212.16s-6.434,2.762-12.412,12.486c-4.827,7.839-3.338,19.006-3.338,19.006l-15.495,36.561S479.773,293.494,473.463,304c-3.572,5.953-10.233,17.714-10.233,17.714l13.7,8.978,27.011-31.858s4.138-3.218,5.413-5.352l22.356-34.938,10.716,7.673,19.308,13.757.29,1.782a84.8,84.8,0,0,0-7.84,12.749c-3.538,6.906-9.923,21.934-9.923,21.934l14.9,8.322s19.474-30.7,21.639-33.723,4.717-8.626,5.144-12.321S582.652,268.494,577.342,262.416Z" transform="translate(-450.846 -115.242)" fill="#12263f"/>
        <path id="Trazado_117077" data-name="Trazado 117077" d="M569.49,134.58l13.564,36.893,2.414,2.017s6.958-9.116,6.041-16.112-7.958-18.729-7.958-18.729Z" transform="translate(-483.831 -91.241)" fill="#fafafa"/>
        <path id="Trazado_117078" data-name="Trazado 117078" d="M646.419,164.637V159.9l3.041-2.914a23.22,23.22,0,0,0,3.448-1.685,1.217,1.217,0,0,1,.159,1.271s1.055-1.05,1.655-.912.883,1.243.945,1.989a4.78,4.78,0,0,1,1.117.953,2.5,2.5,0,0,1,.586,1.347l-.283.919a1.131,1.131,0,0,1,1.062.691,3.4,3.4,0,0,1,0,1.761s.779-.311,1.055.318a1.618,1.618,0,0,1,.11,1.471,25.886,25.886,0,0,1-3.917,4.627c-.876.518-8.206,4.924-8.206,4.924l-5.041-6.8Z" transform="translate(-506.385 -97.651)" fill="#ac6b62"/>
        <path id="Trazado_117079" data-name="Trazado 117079" d="M663.8,168.948a4.72,4.72,0,0,1-1.145,1.008,10.1,10.1,0,0,1-1.434.849,1.639,1.639,0,0,1-1.014.228,1.132,1.132,0,0,1-.869-.753,1.176,1.176,0,0,1,.221-1.119,2.65,2.65,0,0,1,.8-.622,14.311,14.311,0,0,1,1.49-.767,5.639,5.639,0,0,1,1.441-.5,12.078,12.078,0,0,1-1.379.691c-.414.214-.9.477-1.427.794a2.629,2.629,0,0,0-.69.573.878.878,0,0,0-.159.843.835.835,0,0,0,.634.552,1.446,1.446,0,0,0,.841-.186,14.417,14.417,0,0,0,1.427-.773C663.32,169.287,663.762,168.914,663.8,168.948Z" transform="translate(-511.702 -101.354)" fill="#834d45"/>
        <path id="Trazado_117080" data-name="Trazado 117080" d="M659.606,158.438c0,.041-.51.387-1.31,1.029a12.851,12.851,0,0,0-1.345,1.2c-.241.235-.483.49-.731.767a1.709,1.709,0,0,1-1.062.622.855.855,0,0,1-.648-.2,1.1,1.1,0,0,1-.324-.566,1.486,1.486,0,0,1,.221-1.126,5.291,5.291,0,0,1,.614-.78l.552-.635a9.049,9.049,0,0,1,1.158-1.209,9.8,9.8,0,0,1-.993,1.381c-.3.407-.752.87-1.09,1.381a1.245,1.245,0,0,0-.179.919.634.634,0,0,0,.69.539,1.447,1.447,0,0,0,.869-.532c.248-.262.5-.525.759-.76a13.1,13.1,0,0,1,1.379-1.167A6.046,6.046,0,0,1,659.606,158.438Z" transform="translate(-510.112 -98.343)" fill="#834d45"/>
        <path id="Trazado_117081" data-name="Trazado 117081" d="M661.054,163a10.693,10.693,0,0,1-.979.787,11.9,11.9,0,0,1-2.483,1.761,6.057,6.057,0,0,1-.793.394.764.764,0,0,1-.5,0,1.157,1.157,0,0,1-.372-.242,1,1,0,0,1-.269-.331,1.509,1.509,0,0,1-.117-.366,1.7,1.7,0,0,1,0-.691,1.687,1.687,0,0,1,.441-.843c.166-.159.283-.207.29-.186a2.3,2.3,0,0,0-.524,1.07,1.422,1.422,0,0,0,0,.587,1.3,1.3,0,0,0,.11.3.729.729,0,0,0,.207.242,1.323,1.323,0,0,0,.29.18.5.5,0,0,0,.31,0,6.361,6.361,0,0,0,.745-.38,16.227,16.227,0,0,0,2.5-1.664A3.345,3.345,0,0,1,661.054,163Z" transform="translate(-510.532 -100.033)" fill="#834d45"/>
        <path id="Trazado_117082" data-name="Trazado 117082" d="M662.893,165.673a11.072,11.072,0,0,1-1.538.925l-1.7.925a4.343,4.343,0,0,1-1.083.477,1.226,1.226,0,0,1-.69-.069.842.842,0,0,1-.483-.553,1.382,1.382,0,0,1,.386-1.264,11.1,11.1,0,0,1,.855-.794,14.125,14.125,0,0,1,1.558-1.174,7.131,7.131,0,0,1,1.165-.622,1.288,1.288,0,0,1,.462-.145c0,.048-.614.3-1.51.939a16.865,16.865,0,0,0-1.5,1.215c-.262.242-.559.5-.814.774a1.092,1.092,0,0,0-.317.988.689.689,0,0,0,.821.407,4.018,4.018,0,0,0,1.007-.428l1.738-.87A11.212,11.212,0,0,1,662.893,165.673Z" transform="translate(-511.11 -100.151)" fill="#834d45"/>
        <path id="Trazado_117083" data-name="Trazado 117083" d="M656.684,157a6.142,6.142,0,0,1-1.855,2.293c-.159.131-.31.262-.476.38s-.172.111-.234.159l-.083.055a.271.271,0,0,0,0,.062,5.464,5.464,0,0,1-.179.912,1.713,1.713,0,0,1-.407.78,5.9,5.9,0,0,1,.2-.836,7.624,7.624,0,0,0,.117-.925.4.4,0,0,1,.062-.117l.131-.11.228-.166c.152-.111.3-.235.448-.366a19.925,19.925,0,0,0,1.469-1.437,5.447,5.447,0,0,1,.579-.684Z" transform="translate(-509.893 -98.177)" fill="#834d45"/>
        <path id="Trazado_117084" data-name="Trazado 117084" d="M654.436,165.915c-.042,0-.1-.207-.283-.5a10.133,10.133,0,0,0-.828-1.1,2.952,2.952,0,0,0-1.048-.822c-.31-.138-.538-.152-.538-.2s.234-.1.607,0a2.462,2.462,0,0,1,1.207.829,5.573,5.573,0,0,1,.793,1.2C654.5,165.666,654.478,165.915,654.436,165.915Z" transform="translate(-509.363 -100.103)" fill="#834d45"/>
        <path id="Trazado_117085" data-name="Trazado 117085" d="M598.412,167.84c-.048.159,9.365,9.282,9.365,9.282l20.612-8.633,4.951,9.572s-23.963,17.2-30.935,15.083c-2.241-.691-11.275-10.29-11.275-10.29Z" transform="translate(-490.549 -101.531)" fill="#a7e446"/>
        <path id="Trazado_117086" data-name="Trazado 117086" d="M610.727,187.155s0,.069-.117.166l-.09.1v-.152a9.342,9.342,0,0,1,1.083-3.4,7.726,7.726,0,0,1,2.372-2.908,33.033,33.033,0,0,0-2.069,3.073,19.517,19.517,0,0,0-1.289,3.253l-.09-.048C610.658,187.162,610.713,187.141,610.727,187.155Z" transform="translate(-496.567 -105.59)" fill="#5e9540"/>
        <path id="Trazado_117087" data-name="Trazado 117087" d="M526.1,200.135l11.723-19.04a7.218,7.218,0,0,0,1.035-4.468l-2.214-23.294.565-21.112,14.288-5.131,1.848-2.548,7.5,12.749s12.909,20.608,11.316,31.029L567.838,182.2s3.9,29.482,3.082,29.973C563.19,216.9,524.133,205.812,526.1,200.135Z" transform="translate(-470.339 -88.135)" fill="#a7e446"/>
        <path id="Trazado_117088" data-name="Trazado 117088" d="M586.093,135.34s5.372,5.283,6.634,7.825,4.455,13.122,4.51,16.361-9.585,25.919-9.585,25.919,1.338,15.622,2.186,23.391c.276,2.514,1.124,7.086.9,6.008l-2.758-.048L580.7,187.226l7.792-14.89s.379-1.575.4-1.623c1.9-5.428,4.827-7.6,4.365-12.031a40.609,40.609,0,0,0-2.758-9.669c-2.434-6.367-3.965-10.228-3.965-10.228Z" transform="translate(-487.311 -91.475)" fill="#a7e446"/>
        <path id="Trazado_117089" data-name="Trazado 117089" d="M583.729,167.144a3.111,3.111,0,0,1-.255-.414c-.179-.3-.407-.691-.69-1.209-.6-1.043-1.483-2.555-2.6-4.4-2.2-3.716-5.668-8.577-9.447-13.971-1.558-2.2-3.048-4.3-4.441-6.257l-.076-.111.083-.1,2.152-2.548.076.256-3.641-1.174h-.076v-.076c-.579-2.68-1.048-4.876-1.379-6.45-.145-.739-.269-1.326-.359-1.775a3.819,3.819,0,0,1-.1-.622,3.465,3.465,0,0,1,.179.608c.11.435.255,1.022.434,1.754.365,1.568.883,3.757,1.5,6.423l-.09-.1,3.648,1.14.228.069-.159.186-2.131,2.562v-.207l4.462,6.25c3.779,5.4,7.213,10.29,9.371,14.047,1.09,1.865,1.938,3.4,2.5,4.468.276.532.49.953.627,1.236A2.2,2.2,0,0,1,583.729,167.144Z" transform="translate(-481.809 -89.294)" fill="#5e9540"/>
        <path id="Trazado_117090" data-name="Trazado 117090" d="M589.72,228.844a2.668,2.668,0,0,1-.083-.456c-.048-.331-.1-.76-.179-1.3-.145-1.174-.352-2.8-.593-4.793-.476-4.088-1.117-9.669-1.827-15.829-.221-1.968-.434-3.881-.628-5.663v-.117a33.531,33.531,0,0,0,1.076-3.308c.31-1.077.6-2.113.876-3.094.524-1.954.993-3.688,1.379-5.145s.69-2.569.9-3.4c.1-.366.179-.691.241-.9a2.071,2.071,0,0,1,.1-.311,1.294,1.294,0,0,1-.041.325c-.048.242-.11.545-.193.925-.172.8-.441,1.961-.793,3.419s-.793,3.211-1.31,5.173l-.848,3.108a32.69,32.69,0,0,1-1.083,3.37v-.1l.634,5.663c.69,6.167,1.283,11.74,1.724,15.843.2,2,.366,3.626.483,4.834.048.539.083.974.11,1.305A2.134,2.134,0,0,1,589.72,228.844Z" transform="translate(-489.082 -106.691)" fill="#5e9540"/>
        <path id="Trazado_117091" data-name="Trazado 117091" d="M599.69,158.85a3.634,3.634,0,0,1,.228.642c.124.428.3,1.057.462,1.858.345,1.609.731,3.9,1.069,6.6v.069c-.559,1.7-1.186,3.564-1.876,5.525-1.379,3.93-2.758,7.438-3.82,9.959-.524,1.257-.965,2.272-1.276,2.97a7.046,7.046,0,0,1-.517,1.064,7.108,7.108,0,0,1,.386-1.119c.3-.767.69-1.782,1.172-3.011.986-2.541,2.331-6.057,3.717-9.986l1.9-5.484v.069c-.3-2.693-.648-4.986-.938-6.6-.138-.8-.276-1.436-.366-1.872a3.112,3.112,0,0,1-.138-.691Z" transform="translate(-491.427 -98.749)" fill="#5e9540"/>
        <path id="Trazado_117092" data-name="Trazado 117092" d="M582,208.187a.666.666,0,0,1,.69.283.857.857,0,0,1,.131.87.937.937,0,0,1-1.772,0,.871.871,0,0,1,.138-.87c.345-.4.69-.318.69-.276s-.283.09-.49.421a.622.622,0,0,0-.041.594.626.626,0,0,0,1.165.007.622.622,0,0,0-.035-.594C582.294,208.277,581.991,208.242,582,208.187Z" transform="translate(-487.401 -114.004)" fill="#5e9540"/>
        <path id="Trazado_117093" data-name="Trazado 117093" d="M564.434,135.53l-.324,5,2.427.159-1.8,2.659,17.819,23.232-5.71-9.213L566.786,143.03l2.145-2.555-3.641-1.16Z" transform="translate(-482.161 -91.534)" fill="#5e9540" opacity="0.3"/>
        <path id="Trazado_117094" data-name="Trazado 117094" d="M592.321,140.39a5.02,5.02,0,0,1,.248.691c.152.518.359,1.195.607,2.03v.069l-.062.041-.965.691-.076-.207,1.076-.131h.131l.041.069a41.638,41.638,0,0,1,4.641,11.423,14.268,14.268,0,0,1,.166,6.823,17.279,17.279,0,0,1-2.3,5.09c-.862,1.34-1.655,2.348-2.2,3.046-.276.345-.49.615-.641.787s-.234.269-.248.262a1.6,1.6,0,0,1,.186-.3l.593-.829a36.846,36.846,0,0,0,2.069-3.1,17.51,17.51,0,0,0,2.2-5.028,14.261,14.261,0,0,0-.2-6.664,43.958,43.958,0,0,0-4.51-11.374l.124.062-1.076.1-.448.048.366-.256.986-.691-.041.11c-.207-.849-.379-1.533-.517-2.072A3.912,3.912,0,0,1,592.321,140.39Z" transform="translate(-490.719 -93.038)" fill="#5e9540"/>
        <g id="Grupo_80389" data-name="Grupo 80389" transform="translate(103.988 69.79)" opacity="0.3">
          <path id="Trazado_117095" data-name="Trazado 117095" d="M596.311,188.074a18.455,18.455,0,0,0,5.517-15.194A112.04,112.04,0,0,0,596.07,188.4" transform="translate(-596.07 -172.88)" fill="#5e9540"/>
        </g>
        <path id="Trazado_117096" data-name="Trazado 117096" d="M577.03,207.59a14.18,14.18,0,0,1-6.82-2.693c.055-.1,1.49.691,3.365,1.464S577.051,207.486,577.03,207.59Z" transform="translate(-484.054 -112.993)" fill="#5e9540"/>
        <path id="Trazado_117097" data-name="Trazado 117097" d="M577.119,211a12.574,12.574,0,0,1-3.234,1.077,13.16,13.16,0,0,1-3.365.539,21.525,21.525,0,0,1,3.282-.891A22.1,22.1,0,0,1,577.119,211Z" transform="translate(-484.151 -114.884)" fill="#5e9540"/>
        <path id="Trazado_117098" data-name="Trazado 117098" d="M507.916,205.023s-1.207,4.061-.752,5.283c0,0,2.972,10.152,3.138,10.6s.945,1.443,1.62,1.381,1.124-.863,1.124-.863,1.131,1.851,2.069,1.768a1.042,1.042,0,0,0,1-.877s.958,1.215,2.1.822a2.8,2.8,0,0,0,1.551-1.678s.69,1.319,1.634.932a4.367,4.367,0,0,0,1.683-1.575h0l-.159-2.072s-.952-4.758-1.3-6.112-5.02-4.834-6.206-5.953S515,200.12,515,200.12Z" transform="translate(-464.452 -111.518)" fill="#ac6b62"/>
        <path id="Trazado_117099" data-name="Trazado 117099" d="M499.629,150.512a9.735,9.735,0,0,0-5.186,9.9c.559,4.489.807,10.815,2.31,17.2.69,2.859,3.524,13.329,3.524,13.329l13.667-3.612-4.613-16.057.379-2.673-.883-5.642,19.715-5.566s11.378-7.838,6.137-15.884-7.723-5.649-7.723-5.649L514.3,143.1Z" transform="translate(-460.51 -91.53)" fill="#a7e446"/>
        <path id="Trazado_117100" data-name="Trazado 117100" d="M503.92,170.94a11.2,11.2,0,0,1,4.206.967,11.031,11.031,0,0,1,3.71,2.2c-.062.09-1.655-1-3.848-1.872S503.9,171.051,503.92,170.94Z" transform="translate(-463.476 -102.49)" fill="#1e2e34"/>
        <g id="Grupo_80390" data-name="Grupo 80390" transform="translate(66.378 59.832)" opacity="0.3">
          <path id="Trazado_117101" data-name="Trazado 117101" d="M542.047,169.807a14.06,14.06,0,0,0,5.206-4.6,18.9,18.9,0,0,0,2.427-6.747,19.485,19.485,0,0,1-8.151,6.506Z" transform="translate(-541.53 -158.46)" fill="#5e9540"/>
        </g>
        <path id="Trazado_117102" data-name="Trazado 117102" d="M547.977,147.442c-.062,0,0-.843-.076-2.175a13.629,13.629,0,0,0-1.145-5.035,8.829,8.829,0,0,0-3.358-3.819,14.588,14.588,0,0,0-1.958-.884,1.638,1.638,0,0,1,.586.076,6.11,6.11,0,0,1,1.5.587,8.552,8.552,0,0,1,3.551,3.888,12.571,12.571,0,0,1,1.076,5.18,13.521,13.521,0,0,1-.076,1.6A2.005,2.005,0,0,1,547.977,147.442Z" transform="translate(-475.123 -91.534)" fill="#5e9540"/>
        <path id="Trazado_117103" data-name="Trazado 117103" d="M645.127,180.518c0-.041.455-.062.8.49a1.093,1.093,0,0,1,0,1.084,1.227,1.227,0,0,1-1.179.615,1.2,1.2,0,0,1-.986-.884,1.072,1.072,0,0,1,.269-1.043c.469-.456.917-.325.89-.283a1.284,1.284,0,0,0-.69.449.861.861,0,1,0,1.414.974.823.823,0,0,0,.048-.794C645.486,180.657,645.107,180.574,645.127,180.518Z" transform="translate(-506.874 -105.432)" fill="#5e9540"/>
        <path id="Trazado_117104" data-name="Trazado 117104" d="M506.522,208.66c0-.041.455-.062.793.49a1.079,1.079,0,0,1,0,1.084,1.165,1.165,0,0,1-2.172-.262,1.092,1.092,0,0,1,.276-1.05c.469-.456.917-.318.89-.283a1.285,1.285,0,0,0-.69.449.843.843,0,0,0-.152.787.864.864,0,1,0,1.614-.608C506.881,208.8,506.5,208.715,506.522,208.66Z" transform="translate(-463.845 -114.139)" fill="#5e9540"/>
        <path id="Trazado_117105" data-name="Trazado 117105" d="M531.266,245.69a11.761,11.761,0,0,1,.386,1.229,23.439,23.439,0,0,0,1.269,3.26,31.129,31.129,0,0,0,6.9,9.171,68.338,68.338,0,0,0,9.192,6.982l2.945,1.913.793.525a1.433,1.433,0,0,1,.269.207,2.791,2.791,0,0,1-.3-.145l-.834-.47c-.69-.421-1.745-1.036-3.007-1.816a60.725,60.725,0,0,1-9.316-6.906,29.742,29.742,0,0,1-6.9-9.323,20.74,20.74,0,0,1-1.179-3.329c-.11-.4-.159-.725-.207-.939A1.328,1.328,0,0,1,531.266,245.69Z" transform="translate(-471.963 -125.617)" fill="#dff7f9"/>
        <path id="Trazado_117106" data-name="Trazado 117106" d="M594.192,77.64c-.779-1.305-2.379-3.025-3.924-1.036l-7.379,32.728a8.775,8.775,0,0,0,7.62-1.464,15.025,15.025,0,0,0,5-6.747,29.817,29.817,0,0,0,1.834-8.529,25.142,25.142,0,0,0-3.151-14.952Z" transform="translate(-487.99 -73.023)" fill="#12263f"/>
        <path id="Trazado_117107" data-name="Trazado 117107" d="M579.22,76.428a10.343,10.343,0,0,0-5.661-3.971,17.661,17.661,0,0,0-7.013-.477c-3.751.407-7.585,1.727-10.068,4.51-3.889,4.33-5.517,8.653-9.613,12.8-1.379,1.381-3.089,2.231-3.338,6.153-.076,1.16,1.331,3.08,1.179,4.24-.248,1.934-1.7,2.673-3.607,3.191,2.138,1.975,5.558,3.329,8.075,1.858a2.973,2.973,0,0,1-.379,2.148,8.41,8.41,0,0,0,7.047-1.437,4.443,4.443,0,0,1-1.538,3.253c3.5-1.112,7.172-1.547,10.75-2.341s7.185-2.03,9.916-4.434c4.206-3.7,5.661-9.489,6.9-14.9Z" transform="translate(-475.017 -71.826)" fill="#12263f"/>
        <path id="Trazado_117108" data-name="Trazado 117108" d="M586,79.78a9.84,9.84,0,0,0-4.5-6.146,12.458,12.458,0,0,0-8.316-1.312,26.409,26.409,0,0,0-8.013,2.99,12.868,12.868,0,0,0-3.875,2.811,18.562,18.562,0,0,0-4.138,8.861,32.9,32.9,0,0,0,1.379,10.511,5.334,5.334,0,0,0,2.2,2.134,20.182,20.182,0,0,0,4.076,5.829q.91-2.362,1.814-4.71Z" transform="translate(-479.989 -71.91)" fill="#12263f"/>
        <path id="Trazado_117109" data-name="Trazado 117109" d="M589.37,88.84c-.138-4.675-3.027-10.5-7.689-10.166l-10.826,2.355a7.979,7.979,0,0,0-6.254,7.127c0,.18,0-.041,0,.1l.758,22.977,8.158,12.984,10.068,11.561-2.462-17.956c.083-2.272.221-5.981.221-5.967s5.979-.787,7.475-8.522C589.535,99.5,589.522,94.033,589.37,88.84Z" transform="translate(-482.313 -73.94)" fill="#ac6b62"/>
        <path id="Trazado_117110" data-name="Trazado 117110" d="M597.013,101.652a1,1,0,0,1-.993.974.959.959,0,0,1-1-.932.994.994,0,0,1,.993-.974.952.952,0,0,1,1,.932Z" transform="translate(-491.756 -80.764)" fill="#12263f"/>
        <path id="Trazado_117111" data-name="Trazado 117111" d="M596.893,97.251c-.124.124-.862-.463-1.931-.49s-1.876.477-1.986.338.076-.29.427-.525A2.666,2.666,0,0,1,595,96.139a2.6,2.6,0,0,1,1.538.552C596.851,96.954,596.955,97.2,596.893,97.251Z" transform="translate(-491.111 -79.346)" fill="#12263f"/>
        <path id="Trazado_117112" data-name="Trazado 117112" d="M582.956,101.159a.987.987,0,0,1-.993.967.945.945,0,0,1-.993-.932.994.994,0,0,1,.993-.974.959.959,0,0,1,.993.939Z" transform="translate(-487.394 -80.609)" fill="#12263f"/>
        <path id="Trazado_117113" data-name="Trazado 117113" d="M582.139,96.723c-.131.124-.862-.456-1.938-.49s-1.869.477-1.986.338.083-.29.434-.525a2.755,2.755,0,0,1,3.131.117C582.1,96.426,582.194,96.668,582.139,96.723Z" transform="translate(-486.529 -79.186)" fill="#12263f"/>
        <path id="Trazado_117114" data-name="Trazado 117114" d="M588.248,105.577a7.12,7.12,0,0,1,1.752-.256c.269,0,.531-.062.586-.249a1.383,1.383,0,0,0-.159-.815c-.234-.691-.476-1.381-.738-2.113a36.983,36.983,0,0,1-1.634-5.525,35.29,35.29,0,0,1,2.069,5.373c.248.739.483,1.443.69,2.12a1.556,1.556,0,0,1,.1,1.084.69.69,0,0,1-.462.38,1.99,1.99,0,0,1-.462.055A6.8,6.8,0,0,1,588.248,105.577Z" transform="translate(-489.59 -79.496)" fill="#12263f"/>
        <path id="Trazado_117115" data-name="Trazado 117115" d="M574.05,122.21s2.338,5.428,10.13,4.966l.069-1.83A19.563,19.563,0,0,1,574.05,122.21Z" transform="translate(-485.246 -87.414)" fill="#834d45"/>
        <path id="Trazado_117116" data-name="Trazado 117116" d="M581.423,91.185c-.11.29-1.179.111-2.441.221s-2.289.421-2.448.152c-.069-.124.117-.394.538-.691a4.242,4.242,0,0,1,3.724-.283C581.251,90.812,581.478,91.047,581.423,91.185Z" transform="translate(-486.012 -77.535)" fill="#12263f"/>
        <path id="Trazado_117117" data-name="Trazado 117117" d="M596.7,92.471c-.2.235-.931-.041-1.814-.083s-1.648.11-1.814-.152c-.069-.124.055-.366.393-.587a2.535,2.535,0,0,1,1.489-.352,2.487,2.487,0,0,1,1.427.546C596.685,92.084,596.782,92.34,596.7,92.471Z" transform="translate(-491.145 -77.847)" fill="#12263f"/>
        <path id="Trazado_117118" data-name="Trazado 117118" d="M586.571,80.262a3.448,3.448,0,0,0-2.945-2.072,6.619,6.619,0,0,0-3.62.919c-4.717,2.535-7.323,8.923-11.992,11.513-1.145.635-2.586-.041-3.572.829a3.3,3.3,0,0,0-1.172,3.508,10.7,10.7,0,0,1-1.49-2.762,3.672,3.672,0,0,1,.234-3.025c.421-.691,1.138-1.167,1.379-1.927a7.446,7.446,0,0,0,0-2.072,4.527,4.527,0,0,1,.779-1.954,20.122,20.122,0,0,1,7.689-7.528,13.086,13.086,0,0,1,6.9-1.519,10.082,10.082,0,0,1,6.386,2.8c.986.994,2.027,2.017,1.448,3.294" transform="translate(-481.369 -72.544)" fill="#12263f"/>
        <path id="Trazado_117119" data-name="Trazado 117119" d="M563.922,100.405c-.076-.228-4.069-1.83-4.275,2.472-.207,4.185,4.041,3.515,4.055,3.4S563.922,100.405,563.922,100.405Z" transform="translate(-480.773 -80.519)" fill="#ac6b62"/>
        <path id="Trazado_117120" data-name="Trazado 117120" d="M562.971,105.244a1.525,1.525,0,0,1-.207.1.744.744,0,0,1-.545,0,1.831,1.831,0,0,1-.759-1.657,2.394,2.394,0,0,1,.29-1.022.828.828,0,0,1,.572-.532.372.372,0,0,1,.421.214c.048.124,0,.207.042.214s.09-.069.069-.242a.464.464,0,0,0-.159-.269.572.572,0,0,0-.393-.124,1.028,1.028,0,0,0-.793.615,2.489,2.489,0,0,0-.3,1.153,1.9,1.9,0,0,0,.979,1.858.764.764,0,0,0,.69-.083C562.957,105.348,562.985,105.258,562.971,105.244Z" transform="translate(-481.256 -81.139)" fill="#834d45"/>
        <path id="Trazado_117121" data-name="Trazado 117121" d="M562.545,107.771a.829.829,0,1,0,.579,1.133.871.871,0,0,0-.386-1.064" transform="translate(-481.361 -82.94)" fill="#fc4b52"/>
        <path id="Trazado_117123" data-name="Trazado 117123" d="M564.954,96.613a6.52,6.52,0,0,0,.29,3.384,2.213,2.213,0,0,0,2.813,1.236,3.158,3.158,0,0,0,1.276-2.383c.49-2.652.772-5.338,1.282-7.99Z" transform="translate(-482.391 -77.714)" fill="#12263f"/>
        <path id="Trazado_117124" data-name="Trazado 117124" d="M581.9,112.419a5.175,5.175,0,0,1,.372-1.146.622.622,0,0,1,.276-.352.557.557,0,0,1,.441.055c.862.338,1.952.932,2.814,1.271a2.178,2.178,0,0,1-.545,1.713,2.067,2.067,0,0,1-1.517.414,2,2,0,0,1-1.6-.794A1.59,1.59,0,0,1,581.9,112.419Z" transform="translate(-487.675 -83.913)" fill="#834d45"/>
        <path id="Trazado_117125" data-name="Trazado 117125" d="M584.809,114a2.61,2.61,0,0,1-1.3.173,1.82,1.82,0,0,1-1.165-.691,1.929,1.929,0,0,1-.276-1.609,1.569,1.569,0,0,1,.428-.691c.186-.166.407-.1.69,0l1.345.649a5.646,5.646,0,0,0,1.276.532,5.831,5.831,0,0,0-1.172-.739l-1.358-.7a1.378,1.378,0,0,0-.462-.152.689.689,0,0,0-.531.159,1.775,1.775,0,0,0-.545.884,2.157,2.157,0,0,0,.352,1.885,1.992,1.992,0,0,0,1.379.732,1.928,1.928,0,0,0,1.027-.173C584.726,114.12,584.823,114.017,584.809,114Z" transform="translate(-487.605 -83.875)" fill="#12263f"/>
        <path id="Trazado_117126" data-name="Trazado 117126" d="M580.462,77.816a5.625,5.625,0,0,0-2.289.256,9.27,9.27,0,0,0-2.441,1.215,8.734,8.734,0,0,0-1.317,1.112c-.421.456-.848.96-1.3,1.471l-3.02,3.453a20.81,20.81,0,0,1-3.806,3.729,12.575,12.575,0,0,1-5.517,2.327,14.341,14.341,0,0,1-3.227.1,22.3,22.3,0,0,1-3.3-.58l-.621-.152.621-.18A20.34,20.34,0,0,0,560.12,87.8l.193.3a13.279,13.279,0,0,1-8.716,1.747l-.9-.124.876-.221A13.629,13.629,0,0,0,558,85.171c1.7-1.872,3.076-3.957,4.544-5.787a19.263,19.263,0,0,1,4.827-4.558,13.853,13.853,0,0,1,5.427-1.948,11.341,11.341,0,0,1,4.724.256,5.7,5.7,0,0,1,2.951,1.954,4.264,4.264,0,0,1,.883,2.072,2.542,2.542,0,0,1,0,.787,6.285,6.285,0,0,0-.069-.773,4.305,4.305,0,0,0-.917-1.989,5.557,5.557,0,0,0-2.9-1.851,11.079,11.079,0,0,0-4.634-.2,13.655,13.655,0,0,0-5.31,1.948,19.053,19.053,0,0,0-4.737,4.517c-1.455,1.823-2.813,3.9-4.544,5.822a13.782,13.782,0,0,1-6.592,4.441v-.352a13.086,13.086,0,0,0,8.489-1.733l.193.3a20.562,20.562,0,0,1-5.979,2.8v-.331a22.319,22.319,0,0,0,3.241.573,14.02,14.02,0,0,0,3.144-.083,12.25,12.25,0,0,0,5.337-2.231,20.352,20.352,0,0,0,3.786-3.653l3.055-3.4c.469-.511.9-1.008,1.324-1.464a8.545,8.545,0,0,1,1.379-1.112,9.137,9.137,0,0,1,2.524-1.188,5.069,5.069,0,0,1,1.724-.228A2.264,2.264,0,0,1,580.462,77.816Z" transform="translate(-477.997 -72.108)" fill="#dff7f9"/>
      </g>
      <g id="Grupo_80403" data-name="Grupo 80403" transform="translate(9.431 14.352)">
        <path id="Trazado_117208" data-name="Trazado 117208" d="M158.146,5.736a5.118,5.118,0,0,0-2.538-2.12,6.79,6.79,0,0,0-3.641-.5,6.209,6.209,0,0,0-4.9,4.282,6.18,6.18,0,0,0,1.82,6.216,7.766,7.766,0,0,0,7.282,1.126l1.683-3.985A5.394,5.394,0,0,0,158.146,5.736Z" transform="translate(-57.598 -0.936)" fill="#12263f"/>
        <path id="Trazado_117209" data-name="Trazado 117209" d="M176.778.183c-3.379-.691-6.4.552-9.316,2.39a17.032,17.032,0,0,0-6.489,7.845,16.9,16.9,0,0,0-.924,10.67,13.5,13.5,0,0,0,6.392,8.446A13.6,13.6,0,0,0,180.5,28.4a17.075,17.075,0,0,0,6.758-12.714,16.4,16.4,0,0,0-2.317-9.821A12.468,12.468,0,0,0,176.778.183" transform="translate(-61.548 0.01)" fill="#12263f"/>
        <path id="Trazado_117210" data-name="Trazado 117210" d="M169.835,11.577c.531-1.291.379-2.762.614-4.144.517-3.025,3.027-5.394,5.889-6.5,2.655-1.022,5.861-.691,8.965.421a12.053,12.053,0,0,1,5.558,3.854,9.556,9.556,0,0,1,1.51,8.612l-15.419-2.673a17.312,17.312,0,0,1-4.786,2.963,3.147,3.147,0,0,1-1.627.214,1.456,1.456,0,0,1-1.179-1.029,3.056,3.056,0,0,1,.476-1.72Z" transform="translate(-64.584 -0.092)" fill="#1e2e34"/>
        <path id="Trazado_117211" data-name="Trazado 117211" d="M185.295,8.078l-13.619,2.493a2.526,2.526,0,0,0-2.427,2.41l-.69,29.351a9.077,9.077,0,0,0,1.752,5.587l1.241,1.706a6.69,6.69,0,0,0,11.185-.518,3.455,3.455,0,0,0,.331-.76,5.834,5.834,0,0,0,.145-.691,21.275,21.275,0,0,0,.359-4.434c.207-2.611.276-3.681.276-3.653s5.565-.546,7.185-7.659c.807-3.536,1.014-9.406,1.034-14.213C192.115,13.4,189.612,7.913,185.295,8.078Z" transform="translate(-64.335 -2.491)" fill="#ffc4a3"/>
        <path id="Trazado_117212" data-name="Trazado 117212" d="M198.651,29.4a.918.918,0,0,1-.945.87.883.883,0,0,1-.9-.891.918.918,0,0,1,.952-.87.876.876,0,0,1,.89.891Z" transform="translate(-73.105 -8.814)" fill="#12263f"/>
        <path id="Trazado_117213" data-name="Trazado 117213" d="M198.914,25.848c-.124.111-.786-.456-1.779-.518s-1.745.387-1.848.256.083-.269.414-.477a2.562,2.562,0,0,1,1.49-.352,2.391,2.391,0,0,1,1.379.559C198.88,25.572,198.969,25.793,198.914,25.848Z" transform="translate(-72.624 -7.651)" fill="#12263f"/>
        <path id="Trazado_117214" data-name="Trazado 117214" d="M185.821,28.821a.918.918,0,0,1-.952.87A.883.883,0,0,1,184,28.8a.918.918,0,0,1,.945-.87A.883.883,0,0,1,185.821,28.821Z" transform="translate(-69.13 -8.634)" fill="#12263f"/>
        <path id="Trazado_117215" data-name="Trazado 117215" d="M185.275,25.11c-.124.111-.786-.449-1.779-.511s-1.752.38-1.848.256.083-.269.414-.477a2.459,2.459,0,0,1,1.49-.352,2.384,2.384,0,0,1,1.379.559C185.241,24.834,185.331,25.062,185.275,25.11Z" transform="translate(-68.391 -7.424)" fill="#12263f"/>
        <path id="Trazado_117216" data-name="Trazado 117216" d="M190.92,32.944a6.2,6.2,0,0,1,1.627-.186c.255,0,.5-.041.552-.214a1.252,1.252,0,0,0-.117-.76c-.2-.628-.4-1.285-.621-1.975a32.425,32.425,0,0,1-1.338-5.159,32.751,32.751,0,0,1,1.752,5.035c.2.691.4,1.381.586,1.989a1.446,1.446,0,0,1,.062,1,.628.628,0,0,1-.441.345,1.921,1.921,0,0,1-.428,0,6.693,6.693,0,0,1-1.634-.076Z" transform="translate(-71.277 -7.62)" fill="#12263f"/>
        <path id="Trazado_117217" data-name="Trazado 117217" d="M186.523,52.281a18.277,18.277,0,0,1-9.433-3.211s2.069,5.131,9.309,4.945Z" transform="translate(-66.984 -15.174)" fill="#ffa275"/>
        <path id="Trazado_117218" data-name="Trazado 117218" d="M188.733,39.745A1.778,1.778,0,0,0,187.181,39a1.62,1.62,0,0,0-1.165.532,1.023,1.023,0,0,0-.159,1.174,1.2,1.2,0,0,0,1.276.414,3.777,3.777,0,0,0,1.317-.691,1.055,1.055,0,0,0,.3-.276.339.339,0,0,0,0-.366" transform="translate(-69.669 -12.058)" fill="#ffa275"/>
        <path id="Trazado_117219" data-name="Trazado 117219" d="M186.551,37.37c.159,0,.09,1.077.959,1.9s2.055.787,2.055.939-.269.193-.752.173a2.673,2.673,0,0,1-1.689-.691,2.357,2.357,0,0,1-.738-1.6C186.337,37.618,186.475,37.356,186.551,37.37Z" transform="translate(-69.866 -11.555)" fill="#12263f"/>
        <path id="Trazado_117220" data-name="Trazado 117220" d="M184.953,20.937c-.11.262-1.09.069-2.262.131s-2.131.318-2.276.069c-.055-.124.124-.366.517-.6a3.939,3.939,0,0,1,3.448-.152C184.774,20.584,184.953,20.812,184.953,20.937Z" transform="translate(-68.014 -6.199)" fill="#12263f"/>
        <path id="Trazado_117221" data-name="Trazado 117221" d="M199.048,19.484c-.186.214-.855-.069-1.676-.131s-1.524.048-1.669-.2c-.062-.117.062-.338.379-.532a2.376,2.376,0,0,1,1.379-.276,2.329,2.329,0,0,1,1.31.546C199.054,19.159,199.13,19.4,199.048,19.484Z" transform="translate(-72.757 -5.665)" fill="#12263f"/>
        <path id="Trazado_117222" data-name="Trazado 117222" d="M166.056,9.421C167.58,5.333,173.862-.116,178.192.4l6.73,4.5a6.708,6.708,0,0,1-4.751,4.89c-1.241.311-2.724.345-3.5,1.381s-.434,2.631-1.179,3.709c-1.034,1.5-3.655,1.3-4.462,2.928-.345.691-.221,1.588-.586,2.3-.483.939-2.972,2.072-3.965,1.678s-.91-2.072-1.2-3a4.793,4.793,0,0,1,0-3.2C165.787,13.572,165.332,11.376,166.056,9.421Z" transform="translate(-63.232 -0.105)" fill="#12263f"/>
        <path id="Trazado_117223" data-name="Trazado 117223" d="M168.978,31.873c0-.532-.5-1.837-1.021-1.954-1.379-.318-3.944-.373-4.206,3.211-.365,4.9,4.62,4.247,4.641,4.109S168.854,33.724,168.978,31.873Z" transform="translate(-62.838 -9.207)" fill="#ffc4a3"/>
        <path id="Trazado_117224" data-name="Trazado 117224" d="M167.581,35.963a1.528,1.528,0,0,1-.234.111.84.84,0,0,1-.641,0,2.073,2.073,0,0,1-.862-2,2.9,2.9,0,0,1,.324-1.209,1,1,0,0,1,.69-.608.441.441,0,0,1,.49.269c.055.145,0,.242.041.249s.11-.069.083-.276a.546.546,0,0,0-.166-.325.648.648,0,0,0-.462-.159,1.207,1.207,0,0,0-.945.691,2.911,2.911,0,0,0-.4,1.34,2.232,2.232,0,0,0,1.09,2.21.923.923,0,0,0,.786-.076C167.568,36.08,167.6,35.977,167.581,35.963Z" transform="translate(-63.385 -9.899)" fill="#ffa275"/>
        <path id="Trazado_117225" data-name="Trazado 117225" d="M159.75,18.651a4.364,4.364,0,0,1-.145-1.471,10.77,10.77,0,0,1,2.441-6.644A4.623,4.623,0,0,1,163.115,9.5a16.227,16.227,0,0,0-2.551,4.268,16.231,16.231,0,0,0-.814,4.883Z" transform="translate(-61.553 -2.932)" fill="#a7e446"/>
        <path id="Trazado_117226" data-name="Trazado 117226" d="M191.89,4.7c.393,2.01,3.351,4.655,4.641,6.216,2.455,3.039,2.924,4.04,2.71,10.663a13.962,13.962,0,0,0,2.227-7.058,10.693,10.693,0,0,0-2.607-7.079,8.269,8.269,0,0,0-6.937-2.762" transform="translate(-71.578 -1.43)" fill="#12263f"/>
        <path id="Trazado_117227" data-name="Trazado 117227" d="M155.56,18.305a10.824,10.824,0,0,1,1.214.29,14.269,14.269,0,0,0,3.31.532,6.687,6.687,0,0,0,2.255-.352,4.634,4.634,0,0,0,2.117-1.436,18.31,18.31,0,0,0,1.317-2.631,3.966,3.966,0,0,1,2.62-1.906c1.138-.214,2.22.076,3.158-.2a3.7,3.7,0,0,0,1.958-1.948,7.374,7.374,0,0,1,1.662-2.169,6.624,6.624,0,0,1,2.069-1.174,6.321,6.321,0,0,1,3.393-.256,4.23,4.23,0,0,1,.89.269c.193.083.3.131.29.145a10.1,10.1,0,0,0-1.2-.276,6.549,6.549,0,0,0-3.282.352,6.315,6.315,0,0,0-1.958,1.167,6.96,6.96,0,0,0-1.565,2.072,7.531,7.531,0,0,1-.821,1.236,2.758,2.758,0,0,1-1.331.884c-1.069.3-2.165,0-3.179.214a3.641,3.641,0,0,0-2.393,1.733A14.253,14.253,0,0,1,164.7,17.5a4.827,4.827,0,0,1-2.276,1.526,6.928,6.928,0,0,1-2.358.325,13.25,13.25,0,0,1-3.344-.649l-.862-.269a1.3,1.3,0,0,1-.3-.131Z" transform="translate(-60.3 -2.137)" fill="#dff7f9"/>
        <path id="Trazado_117228" data-name="Trazado 117228" d="M148.19,6.927a1.372,1.372,0,0,1,.234-.414,3.18,3.18,0,0,1,1.014-.836,4.091,4.091,0,0,1,1.883-.477,4.773,4.773,0,0,1,2.289.615,7.061,7.061,0,0,1,2.834,3.142,5.44,5.44,0,0,1,.579,1.63c-.055,0-.3-.608-.814-1.533A7.406,7.406,0,0,0,153.452,6.1a4.718,4.718,0,0,0-2.124-.6,4.132,4.132,0,0,0-1.758.373,5.476,5.476,0,0,0-1.379,1.05Z" transform="translate(-58.013 -1.602)" fill="#dff7f9"/>
        <path id="Trazado_117229" data-name="Trazado 117229" d="M151.154,15.654a2.4,2.4,0,0,1-.759-1.236,5.062,5.062,0,0,1,.207-3.453A8.044,8.044,0,0,1,152.671,8.2a4.359,4.359,0,0,1,1.172-.843,8.518,8.518,0,0,1-.993,1.029,9.116,9.116,0,0,0-1.945,2.762,5.277,5.277,0,0,0-.3,3.274,11.625,11.625,0,0,0,.545,1.229Z" transform="translate(-58.633 -2.27)" fill="#dff7f9"/>
        <path id="Trazado_117230" data-name="Trazado 117230" d="M29.741,233.6l9.171-1.83,4.372,13.439L30.837,246.3,26.5,242.848Z" transform="translate(-20.238 -71.699)" fill="#ffc4a3"/>
        <path id="Trazado_117231" data-name="Trazado 117231" d="M30.012,247.681l-.972.131s-4.572,17.12-7.682,17.694L17.42,233.151,28.4,232.26A18.4,18.4,0,0,0,30.012,247.681Z" transform="translate(-17.42 -71.851)" fill="#a7e446"/>
        <g id="Grupo_80393" data-name="Grupo 80393" transform="translate(5.423 163.327)" opacity="0.6">
          <path id="Trazado_117232" data-name="Trazado 117232" d="M27.743,237.269a1.378,1.378,0,0,0-1.641-.725,1.285,1.285,0,0,0-.752,1.6,1.427,1.427,0,0,0,1.745.76,1.327,1.327,0,0,0,.593-1.754" transform="translate(-25.285 -236.485)" fill="#5e9540"/>
        </g>
        <g id="Grupo_80394" data-name="Grupo 80394" transform="translate(0.001 161.086)" opacity="0.6">
          <path id="Trazado_117233" data-name="Trazado 117233" d="M17.42,233.454l2.641-.214,2.807,31.078s-.462,1.512-1.51,1.478Z" transform="translate(-17.42 -233.24)" fill="#5e9540"/>
        </g>
        <path id="Trazado_117234" data-name="Trazado 117234" d="M33.147,253.773c-.159,0-.331-.773-.938-1.485s-1.331-1.05-1.29-1.2,1,0,1.724.849S33.3,253.773,33.147,253.773Z" transform="translate(-21.609 -77.66)" fill="#5e9540"/>
        <path id="Trazado_117235" data-name="Trazado 117235" d="M31.454,259.261c-.152.055-.51-.594-1.255-1.05s-1.476-.525-1.489-.691.883-.373,1.793.207S31.606,259.241,31.454,259.261Z" transform="translate(-20.924 -79.611)" fill="#5e9540"/>
        <path id="Trazado_117236" data-name="Trazado 117236" d="M27.049,263.514c-.048-.138.724-.456,1.648-.159s1.379.994,1.241,1.077-.648-.318-1.379-.552S27.084,263.666,27.049,263.514Z" transform="translate(-20.408 -81.433)" fill="#5e9540"/>
        <path id="Trazado_117237" data-name="Trazado 117237" d="M187.25,289.032l1.041-9.448,14.323-.124-2.751,12.4-4.662,3.149Z" transform="translate(-70.138 -86.454)" fill="#ffc4a3"/>
        <path id="Trazado_117238" data-name="Trazado 117238" d="M200.092,293.753l-.179.981s15.171,9.669,14.75,12.866l-32.472-6.1,2.5-10.912A18.618,18.618,0,0,0,200.092,293.753Z" transform="translate(-68.568 -89.897)" fill="#a7e446"/>
        <g id="Grupo_80395" data-name="Grupo 80395" transform="translate(117.547 204.83)" opacity="0.6">
          <path id="Trazado_117239" data-name="Trazado 117239" d="M189.087,296.58a1.381,1.381,0,0,0-1.207,1.381,1.3,1.3,0,0,0,1.317,1.215,1.45,1.45,0,0,0,1.269-1.457,1.379,1.379,0,0,0-1.5-1.112" transform="translate(-187.88 -296.58)" fill="#5e9540"/>
        </g>
        <g id="Grupo_80396" data-name="Grupo 80396" transform="translate(113.623 208.98)" opacity="0.6">
          <path id="Trazado_117240" data-name="Trazado 117240" d="M182.19,305.214l.6-2.624,30.9,6.8s1.331.912.972,1.92Z" transform="translate(-182.19 -302.59)" fill="#5e9540"/>
        </g>
        <path id="Trazado_117241" data-name="Trazado 117241" d="M206.514,296.642c-.034.166-.841.09-1.717.463s-1.421.967-1.558.877.283-.981,1.379-1.381S206.6,296.5,206.514,296.642Z" transform="translate(-75.093 -91.695)" fill="#5e9540"/>
        <path id="Trazado_117242" data-name="Trazado 117242" d="M211.429,299.7c0,.166-.731.311-1.379.891s-.952,1.278-1.11,1.236-.09-.967.752-1.671S211.456,299.55,211.429,299.7Z" transform="translate(-76.849 -92.682)" fill="#5e9540"/>
        <path id="Trazado_117243" data-name="Trazado 117243" d="M214.212,305.14c-.152,0-.221-.843.352-1.651s1.379-1.022,1.421-.87-.5.532-.965,1.2S214.371,305.154,214.212,305.14Z" transform="translate(-78.475 -93.604)" fill="#5e9540"/>
        <path id="Trazado_117244" data-name="Trazado 117244" d="M208.089,118.867,211.647,115h4.137a24.735,24.735,0,0,0,3.572,1.064,1.084,1.084,0,0,1-.738.939s1.455,0,1.786.442-.207,1.381-.69,1.913a4.15,4.15,0,0,1,.152,1.34,2.205,2.205,0,0,1-.483,1.264l-.821.428a1.009,1.009,0,0,1,.283,1.14,3.251,3.251,0,0,1-1.179,1.181s.759.283.531.87-.428.87-.9,1.05a25.9,25.9,0,0,1-5.868.594c-.965-.221-5.006-1.775-5.006-1.775Z" transform="translate(-76.088 -35.572)" fill="#ffc4a3"/>
        <path id="Trazado_117245" data-name="Trazado 117245" d="M219.269,130.024a4.82,4.82,0,0,1-1.489-.048,11.712,11.712,0,0,1-1.579-.338,1.675,1.675,0,0,1-.876-.49,1,1,0,0,1-.11-1.05,1.145,1.145,0,0,1,.9-.6,3.043,3.043,0,0,1,.993.09c.593.138,1.11.29,1.545.435a5.305,5.305,0,0,1,1.379.573,11.388,11.388,0,0,1-1.421-.387c-.434-.124-.958-.256-1.545-.373a2.968,2.968,0,0,0-.89-.076.855.855,0,0,0-.69.456.726.726,0,0,0,.076.773,1.379,1.379,0,0,0,.724.407,13.075,13.075,0,0,0,1.531.387C218.7,129.948,219.269,129.982,219.269,130.024Z" transform="translate(-78.787 -39.436)" fill="#ffa275"/>
        <path id="Trazado_117246" data-name="Trazado 117246" d="M223.095,120.5c0,.041-.621-.062-1.621-.138a16.856,16.856,0,0,0-1.752-.055,7.51,7.51,0,0,0-1.034.048,1.729,1.729,0,0,1-1.165-.256.774.774,0,0,1-.324-.546.975.975,0,0,1,.145-.58,1.482,1.482,0,0,1,.917-.608,5.591,5.591,0,0,1,.952-.131l.821-.069a8.991,8.991,0,0,1,1.627-.076,9.78,9.78,0,0,1-1.607.269c-.49.076-1.11.1-1.717.249a1.179,1.179,0,0,0-.738.5.553.553,0,0,0,.11.773,1.5,1.5,0,0,0,.965.2h1.048a15.981,15.981,0,0,1,1.779.117,6.3,6.3,0,0,1,1.593.3Z" transform="translate(-79.434 -36.524)" fill="#ffa275"/>
        <path id="Trazado_117247" data-name="Trazado 117247" d="M221.547,123.984c0,.041-.469-.048-1.214-.1a12.622,12.622,0,0,1-2.938-.394,7.172,7.172,0,0,1-.834-.242.766.766,0,0,1-.352-.311.981.981,0,0,1-.1-.394.83.83,0,0,1,.034-.387,1.384,1.384,0,0,1,.159-.318,1.552,1.552,0,0,1,.462-.442,1.75,1.75,0,0,1,.876-.283.634.634,0,0,1,.338.055,2.356,2.356,0,0,0-1.09.387,1.511,1.511,0,0,0-.379.4,1.6,1.6,0,0,0-.124.269.692.692,0,0,0,0,.29.981.981,0,0,0,.083.3.434.434,0,0,0,.228.18,6.73,6.73,0,0,0,.786.221,16.441,16.441,0,0,0,2.882.47,3.444,3.444,0,0,1,1.186.29Z" transform="translate(-79.093 -37.464)" fill="#ffa275"/>
        <path id="Trazado_117248" data-name="Trazado 117248" d="M220.513,127.572a11.307,11.307,0,0,1-1.7-.359l-1.827-.456a4.134,4.134,0,0,1-1.09-.373,1.063,1.063,0,0,1-.434-.47.692.692,0,0,1,0-.691,1.337,1.337,0,0,1,1.117-.594h1.138a14.97,14.97,0,0,1,1.9.2,7.635,7.635,0,0,1,1.234.325c.29.1.434.18.428.2s-.641-.186-1.7-.332c-.531-.069-1.165-.117-1.876-.138h-1.1a1.048,1.048,0,0,0-.883.449.587.587,0,0,0,.3.787,3.947,3.947,0,0,0,1.007.352l1.807.518a11.023,11.023,0,0,1,1.676.58Z" transform="translate(-78.866 -38.551)" fill="#ffa275"/>
        <path id="Trazado_117249" data-name="Trazado 117249" d="M221.743,117.908a6.411,6.411,0,0,1-2.848.352l-.586-.048-.276-.048h-.159a5.059,5.059,0,0,1-.738.49,1.7,1.7,0,0,1-.807.262c0-.041.283-.159.69-.428a6.609,6.609,0,0,0,.69-.546.427.427,0,0,1,.172-.062h.441a2.665,2.665,0,0,1,.565.041h2a4.637,4.637,0,0,1,.855-.014Z" transform="translate(-79.165 -36.464)" fill="#ffa275"/>
        <path id="Trazado_117250" data-name="Trazado 117250" d="M215.593,121.454a5.169,5.169,0,0,0,.138-.511,9.5,9.5,0,0,0,.152-1.257,2.58,2.58,0,0,0-.186-1.209c-.131-.29-.283-.442-.248-.47s.234.083.427.38a2.143,2.143,0,0,1,.3,1.312,4.716,4.716,0,0,1-.248,1.3C215.827,121.351,215.62,121.51,215.593,121.454Z" transform="translate(-78.889 -36.501)" fill="#ffa275"/>
        <path id="Trazado_158883" data-name="Trazado 158883" d="M5.226.365,34.238.387a4.973,4.973,0,0,1,4.967,4.968l.015,19.638a4.955,4.955,0,0,1-4.96,4.961L5.248,29.932A4.973,4.973,0,0,1,.281,24.964L.267,5.326A4.955,4.955,0,0,1,5.226.365Z" transform="matrix(0.753, 0.658, -0.658, 0.753, 63.517, 91.356)" fill="#feca2e"/>
        <path id="Trazado_117251" data-name="Trazado 117251" d="M41.12,208.424s27.611-10.2,36.231-12.272c3.538-.849,13.792-3.515,13.792-3.515l14.6-36.326,21.984,17.535s-19.522,35.125-23.666,38.5-62.29,10.877-62.29,10.877Z" transform="translate(-24.777 -48.353)" fill="#fc4b52"/>
        <path id="Trazado_117252" data-name="Trazado 117252" d="M130.84,171.41a30.867,30.867,0,0,0,7.116,8.584c4.6,3.826,11.9,8.619,11.9,8.619l1.262-2.21Z" transform="translate(-52.628 -53.024)" fill="#c93c41" opacity="0.3"/>
        <path id="Trazado_117253" data-name="Trazado 117253" d="M193.142,186.911c-2.22-4.7-9.061-13.93-15.129-21.174L157.9,143.54l-29.928-1.16s-7.13,17.065,5.951,25.173c0,0,11.033,8.025,18.336,11.568,9.22,6.216,18.763,12.811,18.763,12.811s-.883,14.206-1.165,20.629c-.372,7.811-2.379,25.767-2.455,26.333l15.378,2.624S194.8,190.419,193.142,186.911Z" transform="translate(-51.136 -44.044)" fill="#fc4b52"/>
        <path id="Trazado_117255" data-name="Trazado 117255" d="M165.117,194.281a3.193,3.193,0,0,1-.428-.269l-1.193-.836c-1.034-.691-2.545-1.727-4.427-2.949-3.765-2.445-9.082-5.642-14.991-9.123-2.944-1.747-5.765-3.4-8.24-5.062a31.4,31.4,0,0,1-6.041-5.111,15.707,15.707,0,0,1-2.841-4.51,11.516,11.516,0,0,1-.455-1.381,2.613,2.613,0,0,1-.11-.49c.041,0,.2.691.69,1.816a16.577,16.577,0,0,0,2.91,4.4,32.061,32.061,0,0,0,6.027,5c2.476,1.637,5.3,3.28,8.275,5.028,5.9,3.453,11.206,6.72,14.943,9.22,1.869,1.25,3.358,2.3,4.372,3.046l1.152.877a2.152,2.152,0,0,1,.359.345Z" transform="translate(-51.246 -50.902)" fill="#c93c41"/>
        <path id="Trazado_117256" data-name="Trazado 117256" d="M103.87,148a19.605,19.605,0,0,1-1.889,2.479c-1.214,1.492-2.917,3.536-4.827,5.78s-3.641,4.254-4.91,5.7l-1.51,1.671a3.721,3.721,0,0,1-.593.594,3.59,3.59,0,0,1,.49-.691l1.434-1.775c1.221-1.485,2.931-3.522,4.827-5.767s3.634-4.254,4.9-5.711l1.5-1.706.421-.463C103.835,148,103.835,148,103.87,148Z" transform="translate(-39.993 -45.782)" fill="#cba124"/>
        <path id="Trazado_117257" data-name="Trazado 117257" d="M118.2,174.418a3.936,3.936,0,0,1-.745-.518l-1.938-1.526c-1.634-1.3-3.862-3.122-6.317-5.138a71.313,71.313,0,0,1-6.061-5.463c-.731-.746-1.3-1.381-1.7-1.8a4.979,4.979,0,0,1-.572-.691,4.29,4.29,0,0,1,.69.6l1.772,1.72c1.5,1.436,3.627,3.377,6.1,5.359s4.668,3.874,6.254,5.221l1.869,1.616a4.609,4.609,0,0,1,.641.622Z" transform="translate(-43.324 -49.272)" fill="#cba124"/>
        <path id="Trazado_117258" data-name="Trazado 117258" d="M184.509,116.09l14.716,2.583-2.007,8.978s-16.253-1.651-18.57-2.113-2.338-4.261-2.338-4.261Z" transform="translate(-66.742 -35.909)" fill="#e8e8e8"/>
        <path id="Trazado_117259" data-name="Trazado 117259" d="M170.745,60.753,152.389,55.09S134.156,69.061,134.7,69.1c4.91.311,3.813,24.172,3.813,24.172l-8.461,13.985c-2.351,3.239-4.827,3.916-1.986,8.419L163,120.381l5.31-15.988s7.006-13.681,7.42-20.421S170.745,60.753,170.745,60.753Z" transform="translate(-51.372 -17.038)" fill="#e8e8e8"/>
        <path id="Trazado_117260" data-name="Trazado 117260" d="M164.96,53.348l2.358-2.928,15.453,6.561-.138,2.7-3.255,2.362Z" transform="translate(-63.218 -15.592)" fill="#e8e8e8"/>
        <path id="Trazado_117261" data-name="Trazado 117261" d="M190.579,105.83a.968.968,0,0,1-.083.318c-.076.242-.172.532-.29.884-.255.773-.648,1.878-1.145,3.246-.986,2.762-2.407,6.471-4.006,10.6l-4.137,10.566-1.255,3.2-.352.87c-.09.193-.138.3-.152.29a1.568,1.568,0,0,1,.083-.318q.11-.366.29-.891c.262-.767.648-1.872,1.145-3.239.986-2.728,2.407-6.478,4.006-10.608l4.137-10.56,1.262-3.2c.145-.338.262-.628.359-.863S190.566,105.823,190.579,105.83Z" transform="translate(-67.626 -32.735)" fill="#afafaf"/>
        <path id="Trazado_117262" data-name="Trazado 117262" d="M182.964,58.085a3.164,3.164,0,0,1-.407.794q-.64,1.021-1.379,1.975l-1.021,1.326c-.283.428-.91,1.209-1.758.808-1.159-.767-2.351-1.6-3.641-2.486-2.565-1.768-4.868-3.384-6.53-4.572l-1.958-1.381a4.678,4.678,0,0,1-.69-.559,4.184,4.184,0,0,1,.772.442l2.02,1.326c1.7,1.133,4.027,2.721,6.592,4.489l3.593,2.479a.5.5,0,0,0,.365.083,1.716,1.716,0,0,0,.407-.159.821.821,0,0,0,.31-.262l.283-.359c.379-.463.731-.891,1.055-1.3.648-.787,1.158-1.43,1.489-1.892a5.713,5.713,0,0,1,.5-.753Z" transform="translate(-63.411 -16.696)" fill="#afafaf"/>
        <g id="Grupo_80397" data-name="Grupo 80397" transform="translate(75.93 51.651)" opacity="0.3">
          <path id="Trazado_117263" data-name="Trazado 117263" d="M127.53,116l1.034,1.885c18.963-7.9,31.569-24.724,41.72-43.1A378.1,378.1,0,0,1,127.53,116Z" transform="translate(-127.53 -74.78)" fill="#afafaf"/>
        </g>
        <path id="Trazado_117264" data-name="Trazado 117264" d="M164.579,65.16a2.682,2.682,0,0,0-1.007.691c-3.944,4.675-26.383,29.04-40.623,39.869L105.62,117.944l4.048,4.185s28.625-21.167,39.616-32.3a153.624,153.624,0,0,0,16.481-20.677Z" transform="translate(-44.798 -20.153)" fill="#feca2e"/>
        <path id="Trazado_117265" data-name="Trazado 117265" d="M136.76,119.345s.821,4.026,1.772,4.834c0,0,7.185,7.327,7.53,7.631s1.469.808,2.02.449a1.741,1.741,0,0,0,.572-1.257s1.807,1.064,2.551.573a1.023,1.023,0,0,0,.455-1.209s1.379.608,2.172-.256a2.717,2.717,0,0,0,.559-2.148s1.186.822,1.834.048a4.265,4.265,0,0,0,.69-2.12h0l-1.076-1.685s-2.986-3.633-3.9-4.634-6.517-1.851-8.041-2.245-3.365-5.428-3.365-5.428Z" transform="translate(-54.464 -34.614)" fill="#ffc4a3"/>
        <path id="Trazado_117266" data-name="Trazado 117266" d="M127.945,107.4l7.461-9.082-9.882-12.908c-2.393-4.834-1.379-4.454-1.379-4.454a44.952,44.952,0,0,1,7.937-3.349,65.118,65.118,0,0,0,10.309-4.731s7.992-3.495,9.413-5.953,1.655-7.721-1.1-9.9a10.736,10.736,0,0,0-2.689-1.865c-3.165-1.043-5.958-.518-8.965.939-4.737,2.3-12.757,6.216-13.916,6.72,0,0-14.854,7.272-16.35,8.522-3.662,3.053-4.427,6.409-.848,12.307C111.347,89.251,127.945,107.4,127.945,107.4Z" transform="translate(-44.796 -16.888)" fill="#e8e8e8"/>
        <path id="Trazado_117267" data-name="Trazado 117267" d="M136.782,121.963c.041.041-.228.249-.221.691a.919.919,0,0,0,.29.691.807.807,0,0,0,1.262-.622.864.864,0,0,0-.345-.628c-.352-.29-.69-.2-.69-.256s.331-.249.827.041a1.1,1.1,0,0,1,.531.815,1.119,1.119,0,0,1-1.814.9,1.113,1.113,0,0,1-.317-.919C136.348,122.074,136.782,121.915,136.782,121.963Z" transform="translate(-54.322 -37.653)" fill="#afafaf"/>
        <path id="Trazado_117268" data-name="Trazado 117268" d="M130.205,91.527a3.458,3.458,0,0,0-.31-1.264,8.621,8.621,0,0,0-4.137-4.565,3.445,3.445,0,0,0-1.227-.428,10.771,10.771,0,0,1,5.675,6.257Z" transform="translate(-50.668 -26.374)" fill="#afafaf"/>
        <path id="Trazado_117269" data-name="Trazado 117269" d="M132.935,98.06a1.553,1.553,0,0,1,.234.256l.614.767,2.227,2.88,7.344,9.669.083.111-.09.11-.9,1.091-6.586,7.963-.11.138-.117-.131-4.006-4.406-1.1-1.222a2.23,2.23,0,0,1-.365-.463,3.9,3.9,0,0,1,.428.4l1.158,1.188,4.1,4.323h-.228l6.544-8,.9-1.091v.221l-7.247-9.765-2.138-2.942-.565-.808A1.223,1.223,0,0,1,132.935,98.06Z" transform="translate(-52.419 -30.331)" fill="#afafaf"/>
        <path id="Trazado_117270" data-name="Trazado 117270" d="M149.387,82.52a3.314,3.314,0,0,1-.69.332l-1.827.808L140.891,86.3c-2.351,1.036-4.5,1.934-6.089,2.521-.786.3-1.427.525-1.883.691a2.472,2.472,0,0,1-.69.186,3.349,3.349,0,0,1,.69-.318l1.841-.773c1.552-.649,3.682-1.582,6.034-2.617s4.489-1.954,6.061-2.569c.786-.311,1.427-.552,1.876-.691a2.81,2.81,0,0,1,.655-.214Z" transform="translate(-53.059 -25.524)" fill="#afafaf"/>
        <path id="Trazado_117271" data-name="Trazado 117271" d="M168.536,64.643c-.1,0,.131-.994.131-2.562a7.794,7.794,0,0,0-.5-2.686,6.837,6.837,0,0,0-1.9-2.693,8.715,8.715,0,0,0-5.62-2.017,14.338,14.338,0,0,0-2.531.283,1.915,1.915,0,0,1,.648-.256,7.816,7.816,0,0,1,1.883-.283,9.261,9.261,0,0,1,2.8.352,8.127,8.127,0,0,1,3.055,1.644,6.906,6.906,0,0,1,1.979,2.859,7.537,7.537,0,0,1,.441,2.8,10.656,10.656,0,0,1-.214,1.885,3.29,3.29,0,0,1-.166.677Z" transform="translate(-61.092 -16.831)" fill="#afafaf"/>
        <g id="Grupo_80398" data-name="Grupo 80398" transform="translate(116.415 80.305)" opacity="0.3">
          <path id="Trazado_117272" data-name="Trazado 117272" d="M190.074,116.27c-1.172,3.066-2.979,6.837-3.834,10.007a12.649,12.649,0,0,0,3.834-10.007Z" transform="translate(-186.24 -116.27)" fill="#afafaf"/>
        </g>
        <g id="Grupo_80399" data-name="Grupo 80399" transform="translate(105.459 39.986)" opacity="0.3">
          <path id="Trazado_117273" data-name="Trazado 117273" d="M181.563,63.139c-.172.186-.421.732-.69.8a3.279,3.279,0,0,1-2.069-.615,37.824,37.824,0,0,0-8.454-5.435l1.152.87a53.353,53.353,0,0,0,7.827,6.7,3.983,3.983,0,0,0,.952.414c.352,0,1.221,0,1.455-.5a38.345,38.345,0,0,0,1.917-5.117A33.5,33.5,0,0,1,181.563,63.139Z" transform="translate(-170.35 -57.89)" fill="#afafaf"/>
        </g>
        <path id="Trazado_117274" data-name="Trazado 117274" d="M117.16,137.188a8.96,8.96,0,0,1-.91.787c-.6.49-1.476,1.188-2.565,2.072s-2.4,1.858-3.91,2.9a21.708,21.708,0,0,1-2.469,1.506,3.712,3.712,0,0,1-1.524.428,2.2,2.2,0,0,1-1.545-.594,3.083,3.083,0,0,1-.834-3.011A4.4,4.4,0,0,1,105.244,139c1.531-1.015,2.827-2.017,3.951-2.832s2.014-1.478,2.648-1.927a6.774,6.774,0,0,1,1.014-.649,9.994,9.994,0,0,1-.931.767l-2.579,2.01c-1.1.843-2.393,1.878-3.91,2.9a4.142,4.142,0,0,0-1.7,2.072,2.765,2.765,0,0,0,.738,2.659,1.888,1.888,0,0,0,1.3.5,3.389,3.389,0,0,0,1.379-.387,21.852,21.852,0,0,0,2.434-1.464c1.51-1.015,2.834-2,3.944-2.825l2.627-1.954a6.9,6.9,0,0,1,1-.677Z" transform="translate(-44.078 -41.324)" fill="#cba124"/>
        <path id="Trazado_117275" data-name="Trazado 117275" d="M222.813,207.306c0,.111-2.289.449-4.944,1.478s-4.606,2.3-4.668,2.2a5.33,5.33,0,0,1,1.234-.9,19.618,19.618,0,0,1,3.3-1.63,20.014,20.014,0,0,1,3.551-1A4.937,4.937,0,0,1,222.813,207.306Z" transform="translate(-78.193 -64.127)" fill="#1e2e34"/>
        <path id="Trazado_117276" data-name="Trazado 117276" d="M132.989,215.676c-.1.041-.745-1.575-1.7-3.453s-1.848-3.391-1.765-3.453a19.348,19.348,0,0,1,3.448,6.906Z" transform="translate(-52.219 -64.583)" fill="#c93c41"/>
      </g>
      <path id="Trazado_117031" data-name="Trazado 117031" d="M435.81,175.038a15.95,15.95,0,0,1,3.919-1.729l.806-3.884,6.548-.115.944,3.855A16.029,16.029,0,0,1,452,174.727l3.337-2.138,4.713,4.558L458,180.536a16,16,0,0,1,1.726,3.924l3.878.807.115,6.558-3.9.934a15.994,15.994,0,0,1-1.559,3.982l2.169,3.314-4.551,4.72-3.383-2.057a15.738,15.738,0,0,1-3.919,1.729l-.806,3.884-6.548.115-.944-3.849a16.184,16.184,0,0,1-3.976-1.567l-3.309,2.173-4.7-4.581,2.054-3.388a16,16,0,0,1-1.726-3.924l-3.878-.807-.115-6.558,3.844-.945a16.329,16.329,0,0,1,1.565-3.982L427.87,177.7l4.551-4.72,3.383,2.057Zm3.493,8.736a7.031,7.031,0,1,0,9.937-.173A7.044,7.044,0,0,0,439.3,183.774Z" transform="translate(-177.719 -163.33)" fill="#feca2e"/>
      <g id="Grupo_80406" data-name="Grupo 80406" transform="translate(112.948 77.611)">
        <path id="Trazado_117041" data-name="Trazado 117041" d="M265.025,184.71c0,.1-7.668.18-17.122.18s-17.122-.076-17.122-.18,7.661-.18,17.122-.18S265.025,184.613,265.025,184.71Z" transform="translate(-230.78 -82.467)" fill="#1e2e34"/>
        <path id="Trazado_117042" data-name="Trazado 117042" d="M281.523,178.82c0,.1-7.3.18-16.3.18s-16.3-.083-16.3-.18,7.3-.18,16.3-.18S281.523,178.716,281.523,178.82Z" transform="translate(-236.411 -80.645)" fill="#1e2e34"/>
        <path id="Trazado_117127" data-name="Trazado 117127" d="M383.437,59.773a24.83,24.83,0,0,1-2.11-5.048,8.3,8.3,0,0,1,.283-5.373c.441-.974,1.138-1.83,1.483-2.838.476-1.381.283-3.032,1.145-4.227,1.345-1.858,4.22-1.43,6.3-2.4,1.621-.76,2.758-2.4,4.455-2.942a6.721,6.721,0,0,1,4.544.594,18.857,18.857,0,0,0,4.379,1.6,29.889,29.889,0,0,0,3.338,0,4.409,4.409,0,0,1,3.082,1.064,2.123,2.123,0,0,1,.1,2.977c1.952-.331,3.786,1.616,3.758,3.6a5.366,5.366,0,0,1-3.31,4.537,11.769,11.769,0,0,1-5.813.691c-5.579-.435-11.178-2.555-14.978-6.671" transform="translate(-277.414 -36.744)" fill="#12263f"/>
        <path id="Trazado_117128" data-name="Trazado 117128" d="M384.538,54.609l-3.8,27.625c-.641,4.7,5.2,13.322,9.916,13.736h0c4.406.387,5.917-2.762,6.51-7.175.283-2.072.524-8.129.572-8.336,0,0,7.116.3,8.578-6.588.69-3.336,1.607-10.318,2.351-16.644a13.119,13.119,0,0,0-10.461-14.4l-.69-.131C390.275,41.674,385.351,47.289,384.538,54.609Z" transform="translate(-277.315 -38.549)" fill="#ffc4a3"/>
        <path id="Trazado_117129" data-name="Trazado 117129" d="M401.6,95.441A16.99,16.99,0,0,1,393.14,91s1.331,5.794,8.337,6.547Z" transform="translate(-281.179 -53.53)" fill="#ffa275"/>
        <path id="Trazado_117130" data-name="Trazado 117130" d="M416.559,71.575a1.014,1.014,0,0,1-1.152.808.973.973,0,0,1-.841-1.1,1,1,0,0,1,1.152-.8.967.967,0,0,1,.841,1.091Z" transform="translate(-287.828 -47.178)" fill="#12263f"/>
        <path id="Trazado_117131" data-name="Trazado 117131" d="M416.373,67.6c-.152.1-.786-.594-1.848-.808s-1.945.166-2.034,0,.124-.276.517-.456a2.713,2.713,0,0,1,1.655-.166,2.661,2.661,0,0,1,1.441.8C416.38,67.305,416.442,67.561,416.373,67.6Z" transform="translate(-287.18 -45.83)" fill="#12263f"/>
        <path id="Trazado_117132" data-name="Trazado 117132" d="M401.891,69.025a1.007,1.007,0,0,1-1.152.808.953.953,0,0,1-.834-1.091,1,1,0,0,1,1.145-.808.96.96,0,0,1,.841,1.091Z" transform="translate(-283.276 -46.389)" fill="#12263f"/>
        <path id="Trazado_117133" data-name="Trazado 117133" d="M401.243,64.871c-.152.1-.786-.6-1.848-.808s-1.945.166-2.034,0,.124-.276.517-.456a2.755,2.755,0,0,1,1.655-.173,2.64,2.64,0,0,1,1.441.808C401.243,64.567,401.278,64.823,401.243,64.871Z" transform="translate(-282.483 -44.984)" fill="#12263f"/>
        <path id="Trazado_117134" data-name="Trazado 117134" d="M406.25,74.035a7.21,7.21,0,0,1,1.786,0c.276,0,.545,0,.628-.152a1.384,1.384,0,0,0,0-.843l-.393-2.224a30.666,30.666,0,0,1-.69-5.767,32.514,32.514,0,0,1,1.179,5.7c.124.774.241,1.519.352,2.231a1.59,1.59,0,0,1-.069,1.091.689.689,0,0,1-.524.3,1.715,1.715,0,0,1-.476,0A6.784,6.784,0,0,1,406.25,74.035Z" transform="translate(-285.249 -45.501)" fill="#12263f"/>
        <path id="Trazado_117135" data-name="Trazado 117135" d="M401.374,78.219c.179,0-.055,1.181.772,2.2s2.069,1.133,2.069,1.291-.317.173-.841.083a2.916,2.916,0,0,1-1.724-1.015,2.613,2.613,0,0,1-.572-1.823C401.112,78.454,401.3,78.2,401.374,78.219Z" transform="translate(-283.641 -49.575)" fill="#12263f"/>
        <path id="Trazado_117136" data-name="Trazado 117136" d="M402.328,59.01c-.165.269-1.193-.083-2.469-.18s-2.351.041-2.462-.256c-.048-.138.179-.373.641-.573a4.29,4.29,0,0,1,3.758.332C402.217,58.6,402.4,58.879,402.328,59.01Z" transform="translate(-282.499 -43.232)" fill="#12263f"/>
        <path id="Trazado_117137" data-name="Trazado 117137" d="M416.84,63.031c-.234.2-.917-.193-1.793-.38s-1.655-.166-1.772-.449c-.055-.138.11-.359.483-.525a2.68,2.68,0,0,1,2.876.691C416.9,62.658,416.944,62.928,416.84,63.031Z" transform="translate(-287.427 -44.409)" fill="#12263f"/>
        <path id="Trazado_117138" data-name="Trazado 117138" d="M383.206,67.276c-.11-.076-4.462-2.355-5.255,2.4s4.138,4.572,4.172,4.441S383.206,67.276,383.206,67.276Z" transform="translate(-276.438 -46)" fill="#ffc4a3"/>
        <path id="Trazado_117139" data-name="Trazado 117139" d="M381.521,72.733a2.234,2.234,0,0,1-.241.083.84.84,0,0,1-.621-.09,2.074,2.074,0,0,1-.641-2,2.633,2.633,0,0,1,.428-1.146.959.959,0,0,1,.731-.532.421.421,0,0,1,.448.3.431.431,0,0,1,0,.249c0,.014.11-.062.11-.269a.546.546,0,0,0-.138-.325.689.689,0,0,0-.441-.2,1.186,1.186,0,0,0-.986.594,2.9,2.9,0,0,0-.51,1.278,2.195,2.195,0,0,0,.869,2.258.916.916,0,0,0,.779,0C381.493,72.843,381.534,72.74,381.521,72.733Z" transform="translate(-276.987 -46.665)" fill="#ffa275"/>
        <path id="Trazado_117140" data-name="Trazado 117140" d="M411.291,50.362c-.814,1.733-4.992,2.424-8.075,1.512-2.834-.856-3.862-2.659-5.661-4.227-1.145-.994-1.145-.994-3-1.188-1.5-.152-2.71,1.347-3.848,2.341.634,3.778-1.048,7.521-2.682,10.988a1.92,1.92,0,0,1-.765.981c-.641.318-1.414-.186-1.8-.794a5.925,5.925,0,0,1-.69-3.336,19.811,19.811,0,0,1,1.572-7.659,13.489,13.489,0,0,1,4.965-5.953,12.775,12.775,0,0,1,9.475-1.568,15.718,15.718,0,0,1,8.275,4.979,9.271,9.271,0,0,1,2.227,3.923" transform="translate(-278.574 -38.107)" fill="#12263f"/>
        <path id="Trazado_117141" data-name="Trazado 117141" d="M409.227,69.006a8.865,8.865,0,0,1,.214-1.1,4.62,4.62,0,0,1,1.7-2.445,4.477,4.477,0,0,1,4.206-.608,4.418,4.418,0,0,1,0,8.315,4.477,4.477,0,0,1-4.206-.608,4.586,4.586,0,0,1-1.683-2.445c-.186-.691-.172-1.1-.214-1.1a.837.837,0,0,0,0,.3,3.628,3.628,0,0,0,.09.843,4.587,4.587,0,0,0,1.662,2.624,4.761,4.761,0,1,0,0-7.528,4.566,4.566,0,0,0-1.662,2.624,3.626,3.626,0,0,0-.09.843A.837.837,0,0,0,409.227,69.006Z" transform="translate(-286.171 -45.251)" fill="#fc4b52"/>
        <path id="Trazado_117142" data-name="Trazado 117142" d="M392.876,66.148a8.109,8.109,0,0,1,.221-1.1,4.587,4.587,0,0,1,1.683-2.445,4.428,4.428,0,0,1,6.248,6.14,4.324,4.324,0,0,1-2.069,1.547,4.442,4.442,0,0,1-4.2-.6,4.587,4.587,0,0,1-1.683-2.445c-.193-.691-.179-1.112-.221-1.1a1.071,1.071,0,0,0,0,.3,3.346,3.346,0,0,0,.1.843,4.552,4.552,0,0,0,1.662,2.624,4.761,4.761,0,1,0,0-7.535,4.566,4.566,0,0,0-1.662,2.624,3.462,3.462,0,0,0-.1.849,1.123,1.123,0,0,0,.021.311Z" transform="translate(-281.088 -44.362)" fill="#fc4b52"/>
        <path id="Trazado_117143" data-name="Trazado 117143" d="M406.348,68.307c.048.1.655-.186,1.379,0s1.048.78,1.145.691,0-.2-.138-.442a1.717,1.717,0,0,0-.9-.649,1.639,1.639,0,0,0-1.11.048C406.445,68.128,406.321,68.266,406.348,68.307Z" transform="translate(-285.278 -46.363)" fill="#fc4b52"/>
        <path id="Trazado_117144" data-name="Trazado 117144" d="M383.64,66.4a14.6,14.6,0,0,0,3.379.145,15.521,15.521,0,0,0,3.379-.235,14.6,14.6,0,0,0-3.379-.145,15.024,15.024,0,0,0-3.379.235Z" transform="translate(-278.231 -45.834)" fill="#fc4b52"/>
        <path id="Trazado_117145" data-name="Trazado 117145" d="M356.839,319,345.53,336.265l26.894,15.725c1.338-2.666-9.551-15.96-9.551-15.96l5.951-9.434Z" transform="translate(-266.4 -124.07)" fill="#fc4b52"/>
        <path id="Trazado_117146" data-name="Trazado 117146" d="M358.9,334.874a1.268,1.268,0,0,0-1.49.808,1.216,1.216,0,0,0,.786,1.485,1.338,1.338,0,0,0,1.572-.863,1.271,1.271,0,0,0-.986-1.457" transform="translate(-270.074 -128.971)" fill="#c93c41"/>
        <path id="Trazado_117147" data-name="Trazado 117147" d="M345.53,342.976l1.3-2.286,25.266,16.1s.883,1.222.248,1.982Z" transform="translate(-266.4 -130.78)" fill="#c93c41"/>
        <path id="Trazado_117148" data-name="Trazado 117148" d="M369.9,343.483c-.083.131-.772-.193-1.662-.152s-1.558.394-1.655.276.552-.767,1.634-.808S370,343.379,369.9,343.483Z" transform="translate(-272.934 -131.433)" fill="#c93c41"/>
        <path id="Trazado_117149" data-name="Trazado 117149" d="M373.183,347.72c-.048.145-.745.035-1.517.331s-1.241.808-1.379.691.221-.877,1.186-1.222S373.252,347.589,373.183,347.72Z" transform="translate(-274.077 -132.852)" fill="#c93c41"/>
        <path id="Trazado_117150" data-name="Trazado 117150" d="M373.982,353.339c-.138-.041.062-.808.821-1.333s1.538-.449,1.531-.3-.614.3-1.227.739S374.092,353.4,373.982,353.339Z" transform="translate(-275.22 -134.154)" fill="#c93c41"/>
        <path id="Trazado_117151" data-name="Trazado 117151" d="M372.449,338.275c-.124.083-.621-.449-1.379-.829s-1.483-.49-1.49-.642.827-.3,1.731.166S372.573,338.206,372.449,338.275Z" transform="translate(-273.865 -129.533)" fill="#c93c41"/>
        <path id="Trazado_117152" data-name="Trazado 117152" d="M374.042,331.915a3.063,3.063,0,0,1-1.338-.794,6.949,6.949,0,0,1-1.159-1.257,7.987,7.987,0,0,1-.531-.863,1.879,1.879,0,0,1-.221-.553.691.691,0,0,1,.345-.739.84.84,0,0,1,.752.041,1.986,1.986,0,0,1,.462.359,5.3,5.3,0,0,1,.69.78,5.529,5.529,0,0,1,.765,1.54,2.552,2.552,0,0,1,.152,1.561c-.083,0-.145-.58-.5-1.43a6.364,6.364,0,0,0-.8-1.381,6.546,6.546,0,0,0-.634-.691c-.241-.242-.483-.387-.634-.3-.048,0-.069.048-.055.166a1.53,1.53,0,0,0,.165.407,8.537,8.537,0,0,0,.469.822,8.883,8.883,0,0,0,1.014,1.257C373.6,331.514,374.09,331.846,374.042,331.915Z" transform="translate(-274.239 -126.742)" fill="#e1e1e1"/>
        <path id="Trazado_117153" data-name="Trazado 117153" d="M375.1,332.314c-.062,0-.048-.628.4-1.512a5.039,5.039,0,0,1,1.869-1.982,1.281,1.281,0,0,1,1.255-.18.691.691,0,0,1,.338.691,2.075,2.075,0,0,1-.145.573,3.685,3.685,0,0,1-.531.912,3.6,3.6,0,0,1-1.379,1.057c-.931.387-1.572.228-1.558.173a12.2,12.2,0,0,0,1.379-.511,3.573,3.573,0,0,0,1.165-1.015,3.136,3.136,0,0,0,.427-.794c.124-.311.152-.608,0-.642a.916.916,0,0,0-.724.166,5.309,5.309,0,0,0-.759.539,5.416,5.416,0,0,0-1.048,1.195C375.326,331.734,375.181,332.314,375.1,332.314Z" transform="translate(-275.57 -127.024)" fill="#e1e1e1"/>
        <path id="Trazado_117154" data-name="Trazado 117154" d="M254.992,324,241,339.09l23.908,19.959c1.765-2.4-6.779-17.321-6.779-17.321l7.441-8.287Z" transform="translate(-233.952 -125.617)" fill="#fc4b52"/>
        <path id="Trazado_117155" data-name="Trazado 117155" d="M255.586,339.194a1.268,1.268,0,0,0-1.607.552,1.223,1.223,0,0,0,.538,1.6,1.33,1.33,0,0,0,1.689-.594,1.264,1.264,0,0,0-.738-1.6" transform="translate(-237.946 -130.286)" fill="#c93c41"/>
        <path id="Trazado_117156" data-name="Trazado 117156" d="M241,344.922l1.662-2.072,22.253,20.131s.69,1.381-.083,2Z" transform="translate(-233.952 -131.449)" fill="#c93c41"/>
        <path id="Trazado_117157" data-name="Trazado 117157" d="M265.057,349.559c-.1.11-.731-.325-1.621-.428s-1.6.131-1.669,0,.69-.691,1.738-.525S265.168,349.449,265.057,349.559Z" transform="translate(-240.398 -133.22)" fill="#c93c41"/>
        <path id="Trazado_117158" data-name="Trazado 117158" d="M267.555,354.285c-.069.138-.738-.09-1.552.076s-1.379.594-1.469.49.366-.829,1.379-1.008S267.645,354.175,267.555,354.285Z" transform="translate(-241.254 -134.838)" fill="#c93c41"/>
        <path id="Trazado_117159" data-name="Trazado 117159" d="M267.338,359.945c-.124-.062.2-.78,1.034-1.167s1.593-.193,1.559-.055-.655.2-1.331.532S267.47,360.035,267.338,359.945Z" transform="translate(-242.121 -136.306)" fill="#c93c41"/>
        <path id="Trazado_117160" data-name="Trazado 117160" d="M268.46,344.73c-.138.062-.545-.546-1.241-1.05s-1.379-.732-1.379-.877.862-.159,1.676.449S268.591,344.681,268.46,344.73Z" transform="translate(-241.663 -131.408)" fill="#c93c41"/>
        <path id="Trazado_117161" data-name="Trazado 117161" d="M271.054,338.725c-.041.055-.559-.263-1.193-1a7.115,7.115,0,0,1-.931-1.43,7.221,7.221,0,0,1-.386-.939,2.131,2.131,0,0,1-.124-.587.691.691,0,0,1,.462-.691.826.826,0,0,1,.738.159,2.069,2.069,0,0,1,.393.435,4.871,4.871,0,0,1,.531.877,5.463,5.463,0,0,1,.5,1.644,2.607,2.607,0,0,1-.11,1.568c-.083,0-.048-.6-.255-1.5a6.6,6.6,0,0,0-.572-1.492,5.259,5.259,0,0,0-.51-.787c-.193-.276-.407-.456-.565-.4s-.076.041-.09.159a1.829,1.829,0,0,0,.1.428,8.376,8.376,0,0,0,1.117,2.3A11.646,11.646,0,0,1,271.054,338.725Z" transform="translate(-242.463 -128.726)" fill="#e1e1e1"/>
        <path id="Trazado_117162" data-name="Trazado 117162" d="M271.813,339.431c-.062,0,.055-.628.648-1.423a5.2,5.2,0,0,1,1.255-1.174,4.91,4.91,0,0,1,.91-.47,1.281,1.281,0,0,1,1.269,0,.746.746,0,0,1,.221.753,2.357,2.357,0,0,1-.241.546,3.719,3.719,0,0,1-.69.808,3.577,3.577,0,0,1-1.538.808c-.986.235-1.593-.035-1.565-.083a12.684,12.684,0,0,0,1.455-.276,3.529,3.529,0,0,0,1.317-.808,3.4,3.4,0,0,0,.559-.691c.172-.29.248-.573.131-.628a.9.9,0,0,0-.745.048,4.978,4.978,0,0,0-.841.4,5.869,5.869,0,0,0-1.227,1C272.131,338.927,271.889,339.466,271.813,339.431Z" transform="translate(-243.513 -129.39)" fill="#e1e1e1"/>
        <path id="Trazado_117163" data-name="Trazado 117163" d="M383.26,231.449c-1.414-2.072-3.317-4.689-5.827-7.742-4.3-5.228-10.44-11.782-13.061-14.5-2.862-3.543-10.626-14.544-13.268-17.569a51.871,51.871,0,0,0-8.84-7.535l-32.886,3.653-2.069,1.927c.441,2.659,1.821,11.05,4.765,14.883,3.6,4.655,13.04,13.211,17.688,14.565a79.785,79.785,0,0,1,8.7,3.2c5.213,3.612,22.563,15.7,23.922,17.659a.532.532,0,0,1,0,.691s-6.9,7.162-10.289,14.323c-4.02,8.453-13.274,27.542-13.274,27.542l16.495,8.439s21.053-34.054,23.839-38.315c1.1-1.678,3.22-5.843,4.965-9.379a11.818,11.818,0,0,0-.855-11.837Z" transform="translate(-254.537 -82.334)" fill="#12263f"/>
        <path id="Trazado_117164" data-name="Trazado 117164" d="M325.381,201.757l-24.246-8.377s.579,10.166,2.027,12.742l-15.316,33.84s-15.074,20.518-19.384,26.119c-5.592,7.258-14.743,22.355-14.743,22.355l13.405,9.779,33.224-39.634s3.676-1.6,5.013-3.75l25.19-31.306Z" transform="translate(-237.901 -85.205)" fill="#12263f"/>
        <path id="Trazado_117165" data-name="Trazado 117165" d="M462.379,119.021l-.552-4.7,2.655-3.253A25.547,25.547,0,0,0,467.7,109a1.21,1.21,0,0,1,.317,1.236s.91-1.174,1.524-1.1,1.021,1.119,1.179,1.851a4.64,4.64,0,0,1,1.221.808,2.418,2.418,0,0,1,.745,1.257l-.166.946a1.13,1.13,0,0,1,1.138.573,3.34,3.34,0,0,1,.221,1.74s.731-.4,1.083.186a1.59,1.59,0,0,1,.29,1.443,25.477,25.477,0,0,1-3.31,5.055c-.807.615-7.516,5.884-7.516,5.884l-5.82-6.112Z" transform="translate(-301.5 -59.099)" fill="#ffc4a3"/>
        <path id="Trazado_117166" data-name="Trazado 117166" d="M479.529,121.528a4.369,4.369,0,0,1-1.007,1.14,10.238,10.238,0,0,1-1.31,1.015,1.647,1.647,0,0,1-.979.352,1.124,1.124,0,0,1-.952-.635,1.176,1.176,0,0,1,.083-1.133,2.76,2.76,0,0,1,.69-.691,15,15,0,0,1,1.379-.925,5.388,5.388,0,0,1,1.379-.691s-.483.325-1.248.849c-.386.262-.834.58-1.317.96a2.761,2.761,0,0,0-.634.691.885.885,0,0,0-.062.849.841.841,0,0,0,.69.477,1.378,1.378,0,0,0,.814-.3,12.638,12.638,0,0,0,1.324-.939C479.1,121.921,479.495,121.5,479.529,121.528Z" transform="translate(-306.644 -62.49)" fill="#ffa275"/>
        <path id="Trazado_117167" data-name="Trazado 117167" d="M474.129,111.777s-.455.449-1.165,1.181a13.947,13.947,0,0,0-1.186,1.381c-.207.269-.414.546-.634.849a1.655,1.655,0,0,1-.965.753.875.875,0,0,1-.69-.124,1.1,1.1,0,0,1-.393-.518,1.487,1.487,0,0,1,.083-1.146,5.666,5.666,0,0,1,.5-.843l.476-.691a9.753,9.753,0,0,1,.993-1.34,9.272,9.272,0,0,1-.814,1.457c-.255.442-.634.953-.9,1.533a1.217,1.217,0,0,0-.062.932.627.627,0,0,0,.724.449,1.435,1.435,0,0,0,.793-.628c.214-.3.434-.587.655-.849a14.139,14.139,0,0,1,1.248-1.326A6,6,0,0,1,474.129,111.777Z" transform="translate(-304.733 -59.804)" fill="#ffa275"/>
        <path id="Trazado_117168" data-name="Trazado 117168" d="M476.039,115.86s-.345.338-.876.9a12.021,12.021,0,0,1-2.241,2.072,6.211,6.211,0,0,1-.738.483.778.778,0,0,1-.49.076,1.207,1.207,0,0,1-.4-.2,1.008,1.008,0,0,1-.3-.29,1.592,1.592,0,0,1-.159-.352,1.778,1.778,0,0,1-.076-.691,1.652,1.652,0,0,1,.338-.884c.138-.18.248-.242.262-.228a2.269,2.269,0,0,0-.386,1.126,1.432,1.432,0,0,0,.1.573,1.139,1.139,0,0,0,.145.29.785.785,0,0,0,.234.207,1.047,1.047,0,0,0,.31.145.455.455,0,0,0,.3-.055,6.123,6.123,0,0,0,.69-.47,16.326,16.326,0,0,0,2.269-1.954,3.221,3.221,0,0,1,1.021-.746Z" transform="translate(-305.272 -61.221)" fill="#ffa275"/>
        <path id="Trazado_117169" data-name="Trazado 117169" d="M478.307,118.339a10.478,10.478,0,0,1-1.379,1.1l-1.572,1.133a4.579,4.579,0,0,1-1.014.6,1.15,1.15,0,0,1-.69,0,.835.835,0,0,1-.545-.49,1.383,1.383,0,0,1,.228-1.3c.241-.338.5-.608.745-.891a14.635,14.635,0,0,1,1.379-1.381,7.306,7.306,0,0,1,1.076-.76,1.434,1.434,0,0,1,.441-.2c0,.041-.572.38-1.379,1.119a17.454,17.454,0,0,0-1.331,1.381,9.3,9.3,0,0,0-.69.87,1.079,1.079,0,0,0-.193,1.015.689.689,0,0,0,.862.3,4.192,4.192,0,0,0,.945-.546l1.614-1.077a10.754,10.754,0,0,1,1.5-.877Z" transform="translate(-305.98 -61.311)" fill="#ffa275"/>
        <path id="Trazado_117170" data-name="Trazado 117170" d="M471.151,110.65a6.247,6.247,0,0,1-1.565,2.493,5.021,5.021,0,0,1-.421.435c-.062.062-.159.131-.214.186l-.069.062a.157.157,0,0,0,0,.069,4.925,4.925,0,0,1-.062.925,1.583,1.583,0,0,1-.31.822,7.5,7.5,0,0,1,.1-.849,8.121,8.121,0,0,0,0-.932.409.409,0,0,1,.055-.186l.124-.124.2-.186c.138-.131.269-.276.4-.421a18.524,18.524,0,0,0,1.276-1.6A4.678,4.678,0,0,1,471.151,110.65Z" transform="translate(-304.576 -59.609)" fill="#ffa275"/>
        <path id="Trazado_117171" data-name="Trazado 117171" d="M469.763,119.867c-.041,0-.124-.193-.345-.463a11.817,11.817,0,0,0-.952-.995,2.958,2.958,0,0,0-1.138-.691c-.331-.1-.552-.083-.559-.131s.221-.131.6-.076a2.474,2.474,0,0,1,1.3.691,5.4,5.4,0,0,1,.931,1.1C469.79,119.611,469.8,119.86,469.763,119.867Z" transform="translate(-304.036 -61.726)" fill="#ffa275"/>
        <path id="Trazado_117172" data-name="Trazado 117172" d="M272.012,141.948a37.067,37.067,0,0,1,.3,5.808c-.228,1.319-1.641,5.38-1.441,7.21a1.1,1.1,0,0,1-1.745-.739,12.546,12.546,0,0,1-.241-5.041c.248-1.091-.593-1.174-1.207-.635s-4.138,4.876-4.138,4.876-3.234,5.525-4.055,5.635-1.1-.843-1.269-1.209,2.427-5.352,2.427-5.352l1.669-2.293s-5.689,6.851-6.572,6.906a.978.978,0,0,1-1.131-1.07c-.014-.525,2.531-3.522,2.531-3.522l3.131-4.268-7.054,7.01s-.752.573-1.29.062-.1-1.623-.1-1.623l6.654-7.866s-7.489,1.554-7.834,1.222-.731-.9-.324-1.119,8.275-3.453,8.275-3.453l6.827-5.145,1.8-1.381,5.717,4.834Z" transform="translate(-236.794 -67.439)" fill="#ffc4a3"/>
        <path id="Trazado_117173" data-name="Trazado 117173" d="M271.73,122.061,287.2,99.768a10.684,10.684,0,0,1,8.1-4.427l28.452-1.492s4.089-4.917,6.523-4.406,6.206,2.97,5.158,7.5-7.213,13.709-14.329,14.565l-23.894-.069L280.7,128.546Z" transform="translate(-243.491 -53.037)" fill="#636363"/>
        <path id="Trazado_117174" data-name="Trazado 117174" d="M350.55,184.893l13.978,4.427c1.807-1.913,6.572-12.68,6.572-12.68Z" transform="translate(-267.959 -80.025)" fill="#e8e8e8"/>
        <path id="Trazado_117175" data-name="Trazado 117175" d="M353.018,92.251l-15.9-1.671L328.6,110.048l-6.951,28.882s-23.191,14-27.714,20.028c-2.276,3.025,4.7,10.822,4.7,10.822s7.213,10.49,14.136,9.192,22.639-12.914,30.452-18.557c2.3-1.664,6.379-4.675,8.889-8.37a46.6,46.6,0,0,0,5.751-12.832Z" transform="translate(-250.243 -53.4)" fill="#636363"/>
        <path id="Trazado_117176" data-name="Trazado 117176" d="M394.39,104.05l7.1,8.4c.359.594-5.434,21.25-8.158,26.388-1.055,2-8.634,10.635-12.633,17.956V179.81l-9.875-12.949,1.517-2.224,9.53-21.257,12.923-15.138L394.4,114.43Z" transform="translate(-274.251 -57.567)" fill="#636363"/>
        <path id="Trazado_117177" data-name="Trazado 117177" d="M430.432,130.49l-17.605-10.856-1.379-3.453-8.668,25.159s25.149,6.216,30.114,4,19.57-15.449,19.57-15.449L443.5,121.47Z" transform="translate(-284.171 -61.32)" fill="#636363"/>
        <path id="Trazado_117178" data-name="Trazado 117178" d="M379.82,91.97l1.207-2.3a56.925,56.925,0,0,1,7.834,7.8,73.59,73.59,0,0,1,4.613,7.321l3.813-5.083.3,24.1-12.923,15.124-4.717-45.456Z" transform="translate(-277.045 -53.118)" fill="#e8e8e8"/>
        <path id="Trazado_117179" data-name="Trazado 117179" d="M378.449,137.686a2.237,2.237,0,0,1-.145-.449c-.1-.338-.214-.773-.365-1.312-.31-1.133-.793-2.762-1.421-4.772s-1.414-4.392-2.262-7.037-1.772-5.566-2.565-8.688a36.471,36.471,0,0,1-.917-4.62,11.487,11.487,0,0,1,.407-4.379,43.132,43.132,0,0,1,3.02-6.768,18.477,18.477,0,0,0,1.683-4.648c.048-.283.09-.539.131-.767s0-.4.041-.566a2.073,2.073,0,0,1,.062-.47,2.434,2.434,0,0,1,0,.47v.58c0,.221-.062.49-.1.78a17.34,17.34,0,0,1-1.593,4.731,45.7,45.7,0,0,0-2.931,6.74,11.322,11.322,0,0,0-.372,4.261,35.665,35.665,0,0,0,.917,4.565c.786,3.108,1.7,6.022,2.531,8.681s1.586,5.042,2.186,7.065,1.048,3.66,1.317,4.834c.145.573.234,1.022.3,1.326A2.119,2.119,0,0,1,378.449,137.686Z" transform="translate(-274.219 -54.213)" fill="#afafaf"/>
        <path id="Trazado_117180" data-name="Trazado 117180" d="M342.75,143.1a3.153,3.153,0,0,1,.117-.773q.172-.863.434-2.072c.359-1.768.821-4.22,1.2-6.948s.614-5.207.759-7c.062-.843.11-1.554.159-2.134a2.9,2.9,0,0,1,.1-.78,2.983,2.983,0,0,1,.041.787c0,.5,0,1.236-.048,2.141-.069,1.809-.269,4.3-.648,7.044s-.883,5.187-1.31,6.948c-.214.877-.4,1.582-.545,2.072a3.671,3.671,0,0,1-.255.718Z" transform="translate(-265.537 -63.551)" fill="#afafaf"/>
        <path id="Trazado_117181" data-name="Trazado 117181" d="M348.739,142.46c-.09.048-.931-1.305-2.124-2.866s-2.283-2.762-2.207-2.8a11.147,11.147,0,0,1,2.489,2.583A10.972,10.972,0,0,1,348.739,142.46Z" transform="translate(-266.051 -67.696)" fill="#afafaf"/>
        <path id="Trazado_117182" data-name="Trazado 117182" d="M351.328,135.53a10.259,10.259,0,0,1-6.558-2.583c.062-.09,1.379.829,3.179,1.54S351.342,135.42,351.328,135.53Z" transform="translate(-266.165 -66.506)" fill="#afafaf"/>
        <path id="Trazado_117183" data-name="Trazado 117183" d="M369.962,162.611a2.671,2.671,0,0,1-.276.193c-.186.117-.469.29-.841.483a23.826,23.826,0,0,1-3.275,1.381,24.3,24.3,0,0,1-11.626,1.057,25.494,25.494,0,0,1-10.813-4.448,25.159,25.159,0,0,1-2.758-2.265c-.31-.29-.524-.532-.69-.691s-.228-.249-.214-.262a11.955,11.955,0,0,1,.993.849,30.284,30.284,0,0,0,2.8,2.155,26.374,26.374,0,0,0,10.723,4.309,25.058,25.058,0,0,0,11.5-.946,26.728,26.728,0,0,0,3.289-1.3C369.535,162.8,369.949,162.59,369.962,162.611Z" transform="translate(-264.518 -74.277)" fill="#afafaf"/>
        <path id="Trazado_117184" data-name="Trazado 117184" d="M372.518,171.869a2.624,2.624,0,0,1-.5.456,18.009,18.009,0,0,1-1.483,1.091,26.031,26.031,0,0,1-5.386,2.762,25.552,25.552,0,0,1-5.889,1.464c-.772.09-1.379.131-1.834.138a2.266,2.266,0,0,1-.69,0c0-.055.952-.117,2.469-.366a30.11,30.11,0,0,0,5.8-1.54,31.665,31.665,0,0,0,5.379-2.666C371.711,172.394,372.483,171.82,372.518,171.869Z" transform="translate(-269.88 -78.549)" fill="#afafaf"/>
        <path id="Trazado_117185" data-name="Trazado 117185" d="M384.181,179.358c-.11,0-.117-1.554-.4-3.453s-.724-3.37-.627-3.4a9.135,9.135,0,0,1,.979,3.35A9.428,9.428,0,0,1,384.181,179.358Z" transform="translate(-278.075 -78.744)" fill="#afafaf"/>
        <path id="Trazado_117186" data-name="Trazado 117186" d="M351,110.585a31.73,31.73,0,0,0,2.51-2.072,15.561,15.561,0,0,0,4.42-14.351c-.4-1.975-.965-3.115-.9-3.142a3.788,3.788,0,0,1,.4.787,13.227,13.227,0,0,1,.745,2.3,15.1,15.1,0,0,1-4.5,14.593,13.1,13.1,0,0,1-1.91,1.478A4.132,4.132,0,0,1,351,110.585Z" transform="translate(-268.098 -53.536)" fill="#afafaf"/>
        <path id="Trazado_117187" data-name="Trazado 117187" d="M385.18,160.879a2.975,2.975,0,0,1,.234-.435c.165-.276.4-.691.731-1.209.655-1.043,1.621-2.535,2.841-4.365,2.414-3.667,5.868-8.66,9.227-14.448.428-.691.821-1.443,1.207-2.162s.745-1.437,1.09-2.141.641-1.423.952-2.113c.159-.345.255-.691.386-1.05a10.563,10.563,0,0,0,.331-1.036,17.681,17.681,0,0,0,.545-4.047,33.186,33.186,0,0,0-.076-3.571c-.159-2.189-.428-3.943-.593-5.166-.076-.573-.145-1.043-.193-1.381a2.233,2.233,0,0,1-.041-.5,2.97,2.97,0,0,1,.117.483c.062.352.152.815.255,1.381a52.04,52.04,0,0,1,.69,5.166A33.208,33.208,0,0,1,403,127.9a17.656,17.656,0,0,1-.517,4.144c-.076.366-.228.691-.338,1.064a10.017,10.017,0,0,1-.386,1.07c-.31.691-.586,1.43-.952,2.134s-.69,1.443-1.09,2.155-.786,1.45-1.214,2.175c-3.372,5.808-6.861,10.78-9.33,14.413l-2.931,4.3-.786,1.174A2.549,2.549,0,0,1,385.18,160.879Z" transform="translate(-278.708 -61.654)" fill="#afafaf"/>
        <path id="Trazado_117188" data-name="Trazado 117188" d="M413.741,126.45a10.441,10.441,0,0,1-.648,1.892c-.448,1.153-1.1,2.728-1.889,4.441s-1.538,3.246-2.117,4.337a10.083,10.083,0,0,1-1.007,1.733,12.7,12.7,0,0,1,.779-1.844l2.02-4.379c.752-1.657,1.427-3.156,1.979-4.385a11.548,11.548,0,0,1,.883-1.8Z" transform="translate(-285.817 -64.498)" fill="#afafaf"/>
        <path id="Trazado_117189" data-name="Trazado 117189" d="M415.91,133.14a14,14,0,0,1-1.379,1.381c-.876.829-2.069,2-3.289,3.384s-2.241,2.7-2.958,3.674a13.26,13.26,0,0,1-1.193,1.561,9.186,9.186,0,0,1,.986-1.706,34.707,34.707,0,0,1,6.282-7.1,9.043,9.043,0,0,1,1.552-1.195Z" transform="translate(-285.509 -66.567)" fill="#afafaf"/>
        <path id="Trazado_117190" data-name="Trazado 117190" d="M444.812,145.176a16.517,16.517,0,0,1-.848-3.315,16.793,16.793,0,0,1-.5-3.391,16.242,16.242,0,0,1,.855,3.315A15.908,15.908,0,0,1,444.812,145.176Z" transform="translate(-296.799 -68.217)" fill="#afafaf"/>
        <path id="Trazado_117191" data-name="Trazado 117191" d="M446.626,144.119c-.1,0-.5-1.512-1.131-3.356s-1.276-3.294-1.179-3.343a16.589,16.589,0,0,1,2.31,6.7Z" transform="translate(-297.062 -67.891)" fill="#afafaf"/>
        <path id="Trazado_117192" data-name="Trazado 117192" d="M303.288,110a14.767,14.767,0,0,1,2.545,3.626,15.07,15.07,0,0,1,1.689,4.1c-.1.041-.834-1.8-2.007-3.923S303.205,110.083,303.288,110Z" transform="translate(-253.286 -59.408)" fill="#afafaf"/>
        <path id="Trazado_117193" data-name="Trazado 117193" d="M306.22,106.91a27.76,27.76,0,0,1,1.379,4.254,27,27,0,0,1,1.014,4.358,28.63,28.63,0,0,1-1.379-4.261,27.756,27.756,0,0,1-1.014-4.351Z" transform="translate(-254.198 -58.452)" fill="#afafaf"/>
        <path id="Trazado_117194" data-name="Trazado 117194" d="M341,172.011a7.3,7.3,0,0,1,1.062-.159l2.889-.325c2.448-.283,5.813-.691,9.516-1.326s7.034-1.291,9.433-1.816l2.848-.622a6,6,0,0,1,1.055-.193,6.955,6.955,0,0,1-1.021.331c-.69.186-1.627.442-2.82.732-2.393.587-5.724,1.305-9.433,1.92s-7.1,1.008-9.551,1.229c-1.227.1-2.22.18-2.91.214A5.506,5.506,0,0,1,341,172.011Z" transform="translate(-264.994 -77.22)" fill="#afafaf"/>
        <path id="Trazado_117195" data-name="Trazado 117195" d="M356,160.57a14.815,14.815,0,0,1,2.069.691c1.276.428,3.055.995,5.041,1.526s3.807.925,5.124,1.188a15.645,15.645,0,0,1,2.138.477,11.874,11.874,0,0,1-2.179-.221,51.357,51.357,0,0,1-5.179-1.1,49.6,49.6,0,0,1-5.034-1.637A11.558,11.558,0,0,1,356,160.57Z" transform="translate(-269.65 -75.053)" fill="#afafaf"/>
        <path id="Trazado_117196" data-name="Trazado 117196" d="M331.816,183.567l-5.937,3.018L314.77,175.252l6.22-1.782" transform="translate(-256.852 -79.045)" fill="#636363"/>
        <path id="Trazado_117197" data-name="Trazado 117197" d="M320.869,173.47a1.723,1.723,0,0,1-.428.173l-1.248.394-4.5,1.381.062-.249,5.648,5.718,5.468,5.622h-.179l4.337-2.141,1.221-.573a1.641,1.641,0,0,1,.448-.173,2,2,0,0,1-.407.256l-1.179.649-4.268,2.2-.1.048-.076-.076-5.517-5.587c-2.069-2.12-3.979-4.1-5.6-5.753l-.172-.186.241-.062,4.537-1.236,1.269-.318a1.9,1.9,0,0,1,.441-.083Z" transform="translate(-256.731 -79.045)" fill="#afafaf"/>
        <path id="Trazado_117198" data-name="Trazado 117198" d="M335.4,184.229a56.08,56.08,0,0,1-4.669-4.178,55.459,55.459,0,0,1-4.42-4.441,95.465,95.465,0,0,1,9.089,8.619Z" transform="translate(-260.434 -79.708)" fill="#afafaf"/>
        <path id="Trazado_117199" data-name="Trazado 117199" d="M383.311,167.551h.186a1.137,1.137,0,0,0-1.524.725,1.229,1.229,0,0,0,.89,1.492,1.207,1.207,0,0,0,1.317-1.1A1.146,1.146,0,0,0,383.311,167.551Z" transform="translate(-277.702 -77.187)" fill="#afafaf"/>
        <path id="Trazado_117200" data-name="Trazado 117200" d="M373,177.71c-.048-.048.786-.808,1.883-2.251a46.985,46.985,0,0,0,6.661-12.431c.593-1.713.765-2.832.828-2.818a2.934,2.934,0,0,1-.076.787,17.529,17.529,0,0,1-.5,2.113,37.321,37.321,0,0,1-2.758,6.568,36.723,36.723,0,0,1-3.917,5.967,16.651,16.651,0,0,1-1.469,1.588,3.448,3.448,0,0,1-.648.477Z" transform="translate(-274.926 -74.943)" fill="#afafaf"/>
        <path id="Trazado_117201" data-name="Trazado 117201" d="M354.632,268.6a1.92,1.92,0,0,1,.152-.366l.5-1.043c.441-.912,1.131-2.224,2.069-3.854a66.623,66.623,0,0,1,3.689-5.663c.765-1.05,1.6-2.155,2.531-3.28.462-.559.945-1.133,1.455-1.706.262-.276.517-.566.786-.856a3.411,3.411,0,0,0,.352-.407.187.187,0,0,0-.076-.283h-.035A25.328,25.328,0,0,0,363,248.486q-1.676-1.291-3.448-2.624c-2.393-1.768-4.93-3.591-7.551-5.456-3.448-2.438-6.758-4.758-9.82-6.906h.035c-1.848-.753-3.448-1.809-5.1-2.562a27.1,27.1,0,0,0-4.91-1.6,18.692,18.692,0,0,1-7.585-3.964,31.148,31.148,0,0,1-3.924-4.047c-.414-.518-.69-.925-.9-1.2-.09-.131-.159-.242-.221-.325s-.069-.111-.062-.117l.09.1c.062.083.138.186.234.3.214.269.524.691.945,1.167a32.849,32.849,0,0,0,3.979,3.957,18.113,18.113,0,0,0,3.255,2.21,20.8,20.8,0,0,0,4.275,1.644,26.669,26.669,0,0,1,4.972,1.588c1.669.76,3.275,1.8,5.089,2.535h0c3.069,2.113,6.4,4.427,9.833,6.872,2.62,1.865,5.158,3.688,7.551,5.463,1.193.891,2.358,1.768,3.448,2.638a25.153,25.153,0,0,1,3.1,2.728l-.062-.048a.484.484,0,0,1,.221.691,2.975,2.975,0,0,1-.4.483l-.786.843c-.51.566-.993,1.133-1.455,1.685-.931,1.119-1.772,2.21-2.545,3.253-1.538,2.072-2.758,4.006-3.744,5.6s-1.669,2.907-2.138,3.8l-.538,1.022a3.194,3.194,0,0,1-.207.387Z" transform="translate(-258.325 -93.341)" fill="#dff7f9"/>
        <path id="Trazado_117202" data-name="Trazado 117202" d="M392.763,104.529a2.833,2.833,0,0,1-.538-.311,2.941,2.941,0,0,0-1.593-.442,2.377,2.377,0,0,0-1.083.366,6.158,6.158,0,0,0-1.062.891,19.326,19.326,0,0,1-2.42,2.348l-.214.152-.055-.262a25.2,25.2,0,0,0-1.007-3.515,75.625,75.625,0,0,0-3.448-7.749L380.2,93.7a4.083,4.083,0,0,1-.379-.87,4.881,4.881,0,0,1,.5.8c.3.532.731,1.3,1.248,2.258a59.5,59.5,0,0,1,3.558,7.749,24.207,24.207,0,0,1,1.007,3.57l-.262-.11a20.181,20.181,0,0,0,2.407-2.272,5.952,5.952,0,0,1,1.138-.9,2.555,2.555,0,0,1,1.207-.359,2.907,2.907,0,0,1,1.662.559A2.415,2.415,0,0,1,392.763,104.529Z" transform="translate(-277.045 -54.096)" fill="#afafaf"/>
        <path id="Trazado_117203" data-name="Trazado 117203" d="M403.72,111.553c.035,0,.062.3-.117.753a2.581,2.581,0,0,1-1.379,1.381l-.255.11v-.9a10.368,10.368,0,0,0-.848-3.053,2.112,2.112,0,0,1,.579.774,5.533,5.533,0,0,1,.627,2.258,5.322,5.322,0,0,1,0,.691l-.241-.173a2.663,2.663,0,0,0,1.276-1.14C403.616,111.822,403.671,111.539,403.72,111.553Z" transform="translate(-283.657 -59.359)" fill="#afafaf"/>
        <path id="Trazado_117204" data-name="Trazado 117204" d="M394.881,113.7a1.052,1.052,0,0,1,0,.338,9.5,9.5,0,0,1-.117.967c-.117.843-.3,2.072-.545,3.557-.483,2.99-1.221,7.12-2.289,11.623a99.467,99.467,0,0,1-3.393,11.347c-.524,1.423-.979,2.562-1.331,3.336l-.4.891c-.1.207-.152.311-.165.3a2.072,2.072,0,0,1,.1-.331c.1-.249.207-.546.338-.912.31-.787.731-1.941,1.227-3.37.993-2.859,2.193-6.872,3.255-11.368s1.841-8.605,2.393-11.589c.269-1.45.49-2.638.648-3.529.076-.38.145-.691.193-.96A1.119,1.119,0,0,1,394.881,113.7Z" transform="translate(-279.162 -60.553)" fill="#afafaf"/>
        <g id="Grupo_80391" data-name="Grupo 80391" transform="translate(56.773 98.195)" opacity="0.3">
          <path id="Trazado_117205" data-name="Trazado 117205" d="M316.206,178.93l-3.1,1.029,9.668,10.055,7.544-4.261-4.82,2.127Z" transform="translate(-313.11 -178.93)" fill="#afafaf"/>
        </g>
        <g id="Grupo_80392" data-name="Grupo 80392" transform="translate(77.929 92.677)" opacity="0.3">
          <path id="Trazado_117206" data-name="Trazado 117206" d="M366.546,170.94c-6.972,3.55-14.985,4.316-22.756,5.021a28.605,28.605,0,0,0,22.756-5.021" transform="translate(-343.79 -170.94)" fill="#afafaf"/>
        </g>
      </g>
    </g>
  </g>
</svg>
