<svg xmlns="http://www.w3.org/2000/svg" width="104.19" height="93.438" viewBox="0 0 104.19 93.438">
  <g id="Capa_2" data-name="Capa 2" transform="translate(2.095 2)">
    <g id="Recursos" transform="translate(0 0)">
      <path id="Trazado_158717" data-name="Trazado 158717" d="M90.484,45.88c-23.12,0-41.864,16.949-41.864,37.855S67.364,121.59,90.484,121.59s41.864-16.947,41.864-37.855S113.6,45.88,90.484,45.88Zm0,72.963c-21.433,0-38.824-15.719-38.824-35.108S69.051,48.629,90.484,48.629s38.824,15.717,38.824,35.106S111.927,118.843,90.484,118.843Z" transform="translate(-40.47 -39.002)" fill="#12263f"/>
      <path id="Trazado_158718" data-name="Trazado 158718" d="M48.271,21.353c0,3.65-1.509,7.214-3.993,8.85-2.9,1.915-7.139-.177-11.858-.177-4.275,0-8.352,2.053-11.2.515-2.987-1.612-4.649-5.133-4.649-9.184,0-7.918,7.1-14.336,15.855-14.336s15.855,6.419,15.855,14.336Z" transform="translate(-14.693 -7.02)" fill="#fc4b52" stroke="#12263f" stroke-miterlimit="10" stroke-width="4"/>
      <path id="Trazado_158719" data-name="Trazado 158719" d="M60.683,91.448h0c-4.955,0-8.973-3.632-8.973-8.113V77.793c8.973-.354,11.478-6.053,11.478-6.053,4.956,0,6.469.269,6.469,4.75v6.844c0,4.482-4.018,8.114-8.974,8.113Z" transform="translate(-42.955 -60.285)" fill="#f7d2ac" stroke="#12263f" stroke-miterlimit="10" stroke-width="4"/>
      <path id="Trazado_158720" data-name="Trazado 158720" d="M378.081,21.353c0,3.65-1.509,7.214-3.993,8.85-2.9,1.915-7.14-.177-11.858-.177-4.275,0-8.352,2.053-11.2.515-2.987-1.612-4.649-5.133-4.649-9.184,0-7.918,7.1-14.336,15.855-14.336s15.855,6.419,15.855,14.336Z" transform="translate(-279.947 -7.02)" fill="#feca2e" stroke="#12263f" stroke-miterlimit="10" stroke-width="4"/>
      <path id="Trazado_158721" data-name="Trazado 158721" d="M390.492,91.448h0c-4.955,0-8.973-3.632-8.973-8.113V77.793C390.492,77.439,393,71.74,393,71.74c4.956,0,6.459.269,6.459,4.75v6.844c0,4.478-4.012,8.109-8.965,8.113Z" transform="translate(-308.209 -60.285)" fill="#f7d2ac" stroke="#12263f" stroke-miterlimit="10" stroke-width="4"/>
      <path id="Trazado_158722" data-name="Trazado 158722" d="M41.664,357.547a5.339,5.339,0,0,1-1.421-4.1,13.408,13.408,0,0,0,.315-2.881c0-7.918-7.1-14.336-15.855-14.336-9.456,0-16.988,7.984-15.7,16.421a5.866,5.866,0,0,1-1.274,4.892c-1.311,1.754-1.675,7.563,5.459,7.563H36.207C43.34,365.11,42.978,359.3,41.664,357.547Z" transform="translate(-6.98 -277.962)" fill="#feca2e" stroke="#12263f" stroke-miterlimit="10" stroke-width="4"/>
      <path id="Trazado_158723" data-name="Trazado 158723" d="M60.644,420.7h0c-4.958,0-8.976-3.634-8.974-8.115v-5.54c8.974-.354,11.48-6.053,11.48-6.053,4.956,0,6.459.269,6.459,4.75v6.844c0,4.478-4.012,8.109-8.965,8.113Z" transform="translate(-42.923 -331.26)" fill="#f7d2ac" stroke="#12263f" stroke-miterlimit="10" stroke-width="4"/>
      <path id="Trazado_158724" data-name="Trazado 158724" d="M371.512,357.547a5.332,5.332,0,0,1-1.423-4.1,13.288,13.288,0,0,0,.315-2.881c0-7.918-7.1-14.336-15.855-14.336-9.436,0-16.728,7.837-15.741,16.211a6.177,6.177,0,0,1-1.229,5.1c-1.292,1.729-1.676,7.563,5.457,7.563h23.022C373.193,365.11,372.829,359.3,371.512,357.547Z" transform="translate(-272.27 -277.962)" fill="#fc4b52" stroke="#12263f" stroke-miterlimit="10" stroke-width="4"/>
      <path id="Trazado_158725" data-name="Trazado 158725" d="M390.492,420.7h0c-4.955,0-8.973-3.632-8.973-8.113v-5.542c8.973-.354,11.478-6.053,11.478-6.053,4.956,0,6.459.269,6.459,4.75v6.844c0,4.478-4.012,8.109-8.965,8.113Z" transform="translate(-308.209 -331.26)" fill="#f7d2ac" stroke="#12263f" stroke-miterlimit="10" stroke-width="4"/>
      <path id="Trazado_158726" data-name="Trazado 158726" d="M235.554,238.11h-24.87a2.2,2.2,0,0,0-2.3,2.081v12.161a2.2,2.2,0,0,0,2.3,2.081h13.672v1.427a2.042,2.042,0,0,0,1.348,1.866,2.44,2.44,0,0,0,2.431-.365l3.523-2.927h3.891a2.432,2.432,0,0,0,1.634-.606,1.986,1.986,0,0,0,.678-1.475V240.191A2.2,2.2,0,0,0,235.554,238.11Z" transform="translate(-168.959 -197.209)" fill="#feca2e" stroke="#12263f" stroke-miterlimit="10" stroke-width="4"/>
      <rect id="Rect치ngulo_40481" data-name="Rect치ngulo 40481" width="10.225" height="2.749" rx="1.374" transform="translate(53.399 47.731)" fill="#12263f"/>
      <path id="Trazado_158727" data-name="Trazado 158727" d="M188.488,170.11H167.3a2.2,2.2,0,0,0-2.3,2.081v10.3a2.2,2.2,0,0,0,2.3,2.081h8.518l4.042,3.407a2.44,2.44,0,0,0,2.431.365,2.042,2.042,0,0,0,1.348-1.866V184.57h4.844a2.2,2.2,0,0,0,2.3-2.081v-10.3A2.2,2.2,0,0,0,188.488,170.11Z" transform="translate(-134.07 -141.244)" fill="#fc4b52" stroke="#12263f" stroke-miterlimit="10" stroke-width="4"/>
      <rect id="Rect치ngulo_40482" data-name="Rect치ngulo 40482" width="10.225" height="2.749" rx="1.374" transform="translate(37.235 34.852)" fill="#12263f"/>
    </g>
  </g>
</svg>
