<svg xmlns="http://www.w3.org/2000/svg" xmlns:xlink="http://www.w3.org/1999/xlink" width="400" height="242" viewBox="0 0 400 242">
  <defs>
    <clipPath id="clip-path">
      <rect id="Rectángulo_89107" data-name="Rectángulo 89107" width="400" height="242" transform="translate(1020 1258)" fill="#fff" stroke="#707070" stroke-width="1"/>
    </clipPath>
  </defs>
  <g id="Enmascarar_grupo_147" data-name="Enmascarar grupo 147" transform="translate(-1020 -1258)" clip-path="url(#clip-path)">
    <g id="Analyze-pana" transform="translate(994.92 1203.895)">
      <g id="freepik--background-complete--inject-4" transform="translate(31.861 30.26)">
        <path id="Trazado_192796" data-name="Trazado 192796" d="M0,0H175.219V108.445H0Z" transform="translate(0 23.845)" fill="#ffedb6"/>
        <path id="Trazado_192667" data-name="Trazado 192667" d="M170.211,132.63c-12.149-4.6-26.128,8.134-38.035,2.934-6.933-3.023-10.085-10.843-13.471-17.615s-9.247-13.882-16.768-13.1-13.7,9.577-21.049,7.457c-4.611-1.33-6.925-6.449-8.062-11.117s-1.959-9.827-5.482-13.1S56.486,85.671,55.93,90.508V148H192.977S174.412,134.226,170.211,132.63Z" transform="translate(-37.292 -30.378)" fill="#ebebeb" style="mix-blend-mode: multiply;isolation: isolate"/>
        <path id="Trazado_192668" data-name="Trazado 192668" d="M194.754,162.776c0,.121-33.214.226-74.167.226s-74.167-.1-74.167-.226,33.206-.226,74.167-.226S194.754,162.655,194.754,162.776Z" transform="translate(-35.448 -45.19)" fill="#feca2e"/>
        <path id="Trazado_192669" data-name="Trazado 192669" d="M194.754,131.626c0,.121-33.214.226-74.167.226s-74.167-.1-74.167-.226,33.206-.226,74.167-.226S194.754,131.5,194.754,131.626Z" transform="translate(-35.448 -39.153)" fill="#feca2e"/>
        <path id="Trazado_192670" data-name="Trazado 192670" d="M194.754,100.476c0,.121-33.214.226-74.167.226s-74.167-.1-74.167-.226,33.206-.226,74.167-.226S194.754,100.355,194.754,100.476Z" transform="translate(-35.448 -33.115)" fill="#feca2e"/>
        <path id="Trazado_192671" data-name="Trazado 192671" d="M194.754,70.876c0,.121-33.214.218-74.167.218S46.42,71,46.42,70.876s33.206-.226,74.167-.226S194.754,70.747,194.754,70.876Z" transform="translate(-35.448 -27.377)" fill="#feca2e"/>
        <path id="Trazado_192672" data-name="Trazado 192672" d="M386.014,69.766V39.52a30.2,30.2,0,1,1-30.184,30.9Z" transform="translate(-86.9 5.884)" fill="#ebebeb"/>
        <path id="Trazado_192673" data-name="Trazado 192673" d="M377.623,60.444l-30.193.684a31.869,31.869,0,0,1,8.553-21.746,31.044,31.044,0,0,1,21.175-9.123Z" transform="translate(-85.869 7.021)" fill="#f5f5f5"/>
        <path id="Trazado_192674" data-name="Trazado 192674" d="M108.814,377.025V349.7a27.325,27.325,0,1,0,27.316,27.956Z" transform="translate(-38.788 -69.49)" fill="#ebebeb"/>
        <path id="Trazado_192675" data-name="Trazado 192675" d="M120.24,368.627l27.316.623a28.807,28.807,0,0,0-7.737-19.675,28.07,28.07,0,0,0-19.158-8.254Z" transform="translate(-43.547 -68.46)" fill="#f5f5f5"/>
        <rect id="Rectángulo_89096" data-name="Rectángulo 89096" width="12.772" height="39.886" transform="translate(236.105 105.807)" fill="#f5f5f5"/>
        <rect id="Rectángulo_89097" data-name="Rectángulo 89097" width="12.772" height="30.781" transform="translate(255.175 114.912)" fill="#f5f5f5"/>
        <rect id="Rectángulo_89098" data-name="Rectángulo 89098" width="12.772" height="18.281" transform="translate(272.824 127.412)" fill="#f5f5f5"/>
      </g>
      <g id="freepik--Chart--inject-4" transform="translate(39.171 138.701)">
        <rect id="Rectángulo_89099" data-name="Rectángulo 89099" width="25.974" height="50.675" transform="translate(0.251 221.121)" fill="#fc4b52"/>
        <rect id="Rectángulo_89100" data-name="Rectángulo 89100" width="25.974" height="29.947" transform="translate(56.637 241.858)" fill="#ff725e"/>
        <g id="Grupo_135065" data-name="Grupo 135065" transform="translate(56.637 241.858)" opacity="0.79">
          <rect id="Rectángulo_89101" data-name="Rectángulo 89101" width="25.974" height="29.947" fill="#ffe4e5"/>
        </g>
        <path id="Trazado_192676" data-name="Trazado 192676" d="M191.414,454.253l-25.974.175V386.49h25.974Z" transform="translate(-56.408 -182.448)" fill="#fc4b52"/>
        <rect id="Rectángulo_89102" data-name="Rectángulo 89102" width="25.974" height="35.781" transform="translate(163.882 236.024)" fill="#ff725e"/>
        <g id="Grupo_135066" data-name="Grupo 135066" transform="translate(163.882 236.024)" opacity="0.79">
          <rect id="Rectángulo_89103" data-name="Rectángulo 89103" width="25.974" height="35.781" fill="#fff"/>
        </g>
        <rect id="Rectángulo_89104" data-name="Rectángulo 89104" width="25.974" height="67.763" transform="translate(217.812 204.033)" fill="#fec0c2"/>
        <rect id="Rectángulo_89105" data-name="Rectángulo 89105" width="25.974" height="154.421" transform="translate(271.233 117.384)" fill="#ff725e"/>
        <g id="Grupo_135067" data-name="Grupo 135067" transform="translate(271.233 117.384)" opacity="0.79">
          <rect id="Rectángulo_89106" data-name="Rectángulo 89106" width="25.974" height="154.421" fill="#ffe4e5"/>
        </g>
        <path id="Trazado_192677" data-name="Trazado 192677" d="M67.379,433.469c.2.2-5.421,6.325-12.561,13.658s-13.1,13.158-13.3,12.912,5.421-6.325,12.561-13.667S67.2,433.259,67.379,433.469Z" transform="translate(-41.189 -188.217)" fill="#fff"/>
        <path id="Trazado_192678" data-name="Trazado 192678" d="M131.5,434c.2.211-5.421,6.333-12.561,13.667s-13.105,13.158-13.307,12.912,5.421-6.325,12.57-13.667S131.3,433.771,131.5,434Z" transform="translate(-49.063 -188.282)" fill="#ff725e"/>
        <path id="Trazado_192679" data-name="Trazado 192679" d="M253.894,433.439c.2.211-5.421,6.325-12.561,13.667S228.227,460.246,228,460.018s5.421-6.333,12.57-13.667S253.692,433.229,253.894,433.439Z" transform="translate(-64.09 -188.213)" fill="#ff725e"/>
        <path id="Trazado_192680" data-name="Trazado 192680" d="M67.009,406.559c.2.2-5.421,6.325-12.561,13.658s-13.1,13.158-13.3,12.912,5.421-6.325,12.561-13.667S66.807,406.349,67.009,406.559Z" transform="translate(-41.144 -184.912)" fill="#fff"/>
        <path id="Trazado_192681" data-name="Trazado 192681" d="M191.878,433.9c.2.211-5.421,6.333-12.561,13.667s-13.105,13.158-13.307,12.912,5.421-6.325,12.57-13.667S191.676,433.7,191.878,433.9Z" transform="translate(-56.478 -188.27)" fill="#fff"/>
        <path id="Trazado_192682" data-name="Trazado 192682" d="M191.478,407c.2.211-5.421,6.333-12.561,13.667s-13.105,13.158-13.307,12.912,5.421-6.325,12.57-13.667S191.276,406.789,191.478,407Z" transform="translate(-56.429 -184.966)" fill="#fff"/>
        <path id="Trazado_192683" data-name="Trazado 192683" d="M183.381,386.479c.211.211-3.605,4.465-8.518,9.509s-9.053,8.965-9.254,8.772,3.614-4.465,8.526-9.509S183.179,386.277,183.381,386.479Z" transform="translate(-56.428 -182.446)" fill="#fff"/>
        <path id="Trazado_192684" data-name="Trazado 192684" d="M376.178,433.439c.2.211-5.43,6.325-12.57,13.667s-13.1,13.158-13.3,12.912,5.421-6.333,12.57-13.667S375.976,433.229,376.178,433.439Z" transform="translate(-79.111 -188.213)" fill="#ff725e"/>
        <path id="Trazado_192685" data-name="Trazado 192685" d="M375.778,406.529c.2.211-5.421,6.325-12.57,13.667s-13.1,13.114-13.3,12.912,5.421-6.333,12.57-13.667S375.576,406.319,375.778,406.529Z" transform="translate(-79.062 -184.909)" fill="#ff725e"/>
        <path id="Trazado_192686" data-name="Trazado 192686" d="M375.778,376.539c.2.211-5.421,6.325-12.57,13.667s-13.1,13.114-13.3,12.912,5.421-6.325,12.57-13.667S375.576,376.329,375.778,376.539Z" transform="translate(-79.062 -181.226)" fill="#ff725e"/>
        <path id="Trazado_192687" data-name="Trazado 192687" d="M316.158,433.439c.2.211-5.421,6.325-12.561,13.667s-13.105,13.158-13.307,12.912,5.421-6.333,12.57-13.667S315.956,433.229,316.158,433.439Z" transform="translate(-71.74 -188.213)" fill="#fc4b52"/>
        <path id="Trazado_192688" data-name="Trazado 192688" d="M315.758,406.529c.2.211-5.421,6.325-12.561,13.667s-13.105,13.114-13.307,12.912,5.421-6.333,12.57-13.667S315.556,406.319,315.758,406.529Z" transform="translate(-71.691 -184.909)" fill="#fc4b52"/>
        <path id="Trazado_192689" data-name="Trazado 192689" d="M307.534,386.219c.2.211-3.579,4.386-8.439,9.421s-8.965,8.868-9.167,8.667,3.579-4.386,8.439-9.421S307.289,386.026,307.534,386.219Z" transform="translate(-71.696 -182.414)" fill="#fff"/>
        <path id="Trazado_192690" data-name="Trazado 192690" d="M376.178,347.539c.2.211-5.43,6.325-12.57,13.667s-13.1,13.114-13.3,12.9,5.421-6.325,12.57-13.658S375.976,347.329,376.178,347.539Z" transform="translate(-79.111 -177.664)" fill="#ff725e"/>
        <path id="Trazado_192691" data-name="Trazado 192691" d="M376.178,293.609c.2.211-5.43,6.325-12.57,13.667s-13.1,13.114-13.3,12.9,5.421-6.325,12.57-13.658S375.976,293.4,376.178,293.609Z" transform="translate(-79.111 -171.041)" fill="#ff725e"/>
        <path id="Trazado_192692" data-name="Trazado 192692" d="M375.778,320.629c.2.211-5.421,6.325-12.57,13.667s-13.1,13.158-13.3,12.9,5.421-6.325,12.57-13.658S375.576,320.419,375.778,320.629Z" transform="translate(-79.062 -174.359)" fill="#ff725e"/>
        <path id="Trazado_192797" data-name="Trazado 192797" d="M0,0H24.544V247.535H0Z" transform="translate(327.628 24.27)" fill="#fc4b52"/>
        <g id="Grupo_135068" data-name="Grupo 135068" transform="translate(327.842 246.685)" opacity="0.6">
          <path id="Trazado_192693" data-name="Trazado 192693" d="M439.328,435.109c.193.193-5.123,5.974-11.868,12.912s-12.377,12.43-12.57,12.2,5.123-5.982,11.868-12.912S439.135,434.908,439.328,435.109Z" transform="translate(-414.884 -435.104)" fill="#fff"/>
        </g>
        <g id="Grupo_135069" data-name="Grupo 135069" transform="translate(327.509 224.378)" opacity="0.6">
          <path id="Trazado_192694" data-name="Trazado 192694" d="M438.948,409.679c.193.193-5.123,5.974-11.868,12.912s-12.377,12.395-12.57,12.2,5.123-5.982,11.877-12.912S438.764,409.478,438.948,409.679Z" transform="translate(-414.504 -409.674)" fill="#fff"/>
        </g>
        <g id="Grupo_135070" data-name="Grupo 135070" transform="translate(327.509 199.519)" opacity="0.6">
          <path id="Trazado_192695" data-name="Trazado 192695" d="M438.948,381.339c.193.2-5.123,5.982-11.868,12.912s-12.377,12.395-12.57,12.228,5.123-5.982,11.877-12.912S438.764,381.146,438.948,381.339Z" transform="translate(-414.504 -381.334)" fill="#fff"/>
        </g>
        <g id="Grupo_135071" data-name="Grupo 135071" transform="translate(327.842 175.475)" opacity="0.6">
          <path id="Trazado_192696" data-name="Trazado 192696" d="M439.328,353.929c.193.2-5.123,5.982-11.868,12.912s-12.377,12.4-12.57,12.2,5.123-5.974,11.868-12.912S439.135,353.736,439.328,353.929Z" transform="translate(-414.884 -353.924)" fill="#fff"/>
        </g>
        <g id="Grupo_135072" data-name="Grupo 135072" transform="translate(327.509 153.168)" opacity="0.6">
          <path id="Trazado_192697" data-name="Trazado 192697" d="M438.948,328.5c.193.2-5.123,5.982-11.868,12.912s-12.377,12.4-12.57,12.2,5.123-5.974,11.877-12.912S438.764,328.306,438.948,328.5Z" transform="translate(-414.504 -328.494)" fill="#fff"/>
        </g>
        <g id="Grupo_135073" data-name="Grupo 135073" transform="translate(327.509 128.317)" opacity="0.6">
          <path id="Trazado_192698" data-name="Trazado 192698" d="M438.948,300.169c.193.193-5.123,5.974-11.868,12.912s-12.377,12.395-12.57,12.193,5.123-5.974,11.877-12.912S438.764,299.967,438.948,300.169Z" transform="translate(-414.504 -300.164)" fill="#fff"/>
        </g>
        <g id="Grupo_135074" data-name="Grupo 135074" transform="translate(327.509 99.133)" opacity="0.6">
          <path id="Trazado_192699" data-name="Trazado 192699" d="M438.948,266.9c.193.193-5.123,5.974-11.868,12.912s-12.377,12.395-12.57,12.2,5.123-5.982,11.877-12.912S438.764,266.706,438.948,266.9Z" transform="translate(-414.504 -266.894)" fill="#fff"/>
        </g>
        <g id="Grupo_135075" data-name="Grupo 135075" transform="translate(327.842 68.581)" opacity="0.6">
          <path id="Trazado_192700" data-name="Trazado 192700" d="M439.328,232.069c.193.2-5.123,5.982-11.868,12.912s-12.377,12.4-12.57,12.2,5.123-5.974,11.868-12.912S439.135,231.876,439.328,232.069Z" transform="translate(-414.884 -232.064)" fill="#fff"/>
        </g>
        <g id="Grupo_135076" data-name="Grupo 135076" transform="translate(327.509 38.58)" opacity="0.6">
          <path id="Trazado_192701" data-name="Trazado 192701" d="M438.957,197.869c.184.193-5.132,5.974-11.877,12.912s-12.377,12.395-12.57,12.2,5.123-5.982,11.877-12.912S438.764,197.667,438.957,197.869Z" transform="translate(-414.504 -197.864)" fill="#fff"/>
        </g>
        <g id="Grupo_135077" data-name="Grupo 135077" transform="translate(327.505 23.781)" opacity="0.6">
          <path id="Trazado_192702" data-name="Trazado 192702" d="M429.123,181c.193.193-2.921,3.719-6.956,7.895s-7.465,7.351-7.658,7.158,2.93-3.719,6.965-7.895S428.974,180.832,429.123,181Z" transform="translate(-414.5 -180.993)" fill="#fff"/>
        </g>
        <path id="Trazado_192703" data-name="Trazado 192703" d="M416.75,177.324l-1.1-.763-1.333-.939-1.895-1.228A66.009,66.009,0,0,0,399,167.9a59.352,59.352,0,0,0-10.465-2.632,48.824,48.824,0,0,0-12.789-.289c-9.158.982-19.211,5.307-27.974,12.921a84.762,84.762,0,0,0-12.342,13.351c-3.728,5.123-7.439,10.579-11.281,16.228C316.478,218.8,308.61,231.1,300.461,244.1s-16.667,26.737-25.719,40.789c-4.553,7.018-9.228,14.123-14.114,21.246-2.447,3.553-4.763,7.228-7.14,10.912s-4.781,7.368-7.263,11.044a219.3,219.3,0,0,1-15.789,21.053,75.7,75.7,0,0,1-9.14,9.079,30.274,30.274,0,0,1-5.263,3.588,13.738,13.738,0,0,1-6.088,1.754,16.412,16.412,0,0,1-6.044-1.754c-1.9-.877-3.711-1.868-5.491-2.895-3.509-2.079-6.939-4.342-10.246-6.64-6.6-4.623-12.842-9.421-18.851-14.219q-4.518-3.6-8.825-7.193c-2.868-2.4-5.719-4.754-8.553-7.018-5.684-4.553-11.263-8.895-16.816-12.86s-11.272-7.36-17.377-9.079a39.474,39.474,0,0,0-17.991-.64,49.639,49.639,0,0,0-15.272,6.1,74.446,74.446,0,0,0-11.772,8.851c-6.807,6.246-12.544,11.746-17.2,16.272s-8.228,8.105-10.64,10.526l-2.746,2.763-.939.939s.3-.342.877-.974,1.526-1.57,2.711-2.789c2.395-2.447,5.947-6.035,10.588-10.588s10.36-10.079,17.149-16.342a75.063,75.063,0,0,1,11.8-8.912,50,50,0,0,1,15.36-6.14,39.772,39.772,0,0,1,18.149.614c6.14,1.754,11.982,5.088,17.5,9.105s11.158,8.316,16.842,12.86c2.842,2.272,5.7,4.623,8.57,7.018s5.816,4.789,8.825,7.184c6.009,4.781,12.281,9.579,18.842,14.184,3.3,2.289,6.675,4.553,10.219,6.614a59.577,59.577,0,0,0,5.447,2.877,16.122,16.122,0,0,0,5.86,1.7,13.351,13.351,0,0,0,5.877-1.754A30.789,30.789,0,0,0,221,357.868a75.386,75.386,0,0,0,9.079-9.026,222.812,222.812,0,0,0,15.789-20.974c2.482-3.667,4.886-7.36,7.254-11.044s4.693-7.351,7.149-10.912c4.886-7.123,9.561-14.228,14.114-21.237,9.07-14.035,17.544-27.763,25.737-40.772s16.079-25.3,23.754-36.605c3.851-5.649,7.57-11.1,11.316-16.228A84.585,84.585,0,0,1,347.61,177.7c8.816-7.632,18.947-11.965,28.158-12.93a48.447,48.447,0,0,1,12.851.333,58.107,58.107,0,0,1,10.482,2.632,64.711,64.711,0,0,1,13.43,6.579l1.886,1.246,1.316.965C416.39,177.043,416.75,177.324,416.75,177.324Z" transform="translate(-41.148 -155.185)" fill="#fc4b52"/>
        <path id="Trazado_192704" data-name="Trazado 192704" d="M120.831,320.853a5.105,5.105,0,1,1-5.105-5.263,5.175,5.175,0,0,1,5.105,5.263Z" transform="translate(-49.676 -173.741)" fill="#fc4b52"/>
        <path id="Trazado_192705" data-name="Trazado 192705" d="M115.1,329.647a9.368,9.368,0,1,1,9.149-9.368,9.272,9.272,0,0,1-9.149,9.368Zm0-17.86a8.491,8.491,0,1,0,8.272,8.491A8.4,8.4,0,0,0,115.1,311.788Z" transform="translate(-49.049 -173.167)" fill="#fc4b52"/>
        <path id="Trazado_192706" data-name="Trazado 192706" d="M433.621,163.833a5.105,5.105,0,1,1-5.105-5.263,5.167,5.167,0,0,1,5.105,5.263Z" transform="translate(-88.089 -154.458)" fill="#fc4b52"/>
        <path id="Trazado_192707" data-name="Trazado 192707" d="M427.889,172.617a9.368,9.368,0,1,1,9.158-9.36,9.272,9.272,0,0,1-9.158,9.36Zm0-17.851a8.491,8.491,0,1,0,8.281,8.491A8.4,8.4,0,0,0,427.889,154.766Z" transform="translate(-87.463 -153.882)" fill="#fc4b52"/>
      </g>
      <g id="freepik--speech-bubbles--inject-4" transform="translate(42.624 78.278)">
        <path id="Trazado_192708" data-name="Trazado 192708" d="M45.28,231.73v45.579h56.254l10.333,14.482V277.309H124.1V231.73Z" transform="translate(-45.105 -103.02)" fill="#fafafa"/>
        <path id="Trazado_192709" data-name="Trazado 192709" d="M45.255,231.708h5.711l16.149-.053,56.956-.105h.2v46.009H111.817l.228-.228v15.14l-.412-.579-10.307-14.474.184.088-56.254-.053H45.08v-.167c.044-14.035.07-25.439.1-33.377,0-3.93,0-7.018.044-9.061v9.167c0,7.895.053,19.246.088,33.272l-.167-.175,56.254-.044h.105l.07.088,10.342,14.482-.412.132V277.059h12.456l-.228.228V231.673l.211.211-56.825-.105-16.193-.053H45.51Z" transform="translate(-45.08 -102.997)" fill="#263238"/>
        <path id="Trazado_192710" data-name="Trazado 192710" d="M111.534,252.448c0,.123-11.105.228-24.807.228s-24.807-.105-24.807-.228,11.105-.228,24.807-.228S111.534,252.316,111.534,252.448Z" transform="translate(-47.148 -105.536)" fill="#263238"/>
        <path id="Trazado_192711" data-name="Trazado 192711" d="M111.534,263.9c0,.123-11.105.228-24.807.228s-24.807-.105-24.807-.228,11.105-.228,24.807-.228S111.534,263.775,111.534,263.9Z" transform="translate(-47.148 -106.942)" fill="#263238"/>
        <path id="Trazado_192712" data-name="Trazado 192712" d="M460.35,85.28H387.99v41.053h11.965l-.895.167,10.246,13.061-.667-13.228H460.35Z" transform="translate(-87.192 -85.034)" fill="#fafafa"/>
        <path id="Trazado_192713" data-name="Trazado 192713" d="M460.315,85.237V88.07c0,1.886,0,4.632.044,8.167,0,7.132.053,17.412.088,30.061v.175h-.167l-51.754.053.219-.237c.211,4.193.439,8.667.675,13.228v.711l-.439-.561-10.14-13.061-.228-.3.368-.07.877-.158.044.447H387.71V85h.254l52.3.105,14.816.053h-.088l-14.868.053-52.158.237.211-.211V126.3l-.228-.228h11.965l.044.456-.877.167.14-.368c3.509,4.474,6.965,8.877,10.246,13.061l-.4.149c-.228-4.553-.447-9.026-.658-13.219v-.237h.237l51.754.053-.175.167c.044-12.605.07-22.851.1-29.956,0-3.553,0-6.316.044-8.211V85.982A4.759,4.759,0,0,0,460.315,85.237Z" transform="translate(-87.157 -85)" fill="#263238"/>
        <path id="Trazado_192714" data-name="Trazado 192714" d="M403.52,104.188c0-.123,10.1-.228,22.553-.228s22.561.105,22.561.228-10.1.228-22.561.228S403.52,104.32,403.52,104.188Z" transform="translate(-89.099 -87.328)" fill="#263238"/>
        <path id="Trazado_192715" data-name="Trazado 192715" d="M403.52,114.218c0-.123,10.1-.228,22.553-.228s22.561.105,22.561.228-10.1.228-22.561.228S403.52,114.35,403.52,114.218Z" transform="translate(-89.099 -88.56)" fill="#263238"/>
      </g>
      <g id="freepik--Character--inject-4" transform="translate(113.568 87.914)">
        <path id="Trazado_192720" data-name="Trazado 192720" d="M229.7,320.14l-3.509,9.825s-16.061,14.746-18.421,34.491-2.368,24.053-2.368,24.053l4.974,57.6H317.395s3.509-46.561,2.237-59.728-8.965-28.07-8.965-28.07l-8.158-19.746-.246-9.939Z" transform="translate(-153.707 -123.514)" fill="#263238"/>
        <path id="Trazado_192721" data-name="Trazado 192721" d="M226.77,332.49a6.5,6.5,0,0,0,.754.158l2.167.386,7.974,1.307c6.746,1.079,16.061,2.509,26.377,3.956s19.684,2.632,26.482,3.272c3.395.351,6.14.579,8.053.711l2.193.14a4.555,4.555,0,0,0,.763,0,4.454,4.454,0,0,0-.754-.114l-2.184-.219c-1.9-.193-4.649-.465-8.035-.877-6.789-.754-16.14-1.965-26.456-3.4s-19.632-2.825-26.386-3.816l-8-1.167-2.175-.3A4.529,4.529,0,0,0,226.77,332.49Z" transform="translate(-154.074 -125.03)" fill="#455a64"/>
        <path id="Trazado_192722" data-name="Trazado 192722" d="M225.29,372.22a4.878,4.878,0,0,0,.395.956c.272.614.711,1.474,1.272,2.526A71.97,71.97,0,0,0,231.9,383.6a74.558,74.558,0,0,0,5.912,7.219c.816.877,1.5,1.553,1.991,2.009a4.9,4.9,0,0,0,.781.684,4.122,4.122,0,0,0-.658-.807l-1.868-2.105a91.769,91.769,0,0,1-5.789-7.272c-2.123-2.947-3.842-5.746-5.035-7.807l-1.395-2.447a4.736,4.736,0,0,0-.553-.851Z" transform="translate(-91.83 -129.91)" fill="#455a64"/>
        <path id="Trazado_192723" data-name="Trazado 192723" d="M369.983,200.465s-2.193,36.895-2.851,41.07,2.851,9.447,2.851,9.447,8.123.877,13.614-9.228l3.509-7.895a50.281,50.281,0,0,1-1.974-20.868c1.316-11.86,1.974-17.351,1.974-17.351Z" transform="translate(-362.699 -108.224)" fill="#ffbe9d"/>
        <path id="Trazado_192724" data-name="Trazado 192724" d="M354.811,140.151c-.956,8.9-.877,16.605,3.509,18.184.368.132,3.316.246,3.7.289,5.053.544,9.991-6.842,11.035-16.491s-2.2-17.921-7.254-18.474c-.474,0-3.167-.43-3.632-.351C357.688,124.116,355.758,131.405,354.811,140.151Z" transform="translate(-337.676 -99.34)" fill="#455a64"/>
        <path id="Trazado_192725" data-name="Trazado 192725" d="M368.884,176.9s-3.7,1.237-3.026,4.807a81.939,81.939,0,0,0,3.026,9.912l4.605,5.1,16.667-5.1a10.255,10.255,0,0,0,1.14-4.991c-.114-2.8,0-9.728,0-9.728a16.464,16.464,0,0,1-3.026-6.368c-.561-2.886-.965-6.246-1.079-7.272a.316.316,0,0,0-.368-.272,4.333,4.333,0,0,0-3.246,2.965c-.877,2.8-.675,3.579-.675,3.579Z" transform="translate(-365.776 -104.214)" fill="#ffbe9d"/>
        <path id="Trazado_192726" data-name="Trazado 192726" d="M371.628,164.756l2.386-3.816,2.509,1.93-4.649,9.184L370.61,168.2Z" transform="translate(-355.238 -103.963)" fill="#455a64"/>
        <path id="Trazado_192727" data-name="Trazado 192727" d="M386.908,164.929s-2.632-3.947-5.044-2.07-1.86,3,0,6.456c0,0-4.754-.658-3.632,4.386,0,0-4.719-.93-4.605,3.123,0,0-3.886,3.219-2.211,5.649s8.114,7.088,9.895,6.526,1.982-2.982,1.982-2.982a6.768,6.768,0,0,0,2.772-1.754c.649-1.009-.184-2.632-.184-2.632s1.868-1.614,2.333-2.061,0-2.789,0-2.789l-2.518-2.895s3.632,1.956,4.474,1.4,1.754-1.026,1.026-2.246a38.484,38.484,0,0,0-3.509-4.018Z" transform="translate(-370.519 -104.136)" fill="#ffbe9d"/>
        <path id="Trazado_192728" data-name="Trazado 192728" d="M390.033,188.286a12.22,12.22,0,0,0-1.105-1.605,14.525,14.525,0,0,0-3.228-3.509,33.933,33.933,0,0,1-3.7-2.851,17.671,17.671,0,0,1-1.228-1.491,3.562,3.562,0,0,0,.991,1.754,23.21,23.21,0,0,0,3.667,3,17.385,17.385,0,0,1,3.237,3.325A6.412,6.412,0,0,0,390.033,188.286Z" transform="translate(-377.661 -106.16)" fill="#eb996e"/>
        <path id="Trazado_192729" data-name="Trazado 192729" d="M385.011,183.93a36.839,36.839,0,0,0-3.57-4.561c-1.035-1.2-1.912-2.36-2.693-3.088a3.509,3.509,0,0,0-1.395-.991c-.044.053.474.439,1.158,1.219s1.535,1.939,2.588,3.158a35.6,35.6,0,0,0,3.912,4.263Z" transform="translate(-369.639 -105.725)" fill="#eb996e"/>
        <path id="Trazado_192730" data-name="Trazado 192730" d="M381.351,174.831a17.544,17.544,0,0,0-2.026-2.307,26.986,26.986,0,0,1-1.754-2.474,4.57,4.57,0,0,0,1.395,2.772A7.544,7.544,0,0,0,381.351,174.831Z" transform="translate(-366.172 -105.082)" fill="#eb996e"/>
        <path id="Trazado_192731" data-name="Trazado 192731" d="M376.218,181a3.377,3.377,0,0,0-1.553.64,8.938,8.938,0,0,0-2.781,2.956,16.773,16.773,0,0,0-1.579,3.719,5.572,5.572,0,0,0-.377,1.623,6.141,6.141,0,0,0,.675-1.518,25.164,25.164,0,0,1,1.675-3.588,10.369,10.369,0,0,1,2.57-2.93A9.785,9.785,0,0,1,376.218,181Z" transform="translate(-354.337 -106.426)" fill="#eb996e"/>
        <ellipse id="Elipse_5140" data-name="Elipse 5140" cx="7.851" cy="17.579" rx="7.851" ry="17.579" transform="translate(28.855 59.769) rotate(-173.82)" fill="#263238"/>
        <path id="Trazado_192732" data-name="Trazado 192732" d="M365.292,158.121c-4.035-2.018-6.447-9.447-5.526-17.947s4.825-15.167,9.175-16.333c3.421,1.947,5.368,9.325,4.447,17.833S369.029,156.884,365.292,158.121Z" transform="translate(-342.648 -99.407)" fill="#e0e0e0"/>
        <path id="Trazado_192733" data-name="Trazado 192733" d="M368.141,152.68a76.583,76.583,0,0,0,.719-8.272,77.838,77.838,0,0,0,.272-8.3,72.648,72.648,0,0,0-.728,8.272,76.322,76.322,0,0,0-.263,8.3Z" transform="translate(-345.681 -100.913)" fill="#fff"/>
        <path id="Trazado_192734" data-name="Trazado 192734" d="M366.271,146.41a10.527,10.527,0,0,0,.482-2.316c.2-1.439.412-3.421.535-5.632s.123-4.2.079-5.649a10.529,10.529,0,0,0-.193-2.333,13.4,13.4,0,0,0-.132,2.333c0,1.447-.088,3.43-.211,5.632s-.281,4.175-.4,5.614A14.334,14.334,0,0,0,366.271,146.41Z" transform="translate(-342.303 -100.222)" fill="#fff"/>
        <path id="Trazado_192735" data-name="Trazado 192735" d="M386.974,164.89a1.1,1.1,0,0,0,0,.281l.123.8.518,3.044h0c.509.526,1.079,1.14,1.7,1.825a16.115,16.115,0,0,1,1.851,2.351,1.149,1.149,0,0,1,.149.711,1.088,1.088,0,0,1-.421.614,7.891,7.891,0,0,1-.719.5,1.079,1.079,0,0,1-.772.088,14.912,14.912,0,0,1-3.605-1.465l-.877-.439.632.719,2.509,2.9-.044-.061a3.509,3.509,0,0,1,0,2.807,7.807,7.807,0,0,1-2.351,2.026l-.193.123.132.193c.535.754.877,1.9,0,2.526a10.175,10.175,0,0,1-2.737,1.553l.307.2v-.07h0c-.061.061.14-.149-.149.184-.6-.342-.167-.14-.3-.193h0v.325a3.377,3.377,0,0,1-.079.447,3.93,3.93,0,0,1-.307.877,2.21,2.21,0,0,1-.553.684,1.333,1.333,0,0,1-.737.351,4.456,4.456,0,0,1-1.754-.509,15.987,15.987,0,0,1-1.754-.965,29.269,29.269,0,0,1-3.026-2.193,19.248,19.248,0,0,1-2.632-2.526,2.333,2.333,0,0,1-.605-1.5,3.676,3.676,0,0,1,.43-1.588,9.115,9.115,0,0,1,2.114-2.57l.07-.07v-.105a3.386,3.386,0,0,1,.289-1.553,2.386,2.386,0,0,1,1.061-1.061,5.263,5.263,0,0,1,2.991-.316h.272l-.044-.281c-.044-.3-.105-.605-.14-.877a4.868,4.868,0,0,1,0-.877,2.421,2.421,0,0,1,.623-1.518,3.614,3.614,0,0,1,2.939-.877h.316l-.149-.272a26.522,26.522,0,0,1-1.325-2.632,3.606,3.606,0,0,1-.289-1.272,2.052,2.052,0,0,1,.342-1.14,5.2,5.2,0,0,1,1.64-1.509,2.2,2.2,0,0,1,1.807,0,5.956,5.956,0,0,1,2.105,1.579c.211.219.351.4.456.526s.149.184.158.175a.984.984,0,0,0-.123-.2,5.59,5.59,0,0,0-.421-.57,8.155,8.155,0,0,0-.789-.825,4.561,4.561,0,0,0-1.316-.877,2.412,2.412,0,0,0-1.974,0l-.482.3-.447.36a4.386,4.386,0,0,0-.877.877,2.245,2.245,0,0,0-.4,1.289,3.886,3.886,0,0,0,.29,1.386,25.157,25.157,0,0,0,1.316,2.684l.167-.246a4.974,4.974,0,0,0-1.684.105,3.07,3.07,0,0,0-1.57.877,2.807,2.807,0,0,0-.737,1.754,5.792,5.792,0,0,0,0,.956,6.166,6.166,0,0,0,.149.956l.228-.237a5.579,5.579,0,0,0-3.254.333,2.824,2.824,0,0,0-1.254,1.246,3.781,3.781,0,0,0-.342,1.754l.079-.175a9.421,9.421,0,0,0-2.228,2.7,3.789,3.789,0,0,0-.482,1.754,2.544,2.544,0,0,0,.184.956,3.782,3.782,0,0,0,.509.816,18.727,18.727,0,0,0,2.632,2.632,28.507,28.507,0,0,0,3.079,2.237,16.582,16.582,0,0,0,1.754.982,4.623,4.623,0,0,0,2,.544,2.254,2.254,0,0,0,1.807-1.246,4.327,4.327,0,0,0,.351-.956,4.811,4.811,0,0,0,.088-.491v-.412h0c-.132-.061.289.149-.3-.193-.289.325-.088.114-.149.184v.465l.307-.123a10.851,10.851,0,0,0,2.86-1.632,2.061,2.061,0,0,0,.526-.711,1.685,1.685,0,0,0,.114-.877,3.359,3.359,0,0,0-.623-1.526l-.061.316a8.1,8.1,0,0,0,2.482-2.175,2.833,2.833,0,0,0,.386-1.6,5.052,5.052,0,0,0-.272-1.544h0l-2.535-2.877-.219.281a14.438,14.438,0,0,0,3.728,1.465,1.368,1.368,0,0,0,1.009-.14c.246-.175.5-.333.737-.535a1.351,1.351,0,0,0,.518-.8,1.421,1.421,0,0,0-.184-.877,16.391,16.391,0,0,0-1.93-2.377c-.632-.684-1.219-1.281-1.754-1.754h0c-.263-1.289-.465-2.307-.614-3.035l-.175-.781A.965.965,0,0,0,386.974,164.89Z" transform="translate(-370.585 -104.115)" fill="#eb996e"/>
        <path id="Trazado_192736" data-name="Trazado 192736" d="M151.893,345.242l33.132-41.132s17.614,14.833,18.079,15.3-27.553,27.728-45.553,38.281l-5.658-3.746Z" transform="translate(10.031 -121.545)" fill="#ffbe9d"/>
        <path id="Trazado_192737" data-name="Trazado 192737" d="M207.846,335.842s10.456-1.649,11.4-.965,8.123,5.509,8.123,5.509a37.636,37.636,0,0,0,3.167,4.263s2.333,2.754,4.123,3.026a7.894,7.894,0,0,0,2.895,0l4.675,12.939s-3.579,3.719-5.781,3.439-13.895-6.737-13.895-6.737l-2.895-.965s-11.281.412-11.833-3.026v-.965l11.149-.965,4.123.693-7.158-2.693s-10.456-.614-11.4-.877-2.061-1.754-1.649-2.632l2.2-.272s-2.377-1.64-2.289-3.158l9.895-1.57S206.741,337.894,207.846,335.842Z" transform="translate(-73.746 -125.303)" fill="#ffbe9d"/>
        <path id="Trazado_192738" data-name="Trazado 192738" d="M221.62,346.715a4.044,4.044,0,0,0,.877-.123c.57-.105,1.412-.246,2.447-.395,2.079-.307,4.956-.675,8.14-1.026a9.211,9.211,0,0,1,1.149-.1,3.507,3.507,0,0,1,1.061.184c.675.272,1.351.588,1.974.877,1.254.588,2.368,1.158,3.281,1.675a22.6,22.6,0,0,1,2.088,1.316,5.625,5.625,0,0,0,.754.518,2.465,2.465,0,0,0-.64-.658,16.429,16.429,0,0,0-2.035-1.456,32.56,32.56,0,0,0-3.263-1.754,19.459,19.459,0,0,0-2.009-.877,3.877,3.877,0,0,0-1.193-.219,10.725,10.725,0,0,0-1.219.1c-3.193.36-6.07.772-8.14,1.167-1.035.193-1.868.377-2.439.535a3.026,3.026,0,0,0-.833.237Z" transform="translate(-91.415 -126.527)" fill="#eb996e"/>
        <path id="Trazado_192739" data-name="Trazado 192739" d="M221.37,342.081c0,.07.807-.272,2.132-.526a11.57,11.57,0,0,1,9.8,2.535c1.026.877,1.544,1.544,1.605,1.491a5.667,5.667,0,0,0-1.395-1.754,10.86,10.86,0,0,0-10.079-2.632,5.526,5.526,0,0,0-2.061.886Z" transform="translate(-82.709 -126.06)" fill="#eb996e"/>
        <path id="Trazado_192740" data-name="Trazado 192740" d="M307.018,243.915A17.14,17.14,0,0,0,305,250.933c0,3.43,2.009,9.43,2.009,9.43l2.5,2.36s-1.64,7.5,7.895,9.649,62.684-28.43,62.684-28.43L381.5,203.38a47.252,47.252,0,0,0-13.289,8.772C362.64,217.7,330.9,241.1,330.9,241.1s-1.289-8.281-2.711-7.737S307.018,243.915,307.018,243.915Z" transform="translate(-302.663 -109.175)" fill="#a7e446"/>
        <path id="Trazado_192741" data-name="Trazado 192741" d="M199.059,201.4l28.781-6.14,7.491-7.7,33.1-.316,3.991,7.246,24.8,15.079s-6.246,41.307-8.526,46.123-20.333,57.895-20.333,57.895L196.2,304.977l-.614-33.333L193.5,255.512a47.975,47.975,0,0,1-.211-10.4C194.673,230.073,199.059,201.4,199.059,201.4Z" transform="translate(-120.223 -107.193)" fill="#a7e446"/>
        <path id="Trazado_192742" data-name="Trazado 192742" d="M156.392,302.825l23.684,16.219,8.263-11.781-2.211-1.965s12.2-10.088,11.465-17.2S184,262.658,184,262.658s-27.57-45.123-36.114-50c-1.193-.675-11.57,24.368-11.57,34.21s1.939,9.842,1.939,9.842,8.342,8.1,12.281,15.465,10.579,15.342,14.991,18.316Z" transform="translate(29.181 -110.313)" fill="#a7e446"/>
        <path id="Trazado_192743" data-name="Trazado 192743" d="M171.891,294.8a3.888,3.888,0,0,0-.64-.07,12.578,12.578,0,0,0-1.754.1,17.184,17.184,0,0,0-5.491,1.667,18.061,18.061,0,0,0-4.667,3.351,8.044,8.044,0,0,0-1.509,1.833,27.178,27.178,0,0,1,6.377-4.772,19.825,19.825,0,0,1,5.333-1.754C170.988,294.905,171.891,294.879,171.891,294.8Z" transform="translate(36.042 -120.393)" fill="#263238"/>
        <path id="Trazado_192744" data-name="Trazado 192744" d="M172.224,285.7a7.017,7.017,0,0,0-1.754,1.5,16.193,16.193,0,0,0-3.053,4.667,16.666,16.666,0,0,0-1.316,5.421,7.017,7.017,0,0,0,.1,2.307c.07,0,.053-.877.219-2.281a19.58,19.58,0,0,1,1.421-5.263,18.886,18.886,0,0,1,2.877-4.64C171.61,286.34,172.268,285.761,172.224,285.7Z" transform="translate(28.499 -119.284)" fill="#263238"/>
        <path id="Trazado_192745" data-name="Trazado 192745" d="M257.575,256.42a6.143,6.143,0,0,0-.219,1.2,12.98,12.98,0,0,0-.14,1.412,18.2,18.2,0,0,0-.053,1.886,21.243,21.243,0,0,0,.105,2.289c.044.825.2,1.693.342,2.632A30.026,30.026,0,0,0,262,276.99c.526.763,1.009,1.5,1.535,2.14a22.6,22.6,0,0,0,1.491,1.754,17.541,17.541,0,0,0,1.333,1.342,11.029,11.029,0,0,0,1.07.939,6.066,6.066,0,0,0,.974.728c.061-.079-1.307-1.14-3.14-3.219-.456-.526-.947-1.1-1.421-1.754s-.974-1.368-1.482-2.132a34.633,34.633,0,0,1-2.7-5.263,35,35,0,0,1-1.649-5.71c-.149-.877-.316-1.754-.377-2.57s-.132-1.561-.158-2.254C257.4,258.148,257.672,256.438,257.575,256.42Z" transform="translate(-147.598 -115.688)" fill="#263238"/>
        <path id="Trazado_192746" data-name="Trazado 192746" d="M221.33,233.23a3.505,3.505,0,0,0,.561-.421c.368-.281.877-.728,1.57-1.254,1.368-1.088,3.4-2.632,5.991-4.386s5.711-3.842,9.175-6.14a111.321,111.321,0,0,0,10.965-8.175h-.342c.368.526.746,1.105,1.1,1.7a25.087,25.087,0,0,1,3.026,8l.132.693.281-.64a111.849,111.849,0,0,0,6.482-19.132c.588-2.447.991-4.386,1.219-5.781.132-.675.2-1.2.254-1.561a3.63,3.63,0,0,0,.061-.544,2.237,2.237,0,0,0-.14.526c-.079.395-.184.877-.325,1.553-.281,1.351-.719,3.307-1.342,5.737a119.611,119.611,0,0,1-6.614,19.018h.421a25.439,25.439,0,0,0-3.061-8.149c-.36-.605-.746-1.193-1.114-1.754l-.149-.211-.193.175a117.25,117.25,0,0,1-10.877,8.184c-3.447,2.351-6.57,4.439-9.132,6.263s-4.579,3.36-5.912,4.491c-.684.544-1.175,1.018-1.518,1.325a4.973,4.973,0,0,0-.518.482Z" transform="translate(-109.572 -108.218)" fill="#263238"/>
        <path id="Trazado_192747" data-name="Trazado 192747" d="M275.964,196.41a1.563,1.563,0,0,0-.237.36c-.149.246-.368.605-.623,1.088-.535.947-1.272,2.351-2.132,4.14a70.808,70.808,0,0,0-5.342,14.912l-.14.605.491-.386a31.88,31.88,0,0,0,4.175-3.868,32.235,32.235,0,0,0,2.228-2.754l-.412-.123c.289,5.07.544,9.649.763,13.5h0c1.588,2.842,2.895,5.184,3.833,6.877l1.079,1.868a3.571,3.571,0,0,0,.4.64,3.36,3.36,0,0,0-.316-.684c-.246-.491-.579-1.132-.991-1.93-.877-1.7-2.158-4.07-3.693-6.939v.07c-.193-3.8-.421-8.43-.667-13.5v-.64l-.377.526a32.174,32.174,0,0,1-6.307,6.535l.36.219a75.872,75.872,0,0,1,5.167-14.912c.825-1.754,1.518-3.219,2.009-4.193.219-.456.4-.825.553-1.123a2.07,2.07,0,0,0,.175-.29Z" transform="translate(-168.311 -108.319)" fill="#263238"/>
        <path id="Trazado_192748" data-name="Trazado 192748" d="M308.625,250.834c.132,0,.877-6.947,1.711-15.535s1.368-15.57,1.246-15.579-.877,6.939-1.7,15.535S308.511,250.816,308.625,250.834Z" transform="translate(-235.929 -111.181)" fill="#263238"/>
        <path id="Trazado_192749" data-name="Trazado 192749" d="M362.55,258.31a7.342,7.342,0,0,0,1.535-1.465,23.169,23.169,0,0,0,2.939-4.2,23.729,23.729,0,0,0,1.947-4.746,7.6,7.6,0,0,0,.4-2.088,51.749,51.749,0,0,1-2.754,6.614,50.588,50.588,0,0,1-4.07,5.886Z" transform="translate(-341.02 -114.385)" fill="#263238"/>
        <path id="Trazado_192750" data-name="Trazado 192750" d="M361.839,259a3.7,3.7,0,0,0,.43-.5,10.724,10.724,0,0,0,.947-1.526,15.9,15.9,0,0,0,1.193-11.526,11.159,11.159,0,0,0-.605-1.684,2.071,2.071,0,0,0-.325-.579c-.07,0,.281.877.614,2.342a17.807,17.807,0,0,1,.36,5.754,18.007,18.007,0,0,1-1.526,5.553C362.3,258.18,361.777,258.943,361.839,259Z" transform="translate(-336.002 -114.062)" fill="#263238"/>
        <path id="Trazado_192751" data-name="Trazado 192751" d="M202.41,241.59a4.948,4.948,0,0,0-.474.877l-1.158,2.456-3.86,8.088c-1.509,3.167-2.833,6.044-3.737,8.158-.456,1.061-.807,1.921-1.026,2.518a4.586,4.586,0,0,0-.316.956,3.861,3.861,0,0,0,.474-.877l1.167-2.456c1.026-2.167,2.368-4.982,3.851-8.088s2.842-6.044,3.737-8.158c.456-1.061.807-1.921,1.035-2.518a4.331,4.331,0,0,0,.307-.956Z" transform="translate(-24.31 -113.867)" fill="#263238"/>
        <path id="Trazado_192752" data-name="Trazado 192752" d="M276.22,296.45a4.514,4.514,0,0,0,.254,1.07c.193.675.5,1.649.877,2.851.807,2.386,2.018,5.658,3.509,9.184s3.079,6.658,4.272,8.877c.6,1.114,1.1,2,1.465,2.632a5.261,5.261,0,0,0,.6.877,5.026,5.026,0,0,0-.447-1c-.351-.719-.8-1.614-1.325-2.675-1.114-2.246-2.632-5.386-4.14-8.9s-2.772-6.763-3.649-9.123c-.412-1.114-.754-2.044-1.035-2.789a5.6,5.6,0,0,0-.377-1Z" transform="translate(-183.111 -120.604)" fill="#263238"/>
        <path id="Trazado_192753" data-name="Trazado 192753" d="M280.3,313.21a5.782,5.782,0,0,0,.7,1.632,32.616,32.616,0,0,0,2.219,3.632,33.209,33.209,0,0,0,2.675,3.325,5.728,5.728,0,0,0,1.289,1.2c.1-.088-1.693-2.088-3.588-4.789S280.427,313.148,280.3,313.21Z" transform="translate(-186.678 -122.663)" fill="#263238"/>
        <path id="Trazado_192754" data-name="Trazado 192754" d="M267.326,304.013a3.912,3.912,0,0,0,.1-.675c.053-.482.114-1.132.193-1.947.158-1.693.4-4.14.719-7.158.658-6.044,1.684-14.386,3.447-23.482a219.821,219.821,0,0,1,5.684-23.061c.43-1.456.877-2.763,1.228-3.912s.693-2.14.974-2.939.465-1.395.623-1.86a2.928,2.928,0,0,0,.184-.658,5.58,5.58,0,0,0-.272.632c-.175.456-.4,1.061-.7,1.825s-.658,1.754-1.044,2.921-.877,2.439-1.3,3.895a195.347,195.347,0,0,0-5.825,23.044c-1.754,9.123-2.746,17.482-3.325,23.535-.272,3.026-.474,5.482-.57,7.184l-.105,1.947a3.089,3.089,0,0,0-.009.71Z" transform="translate(-168.577 -113.466)" fill="#263238"/>
        <path id="Trazado_192755" data-name="Trazado 192755" d="M284.369,318.679a14.079,14.079,0,0,1-.553-4.132,13.473,13.473,0,0,1,1.132-4.018,2.943,2.943,0,0,0-.763,1.018,7.71,7.71,0,0,0-.825,2.965,7.552,7.552,0,0,0,.4,3.053C284.036,318.311,284.326,318.705,284.369,318.679Z" transform="translate(-187.112 -122.334)" fill="#263238"/>
        <path id="Trazado_192756" data-name="Trazado 192756" d="M282.566,324.3c.132,0,.2-.57.158-1.254s-.175-1.246-.3-1.237-.2.57-.158,1.263S282.443,324.31,282.566,324.3Z" transform="translate(-183.948 -123.719)" fill="#263238"/>
        <path id="Trazado_192757" data-name="Trazado 192757" d="M146.96,305.31a5.993,5.993,0,0,0,1.053.351c.684.2,1.658.509,2.86.93s2.632.982,4.132,1.649,3.175,1.509,4.868,2.447a72.425,72.425,0,0,1,8.272,5.447c1.009.772,1.816,1.4,2.368,1.851a4.909,4.909,0,0,0,.877.658,4.824,4.824,0,0,0-.781-.789c-.518-.491-1.3-1.167-2.281-1.974a59.744,59.744,0,0,0-8.254-5.588c-1.7-.947-3.368-1.754-4.921-2.439a44.752,44.752,0,0,0-4.2-1.57,28.646,28.646,0,0,0-2.912-.789,4.754,4.754,0,0,0-1.079-.184Z" transform="translate(46.078 -121.693)" fill="#263238"/>
        <path id="Trazado_192758" data-name="Trazado 192758" d="M150.97,305.319c0,.079,1.2,0,3.123.211a32.115,32.115,0,0,1,7.325,1.535,40.146,40.146,0,0,1,6.833,3.088,30.57,30.57,0,0,0,2.711,1.561,2.939,2.939,0,0,0-.64-.544,22.708,22.708,0,0,0-1.9-1.289,32.54,32.54,0,0,0-6.86-3.246,28.018,28.018,0,0,0-7.447-1.43,19.364,19.364,0,0,0-2.3,0,2.772,2.772,0,0,0-.842.114Z" transform="translate(42.99 -121.675)" fill="#263238"/>
        <g id="Grupo_135078" data-name="Grupo 135078" transform="translate(168.223 130.863)" opacity="0.3">
          <path id="Trazado_192759" data-name="Trazado 192759" d="M201.737,245.17a18.754,18.754,0,0,1-8.228,18.272C195.579,258.179,199.158,250.582,201.737,245.17Z" transform="translate(-193.509 -245.17)"/>
        </g>
        <g id="Grupo_135079" data-name="Grupo 135079" transform="translate(116.582 104.398)" opacity="0.3">
          <path id="Trazado_192760" data-name="Trazado 192760" d="M258.282,220.974a20.044,20.044,0,0,1-4.5,5.982l.088-4.8-21.93,9.763L255.484,215c1.289,2.167,1.509,3.789,2.8,5.956" transform="translate(-231.94 -215)"/>
        </g>
        <g id="Grupo_135080" data-name="Grupo 135080" transform="translate(101.293 102.047)" opacity="0.3">
          <path id="Trazado_192761" data-name="Trazado 192761" d="M274.451,216.908c.939-1.474,3.509-4.588,3.509-4.588.088,2.3.289,5.447.368,7.754l.333,5.518c-.342-1.921-.6-5.632-.939-7.561l-4.088,3.877a5.772,5.772,0,0,1,.816-5Z" transform="translate(-273.39 -212.32)"/>
        </g>
        <g id="Grupo_135081" data-name="Grupo 135081" transform="translate(71.323 112.293)" opacity="0.3">
          <path id="Trazado_192762" data-name="Trazado 192762" d="M312.975,224l-2.842,25.3C308.958,241.061,306.712,236.588,312.975,224Z" transform="translate(-308.76 -224)"/>
        </g>
        <g id="Grupo_135082" data-name="Grupo 135082" transform="translate(12.205 131.837)" opacity="0.3">
          <path id="Trazado_192763" data-name="Trazado 192763" d="M363.472,263.21c1.053-.877,3.386-1.421,4.588-2.07,5.447-2.965,8.333-8.386,10.456-14.211l.193-.649c-.219,7.807-5.175,16.158-12.281,19.368a4.245,4.245,0,0,1-2.342.491,1.649,1.649,0,0,1-1.456-1.64,2.114,2.114,0,0,1,.842-1.289Z" transform="translate(-362.63 -246.28)"/>
        </g>
        <g id="Grupo_135083" data-name="Grupo 135083" transform="translate(110.33 151.556)" opacity="0.3">
          <path id="Trazado_192764" data-name="Trazado 192764" d="M266.9,287.663c-9.018-2.991-13.368-11.482-15.684-18.9a30.1,30.1,0,0,0,1.149,9.535,15.254,15.254,0,0,0,5.377,7.825,10.245,10.245,0,0,0,9.158,1.544" transform="translate(-251.19 -268.76)"/>
        </g>
        <g id="Grupo_135084" data-name="Grupo 135084" transform="translate(194.793 184.039)" opacity="0.3">
          <path id="Trazado_192765" data-name="Trazado 192765" d="M151.26,305.974a26.2,26.2,0,0,1,18.254,5.868c.368.307.772.746.614,1.2a.877.877,0,0,1-.877.474,2.553,2.553,0,0,1-1-.412,78.553,78.553,0,0,0-16.982-7.316" transform="translate(-151.26 -305.79)"/>
        </g>
        <g id="Grupo_135085" data-name="Grupo 135085" transform="translate(86.238 166.079)" opacity="0.3">
          <path id="Trazado_192766" data-name="Trazado 192766" d="M277.964,285.82a1.842,1.842,0,0,1,2.482-.044,5.377,5.377,0,0,1,1.439,2.316L292.6,314.679l1.64,3.939-11.228-18.825c-2.237-3.754-4.518-7.614-5.263-11.921A2.518,2.518,0,0,1,277.964,285.82Z" transform="translate(-277.62 -285.316)"/>
        </g>
        <path id="Trazado_192767" data-name="Trazado 192767" d="M268.685,113.156c-6.64-9.272-17.649-14.693-28.868-16.754-4.719-.877-7.816-.237-12.518.719a20.307,20.307,0,0,0-12.044,6.9c-3.57,4.439-6.658,9.474-7.64,15.088-1.009,5.772-2.018,11.579-1.956,17.43s1.281,11.825,4.386,16.772l14.667,3.509c8.167.8,16.456,1.6,24.561.246s16.123-5.158,20.842-11.877C276.676,135.875,275.334,122.428,268.685,113.156Z" transform="translate(-108.427 -95.986)" fill="#263238"/>
        <path id="Trazado_192768" data-name="Trazado 192768" d="M286.622,169.253a3.056,3.056,0,0,1-.939.719,7.21,7.21,0,0,1-3.114.877,7.713,7.713,0,0,1-3.044-14.956,7.2,7.2,0,0,1,3.2-.447c.763.079,1.158.254,1.14.3a8.377,8.377,0,0,0-4.105.728,7.693,7.693,0,0,0-3.342,2.833,7.3,7.3,0,0,0,1.956,9.649,7.667,7.667,0,0,0,4.184,1.307A12.129,12.129,0,0,0,286.622,169.253Z" transform="translate(-181.03 -103.285)" fill="#e0e0e0"/>
        <path id="Trazado_192769" data-name="Trazado 192769" d="M221.644,162.257a11.114,11.114,0,0,0-4.482-8.667,7.987,7.987,0,0,0-9.412.211l-2.509,2.632a9.57,9.57,0,0,0-6.14,9.3,10.526,10.526,0,0,0,6.728,9.044,11.632,11.632,0,0,0,11.219-1.965A13.017,13.017,0,0,0,221.644,162.257Z" transform="translate(-49.921 -102.885)" fill="#263238"/>
        <path id="Trazado_192770" data-name="Trazado 192770" d="M211.9,172.54a5.07,5.07,0,0,0,.991-2.895c0-1.912-1.228-4.482-2.974-6.886a20.176,20.176,0,0,0-5.632-5.14c-1.684-1.044-2.851-1.465-2.807-1.579a8.158,8.158,0,0,1,3.061,1.132,18.114,18.114,0,0,1,8.132,8.947,8.035,8.035,0,0,1,.728,3.509,4.246,4.246,0,0,1-.807,2.316C212.225,172.426,211.927,172.575,211.9,172.54Z" transform="translate(-43.757 -103.361)" fill="#455a64"/>
        <path id="Trazado_192771" data-name="Trazado 192771" d="M214.107,176.665c-.246,0,1.053-4.447,0-9.833s-3.868-9.018-3.658-9.132a7.974,7.974,0,0,1,1.816,2.325,20.658,20.658,0,0,1,2.684,13.8,8.114,8.114,0,0,1-.842,2.842Z" transform="translate(-53.41 -103.565)" fill="#455a64"/>
        <path id="Trazado_192772" data-name="Trazado 192772" d="M236,181.635c.43-5.193.825-9.447.825-9.421s-12-2.105-14.351-17.816c-1.175-7.807-.667-20.6.088-31.044.675-9.4,9.509-21.711,21.132-21.053l5.2-.272,19.3,9.123a5.518,5.518,0,0,1,4.886,5.64l-4.219,67.193-35.825,37.719-2.053-10.64Z" transform="translate(-121.242 -96.728)" fill="#ffbe9d"/>
        <path id="Trazado_192773" data-name="Trazado 192773" d="M259.793,158.86a3.316,3.316,0,0,0-1.018-2.105,3.368,3.368,0,0,0-4.07-.5,4.526,4.526,0,0,0-1.982,4.132h0a4.105,4.105,0,0,0,2.825,1.895,2.9,2.9,0,0,1,.553.053,3.675,3.675,0,0,0,2.544-.825A3.307,3.307,0,0,0,259.793,158.86Z" transform="translate(-135.087 -103.33)" fill="#eb996e"/>
        <path id="Trazado_192774" data-name="Trazado 192774" d="M270.08,138.238A2.017,2.017,0,0,0,272,140.291a1.921,1.921,0,0,0,2.088-1.8,2,2,0,0,0-1.912-2.044,1.921,1.921,0,0,0-2.1,1.789Z" transform="translate(-164.62 -100.954)" fill="#263238"/>
        <path id="Trazado_192775" data-name="Trazado 192775" d="M266.371,132.941c.246.263,1.754-.877,3.947-.825s3.746,1.123,3.982.877c.114-.114-.14-.588-.825-1.1a5.526,5.526,0,0,0-3.184-1.018,5.36,5.36,0,0,0-3.14.982C266.485,132.354,266.248,132.827,266.371,132.941Z" transform="translate(-161.578 -100.271)" fill="#263238"/>
        <path id="Trazado_192776" data-name="Trazado 192776" d="M265.279,150.326a14.483,14.483,0,0,0-3.509-.667c-.553-.061-1.079-.175-1.167-.553a2.711,2.711,0,0,1,.386-1.632l1.667-4.2c2.325-5.974,4.018-10.886,3.772-10.974s-2.325,4.675-4.64,10.649l-1.605,4.219a3.132,3.132,0,0,0-.307,2.167,1.369,1.369,0,0,0,.877.816,3.507,3.507,0,0,0,.93.14C263.911,150.458,265.271,150.458,265.279,150.326Z" transform="translate(-147.969 -100.445)" fill="#263238"/>
        <path id="Trazado_192777" data-name="Trazado 192777" d="M239.443,181.242A39.974,39.974,0,0,0,260.5,175.83s-5.693,10.816-21.386,9.211Z" transform="translate(-123.861 -105.791)" fill="#eb996e"/>
        <path id="Trazado_192778" data-name="Trazado 192778" d="M260.462,154.62c-.36,0-.386,2.325-2.412,3.982s-4.518,1.368-4.544,1.693c0,.149.553.465,1.614.5a5.842,5.842,0,0,0,3.79-1.281,5.114,5.114,0,0,0,1.868-3.342C260.874,155.2,260.62,154.611,260.462,154.62Z" transform="translate(-136.792 -103.187)" fill="#263238"/>
        <path id="Trazado_192779" data-name="Trazado 192779" d="M265.89,122.741c.377.491,1.877,0,3.667,0s3.316.36,3.667-.158c.158-.246-.079-.737-.737-1.211a5.307,5.307,0,0,0-5.912.132C265.943,122,265.723,122.5,265.89,122.741Z" transform="translate(-160.08 -99.001)" fill="#263238"/>
        <path id="Trazado_192780" data-name="Trazado 192780" d="M250.916,138.732a2.009,2.009,0,0,1-2.035,1.93,1.93,1.93,0,0,1-1.991-1.9,2.018,2.018,0,0,1,2.035-1.939,1.93,1.93,0,0,1,1.991,1.912Z" transform="translate(-121.106 -101.001)" fill="#263238"/>
        <path id="Trazado_192781" data-name="Trazado 192781" d="M250.964,134.748c-.263.254-1.754-.947-3.895-1.044s-3.8.921-4.018.64c-.114-.123.167-.579.877-1.053a5.474,5.474,0,0,1,3.237-.833,5.263,5.263,0,0,1,3.079,1.149C250.885,134.152,251.1,134.634,250.964,134.748Z" transform="translate(-117.803 -100.464)" fill="#263238"/>
        <path id="Trazado_192782" data-name="Trazado 192782" d="M250.375,131.281c-.4.474-1.868-.105-3.658-.211s-3.325.175-3.649-.351c-.149-.254.114-.737.8-1.175a5.316,5.316,0,0,1,5.895.456C250.366,130.536,250.551,131.053,250.375,131.281Z" transform="translate(-117.24 -100.023)" fill="#263238"/>
        <path id="Trazado_192783" data-name="Trazado 192783" d="M215.485,148.34c0-1.167,1.386-3.912,2.535-4.079,3.088-.456,8.64-.158,8.623,7.667,0,10.7-10.763,8.465-10.781,8.158S215.432,152.375,215.485,148.34Z" transform="translate(-69.279 -101.898)" fill="#ffbe9d"/>
        <path id="Trazado_192784" data-name="Trazado 192784" d="M217.546,156.417a3.544,3.544,0,0,0,.5.281,1.86,1.86,0,0,0,1.395,0c1.132-.412,2.088-2.2,2.14-4.132a6.219,6.219,0,0,0-.518-2.632,2.132,2.132,0,0,0-1.395-1.43.947.947,0,0,0-1.105.509c-.14.3-.07.509-.132.526s-.228-.175-.14-.623a1.158,1.158,0,0,1,.421-.667,1.4,1.4,0,0,1,1.035-.272,2.632,2.632,0,0,1,1.939,1.667,6.3,6.3,0,0,1,.64,2.982c-.07,2.158-1.184,4.167-2.728,4.614a1.982,1.982,0,0,1-1.7-.289C217.546,156.68,217.546,156.434,217.546,156.417Z" transform="translate(-66.779 -102.369)" fill="#eb996e"/>
        <path id="Trazado_192785" data-name="Trazado 192785" d="M249.212,138.681l-2.886,2.632c-10.974-11.939-32.035-41.412-30.86-39.658a34.114,34.114,0,0,1,16.816-.754c8.6,2.035,24.8,7.439,23.895,17.667S249.212,138.681,249.212,138.681Z" transform="translate(-98.796 -96.502)" fill="#263238"/>
        <path id="Trazado_192786" data-name="Trazado 192786" d="M210.884,172.452a3.065,3.065,0,0,0,.877.833,7.36,7.36,0,0,0,2.991,1.228,7.9,7.9,0,0,0,4.772-.658,7.675,7.675,0,0,0,3.851-4.474,7.763,7.763,0,0,0-.316-5.895,7.974,7.974,0,0,0-3.386-3.43,7.4,7.4,0,0,0-3.123-.877c-.763,0-1.175.105-1.167.158a8.473,8.473,0,0,1,3.982,1.237,7.728,7.728,0,0,1,2.956,3.246,7.307,7.307,0,0,1-3.158,9.281,7.676,7.676,0,0,1-4.325.763A10.967,10.967,0,0,1,210.884,172.452Z" transform="translate(-62.415 -103.747)" fill="#e0e0e0"/>
        <path id="Trazado_192787" data-name="Trazado 192787" d="M247.766,147.814a19.717,19.717,0,0,1,.053-2.482,38.109,38.109,0,0,0-.465-6.711,45.789,45.789,0,0,0-8.833-20.105A72.631,72.631,0,0,0,222.328,103.4c-2.333-1.64-4.272-2.895-5.623-3.754a16.756,16.756,0,0,1-2.061-1.377,2.115,2.115,0,0,1,.588.263c.377.193.93.474,1.623.877,1.395.781,3.386,1.974,5.772,3.561a68.658,68.658,0,0,1,16.482,15.105,44.359,44.359,0,0,1,8.772,20.474,33.167,33.167,0,0,1,.237,6.789,13.073,13.073,0,0,1-.2,1.842,2.633,2.633,0,0,1-.149.632Z" transform="translate(-90.096 -96.266)" fill="#455a64"/>
        <path id="Trazado_192788" data-name="Trazado 192788" d="M210.9,98a2.412,2.412,0,0,1,.605.246c.395.175.956.465,1.675.877,1.439.754,3.509,1.912,5.947,3.509a91.332,91.332,0,0,1,8.272,6.018A52.633,52.633,0,0,1,236.3,117.5a24.465,24.465,0,0,1,3.211,5.711,22.51,22.51,0,0,1,1.368,5.939,35.263,35.263,0,0,1-.675,10.237,58.962,58.962,0,0,1-1.754,6.675c-.246.781-.439,1.377-.588,1.754a2.633,2.633,0,0,1-.246.605,17.237,17.237,0,0,1,.553-2.465c.395-1.57.982-3.851,1.491-6.693a36.684,36.684,0,0,0,.518-10.07,22.562,22.562,0,0,0-1.368-5.754,23.851,23.851,0,0,0-3.132-5.526,53.676,53.676,0,0,0-8.772-8.772,101,101,0,0,0-8.123-6.14c-2.4-1.623-4.386-2.842-5.8-3.675A19.154,19.154,0,0,1,210.9,98Z" transform="translate(-79.608 -96.233)" fill="#455a64"/>
        <path id="Trazado_192789" data-name="Trazado 192789" d="M253.575,138.966a9,9,0,0,1-1.307-1.439l-3.351-4.079c-2.8-3.465-6.632-8.281-10.825-13.632s-7.965-10.211-10.667-13.763l-3.167-4.219a9.649,9.649,0,0,1-1.079-1.614,10.333,10.333,0,0,1,1.307,1.43l3.342,4.079c2.807,3.509,6.64,8.289,10.833,13.64s7.965,10.219,10.684,13.763l3.167,4.228a11.258,11.258,0,0,1,1.061,1.605Z" transform="translate(-102.966 -96.506)" fill="#e0e0e0"/>
        <path id="Trazado_192790" data-name="Trazado 192790" d="M250.395,153.771a12.28,12.28,0,0,1,1.982.061,11.883,11.883,0,0,1,1.833.772c.114-.061-.5-.956-1.754-1.219A2.175,2.175,0,0,0,250.395,153.771Z" transform="translate(-127.488 -103.022)" fill="#eb996e"/>
        <path id="Trazado_192791" data-name="Trazado 192791" d="M237.53,138.466a3.588,3.588,0,0,0,2.018.246,3.667,3.667,0,0,0,1.965-.482,6.264,6.264,0,0,0-1.991,0,6.878,6.878,0,0,0-1.991.237Z" transform="translate(-103.491 -101.164)" fill="#eb996e"/>
        <path id="Trazado_192792" data-name="Trazado 192792" d="M238.345,139.338c0,.132.605.316,1.351.553s1.36.439,1.421.316-.491-.509-1.289-.754S238.353,139.215,238.345,139.338Z" transform="translate(-103.815 -101.3)" fill="#eb996e"/>
        <path id="Trazado_192793" data-name="Trazado 192793" d="M276.06,137.114c-.044.123.465.421,1.14.667s1.254.351,1.3.228-.465-.412-1.14-.658S276.1,137.009,276.06,137.114Z" transform="translate(-174.275 -101.032)" fill="#eb996e"/>
        <path id="Trazado_192794" data-name="Trazado 192794" d="M275.969,139.4c.044.123.605,0,1.254-.184s1.149-.509,1.105-.623-.605,0-1.254.184S275.934,139.287,275.969,139.4Z" transform="translate(-174.027 -101.213)" fill="#eb996e"/>
      </g>
      <g id="freepik--Table--inject-4" transform="translate(25.08 410.277)">
        <path id="Trazado_192795" data-name="Trazado 192795" d="M425.08,463.708c0,.123-89.553.228-200,.228s-200-.105-200-.228,89.526-.228,200-.228S425.08,463.576,425.08,463.708Z" transform="translate(-25.08 -463.48)" fill="#263238"/>
      </g>
    </g>
  </g>
</svg>
