<svg xmlns="http://www.w3.org/2000/svg" width="190" height="110" viewBox="0 0 190 110">
  <g id="Grupo_135166" data-name="Grupo 135166" transform="translate(-180 -2138)">
    <rect id="Rectángulo_36775" data-name="Rectángulo 36775" width="190" height="110" transform="translate(180 2138)" fill="none"/>
    <g id="Grupo_109187" data-name="Grupo 109187" transform="translate(-3442.279 2768.357)" opacity="0.3">
      <path id="Trazado_158283" data-name="Trazado 158283" d="M3677.784-530.075h0a16.354,16.354,0,0,0,23.129,0l67.216-67.214a16.357,16.357,0,0,0,0-23.129,16.355,16.355,0,0,0-23.129,0L3677.784-553.2A16.353,16.353,0,0,0,3677.784-530.075Z" transform="translate(14.296)" fill="#fc4b52"/>
      <path id="Trazado_158284" data-name="Trazado 158284" d="M3652.069-530.075h0a16.354,16.354,0,0,0,23.129,0l67.216-67.214a16.358,16.358,0,0,0,0-23.129,16.355,16.355,0,0,0-23.129,0L3652.069-553.2A16.354,16.354,0,0,0,3652.069-530.075Z" transform="translate(0)" fill="#feca2e"/>
    </g>
    <g id="crm" transform="translate(226 2143)">
      <path id="Trazado_192991" data-name="Trazado 192991" d="M36.645,51A12.642,12.642,0,0,1,49.29,63.645v4.742H24V63.645A12.642,12.642,0,0,1,36.645,51Z" transform="translate(13.355 29.032)" fill="#eb5960"/>
      <path id="Trazado_192992" data-name="Trazado 192992" d="M58.645,51A12.642,12.642,0,0,1,71.29,63.645v4.742H46V63.645A12.642,12.642,0,0,1,58.645,51Z" transform="translate(26.129 29.032)" fill="#feca2e"/>
      <path id="Trazado_192993" data-name="Trazado 192993" d="M14.645,51A12.642,12.642,0,0,1,27.29,63.645v4.742H2V63.645A12.642,12.642,0,0,1,14.645,51Z" transform="translate(0.581 29.032)" fill="#9de655"/>
      <g id="Grupo_135165" data-name="Grupo 135165" transform="translate(6.557 2.581)">
        <circle id="Elipse_5142" data-name="Elipse 5142" cx="8.082" cy="8.082" r="8.082" transform="translate(0 61.058)" fill="#f0d0b4"/>
        <circle id="Elipse_5143" data-name="Elipse 5143" cx="8.082" cy="8.082" r="8.082" transform="translate(35.36 61.058)" fill="#f0d0b4"/>
        <circle id="Elipse_5144" data-name="Elipse 5144" cx="8.082" cy="8.082" r="8.082" transform="translate(69.711 61.058)" fill="#f0d0b4"/>
        <path id="Trazado_192994" data-name="Trazado 192994" d="M52.375,40.536a3.358,3.358,0,0,1-4.742,0,3.353,3.353,0,0,1-4.742,4.742L41.5,43.887l-.016-.016a3.311,3.311,0,0,0,.806-2.165,3.353,3.353,0,0,0-5.722-2.371,3.353,3.353,0,0,0-4.742-4.742,3.353,3.353,0,0,0-4.742-4.742,3.353,3.353,0,0,0-4.742-4.742l-.6.6-.806-.806A13.419,13.419,0,0,1,35.541,3.012,13.66,13.66,0,0,1,39.9,5.936l.806.806-8.836,8.836a2.235,2.235,0,0,0,1.581,3.809H39.4a3.171,3.171,0,0,0,2.245-.933l2.229-2.229H45.72a10.734,10.734,0,0,0,4.125-.822l1.138.032,9.484,9.484,1.391,1.391a3.353,3.353,0,0,1-4.742,4.742,3.353,3.353,0,0,1-4.742,4.742,3.358,3.358,0,0,1,0,4.742Z" transform="translate(2.733 -2)" fill="#f0d0b4"/>
        <path id="Trazado_192995" data-name="Trazado 192995" d="M44.62,15.4a10.734,10.734,0,0,1-4.125.822H38.645l-2.229,2.229a3.171,3.171,0,0,1-2.245.933H28.229a2.235,2.235,0,0,1-1.581-3.809l8.836-8.836.806-.806a13.66,13.66,0,0,1,4.363-2.924A13.416,13.416,0,0,1,55.258,24.9l-.016.016-9.484-9.484Z" transform="translate(7.959 -2)" fill="#f0d0b4"/>
        <path id="Trazado_192996" data-name="Trazado 192996" d="M34.923,25.98a3.372,3.372,0,0,1,.98,2.371,3.311,3.311,0,0,1-.806,2.165,1.088,1.088,0,0,1-.174.205l-.6.6-.6.6a3.353,3.353,0,0,1-4.742-4.742l1.2-1.2a3.358,3.358,0,0,1,4.742,0Z" transform="translate(9.121 11.355)" fill="#f0d0b4"/>
        <path id="Trazado_192997" data-name="Trazado 192997" d="M28.923,19.98a3.358,3.358,0,0,1,0,4.742l-1.2,1.2a3.353,3.353,0,0,1-4.742-4.742l1.2-1.2a3.358,3.358,0,0,1,4.742,0Z" transform="translate(5.637 7.871)" fill="#f0d0b4"/>
        <path id="Trazado_192998" data-name="Trazado 192998" d="M31.923,22.98a3.358,3.358,0,0,1,0,4.742l-1.2,1.2a3.353,3.353,0,0,1-4.742-4.742l1.2-1.2a3.358,3.358,0,0,1,4.742,0Z" transform="translate(7.379 9.613)" fill="#f0d0b4"/>
        <path id="Trazado_192999" data-name="Trazado 192999" d="M25.923,16.98a3.358,3.358,0,0,1,0,4.742l-1.2,1.2a3.353,3.353,0,0,1-4.742-4.742l.6-.6.6-.6a3.358,3.358,0,0,1,4.742,0Z" transform="translate(3.895 6.129)" fill="#f0d0b4"/>
      </g>
      <path id="Trazado_193000" data-name="Trazado 193000" d="M90.506,79.667a9.463,9.463,0,0,0-4.151-16.88V61.065a7.912,7.912,0,0,0-7.9-7.9H51.581V47.4a4.9,4.9,0,0,0,7.886-3.741,4.92,4.92,0,0,0,4.742-4.742,4.92,4.92,0,0,0,4.742-4.742,4.923,4.923,0,0,0,3.315-8.4l-.329-.329A14.984,14.984,0,0,0,50,5.116,14.978,14.978,0,0,0,28.859,26.327a4.9,4.9,0,0,0,3.771,7.849,4.92,4.92,0,0,0,4.742,4.742,4.92,4.92,0,0,0,4.742,4.742A4.856,4.856,0,0,0,48.419,48.2v4.963H21.548a7.912,7.912,0,0,0-7.9,7.9v1.723a9.463,9.463,0,0,0-4.151,16.88A14.241,14.241,0,0,0,1,92.677V99H29.452V92.677a14.241,14.241,0,0,0-8.494-13.01,9.463,9.463,0,0,0-4.151-16.88V61.065a4.748,4.748,0,0,1,4.742-4.742H48.419v6.465a9.463,9.463,0,0,0-4.151,16.88,14.241,14.241,0,0,0-8.494,13.01V99H64.226V92.677a14.241,14.241,0,0,0-8.494-13.01,9.463,9.463,0,0,0-4.151-16.88V56.323H78.452a4.748,4.748,0,0,1,4.742,4.742v1.723a9.463,9.463,0,0,0-4.151,16.88,14.241,14.241,0,0,0-8.494,13.01V99H99V92.677a14.241,14.241,0,0,0-8.494-13.01ZM60.3,4.161a11.818,11.818,0,0,1,9.381,19.023l-7.268-7.268a12.766,12.766,0,0,0,1.353-1.154l-2.235-2.235a9.157,9.157,0,0,1-6.517,2.7H52.507l-2.7,2.7a1.574,1.574,0,0,1-1.119.463H42.751a.655.655,0,0,1-.463-1.118l9.644-9.644A11.758,11.758,0,0,1,60.3,4.161Zm-20.6,0a11.741,11.741,0,0,1,8.047,3.176l-7.7,7.7a3.817,3.817,0,0,0,2.7,6.514H48.69a4.713,4.713,0,0,0,3.354-1.389l1.772-1.772h1.2a12.357,12.357,0,0,0,4.535-.863L70.03,28.007a1.773,1.773,0,0,1-2.507,2.507l-3.76-3.76-2.235,2.235,3.76,3.76a1.773,1.773,0,0,1-2.507,2.507l-3.76-3.76L56.786,33.73l3.76,3.76A1.773,1.773,0,0,1,58.039,40l-3.76-3.76-2.235,2.235,3.76,3.76A1.773,1.773,0,0,1,53.3,44.74l-.528-.528A4.918,4.918,0,0,0,48.4,37.372,4.92,4.92,0,0,0,43.66,32.63a4.92,4.92,0,0,0-4.742-4.742A4.93,4.93,0,0,0,34,23.129a4.877,4.877,0,0,0-2.905.966A11.819,11.819,0,0,1,39.7,4.161Zm-8.67,25.1a1.765,1.765,0,0,1,.518-1.253l1.2-1.2a1.773,1.773,0,0,1,2.507,2.507l-1.2,1.2a1.773,1.773,0,0,1-3.025-1.253ZM35.774,34a1.765,1.765,0,0,1,.518-1.253l1.2-1.2A1.773,1.773,0,0,1,40,34.058l-1.2,1.2A1.773,1.773,0,0,1,35.774,34Zm4.742,4.742a1.765,1.765,0,0,1,.518-1.253l1.2-1.2A1.773,1.773,0,0,1,44.74,38.8l-1.2,1.2a1.773,1.773,0,0,1-3.025-1.253Zm6.514,6.514a1.773,1.773,0,0,1-1.253-3.025l1.2-1.2a1.773,1.773,0,0,1,2.507,2.507l-1.2,1.2A1.765,1.765,0,0,1,47.03,45.258ZM26.29,92.677v3.161H23.129V89.516H19.968v6.323H10.484V89.516H7.323v6.323H4.161V92.677a11.065,11.065,0,0,1,22.129,0ZM21.548,72.129a6.323,6.323,0,1,1-6.323-6.323A6.329,6.329,0,0,1,21.548,72.129ZM61.065,92.677v3.161H57.9V89.516H54.742v6.323H45.258V89.516H42.1v6.323H38.935V92.677a11.065,11.065,0,0,1,22.129,0ZM56.323,72.129A6.323,6.323,0,1,1,50,65.806,6.329,6.329,0,0,1,56.323,72.129Zm22.129,0a6.323,6.323,0,1,1,6.323,6.323A6.329,6.329,0,0,1,78.452,72.129Zm17.387,23.71H92.677V89.516H89.516v6.323H80.032V89.516H76.871v6.323H73.71V92.677a11.065,11.065,0,1,1,22.129,0Z" transform="translate(0 0)"/>
      <path id="Trazado_193001" data-name="Trazado 193001" d="M38,38h3.161v3.161H38Z" transform="translate(21.484 21.484)"/>
      <path id="Trazado_193002" data-name="Trazado 193002" d="M42,38h3.161v3.161H42Z" transform="translate(23.806 21.484)"/>
      <path id="Trazado_193003" data-name="Trazado 193003" d="M46,38h3.161v3.161H46Z" transform="translate(26.129 21.484)"/>
      <path id="Trazado_193004" data-name="Trazado 193004" d="M16,38h3.161v3.161H16Z" transform="translate(8.71 21.484)"/>
      <path id="Trazado_193005" data-name="Trazado 193005" d="M20,38h3.161v3.161H20Z" transform="translate(11.032 21.484)"/>
      <path id="Trazado_193006" data-name="Trazado 193006" d="M24,38h3.161v3.161H24Z" transform="translate(13.355 21.484)"/>
    </g>
  </g>
</svg>
