<svg xmlns="http://www.w3.org/2000/svg" width="107.658" height="99.259" viewBox="0 0 107.658 99.259">
  <g id="Grupo_80227" data-name="Grupo 80227" transform="translate(-0.581 -2.347)">
    <g id="Grupo_80215" data-name="Grupo 80215" transform="translate(17.611 12.527)">
      <g id="Grupo_80214" data-name="Grupo 80214">
        <path id="Trazado_115178" data-name="Trazado 115178" d="M39.449,0A39.449,39.449,0,1,1,0,39.449,39.449,39.449,0,0,1,39.449,0Z" fill="#fff" stroke="#12263f" stroke-width="3"/>
        <path id="Trazado_115170" data-name="Trazado 115170" d="M47.265,10.059c-.953.056-1.064.642-.78,2.631-1.295-.308-2.56.88-3.879.11-.076-.041-.23-.007-.306-.01-1.274.229-1.311.19-1.037-1.222a6.721,6.721,0,0,0,.177-.762,4.048,4.048,0,0,0-.047-.961l-.153,0c-.222.952-.976,1.773-.667,2.934,0,.115-.245.452-.36.449a2.118,2.118,0,0,0-2.04,1.434c-.079.074-.2.224-.276.222-.693.094-3.782,3.144-3.595,3.3a9.711,9.711,0,0,1,1.2.8,1.925,1.925,0,0,1,.011,2.111c-.275.184-.768-.024-1.11-.111a17,17,0,0,0-1.831-.363.9.9,0,0,0-.848,1.316,1.546,1.546,0,0,1-.083,1.418c-.366.679-.216,1.989.241,2.118a8.143,8.143,0,0,0,1.826.517.972.972,0,0,0,1.249-.652,6.553,6.553,0,0,1,2.744-3.1c.118-.073.275-.184.353-.219-.258-.353-.4-.665-.587-.9a1.456,1.456,0,0,1,.993.146c.568.248,1.1.38,1.472-.414.128-.419,2.087.755,2.081-.281-.067-.309-.321-.777.181-.877.424-.064.96-.008.939.643,0,1.113,2.365,4.142,2.7,4.613.148.2,1.079,1.107,1.316.885a1.018,1.018,0,0,0,.2-.224c.356-.335-.415-1.432-.638-1.67a1.659,1.659,0,0,1,1.736-.292,1.66,1.66,0,0,0,1.233-.154c.117-.073-.053-.769-.04-1.191a2.327,2.327,0,0,1,.036-1.149,4.709,4.709,0,0,1,.771-1.358c.279-.337,5.623,3.053,5.535,3.4-.046.229-.513.444-.781.436a3.255,3.255,0,0,1-1.329-.463,2.254,2.254,0,0,0-2.53-.079c-.7.285-1.323.572-1.985.9-.157.11-.43.255-.435.408a13.263,13.263,0,0,0,.665,2.093.889.889,0,0,0,.836.257c.437-.486.66-.248,1,.069.406.511.788.561,1.224.115a1.034,1.034,0,0,1,.276-.222,5.7,5.7,0,0,0,.615,1.209c.368.471.36.74-.113,1.147a1.558,1.558,0,0,0-.646,1.016c.017.692-.215.723-.635.672a5.6,5.6,0,0,0-1.759-.208,5.824,5.824,0,0,1-4.072-1.086c-.263-.2-3.507.466-4.3-.057a1.857,1.857,0,0,1-.927-2.255c.136-.686-.236-1.044-.891-.987a2.925,2.925,0,0,1-1.151,0,4.269,4.269,0,0,0-3.661.462,1.966,1.966,0,0,1-2.232.237,5.4,5.4,0,0,1-2.679,3.684c-2.07,1.735-2.884,4.892-3.045,5.118-.477.56-.568,5.93-.312,6.36a10.525,10.525,0,0,1,1.246,3.109,19.985,19.985,0,0,0,2.111,2.445c.521.515,3.3-.166,4.115-.294A1.341,1.341,0,0,0,35.516,47a1.429,1.429,0,0,1,1.95.214c.373.357.657,1.1,1.36.7.04-.038.191.043.264.161a2.046,2.046,0,0,1,.426,2.316c-.451.945-.511,1.634.046,2.227a3.7,3.7,0,0,1,1.08,2.3,2.672,2.672,0,0,0,.317.931,4.86,4.86,0,0,1-.145,4.639,3.535,3.535,0,0,0-.147,3.488,11.681,11.681,0,0,1,.918,3.789A8.183,8.183,0,0,0,42.26,70.7a5.155,5.155,0,0,1,.67,3.129c-.1.842.12,1.079.852.986a24.259,24.259,0,0,0,2.928-.369,1.758,1.758,0,0,0,.508-.291,6.464,6.464,0,0,0,2.8-4.825.97.97,0,0,1,.8-.972,1.542,1.542,0,0,0,.6-.634,2.167,2.167,0,0,0-.173-1.809,1.724,1.724,0,0,1,0-1.075,7.678,7.678,0,0,1,1.546-1.6,4.875,4.875,0,0,0,1.566-4.671,22.473,22.473,0,0,1-.6-2.9c-.372-1.586.425-2.558,1.489-3.446a8.788,8.788,0,0,0,2.14-2.158,47.221,47.221,0,0,0,2.6-4.486,7.171,7.171,0,0,0,.348-1.293,3.916,3.916,0,0,0-1.192.078c-.77.091-1.508.375-2.241.467-.192.032-.454-.205-.6-.44-.4-.741-.8-1.522-1.233-2.3a2.865,2.865,0,0,0-.363-.663c-.249-.622-.536-1.283-.745-1.942-.383-1.279-.728-2.518-1.11-3.8-.175-.542-.274-1.082-.448-1.625-.215-.505-.429-1.011-.683-1.517.271-.068.422.013.5.131.695,1.1,1.35,2.229,2.044,3.363.111.119.065.348.1.579a10.564,10.564,0,0,1,.275,1.044c.756,1.6,1.669,3.084,1.724,5-.016.5.284.739.829.487.429-.217.931-.317,1.36-.533a11.736,11.736,0,0,0,2.029-1.088c.626-.4,1.257-.959,1.923-1.36a4.134,4.134,0,0,0,1.806-2.553c.086-.3-.167-.811-.31-1.161-.144-.273-.485-.438-.708-.674-.445-.475-.864-.6-1.417-.083a.92.92,0,0,1-1.53-.163c-.035-.116-.227-.122-.3-.2-.11-.195-.331-.47-.288-.623a1.529,1.529,0,0,0-.371-1.661,2.388,2.388,0,0,1-.515-.707,1.435,1.435,0,0,1,.025-.8c.121-.188.466-.178.732-.092.609.134.821.755,1.034,1.3.5,1.321.8,1.484,2.035,1.215a.586.586,0,0,1,.609.133,3.078,3.078,0,0,0,1,1.025A39.484,39.484,0,0,0,47.265,10.059Z" transform="translate(13.818 -3.603)" fill="#a7e446" stroke="#12263f" stroke-width="3"/>
        <g id="Grupo_80211" data-name="Grupo 80211" transform="translate(0.041 39.934)">
          <path id="Trazado_115171" data-name="Trazado 115171" d="M11.7,31.24c1.613,1.033,1.963,1.427,3.174,2.065s1.828-.248,1.669.487-.319,1.446-.405,2.148c-.013.249.369,2.292,1.04,2.56a5.893,5.893,0,0,1,2.539,2.267A2.76,2.76,0,0,0,21.84,42.1,1.923,1.923,0,0,1,23.8,43.358c.269.617.474,1.225.745,1.872a17.763,17.763,0,0,0,1.178,2.652,9.07,9.07,0,0,1,.808,1.96A19.126,19.126,0,0,0,28.6,55.635a9.685,9.685,0,0,0,3.659,3.431,2.172,2.172,0,0,0,1.646.448c.542-.031,1.061,0,.987-.593,0-.09-1.686-.636-2.248-2.079s.086-2.243,0-3.691-.462-1.391,0-3.309.876-5.082.447-5.861a.709.709,0,0,1,.211-1.016,14.619,14.619,0,0,0,1.214-1.034,1.3,1.3,0,0,0,.3-.891c.089-.362-.013-.772.095-1.11.146-.4.313-.828-.041-1.217a1.852,1.852,0,0,1-.129-2.545,2.344,2.344,0,0,0,.255-.59.943.943,0,0,0-.394-1.3,5.378,5.378,0,0,0-3.319-.772,3.533,3.533,0,0,1-1.887-.185c-.5-.194-.85-1.3-2.64-2.086s-2.5-.671-4.521-1.041-3.586-1.1-4.3-.667-.949.131-1.786.667-2.055.015-3.323-.791-.918-2.034-1.75-2.434-2.31,1.234-2.7,1.246q.021.477.054.952A23.92,23.92,0,0,1,11.7,31.24Z" transform="translate(-8.373 -26.913)" fill="#a7e446" stroke="#12263f" stroke-width="3"/>
        </g>
        <g id="Grupo_80213" data-name="Grupo 80213" transform="translate(0.222 2.695)">
          <path id="Trazado_115173" data-name="Trazado 115173" d="M13.3,42.475c3.718-.452-.428-3.762.24-4.3a1.36,1.36,0,0,0,.4-1.777,18.067,18.067,0,0,1,2-2.64c.442-.576,3.607-1.389,4.191-1.733.307-.2-3.512-1.731-2.9-2.521s4.725-.824,5.158-1.254a5.08,5.08,0,0,0,3.052-1.869c1.126-1.615,1.16-3.421,1.454-4.591a23.1,23.1,0,0,1,4.447-3.041c2.31-1.335,4.3-.892,5.459-3.446,1.288-2.841-.859-1.858,0-2.809s4.131-.12,3.809-2.041-6.66-2.183-7.225-2.226c-.875.342-1.977.839-3.128,1.383A39.474,39.474,0,0,0,8.516,40.779C8.506,40.867,9.58,42.926,13.3,42.475Z" transform="translate(-8.516 -8.224)" fill="#a7e446" stroke="#12263f" stroke-width="3"/>
        </g>
      </g>
    </g>
    <g id="Grupo_80216" data-name="Grupo 80216" transform="translate(0.581 36.065)">
      <path id="Trazado_115174" data-name="Trazado 115174" d="M93.879,19.607c.305.8.569,1.621.823,2.447,12.672,5.412,10.713,13.35-5.943,18.119-18.986,5.436-49.977,5.436-69.087,0S.46,25.347,19.446,19.911c.244-.07.512-.128.76-.2.253-.67.535-1.325.823-1.977-1.7.38-3.349.781-4.908,1.228-20.816,5.96-20.706,15.647.247,21.607s54.9,5.96,75.715,0C112.163,34.823,112.7,25.6,93.879,19.607Z" transform="translate(-0.581 -17.737)" fill="#12263f"/>
    </g>
    <g id="Grupo_80217" data-name="Grupo 80217" transform="translate(10.868 12.276)">
      <path id="Trazado_115175" data-name="Trazado 115175" d="M82.833,70.382c-.141.2-.268.407-.413.6,2.436,9.228-4.711,11.65-18.32,4.782-17.631-8.9-40.386-29.937-50.727-46.9S9.511,5.288,27.142,14.186c.344.174.7.372,1.051.565.513-.376,1.04-.733,1.571-1.084-1.5-.872-2.98-1.7-4.422-2.432C6.012,1.479-.483,8.667,10.855,27.267s36.264,41.646,55.594,51.4C83.532,87.29,90.56,82.638,84.128,68.6,83.714,69.206,83.279,69.8,82.833,70.382Z" transform="translate(-5.276 -6.879)" fill="#12263f"/>
    </g>
    <g id="Grupo_80218" data-name="Grupo 80218" transform="translate(30.942 2.347)">
      <path id="Trazado_115176" data-name="Trazado 115176" d="M41.958,11.012c-.454.477-.9,1.008-1.346,1.519,1.1,0,2.192.068,3.271.165C56.322,1.151,66.619,7.467,66.21,27.033,65.779,47.644,54.518,75.89,41.105,90c-11.988,12.614-22.457,9.04-24.077-6.431q-1.338-1-2.59-2.1c.05,21.378,11.424,26.594,25.806,11.46C54.94,77.473,67.285,46.521,67.758,23.924,68.23,1.343,56.653-4.451,41.958,11.012Z" transform="translate(-14.439 -2.347)" fill="#12263f"/>
    </g>
    <g id="Grupo_80219" data-name="Grupo 80219" transform="translate(8.874 29.006)">
      <path id="Trazado_115177" data-name="Trazado 115177" d="M84.643,14.654q.714,1,1.368,2.053c11.938.41,12.884,7.838.494,18.052-14.642,12.07-41.944,23.956-60.865,26.5C8.364,63.574,3.7,56.966,14.208,46.671c-.17-.707-.312-1.424-.443-2.145C-1.652,57.5,2.274,65.775,22.78,63.022c20.73-2.783,50.651-15.8,66.7-29.038C104.53,21.58,102.106,13.334,84.643,14.654Z" transform="translate(-4.366 -14.515)" fill="#12263f"/>
    </g>
    <g id="Grupo_80220" data-name="Grupo 80220" transform="translate(36.651 72.787)">
      <circle id="Elipse_4744" data-name="Elipse 4744" cx="2.363" cy="2.363" r="2.363" fill="#fc4b52" stroke="#12263f" stroke-width="3"/>
    </g>
    <g id="Grupo_80221" data-name="Grupo 80221" transform="translate(6.873 52.947)">
      <circle id="Elipse_4745" data-name="Elipse 4745" cx="3.452" cy="3.452" r="3.452" fill="#fc4b52" stroke="#12263f" stroke-width="3"/>
    </g>
    <g id="Grupo_80222" data-name="Grupo 80222" transform="translate(25.481 14.037)">
      <circle id="Elipse_4746" data-name="Elipse 4746" cx="2.363" cy="2.363" r="2.363" fill="#fc4b52" stroke="#12263f" stroke-width="3"/>
    </g>
    <g id="Grupo_80223" data-name="Grupo 80223" transform="translate(79.964 23.04)">
      <circle id="Elipse_4747" data-name="Elipse 4747" cx="3.452" cy="3.452" r="3.452" fill="#fc4b52" stroke="#12263f" stroke-width="3"/>
    </g>
    <g id="Grupo_80224" data-name="Grupo 80224" transform="translate(72.836 59.017)">
      <circle id="Elipse_4748" data-name="Elipse 4748" cx="2.457" cy="2.457" r="2.457" fill="#fc4b52" stroke="#12263f" stroke-width="3"/>
    </g>
    <g id="Grupo_80225" data-name="Grupo 80225" transform="translate(99.835 48.525)">
      <circle id="Elipse_4749" data-name="Elipse 4749" cx="3.452" cy="3.452" r="3.452" fill="#fc4b52" stroke="#12263f" stroke-width="3"/>
    </g>
    <g id="Grupo_80226" data-name="Grupo 80226" transform="translate(48.019 93.001)">
      <circle id="Elipse_4750" data-name="Elipse 4750" cx="3.452" cy="3.452" r="3.452" fill="#fc4b52" stroke="#12263f" stroke-width="3"/>
    </g>
  </g>
</svg>
