<svg xmlns="http://www.w3.org/2000/svg" width="298.095" height="346.68" viewBox="0 0 298.095 346.68">
  <g id="Grupo_115824" data-name="Grupo 115824" transform="translate(-178.453 -1317.5)">
    <g id="Grupo_80176" data-name="Grupo 80176" transform="translate(349.64 1319)">
      <path id="Trazado_115143" data-name="Trazado 115143" d="M79.563,109.853H43V15L76.952,25.539Z" transform="translate(45.797 21.887)" fill="#feca2e" stroke="#12263f" stroke-width="3"/>
      <path id="Trazado_115144" data-name="Trazado 115144" d="M9,109.853H45.564V15L11.612,25.539Z" transform="translate(-9 21.887)" fill="#feca2e" stroke="#12263f" stroke-width="3"/>
      <path id="Trazado_115145" data-name="Trazado 115145" d="M25,27.348V1H66.787V27.348" transform="translate(16.787 -1)" fill="#feca2e" stroke="#12263f" stroke-width="3"/>
      <path id="Trazado_115146" data-name="Trazado 115146" d="M31,17.539V7H41.447V17.539" transform="translate(26.457 8.809)" fill="#12263f"/>
      <path id="Trazado_115147" data-name="Trazado 115147" d="M23,116.392V11H75.234V116.392Z" transform="translate(13.563 15.348)" fill="#d1a31b" stroke="#12263f" stroke-width="3"/>
      <path id="Trazado_115148" data-name="Trazado 115148" d="M30,67.348V41H45.67V67.348" transform="translate(24.845 64.392)" fill="#12263f"/>
      <path id="Trazado_115149" data-name="Trazado 115149" d="M47,67.348V41H62.67V67.348" transform="translate(52.244 64.392)" fill="#12263f"/>
      <path id="Trazado_115150" data-name="Trazado 115150" d="M13,67.348V41H28.67V67.348" transform="translate(-2.553 64.392)" fill="#12263f"/>
      <rect id="Rectángulo_34599" data-name="Rectángulo 34599" width="9.957" height="10.045" transform="translate(47.059 37.167)" fill="#12263f"/>
      <rect id="Rectángulo_34600" data-name="Rectángulo 34600" width="9.957" height="10.045" transform="translate(67.969 37.167)" fill="#12263f"/>
      <rect id="Rectángulo_34601" data-name="Rectángulo 34601" width="9.957" height="10.045" transform="translate(47.059 58.262)" fill="#12263f"/>
      <rect id="Rectángulo_34602" data-name="Rectángulo 34602" width="9.957" height="10.045" transform="translate(67.969 58.262)" fill="#12263f"/>
      <rect id="Rectángulo_34603" data-name="Rectángulo 34603" width="9.957" height="10.045" transform="translate(47.059 79.357)" fill="#12263f"/>
      <rect id="Rectángulo_34604" data-name="Rectángulo 34604" width="9.957" height="10.045" transform="translate(13.205 58.262)" fill="#12263f"/>
      <rect id="Rectángulo_34605" data-name="Rectángulo 34605" width="9.957" height="10.045" transform="translate(13.205 79.357)" fill="#12263f"/>
      <rect id="Rectángulo_34606" data-name="Rectángulo 34606" width="10.953" height="10.045" transform="translate(101.823 58.262)" fill="#12263f"/>
      <rect id="Rectángulo_34607" data-name="Rectángulo 34607" width="10.953" height="10.045" transform="translate(101.823 79.357)" fill="#12263f"/>
      <rect id="Rectángulo_34608" data-name="Rectángulo 34608" width="9.957" height="10.045" transform="translate(67.969 79.357)" fill="#12263f"/>
    </g>
    <g id="Grupo_80177" data-name="Grupo 80177" transform="translate(349.963 1531.279)">
      <path id="Trazado_115143-2" data-name="Trazado 115143" d="M79.469,109.608H43V15L76.864,25.512Z" transform="translate(45.568 21.792)" fill="#a7e446" stroke="#12263f" stroke-width="3"/>
      <path id="Trazado_115144-2" data-name="Trazado 115144" d="M9,109.608H45.469V15L11.6,25.512Z" transform="translate(-9 21.792)" fill="#a7e446" stroke="#12263f" stroke-width="3"/>
      <path id="Trazado_115145-2" data-name="Trazado 115145" d="M25,27.28V1H66.679V27.28" transform="translate(16.679 -1)" fill="#a7e446" stroke="#12263f" stroke-width="3"/>
      <path id="Trazado_115146-2" data-name="Trazado 115146" d="M31,17.512V7H41.42V17.512" transform="translate(26.308 8.768)" fill="#12263f"/>
      <path id="Trazado_115147-2" data-name="Trazado 115147" d="M23,116.12V11H75.1V116.12Z" transform="translate(13.469 15.28)" fill="#7bb41e" stroke="#12263f" stroke-width="3"/>
      <path id="Trazado_115148-2" data-name="Trazado 115148" d="M30,67.28V41H45.63V67.28" transform="translate(24.703 64.12)" fill="#12263f"/>
      <path id="Trazado_115149-2" data-name="Trazado 115149" d="M47,67.28V41H62.63V67.28" transform="translate(51.987 64.12)" fill="#12263f"/>
      <path id="Trazado_115150-2" data-name="Trazado 115150" d="M13,67.28V41H28.63V67.28" transform="translate(-2.58 64.12)" fill="#12263f"/>
      <rect id="Rectángulo_34599-2" data-name="Rectángulo 34599" width="9.931" height="10.019" transform="translate(46.938 37.071)" fill="#12263f"/>
      <rect id="Rectángulo_34600-2" data-name="Rectángulo 34600" width="9.931" height="10.019" transform="translate(67.793 37.071)" fill="#12263f"/>
      <rect id="Rectángulo_34601-2" data-name="Rectángulo 34601" width="9.931" height="10.019" transform="translate(46.938 58.112)" fill="#12263f"/>
      <rect id="Rectángulo_34602-2" data-name="Rectángulo 34602" width="9.931" height="10.019" transform="translate(67.793 58.112)" fill="#12263f"/>
      <rect id="Rectángulo_34603-2" data-name="Rectángulo 34603" width="9.931" height="10.019" transform="translate(46.938 79.152)" fill="#12263f"/>
      <rect id="Rectángulo_34604-2" data-name="Rectángulo 34604" width="9.931" height="10.019" transform="translate(13.171 58.112)" fill="#12263f"/>
      <rect id="Rectángulo_34605-2" data-name="Rectángulo 34605" width="9.931" height="10.019" transform="translate(13.171 79.152)" fill="#12263f"/>
      <rect id="Rectángulo_34606-2" data-name="Rectángulo 34606" width="10.924" height="10.019" transform="translate(101.56 58.112)" fill="#12263f"/>
      <rect id="Rectángulo_34607-2" data-name="Rectángulo 34607" width="10.924" height="10.019" transform="translate(101.56 79.152)" fill="#12263f"/>
      <rect id="Rectángulo_34608-2" data-name="Rectángulo 34608" width="9.931" height="10.019" transform="translate(67.793 79.152)" fill="#12263f"/>
    </g>
    <g id="Grupo_80173" data-name="Grupo 80173" transform="translate(180 1447.01)">
      <path id="Trazado_115143-3" data-name="Trazado 115143" d="M79.564,109.853H43V15L76.952,25.539Z" transform="translate(45.797 21.888)" fill="#fc4b52" stroke="#12263f" stroke-width="3"/>
      <path id="Trazado_115144-3" data-name="Trazado 115144" d="M9,109.853H45.564V15L11.612,25.539Z" transform="translate(-9 21.888)" fill="#fc4b52" stroke="#12263f" stroke-width="3"/>
      <path id="Trazado_115145-3" data-name="Trazado 115145" d="M25,27.348V1H66.787V27.348" transform="translate(16.787 -1)" fill="#fc4b52" stroke="#12263f" stroke-width="3"/>
      <path id="Trazado_115146-3" data-name="Trazado 115146" d="M31,17.539V7H41.447V17.539" transform="translate(26.457 8.809)" fill="#12263f"/>
      <path id="Trazado_115147-3" data-name="Trazado 115147" d="M23,116.392V11H80.175V116.392Z" transform="translate(11.093 15.348)" fill="#e8242b" stroke="#12263f" stroke-width="3"/>
      <path id="Trazado_115148-3" data-name="Trazado 115148" d="M30,67.348V41H45.67V67.348" transform="translate(24.845 64.393)" fill="#12263f"/>
      <path id="Trazado_115149-3" data-name="Trazado 115149" d="M47,67.348V41H62.67V67.348" transform="translate(52.244 64.393)" fill="#12263f"/>
      <path id="Trazado_115150-3" data-name="Trazado 115150" d="M13,67.348V41H28.67V67.348" transform="translate(-2.553 64.393)" fill="#12263f"/>
      <rect id="Rectángulo_34599-3" data-name="Rectángulo 34599" width="9.957" height="10.045" transform="translate(47.059 37.168)" fill="#12263f"/>
      <rect id="Rectángulo_34600-3" data-name="Rectángulo 34600" width="9.957" height="10.045" transform="translate(67.969 37.168)" fill="#12263f"/>
      <rect id="Rectángulo_34601-3" data-name="Rectángulo 34601" width="9.957" height="10.045" transform="translate(47.059 58.263)" fill="#12263f"/>
      <rect id="Rectángulo_34602-3" data-name="Rectángulo 34602" width="9.957" height="10.045" transform="translate(67.969 58.263)" fill="#12263f"/>
      <rect id="Rectángulo_34603-3" data-name="Rectángulo 34603" width="9.957" height="10.045" transform="translate(47.059 79.357)" fill="#12263f"/>
      <rect id="Rectángulo_34604-3" data-name="Rectángulo 34604" width="9.957" height="10.045" transform="translate(13.205 58.263)" fill="#12263f"/>
      <rect id="Rectángulo_34605-3" data-name="Rectángulo 34605" width="9.957" height="10.045" transform="translate(13.205 79.357)" fill="#12263f"/>
      <rect id="Rectángulo_34606-3" data-name="Rectángulo 34606" width="10.953" height="10.045" transform="translate(101.823 58.263)" fill="#12263f"/>
      <rect id="Rectángulo_34607-3" data-name="Rectángulo 34607" width="10.953" height="10.045" transform="translate(101.823 79.357)" fill="#12263f"/>
      <rect id="Rectángulo_34608-3" data-name="Rectángulo 34608" width="9.957" height="10.045" transform="translate(67.969 79.357)" fill="#12263f"/>
    </g>
    <path id="Trazado_158733" data-name="Trazado 158733" d="M-5164.75-10172h-108.584v68.6" transform="translate(5505.971 11546.31)" fill="none" stroke="#12263f" stroke-width="3" stroke-dasharray="10"/>
    <path id="Trazado_158734" data-name="Trazado 158734" d="M-5164.75-10103.4h-108.584v-68.6" transform="translate(5505.971 11754.846)" fill="none" stroke="#12263f" stroke-width="3" stroke-dasharray="10"/>
    <line id="Línea_333" data-name="Línea 333" y2="56.496" transform="translate(412.5 1464.779)" fill="none" stroke="#12263f" stroke-width="3" stroke-dasharray="10"/>
  </g>
</svg>
