<svg xmlns="http://www.w3.org/2000/svg" width="400" height="185.977" viewBox="0 0 400 185.977">
  <g id="Grupo_115746" data-name="Grupo 115746" transform="translate(-180 -397.023)">
    <path id="Trazado_113994" data-name="Trazado 113994" d="M433,213.67c.061.318.122.609.176.886l1.069-.21-.183-.906Z" transform="translate(86.088 317.527)" fill="#f5f5f5"/>
    <path id="Trazado_114153" data-name="Trazado 114153" d="M432.945,213.78h-.115c.068.318.129.615.189.886h.1A5.022,5.022,0,0,1,432.945,213.78Z" transform="translate(86.143 317.418)" fill="#e0e0e0"/>
    <path id="Trazado_114247" data-name="Trazado 114247" d="M361.613,157l-2.1.455v.1l2.282-.461A.309.309,0,0,0,361.613,157Z" transform="translate(96.616 336.882)" fill="#e0e0e0"/>
    <g id="Grupo_80150" data-name="Grupo 80150" transform="translate(370 485.363)">
      <path id="Trazado_114714" data-name="Trazado 114714" d="M98.093,3.12l8.061,28.328c-2.455,2.884-5.073,5.631-9.537,6.919L75.087,43.8l-7.6-33.4Z" transform="translate(-65.379 -0.441)" fill="#636363"/>
      <path id="Trazado_114715" data-name="Trazado 114715" d="M98.022.94l8.052,28.3-9.529,6.919L75.016,41.595,66.2,9.644Z" transform="translate(-64.192 -0.133)" fill="#a7e446"/>
      <path id="Trazado_114716" data-name="Trazado 114716" d="M71.557,32.47l4.172,1.236A12.679,12.679,0,0,1,72.4,37.663a18.319,18.319,0,0,1-6.2,2.987,12.155,12.155,0,0,0,5.357-8.181Z" transform="translate(-33.844 -4.596)" fill="#7bb41e"/>
      <path id="Trazado_114717" data-name="Trazado 114717" d="M85.327,6.739,70.09,3.21,70.811,0,86.28,3.3Z" transform="translate(-47.737 0)" fill="#7bb41e"/>
      <path id="Trazado_114718" data-name="Trazado 114718" d="M101.6,18.192,110.365,5.23l2.73,1.82-8.619,13.263Z" transform="translate(-101.6 -0.741)" fill="#7bb41e"/>
      <path id="Trazado_114719" data-name="Trazado 114719" d="M77.12,20.626c0,.052,5.442-1.373,12.121-3.2S101.328,14.085,101.311,14s-5.442,1.373-12.121,3.193S77.1,20.566,77.12,20.626Z" transform="translate(-68.803 -1.981)" fill="#12263f"/>
      <path id="Trazado_114720" data-name="Trazado 114720" d="M75.61,25.675c0,.052,5.442-1.382,12.121-3.2s12.087-3.348,12.07-3.434-5.485,1.408-12.121,3.228S75.593,25.615,75.61,25.675Z" transform="translate(-65.996 -2.695)" fill="#12263f"/>
      <path id="Trazado_114721" data-name="Trazado 114721" d="M74.54,30.216c0,.06,5.442-1.373,12.121-3.193s12.087-3.348,12.07-3.434-5.442,1.373-12.121,3.193S74.523,30.165,74.54,30.216Z" transform="translate(-64.007 -3.337)" fill="#12263f"/>
      <path id="Trazado_114722" data-name="Trazado 114722" d="M73.32,34.558c0,.06,5.442-1.373,12.121-3.193S97.519,28,97.511,28s-5.442,1.373-12.13,3.193S73.3,34.507,73.32,34.558Z" transform="translate(-61.74 -3.963)" fill="#12263f"/>
    </g>
    <g id="Character" transform="translate(244.326 423.548)">
      <rect id="Rectángulo_34484" data-name="Rectángulo 34484" width="65.175" height="41.409" transform="translate(8.744 110.241)" fill="#a7e446"/>
      <rect id="Rectángulo_34485" data-name="Rectángulo 34485" width="79.589" height="14.535" rx="7.268" transform="translate(0 109.059)" fill="#a7e446"/>
      <path id="Trazado_114724" data-name="Trazado 114724" d="M216.228,371.575c0,.055-15.226.1-34,.1s-34.006-.046-34.006-.1,15.222-.1,34.006-.1S216.228,371.516,216.228,371.575Z" transform="translate(-142.22 -248.177)" fill="#263238"/>
      <path id="Trazado_114725" data-name="Trazado 114725" d="M175.4,400.844c-.054,0-.1-6.31-.1-14.095s.046-14.1.1-14.1.1,6.31.1,14.1S175.459,400.844,175.4,400.844Z" transform="translate(-157.954 -248.863)" fill="#263238"/>
      <path id="Trazado_114726" data-name="Trazado 114726" d="M269.694,348.766c-.029,0-.1-.419-.256-1.073a14.9,14.9,0,0,0-.838-2.514,14.429,14.429,0,0,0-1.291-2.3,10.187,10.187,0,0,1-.62-.909,4.19,4.19,0,0,1,.737.838,11.525,11.525,0,0,1,1.358,2.3,11.641,11.641,0,0,1,.8,2.552A4.191,4.191,0,0,1,269.694,348.766Z" transform="translate(-211.051 -231.038)" fill="#263238"/>
      <path id="Trazado_114727" data-name="Trazado 114727" d="M274.208,346.036c-.038,0-.18-.419-.528-1.048a8.023,8.023,0,0,0-4.144-3.6c-.67-.256-1.115-.335-1.106-.373a.965.965,0,0,1,.318.029,4.9,4.9,0,0,1,.838.21,7.37,7.37,0,0,1,4.223,3.666,5.774,5.774,0,0,1,.327.8A.972.972,0,0,1,274.208,346.036Z" transform="translate(-212.062 -230.482)" fill="#263238"/>
      <g id="Grupo_80132" data-name="Grupo 80132" transform="translate(23.296 108.36)" opacity="0.3">
        <path id="Trazado_114728" data-name="Trazado 114728" d="M189.5,336.831a166.218,166.218,0,0,0,13.508,42.319h2.933c1.2-1.676.8-3.972.054-5.866s-1.81-3.771-1.8-5.82a29.63,29.63,0,0,1,.582-3.742c.6-4.835-2.723-9.26-3.49-14.074-.277-1.743-.117-3.75,1.2-4.923,1.156-1.022,2.853-1.1,4.4-1.064,4.039.1,8.141.6,12.08-.289s7.823-3.582,8.636-7.542Z" transform="translate(-189.5 -335.83)"/>
      </g>
      <path id="Trazado_114729" data-name="Trazado 114729" d="M210.387,190.9l12.775-3.444s-2.74-8.1-4.873-13.957a16.519,16.519,0,0,0-6.679-8.481,4.94,4.94,0,0,0-2.242-.888c-3.021-.419-11.288-1.492-15.386-1.831-5.074-.419-15.666,2.367-15.666,2.367s-9.293,5.154-12.423,7.232a4.358,4.358,0,0,0-1.676,2.095c-.578,1.559-1.316,4.236-2.2,7.7l-2.418,9.486,10.894-.335c2.2,6.666,4.228,12.654,4.228,12.654l-1.965,12.285s14.891,5.954,18.7,5.531,21.05-7.081,21.05-7.081-1.973-19.45-1.973-20.015C210.521,193.993,210.466,192.59,210.387,190.9Z" transform="translate(-148.832 -126.624)" fill="#fc4b52"/>
      <g id="Grupo_80133" data-name="Grupo 80133" transform="translate(25.182 49.971)" opacity="0.3">
        <path id="Trazado_114730" data-name="Trazado 114730" d="M217.807,197.815a3.943,3.943,0,0,0-3.482-1.3,7.91,7.91,0,0,0-3.553,1.462c-3.3,2.242-5.644,5.619-7.722,9.029A108.864,108.864,0,0,0,194,225.745l.084,1.676c2.707-.344,4.475-2.627,5.652-5.091s1.676-5.191,2.715-7.718a19.886,19.886,0,0,1,10.722-10.722,5.133,5.133,0,0,0,4.4-1.584A3.694,3.694,0,0,0,217.807,197.815Z" transform="translate(-194 -196.477)"/>
      </g>
      <path id="Trazado_114731" data-name="Trazado 114731" d="M279.152,213.731c-.059,0-.419-3.532-.809-7.9s-.649-7.919-.587-7.923.419,3.532.8,7.9S279.211,213.727,279.152,213.731Z" transform="translate(-217.476 -147.339)" fill="#12263f"/>
      <path id="Trazado_114732" data-name="Trazado 114732" d="M178.67,197.91a2.765,2.765,0,0,1,.163.549c.092.4.214.909.356,1.517.293,1.257.683,3.05,1.1,5.028s.784,3.737,1.039,5.028c.117.612.214,1.123.289,1.529a2.881,2.881,0,0,1,.08.566,2.631,2.631,0,0,1-.159-.549c-.1-.419-.218-.9-.36-1.513-.293-1.282-.683-3.054-1.1-5.028s-.783-3.737-1.039-5.028c-.117-.612-.214-1.127-.289-1.529A3.35,3.35,0,0,1,178.67,197.91Z" transform="translate(-159.912 -147.339)" fill="#12263f"/>
      <path id="Trazado_114733" data-name="Trazado 114733" d="M275.092,167.09c.063,0-.306,1.437-.561,3.218s-.306,3.247-.369,3.243a3.579,3.579,0,0,1-.042-.96,19.492,19.492,0,0,1,.2-2.313,19.872,19.872,0,0,1,.461-2.275A3.771,3.771,0,0,1,275.092,167.09Z" transform="translate(-215.359 -129.432)" fill="#12263f"/>
      <path id="Trazado_114734" data-name="Trazado 114734" d="M265.088,226.094c-.113.034,3.247,11.585,3.247,11.585l-9.872-.8-4.714,5.778,16.835,6.2s10.429-4.651,10.429-5.074-3.75-20.95-3.75-20.95Z" transform="translate(-203.533 -161.817)" fill="#886962"/>
      <path id="Trazado_114735" data-name="Trazado 114735" d="M239.213,230.508a.691.691,0,0,0,.5-.239.78.78,0,0,0-.356-1.3,1.11,1.11,0,0,0-1.1.2,1.613,1.613,0,0,0-.419.528,2.138,2.138,0,0,0-.13.335c-.029.117-.063.243,0,.318a.272.272,0,0,0,.289.075.565.565,0,0,0,.293-.205.838.838,0,0,0,.117-.75,1.1,1.1,0,0,0-1.483-.486,1.982,1.982,0,0,0-.746.591.863.863,0,0,0-.193.419.272.272,0,0,0,.205.306.507.507,0,0,0,.419-.142.662.662,0,0,0,.189-.419,1.01,1.01,0,0,0-.419-.888,1.257,1.257,0,0,0-1.052-.134,1.215,1.215,0,0,0-.838.675.62.62,0,0,0-.029.515.419.419,0,0,0,.419.23.6.6,0,0,0,.457-.251.612.612,0,0,0,.05-.528.884.884,0,0,0-.922-.582,1.772,1.772,0,0,0-1.127.528,2.931,2.931,0,0,0-.419.482.624.624,0,0,0-.122.545.314.314,0,0,0,.448.113.511.511,0,0,0,.256-.482,1.374,1.374,0,0,0-.658-1.077,1.425,1.425,0,0,0-1.827.285.792.792,0,0,0-.2.595c.046.419.737.507.964.151a.838.838,0,0,0-.289-1.131,1.479,1.479,0,0,0-1.316-.071,3.225,3.225,0,0,0-.624.314,1.517,1.517,0,0,0-.5.444.553.553,0,0,0-.038.566.306.306,0,0,0,.444.142.49.49,0,0,0,.226-.494,1.106,1.106,0,0,0-.256-.566,1.3,1.3,0,0,0-1.123-.465,1.282,1.282,0,0,0-1.031.675.658.658,0,0,0-.038.545.39.39,0,0,0,.419.205.536.536,0,0,0,.419-.306.7.7,0,0,0,0-.536,1.148,1.148,0,0,0-.892-.649,2.413,2.413,0,0,0-1.148.034.989.989,0,0,0-.733.7.733.733,0,0,0,.419.838.612.612,0,0,0,.708-.478,1,1,0,0,0-.26-.888,1.572,1.572,0,0,0-.809-.482,1.835,1.835,0,0,0-1.676.419,1.362,1.362,0,0,0-.419.691.662.662,0,0,0,.218.662.457.457,0,0,0,.608,0,.662.662,0,0,0,.205-.578,1.257,1.257,0,0,0-.675-.905,1.362,1.362,0,0,0-.918-.142,1.433,1.433,0,0,0-.62.306,1.923,1.923,0,0,0-.373.444.557.557,0,0,1,.063-.134,1.483,1.483,0,0,1,.277-.348,1.462,1.462,0,0,1,.641-.331,1.412,1.412,0,0,1,.972.126,1.341,1.341,0,0,1,.737.968.754.754,0,0,1-.23.683.574.574,0,0,1-.767.029.792.792,0,0,1-.272-.788,1.462,1.462,0,0,1,.444-.771,1.994,1.994,0,0,1,1.81-.469,1.722,1.722,0,0,1,.892.528,1.182,1.182,0,0,1,.306,1.052.926.926,0,0,1-.331.486.687.687,0,0,1-.6.117.742.742,0,0,1-.457-.419,1.073,1.073,0,0,1-.084-.616,1.177,1.177,0,0,1,.863-.859,2.618,2.618,0,0,1,1.257-.042,1.362,1.362,0,0,1,1.043.767.918.918,0,0,1,0,.7.75.75,0,0,1-.578.419.616.616,0,0,1-.662-.318.876.876,0,0,1,.033-.733,1.483,1.483,0,0,1,1.156-.788,1.525,1.525,0,0,1,1.32.54,1.337,1.337,0,0,1,.306.687.729.729,0,0,1-.335.712.536.536,0,0,1-.419.05.566.566,0,0,1-.327-.285.779.779,0,0,1,.046-.792,1.8,1.8,0,0,1,.557-.557,3.712,3.712,0,0,1,.67-.335,1.7,1.7,0,0,1,1.517.092,1.048,1.048,0,0,1,.352,1.458.8.8,0,0,1-.771.31.758.758,0,0,1-.394-.172.683.683,0,0,1-.214-.385,1.031,1.031,0,0,1,.243-.775,1.613,1.613,0,0,1,.633-.457,1.642,1.642,0,0,1,1.5.122,1.6,1.6,0,0,1,.763,1.257.733.733,0,0,1-.385.683.637.637,0,0,1-.419.054.49.49,0,0,1-.331-.276.838.838,0,0,1,.138-.754,2.874,2.874,0,0,1,.473-.528,1.99,1.99,0,0,1,1.257-.582,1.3,1.3,0,0,1,.691.172,1.043,1.043,0,0,1,.419.561.772.772,0,0,1-.7,1.056.637.637,0,0,1-.612-.352.838.838,0,0,1,.021-.687,1.446,1.446,0,0,1,.985-.784,1.492,1.492,0,0,1,1.207.168,1.2,1.2,0,0,1,.515,1.06.75.75,0,0,1-.838.733.448.448,0,0,1-.339-.49.988.988,0,0,1,.23-.515,2.116,2.116,0,0,1,.838-.637,1.257,1.257,0,0,1,1.676.591.972.972,0,0,1-.147.884.7.7,0,0,1-.373.247.419.419,0,0,1-.419-.134.545.545,0,0,1,0-.419,2.037,2.037,0,0,1,.142-.356,1.638,1.638,0,0,1,.448-.557,1.2,1.2,0,0,1,1.194-.2.838.838,0,0,1,.36,1.416A.587.587,0,0,1,239.213,230.508Z" transform="translate(-184.924 -164.891)" fill="#263238"/>
      <path id="Trazado_114736" data-name="Trazado 114736" d="M213.541,230.93l-5.761,21.792,18.331.574,5.761-21.52Z" transform="translate(-176.824 -166.523)" fill="#feca2e"/>
      <path id="Trazado_114737" data-name="Trazado 114737" d="M212.455,230.93l-.729.071-5.816,20.124.884,1.215Z" transform="translate(-175.738 -166.523)" fill="#e0e0e0"/>
      <path id="Trazado_114738" data-name="Trazado 114738" d="M241.87,244.19h5.954a1.4,1.4,0,0,1,1.316.859,3.99,3.99,0,0,1,.344,1.718,2.187,2.187,0,0,1,.419,1.2,29.677,29.677,0,0,1,0,3.264c-.059.172-.687.344-.687.344a2.175,2.175,0,0,1,.059,1.6,1.676,1.676,0,0,1-.859.859s-.8,1.831-1.6,2.061a5.381,5.381,0,0,1-1.944,0c-.4,0-6.872-3.323-6.872-3.323v-.742s-2.288.23-2.346-1.031,1.487-1.186,1.487-1.186h3.49s-3.834.155-4.19-.419-.8-1.944.373-2.175,6.469-.226,6.469-.226l2.891.478h.457l-.356-1.257s-3.038,0-3.486-.063-1.311-.172-1.311-.976S241.87,244.19,241.87,244.19Z" transform="translate(-193.015 -174.227)" fill="#886962"/>
      <path id="Trazado_114739" data-name="Trazado 114739" d="M248,257.776a4.611,4.611,0,0,1-1.114.075c-.687,0-1.638,0-2.686-.071s-1.99-.176-2.673-.277a5.031,5.031,0,0,1-1.094-.214,5.57,5.57,0,0,1,1.115.054c.683.059,1.626.138,2.669.205s1.986.109,2.673.142A6.369,6.369,0,0,1,248,257.776Z" transform="translate(-195.794 -181.834)" fill="#654742"/>
      <path id="Trazado_114740" data-name="Trazado 114740" d="M247.97,264.641a4.19,4.19,0,0,1-.989-.029c-.608-.054-1.45-.155-2.367-.3s-1.751-.323-2.342-.465a3.774,3.774,0,0,1-.951-.285,4.839,4.839,0,0,1,.98.126l2.346.4,2.355.365A4.57,4.57,0,0,1,247.97,264.641Z" transform="translate(-196.311 -185.481)" fill="#654742"/>
      <path id="Trazado_114741" data-name="Trazado 114741" d="M264.547,255.39a.654.654,0,0,1,.21.126,1.366,1.366,0,0,1,.39.57,1.4,1.4,0,0,1-.025,1.056,1.517,1.517,0,0,1-1.027.867l.067-.168a1.881,1.881,0,0,1-.859,2.677l.067-.076a3.671,3.671,0,0,1-1.291,1.957,3.235,3.235,0,0,1-.574.356.733.733,0,0,1-.235.08c0-.029.3-.168.725-.541a3.771,3.771,0,0,0,1.161-1.9v-.054l.05-.021a1.676,1.676,0,0,0,.758-2.355l-.084-.134.151-.034a1.345,1.345,0,0,0,.905-.729,1.3,1.3,0,0,0,.063-.939A1.927,1.927,0,0,0,264.547,255.39Z" transform="translate(-207.902 -180.735)" fill="#654742"/>
      <path id="Trazado_114742" data-name="Trazado 114742" d="M207.991,132.509l3.679-7.416-1.14-3.239s5.514-2.862,3.629-8.7c-.909-2.824-3.256-8.476-5.447-13.571a11.439,11.439,0,0,0-14.158-6.339l-.561.189c-5.933,2.392-7.219,8.765-4.668,14.631l7.458,21.788Z" transform="translate(-165.379 -86.178)" fill="#886962"/>
      <path id="Trazado_114743" data-name="Trazado 114743" d="M230.149,162.34a14.246,14.246,0,0,1-8.309.394s3.2,3.587,8.828,1.11Z" transform="translate(-184.993 -126.672)" fill="#654742"/>
      <path id="Trazado_114744" data-name="Trazado 114744" d="M235.477,119.448a.876.876,0,0,1-.52,1.11.838.838,0,0,1-1.106-.461.876.876,0,0,1,.52-1.11.838.838,0,0,1,1.106.461Z" transform="translate(-191.943 -101.446)" fill="#12263f"/>
      <path id="Trazado_114745" data-name="Trazado 114745" d="M232.016,115.589c-.067.142-.838-.113-1.747.193s-1.4.968-1.529.892c-.067-.034-.025-.264.189-.566a2.418,2.418,0,0,1,1.182-.838,2.3,2.3,0,0,1,1.437,0C231.89,115.358,232.049,115.509,232.016,115.589Z" transform="translate(-188.985 -99.258)" fill="#12263f"/>
      <path id="Trazado_114746" data-name="Trazado 114746" d="M215.849,125.968a.872.872,0,0,1-.52,1.106.838.838,0,0,1-1.106-.461.876.876,0,0,1,.52-1.106.838.838,0,0,1,1.106.461Z" transform="translate(-180.54 -105.234)" fill="#12263f"/>
      <path id="Trazado_114747" data-name="Trazado 114747" d="M211.467,122.039c-.05.151-.859,0-1.714.381s-1.286,1.115-1.425,1.052c-.067-.025-.054-.256.126-.582a2.414,2.414,0,0,1,1.085-.972,2.33,2.33,0,0,1,1.425-.176C211.32,121.826,211.5,121.972,211.467,122.039Z" transform="translate(-177.121 -103.06)" fill="#12263f"/>
      <path id="Trazado_114748" data-name="Trazado 114748" d="M224.834,127.519a6.072,6.072,0,0,1,1.366-.75c.218-.1.419-.218.419-.39a1.257,1.257,0,0,0-.381-.624l-1.257-1.513a31.107,31.107,0,0,1-3.046-4.035,31.27,31.27,0,0,1,3.352,3.771l1.236,1.529a1.387,1.387,0,0,1,.419.838.6.6,0,0,1-.264.461,1.374,1.374,0,0,1-.369.184A5.986,5.986,0,0,1,224.834,127.519Z" transform="translate(-185.046 -102.192)" fill="#12263f"/>
      <path id="Trazado_114749" data-name="Trazado 114749" d="M207.517,114.685c0,.272-.934.457-1.944.939s-1.756,1.052-1.969.88c-.1-.084-.025-.365.235-.712a3.725,3.725,0,0,1,2.983-1.383C207.248,114.434,207.517,114.559,207.517,114.685Z" transform="translate(-174.374 -98.823)" fill="#12263f"/>
      <path id="Trazado_114750" data-name="Trazado 114750" d="M229.746,109.695c-.092.256-.779.251-1.521.49s-1.324.6-1.538.419c-.1-.084-.067-.318.142-.6a2.183,2.183,0,0,1,1.119-.746,2.208,2.208,0,0,1,1.345,0C229.624,109.393,229.779,109.573,229.746,109.695Z" transform="translate(-187.779 -95.769)" fill="#12263f"/>
      <path id="Trazado_114751" data-name="Trazado 114751" d="M191.171,139.33c-.113,0-4.4.163-2.933,4.1s5.112,1.655,5.074,1.538S191.171,139.33,191.171,139.33Z" transform="translate(-165.294 -113.303)" fill="#886962"/>
      <path id="Trazado_114752" data-name="Trazado 114752" d="M193.178,146.3c-.021,0-.05.075-.147.172a.733.733,0,0,1-.507.2c-.473,0-1.068-.528-1.353-1.232a2.435,2.435,0,0,1-.172-1.052.838.838,0,0,1,.318-.721.377.377,0,0,1,.473.038c.1.092.1.18.122.18s.063-.1-.029-.251a.473.473,0,0,0-.247-.189.553.553,0,0,0-.419.042,1.035,1.035,0,0,0-.486.876,2.434,2.434,0,0,0,.172,1.186,1.9,1.9,0,0,0,1.63,1.328.767.767,0,0,0,.587-.339C193.208,146.4,193.2,146.3,193.178,146.3Z" transform="translate(-166.911 -115.682)" fill="#654742"/>
      <path id="Trazado_114753" data-name="Trazado 114753" d="M223,141.237c.142-.054.469.913,1.534,1.324s2.057-.046,2.095.088c.034.059-.168.268-.6.419a2.547,2.547,0,0,1-1.747,0,2.212,2.212,0,0,1-1.223-1.131C222.908,141.555,222.938,141.254,223,141.237Z" transform="translate(-185.638 -114.41)" fill="#12263f"/>
      <path id="Trazado_114754" data-name="Trazado 114754" d="M203.228,82.01a2.422,2.422,0,0,0-1.89-1.324,3.99,3.99,0,0,0-.293-.633,3.109,3.109,0,0,0-3.666-1.358,3.021,3.021,0,0,0-5.338.264,3.6,3.6,0,0,0-3.838.737.893.893,0,0,0-.281.419.419.419,0,0,0,.067.323,2.275,2.275,0,0,0-2.061-.419,2.191,2.191,0,0,0-.662.335,2.556,2.556,0,0,0-1.349,1.379A3.641,3.641,0,0,0,180.347,85a3.457,3.457,0,0,0-2.133,3.226,2.514,2.514,0,0,0-.515,4.349s-2.573,1.571-1.014,3.813c.8,1.144,2.426.352,2.426.352l4.835,7.316c-.021.054.838.813,1.257.448a2.659,2.659,0,0,0,.645-1.483,5.865,5.865,0,0,0,.306-1.852,1.45,1.45,0,0,0-1.068-1.379,2.2,2.2,0,0,0,.708-2.066,6.4,6.4,0,0,0-.838-2.095l-1.622-2.967a4.19,4.19,0,0,0,2.677-3.406,2.4,2.4,0,0,0,3.029-1.919,3.126,3.126,0,0,0,4.219.62c.122.88,1.856,1.148,2.736,1.094a3.1,3.1,0,0,0,1.705-.968,5.028,5.028,0,0,0,1.806.038h0l.088-.025c1.161-.268,1.915-1.676,2.128-2.824a2.322,2.322,0,0,0,.838-.381A2.422,2.422,0,0,0,203.228,82.01Z" transform="translate(-158.467 -77.214)" fill="#12263f"/>
      <path id="Trazado_114755" data-name="Trazado 114755" d="M157.932,216.031s-2.552,9.218-3.117,11.489-.549,7.492.708,9.042,5.5,2.539,5.5,2.539,8.279-4.043,11.1-8.979,10.525-18.348,10.525-18.348l-2.443-6.7-12.834,12.256.134-1.6Z" transform="translate(-145.844 -151.499)" fill="#886962"/>
      <path id="Trazado_114756" data-name="Trazado 114756" d="M226.036,154.513h0a.9.9,0,0,1,1.215.4l7.387,14.711-1.894.838L225.621,155.7A.9.9,0,0,1,226.036,154.513Z" transform="translate(-187.14 -122.067)" fill="#a7e446"/>
      <path id="Trazado_114757" data-name="Trazado 114757" d="M214.94,196.213l6.905-7.123h6.62l4.24,5.594s-2.011.377-2.732-.7l-.934-1.328s.934,2.049.419,3.055c0,0-.993,2.342-1.152,2.594a1.119,1.119,0,0,1-1.391.629c-.863-.142-2.2-.838-2.061-1.349A.838.838,0,0,1,225.5,197l-2.015-.285s-2.028,3.675-3.251,4.538a9.594,9.594,0,0,1-2.46,1.236Z" transform="translate(-180.984 -142.214)" fill="#886962"/>
      <path id="Trazado_114758" data-name="Trazado 114758" d="M174.4,233.82c0,.034-.557.3-1.437.813a19.748,19.748,0,0,0-5.887,5.25c-.608.813-.939,1.353-.972,1.332a1.677,1.677,0,0,1,.2-.4,12.091,12.091,0,0,1,.645-1.027,17.179,17.179,0,0,1,5.937-5.292,10.907,10.907,0,0,1,1.094-.528A1.441,1.441,0,0,1,174.4,233.82Z" transform="translate(-152.608 -168.202)" fill="#654742"/>
      <path id="Trazado_114759" data-name="Trazado 114759" d="M235,193.414a4.7,4.7,0,0,1,.972-.163c.6-.071,1.433-.159,2.355-.239a3,3,0,0,1,.7,0,1.537,1.537,0,0,1,.62.251,2.183,2.183,0,0,1,.7.838,2.657,2.657,0,0,1,.31.939c-.038,0-.159-.348-.448-.867a2.124,2.124,0,0,0-.675-.75,1.256,1.256,0,0,0-.54-.205,2.788,2.788,0,0,0-.645,0c-.922.08-1.756.142-2.363.176A4.149,4.149,0,0,1,235,193.414Z" transform="translate(-192.639 -144.481)" fill="#654742"/>
      <path id="Trazado_114760" data-name="Trazado 114760" d="M240.269,203.364c-.038,0,.025-.5,0-1.3a8.205,8.205,0,0,0-.193-1.391,2,2,0,0,0-.779-1.4,2.89,2.89,0,0,0-.813-.289l-.838-.184a10.171,10.171,0,0,0-1.387-.214,10.78,10.78,0,0,0-1.3.034.93.93,0,0,1,.339-.109,4.439,4.439,0,0,1,.964-.08,8.379,8.379,0,0,1,1.425.172c.264.05.541.109.838.172a3.1,3.1,0,0,1,.876.31,1.559,1.559,0,0,1,.62.721,3.89,3.89,0,0,1,.243.838,7.219,7.219,0,0,1,.092,2.388,1.1,1.1,0,0,1-.088.335Z" transform="translate(-192.616 -147.638)" fill="#654742"/>
      <path id="Trazado_114761" data-name="Trazado 114761" d="M239.9,204.5a4.656,4.656,0,0,1,.1,1.328v.126l-.134-.021a1.208,1.208,0,0,0-.218,0,1.324,1.324,0,0,0-.918.419c-.184.193-.243.36-.277.352s0-.2.159-.453a1.32,1.32,0,0,1,1.035-.52.96.96,0,0,1,.268.029l-.134.1a4.639,4.639,0,0,1,.113-1.366Z" transform="translate(-194.639 -151.167)" fill="#654742"/>
      <path id="Trazado_114762" data-name="Trazado 114762" d="M238.2,204.6a8.049,8.049,0,0,1-1.341-.063,7.9,7.9,0,0,1-1.341-.08A4.4,4.4,0,0,1,238.2,204.6Z" transform="translate(-192.941 -151.06)" fill="#654742"/>
      <path id="Trazado_114763" data-name="Trazado 114763" d="M234.279,204.2a3.909,3.909,0,0,1-1.077,2.573,13.035,13.035,0,0,1,.574-1.257C234.065,204.824,234.216,204.192,234.279,204.2Z" transform="translate(-191.591 -150.993)" fill="#654742"/>
      <path id="Trazado_114764" data-name="Trazado 114764" d="M298.109,396.43l-.6,18.972,23.6.863c-.054-2.258-12.1-7.232-12.1-7.232l.88-12.151Z" transform="translate(-228.958 -262.679)" fill="#feca2e"/>
      <g id="Grupo_80134" data-name="Grupo 80134" transform="translate(72.098 145.05)" opacity="0.6">
        <path id="Trazado_114765" data-name="Trazado 114765" d="M306.667,423.411a.968.968,0,0,0-.683,1.077.926.926,0,0,0,1.06.708,1.022,1.022,0,0,0,.742-1.144.968.968,0,0,0-1.186-.616" transform="translate(-305.973 -423.398)" fill="#fff"/>
      </g>
      <g id="Grupo_80135" data-name="Grupo 80135" transform="translate(68.552 150.812)">
        <path id="Trazado_114766" data-name="Trazado 114766" d="M297.51,439.061l.138-1.911,22.571,1.542s1.035.494.888,1.232Z" transform="translate(-297.51 -437.15)" fill="#12263f"/>
      </g>
      <path id="Trazado_114767" data-name="Trazado 114767" d="M322.834,426.092c0,.113-.587.142-1.165.494s-.9.838-1.006.771.092-.708.8-1.119S322.884,425.983,322.834,426.092Z" transform="translate(-242.395 -279.842)" fill="#263238"/>
      <path id="Trazado_114768" data-name="Trazado 114768" d="M329.445,428.832c.021.113-.486.293-.892.767s-.541.985-.658.972-.163-.662.356-1.257S329.445,428.723,329.445,428.832Z" transform="translate(-246.567 -281.472)" fill="#263238"/>
      <path id="Trazado_114769" data-name="Trazado 114769" d="M334.621,433.4c-.1.021-.243-.561.075-1.182s.867-.838.913-.754-.3.419-.557.934S334.738,433.393,334.621,433.4Z" transform="translate(-250.449 -283.025)" fill="#263238"/>
      <path id="Trazado_114770" data-name="Trazado 114770" d="M322.226,418.966c-.054.1-.574-.075-1.228-.054s-1.169.205-1.223.1.444-.494,1.215-.507S322.284,418.878,322.226,418.966Z" transform="translate(-241.891 -275.507)" fill="#263238"/>
      <path id="Trazado_114771" data-name="Trazado 114771" d="M319.627,410.081a2.25,2.25,0,0,1-1.182-.05,5.314,5.314,0,0,1-1.885-.809,1.42,1.42,0,0,1-.348-.293.494.494,0,0,1-.029-.612.628.628,0,0,1,.511-.247,1.5,1.5,0,0,1,.444.08,4.128,4.128,0,0,1,.725.276,4.19,4.19,0,0,1,1.064.754c.528.528.7.968.658.989s-.306-.335-.838-.775a4.766,4.766,0,0,0-1.035-.633,4.35,4.35,0,0,0-.67-.235c-.247-.075-.461-.084-.528.025-.025.042-.029.059.021.134a1.3,1.3,0,0,0,.256.214,6.539,6.539,0,0,0,.612.377,6.43,6.43,0,0,0,1.127.482A8.267,8.267,0,0,1,319.627,410.081Z" transform="translate(-239.753 -269.442)" fill="#263238"/>
      <path id="Trazado_114772" data-name="Trazado 114772" d="M323.788,408.1a1.968,1.968,0,0,1-.268-1.152,3.77,3.77,0,0,1,.205-1.286,4.1,4.1,0,0,1,.327-.708.981.981,0,0,1,.779-.57.549.549,0,0,1,.478.348,1.607,1.607,0,0,1,.109.44,2.644,2.644,0,0,1-.029.8,2.7,2.7,0,0,1-.549,1.2c-.486.595-.972.716-.98.679a4.859,4.859,0,0,0,.75-.838,2.77,2.77,0,0,0,.419-1.1,2.662,2.662,0,0,0,0-.683c-.029-.251-.117-.457-.21-.419a.887.887,0,0,0-.419.373,3.851,3.851,0,0,0-.318.628,4.236,4.236,0,0,0-.272,1.169C323.741,407.644,323.85,408.08,323.788,408.1Z" transform="translate(-244.069 -267.298)" fill="#263238"/>
      <path id="Trazado_114773" data-name="Trazado 114773" d="M191.691,396.76l5.975,18.017-22.37,7.542c-.591-2.183,9.536-10.379,9.536-10.379l-4.3-11.384Z" transform="translate(-157.936 -262.871)" fill="#feca2e"/>
      <g id="Grupo_80136" data-name="Grupo 80136" transform="translate(32.619 145.771)" opacity="0.6">
        <path id="Trazado_114774" data-name="Trazado 114774" d="M212.617,425.119a.964.964,0,0,1,.985.838.926.926,0,0,1-.817.98,1.018,1.018,0,0,1-1.035-.884c0-.473.494-1.006.959-.926" transform="translate(-211.75 -425.119)" fill="#fff"/>
      </g>
      <g id="Grupo_80137" data-name="Grupo 80137" transform="translate(17.278 150.113)">
        <path id="Trazado_114775" data-name="Trazado 114775" d="M197.588,437.269l-.67-1.789-21.2,7.907s-.838.771-.5,1.433Z" transform="translate(-175.137 -435.48)" fill="#12263f"/>
      </g>
      <path id="Trazado_114776" data-name="Trazado 114776" d="M197.125,432.594c.042.109.6-.025,1.257.142s1.1.536,1.182.457-.289-.654-1.085-.838S197.071,432.51,197.125,432.594Z" transform="translate(-170.632 -283.52)" fill="#263238"/>
      <path id="Trazado_114777" data-name="Trazado 114777" d="M192.308,437.061c0,.113.549.138,1.073.478s.8.788.909.746-.034-.683-.7-1.089S192.275,436.965,192.308,437.061Z" transform="translate(-167.835 -286.215)" fill="#263238"/>
      <path id="Trazado_114778" data-name="Trazado 114778" d="M189.3,442.758c.109,0,.075-.6-.419-1.11s-1.073-.57-1.089-.461.419.318.8.737S189.189,442.788,189.3,442.758Z" transform="translate(-165.21 -288.657)" fill="#263238"/>
      <path id="Trazado_114779" data-name="Trazado 114779" d="M195.465,425.341c.08.084.528-.235,1.161-.419s1.177-.134,1.2-.247-.566-.344-1.307-.138S195.381,425.274,195.465,425.341Z" transform="translate(-169.663 -278.961)" fill="#263238"/>
      <path id="Trazado_114780" data-name="Trazado 114780" d="M194.61,415.937a2.251,2.251,0,0,0,1.119-.385,5.362,5.362,0,0,0,1.052-.754,5.233,5.233,0,0,0,.528-.561,1.47,1.47,0,0,0,.251-.377.507.507,0,0,0-.147-.595.624.624,0,0,0-.566-.088,1.532,1.532,0,0,0-.4.2,4.268,4.268,0,0,0-.616.473,4.112,4.112,0,0,0-.8,1.027c-.356.658-.419,1.127-.352,1.135s.2-.419.591-.985a4.736,4.736,0,0,1,.813-.9,4.292,4.292,0,0,1,.574-.419c.218-.142.419-.214.515-.126s.042.046,0,.134a1.211,1.211,0,0,1-.184.277,6.666,6.666,0,0,1-.478.536,6.54,6.54,0,0,1-.943.779,8.376,8.376,0,0,0-.955.633Z" transform="translate(-169.173 -272.39)" fill="#263238"/>
      <path id="Trazado_114781" data-name="Trazado 114781" d="M191.715,415.518a1.9,1.9,0,0,0-.071-1.182,3.8,3.8,0,0,0-.566-1.177,3.675,3.675,0,0,0-.515-.582.972.972,0,0,0-.905-.327.557.557,0,0,0-.365.469,1.714,1.714,0,0,0,.025.452,2.585,2.585,0,0,0,.256.754,2.712,2.712,0,0,0,.867,1c.633.419,1.131.419,1.131.369a9.65,9.65,0,0,1-.96-.6,2.745,2.745,0,0,1-.708-.934,2.332,2.332,0,0,1-.2-.654c-.046-.251,0-.469.075-.478a.683.683,0,0,1,.516.235,3.677,3.677,0,0,1,.482.515,4.189,4.189,0,0,1,.595,1.043C191.627,415.07,191.648,415.518,191.715,415.518Z" transform="translate(-166.08 -271.863)" fill="#263238"/>
      <path id="Trazado_114782" data-name="Trazado 114782" d="M166.856,274.665s-8.765-7.772-12.612-7.71-16.467-.771-11.175,16.71c5.338,17.627,14.887,44.581,15.147,43.613l16.437-7.211L167.974,295s22.408.251,26.736-.318,12.419-6.264,12.419-6.264l-1.286,31.651,17.179-.96s2.409-38.053,3.1-45.872c.608-6.813-7.048-14.455-14.849-12.729-5.1,1.14-23.309,14-23.309,14Z" transform="translate(-138.485 -183.564)" fill="#12263f"/>
      <path id="Trazado_114783" data-name="Trazado 114783" d="M298.008,287.21a4.323,4.323,0,0,1-.021.838c-.029.587-.067,1.345-.113,2.258-.092,1.9-.151,4.538-.2,7.446s-.1,5.552-.2,7.458c-.046.955-.1,1.726-.155,2.258a4.238,4.238,0,0,1-.109.838,4.373,4.373,0,0,1,0-.838c0-.587.038-1.345.063-2.258.029-1.961.071-4.567.117-7.454s.138-5.547.281-7.454c.067-.955.142-1.722.209-2.254A4.343,4.343,0,0,1,298.008,287.21Z" transform="translate(-228.773 -199.222)" fill="#455a64"/>
      <path id="Trazado_114784" data-name="Trazado 114784" d="M294.071,312.185a3.534,3.534,0,0,1-.758-.918,10.322,10.322,0,0,1-1.232-2.589,10.181,10.181,0,0,1-.457-2.832,3.519,3.519,0,0,1,.1-1.186,18.518,18.518,0,0,0,.628,3.93A21.355,21.355,0,0,0,294.071,312.185Z" transform="translate(-225.531 -209.361)" fill="#455a64"/>
      <path id="Trazado_114785" data-name="Trazado 114785" d="M212.541,308.466c-.029,0-.067-.419-.2-1.211a15.549,15.549,0,0,0-.9-3.189,16.341,16.341,0,0,0-2.485-4.219,15.664,15.664,0,0,0-4.609-3.813c-3.729-2.162-7.006-4.278-9.293-5.929-1.144-.838-2.045-1.534-2.64-2.053-.306-.256-.524-.469-.675-.612a1.422,1.422,0,0,1-.222-.23s.348.268.968.754,1.529,1.169,2.686,1.973c2.309,1.6,5.6,3.691,9.319,5.845a16.164,16.164,0,0,1,2.606,1.789,16.428,16.428,0,0,1,2.053,2.095,15.923,15.923,0,0,1,2.468,4.316,14.1,14.1,0,0,1,.838,3.243c.067.39.063.7.084.909A1.438,1.438,0,0,1,212.541,308.466Z" transform="translate(-167.377 -199.222)" fill="#455a64"/>
      <path id="Trazado_114786" data-name="Trazado 114786" d="M251.143,293.64a4.721,4.721,0,0,1-.285.733c-.205.461-.482,1.14-.8,1.982a36.171,36.171,0,0,0-1.823,6.792,36.583,36.583,0,0,0-.452,7.018c.029.9.075,1.63.121,2.133a4.293,4.293,0,0,1,.034.788,4.015,4.015,0,0,1-.147-.775c-.08-.5-.155-1.232-.214-2.137a32.087,32.087,0,0,1,2.288-13.869c.348-.838.654-1.508.888-1.957A3.865,3.865,0,0,1,251.143,293.64Z" transform="translate(-199.916 -202.958)" fill="#455a64"/>
      <path id="Trazado_114787" data-name="Trazado 114787" d="M177.5,288.2a1.6,1.6,0,0,1,.239.155l.658.482.473.348c.168.134.335.3.524.465a12.936,12.936,0,0,1,1.219,1.2l.666.742c.214.268.419.561.649.838l.339.457c.109.155.209.327.318.494.205.335.419.679.641,1.039a31.426,31.426,0,0,1,2.208,5.011c.649,1.818,1.135,3.591,1.575,5.2s.838,3.059,1.144,4.286.6,2.2.8,2.879c.092.323.168.582.222.784a1.09,1.09,0,0,1,.063.276,1.73,1.73,0,0,1-.1-.264l-.26-.775c-.226-.666-.515-1.647-.867-2.862l-1.186-4.274c-.448-1.609-.943-3.377-1.588-5.187a32.29,32.29,0,0,0-2.179-4.953c-.2-.36-.419-.7-.629-1.035-.1-.168-.2-.335-.31-.494s-.222-.306-.335-.452c-.218-.3-.419-.591-.633-.863l-.654-.742a12.54,12.54,0,0,0-1.19-1.207c-.18-.172-.344-.339-.507-.478l-.461-.365-.637-.52A1.7,1.7,0,0,1,177.5,288.2Z" transform="translate(-159.232 -199.797)" fill="#455a64"/>
      <path id="Trazado_114788" data-name="Trazado 114788" d="M201.18,287.66c3.126,2.066,6.57,2.552,10.249,3.256a13.565,13.565,0,0,0,6.423.163c4.441-1.316,8.74-6.373,11.594-8.179l-11.921,3.021Z" transform="translate(-172.99 -196.718)" fill="#fc4b52"/>
    </g>
    <path id="Trazado_114890" data-name="Trazado 114890" d="M30.751,0A30.753,30.753,0,1,1,0,30.752,30.752,30.752,0,0,1,30.751,0Z" transform="translate(180 408.833)" fill="#12263f"/>
    <path id="Trazado_158680" data-name="Trazado 158680" d="M7.311,0A7.311,7.311,0,1,1,0,7.311,7.311,7.311,0,0,1,7.311,0Z" transform="translate(242.114 467.71) rotate(-76.96)" fill="#12263f"/>
    <path id="Trazado_158679" data-name="Trazado 158679" d="M26.945,0A26.946,26.946,0,1,1,0,26.945,26.945,26.945,0,0,1,26.945,0Z" transform="translate(183.807 412.641)" fill="#fff"/>
    <path id="Trazado_158681" data-name="Trazado 158681" d="M4.678,0A4.678,4.678,0,1,1,0,4.678,4.678,4.678,0,0,1,4.678,0Z" transform="translate(245.273 465.739) rotate(-76.96)" fill="#fff"/>
    <path id="Trazado_114791" data-name="Trazado 114791" d="M109.59,102.121A11.251,11.251,0,1,0,93.55,112.3v2.83h9.857s.064-1.592.085-3.014A11.251,11.251,0,0,0,109.59,102.121Z" transform="translate(112.432 334.646)" fill="#feca2e"/>
    <path id="Trazado_114792" data-name="Trazado 114792" d="M102,119.739V119.6a1.579,1.579,0,0,1,.042-.4c.05-.361.113-.884.212-1.564s.226-1.493.446-2.441a16.7,16.7,0,0,1,1.019-3.135,11.054,11.054,0,0,1,.927-1.684,2.074,2.074,0,0,1,.771-.708,1.168,1.168,0,0,1,1.068,0,.771.771,0,0,1,.3,1.019,1.6,1.6,0,0,1-.87.75,3.085,3.085,0,0,1-2.335-.163,3.127,3.127,0,0,1-1.592-1.882,2.363,2.363,0,0,1-.064-1.295,1.012,1.012,0,0,1,1.019-.785.708.708,0,0,1,.573.4,1.033,1.033,0,0,1,.092.708,2.122,2.122,0,0,1-.792,1.118,3.347,3.347,0,0,1-2.618.764,2.922,2.922,0,0,1-2.179-1.62,1.7,1.7,0,0,1-.078-1.366.878.878,0,0,1,.5-.5.821.821,0,0,1,.708.064,1.1,1.1,0,0,1,.474.5,1.585,1.585,0,0,1,.17.644,3.156,3.156,0,0,1-.17,1.288,3.34,3.34,0,0,1-1.585,1.889,3.439,3.439,0,0,1-2.328.318,1.8,1.8,0,0,1-1.012-.538.877.877,0,0,1-.064-1.083.708.708,0,0,1,.509-.248.984.984,0,0,1,.531.106,1.592,1.592,0,0,1,.708.771c.283.609.509,1.2.708,1.769.906,2.264,1.543,4.132,1.967,5.427.212.651.375,1.153.481,1.5.05.163.085.3.113.389a1.194,1.194,0,0,1,0,.134,1.074,1.074,0,0,1-.05-.127,1.723,1.723,0,0,0-.127-.389c-.12-.347-.283-.849-.5-1.486-.446-1.288-1.1-3.156-2-5.413-.233-.559-.467-1.16-.75-1.755a1.479,1.479,0,0,0-.637-.708.764.764,0,0,0-.906.113.75.75,0,0,0,.064.934,1.649,1.649,0,0,0,.948.5,3.283,3.283,0,0,0,2.243-.311,3.241,3.241,0,0,0,1.521-1.818,3.149,3.149,0,0,0,.163-1.231,1.238,1.238,0,0,0-.58-1.033.684.684,0,0,0-1,.368,1.585,1.585,0,0,0,.078,1.252,2.83,2.83,0,0,0,2.073,1.543,3.219,3.219,0,0,0,2.512-.708,2.038,2.038,0,0,0,.708-1.04.849.849,0,0,0-.078-.6.594.594,0,0,0-.46-.326.842.842,0,0,0-.566.184.962.962,0,0,0-.318.5,2.258,2.258,0,0,0,.064,1.224,2.979,2.979,0,0,0,3.757,1.967,1.493,1.493,0,0,0,.807-.708.658.658,0,0,0-.262-.87,1.033,1.033,0,0,0-.962,0,1.96,1.96,0,0,0-.708.651,10.5,10.5,0,0,0-.92,1.663,16.662,16.662,0,0,0-1.04,3.106c-.219.941-.361,1.769-.467,2.441s-.177,1.189-.233,1.55a2.187,2.187,0,0,1-.057.4A.922.922,0,0,1,102,119.739Z" transform="translate(110.271 329.998)" fill="#263238"/>
    <path id="Trazado_114793" data-name="Trazado 114793" d="M105.311,127.227H96.82a.63.63,0,0,1-.63-.637h0a.63.63,0,0,1,.63-.63h8.491a.63.63,0,0,1,.637.63h0a.637.637,0,0,1-.637.637Z" transform="translate(109.77 324.386)" fill="#263238"/>
    <path id="Trazado_114794" data-name="Trazado 114794" d="M105.336,128.539H96.845a.637.637,0,0,0,0,1.267h.934l1.231,2.349a.814.814,0,0,0,.708.439h3.028a.814.814,0,0,0,.708-.446l1.2-2.342h.63a.637.637,0,1,0,0-1.267Z" transform="translate(109.745 323.633)" fill="#263238"/>
    <g id="Grupo_80138" data-name="Grupo 80138" transform="translate(200.82 427.58)" opacity="0.2">
      <path id="Trazado_114795" data-name="Trazado 114795" d="M91.653,95.806a8.349,8.349,0,0,1,2.278-1.5,5.957,5.957,0,0,1,1.734-.5c.425-.042.708,0,.708.085.05.205-.8.509-1.953,1.274a9.291,9.291,0,0,0-4.245,9.092c.156,1.373.474,2.215.29,2.314s-.269-.12-.509-.474a6.015,6.015,0,0,1-.708-1.649,8.314,8.314,0,0,1-.311-2.689,8.823,8.823,0,0,1,.75-3.248" transform="translate(-88.926 -93.786)" fill="#fff"/>
    </g>
    <g id="Grupo_80139" data-name="Grupo 80139" transform="translate(209.513 426.789)" opacity="0.2">
      <path id="Trazado_114796" data-name="Trazado 114796" d="M102.625,94.049c-.708,0-1.344-.205-1.415-.58a.648.648,0,0,1,.354-.545,2.073,2.073,0,0,1,1.068-.255,2.122,2.122,0,0,1,1.061.269c.255.156.382.361.354.545" transform="translate(-101.21 -92.668)" fill="#fff"/>
    </g>
    <path id="Trazado_114797" data-name="Trazado 114797" d="M104.624,133.715s-.219-.078-.58-.177a4.628,4.628,0,0,0-2.83.085c-.354.12-.559.226-.573.212a1.67,1.67,0,0,1,.538-.3,4.1,4.1,0,0,1,2.922-.085A1.676,1.676,0,0,1,104.624,133.715Z" transform="translate(108.469 322.264)" fill="#455a64"/>
    <path id="Trazado_114798" data-name="Trazado 114798" d="M105.385,130.341c0,.042-1.528.071-3.418.071a29.4,29.4,0,0,1-3.418-.071,29.415,29.415,0,0,1,3.418-.071C103.857,130.27,105.385,130.305,105.385,130.341Z" transform="translate(109.08 323.125)" fill="#455a64"/>
    <path id="Trazado_114799" data-name="Trazado 114799" d="M105.1,131.79a3.9,3.9,0,0,1-.828.085c-.517.035-1.231.064-2.024.078s-1.5,0-2.017,0a5.158,5.158,0,0,1-.835-.057,4.548,4.548,0,0,1,.835-.042h4.033A4.952,4.952,0,0,1,105.1,131.79Z" transform="translate(108.831 322.681)" fill="#455a64"/>
    <g id="Grupo_80151" data-name="Grupo 80151" transform="translate(429.692 397.023)">
      <path id="Trazado_113846" data-name="Trazado 113846" d="M348.3,80.139H385.42V24.57H290.24V80.139h51.63" transform="translate(-273.779 -24.563)" fill="#a7e446"/>
      <rect id="Rectángulo_34482" data-name="Rectángulo 34482" width="95.186" height="4.107" transform="translate(16.454)" fill="#7bb41e"/>
      <path id="Trazado_113847" data-name="Trazado 113847" d="M338.265,90.389H375.39V34.82H280.21V90.389h51.63" transform="translate(-270.47 -27.946)" fill="#fc4b52"/>
      <rect id="Rectángulo_34483" data-name="Rectángulo 34483" width="95.186" height="4.107" transform="translate(9.741 6.875)" fill="#db333a"/>
      <g id="Screen" transform="translate(0.308 15.497)">
        <path id="Trazado_114801" data-name="Trazado 114801" d="M324.192,103.259h37.124V47.69H266.13v55.569h51.637" transform="translate(-266.13 -47.69)" fill="#e8e8e8"/>
        <rect id="Rectángulo_34486" data-name="Rectángulo 34486" width="95.186" height="4.107" transform="translate(0 0)" fill="#afafaf"/>
        <path id="Trazado_114804" data-name="Trazado 114804" d="M269.925,50.6a.529.529,0,0,1-.529.536.536.536,0,0,1-.536-.536.533.533,0,0,1,1.065,0Z" transform="translate(-267.031 -48.475)" fill="#e8e8e8"/>
        <path id="Trazado_114806" data-name="Trazado 114806" d="M272.892,50.6a.536.536,0,1,1-.536-.536A.536.536,0,0,1,272.892,50.6Z" transform="translate(-268.008 -48.472)" fill="#e8e8e8"/>
        <path id="Trazado_114808" data-name="Trazado 114808" d="M275.855,50.6a.536.536,0,0,1-.536.536.534.534,0,1,1,.536-.536Z" transform="translate(-268.988 -48.475)" fill="#e8e8e8"/>
        <path id="Trazado_114810" data-name="Trazado 114810" d="M333.228,60.932s-1.876.122-4.194.122a25.673,25.673,0,0,1-4.194-.122,25.673,25.673,0,0,1,4.194-.122A33.809,33.809,0,0,1,333.228,60.932Z" transform="translate(-285.505 -52.158)" fill="#12263f"/>
        <path id="Trazado_114812" data-name="Trazado 114812" d="M349.868,60.932s-1.876.122-4.194.122a25.674,25.674,0,0,1-4.194-.122,25.673,25.673,0,0,1,4.194-.122A33.808,33.808,0,0,1,349.868,60.932Z" transform="translate(-290.996 -52.158)" fill="#12263f"/>
        <path id="Trazado_114814" data-name="Trazado 114814" d="M366.548,60.932s-1.876.122-4.194.122a25.673,25.673,0,0,1-4.194-.122,25.672,25.672,0,0,1,4.194-.122A33.809,33.809,0,0,1,366.548,60.932Z" transform="translate(-296.5 -52.158)" fill="#12263f"/>
        <path id="Trazado_114816" data-name="Trazado 114816" d="M383.355,60.932s-1.883.122-4.194.122a25.844,25.844,0,0,1-4.2-.122,25.787,25.787,0,0,1,4.2-.122A33.809,33.809,0,0,1,383.355,60.932Z" transform="translate(-302.044 -52.158)" fill="#12263f"/>
        <path id="Trazado_114818" data-name="Trazado 114818" d="M375.616,104.445s-9.119.115-20.361.115-20.354,0-20.354-.115,9.112-.115,20.354-.115S375.616,104.388,375.616,104.445Z" transform="translate(-288.824 -66.505)" fill="#12263f"/>
        <path id="Trazado_114820" data-name="Trazado 114820" d="M375.286,113.73s-9.119.15-20.354.15-20.361,0-20.361-.15,9.112-.15,20.361-.15S375.286,113.636,375.286,113.73Z" transform="translate(-288.715 -69.627)" fill="#12263f"/>
        <path id="Trazado_114822" data-name="Trazado 114822" d="M375.286,116.162c0,.081-9.119.146-20.354.146s-20.361,0-20.361-.146,9.112-.162,20.388-.162S375.286,116.1,375.286,116.162Z" transform="translate(-288.715 -70.413)" fill="#12263f"/>
        <path id="Trazado_114824" data-name="Trazado 114824" d="M355.516,107.658s-4.616.118-10.311.118-10.3,0-10.3-.118,4.61-.118,10.3-.118S355.516,107.6,355.516,107.658Z" transform="translate(-288.824 -67.569)" fill="#12263f"/>
        <path id="Trazado_114826" data-name="Trazado 114826" d="M398.476,61.484a.936.936,0,0,0,.2-.034.964.964,0,0,0,.482-.295.844.844,0,0,0,.188-.362,1.681,1.681,0,0,0,.034-.5,1.506,1.506,0,0,0-.235-1.139.864.864,0,0,0-.6-.295h-6.4a.884.884,0,0,0-.878.945v.5a1.8,1.8,0,0,0,0,.469.908.908,0,0,0,.221.382.87.87,0,0,0,.375.228,1.34,1.34,0,0,0,.435.04h0a1.434,1.434,0,0,1-.469-.047,1.012,1.012,0,0,1-.415-.248.978.978,0,0,1-.248-.435.806.806,0,0,1-.034-.255V59.7a1.012,1.012,0,0,1,.107-.516.978.978,0,0,1,.878-.536h6.405a.958.958,0,0,1,.67.328.971.971,0,0,1,.248.616v.576a1.784,1.784,0,0,1-.04.509.884.884,0,0,1-.208.375.945.945,0,0,1-.516.288A.569.569,0,0,1,398.476,61.484Z" transform="translate(-307.383 -51.307)" fill="#12263f"/>
        <rect id="Rectángulo_34487" data-name="Rectángulo 34487" width="27.188" height="26.304" transform="translate(9.313 19.711)" fill="#a7e446"/>
        <g id="Grupo_80140" data-name="Grupo 80140" transform="translate(11.423 30.23)">
          <path id="Trazado_114829" data-name="Trazado 114829" d="M283.18,106.351,290.7,92.81l6.157,8.656,3.739-4.6,5.561,9.48Z" transform="translate(-283.18 -92.81)" fill="#12263f"/>
        </g>
        <g id="Grupo_80141" data-name="Grupo 80141" transform="translate(23.805 25.668)">
          <path id="Trazado_114831" data-name="Trazado 114831" d="M305.573,87.93A1.956,1.956,0,1,1,303.616,86a1.956,1.956,0,0,1,1.956,1.93Z" transform="translate(-301.66 -86)" fill="#12263f"/>
        </g>
        <g id="Grupo_80142" data-name="Grupo 80142" transform="translate(11.263 21.782)">
          <path id="Trazado_114833" data-name="Trazado 114833" d="M306.075,80.2H283.1s-.248.248-.127.134h0V102.37h.114l16.683-.054h-.08l-16.475-.141V80.441h22.733c0,6.519.047,11.953.06,15.772v5.956a.335.335,0,0,0,0,.114v-6c0-3.859.033-9.38.054-15.953V80.2Z" transform="translate(-282.941 -80.2)" fill="#12263f"/>
        </g>
        <ellipse id="Elipse_4721" data-name="Elipse 4721" cx="1.809" cy="1.809" rx="1.809" ry="1.809" transform="translate(5.795 7.035)" fill="#afafaf"/>
        <path id="Trazado_114836" data-name="Trazado 114836" d="M356.6,89.444c0,.094-4.576.174-10.224.174s-10.231-.08-10.231-.174,4.576-.174,10.231-.174S356.6,89.344,356.6,89.444Z" transform="translate(-289.234 -61.412)" fill="#12263f"/>
      </g>
    </g>
    <g id="Video" transform="translate(390.135 541.686)">
      <path id="Trazado_114837" data-name="Trazado 114837" d="M141.792,204.489l-32.815-7.774a2.382,2.382,0,0,1-1.5-2.848l5.374-21.36a2.364,2.364,0,0,1,2.588-1.9l32.9,8.007c1.146.278,1.406,1.451,1.128,2.6l-5.714,22.077a1.648,1.648,0,0,1-1.97,1.2Z" transform="translate(-107.402 -170.593)" fill="#feca2e"/>
      <path id="Trazado_114839" data-name="Trazado 114839" d="M132.345,186.937l3.762,3.708-5.114,1.576-5.123,1.567,1.352-5.284,1.352-5.284Z" transform="translate(-109.33 -171.911)" fill="#fc4b52"/>
    </g>
    <g id="Device" transform="translate(460.933 496.728)">
      <rect id="Rectángulo_34488" data-name="Rectángulo 34488" width="34.647" height="71.026" rx="5" transform="matrix(0.922, -0.386, 0.386, 0.922, 0, 13.388)" fill="#12263f"/>
      <path id="Trazado_114840" data-name="Trazado 114840" d="M79.728,193.7l-4.314,1.808a1.156,1.156,0,0,0-.59,1.552l.326.776a1.156,1.156,0,0,1-.59,1.552l-8.412,3.492a1.156,1.156,0,0,1-1.505-.652l-.326-.776a1.172,1.172,0,0,0-1.552-.66l-1.513.636-3.779,1.552a3.678,3.678,0,0,0-1.932,4.858L78.378,262.3a3.686,3.686,0,0,0,4.819,1.979l22.216-9.312a3.67,3.67,0,0,0,1.971-4.819L84.54,195.669a3.678,3.678,0,0,0-4.811-1.971Z" transform="translate(-51.828 -189.67)" fill="#fafafa"/>
      <path id="Trazado_114841" data-name="Trazado 114841" d="M89.979,200.69s-.543.264-1.234.559-1.257.528-1.265.512.551-.264,1.242-.566A13.235,13.235,0,0,1,89.979,200.69Z" transform="translate(-59.052 -191.301)" fill="#263238"/>
      <path id="Trazado_114842" data-name="Trazado 114842" d="M90.339,201.51s-.551.264-1.242.566a12.345,12.345,0,0,1-1.257.5c-.008-.016.543-.264,1.234-.559S90.331,201.494,90.339,201.51Z" transform="translate(-59.133 -191.484)" fill="#263238"/>
      <path id="Trazado_114843" data-name="Trazado 114843" d="M90.689,202.33a13.561,13.561,0,0,1-1.234.567c-.691.295-1.257.528-1.265.512s.551-.272,1.242-.567S90.681,202.322,90.689,202.33Z" transform="translate(-59.211 -191.668)" fill="#263238"/>
      <path id="Trazado_114844" data-name="Trazado 114844" d="M62.277,214.88h.054l.14-.062.528-.241h0l-.171-.388c0-.07-.062-.14-.093-.225a.225.225,0,0,1,.116-.241l.248-.109a.225.225,0,0,1,.264.132l.248.566h-.039l.675-.287h0l-.365-.838-.085-.21a.233.233,0,0,0-.163-.116l-.419-.171-.4-.163-.194-.078a.443.443,0,0,0-.186-.047.217.217,0,0,0-.14.093,1.78,1.78,0,0,1-.078.178l-.14.349c-.085.217-.178.434-.241.613a.481.481,0,0,0,.078.272l.093.233.163.388.1.248a.636.636,0,0,1,0,.085v-.078l-.109-.241c-.047-.109-.109-.233-.171-.38l-.109-.241-.054-.132a.264.264,0,0,1,0-.155c.062-.21.155-.4.241-.636a1.1,1.1,0,0,1,.132-.341c.047-.116.047-.116.078-.186a.3.3,0,0,1,.178-.124.474.474,0,0,1,.217.054l.194.078.4.155.419.171.109.047a.249.249,0,0,1,.078.1l.093.217.365.838h0l-.675.287h0c-.078-.2-.163-.388-.241-.566a.171.171,0,0,0-.2-.109l-.248.1a.178.178,0,0,0-.085.194.634.634,0,0,0,.085.217l.163.388h0l-.543.225-.147.054Z" transform="translate(-53.303 -193.913)" fill="#263238"/>
      <path id="Trazado_114845" data-name="Trazado 114845" d="M86.778,212.964a.645.645,0,0,1,.124-.07,2.2,2.2,0,0,0,.365-.241,2.081,2.081,0,0,0,.442-.543,1.87,1.87,0,0,0,.272-.9,1.739,1.739,0,0,0-.062-.559,5.157,5.157,0,0,0-.233-.59,4.432,4.432,0,0,0-.287-.621,1.979,1.979,0,0,0-2.049-.861,5.5,5.5,0,0,0-.83.318l-.877.365-18.7,7.845a1.917,1.917,0,0,0-1.086,2.367c.078.217.186.442.272.66a2.125,2.125,0,0,0,.334.613,1.94,1.94,0,0,0,1.156.7,1.792,1.792,0,0,0,.675,0,2.713,2.713,0,0,0,.644-.21l1.257-.528,2.429-1.017,8.4-3.515,5.665-2.328,1.552-.644.4-.163.14-.047-.14.062-.4.171-1.552.652-5.657,2.39-8.388,3.476-2.429,1.024-1.249.528a3.2,3.2,0,0,1-.667.217,1.8,1.8,0,0,1-.706,0,2.018,2.018,0,0,1-1.211-.729,2.328,2.328,0,0,1-.349-.636c-.093-.225-.194-.435-.272-.667A2.01,2.01,0,0,1,64.9,217L83.6,209.193l.869-.365a5.167,5.167,0,0,1,.854-.318,1.986,1.986,0,0,1,1.552.349,1.917,1.917,0,0,1,.512.551,3.82,3.82,0,0,1,.295.628,5.069,5.069,0,0,1,.225.59,1.863,1.863,0,0,1,.078.582,1.932,1.932,0,0,1-.264.923,1.956,1.956,0,0,1-.458.543,1.9,1.9,0,0,1-.365.233Z" transform="translate(-53.718 -193.044)" fill="#263238"/>
      <path id="Trazado_114846" data-name="Trazado 114846" d="M92.211,210.99s0-.062-.124-.171a.776.776,0,0,0-.458-.287.823.823,0,0,0-.776.194.8.8,0,1,0,1.249.993.838.838,0,0,0,.109-.528v-.155a.824.824,0,0,1-.047.722.885.885,0,1,1-1.366-1.094.861.861,0,0,1,.83-.194.83.83,0,0,1,.466.326,1.551,1.551,0,0,1,.078.14A.242.242,0,0,0,92.211,210.99Z" transform="translate(-59.732 -193.484)" fill="#263238"/>
      <path id="Trazado_114847" data-name="Trazado 114847" d="M93.706,212.516a1.724,1.724,0,0,1-.528-.186c-.279-.132-.5-.248-.489-.279a3.622,3.622,0,0,1,1.017.466Z" transform="translate(-60.219 -193.846)" fill="#263238"/>
      <path id="Trazado_114848" data-name="Trazado 114848" d="M67.863,220.9l-.427.178-.047-.116.97-.4.047.109-.419.179.458,1.094-.124.046Z" transform="translate(-54.552 -195.752)" fill="#263238"/>
      <path id="Trazado_114849" data-name="Trazado 114849" d="M69.915,221.018l-.776.318a.357.357,0,0,0,.481.171.4.4,0,0,0,.233-.241l.1.054a.52.52,0,0,1-.954,0,.475.475,0,0,1,.877-.365A.722.722,0,0,0,69.915,221.018Zm-.776.233.636-.272a.349.349,0,0,0-.636.272Z" transform="translate(-54.904 -195.775)" fill="#263238"/>
      <path id="Trazado_114850" data-name="Trazado 114850" d="M71.131,220.955l-.442-.264-.132.5-.132.054.163-.613-.528-.295.14-.062.419.241.124-.466.132-.054-.155.582.551.31Z" transform="translate(-55.15 -195.627)" fill="#263238"/>
      <path id="Trazado_114851" data-name="Trazado 114851" d="M72.188,220.45a.334.334,0,0,1-.163.147.264.264,0,0,1-.38-.155l-.225-.543-.163.07-.047-.109.163-.062-.078-.2.116-.047.085.194.272-.116.047.1-.272.116.225.543a.163.163,0,0,0,.225.1.264.264,0,0,0,.116-.109Z" transform="translate(-55.407 -195.526)" fill="#263238"/>
      <rect id="Rectángulo_34489" data-name="Rectángulo 34489" width="5.618" height="5.618" transform="translate(13.69 32.257) rotate(-22.76)" fill="#263238"/>
      <rect id="Rectángulo_34490" data-name="Rectángulo 34490" width="5.618" height="5.618" transform="translate(13.69 32.257) rotate(-22.76)" fill="#a7e446"/>
      <path id="Trazado_114852" data-name="Trazado 114852" d="M86.06,222.63s-1.707.776-3.88,1.668S78.3,225.9,78.3,225.85s1.715-.776,3.88-1.668S86.052,222.607,86.06,222.63Z" transform="translate(-56.996 -196.215)" fill="#263238"/>
      <path id="Trazado_114853" data-name="Trazado 114853" d="M93.1,221.34s-3.1,1.35-6.937,2.964-6.984,2.894-6.984,2.871,3.1-1.35,6.937-2.964S93.086,221.317,93.1,221.34Z" transform="translate(-57.193 -195.927)" fill="#263238"/>
      <path id="Trazado_114854" data-name="Trazado 114854" d="M93.55,222.89s-3.057,1.335-6.852,2.925-6.891,2.863-6.9,2.84,3.057-1.335,6.86-2.926S93.543,222.867,93.55,222.89Z" transform="translate(-57.332 -196.274)" fill="#263238"/>
      <path id="Trazado_114855" data-name="Trazado 114855" d="M88.507,227.33s-1.8.776-4.043,1.746-4.066,1.684-4.074,1.661,1.793-.776,4.035-1.746S88.5,227.307,88.507,227.33Z" transform="translate(-57.464 -197.268)" fill="#263238"/>
      <rect id="Rectángulo_34491" data-name="Rectángulo 34491" width="5.618" height="5.618" transform="translate(17.294 40.853) rotate(-22.76)" fill="#ff725e"/>
      <path id="Trazado_114856" data-name="Trazado 114856" d="M90.76,233.76s-1.715.776-3.88,1.668S83,237.027,83,236.98s1.715-.776,3.88-1.668S90.76,233.729,90.76,233.76Z" transform="translate(-58.049 -198.709)" fill="#263238"/>
      <path id="Trazado_114857" data-name="Trazado 114857" d="M97.771,232.47s-3.1,1.35-6.937,2.956-6.984,2.9-6.984,2.879,3.1-1.35,6.937-2.964S97.756,232.439,97.771,232.47Z" transform="translate(-58.239 -198.42)" fill="#263238"/>
      <path id="Trazado_114858" data-name="Trazado 114858" d="M98.22,234s-3.057,1.335-6.86,2.925-6.883,2.863-6.891,2.84,3.057-1.335,6.86-2.925S98.213,234,98.22,234Z" transform="translate(-58.378 -198.763)" fill="#263238"/>
      <path id="Trazado_114859" data-name="Trazado 114859" d="M93.177,238.46s-1.8.776-4.043,1.746-4.066,1.684-4.074,1.661,1.792-.776,4.035-1.754S93.161,238.429,93.177,238.46Z" transform="translate(-58.51 -199.762)" fill="#263238"/>
      <rect id="Rectángulo_34492" data-name="Rectángulo 34492" width="5.618" height="5.618" transform="translate(20.917 49.48) rotate(-22.76)" fill="#fc4b52"/>
      <path id="Trazado_114860" data-name="Trazado 114860" d="M95.4,244.88s-1.715.776-3.88,1.668-3.88,1.606-3.88,1.552,1.715-.776,3.88-1.668S95.392,244.857,95.4,244.88Z" transform="translate(-59.088 -201.2)" fill="#263238"/>
      <path id="Trazado_114861" data-name="Trazado 114861" d="M102.439,243.59s-3.1,1.35-6.945,2.964-6.984,2.9-6.984,2.879,3.1-1.35,6.937-2.964S102.423,243.567,102.439,243.59Z" transform="translate(-59.283 -200.911)" fill="#263238"/>
      <path id="Trazado_114862" data-name="Trazado 114862" d="M102.89,245.14s-3.1,1.335-6.86,2.933-6.883,2.863-6.891,2.84,3.057-1.335,6.852-2.933S102.875,245.117,102.89,245.14Z" transform="translate(-59.424 -201.258)" fill="#263238"/>
      <path id="Trazado_114863" data-name="Trazado 114863" d="M97.844,249.58s-1.8.776-4.043,1.746-4.066,1.684-4.082,1.684,1.8-.776,4.043-1.746S97.829,249.557,97.844,249.58Z" transform="translate(-59.554 -202.253)" fill="#263238"/>
      <rect id="Rectángulo_34493" data-name="Rectángulo 34493" width="5.618" height="5.618" transform="translate(24.542 58.122) rotate(-22.76)" fill="#ff725e"/>
      <path id="Trazado_114864" data-name="Trazado 114864" d="M100.07,256s-1.715.776-3.88,1.668-3.88,1.606-3.88,1.552,1.707-.776,3.88-1.668S100.062,256,100.07,256Z" transform="translate(-60.134 -203.691)" fill="#263238"/>
      <path id="Trazado_114865" data-name="Trazado 114865" d="M107.1,254.72s-3.1,1.35-6.937,2.964-6.984,2.894-6.984,2.871,3.1-1.35,6.984-2.964S107.093,254.7,107.1,254.72Z" transform="translate(-60.329 -203.404)" fill="#263238"/>
      <path id="Trazado_114866" data-name="Trazado 114866" d="M107.56,256.27s-3.1,1.335-6.86,2.926-6.883,2.871-6.891,2.84,3.057-1.335,6.852-2.925S107.545,256.247,107.56,256.27Z" transform="translate(-60.47 -203.751)" fill="#263238"/>
      <path id="Trazado_114867" data-name="Trazado 114867" d="M102.507,260.71l-4.035,1.746c-2.243.97-4.066,1.684-4.082,1.661s1.8-.776,4.043-1.746S102.5,260.687,102.507,260.71Z" transform="translate(-60.6 -204.746)" fill="#263238"/>
      <rect id="Rectángulo_34494" data-name="Rectángulo 34494" width="5.618" height="5.618" transform="translate(28.168 66.756) rotate(-22.76)" fill="#e0e0e0"/>
      <path id="Trazado_114868" data-name="Trazado 114868" d="M104.76,267.14s-1.715.776-3.88,1.668S97,270.407,97,270.36s1.715-.776,3.88-1.668S104.76,267.117,104.76,267.14Z" transform="translate(-61.185 -206.186)" fill="#e0e0e0"/>
      <path id="Trazado_114869" data-name="Trazado 114869" d="M111.771,265.85s-3.1,1.35-6.937,2.964-6.984,2.894-6.984,2.871,3.1-1.35,6.937-2.964S111.763,265.827,111.771,265.85Z" transform="translate(-61.375 -205.898)" fill="#e0e0e0"/>
      <path id="Trazado_114870" data-name="Trazado 114870" d="M112.223,267.4s-3.057,1.335-6.852,2.925-6.883,2.863-6.891,2.84,3.057-1.335,6.852-2.925S112.215,267.377,112.223,267.4Z" transform="translate(-61.516 -206.245)" fill="#e0e0e0"/>
      <path id="Trazado_114871" data-name="Trazado 114871" d="M107.177,271.84s-1.8.776-4.035,1.746-4.074,1.684-4.082,1.661,1.8-.776,4.043-1.746S107.169,271.817,107.177,271.84Z" transform="translate(-61.646 -207.239)" fill="#e0e0e0"/>
      <g id="Grupo_80143" data-name="Grupo 80143" transform="translate(24.556 55.986)">
        <rect id="Rectángulo_34495" data-name="Rectángulo 34495" width="5.618" height="5.618" transform="translate(0 2.173) rotate(-22.76)" fill="#a7e446"/>
      </g>
      <g id="Grupo_80144" data-name="Grupo 80144" transform="translate(17.294 38.68)">
        <rect id="Rectángulo_34496" data-name="Rectángulo 34496" width="5.618" height="5.618" transform="translate(0 2.173) rotate(-22.76)" fill="#feca2e"/>
      </g>
    </g>
    <g id="Note" transform="translate(522.51 485.363)">
      <path id="Trazado_114872" data-name="Trazado 114872" d="M332.362,163.65,320.55,202.009c3.259,3.992,6.75,7.82,12.805,9.71l29.189,8.023,11.33-45.321Z" transform="translate(-319.056 -160.275)" fill="#e0e0e0"/>
      <path id="Trazado_114873" data-name="Trazado 114873" d="M330.842,160.98,319.03,199.339l12.806,9.71,29.2,8.032,12.941-43.325Z" transform="translate(-319.001 -160.18)" fill="#feca2e"/>
      <path id="Trazado_114874" data-name="Trazado 114874" d="M324.786,199.13,319,200.7a17.416,17.416,0,0,0,4.436,5.487,25.208,25.208,0,0,0,8.37,4.224A16.516,16.516,0,0,1,324.786,199.13Z" transform="translate(-319 -161.543)" fill="#cfa320"/>
      <g id="Grupo_80145" data-name="Grupo 80145" transform="translate(0 37.587)">
        <path id="Trazado_114875" data-name="Trazado 114875" d="M324.786,199.13c-2.285,1.234-4.821,2.787-5.786,1.572a17.416,17.416,0,0,0,4.436,5.487,25.208,25.208,0,0,0,8.37,4.224A16.516,16.516,0,0,1,324.786,199.13Z" transform="translate(-319 -199.13)" fill="#cfa320"/>
      </g>
      <path id="Trazado_114876" data-name="Trazado 114876" d="M325.736,168.925l20.886-4.378-.9-4.4-21.185,4.04Z" transform="translate(-319.198 -160.15)" fill="#cfa320"/>
      <path id="Trazado_114877" data-name="Trazado 114877" d="M378.051,184.866,366.48,166.93l-3.79,2.411,11.378,18.331Z" transform="translate(-320.561 -160.392)" fill="#cfa320"/>
      <path id="Trazado_114878" data-name="Trazado 114878" d="M365.6,186.641c0,.077-7.386-2.044-16.441-4.715s-16.393-4.908-16.393-4.985,7.377,2.044,16.393,4.725S365.623,186.534,365.6,186.641Z" transform="translate(-319.492 -160.75)" fill="#263238"/>
      <path id="Trazado_114879" data-name="Trazado 114879" d="M363.635,192.691c0,.077-7.377-2.044-16.393-4.715s-16.393-4.918-16.393-4.985,7.377,2.044,16.441,4.725S363.664,192.642,363.635,192.691Z" transform="translate(-319.423 -160.966)" fill="#263238"/>
      <path id="Trazado_114880" data-name="Trazado 114880" d="M362.224,198.19c0,.068-7.386-2.044-16.441-4.725s-16.393-4.908-16.393-4.985,7.386,2.044,16.441,4.725S362.243,198.113,362.224,198.19Z" transform="translate(-319.371 -161.162)" fill="#263238"/>
      <path id="Trazado_114881" data-name="Trazado 114881" d="M360.635,203.411c0,.068-7.377-2.044-16.393-4.725s-16.393-4.908-16.393-4.976,7.377,2.044,16.441,4.725S360.655,203.343,360.635,203.411Z" transform="translate(-319.316 -161.349)" fill="#263238"/>
    </g>
    <g id="Photos" transform="translate(329 408.812)">
      <rect id="Rectángulo_34497" data-name="Rectángulo 34497" width="25.336" height="31.692" transform="translate(42.239 25.399) rotate(-88.91)" fill="#ebebeb"/>
      <rect id="Rectángulo_34498" data-name="Rectángulo 34498" width="22.15" height="29.465" transform="translate(43.362 23.828) rotate(-88.91)" fill="#a7e446"/>
      <g id="Grupo_80146" data-name="Grupo 80146" transform="translate(43.374 10.259)" opacity="0.3">
        <path id="Trazado_114883" data-name="Trazado 114883" d="M203.08,29.888,213.628,16.32l6.213,8.733,4.406-4.517,8.29,9.914Z" transform="translate(-203.08 -16.32)"/>
      </g>
      <g id="Grupo_80147" data-name="Grupo 80147" transform="translate(58.392 6.368)" opacity="0.3">
        <path id="Trazado_114884" data-name="Trazado 114884" d="M226.674,13.787a2.322,2.322,0,1,1-.644-1.661A2.322,2.322,0,0,1,226.674,13.787Z" transform="translate(-222.031 -11.409)"/>
      </g>
      <rect id="Rectángulo_34499" data-name="Rectángulo 34499" width="47.891" height="38.286" transform="translate(2.566 18.336) rotate(-7.15)" fill="#ebebeb"/>
      <rect id="Rectángulo_34500" data-name="Rectángulo 34500" width="44.523" height="33.467" transform="translate(4.503 20.529) rotate(-7.15)" fill="#fc4b52"/>
      <g id="Grupo_80148" data-name="Grupo 80148" transform="translate(8.662 31.158)" opacity="0.4">
        <path id="Trazado_114886" data-name="Trazado 114886" d="M159.28,65.268,172.127,42.69,183.3,54.4l5.619-7.711,14.542,13.037Z" transform="translate(-159.28 -42.69)"/>
      </g>
      <g id="Grupo_80149" data-name="Grupo 80149" transform="translate(27.827 23.856)" opacity="0.4">
        <path id="Trazado_114887" data-name="Trazado 114887" d="M190.443,36.546a3.5,3.5,0,1,1-3.915-3.043A3.5,3.5,0,0,1,190.443,36.546Z" transform="translate(-183.463 -33.477)"/>
      </g>
      <path id="Trazado_114888" data-name="Trazado 114888" d="M156.869,19.82,148.35,30.947l1.989,3.035L160.356,21.2Z" transform="translate(-148.35 -6.787)" fill="#feca2e"/>
      <path id="Trazado_114889" data-name="Trazado 114889" d="M216.657,56.06,208.13,67.187l1.989,3.043,10.017-12.791Z" transform="translate(-160.754 -14.307)" fill="#feca2e"/>
    </g>
  </g>
</svg>
