<svg xmlns="http://www.w3.org/2000/svg" width="102.996" height="73.188" viewBox="0 0 102.996 73.188">
  <g id="Capa_2" data-name="Capa 2" transform="translate(101.496 71.688) rotate(180)">
    <g id="Recursos" transform="translate(0 0)">
      <rect id="Rectángulo_34689" data-name="Rectángulo 34689" width="34.414" height="21.837" rx="3" transform="translate(53.241 19.543)" fill="#feca2e" stroke="#12263f" stroke-width="3"/>
      <rect id="Rectángulo_34690" data-name="Rectángulo 34690" width="44.658" height="20.782" rx="3" transform="translate(48.204 0.048)" fill="#cba124" stroke="#12263f" stroke-width="3"/>
      <rect id="Rectángulo_34691" data-name="Rectángulo 34691" width="4.35" height="6.317" transform="translate(68.358 35.064)" fill="#12263f"/>
      <rect id="Rectángulo_34692" data-name="Rectángulo 34692" width="4.35" height="6.317" transform="translate(68.397 14.514)" fill="#12263f"/>
      <path id="Trazado_115303" data-name="Trazado 115303" d="M52.111,40.122,27.384,47.448a2.673,2.673,0,0,1-1.51,0L1.147,40.122A1.6,1.6,0,0,1,0,38.585V0H53.258V38.585a1.6,1.6,0,0,1-1.147,1.537Z" transform="translate(0 0)" fill="#fc4b52" stroke="#12263f" stroke-width="3"/>
      <path id="Trazado_115304" data-name="Trazado 115304" d="M1.717,33.151H38.139a1.717,1.717,0,0,0,1.717-1.717V0H0V31.431a1.717,1.717,0,0,0,1.717,1.72Z" transform="translate(6.701 0.057)" fill="#c93c41" stroke="#12263f" stroke-width="3"/>
      <rect id="Rectángulo_34693" data-name="Rectángulo 34693" width="14.024" height="11.487" rx="3" transform="translate(12.604 0)" fill="#cba124" stroke="#12263f" stroke-width="3"/>
      <path id="Trazado_115305" data-name="Trazado 115305" d="M0,4.06H2.534v-2.8A1.262,1.262,0,0,0,1.272,0h0A1.262,1.262,0,0,0,.009,1.262v2.8Z" transform="translate(18.349 7.427)" fill="#12263f"/>
      <rect id="Rectángulo_34694" data-name="Rectángulo 34694" width="14.024" height="11.487" rx="3" transform="translate(26.628 0)" fill="#cba124" stroke="#12263f" stroke-width="3"/>
      <path id="Trazado_115306" data-name="Trazado 115306" d="M0,4.06H2.534v-2.8A1.262,1.262,0,0,0,1.272,0h0A1.262,1.262,0,0,0,.009,1.262v2.8Z" transform="translate(32.373 7.427)" fill="#12263f"/>
      <rect id="Rectángulo_34695" data-name="Rectángulo 34695" width="14.024" height="11.487" rx="3" transform="translate(19.616 11.487)" fill="#feca2e" stroke="#12263f" stroke-width="3"/>
      <path id="Trazado_115307" data-name="Trazado 115307" d="M0,4.061H2.536v-2.8A1.262,1.262,0,0,0,1.273,0h0A1.262,1.262,0,0,0,.011,1.262v2.8Z" transform="translate(25.361 18.912)" fill="#12263f"/>
      <path id="Trazado_115308" data-name="Trazado 115308" d="M13.93,12.418,8.273,18.346a1.694,1.694,0,0,1-2.452,0L.165,12.418A.6.6,0,0,1,.6,11.409H3.114a.6.6,0,0,0,.594-.6v-9.7A1.112,1.112,0,0,1,4.819,0H9.268a1.112,1.112,0,0,1,1.111,1.112v9.7a.6.6,0,0,0,.6.6h2.517a.6.6,0,0,1,.436,1.009Z" transform="translate(63.554 51.317)" fill="#a7e446" stroke="#12263f" stroke-width="3"/>
      <path id="Trazado_115309" data-name="Trazado 115309" d="M9.927,15.547l-8.194.19A1.693,1.693,0,0,1,0,14.005l.19-8.192A.6.6,0,0,1,1.211,5.4l1.78,1.78a.6.6,0,0,0,.845,0L10.694.326a1.112,1.112,0,0,1,1.572,0l3.15,3.15a1.112,1.112,0,0,1,0,1.572L8.558,11.9a.6.6,0,0,0,0,.846l1.78,1.78a.6.6,0,0,1-.411,1.019Z" transform="translate(40.899 46.743)" fill="#a7e446" stroke="#12263f" stroke-width="3"/>
      <path id="Trazado_115310" data-name="Trazado 115310" d="M5.819,15.547l8.193.19a1.693,1.693,0,0,0,1.731-1.733l-.192-8.192A.6.6,0,0,0,14.532,5.4l-1.78,1.78a.6.6,0,0,1-.846,0L5.048.326a1.112,1.112,0,0,0-1.572,0L.325,3.476a1.112,1.112,0,0,0,0,1.572l6.858,6.858a.6.6,0,0,1,0,.846L5.4,14.533a.6.6,0,0,0,.416,1.015Z" transform="translate(84.253 46.743)" fill="#a7e446" stroke="#12263f" stroke-width="3"/>
    </g>
  </g>
</svg>
