<svg xmlns="http://www.w3.org/2000/svg" width="400" height="208" viewBox="0 0 400 208">
  <g id="Grupo_115826" data-name="Grupo 115826" transform="translate(-180 -661)">
    <g id="Rectángulo_34742" data-name="Rectángulo 34742" transform="translate(180 661)" fill="#f4f9f9" stroke="#feca2e" stroke-width="3">
      <path d="M10,0H390a10,10,0,0,1,10,10V208a0,0,0,0,1,0,0H0a0,0,0,0,1,0,0V10A10,10,0,0,1,10,0Z" stroke="none"/>
      <path d="M10,1.5H390a8.5,8.5,0,0,1,8.5,8.5V206.5a0,0,0,0,1,0,0H1.5a0,0,0,0,1,0,0V10A8.5,8.5,0,0,1,10,1.5Z" fill="none"/>
    </g>
    <g id="Capa_2" data-name="Capa 2" transform="translate(284.39 687.865)">
      <g id="Recursos" transform="translate(0 -6.176)">
        <g id="Grupo_80356" data-name="Grupo 80356" transform="translate(-87.17 -0.251)">
          <rect id="Rectángulo_34816" data-name="Rectángulo 34816" width="51.53" height="46.394" transform="translate(4.447 120.05)" fill="#fc4b52"/>
          <rect id="Rectángulo_34817" data-name="Rectángulo 34817" width="38.09" height="14.19" rx="7.095" transform="translate(11.164 139.817)" fill="#c93c41"/>
          <path id="Trazado_116586" data-name="Trazado 116586" d="M62.528,302.343c0,.077-11.357.138-25.349.138s-25.349-.061-25.349-.138,11.352-.143,25.349-.143S62.528,302.266,62.528,302.343Z" transform="translate(-6.838 -173.482)" fill="#c93c41"/>
          <path id="Trazado_116587" data-name="Trazado 116587" d="M19.2,295.143a1.278,1.278,0,1,1-1.256-1.273A1.279,1.279,0,0,1,19.2,295.143Z" transform="translate(-8.997 -169.743)" fill="#c93c41"/>
          <path id="Trazado_116588" data-name="Trazado 116588" d="M26.047,295.143a1.278,1.278,0,1,1-1.278-1.273A1.279,1.279,0,0,1,26.047,295.143Z" transform="translate(-12.072 -169.743)" fill="#c93c41"/>
          <path id="Trazado_116589" data-name="Trazado 116589" d="M32.917,295.143a1.278,1.278,0,1,1-1.278-1.273A1.279,1.279,0,0,1,32.917,295.143Z" transform="translate(-15.156 -169.743)" fill="#c93c41"/>
          <path id="Trazado_116590" data-name="Trazado 116590" d="M39.2,333.469v.628c0,.755-.375,1.185-1.1,1.185s-1.1-.43-1.1-1.185v-2.452c0-.755.375-1.185,1.1-1.185s1.1.43,1.1,1.185v.457h-.689V331.6c0-.336-.149-.463-.386-.463s-.386.127-.386.463v2.551c0,.336.149.457.386.457s.386-.121.386-.457v-.678Z" transform="translate(-18.137 -186.17)" fill="#fc4b52"/>
          <path id="Trazado_116591" data-name="Trazado 116591" d="M41.84,330.55h.744v4.045H43.8v.678H41.84Z" transform="translate(-20.31 -186.21)" fill="#fc4b52"/>
          <path id="Trazado_116592" data-name="Trazado 116592" d="M46,330.55h.738v4.723H46Z" transform="translate(-22.178 -186.21)" fill="#fc4b52"/>
          <path id="Trazado_116593" data-name="Trazado 116593" d="M50.405,333.467v.628c0,.755-.375,1.185-1.1,1.185a1.036,1.036,0,0,1-1.1-1.185v-2.452a1.036,1.036,0,0,1,1.1-1.185c.727,0,1.1.43,1.1,1.185v.457h-.7v-.507c0-.336-.149-.463-.386-.463s-.38.127-.38.463v2.551c0,.336.143.457.38.457s.386-.121.386-.457v-.678Z" transform="translate(-23.161 -186.168)" fill="#fc4b52"/>
          <path id="Trazado_116594" data-name="Trazado 116594" d="M53.986,333.388l-.226.435v1.449H53V330.55h.744v2.055l.97-2.055h.738l-1.03,2.105,1.03,2.618h-.744Z" transform="translate(-25.32 -186.21)" fill="#fc4b52"/>
          <path id="Trazado_116595" data-name="Trazado 116595" d="M60.738,335.273H60V330.55h.744v2.022h.843V330.55h.755v4.723h-.76V333.25h-.843Z" transform="translate(-28.463 -186.21)" fill="#fc4b52"/>
          <path id="Trazado_116596" data-name="Trazado 116596" d="M65.954,332.539h1.019v.672H65.954v1.383h1.278v.678H65.21V330.55h2.022v.678H65.954Z" transform="translate(-30.802 -186.21)" fill="#fc4b52"/>
          <path id="Trazado_116597" data-name="Trazado 116597" d="M71.264,335.273a1.416,1.416,0,0,1-.066-.584v-.738c0-.441-.149-.6-.485-.6h-.259v1.923H69.71V330.55h1.1c.771,0,1.1.358,1.1,1.1v.369a.937.937,0,0,1-.485.959c.369.154.49.512.49,1v.733a1.351,1.351,0,0,0,.083.551Zm-.81-4.045v1.449h.292c.276,0,.441-.121.441-.5v-.463c0-.336-.11-.485-.375-.485Z" transform="translate(-32.822 -186.21)" fill="#fc4b52"/>
          <path id="Trazado_116598" data-name="Trazado 116598" d="M75.385,332.539H76.4v.672H75.385v1.383h1.267v.678H74.63V330.55h2.022v.678H75.385Z" transform="translate(-35.031 -186.21)" fill="#fc4b52"/>
        </g>
        <g id="Grupo_80350" data-name="Grupo 80350" transform="translate(-83 -18.762)">
          <rect id="Rectángulo_34818" data-name="Rectángulo 34818" width="50.297" height="18.739" rx="9.369" transform="translate(8.643 19.979)" fill="#12263f"/>
          <path id="Trazado_116599" data-name="Trazado 116599" d="M48.8,60.893v.82c0,1-.5,1.567-1.46,1.567s-1.46-.57-1.46-1.567V58.473a1.362,1.362,0,0,1,1.46-1.563c.96,0,1.46.57,1.46,1.567v.607H47.87v-.669c0-.443-.2-.611-.509-.611s-.509.168-.509.611v3.368c0,.443.2.6.509.6s.509-.16.509-.6v-.89Z" transform="translate(-27.059 -31.031)" fill="#dff7f9"/>
          <path id="Trazado_116600" data-name="Trazado 116600" d="M54.44,57.09h.976v5.333h1.612v.89H54.44Z" transform="translate(-32.107 -31.138)" fill="#dff7f9"/>
          <path id="Trazado_116601" data-name="Trazado 116601" d="M61.79,57.09h.98v6.231h-.98Z" transform="translate(-36.442 -31.138)" fill="#dff7f9"/>
          <path id="Trazado_116602" data-name="Trazado 116602" d="M68.641,60.893v.82c0,1-.5,1.567-1.46,1.567s-1.46-.57-1.46-1.567V58.473c0-1,.5-1.563,1.46-1.563s1.46.566,1.46,1.563v.607h-.927v-.665c0-.443-.2-.611-.509-.611s-.5.168-.5.611v3.368c0,.443.193.6.5.6s.509-.16.509-.6v-.89Z" transform="translate(-38.76 -31.031)" fill="#dff7f9"/>
          <path id="Trazado_116603" data-name="Trazado 116603" d="M75.57,60.839l-.3.566v1.916h-.98V57.09h.98v2.716l1.28-2.716h.98l-1.362,2.777,1.362,3.454H76.526Z" transform="translate(-43.814 -31.138)" fill="#dff7f9"/>
          <path id="Trazado_116604" data-name="Trazado 116604" d="M87.608,63.321H86.64V57.09h.968v2.671H88.72V57.09h1v6.231h-.989V60.651h-1.12Z" transform="translate(-51.098 -31.138)" fill="#dff7f9"/>
          <path id="Trazado_116605" data-name="Trazado 116605" d="M96.88,59.715h1.341v.89H96.88v1.825h1.69v.89H95.9V57.09h2.671v.89H96.88Z" transform="translate(-56.56 -31.138)" fill="#dff7f9"/>
          <path id="Trazado_116606" data-name="Trazado 116606" d="M105.931,63.321a1.912,1.912,0,0,1-.09-.767v-.989c0-.578-.2-.792-.64-.792h-.34v2.535h-.98V57.09h1.481c1.013,0,1.448.472,1.448,1.432v.492a1.238,1.238,0,0,1-.64,1.263c.488.205.652.677.652,1.325v.964a1.83,1.83,0,0,0,.107.755Zm-1.071-5.333V59.9h.386c.361,0,.587-.16.587-.656v-.615c0-.443-.152-.64-.5-.64Z" transform="translate(-61.266 -31.138)" fill="#dff7f9"/>
          <path id="Trazado_116607" data-name="Trazado 116607" d="M113.6,59.715h1.346v.89H113.6v1.825h1.694v.89H112.62V57.09h2.671v.89H113.6Z" transform="translate(-66.421 -31.138)" fill="#dff7f9"/>
        </g>
        <g id="Grupo_80348" data-name="Grupo 80348" transform="translate(102.184 -13.936)">
          <path id="Trazado_116608" data-name="Trazado 116608" d="M322.96,42.34V89.635l7.618-7.909h36.128V42.34Z" transform="translate(-190.475 -22.438)" fill="#fc4b52"/>
          <path id="Trazado_116609" data-name="Trazado 116609" d="M367.079,60.395c0,.066-9.64.119-21.533.119s-21.537-.053-21.537-.119,9.64-.115,21.537-.115S367.079,60.329,367.079,60.395Z" transform="translate(-191.094 -33.019)" fill="#c93c41"/>
          <path id="Trazado_116610" data-name="Trazado 116610" d="M331.734,51.853a1.087,1.087,0,1,1-1.083-1.083A1.087,1.087,0,0,1,331.734,51.853Z" transform="translate(-194.367 -27.41)" fill="#c93c41"/>
          <path id="Trazado_116611" data-name="Trazado 116611" d="M339.554,51.853a1.087,1.087,0,1,1-.324-.77,1.087,1.087,0,0,1,.324.77Z" transform="translate(-198.979 -27.41)" fill="#c93c41"/>
          <path id="Trazado_116612" data-name="Trazado 116612" d="M347.374,51.853a1.087,1.087,0,1,1-1.083-1.083A1.087,1.087,0,0,1,347.374,51.853Z" transform="translate(-203.591 -27.41)" fill="#c93c41"/>
          <path id="Trazado_116613" data-name="Trazado 116613" d="M353.725,94.742h-2.9l-.542,1.333H348.31l3.027-6.855h1.908l3.036,6.855h-2.018Zm-.566-1.428-.874-2.195-.882,2.195Z" transform="translate(-205.426 -50.087)" fill="#c93c41"/>
          <path id="Trazado_116614" data-name="Trazado 116614" d="M369.08,89.22h3.249c2.273,0,3.831,1.325,3.831,3.429s-1.559,3.425-3.831,3.425h-3.237Zm3.159,5.308a1.88,1.88,0,1,0,0-3.758h-1.231v3.758Z" transform="translate(-217.675 -50.087)" fill="#c93c41"/>
          <path id="Trazado_116615" data-name="Trazado 116615" d="M387.62,95.264l.636-1.432a4.315,4.315,0,0,0,2.26.677c.82,0,1.116-.226,1.116-.558,0-1.087-3.9-.3-3.9-2.839,0-1.231,1-2.223,3.036-2.223a5.1,5.1,0,0,1,2.486.6l-.595,1.436a4.1,4.1,0,0,0-1.9-.525c-.82,0-1.108.271-1.108.615,0,1.046,3.885.263,3.885,2.79,0,1.194-1,2.211-3.032,2.211A5.415,5.415,0,0,1,387.62,95.264Z" transform="translate(-228.61 -49.892)" fill="#c93c41"/>
        </g>
        <g id="Grupo_80346" data-name="Grupo 80346" transform="translate(76.416 -55.633)">
          <path id="Trazado_116616" data-name="Trazado 116616" d="M404.052,337.566a9.64,9.64,0,1,1-4.328-12.91,9.64,9.64,0,0,1,4.328,12.91Z" transform="translate(-227.521 -188.342)" fill="#12263f"/>
          <path id="Trazado_116617" data-name="Trazado 116617" d="M405.311,339.822a7.347,7.347,0,1,1-3.282-9.845,7.347,7.347,0,0,1,3.282,9.845Z" transform="translate(-230.832 -191.619)" fill="#12263f"/>
          <path id="Trazado_116618" data-name="Trazado 116618" d="M406.406,339.244a4.217,4.217,0,0,1,.222-.878,7.813,7.813,0,0,0,.246-2.392,7.253,7.253,0,0,0-1.612-4.2,6.782,6.782,0,0,0-.734-.775,7.09,7.09,0,0,0-.866-.677,7.738,7.738,0,0,0-.989-.554,7.418,7.418,0,0,0-1.067-.41,7.729,7.729,0,0,0-1.079-.217,7.132,7.132,0,0,0-1.062-.049,6.784,6.784,0,0,0-1.013.1,7.306,7.306,0,0,0-3.22,1.4,7.825,7.825,0,0,0-1.641,1.743c-.328.472-.48.759-.521.738a2.137,2.137,0,0,1,.336-.853A6.757,6.757,0,0,1,395,330.293a7.488,7.488,0,0,1,1.465-.964,7.589,7.589,0,0,1,1.912-.624,6.672,6.672,0,0,1,1.087-.127,7.151,7.151,0,0,1,1.145.037,7.344,7.344,0,0,1,1.169.226,8.23,8.23,0,0,1,1.149.41,8.692,8.692,0,0,1,1.067.6,7.9,7.9,0,0,1,.927.742,7.146,7.146,0,0,1,.775.845,6.788,6.788,0,0,1,.611.911,7.583,7.583,0,0,1,.755,1.871,7.48,7.48,0,0,1,.222,1.735,6.811,6.811,0,0,1-.435,2.461A2.182,2.182,0,0,1,406.406,339.244Z" transform="translate(-231.824 -191.25)" fill="#dff7f9"/>
          <path id="Trazado_116619" data-name="Trazado 116619" d="M401.732,344.614l-.554,1.153-1.03-.5.542-1.12a5.419,5.419,0,0,1-2.17-2.051l1.173-.985a4.587,4.587,0,0,0,1.641,1.69l.82-1.719c-1.009-.82-2.1-1.821-1.391-3.282.525-1.091,1.768-1.641,3.483-1.05l.55-1.145,1.03.5-.546,1.108a5.16,5.16,0,0,1,1.789,1.641l-1.112,1.017a4.677,4.677,0,0,0-1.317-1.292l-.841,1.752c1.013.82,2.084,1.8,1.387,3.253C404.673,344.647,403.443,345.205,401.732,344.614Zm1.161-5.046.7-1.46c-.6-.139-.964.053-1.128.41S402.507,339.208,402.893,339.569Zm.578,3.335c.172-.361-.033-.7-.41-1.067l-.652,1.419C402.954,343.392,403.311,343.232,403.471,342.9Z" transform="translate(-235.038 -195.402)" fill="#dff7f9"/>
        </g>
        <g id="Grupo_80355" data-name="Grupo 80355" transform="translate(-50.79 -21.6)">
          <g id="Grupo_80354" data-name="Grupo 80354" transform="translate(0 58.607)">
            <path id="Trazado_116656" data-name="Trazado 116656" d="M77.11,195.84h-.056V134.1H0v61.909H67.07l10.04,10.04Z" transform="translate(0 -134.1)" fill="#fff"/>
            <path id="Trazado_116657" data-name="Trazado 116657" d="M77.053,147.448c0,.056-17.249.108-38.521.108S0,147.5,0,147.448s17.249-.108,38.532-.108S77.053,147.386,77.053,147.448Z" transform="translate(0 -140.561)" fill="#1d354f"/>
            <path id="Trazado_116658" data-name="Trazado 116658" d="M6.886,140.073a.973.973,0,1,1-.973-.973A.973.973,0,0,1,6.886,140.073Z" transform="translate(-2.411 -136.541)" fill="#1d354f"/>
            <path id="Trazado_116659" data-name="Trazado 116659" d="M12.5,140.073a.973.973,0,1,1-.973-.973A.973.973,0,0,1,12.5,140.073Z" transform="translate(-5.149 -136.541)" fill="#1d354f"/>
            <circle id="Elipse_4796" data-name="Elipse 4796" cx="0.973" cy="0.973" r="0.973" transform="translate(8.274 2.57)" fill="#1d354f"/>
          </g>
          <g id="Grupo_80353" data-name="Grupo 80353" transform="translate(69.819 53.261)">
            <circle id="Elipse_4797" data-name="Elipse 4797" cx="7.291" cy="7.291" r="7.291" fill="#fc4b52"/>
            <rect id="Rectángulo_34819" data-name="Rectángulo 34819" width="1.464" height="6.574" transform="translate(9.096 4.449) rotate(45)" fill="#fff"/>
            <rect id="Rectángulo_34820" data-name="Rectángulo 34820" width="1.464" height="6.574" transform="translate(4.448 5.481) rotate(-45)" fill="#fff"/>
          </g>
          <g id="Grupo_80352" data-name="Grupo 80352" transform="translate(10.634 66.942)">
            <path id="Trazado_116660" data-name="Trazado 116660" d="M45.8,150.38l5.7,5.878,7.972-1.864,1.618,8.023,7.716,2.744-2.98,7.629,5.007,6.477-6.63,4.8.712,8.156-8.176.461-3.809,7.245L45.8,195.9l-7.122,4.034-3.814-7.245-8.176-.461.712-8.156-6.63-4.8,5.007-6.477-2.98-7.629,7.716-2.744,1.618-8.023,7.972,1.864Z" transform="translate(-20.77 -150.38)" fill="#a7e446"/>
            <g id="Grupo_80342" data-name="Grupo 80342" transform="translate(16.143 13.531)" opacity="0.3">
              <path id="Trazado_116661" data-name="Trazado 116661" d="M58.06,181.582c0-1.664-.584-2.109-1.505-2.109s-1.505.512-1.505,1.823v1.188H52.3v-1.024c0-2.959,1.48-4.649,4.331-4.649s4.331,1.69,4.331,4.649v.476c0,1.976-.635,3.22-2.048,3.8,1.449.635,2.048,2.007,2.048,3.881v1.454c0,2.959-1.48,4.649-4.331,4.649s-4.331-1.69-4.331-4.649v-1.536h2.749v1.715c0,1.321.579,1.823,1.505,1.823s1.505-.451,1.505-2.084v-1.454c0-1.715-.584-2.35-1.9-2.35h-.978v-2.6h1.137c1.085,0,1.746-.476,1.746-1.956Z" transform="translate(-52.3 -176.81)"/>
              <path id="Trazado_116662" data-name="Trazado 116662" d="M72.57,181.5c0-2.959,1.562-4.649,4.413-4.649s4.408,1.69,4.408,4.649v9.61c0,2.959-1.536,4.649-4.408,4.649s-4.413-1.69-4.413-4.649Zm2.908,9.794c0,1.321.579,1.823,1.505,1.823s1.505-.512,1.505-1.823v-9.979c0-1.316-.579-1.828-1.505-1.828s-1.505.512-1.505,1.823Z" transform="translate(-62.192 -176.83)"/>
            </g>
            <g id="Grupo_80343" data-name="Grupo 80343" transform="translate(36.1 12.724)" opacity="0.3">
              <path id="Trazado_116663" data-name="Trazado 116663" d="M91.29,176.138a.778.778,0,1,1,1.536,0v1.684a.778.778,0,1,1-1.536,0Zm.512,1.72c0,.23.1.323.266.323s.261-.092.261-.323v-1.771c0-.225-.1-.323-.261-.323s-.266.1-.266.323Zm2.283-2.5h.476l-2.017,5.12h-.476Zm-.256,2.657a.778.778,0,1,1,1.536,0V179.7a.778.778,0,1,1-1.536,0Zm.512,1.72c0,.23.1.323.266.323s.261-.092.261-.323v-1.756c0-.225-.1-.323-.261-.323s-.266.1-.266.323Z" transform="translate(-91.28 -175.234)"/>
            </g>
            <path id="Trazado_116668" data-name="Trazado 116668" d="M55.945,182.627c0-1.664-.579-2.115-1.505-2.115s-1.505.512-1.505,1.823v1.188H50.19V182.5c0-2.954,1.48-4.649,4.331-4.649s4.331,1.695,4.331,4.649v.476c0,1.981-.635,3.22-2.048,3.8,1.454.63,2.048,2.007,2.048,3.881v1.449c0,2.959-1.48,4.649-4.331,4.649s-4.331-1.69-4.331-4.649v-1.536h2.744v1.72c0,1.316.584,1.818,1.505,1.818s1.505-.445,1.505-2.084v-1.454c0-1.715-.579-2.35-1.9-2.35h-.978v-2.616h1.121c1.08,0,1.741-.476,1.741-1.956Z" transform="translate(-35.127 -163.786)" fill="#fff"/>
            <path id="Trazado_116669" data-name="Trazado 116669" d="M70.46,182.569c0-2.954,1.536-4.649,4.408-4.649s4.413,1.695,4.413,4.649v9.61c0,2.959-1.536,4.649-4.413,4.649s-4.408-1.69-4.408-4.649Zm2.9,9.8c0,1.316.584,1.818,1.505,1.818s1.505-.512,1.505-1.818v-9.984c0-1.321-.579-1.823-1.505-1.823s-1.505.512-1.505,1.823Z" transform="translate(-45.019 -163.821)" fill="#fff"/>
            <path id="Trazado_116670" data-name="Trazado 116670" d="M89.17,176.138a.778.778,0,1,1,1.536,0v1.684a.778.778,0,1,1-1.536,0Zm.512,1.72c0,.23.1.323.266.323s.261-.092.261-.323v-1.771c0-.225-.1-.323-.261-.323s-.266.1-.266.323Zm2.283-2.5h.476l-2.017,5.12h-.476Zm-.256,2.657a.778.778,0,1,1,1.536,0V179.7a.778.778,0,1,1-1.536,0Zm.512,1.72c0,.23.1.323.266.323s.261-.092.261-.323v-1.756c0-.225-.1-.323-.261-.323s-.266.1-.266.323Z" transform="translate(-54.145 -162.51)" fill="#fff"/>
            <g id="Grupo_80351" data-name="Grupo 80351" transform="translate(16.916 33.385)">
              <g id="Grupo_80344" data-name="Grupo 80344" transform="translate(1.085)" opacity="0.3">
                <path id="Trazado_116664" data-name="Trazado 116664" d="M57.707,215.59c1.157,0,1.751.691,1.751,1.9v.236H58.336v-.312c0-.538-.22-.742-.594-.742s-.594.2-.594.742c0,1.536,2.319,1.843,2.319,4,0,1.208-.6,1.9-1.771,1.9s-1.766-.691-1.766-1.9v-.466h1.121v.543c0,.512.236.732.614.732s.614-.195.614-.732c0-1.536-2.319-1.848-2.319-4C55.966,216.281,56.555,215.59,57.707,215.59Z" transform="translate(-55.93 -215.59)"/>
                <path id="Trazado_116665" data-name="Trazado 116665" d="M67.712,223.312h-1.2l-.2-1.372H64.855l-.2,1.372H63.56l1.208-7.552H66.5ZM65,220.916h1.142l-.568-3.819Z" transform="translate(-59.654 -215.673)"/>
                <path id="Trazado_116666" data-name="Trazado 116666" d="M72.75,215.76h1.188v6.471h1.951v1.08H72.75Z" transform="translate(-64.138 -215.673)"/>
                <path id="Trazado_116667" data-name="Trazado 116667" d="M81.078,218.955h1.628v1.075H81.078v2.212h2.048v1.08H79.89V215.76h3.241v1.08H81.083Z" transform="translate(-67.623 -215.673)"/>
              </g>
              <path id="Trazado_116671" data-name="Trazado 116671" d="M55.587,215.59c1.157,0,1.751.691,1.751,1.9v.236H56.216v-.312c0-.538-.215-.742-.594-.742s-.594.2-.594.742c0,1.536,2.319,1.843,2.319,4,0,1.208-.6,1.9-1.771,1.9s-1.766-.691-1.766-1.9v-.466h1.121v.543c0,.512.236.732.614.732s.614-.195.614-.732c0-1.536-2.319-1.848-2.319-4C53.841,216.281,54.419,215.59,55.587,215.59Z" transform="translate(-53.81 -215.59)" fill="#fff"/>
              <path id="Trazado_116672" data-name="Trazado 116672" d="M65.592,223.312h-1.2l-.2-1.372H62.751l-.2,1.372H61.44l1.208-7.552h1.736Zm-2.708-2.4h1.147l-.573-3.819Z" transform="translate(-57.534 -215.673)" fill="#fff"/>
              <path id="Trazado_116673" data-name="Trazado 116673" d="M70.63,215.76h1.213v6.471h1.951v1.08H70.63Z" transform="translate(-62.019 -215.673)" fill="#fff"/>
              <path id="Trazado_116674" data-name="Trazado 116674" d="M78.963,218.955H80.6v1.075H78.963v2.212h2.048v1.08H77.78V215.76h3.236v1.08H78.968Z" transform="translate(-65.508 -215.673)" fill="#fff"/>
            </g>
          </g>
        </g>
        <g id="Grupo_80357" data-name="Grupo 80357" transform="translate(-24.2 -44.08)">
          <path id="Trazado_116621" data-name="Trazado 116621" d="M231.991,166.124l-1.235,50.348c-.213,8.564-2.268,21.1-15.79,20.146h0C203.292,234.908,200.6,223.7,200.8,215.713c.1-3.788.169-6.952.158-7.34,0,0-12.789-1.519-13.4-14.21-.3-6.143.12-18.845.634-30.328a23.693,23.693,0,0,1,22.829-22.611l1.23-.044C225.5,141.459,232.658,152.882,231.991,166.124Z" transform="translate(-97.965 -78.81)" fill="#ffc4a3"/>
          <path id="Trazado_116622" data-name="Trazado 116622" d="M212.133,259.585a30.924,30.924,0,0,0,16.4-5.465s-3.706,9.428-16.429,8.745Z" transform="translate(-109.14 -130.023)" fill="#ffa275"/>
          <path id="Trazado_116623" data-name="Trazado 116623" d="M228.046,191.838c.246.262,1.749-.858,3.875-.836s3.673,1.12,3.9.853c.115-.115-.126-.59-.8-1.093a5.29,5.29,0,0,0-3.121-1.011,5.1,5.1,0,0,0-3.088.995C228.156,191.242,227.931,191.717,228.046,191.838Z" transform="translate(-116.357 -100.834)" fill="#1d354f"/>
          <path id="Trazado_116624" data-name="Trazado 116624" d="M227.31,201.076a1.722,1.722,0,0,0,1.722,1.672,1.64,1.64,0,0,0,1.716-1.612,1.727,1.727,0,0,0-1.716-1.678,1.64,1.64,0,0,0-1.722,1.618Z" transform="translate(-116.037 -105.236)" fill="#1d354f"/>
          <path id="Trazado_116625" data-name="Trazado 116625" d="M213.157,206.688a13.1,13.1,0,0,0-3.2-.459c-.5-.033-.973-.115-1.093-.454a2.536,2.536,0,0,1,.279-1.487q.639-1.836,1.339-3.853c1.858-5.465,3.181-9.985,2.957-10.056s-1.9,4.312-3.76,9.794l-1.273,3.87a2.9,2.9,0,0,0-.191,1.968,1.235,1.235,0,0,0,.847.7,3.317,3.317,0,0,0,.853.087A12.591,12.591,0,0,0,213.157,206.688Z" transform="translate(-107.327 -101.12)" fill="#1d354f"/>
          <path id="Trazado_116626" data-name="Trazado 116626" d="M230.261,177.794c.186.475,1.9.186,3.93.366s3.684.689,3.941.246c.109-.213-.191-.656-.869-1.093a6.389,6.389,0,0,0-2.946-.946,6.28,6.28,0,0,0-3.05.481C230.539,177.188,230.179,177.581,230.261,177.794Z" transform="translate(-117.369 -94.754)" fill="#1d354f"/>
          <path id="Trazado_116627" data-name="Trazado 116627" d="M192.6,178.557c.208.393,1.88,0,3.886.038s3.667.333,3.891-.06c.1-.191-.213-.547-.9-.874a6.941,6.941,0,0,0-2.951-.6,7.247,7.247,0,0,0-2.979.618C192.838,178.01,192.5,178.371,192.6,178.557Z" transform="translate(-100.289 -95.079)" fill="#1d354f"/>
          <path id="Trazado_116628" data-name="Trazado 116628" d="M267.6,203.691c.213-.1,8.641-2.9,8.679,5.8s-8.712,6.947-8.745,6.7S267.6,203.691,267.6,203.691Z" transform="translate(-134.273 -106.926)" fill="#ffc4a3"/>
          <path id="Trazado_116629" data-name="Trazado 116629" d="M272.4,215.177c.038-.027.153.1.41.219a1.514,1.514,0,0,0,1.131,0c.918-.344,1.689-1.8,1.727-3.372a5.033,5.033,0,0,0-.437-2.186,1.749,1.749,0,0,0-1.142-1.159.776.776,0,0,0-.9.421c-.115.24-.06.415-.1.432s-.186-.148-.12-.508a.989.989,0,0,1,.344-.547,1.148,1.148,0,0,1,.836-.224,2.137,2.137,0,0,1,1.59,1.345,5.192,5.192,0,0,1,.547,2.421c-.044,1.754-.94,3.4-2.186,3.771a1.64,1.64,0,0,1-1.388-.23C272.421,215.385,272.377,215.216,272.4,215.177Z" transform="translate(-136.482 -109.22)" fill="#ffa275"/>
          <path id="Trazado_116630" data-name="Trazado 116630" d="M238.356,155.547c-1.694-3.132-1.984-6.8-2.848-10.259s-3.394-7.843-6.7-9.166a8.444,8.444,0,0,0-9.4.279c-.443-4.536-3.416-7.214-7.783-8.532s-11.478-.891-15.752.656c-3.318,1.191-6.559,3.771-10.559,7.586a42.721,42.721,0,0,0-4.635,5.209l-4.269,11.7,3.055,6.329c.18.426.372.858.6,1.284V160.6l2.481,13.188c.317-3.558.547-15.976.836-19.539A19.878,19.878,0,0,0,197.8,148.24c2.028-2.082,3.662-4.733,6.313-5.925,3.421-1.536,7.384-.18,10.876,1.181l-.142-.137a15.915,15.915,0,0,1,4.777,3.722,49.353,49.353,0,0,0,1.366,21.009c.3,1.022,1.093,3.137,2.1,3.558,1.924.825,2.525-1.137,3.738-2.153a5.158,5.158,0,0,1,3.58-.738,81.577,81.577,0,0,0,2.733-8.931,7.9,7.9,0,0,0,3.635.377q-.508-1.361-1.022-2.733a4.1,4.1,0,0,0,1.536.765,1.41,1.41,0,0,0,1.5-.59C239.132,156.984,238.711,156.2,238.356,155.547Z" transform="translate(-92.956 -72.419)" fill="#1d354f"/>
          <path id="Trazado_116631" data-name="Trazado 116631" d="M249.25,148.44a11.271,11.271,0,0,1,1.23,1.208,9.155,9.155,0,0,1,1.787,4.279,16,16,0,0,1,.2,3.236c-.033,1.164-.175,2.41-.312,3.727a32.5,32.5,0,0,0-.251,4.154,14.563,14.563,0,0,0,.208,2.186,4.52,4.52,0,0,0,.814,2.186,1.924,1.924,0,0,0,1.765.667,2.8,2.8,0,0,0,1.64-.853,6.641,6.641,0,0,0,1.345-3.175h-.268a10.537,10.537,0,0,0,1.443,2.733,3.76,3.76,0,0,0,2.416,1.437,2.5,2.5,0,0,0,1.317-.18,2.148,2.148,0,0,0,.918-.842,2.186,2.186,0,0,0,.312-1.093,1.6,1.6,0,0,0-.372-1l-.137.115a8.161,8.161,0,0,0,2.645,2.142,7.646,7.646,0,0,0,.831.361,1.69,1.69,0,0,0,.3.087,1.355,1.355,0,0,0-.284-.137c-.186-.082-.459-.208-.8-.4a8.422,8.422,0,0,1-2.552-2.186l-.137.115a1.64,1.64,0,0,1,0,1.886,1.923,1.923,0,0,1-.831.743,2.186,2.186,0,0,1-1.191.148,3.525,3.525,0,0,1-2.241-1.361,10.5,10.5,0,0,1-1.394-2.651l-.164-.415-.1.437a6.453,6.453,0,0,1-1.279,3.033,2.558,2.558,0,0,1-1.47.76,1.64,1.64,0,0,1-1.5-.547,4.373,4.373,0,0,1-.749-2.022,13.806,13.806,0,0,1-.208-2.159,34.445,34.445,0,0,1,.23-4.115c.131-1.312.262-2.569.29-3.749a15.5,15.5,0,0,0-.24-3.279,8.969,8.969,0,0,0-1.907-4.318A5.132,5.132,0,0,0,249.25,148.44Z" transform="translate(-125.985 -82.103)" fill="#dff7f9"/>
          <path id="Trazado_116632" data-name="Trazado 116632" d="M192.594,191.992c.24.268,1.749-.858,3.87-.836s3.673,1.12,3.908.858c.115-.12-.131-.6-.809-1.093a5.329,5.329,0,0,0-3.121-1.011,5.121,5.121,0,0,0-3.093.978C192.7,191.4,192.474,191.872,192.594,191.992Z" transform="translate(-100.281 -100.906)" fill="#1d354f"/>
          <path id="Trazado_116633" data-name="Trazado 116633" d="M195,199.9a1.722,1.722,0,0,0,1.716,1.678,1.64,1.64,0,0,0,1.716-1.612,1.722,1.722,0,0,0-1.716-1.678A1.64,1.64,0,0,0,195,199.9Z" transform="translate(-101.386 -104.706)" fill="#1d354f"/>
          <path id="Trazado_116634" data-name="Trazado 116634" d="M176.738,150.53c-1.093,1.4-2.8,2.656-4.575,2.427a13.562,13.562,0,0,1-1.88-.6c-.629.361-.547,2.487-.12,3.083a11.153,11.153,0,0,0,1.3,1.41c-2.11,1.093-4,.475-6.2-.394a10.931,10.931,0,0,0,6.258,8.9,3.833,3.833,0,0,0,3.5.153,4.367,4.367,0,0,0,1.607-2.694,47.811,47.811,0,0,0,1.842-11.614Z" transform="translate(-87.9 -83.05)" fill="#1d354f"/>
          <path id="Trazado_116635" data-name="Trazado 116635" d="M220.456,227.236a1.743,1.743,0,0,1,1.514-.918,1.974,1.974,0,0,1,1.53.35,2.76,2.76,0,0,1,.6,3.126,2.3,2.3,0,0,1-2.88,1.093c-1.027-.481-1.437-3.137-.727-4.023" transform="translate(-112.785 -117.415)" fill="#ffa275"/>
          <path id="Trazado_116636" data-name="Trazado 116636" d="M219.952,229.046a3.708,3.708,0,0,1,.23.5,1.809,1.809,0,0,0,1.049.935,2.673,2.673,0,0,0,2.066-.251,2.148,2.148,0,0,0-1.06-3.859,2.055,2.055,0,0,0-2.312,2.126,3.738,3.738,0,0,1,.027.547.393.393,0,0,1-.055-.137,1.9,1.9,0,0,1-.087-.41,2.154,2.154,0,0,1,.388-1.481,2.3,2.3,0,0,1,2.071-.913,2.4,2.4,0,0,1,1.159,4.372,2.8,2.8,0,0,1-2.263.213,1.869,1.869,0,0,1-1.093-1.093,1.743,1.743,0,0,1-.109-.4A.316.316,0,0,1,219.952,229.046Z" transform="translate(-112.63 -117.312)" fill="#1d354f"/>
          <path id="Trazado_116637" data-name="Trazado 116637" d="M211.875,144.921a8.3,8.3,0,0,0-1.3-1.64,8.472,8.472,0,0,0-5.1-2.186,10.516,10.516,0,0,0-3.826.459,15.415,15.415,0,0,0-4.023,1.957c-2.656,1.754-5,4.372-7.564,7.023a34.03,34.03,0,0,1-4.017,3.585,16.309,16.309,0,0,1-4.432,2.372,14.658,14.658,0,0,1-8.417.137,14.434,14.434,0,0,1-5.088-2.58l-.678-.59c-.191-.175-.339-.339-.465-.465l-.279-.3c-.06-.071-.087-.1-.082-.109l.1.087.3.273c.131.12.279.279.475.448l.694.547a14.685,14.685,0,0,0,5.072,2.47,14.473,14.473,0,0,0,8.28-.191,15.85,15.85,0,0,0,4.345-2.345,33.935,33.935,0,0,0,3.984-3.563c2.558-2.623,4.919-5.274,7.619-7.04a15.582,15.582,0,0,1,4.1-1.968,10.652,10.652,0,0,1,3.935-.426,8.461,8.461,0,0,1,5.159,2.306,6.559,6.559,0,0,1,.973,1.224c.077.142.137.262.191.355A.627.627,0,0,1,211.875,144.921Z" transform="translate(-88.512 -78.661)" fill="#dff7f9"/>
          <path id="Trazado_116638" data-name="Trazado 116638" d="M203.23,269.508l4.826-.962,29.814-1.836,6.356,1.727-.831,15.484-14.369,9.166-13.937-.279-8.767-7.985-1.946-7.914Z" transform="translate(-105.118 -135.732)" fill="#ffc4a3"/>
          <path id="Trazado_116639" data-name="Trazado 116639" d="M244.2,293.884a93.782,93.782,0,0,0-5.733-10.242,25.474,25.474,0,0,0-14.7-10.707L200.81,266.71s-1.191,22.955-16.992,22.955-18.867-21.518-18.867-21.518l-26.59,10.6c-.913.355-7.105,2.492-14.254,17.878-6.832,14.653-9.838,22.146-9.838,22.146l27.393,7.909,1.711,24.633-.585,14.063,83.125-.18-.465-16.085.355-24.649,1.038,1.678,27.666-11.095S250.94,307.734,244.2,293.884Z" transform="translate(-64.778 -135.732)" fill="#fc4b52"/>
          <path id="Trazado_116640" data-name="Trazado 116640" d="M318.407,343.66c.12,0,.049,8.909-.164,19.894s-.486,19.883-.612,19.883-.044-8.909.169-19.894S318.287,343.66,318.407,343.66Z" transform="translate(-156.966 -170.625)" fill="#1d354f"/>
          <path id="Trazado_116641" data-name="Trazado 116641" d="M156.8,334.45a4.315,4.315,0,0,1,.3.913c.169.6.394,1.465.65,2.536.547,2.153,1.17,5.138,1.765,8.461s1.033,6.345,1.3,8.543c.131,1.093.224,1.989.273,2.607a3.913,3.913,0,0,1,.033.962,4.416,4.416,0,0,1-.2-.94c-.115-.705-.251-1.569-.415-2.585-.339-2.186-.82-5.192-1.416-8.51s-1.2-6.307-1.64-8.466c-.2-1.011-.377-1.869-.514-2.569A3.6,3.6,0,0,1,156.8,334.45Z" transform="translate(-84.064 -166.449)" fill="#c93c41"/>
          <path id="Trazado_116642" data-name="Trazado 116642" d="M107.938,363.22,96.8,385.579a16.336,16.336,0,0,0-1.694,8.062h0a16.3,16.3,0,0,0,16.276,15.5l31.946-1.847,1.394-14.576-24.305-5.859,9.215-17.413Z" transform="translate(-56.08 -179.494)" fill="#ffc4a3"/>
          <path id="Trazado_116643" data-name="Trazado 116643" d="M126.71,406.081c0,.1-1.093-.082-2.869-.071a22.068,22.068,0,0,0-6.733,1.191,20.381,20.381,0,0,0-6.012,3.2c-1.383,1.093-2.033,1.984-2.11,1.924s.109-.257.4-.672a11.233,11.233,0,0,1,1.459-1.552,18.249,18.249,0,0,1,6.1-3.427,19.3,19.3,0,0,1,6.919-1.055,13.862,13.862,0,0,1,2.115.246C126.475,405.972,126.716,406.043,126.71,406.081Z" transform="translate(-62.375 -198.718)" fill="#ffa275"/>
          <path id="Trazado_116644" data-name="Trazado 116644" d="M154.126,374.289a6.351,6.351,0,0,1-.547,1.705,33.028,33.028,0,0,1-1.831,3.9,33.529,33.529,0,0,1-2.328,3.624,6.557,6.557,0,0,1-1.164,1.35c-.109-.082,1.5-2.268,3.1-5.187S154,374.24,154.126,374.289Z" transform="translate(-80.187 -184.514)" fill="#ffa275"/>
          <path id="Trazado_116645" data-name="Trazado 116645" d="M337.65,406.467H300.14V392.312l21.72-9.2-8.051-16.883,21.742-8.745,10.608,23.611c2.47,6.859,4.985,10.117,2.842,16.358C347.881,400.717,343.279,406.467,337.65,406.467Z" transform="translate(-149.062 -176.892)" fill="#ffc4a3"/>
          <path id="Trazado_116646" data-name="Trazado 116646" d="M171.667,411.8h6.253s14.112-5.1,17.014-4.613c2.613.437,12.177,6.794,14.052,8.051a1.219,1.219,0,0,1,.454.579h0a2.049,2.049,0,0,1-1.142,2.607l-.2.082.087.284a3.416,3.416,0,0,1,.142,1.142,1.377,1.377,0,0,1-2.563.6l.361.639a1.569,1.569,0,0,1,.2.858l-.033.579a1.574,1.574,0,0,1-1.093,1.41h0a1.569,1.569,0,0,1-1.64-.432c-1.213-1.339-3.826-4.012-5.608-4.307a41.923,41.923,0,0,0-5.793-.29,1.968,1.968,0,0,0-1.82,1.257h0c1.049.071,8.384,3.9,10.98,5.263a2.8,2.8,0,0,1,1.508,2.088c.093.814-.317,1.667-1.924,1.29a70.683,70.683,0,0,1-9.652-3.656s-3.2-.918-5.274.547c-2.913,2.06-4.252,2.815-6.755,1.984a21.242,21.242,0,0,1-4.372-2.022l-4.919-.492S165.289,413.583,171.667,411.8Z" transform="translate(-89.279 -199.415)" fill="#ffc4a3"/>
          <path id="Trazado_116647" data-name="Trazado 116647" d="M208.55,419.519a24.717,24.717,0,0,1,2.651-.372,13.707,13.707,0,0,1,11.406,4.87,21.383,21.383,0,0,1,1.569,2.186,3.432,3.432,0,0,0-.317-.65,11.549,11.549,0,0,0-1.093-1.64,13.265,13.265,0,0,0-11.559-4.919,12.02,12.02,0,0,0-1.951.328A3.023,3.023,0,0,0,208.55,419.519Z" transform="translate(-107.53 -204.761)" fill="#ffa275"/>
          <path id="Trazado_116648" data-name="Trazado 116648" d="M211.29,413.187a11.091,11.091,0,0,1,2.733-.486,12.085,12.085,0,0,1,6.422,1.82,26.006,26.006,0,0,1,5.17,4.372l1.416,1.508a5.023,5.023,0,0,0,.547.547,3.824,3.824,0,0,0-.465-.6c-.312-.377-.771-.918-1.355-1.569a23.875,23.875,0,0,0-5.17-4.476,11.74,11.74,0,0,0-6.559-1.776,7.808,7.808,0,0,0-2.05.377,3.967,3.967,0,0,0-.547.2C211.344,413.143,211.284,413.176,211.29,413.187Z" transform="translate(-108.772 -201.851)" fill="#ffa275"/>
          <path id="Trazado_116649" data-name="Trazado 116649" d="M285.456,412.6H279.2s-14.112-5.094-17.014-4.607c-2.612.437-12.177,6.794-14.052,8.051a1.191,1.191,0,0,0-.454.579h0a2.05,2.05,0,0,0,1.142,2.607l.2.082-.087.284a3.415,3.415,0,0,0-.142,1.142,1.383,1.383,0,0,0,2.563.6l-.361.639a1.569,1.569,0,0,0-.2.858l.033.579a1.569,1.569,0,0,0,1.093,1.4h0a1.563,1.563,0,0,0,1.64-.432c1.213-1.334,3.826-4.006,5.6-4.3a41.933,41.933,0,0,1,5.793-.29,1.962,1.962,0,0,1,1.82,1.252h0c-1.049.077-8.384,3.9-10.975,5.269a2.765,2.765,0,0,0-1.508,2.088c-.1.814.312,1.64,1.918,1.29a70.186,70.186,0,0,0,9.625-3.673s3.2-.918,5.274.547c2.913,2.055,4.252,2.809,6.755,1.979a21.407,21.407,0,0,0,4.372-2.017l4.919-.5S291.834,414.387,285.456,412.6Z" transform="translate(-125.217 -199.782)" fill="#ffc4a3"/>
          <path id="Trazado_116650" data-name="Trazado 116650" d="M269.846,420.327c0,.055-1-.262-2.651-.366a13.664,13.664,0,0,0-11.407,4.864,22.154,22.154,0,0,0-1.569,2.186,3.706,3.706,0,0,1,.317-.65,11.235,11.235,0,0,1,1.093-1.64A13.232,13.232,0,0,1,267.2,419.8a11.94,11.94,0,0,1,1.946.328A3.51,3.51,0,0,1,269.846,420.327Z" transform="translate(-128.239 -205.126)" fill="#ffa275"/>
          <path id="Trazado_116651" data-name="Trazado 116651" d="M266.544,414a11.7,11.7,0,0,0-2.76-.481,12.084,12.084,0,0,0-6.422,1.825,25.975,25.975,0,0,0-5.17,4.372c-.547.612-1.049,1.093-1.416,1.509a4.03,4.03,0,0,1-.547.546,3.68,3.68,0,0,1,.465-.607c.312-.377.771-.913,1.355-1.563a23.726,23.726,0,0,1,5.17-4.476,11.74,11.74,0,0,1,6.559-1.776,8.079,8.079,0,0,1,2.05.372,4.732,4.732,0,0,1,.547.208A.8.8,0,0,1,266.544,414Z" transform="translate(-126.43 -202.222)" fill="#ffa275"/>
          <path id="Trazado_116652" data-name="Trazado 116652" d="M356.361,403.7c-.033.055-.853-.547-2.323-1.224-.372-.164-.776-.344-1.224-.5s-.935-.306-1.448-.454a18.654,18.654,0,0,0-3.421-.547,19.121,19.121,0,0,0-3.465.153c-.547.093-1.027.164-1.487.29s-.891.23-1.279.35c-1.536.5-2.416,1.006-2.443.951a3.573,3.573,0,0,1,.607-.361,6,6,0,0,1,.749-.366,10.29,10.29,0,0,1,1.027-.41,11.477,11.477,0,0,1,1.279-.394c.465-.137.973-.219,1.508-.322a17.8,17.8,0,0,1,3.52-.175,18.227,18.227,0,0,1,3.476.579,13.356,13.356,0,0,1,1.459.492,12.568,12.568,0,0,1,1.23.547,10.2,10.2,0,0,1,.967.547,7.08,7.08,0,0,1,.7.448A3.446,3.446,0,0,1,356.361,403.7Z" transform="translate(-166.805 -196.477)" fill="#ffa275"/>
          <path id="Trazado_116653" data-name="Trazado 116653" d="M242.146,398.93h-78.1a4.148,4.148,0,0,1-4.143-3.968l-2.345-53.753a4.148,4.148,0,0,1,4.143-4.329h82.638a4.143,4.143,0,0,1,4.137,4.312l-2.186,53.759A4.148,4.148,0,0,1,242.146,398.93Z" transform="translate(-84.405 -167.551)" fill="#e1e1e1"/>
          <path id="Trazado_116655" data-name="Trazado 116655" d="M241.449,391.829a4.274,4.274,0,1,1-1.25-3.026A4.279,4.279,0,0,1,241.449,391.829Z" transform="translate(-118.567 -190.527)" fill="#fff"/>
          <rect id="Rectángulo_34822" data-name="Rectángulo 34822" width="21.381" height="0.907" transform="translate(160.009 131.142)" fill="#a7e446"/>
          <g id="Grupo_80347" data-name="Grupo 80347" transform="translate(154.817 77.929)">
            <path id="Trazado_116675" data-name="Trazado 116675" d="M386.219,179.02H306.98l.4,55.507h8.657v12.838l11.718-12.838h58.863Z" transform="translate(-306.98 -173.898)" fill="#fff"/>
            <path id="Trazado_116676" data-name="Trazado 116676" d="M386.15,193.246c0,.066-17.561.126-39.215.126s-39.215-.06-39.215-.126,17.555-.126,39.215-.126S386.15,193.175,386.15,193.246Z" transform="translate(-307.316 -180.293)" fill="#1d354f"/>
            <ellipse id="Elipse_4798" data-name="Elipse 4798" cx="1.049" cy="1.148" rx="1.049" ry="1.148" transform="translate(2.607 8.697)" fill="#1d354f"/>
            <ellipse id="Elipse_4799" data-name="Elipse 4799" cx="1.049" cy="1.148" rx="1.049" ry="1.148" transform="translate(5.706 8.697)" fill="#1d354f"/>
            <ellipse id="Elipse_4800" data-name="Elipse 4800" cx="1.049" cy="1.148" rx="1.049" ry="1.148" transform="translate(8.805 8.697)" fill="#1d354f"/>
            <circle id="Elipse_4801" data-name="Elipse 4801" cx="11.177" cy="11.177" r="11.177" transform="translate(29.535 21.681)" fill="#a7e446"/>
            <path id="Trazado_116677" data-name="Trazado 116677" d="M376.54,229.93v-6.6a.421.421,0,0,1,.623-.366l5.9,3.323a.421.421,0,0,1,0,.732l-5.892,3.279a.415.415,0,0,1-.629-.372Z" transform="translate(-338.522 -193.803)" fill="#fff"/>
            <rect id="Rectángulo_34821" data-name="Rectángulo 34821" width="68.422" height="0.339" transform="translate(5.241 53.579)" fill="#1d354f"/>
            <ellipse id="Elipse_4802" data-name="Elipse 4802" cx="1.038" cy="1.137" rx="1.038" ry="1.137" transform="translate(25.185 52.611)" fill="#a7e446"/>
            <circle id="Elipse_4803" data-name="Elipse 4803" cx="7.542" cy="7.542" r="7.542" transform="translate(71.089)" fill="#fc4b52"/>
            <rect id="Rectángulo_34823" data-name="Rectángulo 34823" width="1.519" height="6.799" transform="translate(80.503 4.606) rotate(45)" fill="#fff"/>
            <rect id="Rectángulo_34824" data-name="Rectángulo 34824" width="1.519" height="6.799" transform="translate(75.694 5.666) rotate(-45)" fill="#fff"/>
          </g>
        </g>
        <g id="Grupo_80349" data-name="Grupo 80349" transform="translate(200.318 115.194)">
          <path id="Trazado_116678" data-name="Trazado 116678" d="M223.688,14.9V55.64H186.476l-8.036,6.219V14.9Z" transform="translate(-170.048 -6.254)" fill="#fff"/>
          <path id="Trazado_116679" data-name="Trazado 116679" d="M179.53,33.579c0,.07,9.973.123,22.271.123s22.279-.053,22.279-.123-9.973-.119-22.279-.119S179.53,33.513,179.53,33.579Z" transform="translate(-170.887 -17.2)" fill="#1d354f"/>
          <path id="Trazado_116680" data-name="Trazado 116680" d="M185.27,24.744a1.12,1.12,0,1,0,.329-.8A1.124,1.124,0,0,0,185.27,24.744Z" transform="translate(-136.68 -11.397)" fill="#1d354f"/>
          <path id="Trazado_116681" data-name="Trazado 116681" d="M193.36,24.744a1.124,1.124,0,1,0,1.124-1.124,1.124,1.124,0,0,0-1.124,1.124Z" transform="translate(-148.089 -11.397)" fill="#1d354f"/>
          <path id="Trazado_116682" data-name="Trazado 116682" d="M201.44,24.744a1.12,1.12,0,1,0,.327-.795,1.124,1.124,0,0,0-.327.795Z" transform="translate(-159.483 -11.397)" fill="#1d354f"/>
          <path id="Trazado_116683" data-name="Trazado 116683" d="M206.955,52.184a12.606,12.606,0,1,0,12.906-12.27A12.606,12.606,0,0,0,206.955,52.184Z" transform="translate(-190.219 -21.004)" fill="#a7e446"/>
          <path id="Trazado_116684" data-name="Trazado 116684" d="M214.261,56.548a9.6,9.6,0,1,0,2.984-6.718,9.607,9.607,0,0,0-2.984,6.718Z" transform="translate(-194.526 -25.299)" fill="#a7e446"/>
          <g id="Grupo_80345" data-name="Grupo 80345" transform="translate(19.694 21.538)" opacity="0.3">
            <path id="Trazado_116685" data-name="Trazado 116685" d="M214.033,55.738a5.792,5.792,0,0,0,.279-1.149,10.28,10.28,0,0,1,1.177-2.917,9.846,9.846,0,0,1,1.317-1.715,9.6,9.6,0,0,1,1.924-1.538,9.026,9.026,0,0,1,1.19-.611,9.152,9.152,0,0,1,1.313-.447,8.936,8.936,0,0,1,1.419-.258,10.448,10.448,0,0,1,1.481-.033,10.124,10.124,0,0,1,1.469.2,9.256,9.256,0,0,1,1.378.41,8.645,8.645,0,0,1,1.259.595,8.835,8.835,0,0,1,1.112.734A9.628,9.628,0,0,1,231.1,50.75a9.946,9.946,0,0,1,1.116,1.85,10.256,10.256,0,0,1,.845,3.027,5.741,5.741,0,0,0,.152,1.173,2.72,2.72,0,0,0,.135-1.19,8.878,8.878,0,0,0-.656-3.216,9.606,9.606,0,0,0-1.1-2.006,9.763,9.763,0,0,0-1.813-1.912,9.41,9.41,0,0,0-1.181-.82,9.114,9.114,0,0,0-1.35-.644,9.608,9.608,0,0,0-1.485-.455,10.584,10.584,0,0,0-1.583-.217,10.37,10.37,0,0,0-1.6.041,9.74,9.74,0,0,0-1.526.287,9.277,9.277,0,0,0-1.411.5,9.047,9.047,0,0,0-1.263.66,9.546,9.546,0,0,0-3.335,3.573,8.922,8.922,0,0,0-1.009,3.122A2.826,2.826,0,0,0,214.033,55.738Z" transform="translate(-213.98 -46.326)" fill="#5e9540"/>
          </g>
          <path id="Trazado_116686" data-name="Trazado 116686" d="M233.054,66.748l.066,1.67-1.493.057-.062-1.641a7.068,7.068,0,0,1-3.762-1.05l.747-1.85a6.108,6.108,0,0,0,2.937.98l-.094-2.494c-1.674-.34-3.544-.82-3.626-2.954-.062-1.584,1.038-2.987,3.384-3.348l-.066-1.641,1.493-.057.066,1.641a6.781,6.781,0,0,1,3.064.8l-.677,1.862a6.153,6.153,0,0,0-2.314-.689l.1,2.539c1.67.324,3.516.82,3.594,2.913C236.476,64.984,235.388,66.37,233.054,66.748Zm-1.743-6.564-.082-2.121c-.788.209-1.083.656-1.062,1.149s.476.808,1.145.993Zm2.7,3.52c-.021-.521-.464-.788-1.116-.989l.082,2.051C233.719,64.582,234.035,64.184,234.014,63.7Z" transform="translate(-203.007 -29.562)" fill="#5e9540"/>
          <path id="Trazado_116687" data-name="Trazado 116687" d="M213.568,55.726a.821.821,0,0,0,.025-.156c0-.115.025-.267.045-.464l.029-.34a3.02,3.02,0,0,1,.074-.41,7.532,7.532,0,0,1,.23-1,9.435,9.435,0,0,1,1.153-2.556,9.722,9.722,0,0,1,11.745-3.84,10.084,10.084,0,0,1,1.231.583,9.924,9.924,0,0,1,1.169.792,11.194,11.194,0,0,1,1.075.956,10.923,10.923,0,0,1,.923,1.145,9.345,9.345,0,0,1,1.321,2.691,9.583,9.583,0,0,1-.144,6.1,9.226,9.226,0,0,1-1.432,2.634,10.824,10.824,0,0,1-.972,1.1,10.611,10.611,0,0,1-1.124.9,10.133,10.133,0,0,1-1.2.734,10.552,10.552,0,0,1-1.276.521,9.726,9.726,0,0,1-11.548-4.4,9.194,9.194,0,0,1-1.026-2.609,6.92,6.92,0,0,1-.185-1.009c-.021-.148-.045-.283-.053-.41s0-.238,0-.34a2.93,2.93,0,0,0-.021-.464.954.954,0,0,0,0-.16,1.176,1.176,0,0,0,0,.16v.808a4.038,4.038,0,0,0,.045.41,6.785,6.785,0,0,0,.164,1.021,9.164,9.164,0,0,0,1.005,2.65,9.845,9.845,0,0,0,6.518,4.816,9.956,9.956,0,0,0,5.161-.287,10.728,10.728,0,0,0,1.3-.529,10.916,10.916,0,0,0,2.388-1.67,11.281,11.281,0,0,0,1-1.116,9.575,9.575,0,0,0,1.46-2.687,10.388,10.388,0,0,0,.587-3.105,10.514,10.514,0,0,0-.435-3.13,9.619,9.619,0,0,0-1.354-2.753,8.98,8.98,0,0,0-2.051-2.141,9.833,9.833,0,0,0-14.382,2.58,9.132,9.132,0,0,0-1.132,2.6,6.724,6.724,0,0,0-.213,1.013c-.025.148-.053.283-.066.41a3.131,3.131,0,0,0,0,.34,3.477,3.477,0,0,1-.025.468.753.753,0,0,0-.012.139Z" transform="translate(-194.009 -24.661)" fill="#5e9540"/>
          <circle id="Elipse_4804" data-name="Elipse 4804" cx="6.112" cy="6.112" r="6.112" transform="translate(8.644 17.288) rotate(-135)" fill="#fc4b52"/>
          <rect id="Rectángulo_34825" data-name="Rectángulo 34825" width="1.231" height="5.509" transform="translate(11.022 10.155) rotate(135)" fill="#fff"/>
          <rect id="Rectángulo_34826" data-name="Rectángulo 34826" width="1.231" height="5.509" transform="translate(7.133 11.026) rotate(-135)" fill="#fff"/>
        </g>
      </g>
    </g>
  </g>
</svg>
