<svg xmlns="http://www.w3.org/2000/svg" width="400" height="208" viewBox="0 0 400 208">
  <g id="Grupo_115825" data-name="Grupo 115825" transform="translate(-600 -661)">
    <g id="Rectángulo_34743" data-name="Rectángulo 34743" transform="translate(600 661)" fill="#f4f9f9" stroke="#feca2e" stroke-width="3">
      <path d="M10,0H390a10,10,0,0,1,10,10V208a0,0,0,0,1,0,0H0a0,0,0,0,1,0,0V10A10,10,0,0,1,10,0Z" stroke="none"/>
      <path d="M10,1.5H390a8.5,8.5,0,0,1,8.5,8.5V206.5a0,0,0,0,1,0,0H1.5a0,0,0,0,1,0,0V10A8.5,8.5,0,0,1,10,1.5Z" fill="none"/>
    </g>
    <g id="Capa_2" data-name="Capa 2" transform="translate(627.207 668.317)">
      <g id="Recursos">
        <rect id="Rectángulo_34805" data-name="Rectángulo 34805" width="69.137" height="114.444" transform="translate(40.499)" fill="#c93c41"/>
        <rect id="Rectángulo_34806" data-name="Rectángulo 34806" width="69.137" height="114.444" transform="translate(38.2)" fill="#fc4b52"/>
        <rect id="Rectángulo_34807" data-name="Rectángulo 34807" width="63.247" height="109.801" transform="translate(41.145 2.319)" fill="#c93c41"/>
        <rect id="Rectángulo_34808" data-name="Rectángulo 34808" width="38.891" height="81.263" transform="translate(53.185 16.588)" fill="#fc4b52"/>
        <path id="Trazado_116456" data-name="Trazado 116456" d="M551.1,8.1V72.169H459.076L455.76,8.546Z" transform="translate(-227.493 -4.043)" fill="#fc4b52"/>
        <rect id="Rectángulo_34809" data-name="Rectángulo 34809" width="63.488" height="92.021" transform="translate(228.272 67.99) rotate(-90)" fill="#c93c41"/>
        <rect id="Rectángulo_34810" data-name="Rectángulo 34810" width="72.092" height="47.711" transform="translate(238.234 12.391)" fill="#fc4b52"/>
        <path id="Trazado_116457" data-name="Trazado 116457" d="M455.758,8.64a7.749,7.749,0,0,1,1.583,1c.942.681,2.224,1.643,3.606,2.755s2.6,2.154,3.461,2.94a7.627,7.627,0,0,1,1.317,1.347c-.085.1-2.3-1.728-5.059-3.937A55.184,55.184,0,0,1,455.758,8.64Z" transform="translate(-227.49 -4.313)" fill="#fc4b52"/>
        <path id="Trazado_116458" data-name="Trazado 116458" d="M629.565,9a45.178,45.178,0,0,1-4.843,4.122,44.4,44.4,0,0,1-5.124,3.766,44.807,44.807,0,0,1,4.838-4.122A43.7,43.7,0,0,1,629.565,9Z" transform="translate(-309.271 -4.488)" fill="#fc4b52"/>
        <path id="Trazado_116459" data-name="Trazado 116459" d="M629.122,127.484,618.86,119.17" transform="translate(-308.904 -59.484)" fill="#fff"/>
        <path id="Trazado_116460" data-name="Trazado 116460" d="M618.858,119.166a45.486,45.486,0,0,1,5.274,4.007,59.243,59.243,0,0,1,5.009,4.332,48.893,48.893,0,0,1-5.274-4.007A55.587,55.587,0,0,1,618.858,119.166Z" transform="translate(-308.902 -59.48)" fill="#fc4b52"/>
        <path id="Trazado_116461" data-name="Trazado 116461" d="M455.758,127.974a44.572,44.572,0,0,1,4.793-4.077,44.764,44.764,0,0,1,5.074-3.721,45.118,45.118,0,0,1-4.793,4.077A40.01,40.01,0,0,1,455.758,127.974Z" transform="translate(-227.491 -59.984)" fill="#fc4b52"/>
        <rect id="Rectángulo_34811" data-name="Rectángulo 34811" width="15.977" height="45.362" transform="translate(252.874 43.233) rotate(-90)" fill="#c93c41"/>
        <rect id="Rectángulo_34812" data-name="Rectángulo 34812" width="51.057" height="53.22" transform="translate(147.18 4.678)" fill="#5e9540"/>
        <rect id="Rectángulo_34813" data-name="Rectángulo 34813" width="51.057" height="53.22" transform="translate(143.724 4.678)" fill="#fafafa"/>
        <path id="Trazado_116462" data-name="Trazado 116462" d="M338.017,62.565H286.93V9.31h51.087Z" transform="translate(-143.221 -4.647)" fill="#a7e446"/>
        <rect id="Rectángulo_34814" data-name="Rectángulo 34814" width="37.328" height="38.911" transform="translate(150.586 11.835)" fill="#5e9540"/>
        <path id="Trazado_116463" data-name="Trazado 116463" d="M293.872,101.84a6.008,6.008,0,0,1-.922,1.067c-.6.631-1.432,1.5-2.369,2.409s-1.8,1.748-2.439,2.334a5.509,5.509,0,0,1-1.082.9,6.267,6.267,0,0,1,.917-1.067c.6-.626,1.437-1.5,2.379-2.409s1.808-1.753,2.444-2.339A5.675,5.675,0,0,1,293.872,101.84Z" transform="translate(-143.286 -50.833)" fill="#5e9540"/>
        <path id="Trazado_116464" data-name="Trazado 116464" d="M375.2,101.65a6.045,6.045,0,0,1,1.067.917c.631.6,1.5,1.437,2.409,2.374s1.748,1.8,2.334,2.439a5.509,5.509,0,0,1,.9,1.082,6.265,6.265,0,0,1-1.067-.917c-.626-.6-1.5-1.437-2.409-2.379s-1.753-1.808-2.339-2.444A5.871,5.871,0,0,1,375.2,101.65Z" transform="translate(-187.281 -50.739)" fill="#5e9540"/>
        <path id="Trazado_116465" data-name="Trazado 116465" d="M375,17.146a6.011,6.011,0,0,1,.922-1.067c.6-.631,1.432-1.5,2.374-2.409s1.8-1.748,2.439-2.334a5.773,5.773,0,0,1,1.077-.9,6.008,6.008,0,0,1-.917,1.067c-.6.626-1.437,1.5-2.379,2.409s-1.8,1.753-2.439,2.339a5.782,5.782,0,0,1-1.077.892Z" transform="translate(-187.181 -5.211)" fill="#5e9540"/>
        <path id="Trazado_116466" data-name="Trazado 116466" d="M293.771,17.212A5.954,5.954,0,0,1,292.7,16.3c-.631-.6-1.5-1.437-2.4-2.374s-1.748-1.8-2.334-2.439a5.941,5.941,0,0,1-.9-1.082,5.841,5.841,0,0,1,1.067.917c.631.6,1.5,1.437,2.409,2.379s1.758,1.808,2.339,2.444a6.07,6.07,0,0,1,.9,1.072Z" transform="translate(-143.286 -5.191)" fill="#5e9540"/>
        <rect id="Rectángulo_34815" data-name="Rectángulo 34815" width="12.456" height="12.456" transform="translate(163.022 25.063)" fill="#a7e446"/>
        <path id="Trazado_116467" data-name="Trazado 116467" d="M345.587,394.12c0,.07-77.371.13-172.793.13S0,394.19,0,394.12,77.356,394,172.793,394,345.587,394.05,345.587,394.12Z" transform="translate(0 -196.665)" fill="#1d354f"/>
        <path id="Trazado_116468" data-name="Trazado 116468" d="M610.578,159.413a18.03,18.03,0,0,1,5.069-9.646,18.532,18.532,0,0,1,26.044-.07,18.081,18.081,0,0,1,.065,25.754,18.531,18.531,0,0,1-26.044.065,18.03,18.03,0,0,1-5.274-10.658l-4.828-3.1Z" transform="translate(-302.29 -72.07)" fill="#fff"/>
        <path id="Trazado_116469" data-name="Trazado 116469" d="M635.724,173.955a4.9,4.9,0,0,1,1.162-2.72,4.778,4.778,0,0,1,2.424-1.613,3.957,3.957,0,0,1,3.035.461,3.871,3.871,0,0,1,1.282,1.327,3.826,3.826,0,0,1,1.1-1.272,3.937,3.937,0,0,1,3.005-.706,4.8,4.8,0,0,1,2.544,1.412,4.893,4.893,0,0,1,1.387,2.614,5.945,5.945,0,0,1-.6,3.711,8.514,8.514,0,0,1-2.83,2.845c-1.878,1.227-4.352,2.765-4.352,2.765s-2.2-1.5-4.177-2.569a8.514,8.514,0,0,1-3.055-2.609,5.945,5.945,0,0,1-.922-3.646Z" transform="translate(-317.313 -84.543)" fill="#fc4b52"/>
        <path id="Trazado_116470" data-name="Trazado 116470" d="M168,89.782l7.082-1.548a19.007,19.007,0,1,0-6.9-17.264,18.767,18.767,0,0,0,2.429,12.065h0Z" transform="translate(-83.857 -27.175)" fill="#fff"/>
        <path id="Trazado_116471" data-name="Trazado 116471" d="M206.426,79.37a7.513,7.513,0,1,0-10.718,6.651v1.873l6.576.03s.045-1.052.065-2A7.423,7.423,0,0,0,206.426,79.37Z" transform="translate(-95.537 -35.796)" fill="#fc4b52"/>
        <path id="Trazado_116472" data-name="Trazado 116472" d="M203.333,95.507a.645.645,0,0,1,0-.1.966.966,0,0,1,.03-.265c.03-.235.075-.581.145-1s.16-1,.306-1.613a10.393,10.393,0,0,1,.691-2.063,7.05,7.05,0,0,1,.621-1.112,1.372,1.372,0,0,1,.5-.451.776.776,0,0,1,.711,0,.5.5,0,0,1,.235.3.526.526,0,0,1-.03.381,1.072,1.072,0,0,1-.586.5,2.058,2.058,0,0,1-2.609-1.362,1.5,1.5,0,0,1-.04-.856.671.671,0,0,1,.681-.5.466.466,0,0,1,.381.265.651.651,0,0,1,.06.456,1.457,1.457,0,0,1-.531.736,2.264,2.264,0,0,1-1.753.5,1.963,1.963,0,0,1-1.447-1.082,1.1,1.1,0,0,1-.045-.9.544.544,0,0,1,.791-.285.746.746,0,0,1,.316.331,1.172,1.172,0,0,1,.115.426,2.129,2.129,0,0,1-.12.851,2.219,2.219,0,0,1-1.062,1.237,2.294,2.294,0,0,1-1.558.205,1.177,1.177,0,0,1-.671-.356.576.576,0,0,1-.04-.716.5.5,0,0,1,.341-.165.781.781,0,0,1,.356.07,1.082,1.082,0,0,1,.456.5c.19.4.336.8.5,1.167.591,1.5,1,2.735,1.292,3.591.14.431.245.766.316,1q.045.165.075.255a.147.147,0,0,0,.025.09.5.5,0,0,1-.035-.085l-.085-.255c-.075-.23-.185-.561-.331-1-.29-.856-.721-2.084-1.317-3.581-.155-.371-.311-.766-.5-1.162a1.037,1.037,0,0,0-.426-.5.447.447,0,0,0-.566.691,1.1,1.1,0,0,0,.636.346,2.209,2.209,0,0,0,1.5-.2,2.124,2.124,0,0,0,1-1.192,1.948,1.948,0,0,0,.115-.811.816.816,0,0,0-.381-.686.451.451,0,0,0-.666.24,1,1,0,0,0,.045.826,1.868,1.868,0,0,0,1.377,1,2.169,2.169,0,0,0,1.678-.5,1.372,1.372,0,0,0,.5-.686.571.571,0,0,0-.05-.4.381.381,0,0,0-.311-.215.531.531,0,0,0-.371.115.591.591,0,0,0-.215.331,1.473,1.473,0,0,0,.035.806,2,2,0,0,0,2.5,1.312.962.962,0,0,0,.536-.451.431.431,0,0,0-.14-.5.691.691,0,0,0-.641,0,1.312,1.312,0,0,0-.5.431,6.848,6.848,0,0,0-.616,1.092,10.7,10.7,0,0,0-.7,2.048c-.15.621-.25,1.162-.321,1.608s-.125.786-.16,1a1.422,1.422,0,0,1-.04.27A.515.515,0,0,1,203.333,95.507Z" transform="translate(-98.991 -43.418)" fill="#1d354f"/>
        <path id="Trazado_116473" data-name="Trazado 116473" d="M206.01,105.641h-5.65a.421.421,0,0,1-.421-.421h0a.421.421,0,0,1,.426-.421l5.65.03a.421.421,0,0,1,.421.421h0A.421.421,0,0,1,206.01,105.641Z" transform="translate(-99.8 -52.311)" fill="#1d354f"/>
        <path id="Trazado_116474" data-name="Trazado 116474" d="M205.96,107.208h-5.645a.421.421,0,1,0,0,.836h.611l.816,1.553a.531.531,0,0,0,.5.291h2a.541.541,0,0,0,.5-.29l.811-1.543h.421a.421.421,0,1,0,0-.841Z" transform="translate(-99.754 -53.511)" fill="#1d354f"/>
        <g id="Grupo_80339" data-name="Grupo 80339" transform="translate(96.712 37.423)" opacity="0.2">
          <path id="Trazado_116475" data-name="Trazado 116475" d="M193.638,77.835a5.845,5.845,0,0,0-.536,2.144,5.45,5.45,0,0,0,.2,1.778,4.063,4.063,0,0,0,.5,1.092c.16.23.286.336.341.311a12.646,12.646,0,0,0-.185-1.5,6.085,6.085,0,0,1,2.84-6.01c.771-.5,1.342-.7,1.307-.836s-.175-.085-.456-.06a4.067,4.067,0,0,0-1.162.331,5.75,5.75,0,0,0-2.835,2.755Z" transform="translate(-193.095 -74.72)" fill="#fff"/>
        </g>
        <g id="Grupo_80340" data-name="Grupo 80340" transform="translate(102.566 36.932)" opacity="0.2">
          <path id="Trazado_116476" data-name="Trazado 116476" d="M206.68,74.28c.025-.12-.065-.255-.235-.361a1.357,1.357,0,0,0-.706-.18,1.4,1.4,0,0,0-.711.165c-.17.105-.26.235-.24.356.05.25.466.381.942.391C205.729,74.651,206.47,74.571,206.68,74.28Z" transform="translate(-204.784 -73.738)" fill="#fff"/>
        </g>
        <path id="Trazado_116477" data-name="Trazado 116477" d="M206.715,111.885a3.8,3.8,0,0,1-.386-.12,3.205,3.205,0,0,0-.957-.12,3.13,3.13,0,0,0-.952.165c-.235.08-.376.155-.381.14a1.112,1.112,0,0,1,.356-.2,2.85,2.85,0,0,1,.972-.2,2.92,2.92,0,0,1,1,.155A1.187,1.187,0,0,1,206.715,111.885Z" transform="translate(-101.847 -55.68)" fill="#a7e446"/>
        <path id="Trazado_116478" data-name="Trazado 116478" d="M206.683,108.864s-1,.04-2.279.035-2.284-.03-2.284-.055,1-.04,2.284-.035S206.683,108.839,206.683,108.864Z" transform="translate(-100.888 -54.312)" fill="#a7e446"/>
        <path id="Trazado_116479" data-name="Trazado 116479" d="M206.721,110.24a2.891,2.891,0,0,1-.556.055c-.346,0-.821.035-1.347.04s-1,0-1.347,0a3,3,0,0,1-.561-.045,4.771,4.771,0,0,1,.561,0h2.69A3.9,3.9,0,0,1,206.721,110.24Z" transform="translate(-101.283 -55.026)" fill="#a7e446"/>
        <path id="Trazado_116480" data-name="Trazado 116480" d="M404.91,81.239l6.751-1.5a18.238,18.238,0,1,0-6.576-16.458A17.91,17.91,0,0,0,407.4,74.8h0Z" transform="translate(-202.111 -23.641)" fill="#fff"/>
        <path id="Trazado_116481" data-name="Trazado 116481" d="M426.328,81.579a2.289,2.289,0,1,1-2.274-2.279A2.289,2.289,0,0,1,426.328,81.579Z" transform="translate(-210.516 -39.583)" fill="#1d354f"/>
        <path id="Trazado_116482" data-name="Trazado 116482" d="M441.568,81.664a2.289,2.289,0,1,1-2.274-2.274A2.289,2.289,0,0,1,441.568,81.664Z" transform="translate(-218.124 -39.627)" fill="#1d354f"/>
        <path id="Trazado_116483" data-name="Trazado 116483" d="M456.808,81.729a2.274,2.274,0,1,1-.666-1.613A2.289,2.289,0,0,1,456.808,81.729Z" transform="translate(-225.73 -39.657)" fill="#1d354f"/>
        <path id="Trazado_116484" data-name="Trazado 116484" d="M330.487,62.073a4.508,4.508,0,0,0-4.583-2.344,6.17,6.17,0,0,0-7.513,0,5.6,5.6,0,0,0-5.364-.21,5.509,5.509,0,0,0-2.935,4.443,4.693,4.693,0,0,0-4.818,2.279,4.583,4.583,0,0,0,.671,5.209,4.463,4.463,0,0,0-3.005,4.963,4.508,4.508,0,0,0,4.688,3.506l21.957-12.807A4.4,4.4,0,0,0,330.487,62.073Z" transform="translate(-151.183 -29.177)" fill="#1d354f"/>
        <path id="Trazado_116485" data-name="Trazado 116485" d="M309.183,86a18.471,18.471,0,0,1,18.827-16.488h.962c10.338.811,15.421,9.952,14.314,20.154l-2.209,34.058-1.5,4.262-17.81,22.082-4.508-19.894-.06-9.2s-9.922-1.733-9.837-11.58C307.4,104.639,308.291,94.852,309.183,86Z" transform="translate(-153.418 -34.695)" fill="#ffc4a3"/>
        <path id="Trazado_116486" data-name="Trazado 116486" d="M327,168.771a24.335,24.335,0,0,0,13.022-3.541s-3.2,7.042-13.022,5.98Z" transform="translate(-163.222 -82.475)" fill="#ffa275"/>
        <path id="Trazado_116487" data-name="Trazado 116487" d="M315.67,118.838a1.417,1.417,0,0,0,1.342,1.447,1.352,1.352,0,0,0,1.5-1.237,1.407,1.407,0,0,0-1.337-1.447,1.352,1.352,0,0,0-1.508,1.237Z" transform="translate(-157.566 -58.696)" fill="#1d354f"/>
        <path id="Trazado_116488" data-name="Trazado 116488" d="M314.838,111.721c.17.185,1.262-.581,2.79-.546s2.634.816,2.8.636c.085-.08-.09-.416-.571-.776a3.911,3.911,0,0,0-2.239-.736,3.766,3.766,0,0,0-2.229.661C314.908,111.311,314.753,111.651,314.838,111.721Z" transform="translate(-157.14 -55.055)" fill="#1d354f"/>
        <path id="Trazado_116489" data-name="Trazado 116489" d="M343,120.358a1.417,1.417,0,0,0,1.342,1.447,1.352,1.352,0,0,0,1.5-1.237,1.4,1.4,0,0,0-1.337-1.447A1.352,1.352,0,0,0,343,120.358Z" transform="translate(-171.208 -59.454)" fill="#1d354f"/>
        <path id="Trazado_116490" data-name="Trazado 116490" d="M344.049,111.9c.17.185,1.267-.581,2.795-.546s2.629.816,2.8.631c.085-.08-.085-.416-.571-.776a3.912,3.912,0,0,0-2.239-.731,3.776,3.776,0,0,0-2.229.661C344.129,111.486,343.963,111.816,344.049,111.9Z" transform="translate(-171.721 -55.145)" fill="#1d354f"/>
        <path id="Trazado_116491" data-name="Trazado 116491" d="M329.711,122.945a10.465,10.465,0,0,0-2.474-.5c-.391-.045-.756-.13-.816-.4a1.943,1.943,0,0,1,.28-1.142l1.217-2.915c1.693-4.157,2.925-7.578,2.755-7.643s-1.678,3.251-3.371,7.4l-1.167,2.94a2.234,2.234,0,0,0-.235,1.5.972.972,0,0,0,.631.576,2.715,2.715,0,0,0,.661.105A9.734,9.734,0,0,0,329.711,122.945Z" transform="translate(-162.652 -55.08)" fill="#1d354f"/>
        <path id="Trazado_116492" data-name="Trazado 116492" d="M344.2,103.26c.17.4,1.5.07,3.1.13s2.925.416,3.1,0c.075-.185-.185-.546-.741-.892a4.768,4.768,0,0,0-2.359-.671,4.623,4.623,0,0,0-2.359.551C344.376,102.719,344.116,103.069,344.2,103.26Z" transform="translate(-171.798 -50.826)" fill="#1d354f"/>
        <path id="Trazado_116493" data-name="Trazado 116493" d="M315.693,103.568c.23.371,1.317.12,2.579.235s2.3.466,2.584.135c.125-.165,0-.5-.436-.9a3.8,3.8,0,0,0-4.162-.3C315.774,103.052,315.593,103.388,315.693,103.568Z" transform="translate(-157.565 -51.044)" fill="#1d354f"/>
        <path id="Trazado_116494" data-name="Trazado 116494" d="M313.125,80.269s2.75-6.115,5.785-7.513c3.671-1.668,5.159,2.319,8.645,1.427s7.012-2.5,10.478.235c3.816,3.005,1.958,5.008,2.109,9.356.6,17.73,3.761,22.8,4.868,14.48.12-.912,2.7-1.588,3.16-5.439.6-5.008.917-11.074-.14-14.65-.887-3.005-2.569-5.119-5.62-7.463-4.808-3.7-11.52-3.917-16.082-3.556S312.869,72.52,313.125,80.269Z" transform="translate(-156.293 -33.454)" fill="#1d354f"/>
        <path id="Trazado_116495" data-name="Trazado 116495" d="M375.086,126.349a2.69,2.69,0,0,1,2.97-2.5c1.853.21,3.9,1.3,3.7,5.089-.361,6.726-7.112,4.983-7.112,4.788S374.91,129.164,375.086,126.349Z" transform="translate(-187.002 -61.81)" fill="#ffc4a3"/>
        <path id="Trazado_116496" data-name="Trazado 116496" d="M377.853,133.444c.03,0,.115.09.311.19a1.207,1.207,0,0,0,.886.065,2.927,2.927,0,0,0,1.5-2.5,3.826,3.826,0,0,0-.245-1.7,1.362,1.362,0,0,0-.841-.947.606.606,0,0,0-.716.285c-.1.185-.065.321-.1.331s-.14-.12-.07-.4a.756.756,0,0,1,.29-.406.887.887,0,0,1,.661-.14,1.658,1.658,0,0,1,1.182,1.107,3.976,3.976,0,0,1,.31,1.9,3.046,3.046,0,0,1-1.878,2.815,1.282,1.282,0,0,1-1.077-.235C377.858,133.615,377.828,133.454,377.853,133.444Z" transform="translate(-188.601 -63.996)" fill="#ffa275"/>
        <path id="Trazado_116497" data-name="Trazado 116497" d="M349.283,82.684a6.561,6.561,0,0,1-2.91,1.257,2.217,2.217,0,0,1-2.429-1.593c-.07-.471.06-1-.245-1.382s-1.052-.316-1.623-.27a4.337,4.337,0,0,1-4.443-3.17,1.831,1.831,0,0,1-2.449.175,9.47,9.47,0,0,1-1.808-2,2.8,2.8,0,0,0-2.314-1.2,6.923,6.923,0,0,1-1.5.29c-.892-.1-1.307-1.137-1.427-2s-.2-1.9-.947-2.4a3.376,3.376,0,0,0-2.429-.115c-.826.105-1.883-.11-2.074-.912a1.573,1.573,0,0,1,.326-1.212,4.432,4.432,0,0,1,5.234-1.543,6.01,6.01,0,0,1,11.019-.922,6.221,6.221,0,0,1,5.449-1.3,6.14,6.14,0,0,1,4.167,3.671,4.508,4.508,0,0,1,4.558,1.633,4.417,4.417,0,0,1,.265,4.788,4.123,4.123,0,0,1,2.224,3.336,2.38,2.38,0,0,1-2.755,2.359,2.5,2.5,0,0,1-1.027,3.14,2.534,2.534,0,0,1-3.231-.826" transform="translate(-161.059 -31.187)" fill="#1d354f"/>
        <path id="Trazado_116498" data-name="Trazado 116498" d="M374.685,97.79a1.608,1.608,0,0,1-.451,1.282,2.184,2.184,0,0,1-1.357.776,2.379,2.379,0,0,1-1.928-.6l.29-.035a6.832,6.832,0,0,1-1.392,1.648,3.862,3.862,0,0,1-1.257.741,3.055,3.055,0,0,1-3.311-1.057,3.856,3.856,0,0,1-.5-1.412,1.307,1.307,0,0,1-.04-.546,1.748,1.748,0,0,1,.19.5,4.507,4.507,0,0,0,.6,1.292,2.784,2.784,0,0,0,4.087.175,6.777,6.777,0,0,0,1.327-1.543l.12-.2.165.16a2.079,2.079,0,0,0,1.633.551,2,2,0,0,0,1.242-.616A3.361,3.361,0,0,0,374.685,97.79Z" transform="translate(-182.053 -48.812)" fill="#dff7f9"/>
        <path id="Trazado_116499" data-name="Trazado 116499" d="M341.391,63.894c0,.025-.18.045-.5.165a2.359,2.359,0,0,0-1.077.866l-.085.125-.09-.125a8.434,8.434,0,0,0-3.23-2.7,6.566,6.566,0,0,0-2.655-.621,5.655,5.655,0,0,0-4.643,2.329,4.507,4.507,0,0,0-.791,2l-.025.21-.205-.06a3.877,3.877,0,0,0-2.835.285,3.711,3.711,0,0,0-1.583,1.608,4.868,4.868,0,0,0-.461,2,1.222,1.222,0,0,1-.075-.551,3.8,3.8,0,0,1,.341-1.5,3.866,3.866,0,0,1,1.633-1.818,4.117,4.117,0,0,1,3.08-.361l-.23.15a4.8,4.8,0,0,1,.836-2.189,5.96,5.96,0,0,1,4.968-2.5,6.8,6.8,0,0,1,2.8.706,8.174,8.174,0,0,1,3.26,2.89h-.175a2.3,2.3,0,0,1,1.212-.856A1.092,1.092,0,0,1,341.391,63.894Z" transform="translate(-161.29 -30.552)" fill="#dff7f9"/>
        <path id="Trazado_116500" data-name="Trazado 116500" d="M336.374,140.23s1.958,4.052-2.244,5.008a2,2,0,0,1-1.1-.06h0a2.033,2.033,0,0,1-1.317-1.4l-.581-2.209C331.33,141.617,336.374,140.23,336.374,140.23Z" transform="translate(-165.284 -69.996)" fill="#ffa275"/>
        <path id="Trazado_116501" data-name="Trazado 116501" d="M331.964,145.089a4.1,4.1,0,0,1,.546.05,3.737,3.737,0,0,0,1.442-.215,3.15,3.15,0,0,0,2-3.842,3.1,3.1,0,0,0-.431-.952l.145.055c-1.628.411-3.06.761-4.087,1l-1.217.27a1.743,1.743,0,0,1-.446.07,1.754,1.754,0,0,1,.426-.16l1.192-.346c1-.285,2.444-.666,4.062-1.087l.085-.025.055.075a3.286,3.286,0,0,1,.471,1.032,3.471,3.471,0,0,1-.406,2.715,3.361,3.361,0,0,1-1.788,1.367,3.4,3.4,0,0,1-1.5.14A1.532,1.532,0,0,1,331.964,145.089Z" transform="translate(-164.68 -69.836)" fill="#1d354f"/>
        <path id="Trazado_116502" data-name="Trazado 116502" d="M250.5,200.86s-7.117,3.811-8.565,13.793c-1.247,8.575-8.74,54.543-8.74,54.543l-6.686,28.293h17.324l9.416-50.215Z" transform="translate(-113.062 -100.259)" fill="#fc4b52"/>
        <path id="Trazado_116503" data-name="Trazado 116503" d="M284.56,284.576,294.3,196.4l8.494-19.438,2.84-1.968,2.054,8.655,2.75,9.787L317.947,184l11.86-9.2.275,4.538L335.777,196l-4.723,43.459v45.026Z" transform="translate(-142.038 -87.251)" fill="#dff7f9"/>
        <path id="Trazado_116504" data-name="Trazado 116504" d="M326.965,303.469a1.721,1.721,0,0,0,0-.235,5.318,5.318,0,0,1,.035-.686c.025-.626.055-1.5.1-2.644.075-2.314.19-5.63.331-9.716.285-8.209.741-19.533,1.4-32.054s1.382-23.835,1.953-32.029c.285-4.082.5-7.388.681-9.7.08-1.132.14-2,.18-2.639,0-.286.03-.5.04-.686a1.4,1.4,0,0,0,0-.235,1.112,1.112,0,0,0-.035.235c0,.17-.045.4-.075.681-.055.621-.135,1.5-.24,2.634-.205,2.289-.5,5.6-.8,9.7-.631,8.189-1.4,19.533-2.053,32.054s-1.072,23.856-1.3,32.054c-.115,4.107-.19,7.428-.22,9.727,0,1.132-.025,2-.035,2.644v.686A.953.953,0,0,0,326.965,303.469Z" transform="translate(-163.187 -106.239)" fill="#1d354f"/>
        <path id="Trazado_116505" data-name="Trazado 116505" d="M385.147,238.188l13.643-42.227-24.136-12.972-5.044-5.459s-1.072,22.653-1.242,28.654-2.81,28.744-4.007,42.572c-.631,7.393-.225,19.738.145,26.7.421,7.979.336,10.618.336,10.618l23.61-.13-7.788-31.093Z" transform="translate(-181.707 -88.614)" fill="#fc4b52"/>
        <path id="Trazado_116506" data-name="Trazado 116506" d="M281.993,182.62l-16.458,6.331-2.549,61.174-6.356,35.56,18.146.336c.17-4.332,4.788-40.429,4.788-40.429l6.06-56.5,4.748-12.1Z" transform="translate(-128.097 -88.35)" fill="#fc4b52"/>
        <path id="Trazado_116507" data-name="Trazado 116507" d="M303.168,187.55a2.669,2.669,0,0,0-.3.336l-.836,1-3.085,3.826-.07.085.085.065,2.619,1.963.035-.21-3.07.962-.1.03v.1c.055,5.419.13,12.246.21,19.638.135,9.015.255,17.2.341,23.149.06,2.94.11,5.329.145,7.012.025.811.04,1.447.055,1.908a2.947,2.947,0,0,0,.025.5c.025.135,0,.17,0,.17a.775.775,0,0,0,0-.17v-2.409c0-1.683,0-4.072-.035-7.012-.06-5.945-.145-14.119-.24-23.144-.105-7.4-.205-14.224-.28-19.643l-.1.135,3.065-1,.225-.075-.19-.14-2.645-1.933v.145l3.005-3.892.791-1.042a2.911,2.911,0,0,0,.341-.356Z" transform="translate(-148.971 -93.616)" fill="#c93c41"/>
        <path id="Trazado_116508" data-name="Trazado 116508" d="M367.67,244.06a1.037,1.037,0,0,0,.065-.165c.04-.13.1-.286.16-.5.145-.451.351-1.077.611-1.868.536-1.618,1.337-3.957,2.359-6.832l1.7-4.7a56.963,56.963,0,0,0,1.728-5.474,123.428,123.428,0,0,0,2.414-12.912c.831-6.01,1.372-11.675,1.7-16.528v-.07l-.05-.045-2.645-2.529v.21l2.5-1.893.1-.07-.075-.1-4.533-6.08-1.247-1.643-.331-.421a1,1,0,0,0-.12-.14.606.606,0,0,0,.09.16l.306.441,1.192,1.683,4.443,6.145.025-.17-2.5,1.868-.13.1.115.115,2.629,2.544-.045-.12c-.356,4.863-.912,10.518-1.743,16.528a128,128,0,0,1-2.379,12.882,57.12,57.12,0,0,1-1.688,5.459l-1.658,4.713c-1,2.89-1.758,5.239-2.259,6.872-.245.816-.431,1.457-.551,1.888-.05.205-.09.366-.125.5a.737.737,0,0,0-.055.155Z" transform="translate(-183.523 -90.995)" fill="#c93c41"/>
        <path id="Trazado_116509" data-name="Trazado 116509" d="M385.49,359.834l-13.067,5.074-.872-2.88-6.476,5.344-.356-7.974,5.69-7.9,14.124,4.528Z" transform="translate(-182.05 -175.451)" fill="#c93c41"/>
        <path id="Trazado_116510" data-name="Trazado 116510" d="M409.607,277.552a4.938,4.938,0,0,0,2.339-4.007,44.958,44.958,0,0,0-.4-6.827c-.932-7.7-11.254-52.389-11.254-52.389l-15.211,34.829,4.392,15.161-22.4,10.618,6.241,17.415S403.1,281.574,409.607,277.552Z" transform="translate(-183.223 -106.983)" fill="#fc4b52"/>
        <path id="Trazado_116511" data-name="Trazado 116511" d="M411.936,234.9a1.647,1.647,0,0,0-.145.391c-.085.3-.2.671-.341,1.137-.3,1.032-.706,2.454-1.2,4.2-1,3.546-2.374,8.454-3.766,13.909s-2.5,10.428-3.19,14.024c-.346,1.813-.606,3.281-.766,4.3-.07.5-.13.871-.175,1.177a1.807,1.807,0,0,0-.04.411,1.733,1.733,0,0,0,.105-.4c.065-.3.145-.686.245-1.162.215-1.052.5-2.5.871-4.272.756-3.606,1.9-8.57,3.286-14.024s2.725-10.363,3.666-13.929c.456-1.748.826-3.185,1.1-4.222.115-.5.205-.856.28-1.157A2.078,2.078,0,0,0,411.936,234.9Z" transform="translate(-200.813 -117.25)" fill="#c93c41"/>
        <path id="Trazado_116512" data-name="Trazado 116512" d="M402.025,330.319a.425.425,0,0,0-.145.04l-.416.145-1.618.6-6.01,2.289L373.1,341.408l.215.1c-1.3-3.651-2.715-7.6-4.177-11.69l-2.054-5.735-.09.21,22.143-10.578h0a13.262,13.262,0,0,1,5.229-.591,13.091,13.091,0,0,1,3.872.972,16.459,16.459,0,0,1,2.249,1.172l.551.356a.113.113,0,1,0,.02-.025l-.536-.391a14.356,14.356,0,0,0-2.229-1.232,12.9,12.9,0,0,0-3.907-1.042,13.313,13.313,0,0,0-5.324.551h0l-22.2,10.468-.14.065.05.145,2.054,5.735c1.467,4.087,2.88,8.039,4.187,11.68l.06.16.16-.06,20.675-8.094,6.01-2.379,1.593-.646.406-.175A.727.727,0,0,0,402.025,330.319Z" transform="translate(-183.048 -156.169)" fill="#c93c41"/>
        <path id="Trazado_116513" data-name="Trazado 116513" d="M336.77,199.9a4.548,4.548,0,0,0,.631-.566l1.673-1.643,5.64-5.7h-.245a6.817,6.817,0,0,1,1.452,3.065,6.648,6.648,0,0,1,.14,1.788v.386l.3-.24c2.85-2.289,5.164-4.508,6.892-6.065.856-.771,1.553-1.387,2.038-1.808a6.077,6.077,0,0,0,.731-.666,5.434,5.434,0,0,0-.811.571c-.5.391-1.232,1-2.109,1.733-1.773,1.5-4.117,3.706-6.957,5.97l.28.145a7.418,7.418,0,0,0-1.688-5.1l-.12-.135-.12.13-5.559,5.785-1.618,1.693A4.621,4.621,0,0,0,336.77,199.9Z" transform="translate(-168.099 -94.065)" fill="#1d354f"/>
        <path id="Trazado_116514" data-name="Trazado 116514" d="M321.673,186.41a1.813,1.813,0,0,0-.03.526,12.415,12.415,0,0,0,.07,1.462,30.055,30.055,0,0,0,.836,5.034l.105.416.2-.381a12.261,12.261,0,0,1,2.184-3.005,8.2,8.2,0,0,1,.761-.7l-.28-.1a46.8,46.8,0,0,0,2.038,6.666c.326.821.611,1.472.816,1.913a3.265,3.265,0,0,0,.356.671,3.241,3.241,0,0,0-.235-.716l-.716-1.948a57.605,57.605,0,0,1-1.923-6.661l-.06-.275-.22.185c-.255.22-.5.461-.781.721a12.21,12.21,0,0,0-2.229,3.08l.3.03a37.847,37.847,0,0,1-.952-4.973C321.758,187.141,321.713,186.41,321.673,186.41Z" transform="translate(-160.544 -93.047)" fill="#1d354f"/>
        <path id="Trazado_116515" data-name="Trazado 116515" d="M296.863,203.86,295,206.434s.5,38.8,2.5,48.427Z" transform="translate(-147.249 -101.757)" fill="#c93c41"/>
        <path id="Trazado_116516" data-name="Trazado 116516" d="M256.63,312.424a1,1,0,0,1,.025-.185q.03-.205.09-.541c.09-.5.215-1.187.381-2.084.341-1.823.836-4.443,1.447-7.693,1.257-6.536,3.005-15.607,4.953-25.809h0c0-1.367-.03-2.82-.05-4.287-.11-11.389-.21-21.7-.28-29.175-.025-3.721-.045-6.736-.055-8.835v-3.03a1.22,1.22,0,0,1,0-.215v.841c0,.561,0,1.367.05,2.4.03,2.1.08,5.114.14,8.835.09,7.478.215,17.785.356,29.17,0,1.467.035,2.92.05,4.287v.025c-2,10.2-3.761,19.268-5.034,25.794-.646,3.246-1.167,5.865-1.533,7.683-.18.892-.321,1.588-.421,2.074l-.12.536a.9.9,0,0,1,0,.205Z" transform="translate(-128.097 -115.089)" fill="#c93c41"/>
        <path id="Trazado_116517" data-name="Trazado 116517" d="M255.15,318.37c0,.08-1.3-.03-2.895.08s-2.855.4-2.875.321a8.373,8.373,0,0,1,2.86-.581A8.579,8.579,0,0,1,255.15,318.37Z" transform="translate(-124.478 -158.799)" fill="#c93c41"/>
        <path id="Trazado_116518" data-name="Trazado 116518" d="M336.124,337.66s-12.631,2.634-14.525,3.045-9.291,5.98-10.017,6.391-2.88,1.768-2.88,1.768a3.354,3.354,0,0,0,3.832,1.442,13.146,13.146,0,0,0,4.062-2.224l-5.214,4.773-5.945,3.636a1.753,1.753,0,0,0-.746,2.149,1.037,1.037,0,0,0,1.247.661,71.386,71.386,0,0,0,7.172-2.439s.26,3.306,3.281,3.716c0,0,.646,2.845,3.276,2.239,0,0,2.584,2.119,4.873.907s8.229-3.636,9.451-6.1a37.185,37.185,0,0,1,2.775-4.6l4.578-.791Z" transform="translate(-152.026 -168.543)" fill="#ffc4a3"/>
        <path id="Trazado_116519" data-name="Trazado 116519" d="M321.619,372.207a15.287,15.287,0,0,0,3.466-1.568,11.209,11.209,0,0,0,3.09-2.234c-.07-.08-1.447.886-3.276,1.893A23.052,23.052,0,0,0,321.619,372.207Z" transform="translate(-160.535 -183.887)" fill="#ffa275"/>
        <path id="Trazado_116520" data-name="Trazado 116520" d="M334.25,374.992a15.876,15.876,0,0,0-3.416,2.038,31.878,31.878,0,0,0-3.215,2.334,15.511,15.511,0,0,0,3.436-2A25.005,25.005,0,0,0,334.25,374.992Z" transform="translate(-163.53 -187.173)" fill="#ffa275"/>
        <path id="Trazado_116521" data-name="Trazado 116521" d="M340.152,380.066c-.075-.07-1.217.892-2.755,1.933a14.705,14.705,0,0,0-2.69,2.043,13.333,13.333,0,0,0,2.91-1.723A9.226,9.226,0,0,0,340.152,380.066Z" transform="translate(-167.068 -189.708)" fill="#ffa275"/>
        <path id="Trazado_116522" data-name="Trazado 116522" d="M335.362,348a3.29,3.29,0,0,0-1.322.285,10.166,10.166,0,0,0-2.855,1.608,13.329,13.329,0,0,0-2.294,2.339,3.791,3.791,0,0,0-.721,1.152c.1.085,1.292-1.623,3.25-3.18A20.065,20.065,0,0,1,335.362,348Z" transform="translate(-163.806 -173.704)" fill="#ffa275"/>
        <path id="Trazado_116523" data-name="Trazado 116523" d="M452.433,238.375c.07.576-5.179,14.835-5.179,14.835l-7.327-26.6-10.137,2.124s2.75,36.757,4.508,41.726c1.9,5.3,12.992,9.271,19.193,2.079,1.808-2.058,7.458-15.181,7.458-15.181Z" transform="translate(-214.53 -113.112)" fill="#ac6b62"/>
        <path id="Trazado_116524" data-name="Trazado 116524" d="M422.966,208.225a10.479,10.479,0,0,0,.255-6.145c-.972-2.85-4.287-5.064-4.082-6.777s-1.553-5.82-3.135-5.509-2.76,1.868-1.417,4.508a33.527,33.527,0,0,1,2.114,5.359s-16.5-8.514-17.85-8.69-2.7-.371-3.045.7,2.945,2.424,2.945,2.424l4.427,5.71a25.011,25.011,0,0,0,3.08,6.145,17.051,17.051,0,0,0,5.655,4.252l4.813,5.735S424.023,213.479,422.966,208.225Z" transform="translate(-197.553 -94.727)" fill="#ac6b62"/>
        <path id="Trazado_116525" data-name="Trazado 116525" d="M402.257,198.176c.03,0,.15-.1.411-.215a2,2,0,0,1,1.172-.145,6.6,6.6,0,0,1,3.321,2.234,17.32,17.32,0,0,1,2.229,3.476,7.176,7.176,0,0,0,.861,1.5,6.335,6.335,0,0,0-.571-1.648,13.473,13.473,0,0,0-2.179-3.631,6.216,6.216,0,0,0-3.621-2.254,1.923,1.923,0,0,0-1.3.306C402.312,198,402.237,198.166,402.257,198.176Z" transform="translate(-200.785 -98.572)" fill="#834d45"/>
        <path id="Trazado_116526" data-name="Trazado 116526" d="M414.338,203.127a9.261,9.261,0,0,0,2.379,1.608,9.414,9.414,0,0,0,2.6,1.217,9.437,9.437,0,0,0-2.374-1.608A9.271,9.271,0,0,0,414.338,203.127Z" transform="translate(-206.815 -101.384)" fill="#834d45"/>
        <path id="Trazado_116527" data-name="Trazado 116527" d="M426.844,210.2a3.48,3.48,0,0,0-2.775-.025,3.523,3.523,0,0,0-2.2,1.678,12.009,12.009,0,0,1,2.344-1.252A18.93,18.93,0,0,1,426.844,210.2Z" transform="translate(-210.572 -104.785)" fill="#834d45"/>
        <path id="Trazado_116528" data-name="Trazado 116528" d="M502.173,197.019l5.7-2.469,19.678.5,7.383,3.105,1.5,18.892s-27.977,9.967-28.063,9.967S491.7,210.8,491.7,210.8Z" transform="translate(-245.432 -97.11)" fill="#ac6b62"/>
        <path id="Trazado_116529" data-name="Trazado 116529" d="M493.141,218.915a40.96,40.96,0,0,0,4.668,1.182,44.385,44.385,0,0,0,24.216-1.382l7.583-2.634s12.521,25.043,12.742,25.909-10.888,63.368-10.888,63.368H486.93l1.087-35.921s-.746-33.011-.621-33.382Z" transform="translate(-243.051 -107.856)" fill="#5e9540"/>
        <path id="Trazado_116530" data-name="Trazado 116530" d="M478.576,189.9l-5.785,4.082c-4.448,1.412-12.351,4.112-14.75,6.486-3.621,3.586-8.374,27.682-8.374,27.682s-.831-2.069-2.72-2.069L434,246.4s1.312,10.613,4.432,11.725,11.715.5,11.84.5h5.374l-2,33.622,10.443.045h0l.416-37.378,1.948-23.295,5.394-21.7Z" transform="translate(-216.631 -94.789)" fill="#a7e446"/>
        <path id="Trazado_116531" data-name="Trazado 116531" d="M478.318,239.49a3.235,3.235,0,0,1,.04.456c0,.326.035.756.055,1.3.05,1.132.1,2.775.13,4.8.07,4.057.07,9.656-.11,15.842s-.5,11.78-.841,15.822c-.16,2-.3,3.651-.416,4.783-.055.541-.1.972-.135,1.3a2.569,2.569,0,0,1-.07.451,2.855,2.855,0,0,1,0-.456c0-.326.045-.761.08-1.3.08-1.162.185-2.79.321-4.788.26-4.047.566-9.636.756-15.817s.215-11.775.2-15.827c0-2-.025-3.636-.03-4.8v-1.307a2.322,2.322,0,0,1,.025-.456Z" transform="translate(-238.075 -119.541)" fill="#5e9540"/>
        <path id="Trazado_116532" data-name="Trazado 116532" d="M478.067,230.4a14.066,14.066,0,0,1-.816-2.77,14.362,14.362,0,0,1-.531-2.845,28.54,28.54,0,0,1,1.347,5.615Z" transform="translate(-237.955 -112.204)" fill="#5e9540"/>
        <g id="Grupo_80341" data-name="Grupo 80341" transform="translate(237.924 120.99)" opacity="0.3">
          <path id="Trazado_116533" data-name="Trazado 116533" d="M477.594,241.57c-.06.26-.115.526-.175.791-2.84,13.122-3.005,28.779-1.2,42.071.541.065,2.5-40.819,1.312-42.572" transform="translate(-475.04 -241.57)" fill="#5e9540"/>
        </g>
        <path id="Trazado_116534" data-name="Trazado 116534" d="M607.394,221.9a14.924,14.924,0,0,0-4.252-7.613L590.12,231.184l4.893,73.234H613.8l-2.129-37.183S608.661,227.057,607.394,221.9Z" transform="translate(-294.558 -106.963)" fill="#a7e446"/>
        <path id="Trazado_116535" data-name="Trazado 116535" d="M581.623,202.639l2.549-3.2a38.326,38.326,0,0,0-12.677-8.2c-3.666-1.387-9.276-3.917-9.276-3.917l-4.032-4.973-.977,14.349S556.5,228.408,556,234.153c-.5,5.509-6.286,30.672-6.211,54.362l28.123-.045-6.256-36.843s2.559-23.48,2.715-24.241S581.623,202.639,581.623,202.639Z" transform="translate(-274.427 -91.02)" fill="#a7e446"/>
        <path id="Trazado_116536" data-name="Trazado 116536" d="M606.824,222.459c.06.055-1.973,2.5-4.548,5.474s-4.713,5.339-4.778,5.289,2-2.5,4.553-5.479S606.764,222.409,606.824,222.459Z" transform="translate(-298.241 -111.04)" fill="#5e9540"/>
        <path id="Trazado_116537" data-name="Trazado 116537" d="M497.449,219.188a.788.788,0,0,1-.045-.245c0-.19-.05-.426-.085-.721-.065-.661-.15-1.573-.26-2.7l.15.05a41.752,41.752,0,0,0-4.863,6.857l-.316.551.055-.631a40.644,40.644,0,0,1,5.855-18.161c.831-1.442,1.558-2.574,2.068-3.356.245-.366.441-.661.6-.887a1.966,1.966,0,0,1,.225-.3,1.531,1.531,0,0,1-.175.331l-.551.917c-.476.8-1.177,1.948-2,3.4a42.027,42.027,0,0,0-5.76,18.081l-.26-.075a38.888,38.888,0,0,1,4.978-6.837l.14-.155v.205c.075,1.137.135,2.048.18,2.715,0,.29.03.531.04.721A.865.865,0,0,1,497.449,219.188Z" transform="translate(-245.597 -99.65)" fill="#5e9540"/>
        <path id="Trazado_116538" data-name="Trazado 116538" d="M455.75,293.623a1.435,1.435,0,0,1,.11-.275l.361-.776c.16-.336.351-.746.556-1.232s.456-1.027.686-1.648.5-1.292.751-2.033.5-1.528.761-2.364a47.579,47.579,0,0,0,1.833-11.2c0-.877.06-1.708.04-2.5s-.03-1.5-.065-2.164-.085-1.257-.125-1.783-.09-.972-.135-1.342-.07-.626-.1-.846a2.265,2.265,0,0,1,0-.3,1.138,1.138,0,0,1,.07.29c.035.22.08.5.14.841s.13.816.18,1.342.13,1.122.165,1.788.09,1.392.1,2.174,0,1.618,0,2.5a48.448,48.448,0,0,1-.561,5.695,49.074,49.074,0,0,1-1.282,5.574c-.265.841-.5,1.643-.786,2.374s-.531,1.412-.786,2-.5,1.157-.726,1.638-.421.887-.6,1.217l-.4.751A1,1,0,0,1,455.75,293.623Z" transform="translate(-227.488 -132.35)" fill="#5e9540"/>
        <path id="Trazado_116539" data-name="Trazado 116539" d="M568.687,192.28a2.183,2.183,0,0,1,.03.411q0,.446.03,1.187c0,1.057.04,2.539.07,4.362.04,3.686.08,8.775.055,14.4,0,1.257-.025,2.5-.04,3.691,0,.6,0,1.182-.05,1.763a1.89,1.89,0,0,1-.035.441v.185a.106.106,0,0,1,0,.035h0a.08.08,0,0,1-.035.035.105.105,0,0,1-.075,0h-.06a.928.928,0,0,1-.215-.15c-.215-.2-.406-.4-.6-.6-1.5-1.633-2.82-3.18-3.952-4.508l.17-.05-.887,5.2c-.1.6-.18,1.072-.24,1.422l-.07.371c0,.08-.03.125-.035.12a.58.58,0,0,1,0-.125,1.357,1.357,0,0,1,.04-.376c.05-.351.11-.826.19-1.427.18-1.262.431-3.04.741-5.219l.03-.215.145.165c1.147,1.317,2.464,2.86,4.007,4.473.19.2.386.4.586.586a1.339,1.339,0,0,0,.13.1v.09c0,.05-.055-.03-.1,0V218.1c.03-.576.04-1.162.05-1.758,0-1.2.025-2.429.035-3.686V192.706A2,2,0,0,1,568.687,192.28Z" transform="translate(-280.893 -95.977)" fill="#5e9540"/>
        <path id="Trazado_116540" data-name="Trazado 116540" d="M595.279,251.47a.743.743,0,0,1,0,.17v.5c-.025.456-.055,1.1-.1,1.928-.1,1.693-.235,4.122-.406,7.122-.366,6.045-.877,14.414-1.448,23.775v-.03c.14.791.285,1.643.436,2.5,1.688,9.817,3.215,18.7,4.322,25.153.541,3.21,1,5.815,1.282,7.628.145.892.255,1.588.336,2.079.035.225.06.406.08.541a.73.73,0,0,1,0,.185.9.9,0,0,1-.045-.18q-.035-.205-.105-.541l-.386-2.064c-.326-1.813-.786-4.412-1.362-7.618-1.127-6.446-2.685-15.326-4.4-25.138-.15-.856-.3-1.708-.436-2.5v-.03c.6-9.361,1.142-17.725,1.533-23.77.205-3.005.371-5.424.5-7.117.06-.826.11-1.473.145-1.928l.04-.5A1.085,1.085,0,0,1,595.279,251.47Z" transform="translate(-296.021 -125.521)" fill="#5e9540"/>
        <path id="Trazado_116541" data-name="Trazado 116541" d="M493.285,96c-4.473.1-8.314,6.671-7.648,10.378.321,1.8,1.142,3.867-.326,5.2s-4.508,1.2-5.91,2.564a5.6,5.6,0,0,0-1.588,4.007c.2,2.254-.18,5.294-2,6.1l9.08,3.225c.937-.937,1.312-2.419,2.254-3.356-1.077,1-2.119,4.508,2.74,4.888l3.005-2.634c8.264,2.1,16.944,4.723,23.54,1.172" transform="translate(-237.501 -47.918)" fill="#1d354f"/>
        <path id="Trazado_116542" data-name="Trazado 116542" d="M548.347,104.078c-.6-1.7-1.578-3.271-2-5.009-.886-3.776.9-8.069-1-11.444-1.367-2.4-4.2-3.541-6.877-4.3s-5.234-1.217-7.252-3.115c-1.5-1.392-2.344-3.331-3.822-4.728-2.1-2-5.169-2.619-8.079-2.745a17.563,17.563,0,0,0-8.725,1.558,9.476,9.476,0,0,0-5.269,6.766c-.205,1.427,0,2.915-.431,4.3-.471,1.5-1.648,2.71-2.359,4.127a7.538,7.538,0,0,0,2.084,9.06l20.956,25.814c4.332,1.533,9.045-3.912,12.316-7.117S549.854,108.38,548.347,104.078Z" transform="translate(-250.481 -36.292)" fill="#1d354f"/>
        <path id="Trazado_116543" data-name="Trazado 116543" d="M507.151,106.024c.736-5.96,5.174-13.067,11.159-12.086l18.531,5.8a3.1,3.1,0,0,1,2.645,3.556l-3.817,44.25c.04,0-.466.711-.421.726s-5.008,12.416-17.214,7.853c-2.424-.907-3.506-.065-3.852-2.835h0c-.531-.21-3.045-1.082-3.035-1.392l3.336-9.942h0c.17-3.626.275-4.728.271-4.693s-7.643-1.437-8.65-11.52C505.6,120.759,506.329,112.646,507.151,106.024Z" transform="translate(-252.538 -46.844)" fill="#ac6b62"/>
        <path id="Trazado_116544" data-name="Trazado 116544" d="M537.547,134.195a1.282,1.282,0,0,0,1.167,1.362,1.237,1.237,0,0,0,1.4-1.077,1.287,1.287,0,0,0-1.167-1.362,1.237,1.237,0,0,0-1.4,1.077Z" transform="translate(-268.315 -66.44)" fill="#1d354f"/>
        <path id="Trazado_116545" data-name="Trazado 116545" d="M511.827,133.535A1.282,1.282,0,0,0,513,134.9a1.232,1.232,0,0,0,1.4-1.077,1.287,1.287,0,0,0-1.167-1.362,1.237,1.237,0,0,0-1.4,1.077Z" transform="translate(-255.477 -66.11)" fill="#1d354f"/>
        <path id="Trazado_116546" data-name="Trazado 116546" d="M510.715,125.333c.145.23,1.332-.541,2.835-.351s2.5,1.192,2.685,1c.1-.08-.03-.5-.456-.947a3.446,3.446,0,0,0-4.408-.5C510.851,124.867,510.64,125.228,510.715,125.333Z" transform="translate(-254.916 -61.875)" fill="#1d354f"/>
        <path id="Trazado_116547" data-name="Trazado 116547" d="M538.22,127.6c.185.215,1.347-.656,2.965-.616s2.78.922,2.965.716c.085-.09-.09-.471-.6-.881a3.967,3.967,0,0,0-2.359-.831,3.862,3.862,0,0,0-2.369.751C538.315,127.136,538.135,127.5,538.22,127.6Z" transform="translate(-268.642 -62.887)" fill="#1d354f"/>
        <path id="Trazado_116548" data-name="Trazado 116548" d="M523.927,136.773a9.077,9.077,0,0,0-2.234-.536c-.351-.06-.681-.145-.731-.391a1.813,1.813,0,0,1,.3-1l1.207-2.614c1.688-3.726,2.93-6.8,2.775-6.862s-1.638,2.9-3.326,6.626c-.406.917-.8,1.793-1.162,2.629a2.033,2.033,0,0,0-.27,1.367.892.892,0,0,0,.556.551,2.474,2.474,0,0,0,.6.115A9.908,9.908,0,0,0,523.927,136.773Z" transform="translate(-259.788 -62.577)" fill="#1d354f"/>
        <path id="Trazado_116549" data-name="Trazado 116549" d="M523.385,177.77a25.924,25.924,0,0,0,13.7-2.77s-3.822,7.1-13.849,5.579Z" transform="translate(-261.175 -87.351)" fill="#834d45"/>
        <path id="Trazado_116550" data-name="Trazado 116550" d="M538.335,119c.115.381,1.5.285,3.13.576s2.915.806,3.15.5c.105-.155-.1-.5-.611-.912a5.575,5.575,0,0,0-4.788-.806C538.605,118.568,538.285,118.819,538.335,119Z" transform="translate(-268.707 -58.967)" fill="#1d354f"/>
        <path id="Trazado_116551" data-name="Trazado 116551" d="M511.555,115.517c.26.326,1.372.065,2.69.13s2.419.351,2.695.04c.125-.155-.035-.476-.5-.8a4.162,4.162,0,0,0-2.159-.641,4.112,4.112,0,0,0-2.184.5C511.611,115.041,511.44,115.357,511.555,115.517Z" transform="translate(-255.326 -57.023)" fill="#1d354f"/>
        <path id="Trazado_116552" data-name="Trazado 116552" d="M565.313,112.008c-.957-1.738.881-3.681-.576-5.289-1.332-1.462-4.843-1.5-6.1-3.005a3.212,3.212,0,0,1-1.052-2.569c-.04-1.367-.666-7.122-9.151-8.289l-1.177,5.229c-.526-.245-1.077-.461-1.618-.656a93.328,93.328,0,0,0-21.426-5.009c-.881,1.5,0,3.506,1.387,4.548a16.393,16.393,0,0,0,4.808,2,6.49,6.49,0,0,1,4.052,3.07c.746,1.688.18,3.711.841,5.434,1.142,2.96,5.364,3.847,6.486,6.817.851,2.244-.431,4.678-.716,7.057a8.7,8.7,0,0,0,2.755,7.362c1.6,1.447,4.312,4.072,4.508,3.546l22.7-14C572.344,115.088,566.615,114.392,565.313,112.008Z" transform="translate(-261.487 -46.131)" fill="#1d354f"/>
        <path id="Trazado_116553" data-name="Trazado 116553" d="M497.828,153.274a1.454,1.454,0,0,1-.235.115,4.71,4.71,0,0,1-.7.265,6.766,6.766,0,0,1-2.74.2,6.9,6.9,0,0,1-3.676-1.7,6.009,6.009,0,0,1-1.412-1.948,6.87,6.87,0,0,1-.586-2.5,6.476,6.476,0,0,1,1.618-4.613,6.546,6.546,0,0,1,3.506-2,6.31,6.31,0,0,1,2.745.05,4.477,4.477,0,0,1,.711.235,1.12,1.12,0,0,1,.235.105,1.746,1.746,0,0,1-.25-.07,7.059,7.059,0,0,0-.716-.19,6.341,6.341,0,0,0-2.695,0,6.421,6.421,0,0,0-3.411,1.973,6.341,6.341,0,0,0-1.558,4.478,6.821,6.821,0,0,0,.566,2.439A5.98,5.98,0,0,0,490.591,152a6.8,6.8,0,0,0,3.571,1.688,6.872,6.872,0,0,0,2.695-.125,6.359,6.359,0,0,0,.706-.225A.911.911,0,0,1,497.828,153.274Z" transform="translate(-243.822 -70.358)" fill="#dff7f9"/>
        <path id="Trazado_116554" data-name="Trazado 116554" d="M558.226,120.664a1.624,1.624,0,0,1,.055-.155,2.878,2.878,0,0,0,.16-.451,4.007,4.007,0,0,0,.07-1.813,4.443,4.443,0,0,0-1.367-2.5,3.757,3.757,0,0,0-1.568-.861c-.621-.175-1.317-.235-2-.471a2.775,2.775,0,0,1-1-.566,2.679,2.679,0,0,1-.651-1,5.821,5.821,0,0,1-.3-2.439,13.07,13.07,0,0,0,.035-2.584,3.289,3.289,0,0,0-.426-1.252,3.13,3.13,0,0,0-.957-.962,8.939,8.939,0,0,0-2.725-.967,8.965,8.965,0,0,1-2.89-1.062,3.451,3.451,0,0,1-1.1-1.162,4.937,4.937,0,0,1-.531-1.5c-.205-1.062-.205-2.149-.406-3.21a6.225,6.225,0,0,0-3.912-4.6,11.053,11.053,0,0,0-3.005-.5,7.316,7.316,0,0,1-1.437-.255,3.1,3.1,0,0,1-1.277-.746,6.371,6.371,0,0,1-1.262-2.5,6.23,6.23,0,0,0-1.307-2.209,6.627,6.627,0,0,0-4.092-2.053,6.076,6.076,0,0,0-3.711.8,6.8,6.8,0,0,0-2.129,1.953,6.145,6.145,0,0,0-.821,1.638,4.585,4.585,0,0,0-.13.461.652.652,0,0,1-.05.155,4.384,4.384,0,0,1,.14-.626,5.808,5.808,0,0,1,.8-1.673,6.827,6.827,0,0,1,2.139-2,6.156,6.156,0,0,1,3.786-.841,6.771,6.771,0,0,1,4.182,2.1,6.425,6.425,0,0,1,1.352,2.259,6.319,6.319,0,0,0,1.222,2.419,4.252,4.252,0,0,0,2.664.972,11.154,11.154,0,0,1,3.04.5,6.416,6.416,0,0,1,4.042,4.748c.205,1.087.205,2.179.406,3.21a4.739,4.739,0,0,0,.5,1.462,3.276,3.276,0,0,0,1.037,1.092c1.733,1.117,3.932.977,5.6,2.038a3.282,3.282,0,0,1,1,1,3.449,3.449,0,0,1,.446,1.322,12.988,12.988,0,0,1-.04,2.619,5.61,5.61,0,0,0,.27,2.369,2.453,2.453,0,0,0,.611.927,2.575,2.575,0,0,0,.922.541c.676.235,1.367.3,2,.5a3.967,3.967,0,0,1,1.613.9,4.508,4.508,0,0,1,1.367,2.564,3.927,3.927,0,0,1-.115,1.838,2.211,2.211,0,0,1-.175.446C558.256,120.619,558.231,120.669,558.226,120.664Z" transform="translate(-259.303 -42.256)" fill="#dff7f9"/>
        <path id="Trazado_116555" data-name="Trazado 116555" d="M532.169,151.943a.721.721,0,0,0-.351-.275.842.842,0,0,0-.526.08l-4.122,1.628h0c.11,2.289,1.558,3.17,2.644,3.19a2.96,2.96,0,0,0,2.645-1.578A2.91,2.91,0,0,0,532.169,151.943Z" transform="translate(-263.137 -75.699)" fill="#834d45"/>
        <path id="Trazado_116556" data-name="Trazado 116556" d="M529.084,156.328a4.167,4.167,0,0,0,1.783-.285,2.464,2.464,0,0,0,1.357-1.292,3.26,3.26,0,0,0,0-2.314,3.194,3.194,0,0,0-.5-.856l.145.035a37.183,37.183,0,0,1-3.566,1.257,8.1,8.1,0,0,1-1.5.376,10.844,10.844,0,0,1,1.427-.536c.891-.316,2.134-.766,3.506-1.337l.085-.035.065.075a3.385,3.385,0,0,1,.541.927,3.441,3.441,0,0,1,0,2.5,2.569,2.569,0,0,1-1.5,1.372,3.271,3.271,0,0,1-1.362.215A1.152,1.152,0,0,1,529.084,156.328Z" transform="translate(-262.952 -75.541)" fill="#1d354f"/>
        <path id="Trazado_116557" data-name="Trazado 116557" d="M146.173,263l6.932-2,8.6-3.246,6.822-3.7s.6-.591-.24-1.327-4.548,1.322-4.548,1.322l-2.94,1.092s-2.474.205-2.339-.025,3.982-2.094,3.982-2.094L169,249.457s1.853-.957,1.277-2.184c-.27-.586-.952-.932-2.214-.446s-3.24,1.728-3.952,2-4.758,2.109-4.758,2.109l8.389-5.75s2.735-1.628,1.858-2.785-2.539.12-3.506.5-6.221,3.731-8.274,4.668c-1.763.8-1.337.135-1.337.135l5.009-3.075c2.194-1.357,3.862-2.7,2.434-3.6-.937-.586-5.149,1.663-5.149,1.663l-6.221,3.476-2.965,1.312,2.474-2.214a8.364,8.364,0,0,0,2.7-3.366c.866-2.139-.887-2.209-.887-2.209l-10.152,6.942c-1.578,1.377-3.436,8.014-3.436,8.014l-19.578,7.828,8.1,11.925Z" transform="translate(-60.252 -119.646)" fill="#ffc4a3"/>
        <path id="Trazado_116558" data-name="Trazado 116558" d="M176.386,254.78a1.443,1.443,0,0,1,.3.356,6.156,6.156,0,0,1,.636,1.1,7.443,7.443,0,0,1-1.087,7.939,6.713,6.713,0,0,1-.907.9,1.531,1.531,0,0,1-.391.26c-.03-.04.5-.436,1.152-1.272a7.953,7.953,0,0,0,1.588-3.731,7.838,7.838,0,0,0-.5-4.007C176.752,255.331,176.341,254.805,176.386,254.78Z" transform="translate(-87.32 -127.173)" fill="#ffa275"/>
        <path id="Trazado_116559" data-name="Trazado 116559" d="M116.338,143.383c.155-.711.881-1.132,1.5-1.563a7.207,7.207,0,0,0,2.9-6.882,7.378,7.378,0,0,0-4.943-5.685,5.69,5.69,0,0,1-1.818-.736c-1.277-1-.866-2.975-1.352-4.508-1.032-3.245-5.78-3.887-7.483-6.852-1.037-1.808-.686-4.007-.6-6.1s-.306-4.508-2.149-5.509c-1-.556-2.229-.6-3.2-1.187-2-1.227-1.913-4.007-2.649-6.2a8.091,8.091,0,0,0-8.775-5.109s1.452-3.12-2.4-4.713c-4.668-1.928-4.978,1.327-7.107-.7a7.152,7.152,0,0,0-8.735-.606,20.242,20.242,0,0,1-2.344,1.753,14.036,14.036,0,0,1-3.506.861,10.259,10.259,0,0,0-7.969,9.711l29.375,49.995c1,4.753-1.958,6.882,2.2,9.551.877.561,7.132,2.214,8.159,2.389,1.287.215,4.377.326,5.569-.185,2.584-1.122,6.511-2.815,7.513-5.384a7.388,7.388,0,0,0,8.3-1.863,6.937,6.937,0,0,0,.406-8.294C116.794,144.9,116.168,144.179,116.338,143.383Z" transform="translate(-27.813 -42.842)" fill="#1d354f"/>
        <path id="Trazado_116560" data-name="Trazado 116560" d="M56.411,118.378l-.411-3.4,20.745-5.865c6.446-1.272,14.119,4.448,15.156,10.783,1.157,7.042,2.279,15.682,1.938,21.036-.686,10.783-8.905,12.907-8.905,12.907l1.9,18.346-.326,4.718L65.977,158.956Z" transform="translate(-27.952 -54.374)" fill="#ffc4a3"/>
        <path id="Trazado_116561" data-name="Trazado 116561" d="M120.708,147.285a1.377,1.377,0,0,1-1.212,1.5,1.342,1.342,0,0,1-1.563-1.1,1.372,1.372,0,0,1,1.207-1.5,1.347,1.347,0,0,1,1.568,1.1Z" transform="translate(-58.863 -72.959)" fill="#1d354f"/>
        <path id="Trazado_116562" data-name="Trazado 116562" d="M118.484,139.025c-.155.2-1.292-.476-2.795-.331s-2.534.977-2.715.811c-.09-.07.055-.411.5-.8a3.877,3.877,0,0,1,2.149-.866,3.721,3.721,0,0,1,2.244.5C118.364,138.63,118.549,138.915,118.484,139.025Z" transform="translate(-56.379 -68.796)" fill="#1d354f"/>
        <path id="Trazado_116563" data-name="Trazado 116563" d="M93.228,149.885a1.372,1.372,0,0,1-1.212,1.5,1.347,1.347,0,0,1-1.563-1.1,1.372,1.372,0,0,1,1.212-1.5,1.337,1.337,0,0,1,1.563,1.1Z" transform="translate(-45.146 -74.256)" fill="#1d354f"/>
        <path id="Trazado_116564" data-name="Trazado 116564" d="M89,142.287c-.155.2-1.287-.471-2.79-.331s-2.534,1-2.715.816c-.09-.075.055-.411.5-.8a3.912,3.912,0,0,1,2.154-.871,3.8,3.8,0,0,1,2.244.5C88.889,141.9,89.079,142.2,89,142.287Z" transform="translate(-41.664 -70.425)" fill="#1d354f"/>
        <path id="Trazado_116565" data-name="Trazado 116565" d="M105.651,152.079a10.372,10.372,0,0,1,2.4-.656c.381-.075.736-.18.776-.441a1.858,1.858,0,0,0-.366-1.087l-1.417-2.75c-1.973-3.917-3.446-7.147-3.286-7.227s1.9,3.04,3.877,6.952L109,149.64a2.129,2.129,0,0,1,.346,1.452.952.952,0,0,1-.576.606,2.81,2.81,0,0,1-.646.15A10.194,10.194,0,0,1,105.651,152.079Z" transform="translate(-51.785 -69.84)" fill="#1d354f"/>
        <path id="Trazado_116566" data-name="Trazado 116566" d="M98.486,196.209A29.721,29.721,0,0,1,83.14,193.77s4.478,7.463,15.662,5.454Z" transform="translate(-41.499 -96.72)" fill="#ffa275"/>
        <path id="Trazado_116567" data-name="Trazado 116567" d="M87.384,131.073c-.11.411-1.628.361-3.376.731s-3.12.967-3.391.631c-.12-.16.09-.556.626-1a5.8,5.8,0,0,1,2.454-1.1,5.885,5.885,0,0,1,2.7.06C87.073,130.6,87.429,130.878,87.384,131.073Z" transform="translate(-40.224 -64.991)" fill="#1d354f"/>
        <path id="Trazado_116568" data-name="Trazado 116568" d="M116.868,130.549c-.23.361-1.3.11-2.549.21s-2.279.436-2.554.105c-.125-.155,0-.5.441-.866a3.591,3.591,0,0,1,2-.736,3.631,3.631,0,0,1,2.1.5C116.813,130.048,116.988,130.379,116.868,130.549Z" transform="translate(-55.764 -64.517)" fill="#1d354f"/>
        <path id="Trazado_116569" data-name="Trazado 116569" d="M71.768,109.355A18.807,18.807,0,0,0,61.5,103.69l-17.58,2.78-4.688,2.885c-.386-1-.636-1.648-.636-1.648-1.723-1.107-6.411-3.341-10.212.7-1.372,1.457-2.379,5.224-2.309,7.157,0,.731.15,1.623-.5,2.048a2.4,2.4,0,0,1-.771.275c-4.448,1.092-7.393,5.835-6.175,9.947a2.068,2.068,0,0,1,.14.826,2.229,2.229,0,0,1-.726,1.117,6.771,6.771,0,0,0-.811,8.074,8.114,8.114,0,0,1,1.332,2.359c.361,1.558-.806,3.005-1.7,4.367-2.66,4.077-2.945,9.857.606,13.313.871.841,1.973,1.578,2.339,2.69a6.176,6.176,0,0,1,.19,1.688c.13,2.875,1.943,6.01,5.008,6.511,1.708.265,3.731-.255,5.009.841a6.711,6.711,0,0,1,1.177,1.773,6.56,6.56,0,0,0,7.423,2.594,5.757,5.757,0,0,0,3.912-6.346,7.864,7.864,0,0,0,5.1-7.838s-1.928-10.042-1.092-12.817-1.447-8.514-2.725-11.3-.29-9.416-.13-12.045a8.67,8.67,0,0,0-.356-2.229h0c-.16-.631-.356-1.342-.591-2.1a19.533,19.533,0,0,1-.175-2.1,3.956,3.956,0,0,1,5.089-3.676,7.073,7.073,0,0,0,1.918.24,6.932,6.932,0,0,0,5.329-2.614,10.393,10.393,0,0,0,9.762,2.038,25.677,25.677,0,0,0,4.828,4.723,9.54,9.54,0,0,0,6.586,1.793A16.323,16.323,0,0,0,71.768,109.355Z" transform="translate(-7.403 -51.757)" fill="#1d354f"/>
        <path id="Trazado_116570" data-name="Trazado 116570" d="M97.787,112.419c-.035,0,0-.391-.1-1.082a6.732,6.732,0,0,0-1.042-2.77,6.476,6.476,0,0,0-3.506-2.68,6.972,6.972,0,0,0-5.479.581l-.125.07-.1-.105a10.017,10.017,0,0,0-2.5-1.948,10.518,10.518,0,0,0-6.641-1.157,10.122,10.122,0,0,0-5.008,2.379,10.478,10.478,0,0,0-2.329,2.915c-.411.781-.561,1.252-.6,1.242a1.417,1.417,0,0,1,.09-.346,7.372,7.372,0,0,1,.381-.957,9.882,9.882,0,0,1,2.284-3.04,10.172,10.172,0,0,1,5.1-2.5,10.7,10.7,0,0,1,6.872,1.167,10.433,10.433,0,0,1,2.594,2l-.22-.035a7.262,7.262,0,0,1,5.76-.556,6.621,6.621,0,0,1,3.621,2.85,6.551,6.551,0,0,1,.972,2.875,5.051,5.051,0,0,1,0,.816,1.252,1.252,0,0,1-.025.28Z" transform="translate(-35.12 -51.35)" fill="#dff7f9"/>
        <path id="Trazado_116571" data-name="Trazado 116571" d="M24.53,139.381a23.946,23.946,0,0,0,4.242-.721,16.753,16.753,0,0,0,8.394-5.509l.371-.5.055-.065h.08a9.516,9.516,0,0,0,4.958-1.9,10.067,10.067,0,0,0,2.825-3.256,10.89,10.89,0,0,0,1.152-3.776.9.9,0,0,1,0,.275,5.2,5.2,0,0,1-.05.8,8.409,8.409,0,0,1-.892,2.815,9.972,9.972,0,0,1-2.87,3.4,9.7,9.7,0,0,1-5.134,2l.135-.07c-.125.15-.255.321-.386.5A15.927,15.927,0,0,1,33.12,137.1a16.648,16.648,0,0,1-4.312,1.818,15.587,15.587,0,0,1-3.125.5H24.82a1.1,1.1,0,0,1-.29-.035Z" transform="translate(-12.244 -61.72)" fill="#dff7f9"/>
        <path id="Trazado_116572" data-name="Trazado 116572" d="M29.51,171.016a5.047,5.047,0,0,0,.646.461,3.631,3.631,0,0,0,.892.351,3.977,3.977,0,0,0,1.3.075,3.531,3.531,0,0,0,1.5-.5,3.235,3.235,0,0,0,.7-.591,3.121,3.121,0,0,0,.5-.836,3.636,3.636,0,0,0,.215-2.139,3.351,3.351,0,0,0-1.282-2l-.22-.1H34a7.352,7.352,0,0,0,3.661-1.057,9.741,9.741,0,0,0,3.005-2.965c.215-.3.391-.636.581-.962a6.276,6.276,0,0,0,.476-1.037,10.6,10.6,0,0,0,.646-2.244,17.029,17.029,0,0,0,.1-4.873,47.224,47.224,0,0,0-1.5-7.127V145.4l.055-.04a17.93,17.93,0,0,0,5.68-6.421,19.108,19.108,0,0,0,1.4-3.4c.135-.556.316-1.082.4-1.6.05-.26.1-.5.15-.761s.065-.5.1-.731a17.53,17.53,0,0,0,0-4.508c-.055-.5-.16-.922-.2-1.192a1.4,1.4,0,0,0-.055-.311c-.015-.08,0-.105,0-.105s.155.556.331,1.6a17.235,17.235,0,0,1,.07,4.508c-.03.24-.045.5-.09.741s-.1.5-.145.766c-.08.526-.255,1.057-.391,1.618a18.948,18.948,0,0,1-1.4,3.431,17.926,17.926,0,0,1-5.71,6.511l.035-.1a47.079,47.079,0,0,1,1.543,7.157,17.189,17.189,0,0,1-.11,4.923,10.594,10.594,0,0,1-.656,2.284,9.184,9.184,0,0,1-.5,1.052,7.905,7.905,0,0,1-.591.977,9.892,9.892,0,0,1-3.1,3.005,7.443,7.443,0,0,1-3.746,1.062l.04-.14a3.506,3.506,0,0,1,1.332,2.084,3.721,3.721,0,0,1-.185,2.209,3.111,3.111,0,0,1-.536.866,3.156,3.156,0,0,1-.731.6,3.506,3.506,0,0,1-1.568.5,3.8,3.8,0,0,1-1.322-.1,3.506,3.506,0,0,1-.9-.371,2.924,2.924,0,0,1-.476-.361A.94.94,0,0,1,29.51,171.016Z" transform="translate(-14.73 -63.058)" fill="#dff7f9"/>
        <path id="Trazado_116573" data-name="Trazado 116573" d="M138.569,176.238a.537.537,0,0,1,.105-.075l.321-.2c.14-.09.316-.2.5-.346s.426-.306.666-.5a12.02,12.02,0,0,0,4.252-7.838,10.813,10.813,0,0,0-.4-4.287,11.945,11.945,0,0,0-2.3-4.242,11.614,11.614,0,0,0-4.187-3.165l-.125-.06.1-.1a10.7,10.7,0,0,0,2.92-5.464,10.444,10.444,0,0,0,.21-2.043,9.628,9.628,0,0,0-.185-2,9.4,9.4,0,0,0-.571-1.893,10.017,10.017,0,0,0-.9-1.718,10.869,10.869,0,0,0-5.59-4.382l-.09-.03.04-.085a9.631,9.631,0,0,0,.631-6.591,9.431,9.431,0,0,0-2.66-4.438,9.792,9.792,0,0,0-2.82-1.873c-.361-.16-.641-.265-.836-.331l-.22-.075-.075-.03a7.123,7.123,0,0,1,1.152.386,9.682,9.682,0,0,1,2.87,1.853,9.436,9.436,0,0,1,2.725,4.473,9.741,9.741,0,0,1-.611,6.7l-.05-.115a11.054,11.054,0,0,1,5.695,4.443,10.547,10.547,0,0,1,.922,1.748,9.545,9.545,0,0,1,.581,1.928,9.967,9.967,0,0,1,.19,2.048,10.518,10.518,0,0,1-.215,2.084,10.879,10.879,0,0,1-2.975,5.559l-.03-.155a11.825,11.825,0,0,1,4.252,3.225,12.071,12.071,0,0,1,2.319,4.307,10.944,10.944,0,0,1,.386,4.352,12.09,12.09,0,0,1-1.037,3.631,11.915,11.915,0,0,1-3.321,4.242,7.507,7.507,0,0,1-.681.5,4.468,4.468,0,0,1-.5.331l-.331.19Z" transform="translate(-63.567 -62.129)" fill="#dff7f9"/>
        <path id="Trazado_116574" data-name="Trazado 116574" d="M99.128,169.28a17.7,17.7,0,0,1,4.087,1.112v.035a3.344,3.344,0,0,1-1.162,2.5,2.053,2.053,0,0,1-2.043.07,2.259,2.259,0,0,1-1.2-1.578A4.693,4.693,0,0,1,99.128,169.28Z" transform="translate(-49.313 -84.496)" fill="#ffa275"/>
        <path id="Trazado_116575" data-name="Trazado 116575" d="M101,172.956c0,.025-.11.115-.371.155a1.723,1.723,0,0,1-1.087-.215,2.244,2.244,0,0,1-1.057-1.257,3.421,3.421,0,0,1,0-2,2.5,2.5,0,0,1,.185-.531.436.436,0,0,1,.441-.2.788.788,0,0,1,.255.065l.887.25,1.5.446a4.507,4.507,0,0,1,1.337.526,4.478,4.478,0,0,1-1.427-.21l-1.5-.346-.887-.225-.21-.05v-.075c0,.015.075.07.05.06a3.453,3.453,0,0,0-.135.406,3.19,3.19,0,0,0,0,1.733A1.973,1.973,0,0,0,99.8,172.6,2.454,2.454,0,0,0,101,172.956Z" transform="translate(-49.087 -84.306)" fill="#1d354f"/>
        <path id="Trazado_116576" data-name="Trazado 116576" d="M43.928,297.989h59.726l-1.412-23.78L100.129,245.7A29.22,29.22,0,0,0,94.7,230.78l-4.538-6.321-5.615-7.513-3.461-6.771L59.645,201.41,57,206.874s-3.1,2.229-5.1,3.937a24.037,24.037,0,0,0-7.453,12.606.209.209,0,0,1-.04.145c-1.252,4.823-.275,11.8-.275,11.8l7.132,34.278a64.02,64.02,0,0,0-5.409,15.792C45.526,286.95,44.569,293.021,43.928,297.989Z" transform="translate(-21.846 -100.534)" fill="#a7e446"/>
        <path id="Trazado_116577" data-name="Trazado 116577" d="M100.259,221.9a4.137,4.137,0,0,1-.5-.846c-.321-.656-.721-1.457-1.192-2.414h.3l-2.354,5.785-.085.21-.215-.09-3.391-1.372c-3.506-1.422-6.636-2.74-8.905-3.711l-2.68-1.177a4.742,4.742,0,0,1-.957-.5,4.663,4.663,0,0,1,1.032.321l2.735,1.037c2.3.892,5.469,2.154,8.96,3.581l3.381,1.392-.3.12,2.474-5.73.15-.351.15.346c.421,1,.776,1.8,1.062,2.474a3.871,3.871,0,0,1,.336.927Z" transform="translate(-40.072 -108.705)" fill="#5e9540"/>
        <path id="Trazado_116578" data-name="Trazado 116578" d="M93.331,353.469a4.507,4.507,0,0,1-1-.185c-.656-.145-1.6-.4-2.75-.741a68,68,0,0,1-17.029-7.8c-1-.651-1.813-1.2-2.349-1.6a4.44,4.44,0,0,1-.811-.661,4.507,4.507,0,0,1,.917.5l2.394,1.467a86.607,86.607,0,0,0,16.944,7.773l2.695.882a4.507,4.507,0,0,1,.992.366Z" transform="translate(-34.636 -170.949)" fill="#5e9540"/>
        <path id="Trazado_116579" data-name="Trazado 116579" d="M49.2,270.1s11.019,30.2,14.625,35.671,5.414,7.012,10.939,6.075,29.781-8.915,29.781-8.915l-.356-4.948L81.735,302.73l-12.957-2.665L56.948,281.85Z" transform="translate(-24.558 -134.82)" fill="#5e9540"/>
        <path id="Trazado_116580" data-name="Trazado 116580" d="M94.3,256.923l-1.222-2-5.93,1.412-8.965,2s-5.209-30.341-12.727-35.21S52.433,219.119,47.8,227.7,45.671,241.3,45.671,241.3s11.97,33.442,19.784,40.268,33.557-6.055,33.557-6.055l5.214-4.342Z" transform="translate(-22.462 -109.894)" fill="#a7e446"/>
        <path id="Trazado_116581" data-name="Trazado 116581" d="M94.027,256.708a1.96,1.96,0,0,1,.185.23c.125.175.291.406.5.7l1.963,2.76c1.713,2.439,4.207,6.01,7.383,10.518l.07.1-.1.08-5.214,4.327h0a107.624,107.624,0,0,1-13.793,5.6,59.556,59.556,0,0,1-8.294,2.089,30.348,30.348,0,0,1-4.508.421,13.978,13.978,0,0,1-4.663-.646,7.059,7.059,0,0,1-1.117-.476l-.541-.291c-.17-.115-.336-.245-.5-.366a5.433,5.433,0,0,1-.922-.791l-.846-.882c-.5-.621-1-1.3-1.5-1.948s-.9-1.377-1.357-2.069a94.411,94.411,0,0,1-4.833-8.945c-3.005-6.226-5.785-12.877-8.459-19.754-.806-2.089-1.593-4.162-2.319-6.18h0a11.755,11.755,0,0,1-.581-5.74,21.156,21.156,0,0,1,1.5-5.444,27.546,27.546,0,0,1,2.609-4.873,14.264,14.264,0,0,1,3.746-3.942,8.329,8.329,0,0,1,5.124-1.452,13.524,13.524,0,0,1,5.008,1.432c.756.391,1.5.781,2.209,1.237a8.478,8.478,0,0,1,1.963,1.568,19.478,19.478,0,0,1,2.67,4.032,58.834,58.834,0,0,1,3.361,8.424c.9,2.755,1.653,5.424,2.3,7.974,1.3,5.1,2.244,9.712,2.95,13.7l-.165-.11,9.156-2,5.76-1.327h.03v.03l.9,1.5c.2.336.28.5.28.5s-.115-.155-.326-.5l-.937-1.5h.055l-5.74,1.412L77.9,258.19l-.14.035v-.145c-.731-3.972-1.7-8.575-3.005-13.658-.661-2.539-1.422-5.2-2.324-7.943a59.721,59.721,0,0,0-3.4-8.344,19.367,19.367,0,0,0-2.619-3.937,7.939,7.939,0,0,0-1.878-1.5c-.691-.446-1.427-.826-2.169-1.212a13.167,13.167,0,0,0-4.823-1.372,7.819,7.819,0,0,0-4.838,1.377,13.939,13.939,0,0,0-3.621,3.887,26.984,26.984,0,0,0-2.559,4.8,20.61,20.61,0,0,0-1.447,5.319,11.374,11.374,0,0,0,.536,5.474v.025c.731,2,1.5,4.087,2.319,6.17,2.675,6.867,5.424,13.523,8.434,19.723a95.664,95.664,0,0,0,4.793,8.905c.456.686.856,1.4,1.342,2.053s.952,1.307,1.462,1.918l.821.856a5.1,5.1,0,0,0,.851.8c.155.115.306.235.466.341l.5.275a7.512,7.512,0,0,0,1.057.451,13.492,13.492,0,0,0,4.508.636,29.554,29.554,0,0,0,4.453-.406,59.382,59.382,0,0,0,8.244-2.043,108.548,108.548,0,0,0,13.773-5.509h-.03l5.234-4.312-.025.175-7.282-10.568-1.9-2.8c-.2-.306-.361-.541-.476-.721A1.373,1.373,0,0,1,94.027,256.708Z" transform="translate(-22.191 -109.678)" fill="#5e9540"/>
        <path id="Trazado_116582" data-name="Trazado 116582" d="M102.607,311.691a8.429,8.429,0,0,1-.135-2.349,24.9,24.9,0,0,1,2.89-10.928,8.329,8.329,0,0,1,1.282-2,16.118,16.118,0,0,1-1,2.129,33.1,33.1,0,0,0-1.913,5.274,32.61,32.61,0,0,0-.942,5.509,17.955,17.955,0,0,1-.18,2.369Z" transform="translate(-51.134 -147.953)" fill="#5e9540"/>
        <path id="Trazado_116583" data-name="Trazado 116583" d="M141.479,311.707a3.252,3.252,0,0,1-.656-.6c-.406-.406-.967-1-1.638-1.773A52.358,52.358,0,0,1,134.372,303a33.135,33.135,0,0,1-3.506-7.142,18.371,18.371,0,0,1-.646-2.324,2.975,2.975,0,0,1-.13-.872c.08,0,.376,1.2,1.1,3.08a39.422,39.422,0,0,0,3.581,7.012,71.686,71.686,0,0,0,4.668,6.381A26.311,26.311,0,0,1,141.479,311.707Z" transform="translate(-64.934 -146.081)" fill="#5e9540"/>
        <path id="Trazado_116584" data-name="Trazado 116584" d="M168.918,271.355l6.932-2,8.595-3.25,6.852-3.691s.6-.591-.24-1.327-4.548,1.322-4.548,1.322l-2.94,1.092s-2.5.205-2.339-.025,4.007-2.094,4.007-2.094l6.556-3.566s1.848-.962,1.277-2.184c-.275-.586-.957-.932-2.214-.446s-3.24,1.728-3.952,2-4.763,2.109-4.763,2.109l8.344-5.755s2.735-1.628,1.858-2.785-2.544.12-3.506.5-6.226,3.731-8.279,4.668c-1.758.8-1.332.135-1.332.135l4.978-3.08c2.2-1.352,3.867-2.7,2.434-3.6-.932-.581-5.144,1.668-5.144,1.668l-6.226,3.491-2.965,1.312,2.469-2.214a8.439,8.439,0,0,0,2.7-3.366c.866-2.139-.891-2.214-.891-2.214l-10.147,6.947c-1.578,1.377-3.441,8.014-3.441,8.014l-19.568,7.548,8.329,12.02Z" transform="translate(-71.593 -123.819)" fill="#ffc4a3"/>
        <path id="Trazado_116585" data-name="Trazado 116585" d="M168.759,271.265l-.29.2-.871.576-3.351,2.224-12.611,8.314-.065.045-.045-.065-8.344-12.02-.07-.1.115-.045L162.8,262.83l-.07.08c.381-1.332.826-2.7,1.342-4.082.265-.686.541-1.382.871-2.064a6.846,6.846,0,0,1,1.257-1.938h0l10.147-6.947h.08a1.467,1.467,0,0,1,.861.356,1.217,1.217,0,0,1,.381.871,3.756,3.756,0,0,1-.531,1.768,8.634,8.634,0,0,1-2.459,2.815h0l-2.469,2.214-.135-.215,2.96-1.312h0l5.259-2.935a27.649,27.649,0,0,1,2.77-1.412c.5-.21.967-.411,1.467-.581a4.808,4.808,0,0,1,1.578-.321.881.881,0,0,1,.406.1,1.863,1.863,0,0,1,.311.245.876.876,0,0,1,.29.751,1.442,1.442,0,0,1-.316.711,3.757,3.757,0,0,1-.5.546,15.835,15.835,0,0,1-2.354,1.673l-4.828,2.935.04-.04c-.18.11.27.045.531-.06a7.588,7.588,0,0,0,.856-.366c.566-.275,1.117-.576,1.663-.886,1.092-.616,2.164-1.257,3.23-1.888l1.6-.942a17.141,17.141,0,0,1,1.643-.876c.546-.23,1.072-.561,1.663-.766a2.449,2.449,0,0,1,.937-.17,1.267,1.267,0,0,1,.887.406,1,1,0,0,1,.26.942,1.954,1.954,0,0,1-.466.826,6.552,6.552,0,0,1-1.382,1.177c-1,.661-1.953,1.332-2.92,2l-5.675,3.887-.115-.21,3.7-1.638a18.833,18.833,0,0,0,1.788-.836l1.723-.937a12.083,12.083,0,0,1,1.778-.806,2.62,2.62,0,0,1,1-.135,1.262,1.262,0,0,1,1.207,1.4,1.628,1.628,0,0,1-.441.882,3.41,3.41,0,0,1-.731.616c-.27.175-.546.306-.811.461-2.159,1.162-4.232,2.309-6.261,3.381-1.027.5-2.038,1-3.005,1.5a7.652,7.652,0,0,0-.671.4s0,.03,0,0a.075.075,0,0,0,0-.045h.661c.541,0,1.072-.04,1.6-.08h-.025l2.94-1.092h0a16.525,16.525,0,0,1,3.04-1.312,4.26,4.26,0,0,1,.791-.16,1.132,1.132,0,0,1,.811.17,1.367,1.367,0,0,1,.451.666.851.851,0,0,1-.205.786h0l-6.832,3.691h0l-8.6,3.226h0l-5.174,1.467-1.322.371-.446.115.436-.14,1.312-.391,5.169-1.5h0l8.514-3.215h0l6.817-3.711h0a.706.706,0,0,0,.16-.626,1.222,1.222,0,0,0-.4-.576.947.947,0,0,0-.686-.125,4.056,4.056,0,0,0-.756.155,16.134,16.134,0,0,0-3.005,1.307h0l-2.935,1.1h-.025c-.531.045-1.067.08-1.613.085H181.4a1.674,1.674,0,0,1-.215-.025.539.539,0,0,1-.125-.035l-.045-.035a.135.135,0,0,1-.04-.085c0-.09.04-.085.05-.105a4.8,4.8,0,0,1,.731-.456c1-.5,2-1,3.005-1.528,2-1.072,4.1-2.224,6.246-3.391.27-.15.551-.286.8-.446a3.635,3.635,0,0,0,.686-.581,1.412,1.412,0,0,0,.381-.766,1.037,1.037,0,0,0-1-1.147,2.415,2.415,0,0,0-.9.125,12.239,12.239,0,0,0-1.738.791l-1.718.942c-.581.326-1.212.571-1.813.846l-3.7,1.643-.115-.21,5.675-3.892c.967-.656,1.933-1.332,2.915-2a6.585,6.585,0,0,0,1.332-1.132,1.8,1.8,0,0,0,.416-.726.746.746,0,0,0-.205-.711,1.367,1.367,0,0,0-1.553-.17c-.551.205-1.077.5-1.653.766-1.087.5-2.134,1.187-3.205,1.8s-2.139,1.277-3.236,1.893c-.546.311-1.1.616-1.673.892a7.747,7.747,0,0,1-.887.381,2.429,2.429,0,0,1-.5.125.406.406,0,0,1-.326-.065.23.23,0,0,1-.075-.225.441.441,0,0,1,.06-.16v-.025H179l4.823-2.98a15.825,15.825,0,0,0,2.3-1.638,3.471,3.471,0,0,0,.471-.5,1.172,1.172,0,0,0,.265-.586.616.616,0,0,0-.21-.541,2.567,2.567,0,0,0-.26-.2.711.711,0,0,0-.291-.065,4.748,4.748,0,0,0-1.5.306c-.5.17-.967.366-1.442.576a28.317,28.317,0,0,0-2.75,1.4l-5.259,2.935h0l-2.965,1.307-.741.331.606-.546,2.469-2.209h0a8.364,8.364,0,0,0,2.379-2.725,3.536,3.536,0,0,0,.5-1.638.957.957,0,0,0-.3-.7,1.212,1.212,0,0,0-.706-.285l.08-.025-10.152,6.937h0a6.705,6.705,0,0,0-1.2,1.853c-.326.676-.6,1.362-.866,2.048-.5,1.372-.957,2.735-1.342,4.057v.055h-.055l-19.583,7.513.045-.145,8.314,12.05h-.11l12.661-8.259,3.376-2.184.866-.561Z" transform="translate(-71.433 -123.729)" fill="#ffa275"/>
      </g>
    </g>
  </g>
</svg>
