<svg xmlns="http://www.w3.org/2000/svg" width="513.178" height="599.775" viewBox="0 0 513.178 599.775">
  <g id="Grupo_115783" data-name="Grupo 115783" transform="translate(-180 -599.226)">
    <path id="Trazado_116688" data-name="Trazado 116688" d="M371.154,140.161a79.523,79.523,0,1,1,90.075,67.774A79.523,79.523,0,0,1,371.154,140.161Zm116.358-16.71a38.032,38.032,0,1,0-32.223,43.21A38.032,38.032,0,0,0,487.512,123.451Z" transform="translate(150.666 598.806)" fill="#a7e446"/>
    <path id="Trazado_116689" data-name="Trazado 116689" d="M371.189,140.11a79.806,79.806,0,0,1,67.448-90.38l5.918,41.339a38.193,38.193,0,0,0,10.879,75.607l5.94,41.339a79.784,79.784,0,0,1-90.184-67.9Z" transform="translate(150.631 598.856)" fill="#feca2e"/>
    <path id="Trazado_116690" data-name="Trazado 116690" d="M398.07,47.776a90.858,90.858,0,0,1,103.717,78.044l-48.04,6.9c-3.5-24.39-24.064-37.4-48.345-33.92Z" transform="translate(183.213 595.349)" fill="#fc4b52"/>
    <path id="Trazado_116691" data-name="Trazado 116691" d="M117.354,235.306a18.075,18.075,0,0,1,4.351-1.92l.875-4.317,7.293-.159,1.068,4.283a17.72,17.72,0,0,1,4.431,1.715l3.681-2.431,5.271,5.044-2.272,3.783a17.608,17.608,0,0,1,1.909,4.351l4.317.875.159,7.293-4.272,1.068a17.757,17.757,0,0,1-1.727,4.431L144.869,263l-5.044,5.271L136.054,266a18.075,18.075,0,0,1-4.351,1.92l-.886,4.317-7.293.159-1.068-4.283a17.892,17.892,0,0,1-4.431-1.715l-3.669,2.431-5.271-5.044L111.356,260a18.074,18.074,0,0,1-1.92-4.351l-4.317-.875-.159-7.293,4.272-1.068a18.179,18.179,0,0,1,1.727-4.431l-2.431-3.681,5.044-5.271,3.783,2.272Zm3.919,9.7a7.816,7.816,0,1,0,5.481-2.421A7.827,7.827,0,0,0,121.274,245.008Z" transform="translate(194.28 715.15)" fill="#a7e446"/>
    <path id="Trazado_116692" data-name="Trazado 116692" d="M119.6,243.38a5.918,5.918,0,0,1,1.454-1.227,7.782,7.782,0,0,1,5.1-1.238,7.952,7.952,0,0,1,6.294,4.374,7.1,7.1,0,0,1,.716,2.193,7.418,7.418,0,0,1,.057,2.408,7.952,7.952,0,0,1-6.578,6.873,7.465,7.465,0,0,1-2.408,0,7.545,7.545,0,0,1-2.272-.625,7.923,7.923,0,0,1-3.635-11.247,5.976,5.976,0,0,1,1.216-1.5,9.257,9.257,0,0,0-1.068,1.59,7.862,7.862,0,0,0-.841,5.01,7.7,7.7,0,0,0,4.544,5.771,7.638,7.638,0,0,0,10.611-5.976,6.987,6.987,0,0,0,0-2.272,6.816,6.816,0,0,0-.67-2.079,7.737,7.737,0,0,0-2.647-3.022,7.588,7.588,0,0,0-3.306-1.216,7.793,7.793,0,0,0-4.976,1.068A18.3,18.3,0,0,0,119.6,243.38Z" transform="translate(195.952 716.777)" fill="#ececec"/>
    <path id="Trazado_116693" data-name="Trazado 116693" d="M117.36,235.318l-.25-.125-.727-.42-2.84-1.659h.091l-5.021,5.294v-.148l2.454,3.669v.136a18.176,18.176,0,0,0-1.693,4.408v.08h-.08l-4.283,1.079.125-.159c.057,2.272.114,4.737.17,7.293l-.136-.17,4.317.875h.114v.1a17.62,17.62,0,0,0,1.9,4.306l.068.1-.068.1-2.272,3.783v-.25l5.271,5.033h-.25l3.669-2.431.1-.068.114.057a17.88,17.88,0,0,0,4.385,1.7h.125v.136c.329,1.34.7,2.795,1.068,4.272l-.216-.17,7.293-.159-.216.182c.273-1.363.579-2.84.875-4.317v-.136h.125a17.9,17.9,0,0,0,4.294-1.9h0l.114-.068.114.068,3.783,2.272h-.284l5.044-5.271v.284l-2.431-3.681-.068-.114.057-.114a17.3,17.3,0,0,0,1.7-4.374V254.7h.125l4.283-1.068-.159.216c-.057-2.488-.1-4.919-.159-7.293l.17.193-4.317-.886h-.125v-.114a17.257,17.257,0,0,0-1.886-4.306l-.057-.1.057-.1,2.272-3.772v.227l-5.26-5.055h.216l-3.681,2.42-.08.057h-.091a17.929,17.929,0,0,0-4.385-1.727h-.091v-.08c-.375-1.556-.727-2.954-1.045-4.283l.125.1-7.293.125.1-.08-.909,4.317h0a18.279,18.279,0,0,0-3.329,1.3l-.773.409-.261.136.239-.17.761-.443a17.779,17.779,0,0,1,3.329-1.375v.057c.227-1.136.511-2.59.841-4.328V229h.08l7.293-.182H130v.1l1.136,4.283-.114-.114a17.79,17.79,0,0,1,4.476,1.727h-.17L139,232.387l.114-.08.1.091c1.67,1.59,3.408,3.272,5.283,5.033l.1.1-.068.136-2.272,3.783v-.2a17.608,17.608,0,0,1,1.943,4.4l-.148-.136,4.317.875h.159v.159q.068,3.567.159,7.293v.182h-.17l-4.272,1.068.159-.159a17.94,17.94,0,0,1-1.75,4.487v-.227l2.431,3.669.091.148-.114.125-5.044,5.271-.125.136-.159-.091-3.772-2.272h.227a17.889,17.889,0,0,1-4.408,1.931l.159-.17c-.307,1.488-.6,2.965-.875,4.328v.17h-.17l-7.293.159h-.182v-.17c-.375-1.477-.738-2.931-1.068-4.272l.159.159a18.551,18.551,0,0,1-4.487-1.749h.227l-3.681,2.431-.136.091-.125-.114-5.26-5.055-.114-.1.08-.136,2.272-3.783v.2a18.04,18.04,0,0,1-1.92-4.4l.136.125-4.317-.886h-.136V254.8c0-2.556-.091-5-.136-7.293v-.125h.125l4.272-1.057-.1.114a18.017,18.017,0,0,1,1.75-4.465v.136l-2.545-3.726v-.08l.068-.068L113.554,233h0l2.817,1.7.716.443Z" transform="translate(194.274 715.138)" fill="#ececec"/>
    <path id="Trazado_116694" data-name="Trazado 116694" d="M131.578,168.156a26.822,26.822,0,0,1,6.578-2.886l1.329-6.532,11.008-.239,1.613,6.464a26.7,26.7,0,0,1,6.7,2.6l5.544-3.681,7.952,7.623-3.408,5.68a26.868,26.868,0,0,1,2.9,6.578l6.521,1.329.239,11.008-6.464,1.59a26.459,26.459,0,0,1-2.6,6.691l3.681,5.555-7.623,7.952-5.68-3.408a26.821,26.821,0,0,1-6.578,2.886l-1.329,6.532-11.008.239-1.613-6.464a26.461,26.461,0,0,1-6.691-2.6l-5.555,3.669-7.952-7.612,3.408-5.68a27.265,27.265,0,0,1-2.886-6.578l-6.532-1.329-.239-11.008,6.464-1.613a26.7,26.7,0,0,1,2.6-6.7l-3.692-5.521,7.612-7.952,5.68,3.408ZM137.52,182.8a8.354,8.354,0,1,0,0-.023Z" transform="translate(195.358 705.571)" fill="#a7e446"/>
    <path id="Trazado_116695" data-name="Trazado 116695" d="M134.992,180.333a8.907,8.907,0,0,1,2.193-1.943,11.77,11.77,0,0,1,7.7-1.852,11.928,11.928,0,0,1,5.249,1.84,12.11,12.11,0,1,1-16.473,17.166,11.94,11.94,0,0,1-.557-12.94,9.089,9.089,0,0,1,1.852-2.272,27.27,27.27,0,0,0-1.613,2.408,11.792,11.792,0,0,0-1.284,7.566,11.61,11.61,0,0,0,2.056,4.908,11.485,11.485,0,0,0,4.737,3.806,10.552,10.552,0,0,0,3.181.875,10.964,10.964,0,0,0,3.408-.091,11.44,11.44,0,0,0,9.384-9.8,10.588,10.588,0,0,0-.057-3.408,10.861,10.861,0,0,0-1.011-3.147,11.542,11.542,0,0,0-9-6.4,11.747,11.747,0,0,0-7.509,1.6C135.731,179.594,135.049,180.4,134.992,180.333Z" transform="translate(197.886 708.016)" fill="#ececec"/>
    <path id="Trazado_116696" data-name="Trazado 116696" d="M131.615,168.178a2.273,2.273,0,0,1-.364-.193l-1.136-.625-4.26-2.59h.136l-7.577,7.952v-.216l3.692,5.544.068.091v.114a26.869,26.869,0,0,0-2.556,6.646v.136h-.125l-6.464,1.625.182-.239c.091,3.465.182,7.146.273,11.008l-.216-.25L119.8,198.5h.159v.159a26.9,26.9,0,0,0,2.874,6.5l.091.159-.091.148-3.408,5.68v-.375l7.952,7.6h-.386l5.544-3.669.159-.114.17.091a26.514,26.514,0,0,0,6.623,2.567h.182v.193c.5,2.022,1.057,4.226,1.613,6.464l-.329-.25,11.02-.25-.3.443c.42-2.068.875-4.283,1.329-6.532v-.193h.193a26.7,26.7,0,0,0,6.487-2.852h0l.182-.114.17.1,5.68,3.408h-.409l7.611-7.952v.409l-3.669-5.544-.114-.17.1-.182a26.415,26.415,0,0,0,2.567-6.612v-.193H172l6.464-1.6-.239.318q-.114-5.68-.239-11.02l.25.307-6.487-1.341h-.182V183.9a26.742,26.742,0,0,0-2.851-6.5l-.091-.159.091-.148,3.408-5.68.057.352-7.952-7.634h.318l-5.567,3.658-.114.091-.136-.08a26.73,26.73,0,0,0-6.623-2.59h-.136v-.136c-.568-2.34-1.136-4.465-1.59-6.464l.2.159-11.02.193.148-.125c-.545,2.6-1,4.737-1.375,6.51v.068h-.057a27.821,27.821,0,0,0-5.033,1.954l-1.136.625a2.274,2.274,0,0,1-.4.2,2.089,2.089,0,0,1,.375-.25c.25-.159.625-.4,1.136-.682a26.969,26.969,0,0,1,5.01-2.068l-.068.091c.352-1.784.773-3.931,1.284-6.544v-.114h.125l11.008-.3h.159v.159l1.625,6.453-.159-.159a27.093,27.093,0,0,1,6.759,2.6h-.25l5.544-3.692.17-.114.148.148,7.952,7.6.159.159-.114.193-3.408,5.68v-.3a27.468,27.468,0,0,1,2.931,6.635l-.227-.2,6.521,1.318h.25v.25c.08,3.579.17,7.259.25,11.02v.25l-.25.068-6.464,1.613.239-.239A27.038,27.038,0,0,1,169.8,204.6v-.352l3.669,5.555.148.216-.182.2-7.612,7.952-.193.193-.227-.136-5.68-3.408h.341a27.641,27.641,0,0,1-6.657,2.92l.239-.261-1.329,6.532v.261h-.261l-11.02.239h-.261l-.068-.261c-.557-2.272-1.136-4.442-1.6-6.464l.239.239a27.368,27.368,0,0,1-6.816-2.636h.329l-5.555,3.669-.2.136-.182-.17-7.952-7.634-.17-.17.125-.2,3.408-5.68v.329a27.266,27.266,0,0,1-2.908-6.646l.216.193-6.578-1.4h-.216V197.6c-.08-3.863-.148-7.543-.216-11.008v-.239h.182l6.464-1.59-.159.159a27.482,27.482,0,0,1,2.636-6.737v.216c-1.318-2-2.545-3.874-3.647-5.567l-.08-.114.1-.1,7.657-7.952.068-.068h.068l4.2,2.59,1.136.682Z" transform="translate(195.322 705.549)" fill="#ececec"/>
    <path id="Trazado_116697" data-name="Trazado 116697" d="M281.016,131.143a23.779,23.779,0,0,1,5.794-2.522L288,122.94l9.668-.17,1.4,5.68a23.426,23.426,0,0,1,5.873,2.272l4.885-3.215,6.964,6.725-3.022,5a23.937,23.937,0,0,1,2.511,5.794l5.68,1.136.17,9.679-5.68,1.386a23.856,23.856,0,0,1-2.272,5.873l3.2,4.9-6.725,6.964-5-3.033a23.742,23.742,0,0,1-5.794,2.511l-1.136,5.68-9.668.17-1.4-5.68a23.856,23.856,0,0,1-5.873-2.272l-4.885,3.2-6.964-6.725,3.022-5a23.665,23.665,0,0,1-2.511-5.782l-5.68-1.193-.17-9.679,5.68-1.4a24.188,24.188,0,0,1,2.272-5.873l-3.2-4.885,6.725-6.964,5,3.033Zm5.158,12.894a10.383,10.383,0,1,0,14.689-.261,10.383,10.383,0,0,0-14.689.261Z" transform="translate(215.998 700.71)" fill="#feca2e"/>
    <path id="Trazado_116698" data-name="Trazado 116698" d="M283.955,141.894a7.781,7.781,0,0,1,1.943-1.7,10.338,10.338,0,0,1,6.816-1.6,10.588,10.588,0,0,1,4.6,1.636,10.594,10.594,0,0,1,4.726,10.3,10.622,10.622,0,0,1-8.759,9.088,10.747,10.747,0,0,1-6.146-.8,10.5,10.5,0,0,1-6.123-8.111,10.36,10.36,0,0,1,1.363-6.816A7.952,7.952,0,0,1,284,141.905a18.36,18.36,0,0,0-1.42,2.1,10.3,10.3,0,0,0-1.136,6.646,10.114,10.114,0,0,0,20.017-.227,9.951,9.951,0,0,0-.92-5.794,10.191,10.191,0,0,0-14.485-4.272,22.725,22.725,0,0,0-2.1,1.534Z" transform="translate(218.216 702.853)" fill="#e1e1e1"/>
    <path id="Trazado_116699" data-name="Trazado 116699" d="M281.036,131.148l-.318-.17-.966-.557-3.76-2.272h.114c-1.715,1.784-3.965,4.147-6.68,7v-.182l3.226,4.874.057.091v.091a23.417,23.417,0,0,0-2.272,5.828v.114h-.114l-5.68,1.409.17-.2c.057,3.045.125,6.271.182,9.668l-.182-.227,5.68,1.136h.148v.148a23.583,23.583,0,0,0,2.5,5.68l.08.136-.08.136c-.943,1.545-1.977,3.26-3.022,5v-.329l6.964,6.714h-.341l4.885-3.215.148-.091.148.08a23.788,23.788,0,0,0,5.805,2.272h.17v.17c.432,1.784.909,3.726,1.386,5.68l-.284-.216,9.679-.182-.284.239,1.136-5.68V174.1h.17a23.48,23.48,0,0,0,5.68-2.477h0l.159-.091.148.091,5.01,3.033-.375.057,6.725-6.964v.364l-3.124-4.794-.1-.148.091-.148a23.04,23.04,0,0,0,2.272-5.805v-.17h.17l5.68-1.4-.216.284c0-3.306-.1-6.532-.159-9.679l.216.261-5.68-1.136h-.159v-.159a23.471,23.471,0,0,0-2.477-5.68l-.08-.136.079-.125,3.045-5v.307l-6.941-6.737h.273l-4.9,3.192-.1.08-.114-.068a23.652,23.652,0,0,0-5.817-2.272h-.114v-.125c-.5-2.056-.943-3.919-1.375-5.68l.182.136-9.679.125.125-.1c-.488,2.272-.9,4.158-1.227,5.68h-.057a26.207,26.207,0,0,0-4.431,1.7l-1.034.545a3.251,3.251,0,0,1-.352.182,2.137,2.137,0,0,1,.329-.227c.216-.136.557-.341,1.011-.579a23.1,23.1,0,0,1,4.419-1.806l-.068.08c.318-1.568.693-3.408,1.136-5.68v-.1h.1l9.679-.2h.136v.148c.432,1.75.9,3.613,1.409,5.68l-.148-.136a23.494,23.494,0,0,1,5.93,2.272h-.148l4.874-3.215.159-.1.125.125,6.987,6.714.136.136-.1.17-3.022,5v-.261a24.175,24.175,0,0,1,2.556,5.851l-.2-.193,5.68,1.136h.216v.216c.057,3.147.125,6.373.182,9.679v.227h-.216l-5.68,1.4.216-.216a24.208,24.208,0,0,1-2.34,5.953V163l3.2,4.9.136.193-.17.17-6.714,6.964-.17.17-.17-.1-5-3.033h.307a23.788,23.788,0,0,1-5.862,2.533l.216-.216c-.409,1.965-.818,3.908-1.193,5.68v.227h-.239l-9.679.17h-.239v-.227c-.489-1.954-.954-3.9-1.4-5.68l.216.216a24.266,24.266,0,0,1-5.942-2.34h.3l-4.9,3.192-.182.125-.159-.148-6.964-6.737-.148-.148.114-.182,3.033-5V164a23.857,23.857,0,0,1-2.533-5.851l.193.17-5.68-1.2H264.6v-.182c0-3.408-.1-6.635-.148-9.679v-.17h.159l5.68-1.386-.148.148a23.936,23.936,0,0,1,2.352-5.907v.136L269.3,135.17l-.068-.1.091-.08,6.759-6.93h.114c1.6.988,2.829,1.761,3.692,2.272l.943.6a1.66,1.66,0,0,1,.2.216Z" transform="translate(215.978 700.705)" fill="#e1e1e1"/>
    <path id="Trazado_116700" data-name="Trazado 116700" d="M295.621,216.313a23.279,23.279,0,0,1,5.782-2.522l1.136-5.68,9.679-.17,1.386,5.68a23.426,23.426,0,0,1,5.873,2.272l4.9-3.215,6.964,6.725-3.033,5a23.742,23.742,0,0,1,2.511,5.794l5.68,1.193.17,9.679-5.68,1.386a23.858,23.858,0,0,1-2.272,5.873l3.2,4.9-6.725,6.964-5-3.033a23.664,23.664,0,0,1-5.782,2.511l-1.193,5.68-9.679.17-1.4-5.68a24.188,24.188,0,0,1-5.873-2.272l-4.885,3.2-6.964-6.725,3.033-5a23.777,23.777,0,0,1-2.522-5.794l-5.68-1.193-.17-9.668,5.68-1.4a23.6,23.6,0,0,1,2.272-5.873l-3.2-4.885,6.714-6.964,5.01,3.033Zm5.158,12.883a10.383,10.383,0,1,0,14.678-.25,10.383,10.383,0,0,0-14.678.25Z" transform="translate(217.968 712.297)" fill="#feca2e"/>
    <path id="Trazado_116701" data-name="Trazado 116701" d="M298.547,227.053a7.679,7.679,0,0,1,1.931-1.693,10.338,10.338,0,0,1,6.816-1.6,10.554,10.554,0,0,1,8.327,5.828,10.111,10.111,0,0,1,.943,2.92,9.692,9.692,0,0,1,.057,3.192,10.617,10.617,0,0,1-19.222,4.726,10.429,10.429,0,0,1-.443-11.36,8.065,8.065,0,0,1,1.636-2,16.993,16.993,0,0,0-1.431,2.113,10.3,10.3,0,0,0-1.136,6.646,10.168,10.168,0,0,0,5.93,7.68,9.532,9.532,0,0,0,2.795.784,9.655,9.655,0,0,0,3.022-.068,10.065,10.065,0,0,0,8.293-8.589,9.61,9.61,0,0,0,0-3.022,9.873,9.873,0,0,0-.875-2.772,10.134,10.134,0,0,0-3.51-4.022,10.031,10.031,0,0,0-4.374-1.625,10.327,10.327,0,0,0-6.6,1.375A20.2,20.2,0,0,0,298.547,227.053Z" transform="translate(220.2 714.44)" fill="#e1e1e1"/>
    <path id="Trazado_116702" data-name="Trazado 116702" d="M295.659,216.343l-.329-.17-.954-.557-3.772-2.272h.114l-6.68,7.009v-.193l3.226,4.885.057.08-.057.1a23.859,23.859,0,0,0-2.272,5.828v.114h-.114l-5.68,1.409.159-.216q.079,4.544.193,9.679l-.193-.227,5.68,1.136h.148v.148a23.583,23.583,0,0,0,2.5,5.68l.08.136-.08.136-3.022,5v-.329l6.975,6.714h-.352l4.9-3.2.136-.091.159.079a23.243,23.243,0,0,0,5.794,2.272h.17v.17c.432,1.784.909,3.715,1.4,5.68l-.3-.227,9.679-.17-.284.239,1.193-5.68v-.182h.182a24.049,24.049,0,0,0,5.68-2.477h0l.148-.091.159.091,5,3.033h-.375l6.725-6.953v.364l-3.2-4.9-.091-.148.08-.159a23.424,23.424,0,0,0,2.272-5.794v-.17h.17l5.68-1.4-.216.284q-.068-4.953-.159-9.679l.216.261-5.68-1.193h-.148v-.159a23.856,23.856,0,0,0-2.477-5.68L328,224.42l.091-.136,3.033-4.987v.307l-6.953-6.737h.284l-4.9,3.192-.114.068-.114-.057a23.313,23.313,0,0,0-5.817-2.272H313.4v-.114c-.5-2.068-.954-3.931-1.375-5.68l.17.125-9.679.136.125-.114c-.488,2.272-.886,4.158-1.227,5.68h-.057a24.7,24.7,0,0,0-4.419,1.7l-1.045.545-.341.182a1.659,1.659,0,0,1,.318-.227c.216-.136.557-.341,1.022-.591a22.905,22.905,0,0,1,4.419-1.795l-.068.068c.307-1.556.693-3.408,1.136-5.68v-.114h.114l9.668-.2h.148v.136c.432,1.761.9,3.613,1.409,5.68l-.136-.148a23.858,23.858,0,0,1,5.919,2.272h-.216l4.885-3.215.148-.1.136.125,6.975,6.7.136.136-.1.17c-.977,1.625-1.977,3.295-3.022,5.01v-.261A24.29,24.29,0,0,1,331,230.066l-.2-.182,5.68,1.136h.216v.216q.079,4.726.17,9.679v.227l-.227.057-5.68,1.4.216-.216a23.774,23.774,0,0,1-2.34,5.953v-.307l3.215,4.885.125.2-.159.17-6.725,6.964-.159.17-.2-.125-5-3.033h.3a23.764,23.764,0,0,1-5.851,2.545l.2-.227c-.409,1.965-.818,3.919-1.193,5.68v.227h-.239l-9.679.17h-.227l-.057-.227c-.477-1.954-.954-3.9-1.386-5.68l.2.216a24.473,24.473,0,0,1-5.942-2.352h.3l-4.9,3.2-.182.125-.159-.159c-2.42-2.329-4.771-4.612-6.953-6.725l-.159-.148.114-.182,3.033-5V249a24.368,24.368,0,0,1-2.522-5.862l.182.182-5.68-1.2h-.182q-.085-5.112-.148-9.679v-.17h.17l5.68-1.375-.136.148a23.925,23.925,0,0,1,2.465-5.964v.182l-3.192-4.908-.057-.1.08-.091,6.759-6.919.057-.057h.068l3.681,2.272.943.6a2.143,2.143,0,0,1,.341.284Z" transform="translate(217.93 712.268)" fill="#e1e1e1"/>
    <path id="Trazado_116703" data-name="Trazado 116703" d="M94.318,207.833a11.418,11.418,0,0,1,2.363-1.761l-.068-2.726L101,202.21l1.238,2.442a11.122,11.122,0,0,1,2.92.42l1.886-1.977,3.885,2.272-.841,2.59a11.419,11.419,0,0,1,1.761,2.363l2.727-.068,1.136,4.385-2.443,1.25a11.042,11.042,0,0,1-.42,2.908l1.977,1.886-2.272,3.885-2.59-.841a11.19,11.19,0,0,1-2.374,1.761l.068,2.727-4.385,1.136-1.306-2.386a11.214,11.214,0,0,1-2.92-.432l-1.874,1.988-3.885-2.272.841-2.6a11.418,11.418,0,0,1-1.761-2.363l-2.738.068-1.136-4.385,2.431-1.238a11.144,11.144,0,0,1,.42-2.965l-1.988-1.886,2.272-3.885,2.6.841Zm3.726,5.317a4.851,4.851,0,1,0,6.646-1.681A4.851,4.851,0,0,0,98.044,213.15Z" transform="translate(192.039 711.518)" fill="#a7e446"/>
    <path id="Trazado_116704" data-name="Trazado 116704" d="M96.991,212.134a3.657,3.657,0,0,1,.693-.977,4.93,4.93,0,0,1,8.066,1.545,4.646,4.646,0,0,1,.364,1.443,4.953,4.953,0,0,1-3.011,5.067,4.544,4.544,0,0,1-1.454.364,4.294,4.294,0,0,1-1.431-.068,5.1,5.1,0,0,1-2.352-1.136,4.93,4.93,0,0,1-1.409-5.135,3.625,3.625,0,0,1,.534-1.079,10.229,10.229,0,0,0-.432,1.136,4.828,4.828,0,0,0,.193,3.147,4.738,4.738,0,0,0,6.237,2.567,4.7,4.7,0,0,0,2.851-4.794,4.215,4.215,0,0,0-.341-1.363,4.306,4.306,0,0,0-.693-1.136,4.635,4.635,0,0,0-2.022-1.454,4.7,4.7,0,0,0-2.158-.273,4.794,4.794,0,0,0-2.863,1.329,10.891,10.891,0,0,0-.772.818Z" transform="translate(193.092 712.534)" fill="#ececec"/>
    <path id="Trazado_116705" data-name="Trazado 116705" d="M94.307,207.823h-.159l-.545-.182-1.954-.6h.057l-2.272,3.9v-.091l1.988,1.874h0v.057a11.145,11.145,0,0,0-.42,2.9h0l-2.431,1.238v-.1c.352,1.375.727,2.84,1.136,4.374l-.114-.08,2.738-.068h.136v.068a10.963,10.963,0,0,0,1.738,2.442h0v.068l-.841,2.6v-.148l3.9,2.272h-.17l1.886-1.988h.08a11.031,11.031,0,0,0,2.874.42h.091v.068l1.238,2.443-.148-.08,4.385-1.136-.114.136c0-.863,0-1.795-.068-2.738v-.08h.08a10.714,10.714,0,0,0,2.272-1.738h0l.057-.057h.08l2.6.852h-.159l2.272-3.885v.17L112.722,219l-.068-.057v-.08a10.884,10.884,0,0,0,.432-2.886v-.08h.068l2.443-1.238-.068.148c-.386-1.488-.75-2.954-1.136-4.385l.136.1-2.738.057h-.011v-.068a10.531,10.531,0,0,0-1.738-2.34h0v-.068l.841-2.6v.136L107,203.369h.136l-1.886,1.977h0a11.088,11.088,0,0,0-2.9-.42h0v-.057c-.443-.886-.852-1.681-1.227-2.443h.091l-4.385,1.136h0v2.727h0A11.928,11.928,0,0,0,95,207.527l-.42.364-.136.114.125-.125.4-.386a11.278,11.278,0,0,1,1.818-1.284h0c0-.738,0-1.636-.08-2.727v-.057h0l4.385-1.136h.057l1.25,2.431h-.08a10.578,10.578,0,0,1,2.942.42h-.1l1.874-1.988V203.1h.08L111,205.369h.08v.091c-.273.841-.557,1.7-.841,2.6v-.125a10.986,10.986,0,0,1,1.784,2.386l-.114-.057,2.738-.08h.1v.1c.364,1.42.738,2.886,1.136,4.385v.1h-.1l-2.431,1.238.068-.114a11.451,11.451,0,0,1-.42,2.954v-.136c.659.613,1.318,1.25,1.988,1.886l.08.068v.091l-2.272,3.9v.091h-.1l-2.6-.852h.136a11.429,11.429,0,0,1-2.4,1.784l.08-.125c0,.932,0,1.863.068,2.727v.114h-.114l-4.385,1.136h-.1v-.091L102.134,227l.114.068a11.168,11.168,0,0,1-2.954-.432h.136l-1.886,1.977-.068.08h-.091L93.5,226.42h-.08v-.091l.852-2.59v.114a11.064,11.064,0,0,1-1.784-2.386l.1.057-2.727.057h-.091v-.08l-1.136-4.385v-.08h.068l2.2-1.443v.08a11.36,11.36,0,0,1,.443-2.931v.08l-1.977-1.9h0l2.34-3.874h0l1.886.591.489.182Z" transform="translate(192.05 711.528)" fill="#ececec"/>
    <path id="Trazado_116706" data-name="Trazado 116706" d="M456.672,465.378H343.59l10.3-104.2h92.168Z" transform="translate(226.745 733.146)" fill="#feca2e"/>
    <circle id="Elipse_4805" data-name="Elipse 4805" cx="2.602" cy="2.602" r="2.602" transform="translate(597.532 1102.289)" fill="#e1e1e1"/>
    <circle id="Elipse_4806" data-name="Elipse 4806" cx="2.602" cy="2.602" r="2.602" transform="translate(649.21 1102.289)" fill="#cba124"/>
    <path id="Trazado_116707" data-name="Trazado 116707" d="M369.844,376.936h-1.1V350.261a27.751,27.751,0,0,1,2.079-10.6,27.2,27.2,0,0,1,5.669-8.655,26.334,26.334,0,0,1,8.408-5.836,25.839,25.839,0,0,1,20.593,0,26.334,26.334,0,0,1,8.408,5.836,27.2,27.2,0,0,1,5.669,8.655,27.751,27.751,0,0,1,2.079,10.6v26.663h-1.1V350.261c0-14.389-11.372-26.1-25.349-26.1s-25.349,11.706-25.349,26.1Z" transform="translate(231.302 727.955)" fill="#12263f"/>
    <path id="Trazado_116708" data-name="Trazado 116708" d="M198.872,469.645H47.13L60.956,329.82h123.67Z" transform="translate(186.412 728.879)" fill="#a7e446"/>
    <path id="Trazado_116709" data-name="Trazado 116709" d="M86.248,342.728a3.488,3.488,0,1,1-1.026-2.47,3.5,3.5,0,0,1,1.026,2.47Z" transform="translate(189.646 730.16)" fill="#5e9540"/>
    <path id="Trazado_116710" data-name="Trazado 116710" d="M147.278,342.728a3.488,3.488,0,1,1-1.026-2.47,3.5,3.5,0,0,1,1.026,2.47Z" transform="translate(199.085 730.16)" fill="#e1e1e1"/>
    <path id="Trazado_116711" data-name="Trazado 116711" d="M82.186,350.946H81.05V315.172a36.319,36.319,0,1,1,72.639,0v35.774h-1.136V315.172a35.183,35.183,0,1,0-70.367,0Z" transform="translate(191.027 721.941)" fill="#12263f"/>
    <path id="Trazado_116712" data-name="Trazado 116712" d="M89.907,462.821H0L8.191,379.98H81.466Z" transform="translate(180 735.703)" fill="#feca2e"/>
    <ellipse id="Elipse_4807" data-name="Elipse 4807" cx="2.068" cy="2.067" rx="2.068" ry="2.067" transform="translate(200.785 1122.021)" fill="#cba124"/>
    <ellipse id="Elipse_4808" data-name="Elipse 4808" cx="2.068" cy="2.067" rx="2.068" ry="2.067" transform="translate(243.555 1122.021)" fill="#cba124"/>
    <path id="Trazado_116713" data-name="Trazado 116713" d="M63.677,392.525H62.535v-21.2a20.424,20.424,0,0,0-6.074-14.591A20.664,20.664,0,0,0,41.8,350.7h-.012a20.715,20.715,0,0,0-20.751,20.631v21.2H19.89v-21.2A21.638,21.638,0,0,1,26.3,355.935a21.891,21.891,0,0,1,15.481-6.375H41.8a21.947,21.947,0,0,1,15.472,6.372,21.692,21.692,0,0,1,6.409,15.4Z" transform="translate(182.452 731.564)" fill="#12263f"/>
    <path id="Trazado_116714" data-name="Trazado 116714" d="M68.557,418.313S61.74,404.5,60.7,403.442a9.95,9.95,0,0,0-2.488-1.522,13.855,13.855,0,0,0-1.568-.682h-.114A65.861,65.861,0,0,0,48.971,399s-1.136,4.01-6.816,4.294C36.577,403.01,35.4,399,35.4,399s-4.612,1.136-7.555,2.215h-.1a14.139,14.139,0,0,0-1.579.682,10.156,10.156,0,0,0-2.488,1.522c-1.045,1.057-7.861,14.871-7.861,14.871l9.963,4.987,3.033-6.9-.693,24.993h28.3l-.852-24.993,3.033,6.9Z" transform="translate(182.151 738.291)" fill="#cba124"/>
    <rect id="Rectángulo_34827" data-name="Rectángulo 34827" width="31.822" height="99.382" transform="translate(180 599.226)" fill="#a7e446"/>
    <rect id="Rectángulo_34828" data-name="Rectángulo 34828" width="31.822" height="76.683" transform="translate(227.502 621.924)" fill="#a7e446"/>
    <rect id="Rectángulo_34829" data-name="Rectángulo 34829" width="31.822" height="45.545" transform="translate(271.496 653.081)" fill="#a7e446"/>
    <g id="Grupo_115778" data-name="Grupo 115778" transform="translate(-24.73 -108.705)">
      <path id="Trazado_116715" data-name="Trazado 116715" d="M348.371,44.849A29.878,29.878,0,1,1,313.1,21.685a29.878,29.878,0,0,1,35.274,23.164Z" transform="translate(219.351 686.872)" fill="#feca2e"/>
      <path id="Trazado_116716" data-name="Trazado 116716" d="M340.546,45.461a22.721,22.721,0,1,1-9.779-14.4,22.721,22.721,0,0,1,9.779,14.4Z" transform="translate(220.211 687.726)" fill="#feca2e"/>
      <path id="Trazado_116717" data-name="Trazado 116717" d="M340.432,44.863A13.538,13.538,0,0,1,339.3,42.3a24.459,24.459,0,0,0-3.976-6.305,23.932,23.932,0,0,0-3.783-3.408,22.674,22.674,0,0,0-11.429-4.192,22.914,22.914,0,0,0-3.408,0,21.585,21.585,0,0,0-6.816,1.625,21.8,21.8,0,0,0-3.045,1.534,21.141,21.141,0,0,0-2.681,1.92,19.931,19.931,0,0,0-2.272,2.193,22.573,22.573,0,0,0-3.34,4.794,23.358,23.358,0,0,0-2.511,12.213,13.3,13.3,0,0,1,.136,2.795,6.816,6.816,0,0,1-.818-2.727,21.062,21.062,0,0,1,.17-7.771A23.153,23.153,0,0,1,303.09,32.2a22.311,22.311,0,0,1,2.863-2.09,22.8,22.8,0,0,1,3.272-1.693,25.681,25.681,0,0,1,3.6-1.136,25.356,25.356,0,0,1,3.749-.568,22.1,22.1,0,0,1,3.681,0,21.836,21.836,0,0,1,3.5.579,20.743,20.743,0,0,1,3.238,1.045A22.721,22.721,0,0,1,332.48,31.4a23.175,23.175,0,0,1,3.863,3.806,20.847,20.847,0,0,1,3.669,6.816,6.735,6.735,0,0,1,.42,2.84Z" transform="translate(220.144 687.631)" fill="#cba124"/>
      <path id="Trazado_116718" data-name="Trazado 116718" d="M322.032,62.007l.852,3.874-3.408.761-.841-3.76a16.779,16.779,0,0,1-9.213-.863l.966-4.646a14.314,14.314,0,0,0,7.248.977l-1.272-5.771c-4.044-.091-8.611-.42-9.7-5.362-.818-3.658,1.136-7.4,6.475-9.225l-.852-3.84,3.408-.761.841,3.76a16.132,16.132,0,0,1,7.487.557l-.8,4.635a14.53,14.53,0,0,0-5.68-.625l1.3,5.873c4.033,0,8.532.4,9.611,5.271C329.246,56.463,327.315,60.212,322.032,62.007ZM315.216,47.5l-1.136-4.919c-1.738.829-2.272,1.988-1.988,3.124s1.477,1.647,3.1,1.795Zm7.759,7.032c-.273-1.2-1.42-1.647-3.022-1.829l1.057,4.771C322.668,56.679,323.225,55.668,322.975,54.532Z" transform="translate(221.696 688.55)" fill="#cba124"/>
    </g>
    <g id="Grupo_115779" data-name="Grupo 115779" transform="translate(-178.357 -84.067)">
      <path id="Trazado_116715-2" data-name="Trazado 116715" d="M348.371,44.849A29.878,29.878,0,1,1,313.1,21.685a29.878,29.878,0,0,1,35.274,23.164Z" transform="translate(219.351 686.872)" fill="#feca2e"/>
      <path id="Trazado_116716-2" data-name="Trazado 116716" d="M340.546,45.461a22.721,22.721,0,1,1-9.779-14.4,22.721,22.721,0,0,1,9.779,14.4Z" transform="translate(220.211 687.726)" fill="#feca2e"/>
      <path id="Trazado_116717-2" data-name="Trazado 116717" d="M340.432,44.863A13.538,13.538,0,0,1,339.3,42.3a24.459,24.459,0,0,0-3.976-6.305,23.932,23.932,0,0,0-3.783-3.408,22.674,22.674,0,0,0-11.429-4.192,22.914,22.914,0,0,0-3.408,0,21.585,21.585,0,0,0-6.816,1.625,21.8,21.8,0,0,0-3.045,1.534,21.141,21.141,0,0,0-2.681,1.92,19.931,19.931,0,0,0-2.272,2.193,22.573,22.573,0,0,0-3.34,4.794,23.358,23.358,0,0,0-2.511,12.213,13.3,13.3,0,0,1,.136,2.795,6.816,6.816,0,0,1-.818-2.727,21.062,21.062,0,0,1,.17-7.771A23.153,23.153,0,0,1,303.09,32.2a22.311,22.311,0,0,1,2.863-2.09,22.8,22.8,0,0,1,3.272-1.693,25.681,25.681,0,0,1,3.6-1.136,25.356,25.356,0,0,1,3.749-.568,22.1,22.1,0,0,1,3.681,0,21.836,21.836,0,0,1,3.5.579,20.743,20.743,0,0,1,3.238,1.045A22.721,22.721,0,0,1,332.48,31.4a23.175,23.175,0,0,1,3.863,3.806,20.847,20.847,0,0,1,3.669,6.816,6.735,6.735,0,0,1,.42,2.84Z" transform="translate(220.144 687.631)" fill="#cba124"/>
      <path id="Trazado_116718-2" data-name="Trazado 116718" d="M322.032,62.007l.852,3.874-3.408.761-.841-3.76a16.779,16.779,0,0,1-9.213-.863l.966-4.646a14.314,14.314,0,0,0,7.248.977l-1.272-5.771c-4.044-.091-8.611-.42-9.7-5.362-.818-3.658,1.136-7.4,6.475-9.225l-.852-3.84,3.408-.761.841,3.76a16.132,16.132,0,0,1,7.487.557l-.8,4.635a14.53,14.53,0,0,0-5.68-.625l1.3,5.873c4.033,0,8.532.4,9.611,5.271C329.246,56.463,327.315,60.212,322.032,62.007ZM315.216,47.5l-1.136-4.919c-1.738.829-2.272,1.988-1.988,3.124s1.477,1.647,3.1,1.795Zm7.759,7.032c-.273-1.2-1.42-1.647-3.022-1.829l1.057,4.771C322.668,56.679,323.225,55.668,322.975,54.532Z" transform="translate(221.696 688.55)" fill="#cba124"/>
    </g>
    <g id="Grupo_115781" data-name="Grupo 115781" transform="translate(-223.589 -17.5)">
      <path id="Trazado_116715-3" data-name="Trazado 116715" d="M325.486,35.642a18.314,18.314,0,1,1-21.622-14.2,18.314,18.314,0,0,1,21.622,14.2Z" transform="translate(219.351 686.872)" fill="#feca2e"/>
      <path id="Trazado_116716-3" data-name="Trazado 116716" d="M323.139,38.444a13.927,13.927,0,1,1-5.994-8.827,13.927,13.927,0,0,1,5.994,8.827Z" transform="translate(217.428 684.968)" fill="#feca2e"/>
      <path id="Trazado_116717-3" data-name="Trazado 116717" d="M322.877,37.807a8.3,8.3,0,0,1-.7-1.574,14.993,14.993,0,0,0-2.437-3.865,14.669,14.669,0,0,0-2.319-2.089,13.9,13.9,0,0,0-7.005-2.57,14.046,14.046,0,0,0-2.089,0,13.231,13.231,0,0,0-4.178,1,13.364,13.364,0,0,0-1.866.94,12.962,12.962,0,0,0-1.643,1.177,12.218,12.218,0,0,0-1.393,1.344,13.836,13.836,0,0,0-2.047,2.939,14.318,14.318,0,0,0-1.539,7.486,8.155,8.155,0,0,1,.084,1.713,4.178,4.178,0,0,1-.5-1.671,12.912,12.912,0,0,1,.1-4.763,14.192,14.192,0,0,1,4.638-7.827,13.674,13.674,0,0,1,1.755-1.281,13.977,13.977,0,0,1,2.006-1.038,15.744,15.744,0,0,1,2.207-.7,15.542,15.542,0,0,1,2.3-.348,13.545,13.545,0,0,1,2.256,0,13.385,13.385,0,0,1,2.145.355,12.715,12.715,0,0,1,1.985.641A13.927,13.927,0,0,1,318,29.555a14.205,14.205,0,0,1,2.368,2.333,12.779,12.779,0,0,1,2.249,4.178A4.129,4.129,0,0,1,322.877,37.807Z" transform="translate(217.579 685.18)" fill="#cba124"/>
      <path id="Trazado_116718-3" data-name="Trazado 116718" d="M316.014,50.932l.522,2.375-2.089.467-.515-2.3a10.285,10.285,0,0,1-5.648-.529l.592-2.848a8.774,8.774,0,0,0,4.443.6l-.78-3.538c-2.479-.056-5.278-.258-5.947-3.287-.5-2.242.7-4.533,3.969-5.655l-.522-2.354,2.089-.467.515,2.3a9.889,9.889,0,0,1,4.589.341l-.488,2.841a8.907,8.907,0,0,0-3.482-.383l.794,3.6c2.472,0,5.23.244,5.891,3.231C320.436,47.533,319.252,49.831,316.014,50.932Zm-4.178-8.893-.7-3.015c-1.065.508-1.393,1.219-1.219,1.915s.905,1.01,1.9,1.1Zm4.756,4.311c-.167-.738-.87-1.01-1.852-1.121l.648,2.925C316.4,47.666,316.745,47.046,316.592,46.349Z" transform="translate(214.115 683.128)" fill="#cba124"/>
    </g>
    <g id="Grupo_115782" data-name="Grupo 115782" transform="matrix(0.809, 0.588, -0.588, 0.809, 447.525, -231.531)">
      <path id="Trazado_116715-4" data-name="Trazado 116715" d="M325.486,35.642a18.314,18.314,0,1,1-21.622-14.2,18.314,18.314,0,0,1,21.622,14.2Z" transform="translate(219.351 686.872)" fill="#feca2e"/>
      <path id="Trazado_116716-4" data-name="Trazado 116716" d="M323.139,38.444a13.927,13.927,0,1,1-5.994-8.827,13.927,13.927,0,0,1,5.994,8.827Z" transform="translate(217.428 684.968)" fill="#feca2e"/>
      <path id="Trazado_116717-4" data-name="Trazado 116717" d="M322.877,37.807a8.3,8.3,0,0,1-.7-1.574,14.993,14.993,0,0,0-2.437-3.865,14.669,14.669,0,0,0-2.319-2.089,13.9,13.9,0,0,0-7.005-2.57,14.046,14.046,0,0,0-2.089,0,13.231,13.231,0,0,0-4.178,1,13.364,13.364,0,0,0-1.866.94,12.962,12.962,0,0,0-1.643,1.177,12.218,12.218,0,0,0-1.393,1.344,13.836,13.836,0,0,0-2.047,2.939,14.318,14.318,0,0,0-1.539,7.486,8.155,8.155,0,0,1,.084,1.713,4.178,4.178,0,0,1-.5-1.671,12.912,12.912,0,0,1,.1-4.763,14.192,14.192,0,0,1,4.638-7.827,13.674,13.674,0,0,1,1.755-1.281,13.977,13.977,0,0,1,2.006-1.038,15.744,15.744,0,0,1,2.207-.7,15.542,15.542,0,0,1,2.3-.348,13.545,13.545,0,0,1,2.256,0,13.385,13.385,0,0,1,2.145.355,12.715,12.715,0,0,1,1.985.641A13.927,13.927,0,0,1,318,29.555a14.205,14.205,0,0,1,2.368,2.333,12.779,12.779,0,0,1,2.249,4.178A4.129,4.129,0,0,1,322.877,37.807Z" transform="translate(217.579 685.18)" fill="#cba124"/>
      <path id="Trazado_116718-4" data-name="Trazado 116718" d="M316.014,50.932l.522,2.375-2.089.467-.515-2.3a10.285,10.285,0,0,1-5.648-.529l.592-2.848a8.774,8.774,0,0,0,4.443.6l-.78-3.538c-2.479-.056-5.278-.258-5.947-3.287-.5-2.242.7-4.533,3.969-5.655l-.522-2.354,2.089-.467.515,2.3a9.889,9.889,0,0,1,4.589.341l-.488,2.841a8.907,8.907,0,0,0-3.482-.383l.794,3.6c2.472,0,5.23.244,5.891,3.231C320.436,47.533,319.252,49.831,316.014,50.932Zm-4.178-8.893-.7-3.015c-1.065.508-1.393,1.219-1.219,1.915s.905,1.01,1.9,1.1Zm4.756,4.311c-.167-.738-.87-1.01-1.852-1.121l.648,2.925C316.4,47.666,316.745,47.046,316.592,46.349Z" transform="translate(214.115 683.128)" fill="#cba124"/>
    </g>
    <g id="Grupo_115780" data-name="Grupo 115780" transform="matrix(0.921, 0.391, -0.391, 0.921, 18.435, -145.771)">
      <path id="Trazado_116715-5" data-name="Trazado 116715" d="M348.371,44.849A29.878,29.878,0,1,1,313.1,21.685a29.878,29.878,0,0,1,35.274,23.164Z" transform="translate(219.351 686.872)" fill="#feca2e"/>
      <path id="Trazado_116716-5" data-name="Trazado 116716" d="M340.546,45.461a22.721,22.721,0,1,1-9.779-14.4,22.721,22.721,0,0,1,9.779,14.4Z" transform="translate(220.211 687.726)" fill="#feca2e"/>
      <path id="Trazado_116717-5" data-name="Trazado 116717" d="M340.432,44.863A13.538,13.538,0,0,1,339.3,42.3a24.459,24.459,0,0,0-3.976-6.305,23.932,23.932,0,0,0-3.783-3.408,22.674,22.674,0,0,0-11.429-4.192,22.914,22.914,0,0,0-3.408,0,21.585,21.585,0,0,0-6.816,1.625,21.8,21.8,0,0,0-3.045,1.534,21.141,21.141,0,0,0-2.681,1.92,19.931,19.931,0,0,0-2.272,2.193,22.573,22.573,0,0,0-3.34,4.794,23.358,23.358,0,0,0-2.511,12.213,13.3,13.3,0,0,1,.136,2.795,6.816,6.816,0,0,1-.818-2.727,21.062,21.062,0,0,1,.17-7.771A23.153,23.153,0,0,1,303.09,32.2a22.311,22.311,0,0,1,2.863-2.09,22.8,22.8,0,0,1,3.272-1.693,25.681,25.681,0,0,1,3.6-1.136,25.356,25.356,0,0,1,3.749-.568,22.1,22.1,0,0,1,3.681,0,21.836,21.836,0,0,1,3.5.579,20.743,20.743,0,0,1,3.238,1.045A22.721,22.721,0,0,1,332.48,31.4a23.175,23.175,0,0,1,3.863,3.806,20.847,20.847,0,0,1,3.669,6.816,6.735,6.735,0,0,1,.42,2.84Z" transform="translate(220.144 687.631)" fill="#cba124"/>
      <path id="Trazado_116718-5" data-name="Trazado 116718" d="M322.032,62.007l.852,3.874-3.408.761-.841-3.76a16.779,16.779,0,0,1-9.213-.863l.966-4.646a14.314,14.314,0,0,0,7.248.977l-1.272-5.771c-4.044-.091-8.611-.42-9.7-5.362-.818-3.658,1.136-7.4,6.475-9.225l-.852-3.84,3.408-.761.841,3.76a16.132,16.132,0,0,1,7.487.557l-.8,4.635a14.53,14.53,0,0,0-5.68-.625l1.3,5.873c4.033,0,8.532.4,9.611,5.271C329.246,56.463,327.315,60.212,322.032,62.007ZM315.216,47.5l-1.136-4.919c-1.738.829-2.272,1.988-1.988,3.124s1.477,1.647,3.1,1.795Zm7.759,7.032c-.273-1.2-1.42-1.647-3.022-1.829l1.057,4.771C322.668,56.679,323.225,55.668,322.975,54.532Z" transform="translate(221.696 688.55)" fill="#cba124"/>
    </g>
    <path id="Trazado_116719" data-name="Trazado 116719" d="M449.082,275.863a29.878,29.878,0,1,1-13.371-40.023A29.878,29.878,0,0,1,449.082,275.863Z" transform="translate(233.392 715.662)" fill="#feca2e"/>
    <path id="Trazado_116720" data-name="Trazado 116720" d="M441.856,271.826a22.721,22.721,0,1,1,1.211-17.366,22.721,22.721,0,0,1-1.211,17.366Z" transform="translate(234.256 716.518)" fill="#feca2e"/>
    <path id="Trazado_116721" data-name="Trazado 116721" d="M441.945,271.3a12.937,12.937,0,0,1,.682-2.715,24.128,24.128,0,0,0,.784-7.418,22.97,22.97,0,0,0-.852-5.044,22.415,22.415,0,0,0-2.272-5.373,21.667,21.667,0,0,0-1.806-2.59,20.443,20.443,0,0,0-2.272-2.408,21.334,21.334,0,0,0-2.67-2.1,23.7,23.7,0,0,0-3.067-1.727,23.961,23.961,0,0,0-3.294-1.216,22.346,22.346,0,0,0-9.781-.523,22.482,22.482,0,0,0-5.589,1.7,23.211,23.211,0,0,0-4.4,2.636,24.142,24.142,0,0,0-5.135,5.4c-1.022,1.466-1.5,2.34-1.625,2.272a6.623,6.623,0,0,1,1.045-2.647,21.118,21.118,0,0,1,4.942-6,23.028,23.028,0,0,1,10.463-4.953,21.738,21.738,0,0,1,3.408-.386,22.854,22.854,0,0,1,10.724,2.124,26.057,26.057,0,0,1,3.306,1.863,23.791,23.791,0,0,1,2.874,2.272,22.542,22.542,0,0,1,2.4,2.624,22.27,22.27,0,0,1,1.886,2.829,22.834,22.834,0,0,1,3.011,11.179,20.849,20.849,0,0,1-1.363,7.657A6.714,6.714,0,0,1,441.945,271.3Z" transform="translate(234.508 716.411)" fill="#cba124"/>
    <path id="Trazado_116722" data-name="Trazado 116722" d="M416.65,273.967l-1.727,3.579L411.743,276l1.67-3.476a16.814,16.814,0,0,1-6.7-6.373l3.635-3.045a14.359,14.359,0,0,0,5.09,5.249L418,263.027c-3.124-2.567-6.51-5.68-4.306-10.224,1.636-3.408,5.487-5.1,10.8-3.238l1.7-3.544,3.192,1.545-1.681,3.476a15.973,15.973,0,0,1,5.533,5.067l-3.488,3.158a14.667,14.667,0,0,0-4.078-4.01l-2.613,5.419c3.135,2.533,6.464,5.6,4.294,10.088C425.762,274.08,421.944,275.785,416.65,273.967Zm3.613-15.632,2.193-4.544c-1.874-.432-3,.17-3.5,1.216s.125,2.215,1.307,3.329Zm1.772,10.338c.545-1.136-.091-2.17-1.227-3.306l-2.124,4.4c1.761.42,2.863-.068,3.351-1.045Z" transform="translate(235.332 717.478)" fill="#cba124"/>
    <path id="Trazado_116727" data-name="Trazado 116727" d="M455.71,315.791a18.268,18.268,0,1,1-21.585-14.155A18.268,18.268,0,0,1,455.71,315.791Z" transform="translate(237.08 724.992)" fill="#feca2e"/>
    <path id="Trazado_116728" data-name="Trazado 116728" d="M450.929,316.157A13.917,13.917,0,1,1,434.5,305.365,13.917,13.917,0,0,1,450.929,316.157Z" transform="translate(237.601 725.512)" fill="#feca2e"/>
    <path id="Trazado_116729" data-name="Trazado 116729" d="M450.871,315.79a8.374,8.374,0,0,1-.693-1.568,14.665,14.665,0,0,0-2.442-3.851,13.927,13.927,0,0,0-2.272-2.1,13.631,13.631,0,0,0-3.147-1.7,12.071,12.071,0,0,0-1.852-.557,12.7,12.7,0,0,0-1.988-.307,14.274,14.274,0,0,0-2.09,0,15.545,15.545,0,0,0-2.124.329,15.384,15.384,0,0,0-2.045.67,13.635,13.635,0,0,0-1.863.943,14.133,14.133,0,0,0-3.033,2.5,13.814,13.814,0,0,0-2.034,2.942,14.394,14.394,0,0,0-1.136,2.92,15.02,15.02,0,0,0-.432,4.544,8.362,8.362,0,0,1,.091,1.7,4.011,4.011,0,0,1-.5-1.659,13.008,13.008,0,0,1,.1-4.749,13.859,13.859,0,0,1,1.057-3.147,14.247,14.247,0,0,1,2.1-3.2,13.713,13.713,0,0,1,1.466-1.466,15.391,15.391,0,0,1,1.75-1.284,15.036,15.036,0,0,1,2-1.022,13.962,13.962,0,0,1,4.544-1.079,13.491,13.491,0,0,1,2.272,0,13.236,13.236,0,0,1,2.147.352,13.964,13.964,0,0,1,7.657,4.874,13.008,13.008,0,0,1,2.272,4.181A3.872,3.872,0,0,1,450.871,315.79Z" transform="translate(237.567 725.447)" fill="#cba124"/>
    <path id="Trazado_116730" data-name="Trazado 116730" d="M439.6,326.278l.534,2.363-2.124.466-.5-2.272a10.293,10.293,0,0,1-5.68-.523l.6-2.84a8.725,8.725,0,0,0,4.431.6l-.784-3.533c-2.477-.057-5.271-.261-5.93-3.283-.5-2.272.7-4.544,3.953-5.68l-.511-2.352,2.113-.466.511,2.272a9.622,9.622,0,0,1,4.544.341l-.477,2.829a8.952,8.952,0,0,0-3.476-.386l.8,3.6c2.465,0,5.214.239,5.873,3.215C444.024,322.881,442.843,325.142,439.6,326.278Zm-4.169-8.884-.67-3c-1.068.5-1.375,1.216-1.216,1.909s.886,1,1.886,1.091Zm4.76,4.294c-.17-.738-.863-1.011-1.852-1.136l.648,2.92c1.011-.454,1.352-1.1,1.227-1.784Z" transform="translate(238.507 726.014)" fill="#cba124"/>
    <circle id="Elipse_4809" data-name="Elipse 4809" cx="37.171" cy="37.171" r="37.171" transform="matrix(0.159, -0.987, 0.987, 0.159, 256.475, 827.607)" fill="#feca2e"/>
    <path id="Trazado_116732" data-name="Trazado 116732" d="M121.455,96.687a6.4,6.4,0,0,0-.25-1.022,10.1,10.1,0,0,0-6.351-6.441,7.452,7.452,0,0,0-5.794.8,7.339,7.339,0,0,0-2.5,2.465,7.646,7.646,0,0,0-2.045-2.5,7.464,7.464,0,0,0-5.68-1.454,10.065,10.065,0,0,0-7.055,5.68,6.18,6.18,0,0,0-.364,1,11.622,11.622,0,0,0,.8,8.168,16.188,16.188,0,0,0,5.305,5.578c3.533,2.431,8.2,5.476,8.2,5.476s4.26-2.806,8.055-4.805a16.3,16.3,0,0,0,5.919-4.93A11.656,11.656,0,0,0,121.455,96.687Z" transform="translate(192.382 696.04)" fill="#fc4b52"/>
    <circle id="Elipse_4810" data-name="Elipse 4810" cx="37.171" cy="37.171" r="37.171" transform="translate(200.358 857.027)" fill="#feca2e"/>
    <path id="Trazado_116733" data-name="Trazado 116733" d="M70.154,205.9H35.3l3.181-32.116h28.4Z" transform="translate(184.803 707.65)" fill="#a7e446"/>
    <circle id="Elipse_4811" data-name="Elipse 4811" cx="1.147" cy="1.147" r="1.147" transform="translate(227.941 883.452)" fill="#5e9540"/>
    <path id="Trazado_116734" data-name="Trazado 116734" d="M58.982,176.706a1.136,1.136,0,1,1-1.136-1.136A1.136,1.136,0,0,1,58.982,176.706Z" transform="translate(187.715 707.894)" fill="#5e9540"/>
    <path id="Trazado_116735" data-name="Trazado 116735" d="M59.717,179.106a.568.568,0,0,1-.568-.568v-7.952a7.657,7.657,0,0,0-15.3,0v7.952a.579.579,0,0,1-.568.568.568.568,0,0,1-.568-.568v-7.952a8.793,8.793,0,0,1,17.575,0v7.952A.579.579,0,0,1,59.717,179.106Z" transform="translate(185.811 706.062)" fill="#e1e1e1"/>
    <path id="Trazado_116736" data-name="Trazado 116736" d="M62.054,188.894s-2.636-5.351-3.045-5.76a3.613,3.613,0,0,0-.966-.591,5.523,5.523,0,0,0-.6-.261h0c-1.136-.42-2.92-.852-2.92-.852a2.886,2.886,0,0,1-5.237,0s-1.784.432-2.931.852h0a5.845,5.845,0,0,0-.613.261,4.021,4.021,0,0,0-.966.591c-.409.409-3.045,5.76-3.045,5.76l3.863,1.931,1.136-2.67-.261,9.668H57.4l-.329-9.668,1.136,2.67Z" transform="translate(185.677 708.69)" fill="#5e9540"/>
    <circle id="Elipse_4812" data-name="Elipse 4812" cx="37.171" cy="37.171" r="37.171" transform="translate(205.3 980.562)" fill="#feca2e"/>
    <path id="Trazado_116737" data-name="Trazado 116737" d="M71.947,292.053a15.144,15.144,0,1,0-28.2,7.68h0c.579.977,1.306,1.67,2.045,2.7l8.793,11.645a2.727,2.727,0,0,0,4.362,0l8.657-11.451a32.277,32.277,0,0,0,2.227-2.9h0A15,15,0,0,0,71.947,292.053Zm-13.633,6.43a6.68,6.68,0,1,1,5.131-7.016A6.691,6.691,0,0,1,58.314,298.483Z" transform="translate(185.668 721.681)" fill="#1d354f"/>
    <path id="Trazado_116738" data-name="Trazado 116738" d="M311.818,400.34,185.342,409.6c-32.366,4.431-116.331,20.687-144.812,50.634l417.645-.591C438.476,430.286,352.341,403.646,311.818,400.34Z" transform="translate(185.514 738.473)" fill="#fc4b52"/>
    <path id="Trazado_116739" data-name="Trazado 116739" d="M281,321.837c6.953-21.346,13.814-42.852,17.041-65.073s2.511-45.442-5.294-66.447c-1.193-3.192-11.281-24.6-14.678-24.266-2.42.239,3.806,20.21,2.579,22.312-11.7,20.051-14.882,44.181-13.03,67.322s6.646,43.954,13.428,66.152" transform="translate(216.342 706.598)" fill="#1d354f"/>
    <path id="Trazado_116740" data-name="Trazado 116740" d="M218.419,135.75l-5.2.273a100.677,100.677,0,0,0-95.3,97.78c-1.341,48.771-2.193,102.665-.489,128.7,3.533,53.917,57.938,59.449,57.938,59.449s-.4,14.416-.239,30.276l1.443.773a124.011,124.011,0,0,0,124.727-4.919h0l2.772-207.772C305.928,184.043,274.732,136.034,218.419,135.75Z" transform="translate(195.846 702.476)" fill="#ffc4a3"/>
    <path id="Trazado_116741" data-name="Trazado 116741" d="M168,390.6s34.081.193,69.151-24.493c0,0-15.053,40.148-69.14,38.148Z" transform="translate(202.856 733.816)" fill="#ffa275"/>
    <path id="Trazado_116742" data-name="Trazado 116742" d="M133,264.513a7.714,7.714,0,0,0,7.839,7.384,7.373,7.373,0,0,0,7.566-7.373,7.7,7.7,0,0,0-7.827-7.384A7.373,7.373,0,0,0,133,264.513Z" transform="translate(198.094 718.99)" fill="#1d354f"/>
    <path id="Trazado_116743" data-name="Trazado 116743" d="M128.677,242.26c1.011.954,6.623-3.681,14.916-4.09s14.587,3.408,15.428,2.34c.42-.477-.648-2.272-3.408-4.022a21.187,21.187,0,0,0-12.428-3.124,20.449,20.449,0,0,0-11.792,4.544C128.949,239.977,128.188,241.84,128.677,242.26Z" transform="translate(197.487 715.751)" fill="#1d354f"/>
    <path id="Trazado_116744" data-name="Trazado 116744" d="M195,264.513a7.714,7.714,0,0,0,7.839,7.384,7.373,7.373,0,0,0,7.566-7.373,7.714,7.714,0,0,0-7.827-7.384A7.373,7.373,0,0,0,195,264.513Z" transform="translate(206.529 718.99)" fill="#1d354f"/>
    <path id="Trazado_116745" data-name="Trazado 116745" d="M200.327,241.419c1.011.954,6.623-3.669,14.9-4.09s14.587,3.408,15.439,2.34c.409-.477-.648-2.272-3.408-4.022a21.153,21.153,0,0,0-12.417-3.113,20.278,20.278,0,0,0-11.8,4.544C200.6,239.135,199.827,241.021,200.327,241.419Z" transform="translate(207.234 715.638)" fill="#1d354f"/>
    <path id="Trazado_116746" data-name="Trazado 116746" d="M179.662,306.117c0-.477-5.18-1.136-13.633-1.715-2.136-.114-4.158-.42-4.544-1.852s.182-3.828,1.136-6.35q2.567-7.839,5.408-16.45c7.475-23.414,12.769-42.625,11.826-42.909s-7.782,18.438-15.257,41.852q-2.692,8.657-5.135,16.541c-.67,2.443-1.909,5.249-.659,8.361a5.339,5.339,0,0,0,3.647,2.92,14.608,14.608,0,0,0,3.624.307C174.448,306.821,179.662,306.582,179.662,306.117Z" transform="translate(201.532 716.229)" fill="#1d354f"/>
    <path id="Trazado_116747" data-name="Trazado 116747" d="M197.277,216.628c.932,2.215,9.157.716,18.949,1.4,9.8.477,17.791,2.92,18.983.841.523-1-.954-3.056-4.237-5.078a33.013,33.013,0,0,0-28.89-1.693C198.583,213.708,196.879,215.571,197.277,216.628Z" transform="translate(206.832 712.517)" fill="#1d354f"/>
    <path id="Trazado_116748" data-name="Trazado 116748" d="M130.328,217.584c1.522,1.84,7.18-.3,14.053-.591,6.816-.545,12.735.875,14.007-1.136.557-.977-.409-2.84-3.011-4.544a20.347,20.347,0,0,0-22.607,1.4C130.4,214.743,129.658,216.686,130.328,217.584Z" transform="translate(197.699 712.378)" fill="#1d354f"/>
    <path id="Trazado_116749" data-name="Trazado 116749" d="M279.32,263.445c.9-.443,36.49-12.928,37.262,24.016s-36.49,30.105-36.558,29.049S279.32,263.445,279.32,263.445Z" transform="translate(218.001 719.524)" fill="#ffc4a3"/>
    <path id="Trazado_116750" data-name="Trazado 116750" d="M289.614,300.859c.159-.125.659.432,1.75.909a6.441,6.441,0,0,0,4.817,0c3.874-1.511,7.032-7.782,7.066-14.45a21.358,21.358,0,0,0-1.988-9.168c-1.193-2.681-2.976-4.544-4.953-4.84a3.283,3.283,0,0,0-3.76,1.84c-.477,1.045-.216,1.772-.42,1.84s-.807-.6-.534-2.124a4.1,4.1,0,0,1,1.4-2.352,4.851,4.851,0,0,1,3.544-1.011c2.851.136,5.476,2.7,6.816,5.578a21.857,21.857,0,0,1,2.454,10.224c-.079,7.452-3.749,14.5-9.088,16.155a6.907,6.907,0,0,1-5.908-.863C289.7,301.745,289.489,300.927,289.614,300.859Z" transform="translate(219.397 720.94)" fill="#ffa275"/>
    <path id="Trazado_116751" data-name="Trazado 116751" d="M137.995,173.041c-6.021-3.226,11.69-22.812,26.311-29.662,22.085-10.349,55.928-16.973,76.479-11.417,24.743,6.691,45.374,18.711,58.029,41s17.631,48.384,17.222,74.059c-.125,7.827-.829,15.984-4.93,22.641-5.055,8.236-14.894,13.508-14.326,24.766a15.507,15.507,0,0,1-3.7,11.36c-6.669,7.282-15.019.625-18.915-6.112-8.293-14.371-9.407-31.639-10.327-48.214-.648-11.781-1.284-23.857,1.909-35.217,1.727-6.18,4.544-12.031,5.953-18.3s1.136-13.36-2.851-18.415a22.9,22.9,0,0,0-3.033-3,38.523,38.523,0,0,0-38.319-6.816c-20.722,7.611-56.121,19.04-65.493,12.1-13.474-10-16.745-16.586-16.745-16.586Z" transform="translate(198.61 701.687)" fill="#1d354f"/>
    <path id="Trazado_116752" data-name="Trazado 116752" d="M168.112,322.16c-.2.625,1.386,1.9,4.544,2.636a21.994,21.994,0,0,0,22.017-8.679c1.772-2.67,2.056-4.692,1.488-5-1.272-.7-5.453,4.942-13.1,7.816C175.474,322.046,168.567,320.785,168.112,322.16Z" transform="translate(202.869 726.326)" fill="#1d354f"/>
    <path id="Trazado_116753" data-name="Trazado 116753" d="M245.811,134.984a24.993,24.993,0,0,0-24.527-10.474c-3.9.682-7.952,2.272-11.69,1.136-3.226-1.045-5.453-3.953-8.361-5.68-7.271-4.362-18.177,1.011-19.233,9.429-4.26-2.931-8.725-5.93-13.848-6.68s-11.054,1.42-12.94,6.237c-1.431,3.681-.466,8.441-3.329,11.156-3.874,3.669-10.111-.08-15.439.136-6.4.261-11.167,6.941-11.133,13.337s3.749,12.247,8.225,16.836a51.054,51.054,0,0,0,42.4,14.769l37.876-25.72,25.959-9.4c3.056-1.136,6.407-2.465,7.782-5.419S247.651,137.8,245.811,134.984Z" transform="translate(197.048 700.117)" fill="#1d354f"/>
    <path id="Trazado_116754" data-name="Trazado 116754" d="M278.356,174.931c-2.976-8.259-11.27-13.314-19.415-16.575a96.632,96.632,0,0,0-31.73-6.816L202.65,172.262A36.865,36.865,0,0,1,239.276,175c10.543,7.339,13.894,19.415,15.291,33.388.318,3.215-.375,15.973,0,19.188s3.1,1.25,6.169,2.272c2.772.909,4.147-4.612,6.18-6.7a21.585,21.585,0,0,0,4.26-7.577,176.756,176.756,0,0,0,6.68-21.131C279.39,188.03,280.594,181.145,278.356,174.931Z" transform="translate(207.57 704.624)" fill="#1d354f"/>
    <path id="Trazado_116755" data-name="Trazado 116755" d="M259.28,153.428l98.518,85.6a10.6,10.6,0,0,0,14.973-1.136h0a10.588,10.588,0,0,0-1.136-14.916L274.412,139Z" transform="translate(215.274 702.918)" fill="#a7e446"/>
    <path id="Trazado_116756" data-name="Trazado 116756" d="M231.816,183.351a64.6,64.6,0,1,1,64.6-64.6A64.6,64.6,0,0,1,231.816,183.351Zm0-120.66a56.064,56.064,0,1,0,56.064,56.041,56.064,56.064,0,0,0-56.064-56.041Z" transform="translate(202.75 691.376)" fill="#a7e446"/>
    <path id="Trazado_116757" data-name="Trazado 116757" d="M231.816,183.351a64.6,64.6,0,1,1,64.6-64.6A64.6,64.6,0,0,1,231.816,183.351Zm0-120.66a56.064,56.064,0,1,0,56.064,56.041,56.064,56.064,0,0,0-56.064-56.041Z" transform="translate(202.75 691.376)" fill="none"/>
    <path id="Trazado_116758" data-name="Trazado 116758" d="M201.679,154.2a4.348,4.348,0,0,1-.523-.352l-1.431-1.136-1.034-.807c-.364-.307-.738-.67-1.136-1.045-.807-.773-1.784-1.59-2.715-2.658l-1.5-1.613c-.523-.568-1-1.216-1.522-1.852a43.189,43.189,0,0,1-3.113-4.272,57.336,57.336,0,0,1-8.691-22.426c-.25-1.84-.523-3.59-.579-5.249,0-.829-.125-1.625-.125-2.386v-2.272c0-1.409.136-2.67.216-3.783a11.333,11.333,0,0,1,.148-1.545c.057-.409.148-.9.216-1.3.125-.716.227-1.306.318-1.784a1.83,1.83,0,0,1,.148-.6,4.279,4.279,0,0,1,0,.625c0,.477-.125,1.068-.2,1.795a11.286,11.286,0,0,1-.159,1.284c-.057.454-.057,1-.1,1.545,0,1.136-.182,2.374-.125,3.772v2.193c0,.761.1,1.545.159,2.363.08,1.647.364,3.408.625,5.2a59.382,59.382,0,0,0,8.611,22.21c1.045,1.522,2,3,3.045,4.26.511.636.977,1.284,1.477,1.863l1.465,1.625c.9,1.068,1.852,1.909,2.636,2.692.4.386.761.761,1.136,1.079l.988.841,1.352,1.193a2.94,2.94,0,0,1,.42.534Z" transform="translate(204.395 697.492)" fill="#fff"/>
    <path id="Trazado_116759" data-name="Trazado 116759" d="M270.855,121.92a12.217,12.217,0,0,1-.318,1.772,19.133,19.133,0,0,1-.534,2.045c-.239.784-.477,1.7-.863,2.67s-.75,2.045-1.272,3.147-1.136,2.272-1.75,3.488a52.257,52.257,0,0,1-5.067,7.373,50.735,50.735,0,0,1-6.373,6.271c-1.079.852-2.1,1.67-3.124,2.34s-1.977,1.284-2.886,1.806-1.738.943-2.465,1.318a19.706,19.706,0,0,1-1.931.875,9.144,9.144,0,0,1-1.681.625,10.227,10.227,0,0,1,1.59-.829c.523-.25,1.136-.557,1.863-.966s1.556-.807,2.42-1.386,1.829-1.136,2.806-1.852,2-1.5,3.067-2.352a53.926,53.926,0,0,0,6.26-6.237,54.525,54.525,0,0,0,5.044-7.248c.648-1.2,1.3-2.329,1.772-3.408s.966-2.136,1.341-3.09.67-1.852.943-2.624.466-1.443.613-2A10.288,10.288,0,0,1,270.855,121.92Z" transform="translate(213.004 700.595)" fill="#fff"/>
    <path id="Trazado_116760" data-name="Trazado 116760" d="M268.176,100.42a23.29,23.29,0,0,1,.818,7.123,23.323,23.323,0,0,1-.807,7.112c-.182,0,.227-3.192.216-7.112S267.983,100.454,268.176,100.42Z" transform="translate(216.478 697.67)" fill="#fff"/>
    <path id="Trazado_116761" data-name="Trazado 116761" d="M366.091,152.23c-.057-3.124-.114-5.68-.148-6.055,0,0-10.6-.8-11.565-11.258-.466-5.055-.568-15.541-.568-24.993a19.563,19.563,0,0,1,18.018-19.472l1.011-.091c10.94-.227,17.257,8.941,17.177,19.881l.329,37.092L373.021,165.84l-1.284-.091Z" transform="translate(228.135 696.301)" fill="#ffc4a3"/>
    <path id="Trazado_116762" data-name="Trazado 116762" d="M364.49,140.1A25.448,25.448,0,0,0,377.8,135s-2.715,7.952-13.235,7.8Z" transform="translate(229.588 702.374)" fill="#ffa275"/>
    <path id="Trazado_116763" data-name="Trazado 116763" d="M369.593,111.445c.2.2,1.409-.773,3.158-.829s3.067.784,3.249.557-.125-.477-.7-.875a4.317,4.317,0,0,0-2.6-.727,4.192,4.192,0,0,0-2.511.932C369.662,110.945,369.491,111.343,369.593,111.445Z" transform="translate(230.279 698.914)" fill="#1d354f"/>
    <path id="Trazado_116764" data-name="Trazado 116764" d="M369.38,115.457a1.42,1.42,0,0,0,1.477,1.318,1.363,1.363,0,0,0,1.363-1.4,1.431,1.431,0,0,0-1.477-1.318,1.363,1.363,0,0,0-1.363,1.4Z" transform="translate(230.253 699.525)" fill="#1d354f"/>
    <path id="Trazado_116765" data-name="Trazado 116765" d="M366.291,123.612a10.87,10.87,0,0,0-2.647-.261c-.42,0-.807-.068-.9-.341a2.067,2.067,0,0,1,.17-1.238c.307-1.022.625-2.1.966-3.226,1.329-4.544,2.272-8.35,2.079-8.4s-1.42,3.624-2.749,8.214c-.318,1.136-.625,2.2-.909,3.238a2.386,2.386,0,0,0-.091,1.625,1,1,0,0,0,.727.545,2.6,2.6,0,0,0,.7,0A10.86,10.86,0,0,0,366.291,123.612Z" transform="translate(229.265 698.993)" fill="#1d354f"/>
    <path id="Trazado_116766" data-name="Trazado 116766" d="M370.262,106.41c.17.386,1.568.091,3.249.159s3.067.443,3.26.068c.091-.182-.182-.545-.75-.886a5.306,5.306,0,0,0-2.465-.67,5.362,5.362,0,0,0-2.5.5C370.466,105.887,370.182,106.228,370.262,106.41Z" transform="translate(230.372 698.303)" fill="#1d354f"/>
    <path id="Trazado_116767" data-name="Trazado 116767" d="M355.8,107.576c.182.318,1.556,0,3.215-.1s3.033.136,3.2-.193-.2-.443-.784-.693a5.68,5.68,0,0,0-2.454-.386,6.067,6.067,0,0,0-2.431.613C356.029,107.11,355.722,107.428,355.8,107.576Z" transform="translate(228.404 698.454)" fill="#1d354f"/>
    <path id="Trazado_116768" data-name="Trazado 116768" d="M385.48,114.774c.17-.091,7.021-2.692,7.362,4.476s-6.93,6.044-6.953,5.839S385.48,114.774,385.48,114.774Z" transform="translate(232.444 699.55)" fill="#ffc4a3"/>
    <path id="Trazado_116769" data-name="Trazado 116769" d="M387.651,121.985a1.842,1.842,0,0,0,.352.17,1.2,1.2,0,0,0,.932,0,3.067,3.067,0,0,0,1.3-2.84,4,4,0,0,0-.432-1.772,1.42,1.42,0,0,0-.988-.92.636.636,0,0,0-.716.375c-.091.2,0,.352-.08.364s-.159-.114-.114-.409a.818.818,0,0,1,.261-.466.988.988,0,0,1,.682-.216,1.772,1.772,0,0,1,1.363,1.045,4.307,4.307,0,0,1,.523,1.988,3.226,3.226,0,0,1-1.67,3.181,1.306,1.306,0,0,1-1.136-.136C387.673,122.166,387.628,122.007,387.651,121.985Z" transform="translate(232.738 699.825)" fill="#ffa275"/>
    <path id="Trazado_116770" data-name="Trazado 116770" d="M367,126.541a11.267,11.267,0,0,0,2.579-1.556,8.567,8.567,0,0,0,1.261-1.7c.284-.488.488-.784.557-.75s0,.375-.193.92a5.43,5.43,0,0,1-1.227,1.943,4.225,4.225,0,0,1-2.022,1.136C367.4,126.654,367,126.609,367,126.541Z" transform="translate(229.93 700.677)" fill="#1d354f"/>
    <path id="Trazado_116771" data-name="Trazado 116771" d="M399.939,107.1c-1.511-2.522-1.886-5.544-2.715-8.361s-2.431-5.68-5.215-6.7h-.057c-2.5-.988-5.555-.977-7.589.761-.534-3.726-3.817-6.657-7.475-7.589a24.266,24.266,0,0,0-12.962,1.136c-2.692,1.136-5.283,3.408-8.441,6.646a34.867,34.867,0,0,0-3.624,4.453l-3.1,9.8,2.738,5.112c.17.341.341.693.545,1.034h0l2.522,10.792c.136-2.954-.148-13.2,0-16.143a16.416,16.416,0,0,0,11.667-5.487c1.6-1.795,2.852-4.044,5-5.124,2.761-1.386,6.078-.409,9.009.591l-.125-.114a13.223,13.223,0,0,1,4.078,2.9,40.9,40.9,0,0,0,1.875,17.279c.284.829,1.045,2.545,1.863,2.863,1.625.613,2.045-1.034,3.011-1.909a4.283,4.283,0,0,1,2.92-.75,63.624,63.624,0,0,0,1.92-7.452,6.634,6.634,0,0,0,3.022.17c-.318-.727-.625-1.466-.943-2.2a3.409,3.409,0,0,0,1.3.568,1.136,1.136,0,0,0,1.216-.534C400.632,108.259,400.257,107.623,399.939,107.1Z" transform="translate(227.448 695.544)" fill="#1d354f"/>
    <path id="Trazado_116772" data-name="Trazado 116772" d="M377.21,92.94a13.693,13.693,0,0,1,1.057.954,7.634,7.634,0,0,1,1.624,3.408,12.887,12.887,0,0,1,.284,2.658c0,.966-.057,2-.125,3.09a28.409,28.409,0,0,0,0,3.408,12.321,12.321,0,0,0,.25,1.806,3.783,3.783,0,0,0,.75,1.761,1.613,1.613,0,0,0,1.477.488,2.454,2.454,0,0,0,1.329-.761,5.419,5.419,0,0,0,.988-2.67h-.216a8.622,8.622,0,0,0,1.284,2.181,3.169,3.169,0,0,0,2.045,1.136,2.045,2.045,0,0,0,1.079-.193,1.8,1.8,0,0,0,.727-.727,1.727,1.727,0,0,0,.216-.932,1.238,1.238,0,0,0-.341-.818l-.114.1a6.59,6.59,0,0,0,2.272,1.67c.307.136.545.216.7.273l.25.057a1.642,1.642,0,0,0-.239-.1,6.145,6.145,0,0,1-.682-.3,7.123,7.123,0,0,1-2.249-1.659l-.1.091a1.352,1.352,0,0,1,.08,1.556,1.648,1.648,0,0,1-.659.648,1.9,1.9,0,0,1-.977.159,2.874,2.874,0,0,1-1.9-1.034,8.736,8.736,0,0,1-1.25-2.136l-.148-.341-.068.364a5.225,5.225,0,0,1-.943,2.556,2.1,2.1,0,0,1-1.136.67,1.341,1.341,0,0,1-1.261-.409,3.635,3.635,0,0,1-.693-1.636,12.084,12.084,0,0,1-.25-1.772,28.163,28.163,0,0,1,0-3.408c0-1.136.125-2.124.1-3.1a12.96,12.96,0,0,0-.318-2.692,7.475,7.475,0,0,0-1.727-3.488A4.452,4.452,0,0,0,377.21,92.94Z" transform="translate(231.319 696.651)" fill="#dff7f9"/>
    <path id="Trazado_116773" data-name="Trazado 116773" d="M348.76,104.039a.261.261,0,0,0,.08.068l.273.193a3.836,3.836,0,0,0,.443.284,5.447,5.447,0,0,0,.636.329,9.338,9.338,0,0,0,4.544.773,11.8,11.8,0,0,0,6.3-2.374,20.585,20.585,0,0,0,5.385-6.294c.75-1.272,1.363-2.579,2.034-3.783a13.8,13.8,0,0,1,2.272-3.192,7.066,7.066,0,0,1,3.011-1.852,4.806,4.806,0,0,1,1.59-.193,5.68,5.68,0,0,1,3.647,1.568,6.089,6.089,0,0,1,1.136,1.522,7.032,7.032,0,0,1,.545,1.568v-.114a.654.654,0,0,0-.057-.318,5.682,5.682,0,0,0-.409-1.136,5.873,5.873,0,0,0-1.136-1.579,6.032,6.032,0,0,0-2.272-1.363,5.76,5.76,0,0,0-1.5-.3,5.589,5.589,0,0,0-1.659.182,7.52,7.52,0,0,0-3.011,1.84,14.223,14.223,0,0,0-2.363,3.249c-.682,1.216-1.3,2.511-2.045,3.772a20.45,20.45,0,0,1-5.305,6.237,11.8,11.8,0,0,1-6.18,2.386,9.338,9.338,0,0,1-4.442-.693A15.3,15.3,0,0,1,348.76,104.039Z" transform="translate(227.448 695.959)" fill="#dff7f9"/>
    <path id="Trazado_116774" data-name="Trazado 116774" d="M355.523,112.114c.216.216,1.409-.773,3.17-.829s3.067.8,3.249.568-.136-.488-.7-.886a4.385,4.385,0,0,0-2.613-.716,4.215,4.215,0,0,0-2.511.932C355.592,111.625,355.421,112.023,355.523,112.114Z" transform="translate(228.364 699.006)" fill="#1d354f"/>
    <path id="Trazado_116775" data-name="Trazado 116775" d="M356.32,116.028a1.42,1.42,0,0,0,1.477,1.318,1.363,1.363,0,0,0,1.363-1.4,1.42,1.42,0,0,0-1.477-1.318,1.363,1.363,0,0,0-1.363,1.4Z" transform="translate(228.477 699.603)" fill="#1d354f"/>
    <path id="Trazado_116776" data-name="Trazado 116776" d="M353.357,94.87a4.544,4.544,0,0,1-3.692,2.159A10.382,10.382,0,0,1,348.1,96.6c-.5.329-.352,2.079,0,2.556a9.229,9.229,0,0,0,1.136,1.136c-1.7.954-3.283.534-5.124-.1a8.975,8.975,0,0,0,5.476,7.112,3.181,3.181,0,0,0,2.9,0,3.681,3.681,0,0,0,1.227-2.272,40.045,40.045,0,0,0,1.136-9.656Z" transform="translate(226.815 696.914)" fill="#1d354f"/>
    <path id="Trazado_116777" data-name="Trazado 116777" d="M318.5,329.321l8.645,19.54s-22.721,9.032-22.948,13.326l44.306-.818-.057-3.749-9.77-32.23Z" transform="translate(221.386 728.276)" fill="#fc4b52"/>
    <path id="Trazado_116778" data-name="Trazado 116778" d="M336.084,343.011a1.852,1.852,0,0,1,1.284,2.068,1.738,1.738,0,0,1-2.011,1.318A1.943,1.943,0,0,1,334,344.147a1.795,1.795,0,0,1,2.272-1.136" transform="translate(225.436 730.661)" fill="#c93c41"/>
    <path id="Trazado_116779" data-name="Trazado 116779" d="M348.509,357.509l-.057-3.749-42.534,2.272s-1.965.909-1.715,2.272Z" transform="translate(221.383 732.136)" fill="#c93c41"/>
    <path id="Trazado_116780" data-name="Trazado 116780" d="M323.76,345.886c0,.216,1.136.3,2.181.988s1.659,1.59,1.852,1.5-.148-1.352-1.466-2.159S323.715,345.681,323.76,345.886Z" transform="translate(224.047 731.035)" fill="#c93c41"/>
    <path id="Trazado_116781" data-name="Trazado 116781" d="M319.71,347.661c0,.216.9.568,1.647,1.477s.977,1.9,1.136,1.886a2.3,2.3,0,0,0-.625-2.374C320.914,347.536,319.71,347.456,319.71,347.661Z" transform="translate(223.496 731.294)" fill="#c93c41"/>
    <path id="Trazado_116782" data-name="Trazado 116782" d="M317.685,353.1c.193,0,.477-1.057-.1-2.272s-1.59-1.647-1.681-1.465.545.818,1.011,1.806S317.469,353.091,317.685,353.1Z" transform="translate(222.977 731.532)" fill="#c93c41"/>
    <path id="Trazado_116783" data-name="Trazado 116783" d="M322.341,341.48c.1.193,1.136-.125,2.272-.068s2.193.443,2.272.25-.818-.954-2.272-1.011S322.239,341.309,322.341,341.48Z" transform="translate(223.853 730.352)" fill="#1d354f"/>
    <path id="Trazado_116784" data-name="Trazado 116784" d="M386.411,385.28l.988,37.262-19.336-.045-1.034-36.365Z" transform="translate(229.934 736.424)" fill="#fc4b52"/>
    <path id="Trazado_116785" data-name="Trazado 116785" d="M376.587,420.67c-.159,0-.409-7.952-.545-17.745s-.114-17.745,0-17.745.4,7.952.545,17.745S376.746,420.67,376.587,420.67Z" transform="translate(231.147 736.41)" fill="#c93c41"/>
    <path id="Trazado_116786" data-name="Trazado 116786" d="M367.65,408.536a4.159,4.159,0,0,1,.477-.807,12.666,12.666,0,0,1,1.681-1.909,12.993,12.993,0,0,1,3.067-2.193,10.224,10.224,0,0,1,12.088,1.988,8.883,8.883,0,0,1,1.466,2.09,2.476,2.476,0,0,1,.329.886,19.934,19.934,0,0,0-2.079-2.681,10.225,10.225,0,0,0-7.316-2.84,11.781,11.781,0,0,0-7.282,3.079C368.491,407.513,367.73,408.6,367.65,408.536Z" transform="translate(230.018 738.764)" fill="#c93c41"/>
    <path id="Trazado_116787" data-name="Trazado 116787" d="M387.222,418.659l-19.256-.091-.136-4.408,19.415.091Z" transform="translate(230.042 740.354)" fill="#c93c41"/>
    <path id="Trazado_116788" data-name="Trazado 116788" d="M398.752,235.7l-42.3-7.407-.159,4.6c-10.224,8.293-37.421,32-53.86,48.237,0,0-6.089,8.18-3.669,15.734l25.357,63.619,25.2-4.544-17.575-56.019L380.9,276.652c9.543-3.579,15.3-14.848,17.336-21.846C399.922,248.818,399.013,243.365,398.752,235.7Z" transform="translate(220.569 715.065)" fill="#1d354f"/>
    <path id="Trazado_116789" data-name="Trazado 116789" d="M357.07,278.331l10.077,136.837,24.993.636s2.136-37.308,2.556-65.516c.386-25.811.648-89.748.648-89.748Z" transform="translate(228.579 719.453)" fill="#1d354f"/>
    <path id="Trazado_116790" data-name="Trazado 116790" d="M390.63,234.81l13.212,2.42s0,19.029-1.136,28.844c-.545,4.783-8.146,20.017-8.146,20.017l-36.66,7.1V263.825Z" transform="translate(228.691 715.953)" fill="#1d354f"/>
    <path id="Trazado_116791" data-name="Trazado 116791" d="M391.337,258.28a3.583,3.583,0,0,1-.307.7c-.25.443-.534,1.136-1.056,1.943a27.267,27.267,0,0,1-5.124,6.26,46.32,46.32,0,0,1-9.884,6.725c-3.965,2.113-8.509,4.056-13.178,6.26L337.75,291.328l-7.3,3.329-2,.875a4.55,4.55,0,0,1-.716.273,4.028,4.028,0,0,1,.67-.375l1.954-.966,7.237-3.488,23.971-11.3c4.681-2.2,9.225-4.124,13.178-6.2a47.134,47.134,0,0,0,9.861-6.578,28.491,28.491,0,0,0,5.192-6.078C390.826,259.212,391.292,258.257,391.337,258.28Z" transform="translate(224.587 719.146)" fill="#dff7f9"/>
    <path id="Trazado_116792" data-name="Trazado 116792" d="M393.159,278.34a82.162,82.162,0,0,1-7.827,5.283,80.335,80.335,0,0,1-8.111,4.806,81.62,81.62,0,0,1,7.827-5.271,83.11,83.11,0,0,1,8.111-4.817Z" transform="translate(231.32 721.875)" fill="#dff7f9"/>
    <path id="Trazado_116793" data-name="Trazado 116793" d="M312.75,289.419a10.463,10.463,0,0,1,2.772-.545,30.01,30.01,0,0,1,6.816,0,27.754,27.754,0,0,1,6.646,1.579,10.325,10.325,0,0,1,2.556,1.227,22.571,22.571,0,0,1-2.681-.863,34.459,34.459,0,0,0-6.578-1.4,38.417,38.417,0,0,0-6.725-.148A24.529,24.529,0,0,1,312.75,289.419Z" transform="translate(222.549 723.281)" fill="#dff7f9"/>
    <path id="Trazado_116794" data-name="Trazado 116794" d="M355.613,233.086c-.148,0-.148-.75,0-1.613s.363-1.545.511-1.522.159.738,0,1.613S355.761,233.108,355.613,233.086Z" transform="translate(228.365 715.292)" fill="#dff7f9"/>
    <path id="Trazado_116795" data-name="Trazado 116795" d="M357.432,233.717c-.148,0-.125-.863.057-1.874s.432-1.806.579-1.772.125.863-.057,1.874S357.568,233.751,357.432,233.717Z" transform="translate(228.615 715.308)" fill="#dff7f9"/>
    <path id="Trazado_116796" data-name="Trazado 116796" d="M372.483,236.217c-.148,0-.148-.807,0-1.738s.364-1.681.511-1.659.148.8,0,1.738S372.631,236.24,372.483,236.217Z" transform="translate(230.661 715.682)" fill="#dff7f9"/>
    <path id="Trazado_116797" data-name="Trazado 116797" d="M374.2,237.094c-.148,0-.159-.932,0-2.056s.375-2.011.523-1.988a4.25,4.25,0,0,1,0,2.056C374.579,236.231,374.34,237.117,374.2,237.094Z" transform="translate(230.894 715.714)" fill="#dff7f9"/>
    <path id="Trazado_116798" data-name="Trazado 116798" d="M388.726,239.608c-.148,0-.182-.9-.068-1.977s.307-1.954.454-1.931.182.9.08,1.977S388.874,239.631,388.726,239.608Z" transform="translate(232.867 716.074)" fill="#dff7f9"/>
    <path id="Trazado_116799" data-name="Trazado 116799" d="M390.936,240.256a4.84,4.84,0,0,1-.148-2.272,5,5,0,0,1,.4-2.2,4.839,4.839,0,0,1,.148,2.272A4.954,4.954,0,0,1,390.936,240.256Z" transform="translate(233.156 716.085)" fill="#dff7f9"/>
    <path id="Trazado_116800" data-name="Trazado 116800" d="M355.359,152.593,345.5,232.458a7.759,7.759,0,0,0,5.68,8.486l50.884,8.929a5.01,5.01,0,0,0,5.839-4.919c.125-11,.568-34.8,2.113-49.623,1.693-16.348,1.625-31.65-4.4-39.444a46.158,46.158,0,0,0-12.133-11.27l-1.693-6.248s-21.38,1.42-25.163,4.749l-2.329,4.09Z" transform="translate(226.996 702.832)" fill="#fc4b52"/>
    <path id="Trazado_116801" data-name="Trazado 116801" d="M391.256,143.888a5.577,5.577,0,0,1-1.136.114L387,144.16c-2.647.125-6.294.364-10.315.738s-7.646.8-10.281,1.136l-3.113.352a4.543,4.543,0,0,1-1.136,0,5.683,5.683,0,0,1,1.136-.273c.727-.136,1.784-.318,3.1-.523,2.613-.409,6.248-.9,10.281-1.272s7.691-.545,10.349-.579h3.136A3.9,3.9,0,0,1,391.256,143.888Z" transform="translate(229.27 703.563)" fill="#1d354f"/>
    <path id="Trazado_116802" data-name="Trazado 116802" d="M374.093,175.93l-4.544,30.526-5.68-.966s-4.056,17.382-17.609,14.769l8.373-16.245,4.2-16.677Z" transform="translate(227.108 707.942)"/>
    <path id="Trazado_116803" data-name="Trazado 116803" d="M337.84,194.549l31.389,9.191s4.794-17.938,7.089-28.526c2.522-11.576.5-17.6-7.112-22.971a12.849,12.849,0,0,0-5.794-2.272,13.735,13.735,0,0,0-14.2,8.384,124.23,124.23,0,0,0-5.078,14.621Z" transform="translate(225.962 704.399)" fill="#fc4b52"/>
    <path id="Trazado_116804" data-name="Trazado 116804" d="M376.359,174.2a2.772,2.772,0,0,1-.079.545l-.307,1.568c-.3,1.375-.727,3.408-1.318,5.9-1.136,5.044-2.942,12.178-5.146,20.585l-.057.239-.239-.068-19.79-5.76-11.633-3.408-.25-.08.068-.25c3.1-10.474,5.68-19.6,7.759-26.038,1.045-3.226,1.988-5.748,2.692-7.464.341-.863.636-1.511.829-1.954a3.88,3.88,0,0,1,.341-.659,5.675,5.675,0,0,1-.25.693l-.761,1.988c-.648,1.727-1.534,4.272-2.533,7.5-1.965,6.453-4.544,15.609-7.577,26.129l-.17-.329,11.633,3.408,19.745,5.805-.3.182c2.272-8.4,4.067-15.507,5.328-20.528l1.454-5.862c.159-.648.284-1.136.375-1.545A3.264,3.264,0,0,1,376.359,174.2Z" transform="translate(225.921 705.415)" fill="#1d354f"/>
    <path id="Trazado_116805" data-name="Trazado 116805" d="M371.961,157.688c-.08,0-.7-.9-1.988-2.17a16.893,16.893,0,0,0-5.839-3.76,16.53,16.53,0,0,0-6.816-1c-1.784.114-2.874.42-2.9.329s.25-.148.738-.3a13.346,13.346,0,0,1,2.124-.42,15.257,15.257,0,0,1,7.078.875,15.438,15.438,0,0,1,5.919,4,13.243,13.243,0,0,1,1.341,1.727,2.4,2.4,0,0,1,.341.716Z" transform="translate(228.218 704.452)" fill="#1d354f"/>
    <path id="Trazado_116806" data-name="Trazado 116806" d="M345.173,191.047l-1.579,5.339L313.557,183.22l-6.487,10.111s23.584,17.734,30.969,23.4,15.9,3.681,20.9-2.942,7.123-16.552,7.123-16.552Z" transform="translate(221.776 708.935)" fill="#ffc4a3"/>
    <path id="Trazado_116807" data-name="Trazado 116807" d="M342.387,201.473c-.148,0-.511-1.6-1.409-3.408s-1.931-3.113-1.818-3.215a6.816,6.816,0,0,1,2.272,2.976A6.975,6.975,0,0,1,342.387,201.473Z" transform="translate(226.141 710.517)" fill="#ffa275"/>
    <path id="Trazado_116808" data-name="Trazado 116808" d="M320.486,187.792l-3.976-2.772c-2.1-6.362-6.032-17.881-7.191-17.529s-1.806,1.511-1.443,3.953c.886,5.873-.557,8.452-3.931,7.68-1.136-.261-10.44-2.783-10.44-2.783s-6.067,1.011-.829,5.271c0,0-1.363,3.613,2.363,4.544,0,0-.636,2.124,4.817,5.055a57.27,57.27,0,0,0,7.714,3.249l5.033,3.056Z" transform="translate(219.528 706.793)" fill="#ffc4a3"/>
    <path id="Trazado_116809" data-name="Trazado 116809" d="M300.1,182.179c0,.2-2.011-.239-4.306-1.057-.829-.273-1.6-.534-2.272-.693l.079-.443.386.08-.091.409a4.657,4.657,0,0,1-1.556-.613,4.612,4.612,0,0,1,1.659.2l-.08.42h-.4l.079-.443a14.86,14.86,0,0,1,2.272.625,37.938,37.938,0,0,1,4.226,1.511Z" transform="translate(219.772 708.477)" fill="#ffa275"/>
    <path id="Trazado_116810" data-name="Trazado 116810" d="M300.559,186.29a7.884,7.884,0,0,1-3.181-.852,8.169,8.169,0,0,1-2.908-1.568,13.9,13.9,0,0,1,3.1,1.068,13.632,13.632,0,0,1,2.988,1.352Z" transform="translate(220.062 709.022)" fill="#ffa275"/>
    <path id="Trazado_116811" data-name="Trazado 116811" d="M337.46,364.25c0,2.374,32.1,100.722,32.1,100.722h12.928L350.468,364.25Z" transform="translate(225.911 733.563)" fill="#a7e446"/>
    <rect id="Rectángulo_34830" data-name="Rectángulo 34830" width="12.883" height="104.846" transform="translate(517.384 1093.689)" fill="#a7e446"/>
    <rect id="Rectángulo_34831" data-name="Rectángulo 34831" width="41" height="9.122" transform="translate(560.462 1125.453)" fill="#a7e446"/>
    <rect id="Rectángulo_34832" data-name="Rectángulo 34832" width="71.287" height="9.122" transform="translate(517.247 1089.531)" fill="#a7e446"/>
    <rect id="Rectángulo_34833" data-name="Rectángulo 34833" width="42.431" height="9.122" transform="translate(571.823 1158.853)" fill="#a7e446"/>
    <path id="Trazado_116812" data-name="Trazado 116812" d="M193.411,49.021a69.053,69.053,0,0,1-6.521-6.112,67.1,67.1,0,0,1-6.1-6.51,66.214,66.214,0,0,1,6.521,6.1,64.939,64.939,0,0,1,6.1,6.521Z" transform="translate(204.596 688.96)" fill="#cba124"/>
    <path id="Trazado_116813" data-name="Trazado 116813" d="M221.485,40.937c-.159,0-.3-6.816-.3-15.268s.136-15.268.3-15.268.3,6.816.3,15.268S221.656,40.937,221.485,40.937Z" transform="translate(210.092 685.422)" fill="#cba124"/>
    <path id="Trazado_116814" data-name="Trazado 116814" d="M202.486,35.158a43.1,43.1,0,0,1-2.272-6.714,42.038,42.038,0,0,1-1.784-6.884,43.1,43.1,0,0,1,2.352,6.714A43.494,43.494,0,0,1,202.486,35.158Z" transform="translate(206.996 686.94)" fill="#cba124"/>
    <path id="Trazado_116815" data-name="Trazado 116815" d="M251.73,49.021a64.928,64.928,0,0,1,6.1-6.521,66.213,66.213,0,0,1,6.521-6.1,67.11,67.11,0,0,1-6.1,6.51,69.051,69.051,0,0,1-6.521,6.112Z" transform="translate(214.248 688.96)" fill="#cba124"/>
    <path id="Trazado_116816" data-name="Trazado 116816" d="M241.59,35.159a43.49,43.49,0,0,1,1.784-6.884,43.1,43.1,0,0,1,2.352-6.714,42.029,42.029,0,0,1-1.784,6.884A43.1,43.1,0,0,1,241.59,35.159Z" transform="translate(212.868 686.94)" fill="#cba124"/>
    <path id="Trazado_116817" data-name="Trazado 116817" d="M181.188,61.468a15.541,15.541,0,0,1-2.886-1.034c-1.749-.716-4.158-1.738-6.816-2.9s-5.021-2.272-6.737-3.056A15.78,15.78,0,0,1,162,53.05a16.143,16.143,0,0,1,2.9,1.045c1.75.716,4.158,1.738,6.816,2.9s5.021,2.272,6.725,3.056a16.223,16.223,0,0,1,2.749,1.42Z" transform="translate(202.04 691.225)" fill="#cba124"/>
    <path id="Trazado_116818" data-name="Trazado 116818" d="M278.387,55.85a91.906,91.906,0,0,1-9.656,3.76,91.613,91.613,0,0,1-9.861,3.226,91.21,91.21,0,0,1,9.668-3.772,90.2,90.2,0,0,1,9.85-3.215Z" transform="translate(215.219 691.605)" fill="#cba124"/>
    <path id="Trazado_116819" data-name="Trazado 116819" d="M268,85.537a42.84,42.84,0,1,0-59.983,40.455c.148,5.078.307,10.8.307,10.8l37.49-1.057s.057-6.066,0-11.485A42.818,42.818,0,0,0,268,85.537Z" transform="translate(204.806 689.979)" fill="#feca2e"/>
    <path id="Trazado_116820" data-name="Trazado 116820" d="M229.839,130.772v-.523c0-.341.068-.886.125-1.556.136-1.363.318-3.408.625-5.942s.727-5.68,1.443-9.361a63.234,63.234,0,0,1,3.579-12.065,41.1,41.1,0,0,1,3.351-6.5,7.8,7.8,0,0,1,2.852-2.715,4.4,4.4,0,0,1,4.067,0,2.954,2.954,0,0,1,1.284,3.863,6.066,6.066,0,0,1-3.226,2.942,11.7,11.7,0,0,1-8.918-.375,11.906,11.906,0,0,1-6.248-6.975,8.963,8.963,0,0,1-.4-4.93,3.863,3.863,0,0,1,3.817-3.09A2.783,2.783,0,0,1,234.406,85a3.84,3.84,0,0,1,.42,2.624,8.373,8.373,0,0,1-2.886,4.34,12.815,12.815,0,0,1-9.906,3.181,11.133,11.133,0,0,1-8.429-5.9,6.442,6.442,0,0,1-.432-5.18,3.124,3.124,0,0,1,4.465-1.784,4.385,4.385,0,0,1,1.863,1.829,6.816,6.816,0,0,1,.693,2.443,12.292,12.292,0,0,1-.511,4.908,12.724,12.724,0,0,1-5.839,7.35,13.008,13.008,0,0,1-8.827,1.477,6.816,6.816,0,0,1-3.908-1.931,3.317,3.317,0,0,1-.352-4.112,2.829,2.829,0,0,1,1.9-1,4.09,4.09,0,0,1,2.056.341,6.2,6.2,0,0,1,2.7,2.863c1.136,2.272,2.068,4.544,3,6.657,3.669,8.532,6.305,15.575,8.066,20.449.886,2.443,1.534,4.351,1.977,5.68l.488,1.477c.1.329.148.5.148.5s-.08-.159-.2-.488l-.534-1.454c-.477-1.306-1.136-3.192-2.068-5.612-1.829-4.851-4.544-11.872-8.214-20.381-.932-2.113-1.886-4.374-3.022-6.612a5.782,5.782,0,0,0-2.533-2.692,2.567,2.567,0,0,0-3.09,4.09,6.351,6.351,0,0,0,3.658,1.784,12.5,12.5,0,0,0,8.52-1.443,12.258,12.258,0,0,0,5.6-7.078,11.929,11.929,0,0,0,.488-4.7,4.68,4.68,0,0,0-2.272-3.874,2.726,2.726,0,0,0-2.272-.148,2.772,2.772,0,0,0-1.545,1.681,5.987,5.987,0,0,0,.42,4.76,10.645,10.645,0,0,0,8.055,5.68,12.246,12.246,0,0,0,9.486-3.045,7.873,7.873,0,0,0,2.727-4.044,3.408,3.408,0,0,0-.352-2.272,2.272,2.272,0,0,0-1.818-1.136,3.011,3.011,0,0,0-2.1.75,3.613,3.613,0,0,0-1.136,1.954,8.441,8.441,0,0,0,.375,4.646,11.3,11.3,0,0,0,14.462,6.964,5.68,5.68,0,0,0,3-2.692,2.545,2.545,0,0,0-1.136-3.306,4.022,4.022,0,0,0-3.669,0,7.509,7.509,0,0,0-2.7,2.567,39.758,39.758,0,0,0-3.329,6.419,64.279,64.279,0,0,0-3.613,11.94c-.738,3.613-1.136,6.748-1.522,9.327s-.557,4.544-.716,5.93c-.08.659-.148,1.136-.182,1.545A4.535,4.535,0,0,1,229.839,130.772Z" transform="translate(207.237 695.15)" fill="#cba124"/>
    <path id="Trazado_116821" data-name="Trazado 116821" d="M240.038,131.51l-32.23.909a2.42,2.42,0,0,1-2.488-2.352h0a2.42,2.42,0,0,1,2.352-2.488l32.23-.909a2.42,2.42,0,0,1,2.477,2.352h0a2.408,2.408,0,0,1-2.34,2.488Z" transform="translate(207.933 701.24)" fill="#afafaf"/>
    <path id="Trazado_116822" data-name="Trazado 116822" d="M240.089,132.79l-32.23.909a2.42,2.42,0,1,0,.136,4.828l3.533-.091,4.953,8.793a3.079,3.079,0,0,0,2.795,1.59l11.508-.329a3.135,3.135,0,0,0,2.726-1.761l4.306-9.032,2.408-.068a2.421,2.421,0,1,0-.136-4.84Z" transform="translate(207.938 702.073)" fill="#afafaf"/>
    <path id="Trazado_116823" data-name="Trazado 116823" d="M231.461,145.945a22.022,22.022,0,0,1-2.272-.613,17.951,17.951,0,0,0-5.487-.534,18.563,18.563,0,0,0-5.385,1.136,22.623,22.623,0,0,1-2.147.875,6.657,6.657,0,0,1,2-1.216,15.7,15.7,0,0,1,5.51-1.341,15.9,15.9,0,0,1,5.612.7,6.817,6.817,0,0,1,2.17.988Z" transform="translate(209.41 703.63)" fill="#636363"/>
    <path id="Trazado_116824" data-name="Trazado 116824" d="M237.116,137.21c0,.148-5.817.432-13,.625s-13.019.25-13.019.114,5.817-.432,13-.636S237.116,137.063,237.116,137.21Z" transform="translate(208.72 702.663)" fill="#636363"/>
    <path id="Trazado_116825" data-name="Trazado 116825" d="M234.911,140.626a19.061,19.061,0,0,1-3.158.409c-1.965.182-4.68.364-7.68.488s-5.68.17-7.691.159a16.826,16.826,0,0,1-3.192-.148,22.717,22.717,0,0,1,3.181-.227l7.68-.307,7.68-.341a19.228,19.228,0,0,1,3.181-.034Z" transform="translate(209.004 703.133)" fill="#636363"/>
    <path id="Trazado_116827" data-name="Trazado 116827" d="M257.535,75.79a1.809,1.809,0,0,1,.148.5c.068.341.2.829.307,1.477a34.219,34.219,0,0,1,.466,5.521,36.354,36.354,0,0,1-16.723,30.9,31.948,31.948,0,0,1-4.874,2.624c-.591.273-1.079.432-1.4.557a1.7,1.7,0,0,1-.511.148,17.883,17.883,0,0,1,1.806-.909,39.25,39.25,0,0,0,4.737-2.761,37.285,37.285,0,0,0,16.541-30.571,40.261,40.261,0,0,0-.273-5.476A17.505,17.505,0,0,1,257.535,75.79Z" transform="translate(211.964 694.318)" fill="#fff"/>
    <path id="Trazado_116828" data-name="Trazado 116828" d="M198.223,109.963a7.464,7.464,0,0,1-1.216-.92,12.34,12.34,0,0,1-1.329-1.136,21.584,21.584,0,0,1-1.659-1.693,27.7,27.7,0,0,1-1.818-2.2,31.418,31.418,0,0,1-1.874-2.715,35.865,35.865,0,0,1-5.078-14.11c-.125-1.136-.273-2.272-.284-3.272a24.225,24.225,0,0,1,0-2.874,22.359,22.359,0,0,1,.193-2.352,13.494,13.494,0,0,1,.273-1.761,6.283,6.283,0,0,1,.352-1.477c.125,0-.341,2.136-.4,5.6a26.965,26.965,0,0,0,.068,2.829,28.443,28.443,0,0,0,.329,3.238,37.751,37.751,0,0,0,5.01,13.894,27.9,27.9,0,0,0,1.795,2.7,28.274,28.274,0,0,0,1.75,2.272C196.6,108.52,198.3,109.861,198.223,109.963Z" transform="translate(205.158 694.272)" fill="#fff"/>
    <path id="Trazado_116829" data-name="Trazado 116829" d="M227.387,46.708a60.665,60.665,0,0,0-9.463.1A59.153,59.153,0,0,0,208.71,49a9.259,9.259,0,0,1,2.533-1.136,29.9,29.9,0,0,1,6.6-1.59,30.332,30.332,0,0,1,6.816-.057,10.122,10.122,0,0,1,2.727.489Z" transform="translate(208.395 690.273)" fill="#fff"/>
    <path id="Trazado_116731" data-name="Trazado 116731" d="M505.222,453.879c0,.581-112.3,1.079-250.794,1.079S3.6,454.46,3.6,453.879,115.876,452.8,254.428,452.8,505.222,453.256,505.222,453.879Z" transform="translate(180.49 744.043)" fill="#12263f"/>
  </g>
</svg>
