<svg xmlns="http://www.w3.org/2000/svg" width="400" height="208" viewBox="0 0 400 208">
  <g id="Grupo_115824" data-name="Grupo 115824" transform="translate(-1020 -661)">
    <g id="Rectángulo_34744" data-name="Rectángulo 34744" transform="translate(1020 661)" fill="#f4f9f9" stroke="#feca2e" stroke-width="3">
      <path d="M10,0H390a10,10,0,0,1,10,10V208a0,0,0,0,1,0,0H0a0,0,0,0,1,0,0V10A10,10,0,0,1,10,0Z" stroke="none"/>
      <path d="M10,1.5H390a8.5,8.5,0,0,1,8.5,8.5V206.5a0,0,0,0,1,0,0H1.5a0,0,0,0,1,0,0V10A8.5,8.5,0,0,1,10,1.5Z" fill="none"/>
    </g>
    <g id="Capa_2" data-name="Capa 2" transform="translate(1114.585 666.913)">
      <g id="Recursos">
        <g id="Grupo_80360" data-name="Grupo 80360" transform="translate(-16.112 -22.365)">
          <path id="Trazado_116327" data-name="Trazado 116327" d="M397.09,384.9h2.2l4.844-6.729v-4.4s3.41-.213,3.01,5.548.032,4.295.032,4.295,7.233,0,7.834.646c.439.452.646,7.64.71,11.534a4.217,4.217,0,0,1-2.99,4.249,2.963,2.963,0,0,1-.781.11c-1.8,0-11.018-1.472-11.018-1.472h-3.81Z" transform="translate(-213.591 -202.778)" fill="#1d354f"/>
          <path id="Trazado_116328" data-name="Trazado 116328" d="M387.32,389.09l1.356,15.073h3.778v-14.77Z" transform="translate(-210.13 -208.205)" fill="#1d354f"/>
        </g>
        <g id="Grupo_80368" data-name="Grupo 80368" transform="translate(-252.121 -158.889)">
          <path id="Trazado_116327-2" data-name="Trazado 116327" d="M397.09,384.9h2.2l4.844-6.729v-4.4s3.41-.213,3.01,5.548.032,4.295.032,4.295,7.233,0,7.834.646c.439.452.646,7.64.71,11.534a4.217,4.217,0,0,1-2.99,4.249,2.963,2.963,0,0,1-.781.11c-1.8,0-11.018-1.472-11.018-1.472h-3.81Z" transform="translate(-213.591 -202.778)" fill="#1d354f"/>
          <path id="Trazado_116328-2" data-name="Trazado 116328" d="M387.32,389.09l1.356,15.073h3.778v-14.77Z" transform="translate(-210.13 -208.205)" fill="#1d354f"/>
        </g>
        <g id="Grupo_80362" data-name="Grupo 80362">
          <path id="Trazado_116329" data-name="Trazado 116329" d="M222.58,39.457l6.725,9.607a1.83,1.83,0,0,0,3.006-.05L238.82,39Z" transform="translate(-120.755 -21.158)" fill="#fc4b52"/>
          <rect id="Rectángulo_34800" data-name="Rectángulo 34800" width="29.457" height="21.424" rx="10.712" transform="translate(94.711 2.187)" fill="#fc4b52"/>
          <path id="Trazado_116330" data-name="Trazado 116330" d="M238.868,21.8a2.9,2.9,0,0,0-3.564-1.6,3.623,3.623,0,0,0-1.738,1.6,3.623,3.623,0,0,0-1.738-1.6,2.9,2.9,0,0,0-3.559,1.6c-1.972,3.6,5.3,8.285,5.3,8.285S240.835,25.4,238.868,21.8Z" transform="translate(-123.657 -10.874)" fill="#c93c41"/>
        </g>
        <g id="Grupo_80359" data-name="Grupo 80359" transform="translate(-11.325 -15.017)">
          <path id="Trazado_116331" data-name="Trazado 116331" d="M54.781,367.64H72.82a7.261,7.261,0,0,1,7.261,7.261v9.16a7.261,7.261,0,0,1-7.261,7.261H68.107L64.8,396.067a2.005,2.005,0,0,1-3.325-.053l-3.059-4.692H54.781a7.261,7.261,0,0,1-7.261-7.261V374.9A7.261,7.261,0,0,1,54.781,367.64Z" transform="translate(-25.781 -199.453)" fill="#a7e446"/>
          <path id="Trazado_116332" data-name="Trazado 116332" d="M71.037,381.32v9.341l-6.687-4.671Z" transform="translate(-33.658 -205.856)" fill="#5e9540"/>
          <path id="Trazado_116333" data-name="Trazado 116333" d="M85.694,394.335s-.442-6.633-5.75-6.735H76.55v2.873l3.341.048A7,7,0,0,1,85.694,394.335Z" transform="translate(-39.368 -208.796)" fill="#5e9540"/>
        </g>
        <g id="Grupo_80358" data-name="Grupo 80358" transform="translate(-6.074 17.825)">
          <circle id="Elipse_4795" data-name="Elipse 4795" cx="5.305" cy="5.305" r="5.305" transform="matrix(0.231, -0.973, 0.973, 0.231, 28.986, 88.509)" fill="#1d354f"/>
          <path id="Trazado_116334" data-name="Trazado 116334" d="M66.569,189.65a9.069,9.069,0,0,0-9.069,9.057H75.632a9.069,9.069,0,0,0-9.063-9.057Z" transform="translate(-31.195 -100.405)" fill="#1d354f"/>
        </g>
        <g id="Grupo_80369" data-name="Grupo 80369" transform="translate(249.49 79.568)">
          <circle id="Elipse_4795-2" data-name="Elipse 4795" cx="5.305" cy="5.305" r="5.305" transform="matrix(0.231, -0.973, 0.973, 0.231, 28.986, 88.509)" fill="#1d354f"/>
          <path id="Trazado_116334-2" data-name="Trazado 116334" d="M66.569,189.65a9.069,9.069,0,0,0-9.069,9.057H75.632a9.069,9.069,0,0,0-9.063-9.057Z" transform="translate(-31.195 -100.405)" fill="#1d354f"/>
        </g>
        <g id="Grupo_80363" data-name="Grupo 80363" transform="translate(17.828 9.083)">
          <path id="Trazado_116335" data-name="Trazado 116335" d="M319.788,10.434A3.834,3.834,0,1,1,315.954,6.6,3.834,3.834,0,0,1,319.788,10.434Z" transform="translate(-169.333 -3.581)" fill="#1d354f"/>
          <path id="Trazado_116336" data-name="Trazado 116336" d="M337.168,25.064a3.834,3.834,0,1,1-3.834-3.834A3.834,3.834,0,0,1,337.168,25.064Z" transform="translate(-176.05 -9.235)" fill="#1d354f"/>
          <path id="Trazado_116337" data-name="Trazado 116337" d="M319.888,39.984a3.834,3.834,0,1,1-3.834-3.834A3.834,3.834,0,0,1,319.888,39.984Z" transform="translate(-169.371 -15.003)" fill="#1d354f"/>
          <path id="Trazado_116338" data-name="Trazado 116338" d="M318.658,31.23l-1.2-1.386,9.76-8.447L317.4,13.115l1.19-1.4,11.459,9.668Z" transform="translate(-171.373 -5.555)" fill="#1d354f"/>
        </g>
        <g id="Grupo_80367" data-name="Grupo 80367" transform="translate(-170.703 144.01)">
          <path id="Trazado_116335-2" data-name="Trazado 116335" d="M319.788,10.434A3.834,3.834,0,1,1,315.954,6.6,3.834,3.834,0,0,1,319.788,10.434Z" transform="translate(-169.333 -3.581)" fill="#1d354f"/>
          <path id="Trazado_116336-2" data-name="Trazado 116336" d="M337.168,25.064a3.834,3.834,0,1,1-3.834-3.834A3.834,3.834,0,0,1,337.168,25.064Z" transform="translate(-176.05 -9.235)" fill="#1d354f"/>
          <path id="Trazado_116337-2" data-name="Trazado 116337" d="M319.888,39.984a3.834,3.834,0,1,1-3.834-3.834A3.834,3.834,0,0,1,319.888,39.984Z" transform="translate(-169.371 -15.003)" fill="#1d354f"/>
          <path id="Trazado_116338-2" data-name="Trazado 116338" d="M318.658,31.23l-1.2-1.386,9.76-8.447L317.4,13.115l1.19-1.4,11.459,9.668Z" transform="translate(-171.373 -5.555)" fill="#1d354f"/>
        </g>
        <path id="Trazado_116339" data-name="Trazado 116339" d="M415.473,156.75a3.793,3.793,0,0,0-4.657-2.1,4.721,4.721,0,0,0-2.287,2.1,4.749,4.749,0,0,0-2.287-2.1,3.791,3.791,0,0,0-4.657,2.1c-2.58,4.707,6.931,10.842,6.931,10.842S418.048,161.457,415.473,156.75Z" transform="translate(-208.012 -117.374)" fill="#fc4b52"/>
        <path id="Trazado_116340" data-name="Trazado 116340" d="M395.8,205.536a2.7,2.7,0,0,0-3.321-1.491,3.381,3.381,0,0,0-1.619,1.491,3.381,3.381,0,0,0-1.619-1.491,2.7,2.7,0,0,0-3.317,1.491c-1.83,3.353,4.936,7.722,4.936,7.722S397.639,208.889,395.8,205.536Z" transform="translate(-199.588 -144.201)" fill="#fc4b52"/>
        <g id="Grupo_80361" data-name="Grupo 80361" transform="translate(75)">
          <path id="Trazado_116341" data-name="Trazado 116341" d="M381.856,37.08h-32.1A7.129,7.129,0,0,0,342.63,44.2V63.661a7.124,7.124,0,0,0,7.129,7.124h9.921l5.56,7.957a1.877,1.877,0,0,0,3.1-.053l5.141-7.9h8.371a7.119,7.119,0,0,0,7.124-7.124V44.2A7.124,7.124,0,0,0,381.856,37.08Z" transform="translate(-185.885 -20.117)" fill="#a7e446"/>
          <path id="Trazado_116342" data-name="Trazado 116342" d="M392.68,58.59v13.3l9.516-6.648Z" transform="translate(-211.843 -31.272)" fill="#5e9540"/>
          <path id="Trazado_116343" data-name="Trazado 116343" d="M366.22,78.064s.631-9.444,8.183-9.584h4.814v4.058l-4.761.067S369.484,72.49,366.22,78.064Z" transform="translate(-198.12 -36.402)" fill="#5e9540"/>
        </g>
        <g id="Grupo_80366" data-name="Grupo 80366" transform="translate(-28.205 9.227)">
          <rect id="Rectángulo_34801" data-name="Rectángulo 34801" width="75.754" height="61.503" rx="14.01" transform="translate(82.886 61.503) rotate(180)" fill="#fff"/>
          <path id="Trazado_116344" data-name="Trazado 116344" d="M73,130.33c-.778,1.88-15.8,16.012-15.8,16.012V130.33Z" transform="translate(-31.032 -70.707)" fill="#a7e446"/>
          <path id="Trazado_116345" data-name="Trazado 116345" d="M117.615,34.362c.037-3.2.544-6.4.421-9.607s-.97-6.546-3.2-8.843-6.121-3.179-8.738-1.322l-.535,2.745,3.088,37.115a12.664,12.664,0,0,0,1.025,4.749,4.324,4.324,0,0,0,3.847,2.553c2.132-.128,3.527-2.287,4.19-4.314C120.108,50.058,117.518,42.1,117.615,34.362Z" transform="translate(-57.269 -7.371)" fill="#1d354f"/>
          <path id="Trazado_116346" data-name="Trazado 116346" d="M108.891,19.012a9.058,9.058,0,0,0-1.629-2.21,3.074,3.074,0,0,0-2.489-.828,1.276,1.276,0,0,0-1,.732c-.146.412.16.956.595.915l.091.078q1.441,1.276,2.928,2.493a2.553,2.553,0,0,0,.819.508.869.869,0,0,0,.915-.192C109.44,20.091,109.179,19.474,108.891,19.012Z" transform="translate(-56.281 -8.654)" fill="#fc4b52"/>
          <path id="Trazado_116347" data-name="Trazado 116347" d="M86.834,22.122a16.225,16.225,0,0,0-12.539-6.245,17.394,17.394,0,0,0-6.075,1.1,9.012,9.012,0,0,0-5.128,3.39,15.1,15.1,0,0,0-2.946,6.885A42.376,42.376,0,0,0,59.774,35a14.336,14.336,0,0,0,2.415,7.288l6.579,1.139a41.373,41.373,0,0,0,10.851-.586c3.532-.828,6.977-2.745,8.875-5.833C91.125,32.7,90.036,26.028,86.834,22.122Z" transform="translate(-32.394 -8.612)" fill="#1d354f"/>
          <path id="Trazado_116348" data-name="Trazado 116348" d="M70.481,58.326c.046-2.287.124-5.2.124-5.188s-5.362-.59-6.844-7.452c-.737-3.417-.874-9.081-.837-13.724.032-4.181,3.587-9.868,8.724-9.886l2.287-.265L82.7,25.3a2.447,2.447,0,0,1,2.319,2.356l.329,30.225L79.754,67.26,69.69,59.483Z" transform="translate(-34.135 -11.833)" fill="#c16c63"/>
          <path id="Trazado_116349" data-name="Trazado 116349" d="M83.6,68.943a1.45,1.45,0,0,0-.5-.915,1.5,1.5,0,0,0-1.83-.1,2,2,0,0,0-.759,1.88h0a1.83,1.83,0,0,0,1.318.755h.242a1.647,1.647,0,0,0,1.1-.457A1.455,1.455,0,0,0,83.6,68.943Z" transform="translate(-43.664 -36.709)" fill="#934d44"/>
          <path id="Trazado_116350" data-name="Trazado 116350" d="M69,54.685a.883.883,0,0,0,.915.846.855.855,0,0,0,.874-.851.915.915,0,0,0-.915-.851.851.851,0,0,0-.874.855Z" transform="translate(-37.434 -29.204)" fill="#1d354f"/>
          <path id="Trazado_116351" data-name="Trazado 116351" d="M66.341,47.825c.119.11.764-.425,1.72-.457s1.688.389,1.784.27-.078-.261-.393-.457a2.434,2.434,0,0,0-1.446-.384,2.361,2.361,0,0,0-1.372.522C66.373,47.56,66.286,47.775,66.341,47.825Z" transform="translate(-35.983 -25.386)" fill="#1d354f"/>
          <path id="Trazado_116352" data-name="Trazado 116352" d="M76.9,56a6.208,6.208,0,0,0-1.574-.21c-.242,0-.457-.046-.526-.21a1.226,1.226,0,0,1,.124-.7l.618-1.9a35.924,35.924,0,0,0,1.372-4.954,31.53,31.53,0,0,0-1.752,4.836l-.59,1.908a1.4,1.4,0,0,0-.073.965.6.6,0,0,0,.421.334,1.555,1.555,0,0,0,.416.037A6.272,6.272,0,0,0,76.9,56Z" transform="translate(-40.387 -26.052)" fill="#1d354f"/>
          <path id="Trazado_116353" data-name="Trazado 116353" d="M79.677,86.747a17.654,17.654,0,0,0,9.15-2.987s-2.21,4.941-9.186,4.685Z" transform="translate(-43.207 -45.441)" fill="#934d44"/>
          <path id="Trazado_116354" data-name="Trazado 116354" d="M82.55,66.56c-.156,0-.1,1.038-.952,1.83s-1.958.732-1.958.878c0,.069.256.188.723.178a2.626,2.626,0,0,0,1.642-.677,2.237,2.237,0,0,0,.727-1.523C82.769,66.8,82.641,66.551,82.55,66.56Z" transform="translate(-43.207 -36.11)" fill="#1d354f"/>
          <path id="Trazado_116355" data-name="Trazado 116355" d="M67.051,40.645c.174.224.915.027,1.757.05s1.583.21,1.757,0c.078-.11-.027-.329-.339-.549a2.717,2.717,0,0,0-2.832-.037C67.083,40.311,66.974,40.535,67.051,40.645Z" transform="translate(-36.364 -21.554)" fill="#1d354f"/>
          <path id="Trazado_116356" data-name="Trazado 116356" d="M90.7,54.254a.888.888,0,0,1-.842.915.851.851,0,0,1-.915-.787.888.888,0,0,1,.842-.915.851.851,0,0,1,.915.787Z" transform="translate(-48.251 -29.006)" fill="#1d354f"/>
          <path id="Trazado_116357" data-name="Trazado 116357" d="M90.471,47.171c-.11.119-.791-.371-1.748-.348s-1.656.508-1.761.393.059-.261.361-.489a2.434,2.434,0,0,1,1.4-.457A2.374,2.374,0,0,1,90.1,46.7C90.421,46.91,90.526,47.121,90.471,47.171Z" transform="translate(-47.162 -25.103)" fill="#1d354f"/>
          <path id="Trazado_116358" data-name="Trazado 116358" d="M89.042,40.384c-.183.22-.915,0-1.83,0s-1.638.174-1.83-.05c-.078-.11.037-.329.361-.54a2.891,2.891,0,0,1,2.928.027C89.019,40.055,89.124,40.274,89.042,40.384Z" transform="translate(-46.309 -21.381)" fill="#1d354f"/>
          <path id="Trazado_116359" data-name="Trazado 116359" d="M108.67,57.686c0-.517.5-1.77,1.011-1.876,1.372-.288,3.811-.311,4.021,3.143.293,4.726-4.511,4.044-4.529,3.911S108.766,59.466,108.67,57.686Z" transform="translate(-58.956 -30.215)" fill="#c16c63"/>
          <path id="Trazado_116360" data-name="Trazado 116360" d="M112.385,62.915a1.794,1.794,0,0,0,.229.105.819.819,0,0,0,.613-.023,2.045,2.045,0,0,0,.833-1.885,2.7,2.7,0,0,0-.3-1.167.961.961,0,0,0-.659-.595.416.416,0,0,0-.457.256c-.055.137,0,.229-.046.238s-.105-.073-.078-.27a.512.512,0,0,1,.165-.306.64.64,0,0,1,.457-.151,1.171,1.171,0,0,1,.915.682,2.745,2.745,0,0,1,.366,1.3,2.135,2.135,0,0,1-1.075,2.114.86.86,0,0,1-.759-.078C112.4,63.03,112.366,62.925,112.385,62.915Z" transform="translate(-60.969 -32.072)" fill="#934d44"/>
          <path id="Trazado_116361" data-name="Trazado 116361" d="M92.355,36.6l-1.2,1.244C85.969,32.88,75.836,20.46,76.4,21.2a15.056,15.056,0,0,1,7.407-.805c3.857.654,11.153,2.576,11.057,7.123A23.48,23.48,0,0,1,92.355,36.6Z" transform="translate(-41.438 -10.98)" fill="#1d354f"/>
          <path id="Trazado_116362" data-name="Trazado 116362" d="M100.263,35.352a1.207,1.207,0,0,0-.073-.274,4.575,4.575,0,0,0-.32-.746,6.862,6.862,0,0,0-1.976-2.223A12.924,12.924,0,0,0,93.918,30.2c-1.583-.512-3.362-.915-5.115-1.665a23.331,23.331,0,0,1-4.666-2.612,24.086,24.086,0,0,1-3.3-2.882,26.26,26.26,0,0,1-1.9-2.287l-.457-.65a1.207,1.207,0,0,0-.178-.22,1.4,1.4,0,0,0,.137.247c.1.156.238.389.457.677a20.755,20.755,0,0,0,1.821,2.333A22.97,22.97,0,0,0,84,26.083a22.768,22.768,0,0,0,4.707,2.658A52.056,52.056,0,0,0,93.85,30.4a13.121,13.121,0,0,1,3.943,1.83,7.15,7.15,0,0,1,1.995,2.132C100.122,34.981,100.241,35.361,100.263,35.352Z" transform="translate(-42.479 -10.785)" fill="#dff7f9"/>
          <path id="Trazado_116363" data-name="Trazado 116363" d="M99.109,37.324a2.42,2.42,0,0,0-.183-1.029,4.817,4.817,0,0,0-1.784-2.228A10.789,10.789,0,0,0,93.2,32.521a23.079,23.079,0,0,1-4.9-1.555,20.587,20.587,0,0,1-4.369-2.695,21.113,21.113,0,0,1-3-2.946,22.313,22.313,0,0,1-1.67-2.287l-.4-.663a1.1,1.1,0,0,0-.156-.224,1.038,1.038,0,0,0,.11.247l.366.686A19.215,19.215,0,0,0,80.8,25.439a20.34,20.34,0,0,0,7.4,5.755,22.737,22.737,0,0,0,4.95,1.551,10.7,10.7,0,0,1,3.893,1.468,4.886,4.886,0,0,1,1.789,2.118,5.687,5.687,0,0,1,.279.993Z" transform="translate(-42.702 -12.017)" fill="#dff7f9"/>
          <path id="Trazado_116364" data-name="Trazado 116364" d="M111,46.262c0-.032.4-.087,1.1-.27a6.743,6.743,0,0,0,2.649-1.478,9.552,9.552,0,0,0,2.457-3.756,16.684,16.684,0,0,0,1.025-5.453A14.351,14.351,0,0,0,118,32.438a13.912,13.912,0,0,0-.787-2.557,13.582,13.582,0,0,0-2.447-3.815,22.174,22.174,0,0,0-3.17-2.745,1.034,1.034,0,0,1,.261.133c.165.105.416.242.714.457a14.305,14.305,0,0,1,2.342,2.008,13.45,13.45,0,0,1,2.548,3.847,13.668,13.668,0,0,1,.819,2.617,13.958,13.958,0,0,1,.242,2.928,16.4,16.4,0,0,1-1.071,5.549,9.543,9.543,0,0,1-2.58,3.815,6.514,6.514,0,0,1-2.745,1.427,5.49,5.49,0,0,1-.837.133A1.089,1.089,0,0,1,111,46.262Z" transform="translate(-60.22 -12.651)" fill="#dff7f9"/>
          <path id="Trazado_116365" data-name="Trazado 116365" d="M41.372,108.054l.119-.151c5.206-5.49,14.79-7.352,14.79-7.352s.586,3.6,5.947,4.007,9.319-5.069,9.319-5.069l7.169,1.006a18.2,18.2,0,0,1,5.851,1.743c5.06,2.978,7.745,13.239,7.745,13.239L37.04,115.7Z" transform="translate(-20.095 -53.976)" fill="#a7e446"/>
        </g>
        <path id="Trazado_116366" data-name="Trazado 116366" d="M207.954,238.964l-57.079-.032c-6.862,0-12.425-5.307-12.425-11.849l.027-136.365c0-6.546,5.572-11.853,12.443-11.849L208,78.9c6.862,0,12.425,5.311,12.425,11.849L220.4,227.12C220.393,233.666,214.826,238.968,207.954,238.964Z" transform="translate(-75.112 -42.789)" fill="#1d354f"/>
        <path id="Trazado_116367" data-name="Trazado 116367" d="M212.444,89.453H201.378a2.681,2.681,0,0,0-2.685,2.676v1.908A2.685,2.685,0,0,1,196,96.713h-21.57a2.676,2.676,0,0,1-2.685-2.676V92.106a2.681,2.681,0,0,0-2.69-2.676H155.48a8.5,8.5,0,0,0-8.692,8.3l-.027,133.126a8.509,8.509,0,0,0,8.692,8.3l56.965.032a8.525,8.525,0,0,0,8.715-8.294l.027-133.1A8.535,8.535,0,0,0,212.444,89.453Z" transform="translate(-79.621 -48.518)" fill="#dff7f9"/>
        <path id="Trazado_116368" data-name="Trazado 116368" d="M201.152,144.668a3.248,3.248,0,0,0,.16-6.464,3.376,3.376,0,0,0-3.966-5.032,4.044,4.044,0,0,0-6.611-2.109,4.575,4.575,0,0,0-5.522.942,3.234,3.234,0,0,0-1.77,5.947" transform="translate(-98.723 -70.556)" fill="#1d354f"/>
        <path id="Trazado_116369" data-name="Trazado 116369" d="M195.168,150.781A13.788,13.788,0,0,0,179.3,140.9l-.7.133c-7.475,1.885-10.064,9.282-7.969,16.707l5.234,26.945h0l15.4,11.894,3.985-9.923-1.569-8.967s7.054-2.516,5.76-9.8C198.814,164.363,196.952,157.222,195.168,150.781Z" transform="translate(-92.19 -76.308)" fill="#cd7a64"/>
        <path id="Trazado_116370" data-name="Trazado 116370" d="M210.064,220.384A17.96,17.96,0,0,1,200,219.41s3.152,4.964,10.275,2.928Z" transform="translate(-108.505 -119.035)" fill="#844436"/>
        <path id="Trazado_116371" data-name="Trazado 116371" d="M221.224,177.09a1.057,1.057,0,0,1-.8,1.24,1.011,1.011,0,0,1-1.249-.732,1.057,1.057,0,0,1,.8-1.24,1.016,1.016,0,0,1,1.249.732Z" transform="translate(-118.896 -95.66)" fill="#1d354f"/>
        <path id="Trazado_116372" data-name="Trazado 116372" d="M218.279,170.317c-.1.156-1-.274-2.114-.059s-1.83.915-1.976.819c-.073-.05,0-.32.32-.65a2.882,2.882,0,0,1,1.551-.819,2.745,2.745,0,0,1,1.716.215C218.169,170.02,218.329,170.244,218.279,170.317Z" transform="translate(-116.188 -91.988)" fill="#1d354f"/>
        <path id="Trazado_116373" data-name="Trazado 116373" d="M199.075,181.808a1.052,1.052,0,0,1-.8,1.235,1.011,1.011,0,0,1-1.249-.732,1.057,1.057,0,0,1,.8-1.235,1.006,1.006,0,0,1,1.249.732Z" transform="translate(-106.88 -98.218)" fill="#1d354f"/>
        <path id="Trazado_116374" data-name="Trazado 116374" d="M194.369,175.339c-.1.16-1-.274-2.114-.059s-1.83.915-1.976.819c-.073-.05,0-.32.32-.645a2.9,2.9,0,0,1,1.551-.823,2.791,2.791,0,0,1,1.716.215C194.255,175.042,194.424,175.266,194.369,175.339Z" transform="translate(-103.217 -94.714)" fill="#1d354f"/>
        <path id="Trazado_116375" data-name="Trazado 116375" d="M208.845,181.737a7.941,7.941,0,0,1,1.752-.677c.279-.082.535-.188.549-.393a1.487,1.487,0,0,0-.352-.81l-1.258-2.008a38.485,38.485,0,0,1-2.974-5.32,38.255,38.255,0,0,1,3.394,5.069q.645,1.057,1.226,2.027a1.693,1.693,0,0,1,.361,1.093.737.737,0,0,1-.389.508,2.013,2.013,0,0,1-.457.156,7.621,7.621,0,0,1-1.853.357Z" transform="translate(-112.061 -93.6)" fill="#1d354f"/>
        <path id="Trazado_116376" data-name="Trazado 116376" d="M192.964,166.824c-.091.311-1.107.188-2.287.371s-2.141.572-2.287.3c-.073-.133.087-.425.457-.732a3.6,3.6,0,0,1,1.7-.709,3.49,3.49,0,0,1,1.8.2C192.777,166.463,193.005,166.678,192.964,166.824Z" transform="translate(-102.196 -90.064)" fill="#1d354f"/>
        <path id="Trazado_116377" data-name="Trazado 116377" d="M216.328,161.58c-.188.3-1.157.21-2.287.407s-2.013.563-2.287.339c-.119-.114-.023-.393.343-.714a3.66,3.66,0,0,1,1.761-.764,3.564,3.564,0,0,1,1.9.165C216.231,161.2,216.414,161.433,216.328,161.58Z" transform="translate(-114.855 -87.231)" fill="#1d354f"/>
        <path id="Trazado_116378" data-name="Trazado 116378" d="M171.4,191.14a2.008,2.008,0,0,0-2.493-1.5c-1.331.389-2.695,1.446-2.072,4.227,1.107,4.936,5.837,2.809,5.815,2.667S171.859,193.19,171.4,191.14Z" transform="translate(-90.428 -102.847)" fill="#cd7a64"/>
        <path id="Trazado_116379" data-name="Trazado 116379" d="M173.229,196.836c-.023,0-.073.082-.2.183a.915.915,0,0,1-.64.156c-.567-.073-1.189-.805-1.414-1.688a2.854,2.854,0,0,1-.032-1.286,1.011,1.011,0,0,1,.5-.805.458.458,0,0,1,.558.119c.1.124.087.229.114.233s.092-.105,0-.3a.567.567,0,0,0-.265-.265.654.654,0,0,0-.5,0,1.226,1.226,0,0,0-.727.965,3.015,3.015,0,0,0,0,1.441c.256.988.974,1.807,1.734,1.83a.915.915,0,0,0,.755-.307C173.247,196.959,173.247,196.845,173.229,196.836Z" transform="translate(-92.516 -104.778)" fill="#844436"/>
        <path id="Trazado_116380" data-name="Trazado 116380" d="M184.277,138.118a1.83,1.83,0,0,0-.242-.32,3.243,3.243,0,0,0-2.745-.938,12.525,12.525,0,0,0-1.88-.4,4.4,4.4,0,0,0-7.379,1.089c-.2.069-.4.142-.595.22a4.492,4.492,0,0,0-6.354,3.179,3.262,3.262,0,0,0-2.745,5.352,3.162,3.162,0,0,0-1.217,2.745,1.762,1.762,0,0,0,2.146,1.459,67.223,67.223,0,0,0,1.661,7.617c.421,1.725,2.832,2.338,3.2,3.491,1.921,5.879,3.257,2.173,1.638-10.449.105-.124.215-.252.32-.389a7.989,7.989,0,0,0,.4-.915c.21-.371.732-.366,1.153-.4a3.23,3.23,0,0,0,2.859-2.9,1.377,1.377,0,0,0,1.83-.169,7.219,7.219,0,0,0,1.075-1.706,2.083,2.083,0,0,1,1.542-1.18,4.908,4.908,0,0,0,1.125.032c.645-.178.819-1.006.791-1.67a3.12,3.12,0,0,1,.206-1.656,3.71,3.71,0,0,1,1.194-.6,7.064,7.064,0,0,0,.764-.027,2.394,2.394,0,0,0,.352-.046,4.116,4.116,0,0,1,.485.1c2.4.645,5.179,4.831,5.179,4.831A8.842,8.842,0,0,0,184.277,138.118Z" transform="translate(-87.397 -73.193)" fill="#1d354f"/>
        <path id="Trazado_116381" data-name="Trazado 116381" d="M162.51,151.411a.191.191,0,0,1,.032-.082c.032-.055.059-.128.119-.224a2.845,2.845,0,0,1,.668-.709,3.253,3.253,0,0,1,1.414-.6,2.987,2.987,0,0,1,1.976.339l-.128.069a3.989,3.989,0,0,1,1.583-2.878,5.119,5.119,0,0,1,1.679-.883,6.1,6.1,0,0,1,1.985-.233,10.11,10.11,0,0,1,3.628.915l-.137.073a4.506,4.506,0,0,1,1.793-2.777,4.355,4.355,0,0,1,4.177-.457,3.48,3.48,0,0,1,.412.2c.087.055.133.087.128.091s-.192-.1-.567-.233a4.488,4.488,0,0,0-1.656-.27,4.227,4.227,0,0,0-2.4.805,4.364,4.364,0,0,0-1.7,2.676v.124l-.114-.05a10.114,10.114,0,0,0-3.555-.915,6.084,6.084,0,0,0-1.921.224,4.9,4.9,0,0,0-1.615.842,3.852,3.852,0,0,0-1.537,2.745v.137l-.119-.069a2.841,2.841,0,0,0-1.871-.352,3.152,3.152,0,0,0-1.372.544,3.3,3.3,0,0,0-.906.947Z" transform="translate(-88.165 -77.922)" fill="#dff7f9"/>
        <path id="Trazado_116382" data-name="Trazado 116382" d="M181.016,145.78a1.308,1.308,0,0,1-.05.21,4.02,4.02,0,0,0-.078.608c0,.27,0,.6-.032.988a3.138,3.138,0,0,1-.252,1.313,1.043,1.043,0,0,1-.627.508,3.808,3.808,0,0,1-.855.105,1.688,1.688,0,0,0-.833.22,2.287,2.287,0,0,0-.618.7c-.174.279-.329.586-.5.915a3.623,3.623,0,0,1-.59.915,2.374,2.374,0,0,1-1.02.572,1.794,1.794,0,0,1-.608.073.842.842,0,0,1-.6-.256l.174-.064a2.781,2.781,0,0,1-.64,1.716,3.564,3.564,0,0,1-1.6,1.066,4.387,4.387,0,0,1-.791.178,1.683,1.683,0,0,0-.723.137,1.039,1.039,0,0,0-.457.522,4.754,4.754,0,0,1-.4.659,3.962,3.962,0,0,1-2.333,1.684,3.66,3.66,0,0,1-2.521-.558,3.765,3.765,0,0,1-1.446-1.683l.1.037a1.985,1.985,0,0,1-1.688-.078,1.88,1.88,0,0,1-.855-.952,1.954,1.954,0,0,1-.146-.791,1.327,1.327,0,0,1,.027-.206v-.069a2.178,2.178,0,0,0,.174,1.038,1.793,1.793,0,0,0,.833.878,1.885,1.885,0,0,0,1.578.05l.069-.027.027.064a3.66,3.66,0,0,0,1.4,1.6,3.5,3.5,0,0,0,2.393.512,3.783,3.783,0,0,0,2.2-1.615,4.384,4.384,0,0,0,.384-.631,1.272,1.272,0,0,1,.54-.613,1.121,1.121,0,0,1,.4-.128l.389-.032a4.25,4.25,0,0,0,.75-.174,3.3,3.3,0,0,0,1.51-1,2.785,2.785,0,0,0,.457-.755,2.919,2.919,0,0,0,.16-.837v-.238l.165.174a1.034,1.034,0,0,0,1.006.133,2.205,2.205,0,0,0,.938-.522,3.381,3.381,0,0,0,.563-.883c.174-.311.334-.618.517-.915a2.443,2.443,0,0,1,.673-.746,1.83,1.83,0,0,1,.915-.233,3.842,3.842,0,0,0,.823-.092.915.915,0,0,0,.554-.43,3.01,3.01,0,0,0,.265-1.258c.023-.384.037-.718.064-.988a3.353,3.353,0,0,1,.114-.613.865.865,0,0,1,.1-.188Z" transform="translate(-87.356 -79.089)" fill="#dff7f9"/>
        <path id="Trazado_116383" data-name="Trazado 116383" d="M204.712,198.37a2.767,2.767,0,0,0,1.674,3.157,2,2,0,0,0,2.5-1.322,3.633,3.633,0,0,0,.032-1.716C207.736,198.42,205.9,198.439,204.712,198.37Z" transform="translate(-111.04 -107.62)" fill="#844436"/>
        <path id="Trazado_116384" data-name="Trazado 116384" d="M208.531,200.518a.173.173,0,0,1-.05.1,1.248,1.248,0,0,1-.2.238,1.912,1.912,0,0,1-1.025.508,2.452,2.452,0,0,1-1.661-.339,2.585,2.585,0,0,1-1.121-1.743,2.873,2.873,0,0,1-.027-.558,1.2,1.2,0,0,1,.142-.558.522.522,0,0,1,.256-.2.8.8,0,0,1,.284-.037h.485c.627.032,1.189.091,1.661.142.938.1,1.523.128,1.523.165a6.6,6.6,0,0,1-1.537,0c-.457-.027-1.034-.073-1.656-.091h-.457c-.16,0-.279,0-.343.133a1.057,1.057,0,0,0-.1.457,2.416,2.416,0,0,0,1.029,2.1,2.351,2.351,0,0,0,1.519.352,1.912,1.912,0,0,0,.988-.412C208.426,200.623,208.508,200.5,208.531,200.518Z" transform="translate(-110.915 -107.38)" fill="#1d354f"/>
        <path id="Trazado_116385" data-name="Trazado 116385" d="M273.77,140.281s5.8-.723,14.507-7.654S301.708,115.852,302.7,116s5.43-1.441,11.894,16.991,2.868,22.233,1.258,22.046-12.3-4.277-19.214-4.117-16.071,2.873-16.071,2.873Z" transform="translate(-148.527 -62.931)" fill="#a7e446"/>
        <path id="Trazado_116386" data-name="Trazado 116386" d="M249.554,193.545l3.1-.659-1.674-4.076-2.617,1.308Z" transform="translate(-134.741 -102.434)" fill="#dff7f9"/>
        <path id="Trazado_116387" data-name="Trazado 116387" d="M251.338,174.866l1.144,3.44.714,1.729a4.822,4.822,0,0,0,6.062,2.722l12.571-3.536-5.4-15.911-12.489,5.266A4.826,4.826,0,0,0,251.338,174.866Z" transform="translate(-136.159 -88.6)" fill="#5e9540"/>
        <path id="Trazado_116388" data-name="Trazado 116388" d="M261.62,196.387l4.209,7.461,1.921-.618,13.139,9.808,3.266-7.1s-7.649-2.923-9.15-5.545.082-3.294.082-3.294L271.4,193.23Z" transform="translate(-141.935 -104.832)" fill="#5e9540"/>
        <path id="Trazado_116389" data-name="Trazado 116389" d="M348.015,133.825c3.417,9.978,4.415,18.674,2.223,19.424s-6.743-6.725-10.165-16.7-4.415-18.674-2.223-19.429S344.607,123.847,348.015,133.825Z" transform="translate(-182.66 -63.511)" fill="#5e9540"/>
        <path id="Trazado_116390" data-name="Trazado 116390" d="M342.62,146.665s5.224-2.594,7.3,4.328-3.225,7.53-3.225,7.53A44.737,44.737,0,0,1,342.62,146.665Z" transform="translate(-185.879 -79.311)" fill="#a7e446"/>
        <path id="Trazado_116391" data-name="Trazado 116391" d="M332.784,128.78a6.86,6.86,0,0,0,.073,1.295c.078.828.188,2.031.366,3.513q.215,1.107.457,2.4c.082.43.174.878.261,1.336q.069.343.137.7c.055.233.128.457.192.7.27.952.549,1.949.842,2.978.078.261.151.522.224.782s.188.517.279.778c.192.522.389,1.048.59,1.583s.4,1.061.59,1.583c.105.256.188.522.3.769s.233.494.348.737l1.322,2.8c.11.22.206.457.32.654s.238.416.357.618c.233.407.457.8.682,1.185l1.226,2.109c.837,1.235,1.542,2.21,2.027,2.887a7.01,7.01,0,0,0,.8,1.025,8.147,8.147,0,0,0-.659-1.116l-1.912-2.96-1.176-2.127c-.21-.38-.43-.773-.659-1.176q-.165-.311-.343-.618c-.11-.21-.2-.457-.307-.659l-1.295-2.8c-.11-.242-.224-.485-.339-.732s-.2-.508-.3-.764L336.6,144.7c-.2-.531-.4-1.057-.59-1.574-.092-.256-.206-.508-.275-.769s-.151-.522-.229-.778l-.86-2.955c-.064-.233-.142-.457-.2-.7s-.1-.457-.146-.691c-.1-.457-.192-.915-.279-1.327-.183-.851-.357-1.647-.512-2.374-.21-1.455-.38-2.64-.5-3.481A8.356,8.356,0,0,0,332.784,128.78Z" transform="translate(-180.54 -69.866)" fill="#5e9540"/>
        <path id="Trazado_116392" data-name="Trazado 116392" d="M279.3,198.09a2.375,2.375,0,0,1-.567.178l-1.555.412c-1.318.339-3.134.819-5.137,1.372s-3.811,1.057-5.133,1.372c-.663.165-1.2.288-1.574.366a3.441,3.441,0,0,1-.586.1,2.744,2.744,0,0,1,.572-.178l1.551-.457,5.119-1.45c2-.554,3.824-1.011,5.156-1.308.663-.151,1.2-.265,1.578-.334A3.094,3.094,0,0,1,279.3,198.09Z" transform="translate(-143.633 -107.468)" fill="#a7e446"/>
        <path id="Trazado_116393" data-name="Trazado 116393" d="M270.091,192.41a6.4,6.4,0,0,1-1.226.526c-.773.288-1.83.654-3.051,1.016s-2.31.64-3.111.823a6.511,6.511,0,0,1-1.313.233,8.367,8.367,0,0,1,1.272-.4c.791-.224,1.88-.531,3.083-.888s2.287-.7,3.065-.947A8.341,8.341,0,0,1,270.091,192.41Z" transform="translate(-141.81 -104.387)" fill="#a7e446"/>
        <path id="Trazado_116394" data-name="Trazado 116394" d="M266.773,184.47a34.311,34.311,0,0,1-3.875,1.295,35.114,35.114,0,0,1-3.948,1.071,34.817,34.817,0,0,1,3.875-1.3,35.636,35.636,0,0,1,3.948-1.066Z" transform="translate(-140.486 -100.079)" fill="#a7e446"/>
        <path id="Trazado_116395" data-name="Trazado 116395" d="M263.847,176.82a28.161,28.161,0,0,1-3.3,1.574,28.741,28.741,0,0,1-3.394,1.372,57.46,57.46,0,0,1,6.7-2.946Z" transform="translate(-139.51 -95.929)" fill="#a7e446"/>
        <path id="Trazado_116396" data-name="Trazado 116396" d="M199.719,246.669,192.088,233.8l-19.731-.8v1.793a30.368,30.368,0,0,0-7.146,12.846c-1.322,5.622,4.241,27.078,5.805,34.517,1.921,9.15,4.575,20.715,4.575,20.715-.4,2.049-3.028,3.71-2.846,6.446l43.854-.48-2.255-8.889Z" transform="translate(-89.522 -126.408)" fill="#fc4b52"/>
        <path id="Trazado_116397" data-name="Trazado 116397" d="M227.907,386.669c0,.069-8.724.124-19.488.124s-19.488-.055-19.488-.124,8.724-.119,19.488-.119S227.907,386.6,227.907,386.669Z" transform="translate(-102.499 -209.712)" fill="#c93c41"/>
        <path id="Trazado_116398" data-name="Trazado 116398" d="M221.7,362.624c0,.064-8.646.119-19.31.119s-19.315-.055-19.315-.119,8.646-.124,19.315-.124S221.7,362.555,221.7,362.624Z" transform="translate(-99.325 -196.665)" fill="#c93c41"/>
        <path id="Trazado_116399" data-name="Trazado 116399" d="M216.166,336.479c0,.064-8.463.119-18.9.119s-18.9-.055-18.9-.119,8.463-.119,18.9-.119S216.166,336.41,216.166,336.479Z" transform="translate(-96.764 -182.483)" fill="#c93c41"/>
        <path id="Trazado_116400" data-name="Trazado 116400" d="M210.28,310.169c0,.064-8.719.119-19.47.119s-19.47-.055-19.47-.119,8.692-.119,19.47-.119S210.28,310.1,210.28,310.169Z" transform="translate(-92.956 -168.209)" fill="#c93c41"/>
        <path id="Trazado_116401" data-name="Trazado 116401" d="M202.7,277.529c0,.064-8.235.119-18.423.119s-18.423-.055-18.423-.119,8.235-.119,18.423-.119S202.7,277.46,202.7,277.529Z" transform="translate(-89.978 -150.501)" fill="#c93c41"/>
        <path id="Trazado_116402" data-name="Trazado 116402" d="M200.385,247.629c0,.064-6.094.119-13.605.119s-13.61-.055-13.61-.119,6.094-.119,13.61-.119S200.385,247.565,200.385,247.629Z" transform="translate(-93.949 -134.28)" fill="#c93c41"/>
        <path id="Trazado_116403" data-name="Trazado 116403" d="M177.67,280.24a35.277,35.277,0,0,0,7.2,8.582c4.406,3.66,17.81,10.22,17.81,10.22l1.116-2.315,10,2.338-1.83-6.158Z" transform="translate(-96.39 -152.037)" fill="#c93c41" opacity="0.3"/>
        <path id="Trazado_116404" data-name="Trazado 116404" d="M235.208,241.014l-3.491,18.958-29.9-14.214L197,262.639c11.748,5.746,35.541,15.312,38.6,15.037,4.355-.393,7.365-3,8.719-9.374.837-3.948.457-30.422.457-30.422Z" transform="translate(-106.877 -129.055)" fill="#cd7a64"/>
        <path id="Trazado_116405" data-name="Trazado 116405" d="M191.239,246.447s-11.181-6.908-16.062,1.8c-3.481,8.491.375,15.271,8.985,19.479,4.149,2.031,9.8,4.538,15.513,6.922L208,256.178Z" transform="translate(-94.346 -132.293)" fill="#fc4b52"/>
        <path id="Trazado_116406" data-name="Trazado 116406" d="M191.133,246.385s.11.05.311.165l.888.5,3.376,1.931,12.228,7.054.078.046-.037.078-8.3,18.473-.05.105-.1-.046c-2.928-1.217-5.947-2.516-9.021-3.889q-2.036-.915-4.021-1.83c-1.318-.618-2.617-1.235-3.866-1.917q-.915-.526-1.807-1.1c-.567-.412-1.153-.787-1.67-1.244a16.926,16.926,0,0,1-2.832-2.9l-.572-.814a8.618,8.618,0,0,1-.494-.842,13.726,13.726,0,0,1-.814-1.748c-.11-.3-.183-.608-.274-.915l-.133-.457c-.037-.156-.055-.307-.087-.457-.05-.3-.105-.608-.156-.915s-.037-.6-.059-.915a12.811,12.811,0,0,1,.037-1.78c.046-.581.169-1.148.252-1.706a12.5,12.5,0,0,1,.43-1.615c.151-.526.366-1.02.549-1.514h0a9.149,9.149,0,0,1,2.644-3,8.175,8.175,0,0,1,3.326-1.308,13.267,13.267,0,0,1,5.691.558,21.147,21.147,0,0,1,3.372,1.372c.375.192.65.348.837.457a2.758,2.758,0,0,1,.27.174l-.284-.151c-.192-.1-.457-.247-.846-.43a22.042,22.042,0,0,0-3.381-1.318,13.1,13.1,0,0,0-5.636-.508,7.942,7.942,0,0,0-3.253,1.3,9.021,9.021,0,0,0-2.58,2.951h0c-.174.494-.357.993-.54,1.505s-.279,1.052-.416,1.592a9.684,9.684,0,0,0-.242,1.688,11.755,11.755,0,0,0-.027,1.752c0,.293.027.595.055.892s.105.595.16.915c.027.151.046.3.082.457l.133.457c.092.3.165.6.275.892a13.245,13.245,0,0,0,.8,1.716,8.944,8.944,0,0,0,.49.828l.563.8a16.507,16.507,0,0,0,2.8,2.855,20.364,20.364,0,0,0,1.651,1.231q.869.572,1.793,1.089c1.235.673,2.534,1.295,3.852,1.908s2.663,1.231,4.021,1.83c3.065,1.372,6.084,2.672,9.008,3.893l-.151.059c3.106-6.862,5.947-13.184,8.34-18.455l.041.119-12.183-7.182-3.353-1.976-.874-.522Z" transform="translate(-94.24 -132.231)" fill="#c93c41"/>
        <path id="Trazado_116407" data-name="Trazado 116407" d="M277.2,224.959l.668-7.063s-2.7-5.435-2.644-5.979.21-3.541.21-3.541l6.748-6.075a2.2,2.2,0,0,1,2.242,2.164s2.1-.457,2.127,2.077c0,0,2.287.082,2.338,1.926h0s1.372-.183,1.322,1.743c-.032,1.372-.636,6.684-.636,6.684l-2.823,4.909-.233,4.909Z" transform="translate(-149.312 -109.753)" fill="#cd7a64"/>
        <path id="Trazado_116408" data-name="Trazado 116408" d="M276.632,293.1c-.078.027-.576-1.688-1.6-3.609a39.234,39.234,0,0,0-2.141-3.317,4.576,4.576,0,0,1,.8.851,14.926,14.926,0,0,1,1.551,2.351,15.907,15.907,0,0,1,1.1,2.594A5.034,5.034,0,0,1,276.632,293.1Z" transform="translate(-148.049 -155.254)" fill="#844436"/>
        <path id="Trazado_116409" data-name="Trazado 116409" d="M186.529,244.4a3.96,3.96,0,0,1-.3.645c-.206.407-.512.988-.915,1.7-.773,1.432-1.876,3.39-3.111,5.54l-3.166,5.49-.961,1.665a4.705,4.705,0,0,1-.38.6,3.963,3.963,0,0,1,.3-.645c.206-.4.512-.988.915-1.7.773-1.432,1.871-3.39,3.106-5.54s2.338-4.058,3.166-5.49c.393-.673.718-1.235.965-1.665A4.116,4.116,0,0,1,186.529,244.4Z" transform="translate(-96.406 -132.593)" fill="#c93c41"/>
        <path id="Trazado_116410" data-name="Trazado 116410" d="M204.848,253.13a.851.851,0,0,1-.073.206l-.252.572c-.224.5-.558,1.208-.979,2.082-.842,1.748-2.049,4.14-3.454,6.743s-2.745,4.922-3.751,6.583c-.5.828-.915,1.5-1.208,1.953l-.339.526a1.18,1.18,0,0,1-.133.174,1.309,1.309,0,0,1,.092-.2l.3-.544,1.139-1.995c.961-1.679,2.287-4.012,3.687-6.611s2.635-4.977,3.513-6.707l1.048-2.04.288-.554a.819.819,0,0,1,.119-.188Z" transform="translate(-105.608 -137.329)" fill="#c93c41"/>
        <path id="Trazado_116411" data-name="Trazado 116411" d="M227.436,265.61a4.623,4.623,0,0,1-.275.759c-.188.48-.48,1.171-.855,2.017-.755,1.688-1.871,3.994-3.248,6.464s-2.745,4.63-3.792,6.162c-.522.764-.956,1.372-1.267,1.789a4.9,4.9,0,0,1-.5.631,4.968,4.968,0,0,1,.425-.682l1.2-1.83c1.006-1.551,2.351-3.719,3.728-6.181s2.507-4.753,3.3-6.4l.915-1.985A5.637,5.637,0,0,1,227.436,265.61Z" transform="translate(-117.999 -144.1)" fill="#c93c41"/>
        <path id="Trazado_116412" data-name="Trazado 116412" d="M181.12,407.76l.952-8.473,41.836-.457,1.066,8.93Z" transform="translate(-98.262 -216.375)" fill="#1d354f"/>
        <rect id="Rectángulo_34802" data-name="Rectángulo 34802" width="17.425" height="2.539" rx="1.269" transform="translate(94.858 42.884)" fill="#dff7f9"/>
        <path id="Trazado_116413" data-name="Trazado 116413" d="M251.664,95.012a1.272,1.272,0,1,1-1.272-1.272,1.272,1.272,0,0,1,1.272,1.272Z" transform="translate(-135.153 -50.856)" fill="#dff7f9"/>
        <path id="Trazado_116414" data-name="Trazado 116414" d="M136.086,136.82h1.029v21.227h-1.029a2.836,2.836,0,0,1-2.836-2.836V139.647A2.836,2.836,0,0,1,136.086,136.82Z" transform="translate(-72.291 -74.228)" fill="#1d354f"/>
        <path id="Trazado_116415" data-name="Trazado 116415" d="M135.526,204.24h1.029v21.227h-1.029a2.836,2.836,0,0,1-2.836-2.836V207.076a2.836,2.836,0,0,1,2.836-2.836Z" transform="translate(-71.987 -110.805)" fill="#1d354f"/>
        <g id="Grupo_80365" data-name="Grupo 80365" transform="translate(-83.262 -32.49)">
          <rect id="Rectángulo_34803" data-name="Rectángulo 34803" width="66.553" height="54.036" rx="11.41" transform="translate(0 105.339)" fill="#fff"/>
          <path id="Trazado_116416" data-name="Trazado 116416" d="M64.39,324.08c.681,1.675,13.886,14.059,13.886,14.059V324.08Z" transform="translate(-28.439 -166.359)" fill="#fc4b52"/>
          <path id="Trazado_116417" data-name="Trazado 116417" d="M62.059,247.064a8.336,8.336,0,0,0-4.132-4.936,10.536,10.536,0,0,0-7.091-.653,22.389,22.389,0,0,0-6.6,2.937A10.927,10.927,0,0,0,41.116,247a15.467,15.467,0,0,0-3,7.694,27.194,27.194,0,0,0,1.742,8.8,4.5,4.5,0,0,0,1.965,1.675,17.118,17.118,0,0,0,3.763,4.7q.636-2.038,1.279-4.07Z" transform="translate(-16.834 -129.727)" fill="#1d354f"/>
          <path id="Trazado_116418" data-name="Trazado 116418" d="M75.674,246.922l-3.964-.592c2.3,5.07,3.222,16.795,4.612,22.188,1.39-2.15,4.584-8.671,4.333-11.223S80.347,246.352,75.674,246.922Z" transform="translate(-31.672 -132.019)" fill="#1d354f"/>
          <path id="Trazado_116419" data-name="Trazado 116419" d="M45.72,256.557a6.739,6.739,0,0,1,4.891-6.348l9.012-2.574c3.908-.558,6.7,4.215,7.041,8.146a62.352,62.352,0,0,1,.3,12.283c-.838,6.6-5.846,7.593-5.846,7.593s.089,3.121.14,5.025l-1.446,8.587L47.9,279.125l-2.233-22.49C45.692,256.523,45.715,256.708,45.72,256.557Z" transform="translate(-20.171 -132.575)" fill="#ffc4a3"/>
          <path id="Trazado_116420" data-name="Trazado 116420" d="M78.395,271.463a.843.843,0,0,1-.787.871.8.8,0,0,1-.888-.731.849.849,0,0,1,.782-.877.81.81,0,0,1,.893.737Z" transform="translate(-33.884 -142.792)" fill="#1d354f"/>
          <path id="Trazado_116421" data-name="Trazado 116421" d="M78.96,266.257c-.1.112-.754-.341-1.675-.307s-1.558.5-1.675.391.05-.246.335-.469a2.306,2.306,0,0,1,1.323-.452,2.234,2.234,0,0,1,1.323.385C78.91,266.011,79.01,266.206,78.96,266.257Z" transform="translate(-33.377 -140.45)" fill="#1d354f"/>
          <path id="Trazado_116422" data-name="Trazado 116422" d="M63.775,271.463a.843.843,0,0,1-.787.871.8.8,0,0,1-.888-.731.849.849,0,0,1,.782-.877.81.81,0,0,1,.893.737Z" transform="translate(-27.427 -142.792)" fill="#1d354f"/>
          <path id="Trazado_116423" data-name="Trazado 116423" d="M63.55,266.7c-.106.112-.759-.341-1.675-.307s-1.558.5-1.675.391.05-.246.335-.463a2.3,2.3,0,0,1,1.323-.458,2.234,2.234,0,0,1,1.323.385C63.494,266.451,63.595,266.646,63.55,266.7Z" transform="translate(-26.571 -140.644)" fill="#1d354f"/>
          <path id="Trazado_116424" data-name="Trazado 116424" d="M71.145,274.037a6.3,6.3,0,0,1,1.468-.307c.229-.033.447-.084.48-.246a1.167,1.167,0,0,0-.179-.681l-.737-1.742A30.031,30.031,0,0,1,70.5,266.5a30.72,30.72,0,0,1,2.038,4.416c.251.614.486,1.195.709,1.753a1.323,1.323,0,0,1,.151.9.586.586,0,0,1-.368.352,1.637,1.637,0,0,1-.391.067,5.856,5.856,0,0,1-1.5.045Z" transform="translate(-31.135 -140.927)" fill="#1d354f"/>
          <path id="Trazado_116425" data-name="Trazado 116425" d="M57.62,294.08s2.267,4.467,8.816,3.629l-.039-1.541A16.549,16.549,0,0,1,57.62,294.08Z" transform="translate(-25.449 -153.109)" fill="#ffa275"/>
          <path id="Trazado_116426" data-name="Trazado 116426" d="M62.287,261.014c-.084.246-.988.162-2.049.318s-1.91.48-2.06.262c-.067-.106.078-.341.419-.592a3.607,3.607,0,0,1,3.127-.441C62.119,260.729,62.32,260.9,62.287,261.014Z" transform="translate(-25.688 -138.227)" fill="#1d354f"/>
          <path id="Trazado_116427" data-name="Trazado 116427" d="M78.552,261.294c-.151.212-.782,0-1.535,0s-1.385.184-1.535,0c-.067-.106,0-.313.3-.514a2.205,2.205,0,0,1,2.473,0C78.507,260.964,78.6,261.176,78.552,261.294Z" transform="translate(-33.327 -138.234)" fill="#1d354f"/>
          <path id="Trazado_116428" data-name="Trazado 116428" d="M63.529,247.873a2.887,2.887,0,0,0-2.6-1.563,5.584,5.584,0,0,0-3,.971c-3.847,2.373-5.7,7.889-9.492,10.34-.938.6-2.189.106-2.976.893a2.788,2.788,0,0,0-.8,3.021,9.145,9.145,0,0,1-1.407-2.233,3.1,3.1,0,0,1,.039-2.563c.318-.592.893-1.05,1.039-1.7a7.189,7.189,0,0,0-.112-1.753,3.819,3.819,0,0,1,.558-1.675,17.046,17.046,0,0,1,6.086-6.784,11.166,11.166,0,0,1,5.723-1.675,8.5,8.5,0,0,1,5.544,2.021c.888.782,1.82,1.591,1.4,2.7" transform="translate(-18.991 -130.615)" fill="#1d354f"/>
          <path id="Trazado_116429" data-name="Trazado 116429" d="M44.862,271.872c-.073-.184-3.534-1.323-3.473,2.317.056,3.54,3.607,2.741,3.607,2.641S44.862,271.872,44.862,271.872Z" transform="translate(-18.28 -143.162)" fill="#ffc4a3"/>
          <path id="Trazado_116430" data-name="Trazado 116430" d="M44.58,276.414a.972.972,0,0,1-.162.089.631.631,0,0,1-.463,0,1.547,1.547,0,0,1-.731-1.357,2.15,2.15,0,0,1,.156-.888.726.726,0,0,1,.458-.48.307.307,0,0,1,.363.162c.05.1,0,.167.05.173s.073-.056.045-.207a.413.413,0,0,0-.145-.218.475.475,0,0,0-.346-.084.882.882,0,0,0-.631.558,2.088,2.088,0,0,0-.2.988,1.608,1.608,0,0,0,.927,1.513.687.687,0,0,0,.558-.106C44.575,276.5,44.592,276.42,44.58,276.414Z" transform="translate(-18.981 -144.063)" fill="#ffa275"/>
          <path id="Trazado_116431" data-name="Trazado 116431" d="M45,259.175a1.082,1.082,0,0,0,.212-.128,5.729,5.729,0,0,0,.558-.391,12.25,12.25,0,0,0,1.859-1.792,33.5,33.5,0,0,0,2.233-3.1,27.5,27.5,0,0,1,2.792-3.719A11.057,11.057,0,0,1,54.5,248.5a9.134,9.134,0,0,1,2.01-.977,9.96,9.96,0,0,1,3.73-.558,9.776,9.776,0,0,1,2.529.419c.29.084.508.173.659.223a1.28,1.28,0,0,0,.234.078l-.223-.106a6.122,6.122,0,0,0-.569-.262,8.967,8.967,0,0,0-2.54-.475,9.972,9.972,0,0,0-3.786.558,9.19,9.19,0,0,0-2.049.971,10.894,10.894,0,0,0-1.876,1.563,27.063,27.063,0,0,0-2.792,3.746,37.643,37.643,0,0,1-2.233,3.11,13.328,13.328,0,0,1-1.815,1.815c-.235.19-.435.318-.558.419A1.4,1.4,0,0,0,45,259.175Z" transform="translate(-19.875 -132.24)" fill="#dff7f9"/>
          <path id="Trazado_116432" data-name="Trazado 116432" d="M46.621,266.609a5.455,5.455,0,0,0,.424,2.831,1.871,1.871,0,0,0,2.44.893,2.669,2.669,0,0,0,.949-2.077c.268-2.261.357-4.545.648-6.806Z" transform="translate(-20.575 -138.697)" fill="#1d354f"/>
          <path id="Trazado_116433" data-name="Trazado 116433" d="M64.284,248.537a6.27,6.27,0,0,0-.882-.05,6.1,6.1,0,0,0-2.328.491,7.983,7.983,0,0,0-1.446.8,15.191,15.191,0,0,0-1.48,1.195,18.1,18.1,0,0,0-2.87,3.283c-.436.642-.815,1.3-1.228,1.915a8.779,8.779,0,0,1-1.374,1.636,15.555,15.555,0,0,1-2.931,2.1c-.888.508-1.636.865-2.15,1.117l-.6.274a.972.972,0,0,1-.218.084,1.017,1.017,0,0,1,.2-.117l.558-.313c.508-.268,1.245-.642,2.122-1.156a16.373,16.373,0,0,0,2.9-2.122,8.85,8.85,0,0,0,1.334-1.608c.408-.609.787-1.267,1.223-1.921a17.866,17.866,0,0,1,2.915-3.305,16.185,16.185,0,0,1,1.507-1.195,7.579,7.579,0,0,1,1.485-.793,5.891,5.891,0,0,1,2.384-.441,4.468,4.468,0,0,1,.659.073A1.008,1.008,0,0,1,64.284,248.537Z" transform="translate(-20.661 -132.936)" fill="#dff7f9"/>
          <path id="Trazado_116434" data-name="Trazado 116434" d="M43.223,263.247a1.612,1.612,0,0,1-.307.218l-.882.558-.3.179a.933.933,0,0,1-.385.14.346.346,0,0,1-.24-.045.324.324,0,0,1-.14-.234.8.8,0,0,1,.156-.452c.3-.519.637-1.089.994-1.675l.14.128a3.83,3.83,0,0,1-1.117.6,3.679,3.679,0,0,1-1.262.184,1.116,1.116,0,0,1-.324-.045.413.413,0,0,1-.279-.234.4.4,0,0,1,.045-.357,2.088,2.088,0,0,1,.2-.229,7.091,7.091,0,0,0,1.161-1.552,12.189,12.189,0,0,0,.72-1.647,1.764,1.764,0,0,1-.095.475,6.74,6.74,0,0,1-.5,1.239,6.856,6.856,0,0,1-1.133,1.591c-.128.128-.257.279-.2.385a.494.494,0,0,0,.435.156,3.434,3.434,0,0,0,1.195-.179,3.513,3.513,0,0,0,1.061-.558l.413-.318-.268.447-1.016,1.675a.675.675,0,0,0-.14.352c0,.1.095.156.207.145a1.894,1.894,0,0,0,.631-.285l.91-.5a1.343,1.343,0,0,1,.324-.162Z" transform="translate(-17.339 -137.518)" fill="#dff7f9"/>
          <path id="Trazado_116435" data-name="Trazado 116435" d="M65.568,282.392a1.178,1.178,0,0,1,1.195-.932,1.239,1.239,0,0,1,.972.648,1.53,1.53,0,0,1,.084,1.184v.084a1.345,1.345,0,0,1-1.507.368A1.262,1.262,0,0,1,65.568,282.392Z" transform="translate(-28.952 -147.535)" fill="#ffa275"/>
          <path id="Trazado_116436" data-name="Trazado 116436" d="M68.71,282.9c0-.134-.916-.067-1.63-.8s-.687-1.714-.815-1.714-.162.235-.14.648a2.278,2.278,0,0,0,.631,1.429,1.982,1.982,0,0,0,1.362.614C68.5,283.087,68.721,282.964,68.71,282.9Z" transform="translate(-29.202 -147.062)" fill="#1d354f"/>
          <path id="Trazado_116437" data-name="Trazado 116437" d="M61.57,309.4l-.106-.134c-4.573-4.841-12.992-6.46-12.992-6.46s-.514,3.166-5.232,3.523-8.191-4.467-8.191-4.467l-6.3.882a15.968,15.968,0,0,0-5.142,1.535C19.136,306.9,16.78,315.9,16.78,315.9l48.575.2Z" transform="translate(-7.411 -156.545)" fill="#fc4b52"/>
        </g>
        <g id="Grupo_80364" data-name="Grupo 80364" transform="translate(47.729 -34.526)">
          <rect id="Rectángulo_34804" data-name="Rectángulo 34804" width="75.469" height="61.278" rx="11.46" transform="translate(223.019 171.406) rotate(180)" fill="#fff"/>
          <path id="Trazado_116438" data-name="Trazado 116438" d="M372.56,348.18c-.774,1.874-15.74,15.944-15.74,15.944V348.18Z" transform="translate(-190.313 -178.648)" fill="#a7e446"/>
          <path id="Trazado_116439" data-name="Trazado 116439" d="M369.014,294.115v-3.748s-6.54-.614-7.01-7.093c-.227-3.129-.171-9.62-.05-15.48a12.091,12.091,0,0,1,11.361-11.825l.625-.039c6.772,0,10.559,5.733,10.382,12.5l-.238,25.392-10.946,8.8-.8-.072Z" transform="translate(-192.562 -137.398)" fill="#ffc4a3"/>
          <path id="Trazado_116440" data-name="Trazado 116440" d="M374.79,315.762a15.7,15.7,0,0,0,8.293-3s-1.775,4.86-8.293,4.666Z" transform="translate(-198.348 -162.81)" fill="#ffa275"/>
          <path id="Trazado_116441" data-name="Trazado 116441" d="M381.979,281.5c.127.133.879-.459,1.963-.475s1.891.525,2.007.387-.077-.3-.426-.553a2.715,2.715,0,0,0-1.609-.481,2.621,2.621,0,0,0-1.559.553C382.006,281.2,381.9,281.441,381.979,281.5Z" transform="translate(-201.551 -148.331)" fill="#1d354f"/>
          <path id="Trazado_116442" data-name="Trazado 116442" d="M383.42,287.086a.868.868,0,0,0,.9.829.835.835,0,0,0,.857-.84.879.879,0,0,0-.9-.835.84.84,0,0,0-.851.846Z" transform="translate(-202.207 -150.952)" fill="#1d354f"/>
          <path id="Trazado_116443" data-name="Trazado 116443" d="M374.78,289.266a6.669,6.669,0,0,0-1.659-.194c-.254,0-.5-.044-.553-.216a1.266,1.266,0,0,1,.127-.768c.2-.625.409-1.288.636-1.979a32.806,32.806,0,0,0,1.382-5.169,32.629,32.629,0,0,0-1.8,5.047c-.21.691-.415,1.355-.6,1.99a1.437,1.437,0,0,0-.072,1.006.636.636,0,0,0,.437.348,1.791,1.791,0,0,0,.437.033A6.154,6.154,0,0,0,374.78,289.266Z" transform="translate(-197.183 -148.581)" fill="#1d354f"/>
          <path id="Trazado_116444" data-name="Trazado 116444" d="M382.935,275.475c.105.243.973.072,2.012.144s1.891.3,2.012.077c.055-.111-.105-.337-.453-.553a3.411,3.411,0,0,0-3.068-.166C383.073,275.155,382.891,275.365,382.935,275.475Z" transform="translate(-201.987 -145.788)" fill="#1d354f"/>
          <path id="Trazado_116445" data-name="Trazado 116445" d="M364.543,276.57c.111.2.956,0,1.985-.028s1.874.122,1.985-.083c.05-.094-.116-.271-.475-.431a3.542,3.542,0,0,0-1.509-.271,3.659,3.659,0,0,0-1.515.354C364.659,276.288,364.493,276.476,364.543,276.57Z" transform="translate(-193.763 -146.263)" fill="#1d354f"/>
          <path id="Trazado_116446" data-name="Trazado 116446" d="M402.07,287.008c.105-.055,4.373-1.587,4.5,2.853s-4.362,3.649-4.373,3.522S402.07,287.008,402.07,287.008Z" transform="translate(-210.547 -151.161)" fill="#ffc4a3"/>
          <path id="Trazado_116447" data-name="Trazado 116447" d="M404.667,292.809a1.166,1.166,0,0,0,.21.111.774.774,0,0,0,.58,0,1.916,1.916,0,0,0,.835-1.741,2.5,2.5,0,0,0-.249-1.106.89.89,0,0,0-.6-.58.387.387,0,0,0-.448.227c-.055.127,0,.21-.05.221s-.1-.072-.066-.254a.519.519,0,0,1,.166-.288.553.553,0,0,1,.426-.122,1.106,1.106,0,0,1,.824.663,2.626,2.626,0,0,1,.3,1.233,2,2,0,0,1-1.073,1.946.829.829,0,0,1-.713-.094C404.678,292.914,404.65,292.82,404.667,292.809Z" transform="translate(-211.706 -152.307)" fill="#ffa275"/>
          <path id="Trazado_116448" data-name="Trazado 116448" d="M379.368,300.524c-.05-.111.824-.359,1.448-1.172a4.942,4.942,0,0,0,.63-1.15c.133-.321.232-.52.282-.5s.028.232-.05.581a3.222,3.222,0,0,1-.586,1.294,2.677,2.677,0,0,1-1.144.851C379.606,300.557,379.379,300.563,379.368,300.524Z" transform="translate(-200.395 -156.076)" fill="#1d354f"/>
          <path id="Trazado_116449" data-name="Trazado 116449" d="M387.315,262.951c-.907-1.581-1.106-3.45-1.581-5.2s-1.432-3.577-3.135-4.207h-.039a4.67,4.67,0,0,0-4.7.381,6.077,6.077,0,0,0-4.522-4.788,14.8,14.8,0,0,0-8.033.553,16.568,16.568,0,0,0-5.3,4,22.026,22.026,0,0,0-2.3,2.714l-2.034,6.021,1.659,3.19a6.464,6.464,0,0,0,.321.652h0l1.426,6.7c.122-1.819.072-8.16.188-9.979a10.189,10.189,0,0,0,7.287-3.251c1.006-1.106,1.808-2.46,3.146-3.1,1.73-.829,3.765-.182,5.567.464l-.077-.066a8.048,8.048,0,0,1,2.482,1.841,25.231,25.231,0,0,0,.956,10.7c.166.52.614,1.592,1.106,1.791,1,.4,1.272-.614,1.88-1.144a2.638,2.638,0,0,1,1.819-.42,38.884,38.884,0,0,0,1.277-4.594,4.024,4.024,0,0,0,1.863.149l-.553-1.377a2.211,2.211,0,0,0,.8.37.724.724,0,0,0,.757-.321C387.73,263.675,387.5,263.288,387.315,262.951Z" transform="translate(-189.799 -134.214)" fill="#1d354f"/>
          <path id="Trazado_116450" data-name="Trazado 116450" d="M392.1,259.38a5.421,5.421,0,0,1,.641.6,4.666,4.666,0,0,1,.967,2.162,8.468,8.468,0,0,1,.144,1.659c0,.6-.061,1.233-.116,1.907a17.591,17.591,0,0,0-.077,2.123,7.852,7.852,0,0,0,.133,1.106,2.36,2.36,0,0,0,.442,1.106.989.989,0,0,0,.912.321,1.487,1.487,0,0,0,.829-.453,3.372,3.372,0,0,0,.641-1.659h-.133a5.381,5.381,0,0,0,.768,1.366,1.913,1.913,0,0,0,1.249.7,1.244,1.244,0,0,0,.669-.105,1.114,1.114,0,0,0,.6-1,.786.786,0,0,0-.2-.509l-.072.061a4.251,4.251,0,0,0,1.388,1.067,3.385,3.385,0,0,0,.431.171.482.482,0,0,0,.155.039l-.144-.061c-.1-.044-.243-.1-.42-.194a4.388,4.388,0,0,1-1.327-1.106l-.066.061a.835.835,0,0,1,.028.962.95.95,0,0,1-.415.393,1.106,1.106,0,0,1-.608.088,1.835,1.835,0,0,1-1.161-.663,5.649,5.649,0,0,1-.741-1.338l-.088-.21-.044.221a3.317,3.317,0,0,1-.614,1.57,1.332,1.332,0,0,1-.741.4.818.818,0,0,1-.774-.271,2.144,2.144,0,0,1-.409-1.023,7.471,7.471,0,0,1-.133-1.106,18.672,18.672,0,0,1,.066-2.106c.05-.674.105-1.316.105-1.918a8.22,8.22,0,0,0-.166-1.659,4.566,4.566,0,0,0-1.028-2.178A2.71,2.71,0,0,0,392.1,259.38Z" transform="translate(-206.089 -138.941)" fill="#dff7f9"/>
          <path id="Trazado_116451" data-name="Trazado 116451" d="M355.73,262.461l.055.044.16.122a1.916,1.916,0,0,0,.271.177,3.158,3.158,0,0,0,.392.21,5.734,5.734,0,0,0,2.764.553,7.341,7.341,0,0,0,3.925-1.393,12.716,12.716,0,0,0,3.406-3.826c.481-.774.873-1.576,1.3-2.311a8.845,8.845,0,0,1,1.471-1.952,4.478,4.478,0,0,1,1.88-1.106,3.223,3.223,0,0,1,.99-.1,3.348,3.348,0,0,1,.9.188,3.71,3.71,0,0,1,1.338.829,3.572,3.572,0,0,1,.719.956,4.269,4.269,0,0,1,.321.973v-.265a3.729,3.729,0,0,0-.238-.735,3.687,3.687,0,0,0-.713-.99,3.588,3.588,0,0,0-2.289-1.073,3.1,3.1,0,0,0-1.023.1,4.523,4.523,0,0,0-1.946,1.106,8.612,8.612,0,0,0-1.5,1.974c-.437.746-.829,1.542-1.31,2.311a12.716,12.716,0,0,1-3.356,3.793,7.32,7.32,0,0,1-3.87,1.4,5.888,5.888,0,0,1-2.737-.481C356.029,262.682,355.747,262.439,355.73,262.461Z" transform="translate(-189.826 -135.979)" fill="#dff7f9"/>
          <path id="Trazado_116452" data-name="Trazado 116452" d="M364.072,282.006c.127.133.885-.459,1.968-.47s1.885.525,2,.387-.072-.3-.426-.553a2.709,2.709,0,0,0-1.6-.481,2.654,2.654,0,0,0-1.564.553C364.121,281.7,364.027,281.951,364.072,282.006Z" transform="translate(-193.551 -148.559)" fill="#1d354f"/>
          <path id="Trazado_116453" data-name="Trazado 116453" d="M367.08,287.32a.879.879,0,0,0,.9.835.84.84,0,0,0,.857-.846.874.874,0,0,0-.9-.829.835.835,0,0,0-.857.84Z" transform="translate(-194.901 -151.059)" fill="#1d354f"/>
          <path id="Trazado_116454" data-name="Trazado 116454" d="M355.691,261.2a2.765,2.765,0,0,1-2.305,1.294,6.628,6.628,0,0,1-.967-.282c-.315.194-.243,1.277,0,1.576a5.57,5.57,0,0,0,.68.7,3.653,3.653,0,0,1-3.168-.122,5.562,5.562,0,0,0,3.317,4.461,1.957,1.957,0,0,0,1.786.033,2.256,2.256,0,0,0,.791-1.393,24.547,24.547,0,0,0,.78-5.949Z" transform="translate(-187.232 -139.755)" fill="#1d354f"/>
          <path id="Trazado_116455" data-name="Trazado 116455" d="M344.535,331.29l.116-.149c5.186-5.49,14.733-7.325,14.733-7.325s.586,3.594,5.938,4,9.282-5.053,9.282-5.053l7.143,1a18.078,18.078,0,0,1,5.827,1.741c5.042,2.963,7.74,13.185,7.74,13.185l-55.063.227Z" transform="translate(-182.904 -167.281)" fill="#a7e446"/>
        </g>
      </g>
    </g>
  </g>
</svg>
