<svg xmlns="http://www.w3.org/2000/svg" width="88.333" height="102.146" viewBox="0 0 88.333 102.146">
  <g id="Capa_2" data-name="Capa 2" transform="translate(-5.5 -5.485)">
    <g id="Recursos" transform="translate(7 7.002)">
      <path id="Trazado_158820" data-name="Trazado 158820" d="M121.4,34.883l-4.021-3.518.013-.013L93.074,10.076C87.238,4.967,77.492,6.56,72.393,12.4h0c-5.106,5.836-5.527,15.864.309,20.971l22.744,19.9,5.594,4.895a3.869,3.869,0,0,0,5.093-5.823,3.869,3.869,0,0,0,5.46-.363h0a3.871,3.871,0,0,0-.365-5.46,3.871,3.871,0,0,0,5.46-.365h0a3.867,3.867,0,0,0-.158-5.264,3.869,3.869,0,0,0,5.235-.546h0A3.871,3.871,0,0,0,121.4,34.883Z" transform="translate(-56.64 -7.002)" fill="#f2ddcf"/>
      <path id="Trazado_158821" data-name="Trazado 158821" d="M121.4,34.883l-4.021-3.518.013-.013L93.074,10.076C87.238,4.967,77.492,6.56,72.393,12.4h0c-5.106,5.836-5.527,15.864.309,20.971l22.744,19.9,5.594,4.895a3.869,3.869,0,0,0,5.093-5.823,3.869,3.869,0,0,0,5.46-.363h0a3.871,3.871,0,0,0-.365-5.46,3.871,3.871,0,0,0,5.46-.365h0a3.867,3.867,0,0,0-.158-5.264,3.869,3.869,0,0,0,5.235-.546h0A3.871,3.871,0,0,0,121.4,34.883Z" transform="translate(-56.64 -7.002)" fill="none" stroke="#12263f" stroke-miterlimit="10" stroke-width="3"/>
      <path id="Trazado_158822" data-name="Trazado 158822" d="M272.84,143.29l8.6,7.523a3.865,3.865,0,0,0,5.443-.348" transform="translate(-221.769 -117.108)" fill="none" stroke="#12263f" stroke-miterlimit="10" stroke-width="3"/>
      <path id="Trazado_158823" data-name="Trazado 158823" d="M245.54,159.31" transform="translate(-199.714 -130.05)" fill="#ecccbe"/>
      <path id="Trazado_158824" data-name="Trazado 158824" d="M246.48,173.43l8.6,7.523a3.871,3.871,0,0,0,5.444-.348" transform="translate(-200.473 -141.458)" fill="none" stroke="#12263f" stroke-miterlimit="10" stroke-width="3"/>
      <path id="Trazado_158825" data-name="Trazado 158825" d="M220,203.75l8.6,7.521a3.869,3.869,0,0,0,5.444-.346" transform="translate(-179.08 -165.953)" fill="#f2ddcf"/>
      <path id="Trazado_158826" data-name="Trazado 158826" d="M220,203.75l8.6,7.521a3.869,3.869,0,0,0,5.444-.346" transform="translate(-179.08 -165.953)" fill="none" stroke="#12263f" stroke-miterlimit="10" stroke-width="3"/>
      <rect id="Rectángulo_40531" data-name="Rectángulo 40531" width="7.744" height="12.364" rx="3.872" transform="matrix(0.658, 0.753, -0.753, 0.658, 42.631, 39.722)" fill="#c6a495" stroke="#12263f" stroke-miterlimit="10" stroke-width="3"/>
      <rect id="Rectángulo_40532" data-name="Rectángulo 40532" width="7.744" height="12.364" rx="3.872" transform="matrix(0.658, 0.753, -0.753, 0.658, 37.532, 33.9)" fill="#c6a495" stroke="#12263f" stroke-miterlimit="10" stroke-width="3"/>
      <rect id="Rectángulo_40533" data-name="Rectángulo 40533" width="7.744" height="12.364" rx="3.872" transform="matrix(0.658, 0.753, -0.753, 0.658, 32.443, 28.068)" fill="#c6a495" stroke="#12263f" stroke-miterlimit="10" stroke-width="3"/>
      <rect id="Rectángulo_40534" data-name="Rectángulo 40534" width="7.744" height="12.364" rx="3.872" transform="matrix(0.66, 0.75, -0.75, 0.66, 27.491, 22.236)" fill="#c6a495" stroke="#12263f" stroke-miterlimit="10" stroke-width="3"/>
      <path id="Trazado_158827" data-name="Trazado 158827" d="M206.937,12.791h0c-5.1-5.842-14.962-7.581-20.8-2.476l-6.211,5.418h0l-1.374,1.2-5.667,4.947h0L167.67,26.43l.974,1.116c4.983,5.012,14.433-1.362,17.338-2.5,1.385-.546,3.1-.715,5.773,1.473,2.507,2.054,5.4,4.716,9.75,8.549a4.017,4.017,0,0,1,1.193,1.754l3.792-3.195C212.328,28.528,212.036,18.633,206.937,12.791Z" transform="translate(-136.804 -7.241)" fill="#d1b5aa" stroke="#12263f" stroke-miterlimit="10" stroke-width="3"/>
      <path id="Trazado_158828" data-name="Trazado 158828" d="M193.523,474.84a8.753,8.753,0,0,0-8.753,8.753h17.505A8.753,8.753,0,0,0,193.523,474.84Z" transform="translate(-150.619 -384.964)" fill="#fc4b52" stroke="#12263f" stroke-miterlimit="10" stroke-width="3"/>
      <circle id="Elipse_5126" data-name="Elipse 5126" cx="5.12" cy="5.12" r="5.12" transform="matrix(0.231, -0.973, 0.973, 0.231, 36.74, 88.403)" fill="#fc4b52" stroke="#12263f" stroke-miterlimit="10" stroke-width="3"/>
      <path id="Trazado_158829" data-name="Trazado 158829" d="M368.813,474.84a8.753,8.753,0,0,0-8.753,8.753h17.507a8.753,8.753,0,0,0-8.755-8.753Z" transform="translate(-292.234 -384.964)" fill="#a7e446" stroke="#12263f" stroke-miterlimit="10" stroke-width="3"/>
      <circle id="Elipse_5127" data-name="Elipse 5127" cx="5.12" cy="5.12" r="5.12" transform="matrix(0.231, -0.973, 0.973, 0.231, 70.412, 88.404)" fill="#a7e446" stroke="#12263f" stroke-miterlimit="10" stroke-width="3"/>
      <path id="Trazado_158830" data-name="Trazado 158830" d="M16.221,475A9.221,9.221,0,0,0,7,484.221H25.456A9.221,9.221,0,0,0,16.221,475Z" transform="translate(-7 -385.093)" fill="#a7e446" stroke="#12263f" stroke-miterlimit="10" stroke-width="3"/>
      <circle id="Elipse_5128" data-name="Elipse 5128" cx="5.398" cy="5.398" r="5.398" transform="matrix(0.231, -0.973, 0.973, 0.231, 2.731, 88.39)" fill="#a7e446" stroke="#12263f" stroke-miterlimit="10" stroke-width="3"/>
      <rect id="Rectángulo_40535" data-name="Rectángulo 40535" width="70.885" height="3.535" rx="1.767" transform="translate(7.462 63.876)" fill="#12263f"/>
      <rect id="Rectángulo_40536" data-name="Rectángulo 40536" width="20.337" height="3.535" rx="1.767" transform="translate(44.671 55.41) rotate(90)" fill="#12263f"/>
      <rect id="Rectángulo_40537" data-name="Rectángulo 40537" width="11.87" height="3.535" rx="1.767" transform="translate(10.994 63.876) rotate(90)" fill="#12263f"/>
      <rect id="Rectángulo_40538" data-name="Rectángulo 40538" width="11.87" height="3.535" rx="1.767" transform="translate(78.346 63.876) rotate(90)" fill="#12263f"/>
    </g>
  </g>
</svg>
