<svg xmlns="http://www.w3.org/2000/svg" width="400" height="366" viewBox="0 0 400 366">
  <g id="Grupo_115820" data-name="Grupo 115820" transform="translate(-600 -1286)">
    <g id="Speech_Bubble" data-name="Speech Bubble" transform="translate(603.288 1498)">
      <path id="Trazado_113845" data-name="Trazado 113845" d="M77,154A76.89,76.89,0,0,1,15.528,30.777C11.956,19.888,5.954,0,5.954,0S24.559,8.485,34.2,12.98A75.846,75.846,0,0,1,77,0a77,77,0,0,1,0,154Z" fill="#ebebeb"/>
    </g>
    <g id="Speech_Bubble-2" data-name="Speech Bubble" transform="translate(846 1286)">
      <path id="Trazado_113845-2" data-name="Trazado 113845" d="M77,154A76.89,76.89,0,0,0,138.472,30.777C142.044,19.888,148.046,0,148.046,0s-18.6,8.485-28.247,12.98A75.846,75.846,0,0,0,77,0a77,77,0,0,0,0,154Z" fill="#ebebeb"/>
    </g>
    <path id="Trazado_113712" data-name="Trazado 113712" d="M465.133,4.3h75.478L525.847,14.8V23.56A16.332,16.332,0,0,1,509.4,39.766H462.032A16.332,16.332,0,0,1,445.58,23.56h0A19.4,19.4,0,0,1,465.133,4.3Z" transform="translate(409.078 1388.186)" fill="#feca2e"/>
    <path id="Trazado_158682" data-name="Trazado 158682" d="M490.641,4.3H664.58L630.557,28.5V48.685a37.638,37.638,0,0,1-37.914,37.349H483.494A37.638,37.638,0,0,1,445.58,48.685h0A44.716,44.716,0,0,1,490.641,4.3Z" transform="translate(154.42 1285.701)" fill="#ebebeb"/>
    <path id="Trazado_158683" data-name="Trazado 158683" d="M619.519,86.034H445.58l34.023-24.2V41.649A37.638,37.638,0,0,1,517.518,4.3H626.666A37.638,37.638,0,0,1,664.58,41.649h0A44.716,44.716,0,0,1,619.519,86.034Z" transform="translate(335.42 1565.965)" fill="#ebebeb"/>
    <path id="Trazado_113713" data-name="Trazado 113713" d="M520.658,23.766c0,.084-12.573.156-28.139.156s-28.139-.072-28.139-.156,12.573-.156,28.139-.156S520.658,23.682,520.658,23.766Z" transform="translate(401.533 1383.436)" fill="#12263f"/>
    <path id="Trazado_113714" data-name="Trazado 113714" d="M520.658,33.506c0,.09-12.573.156-28.139.156s-28.139-.066-28.139-.156,12.573-.156,28.139-.156S520.658,33.422,520.658,33.506Z" transform="translate(401.533 1381.768)" fill="#12263f"/>
    <g id="Grupo_115732" data-name="Grupo 115732" transform="translate(670.384 1524.747)">
      <path id="Trazado_113715" data-name="Trazado 113715" d="M227.122,304.35H137.79l14.548,10.5v20.655a4.317,4.317,0,0,0,4.317,4.317h70.467a4.317,4.317,0,0,0,4.317-4.317v-26.84A4.317,4.317,0,0,0,227.122,304.35Z" transform="translate(-137.79 -304.35)" fill="#feca2e"/>
      <path id="Trazado_113716" data-name="Trazado 113716" d="M240.419,328.636c0,.084-13.471.156-30.085.156s-30.085-.072-30.085-.156,13.465-.156,30.085-.156S240.419,328.546,240.419,328.636Z" transform="translate(-154.829 -314.033)" fill="#12263f"/>
      <path id="Trazado_113717" data-name="Trazado 113717" d="M240.419,341.9c0,.09-13.471.156-30.085.156s-30.085-.066-30.085-.156,13.465-.156,30.085-.156S240.419,341.8,240.419,341.9Z" transform="translate(-154.829 -319.354)" fill="#12263f"/>
    </g>
    <g id="Character_2" data-name="Character 2" transform="translate(810.293 1444.273)">
      <rect id="Rect치ngulo_34480" data-name="Rect치ngulo 34480" width="150.974" height="131.522" rx="38.79" transform="translate(16.162 22.697)" fill="#e8505b"/>
      <path id="Uni칩n_19" data-name="Uni칩n 19" d="M38.789,131.521A38.789,38.789,0,0,1,0,92.731V38.789A38.789,38.789,0,0,1,38.789,0h73.393a38.789,38.789,0,0,1,38.79,38.79v7.064h22.571L150.972,68.417V92.731a38.789,38.789,0,0,1-38.79,38.79Z" transform="translate(16.163 22.697)" fill="#a7e446"/>
      <path id="Trazado_113720" data-name="Trazado 113720" d="M363.731,220.189l-9.477-10.777c-2.562-2.562-3.443-3.8-2.928-4.245.682-.6.389-.4,5.712,3.592,0,0-7.544-5.765-4.927-5.8a10.468,10.468,0,0,1,3.113,1.64c-1.868-1.587-2.395-2.652-2.03-3.167.6-.88,5.221,2.317,7.346,3.862a51.485,51.485,0,0,1-5.628-4.6c-.8-1.072.82-.988,2.137-.539,1.479.509,9.651,4.676,12.07,5.753a1.563,1.563,0,0,0,2.251-.76c.892-3.742,3.592-6.185,4.622-6.5s1.826,1.006,1.09,1.958a14.232,14.232,0,0,0-1.593,3.556,9.078,9.078,0,0,0-.485,3.065c0,1.2.084,2.233.162,3.1l8.663,11.884-14.488,8.382Z" transform="translate(-351.185 -137.425)" fill="#b78876"/>
      <path id="Trazado_113721" data-name="Trazado 113721" d="M361.659,214.575c-.1.138-1.8-1.024-3.76-2.586s-3.5-2.934-3.383-3.065,1.8,1.036,3.76,2.592S361.76,214.437,361.659,214.575Z" transform="translate(-352.519 -141.564)" fill="#aa6550"/>
      <path id="Trazado_113722" data-name="Trazado 113722" d="M364.168,211.5c-.1.138-1.958-.994-4.191-2.532a20.922,20.922,0,0,1-3.82-2.993,22.105,22.105,0,0,1,4.191,2.526A19.661,19.661,0,0,1,364.168,211.5Z" transform="translate(-353.179 -140.382)" fill="#aa6550"/>
      <path id="Trazado_113723" data-name="Trazado 113723" d="M366.669,208.387a17.646,17.646,0,0,1-3.981-2.329,18.094,18.094,0,0,1-3.64-2.826,35.261,35.261,0,0,1,7.621,5.155Z" transform="translate(-354.339 -139.279)" fill="#aa6550"/>
      <path id="Trazado_113724" data-name="Trazado 113724" d="M384.383,221l34.533,43.795-7.909,18.41s-9.471-2.1-12.345-6.089-26.522-47.9-26.522-47.9Z" transform="translate(-359.594 -146.414)" fill="#b78876"/>
      <path id="Trazado_113725" data-name="Trazado 113725" d="M533.743,118.61c2.485,2.155,2.479,5.951,2.191,9.226s-.509,7.011,1.76,9.388c1.874,1.964,5.268,2.826,5.7,5.5a3.077,3.077,0,0,1-5.095,2.8,5.335,5.335,0,0,1-1.6,6.035c-1.832,1.281-4.9.491-5.472-1.67a2.712,2.712,0,1,1-5.322.97" transform="translate(-421.298 -105.325)" fill="#12263f"/>
      <path id="Trazado_113726" data-name="Trazado 113726" d="M472.6,135.991a3.269,3.269,0,1,1-6.023-2.521c.6-1.245,1.916-2.143,2.048-3.5.156-1.652-1.527-2.832-3.023-3.55s-3.239-1.652-3.4-3.3,1.269-2.832,2.461-3.9,2.395-2.712,1.634-4.137c-.377-.724-1.161-1.144-1.67-1.8a3.563,3.563,0,0,1,.9-4.79,6.634,6.634,0,0,1,5.191-.952,49.865,49.865,0,0,1,5.2,1.575,21.655,21.655,0,0,0,17.3-2.275" transform="translate(-395.731 -100.602)" fill="#12263f"/>
      <path id="Trazado_113727" data-name="Trazado 113727" d="M486.782,173.493a12.016,12.016,0,0,0,14.123-9.22l8.5-38.951a17.284,17.284,0,0,0-13.333-20.895l-.886-.132a17.41,17.41,0,0,0-19.488,13.321c-1.892,8.226-3.874,17.332-4.472,21.8-1.239,9.256,7.783,12.046,7.783,12.046l-1.622,7.783a12.022,12.022,0,0,0,9.4,14.243Z" transform="translate(-399.309 -99.506)" fill="#b78876"/>
      <path id="Trazado_113728" data-name="Trazado 113728" d="M481.54,136.2a1.335,1.335,0,0,0,1.078,1.515,1.275,1.275,0,0,0,1.533-.988,1.329,1.329,0,0,0-1.072-1.521,1.281,1.281,0,0,0-1.539.994Z" transform="translate(-403.49 -111.973)" fill="#12263f"/>
      <path id="Trazado_113729" data-name="Trazado 113729" d="M480.989,134.009c.138.2,1.245-.4,2.67-.186s2.353,1.078,2.533.922c.09-.066-.036-.4-.437-.8a3.664,3.664,0,0,0-2.012-.976,3.478,3.478,0,0,0-2.155.365C481.1,133.632,480.911,133.919,480.989,134.009Z" transform="translate(-403.269 -111.073)" fill="#12263f"/>
      <path id="Trazado_113730" data-name="Trazado 113730" d="M504.729,140.053a1.329,1.329,0,0,0,1.078,1.515,1.275,1.275,0,0,0,1.533-.988,1.335,1.335,0,0,0-1.078-1.521,1.275,1.275,0,0,0-1.533.994Z" transform="translate(-412.796 -113.518)" fill="#12263f"/>
      <path id="Trazado_113731" data-name="Trazado 113731" d="M504.23,137.885c.138.2,1.245-.4,2.664-.186s2.359,1.072,2.538.922c.084-.066-.036-.4-.443-.8a3.664,3.664,0,0,0-2-.952,3.526,3.526,0,0,0-2.155.359C504.35,137.532,504.158,137.8,504.23,137.885Z" transform="translate(-412.596 -112.638)" fill="#12263f"/>
      <path id="Trazado_113732" data-name="Trazado 113732" d="M490.727,147.049a9.818,9.818,0,0,0-2.245-.754c-.359-.09-.688-.21-.712-.467a1.88,1.88,0,0,1,.4-1.042q.712-1.239,1.479-2.6a50.92,50.92,0,0,0,3.466-6.873,50.754,50.754,0,0,0-4.011,6.586l-1.437,2.628a2.125,2.125,0,0,0-.4,1.395.922.922,0,0,0,.521.6,2.55,2.55,0,0,0,.6.174,9.545,9.545,0,0,0,2.341.359Z" transform="translate(-405.793 -112.025)" fill="#12263f"/>
      <path id="Trazado_113733" data-name="Trazado 113733" d="M505,128.719c.084.407,1.533.431,3.167.88s2.916,1.1,3.191.778c.12-.15-.06-.545-.545-1a5.7,5.7,0,0,0-4.843-1.263C505.309,128.27,504.956,128.527,505,128.719Z" transform="translate(-412.909 -109.094)" fill="#12263f"/>
      <path id="Trazado_113734" data-name="Trazado 113734" d="M482.845,127.23c.2.359,1.227.168,2.395.329s2.143.533,2.395.228c.126-.15,0-.5-.371-.862a3.3,3.3,0,0,0-1.88-.814,3.347,3.347,0,0,0-2.012.365C482.928,126.739,482.755,127.051,482.845,127.23Z" transform="translate(-404.011 -108.324)" fill="#12263f"/>
      <path id="Trazado_113735" data-name="Trazado 113735" d="M520.79,117.019l.042.048a7.328,7.328,0,0,1,2.012,5.095v.192c0,2.688-.485,5.358-.479,8.046a12.111,12.111,0,0,0,2.2,7.6c.689.862,2.03,1.581,2.814.8a2.281,2.281,0,0,0,.509-1.155c1.425-6.292,3.987-11.687,4.951-18.344a5.67,5.67,0,0,0-1.658-4.909c-1.245-1.2-2.8-2.485-4.454-1.982s-4.083,3.113-5.466,4.191" transform="translate(-419.248 -102.794)" fill="#12263f"/>
      <path id="Trazado_113736" data-name="Trazado 113736" d="M527.708,145.734c.168-.042,6.628-.946,5.5,5.34s-7.184,3.862-7.184,3.676S527.708,145.734,527.708,145.734Z" transform="translate(-421.347 -116.183)" fill="#b78876"/>
      <path id="Trazado_113737" data-name="Trazado 113737" d="M529.933,154.228a2.285,2.285,0,0,0,.263.216,1.12,1.12,0,0,0,.82.162,2.754,2.754,0,0,0,1.688-2.209,3.688,3.688,0,0,0,0-1.622,1.305,1.305,0,0,0-.7-1,.6.6,0,0,0-.7.186c-.114.162-.1.293-.132.3s-.114-.132,0-.383a.718.718,0,0,1,.317-.347.844.844,0,0,1,.635-.054,1.575,1.575,0,0,1,.97,1.2,3.783,3.783,0,0,1,.066,1.8,2.889,2.889,0,0,1-2.083,2.431,1.2,1.2,0,0,1-.976-.347C529.915,154.384,529.909,154.234,529.933,154.228Z" transform="translate(-422.913 -117.696)" fill="#aa6550"/>
      <path id="Trazado_113738" data-name="Trazado 113738" d="M506.122,107.244c1.928-2.3-1.8-6.586-4.79-7.993s-7.31-.521-10.561.054c-2.054.359-4.137.982-6.185.6a13.92,13.92,0,0,1-3.856-1.6,10.334,10.334,0,0,0-3.927-1.389,3.85,3.85,0,0,0-3.634,1.616,2.414,2.414,0,0,0,1.126,3.46,3.137,3.137,0,1,0-1.67,5.628c-.8-.808-2.341.114-2.395,1.251a3.315,3.315,0,0,0,1.8,2.706c2.461,1.545,5.586,1.622,8.448,1.108s5.6-1.581,8.454-2.167,7.633-1.694,10.208-.341c1.892.994,2.934,3.592,4.137,3.239a3.915,3.915,0,0,0,2.395-2.544,11.459,11.459,0,0,0,.4-3.592" transform="translate(-398.569 -96.611)" fill="#12263f"/>
      <path id="Trazado_113739" data-name="Trazado 113739" d="M543.49,144.59a.97.97,0,0,0,.329-.144,1.839,1.839,0,0,0,.683-.778,2.724,2.724,0,0,0,.2-1.622,3.263,3.263,0,0,0-1.126-1.85,8.382,8.382,0,0,0-2.269-1.323,14.735,14.735,0,0,1-2.652-1.281,5.292,5.292,0,0,1-1.922-2.5,8.753,8.753,0,0,1-.557-3.4c.06-2.395.724-4.64.886-6.753a8.928,8.928,0,0,0-1.006-5.466,5.1,5.1,0,0,0-2.993-2.245,3.5,3.5,0,0,0-1.024-.1,1.322,1.322,0,0,0-.353.054,5.221,5.221,0,0,1,1.347.168,5.053,5.053,0,0,1,2.826,2.245,8.613,8.613,0,0,1,.91,5.322c-.209,2.066-.85,4.311-.922,6.771a9.01,9.01,0,0,0,.6,3.526,5.592,5.592,0,0,0,2.054,2.622,14.714,14.714,0,0,0,2.712,1.281,8.2,8.2,0,0,1,2.221,1.245,3.143,3.143,0,0,1,1.1,1.712,2.634,2.634,0,0,1-.144,1.539A2.059,2.059,0,0,1,543.49,144.59Z" transform="translate(-423.622 -104.728)" fill="#455a64"/>
      <path id="Trazado_113740" data-name="Trazado 113740" d="M473.692,104.862a1.24,1.24,0,0,0-.275-.144,1.8,1.8,0,0,0-.347-.138,2.509,2.509,0,0,0-.509-.132,3.79,3.79,0,0,0-3.173.97h0a5.089,5.089,0,0,0-1.126,3.748,6.226,6.226,0,0,0,2.311,4.269,9.663,9.663,0,0,0,5.233,2.107,21.552,21.552,0,0,0,6.214-.383,28.085,28.085,0,0,0,9.16-3.538,28.246,28.246,0,0,1,3.778-1.964,10.244,10.244,0,0,1,3.592-.736,10.717,10.717,0,0,1,5.161,1.2,18.967,18.967,0,0,1,1.67,1.054,7.431,7.431,0,0,0-1.61-1.161,10.555,10.555,0,0,0-5.227-1.341,10.321,10.321,0,0,0-3.688.718,27.536,27.536,0,0,0-3.826,1.952,28.14,28.14,0,0,1-9.076,3.478,21.2,21.2,0,0,1-6.125.389,9.381,9.381,0,0,1-5.083-2.012,5.987,5.987,0,0,1-2.251-4.071,4.88,4.88,0,0,1,1.03-3.592h0a3.748,3.748,0,0,1,3.029-1.006A7.186,7.186,0,0,1,473.692,104.862Z" transform="translate(-398.157 -99.623)" fill="#455a64"/>
      <path id="Trazado_113741" data-name="Trazado 113741" d="M483.2,96.42a3.645,3.645,0,0,0,.222,1.419,5.987,5.987,0,0,0,2.479,2.993,7.55,7.55,0,0,0,2.509,1.036,10.638,10.638,0,0,0,3.113.168,42.108,42.108,0,0,0,6.909-1.545,13.97,13.97,0,0,1,6.909-.4,9.046,9.046,0,0,1,4.694,3.047,9.334,9.334,0,0,1,1.8,3.377c.24.88.269,1.395.311,1.389a2.853,2.853,0,0,0,0-.371,7.586,7.586,0,0,0-.174-1.048,9.027,9.027,0,0,0-1.742-3.49,9.148,9.148,0,0,0-4.79-3.185,13.953,13.953,0,0,0-7.059.365,43.759,43.759,0,0,1-6.855,1.563,10.544,10.544,0,0,1-3.035-.132,7.453,7.453,0,0,1-2.443-.97,5.933,5.933,0,0,1-2.479-2.838,8.516,8.516,0,0,1-.365-1.383Z" transform="translate(-404.161 -96.42)" fill="#455a64"/>
      <path id="Trazado_113742" data-name="Trazado 113742" d="M488.19,162.189a6.771,6.771,0,0,0,.485,1.8,2.2,2.2,0,0,0,1.347,1.2,1.964,1.964,0,0,0,1.8-.545,3.161,3.161,0,0,0,.844-1.76c.1-.6,0-1.347-.6-1.539a1.461,1.461,0,0,0-.736,0l-3.317.6" transform="translate(-406.093 -122.453)" fill="#aa6550"/>
      <path id="Trazado_113743" data-name="Trazado 113743" d="M488.445,164.628a4.37,4.37,0,0,0,1.652.311,2.347,2.347,0,0,0,1.545-.706,2.485,2.485,0,0,0,.665-1.928,2.228,2.228,0,0,0-.12-.533c-.078-.162-.054-.144-.192-.168a1.674,1.674,0,0,0-.533.036l-.557.042c-.719.054-1.365.09-1.91.12a5.61,5.61,0,0,1-1.8,0,5.718,5.718,0,0,1,1.742-.365c.539-.072,1.2-.156,1.9-.239l.551-.06a5.517,5.517,0,0,1,.6-.048.7.7,0,0,1,.437.15.952.952,0,0,1,.245.365,2.844,2.844,0,0,1-.7,3.023,2.676,2.676,0,0,1-1.9.736,2.539,2.539,0,0,1-1.305-.359A1.242,1.242,0,0,1,488.445,164.628Z" transform="translate(-405.768 -122.372)" fill="#12263f"/>
      <path id="Trazado_113744" data-name="Trazado 113744" d="M483.915,183.23s6.035,2.293,11.908.629c0,0-4.43,3.712-12.513,2.287Z" transform="translate(-404.207 -131.257)" fill="#aa6550"/>
      <path id="Trazado_113745" data-name="Trazado 113745" d="M483.267,321.376a6.4,6.4,0,0,1-.826-.629c-.257-.216-.6-.473-.964-.742s-.808-.6-1.317-.934-1.036-.688-1.652-1.03-1.269-.7-1.97-1.06a30.725,30.725,0,0,0-9.771-2.922c-.784-.084-1.527-.174-2.227-.2s-1.353-.048-1.946-.042-1.138.036-1.611.054-.88.054-1.2.1a7.278,7.278,0,0,1-1.036.072,6.206,6.206,0,0,1,1.024-.2,11.975,11.975,0,0,1,1.2-.144c.473-.036,1.012-.1,1.616-.1s1.257-.036,1.964,0,1.461.1,2.251.168a29.457,29.457,0,0,1,9.867,2.952c.7.371,1.377.712,1.97,1.1s1.156.724,1.646,1.072.922.683,1.3.976.688.557.934.784a6.96,6.96,0,0,1,.748.73Z" transform="translate(-394.351 -183.568)" fill="#fafafa"/>
      <path id="Trazado_113746" data-name="Trazado 113746" d="M414.735,249.858l4.909-21.272c1.88-8,4.107-15.686,7.849-16.6v2.473l-1.6,60.78s-10,11.375-22.75,5.059c-3.987-1.976-11.261-15.9-11.261-15.9s-16.9-30.2-16.2-31.575,11.046-14.7,12.1-15.363Z" transform="translate(-361.005 -142.799)" fill="#fc4b52"/>
      <path id="Trazado_113747" data-name="Trazado 113747" d="M498.467,201.109c9.759,1.874,20.745,7.568,25.8,22.152,1.85,5.322,15.285,44.6,15.285,44.6l-22.912-.479-3.73-8.094,1.8,13.135,1.551,18.739-57.834.946.407-28.235.557-56.152s.647-.856,10.627-6.358C476.207,197.954,498.467,201.109,498.467,201.109Z" transform="translate(-394.219 -137.899)" fill="#fc4b52"/>
      <g id="Grupo_80130" data-name="Grupo 80130" transform="translate(110.026 100.731)" opacity="0.2">
        <path id="Trazado_113748" data-name="Trazado 113748" d="M534.984,264.67c.952,11.86,2.042,15.518,2.993,27.372a10.6,10.6,0,0,0,.6,3.3,3.55,3.55,0,0,0,2.395,2.179c1.688.341,3.88,1.563,4.352-.09l-1.6-11.417a22.52,22.52,0,0,0-1.581-4.82c-3.55-7.885-4.861-8.346-7.184-16.524" transform="translate(-534.96 -264.67)"/>
      </g>
      <path id="Trazado_113749" data-name="Trazado 113749" d="M477.78,203.055l.192-1.233,1.85-11.83a1.365,1.365,0,0,1,1.473-1.155l22.78,1.892a2.616,2.616,0,0,1,2.395,2.8l-.509,6.873-7.095,9.286-10.244,1.6" transform="translate(-401.988 -133.505)" fill="#fc4b52"/>
      <path id="Trazado_113750" data-name="Trazado 113750" d="M458.566,249.74c.09,0,.156,9.268.156,20.7s-.066,20.7-.156,20.7-.156-9.262-.156-20.7S458.482,249.74,458.566,249.74Z" transform="translate(-394.215 -157.948)" fill="#263238"/>
      <path id="Trazado_113751" data-name="Trazado 113751" d="M544.459,278.814a.65.65,0,0,1-.072-.138c-.054-.108-.114-.239-.192-.407l-.694-1.575-2.5-5.813-8.136-19.224-4.448-10.6a20.016,20.016,0,0,1-1.473-4.79,26.416,26.416,0,0,1-.4-4.371,17.643,17.643,0,0,1,.91-6.268l.185-.5c.078-.144.144-.287.21-.419a4.191,4.191,0,0,1,.359-.635l.251-.371.1-.12a12.041,12.041,0,0,0-.988,2.083,18.1,18.1,0,0,0-.8,6.215,22.75,22.75,0,0,0,1.91,9.07l4.472,10.591,8.029,19.248c1.006,2.455,1.826,4.448,2.395,5.849l.641,1.6.162.419a.6.6,0,0,1,.078.15Z" transform="translate(-421.556 -147.454)" fill="#263238"/>
      <path id="Trazado_113752" data-name="Trazado 113752" d="M502.686,205.42a6.41,6.41,0,0,1-.664.6,10.042,10.042,0,0,1-2.185,1.275,16.4,16.4,0,0,1-3.844,1.078,46.267,46.267,0,0,1-5.269.521c-1.964.09-4.107.048-6.406.1a29.629,29.629,0,0,0-7.244.88,13.435,13.435,0,0,0-6.819,3.993,9.4,9.4,0,0,0-1.892,3.736,8.023,8.023,0,0,0,.072,4.287,6.841,6.841,0,0,0,1,1.91,5.047,5.047,0,0,0,1.616,1.365,3.472,3.472,0,0,0,2,.419,2.736,2.736,0,0,0,1.76-.9,4.753,4.753,0,0,0,.886-3.79,6.271,6.271,0,0,0-.6-1.868,8.866,8.866,0,0,0-1.06-1.6,11.291,11.291,0,0,0-6.143-3.64,13.039,13.039,0,0,0-6.28.072,17.049,17.049,0,0,0-4.79,2.06,22.44,22.44,0,0,0-3.185,2.365c-.82.724-1.4,1.341-1.8,1.754l-.443.479-.162.156a19.758,19.758,0,0,1,2.335-2.479,21.586,21.586,0,0,1,3.173-2.425,17.2,17.2,0,0,1,4.849-2.125,13.256,13.256,0,0,1,6.394-.108,11.5,11.5,0,0,1,6.3,3.706,9.613,9.613,0,0,1,1.1,1.658,6.524,6.524,0,0,1,.6,1.958,6.321,6.321,0,0,1-.036,2.1,4.1,4.1,0,0,1-.916,1.94,3.059,3.059,0,0,1-1.952,1.006,3.843,3.843,0,0,1-2.179-.455,5.329,5.329,0,0,1-1.718-1.449,7.093,7.093,0,0,1-1.054-2.012,8.262,8.262,0,0,1-.072-4.448,9.579,9.579,0,0,1,1.958-3.862,13.645,13.645,0,0,1,6.969-4.1,29.474,29.474,0,0,1,7.316-.862c2.3-.036,4.448,0,6.4-.06a49.6,49.6,0,0,0,5.251-.467,16.647,16.647,0,0,0,3.832-1.024,10.643,10.643,0,0,0,2.191-1.2c.239-.162.4-.311.521-.4a1.255,1.255,0,0,1,.18-.144Z" transform="translate(-391.337 -140.162)" fill="#fafafa"/>
      <path id="Trazado_113753" data-name="Trazado 113753" d="M554.268,246.128a.836.836,0,0,1-.257.042c-.168,0-.413.048-.736.054a23.712,23.712,0,0,1-2.712-.066c-1.144-.084-2.5-.257-3.993-.461s-3.137-.437-4.873-.527a18.788,18.788,0,0,0-4.844.365,12.215,12.215,0,0,0-3.682,1.431,10.78,10.78,0,0,0-2.73,2.395.852.852,0,0,1,.132-.222,4.7,4.7,0,0,1,.431-.6,8.25,8.25,0,0,1,2.054-1.8,12.177,12.177,0,0,1,3.748-1.5,18.622,18.622,0,0,1,4.927-.4c1.754.1,3.4.335,4.9.551s2.838.419,3.969.527,2.06.162,2.694.168a7.582,7.582,0,0,1,.976.03Z" transform="translate(-423.12 -155.976)" fill="#fafafa"/>
      <path id="Trazado_113754" data-name="Trazado 113754" d="M511.16,280.737a12.645,12.645,0,0,0-3.436-.293,19.019,19.019,0,0,0-3.993.712c-1.527.413-3.233,1.024-5.149,1.611a21.193,21.193,0,0,1-6.454,1.126,18.7,18.7,0,0,1-7.352-1.527,18.308,18.308,0,0,1-6.705-4.879,13.944,13.944,0,0,1-2.395-3.724,8.514,8.514,0,0,1-.688-4.5,6.585,6.585,0,0,1,2.125-4.005,4.729,4.729,0,0,1,2.018-1.03,4.592,4.592,0,0,1,2.227.072,4.515,4.515,0,0,1,1.922,1.048,3.592,3.592,0,0,1,1.078,1.868,3.645,3.645,0,0,1-.162,2.1,5.029,5.029,0,0,1-1.12,1.712,8.981,8.981,0,0,1-3.287,2.089,9.583,9.583,0,0,1-1.8.5c-.3.054-.6.12-.892.168l-.892.1a19.284,19.284,0,0,1-6.532-.461,20.356,20.356,0,0,1-5.047-1.94,18.334,18.334,0,0,1-3.359-2.323l-.6-.521-.491-.5a9.125,9.125,0,0,1-.742-.8c-.18-.221-.323-.389-.431-.515a.86.86,0,0,1-.138-.186l.168.162c.108.126.257.287.449.5a9,9,0,0,0,.76.772l.5.485.6.509a18.559,18.559,0,0,0,3.359,2.263,20.6,20.6,0,0,0,5.011,1.88,19.4,19.4,0,0,0,6.46.413l.874-.108c.293-.048.6-.114.88-.168a9.167,9.167,0,0,0,1.76-.491,8.609,8.609,0,0,0,3.179-2.03,4.837,4.837,0,0,0,1.054-1.616,3.394,3.394,0,0,0,.144-1.94,3.742,3.742,0,0,0-2.79-2.682,4.274,4.274,0,0,0-2.077-.066,4.352,4.352,0,0,0-1.88.97,6.184,6.184,0,0,0-2.018,3.814,8.3,8.3,0,0,0,.659,4.329,13.9,13.9,0,0,0,2.323,3.646,18.044,18.044,0,0,0,6.586,4.79,18.26,18.26,0,0,0,7.238,1.533,21.049,21.049,0,0,0,6.394-1.072c1.91-.6,3.592-1.2,5.167-1.569a18.511,18.511,0,0,1,4.029-.665,13.218,13.218,0,0,1,1.491,0c.425.066.79.1,1.078.162l.653.162A.969.969,0,0,1,511.16,280.737Z" transform="translate(-394.399 -163.721)" fill="#fafafa"/>
      <path id="Trazado_113755" data-name="Trazado 113755" d="M452.328,275.6c-.054,0-.329-.635-.91-1.611a15.626,15.626,0,0,0-6.388-5.957c-1.018-.515-1.688-.742-1.67-.79s.18,0,.491.108a9.571,9.571,0,0,1,1.269.485,13.866,13.866,0,0,1,6.49,6.047,10,10,0,0,1,.6,1.239,1.731,1.731,0,0,1,.12.479Z" transform="translate(-388.175 -164.962)" fill="#fafafa"/>
      <path id="Trazado_113756" data-name="Trazado 113756" d="M416.282,298.481a1.249,1.249,0,0,1-.09-.15l-.227-.449c-.216-.4-.527-.988-.91-1.754a40.939,40.939,0,0,1-2.742-6.741,21.923,21.923,0,0,1-.856-4.963,15.528,15.528,0,0,1,.114-2.82,16.8,16.8,0,0,1,.706-2.9,12.692,12.692,0,0,1,3.514-5.316,8.579,8.579,0,0,1,6.388-2.239,4.706,4.706,0,0,1,3.149,1.527,3.886,3.886,0,0,1,.892,3.275,2.886,2.886,0,0,1-.85,1.479,3.406,3.406,0,0,1-1.461.8,4.31,4.31,0,0,1-3.131-.377A7.148,7.148,0,0,1,418.5,275.9a10.573,10.573,0,0,1-1.443-2.431,10.777,10.777,0,0,1-.8-4.969,10.178,10.178,0,0,1,1.2-3.981,10.391,10.391,0,0,1,1.88-2.515,9.328,9.328,0,0,1,1.539-1.245,4.9,4.9,0,0,1,.443-.269.937.937,0,0,1,.156-.078s-.192.138-.563.4a10.885,10.885,0,0,0-1.491,1.281,10.573,10.573,0,0,0-1.8,2.515,10,10,0,0,0-1.12,3.915,10.536,10.536,0,0,0,.814,4.849,10.309,10.309,0,0,0,1.413,2.359,6.926,6.926,0,0,0,2.2,1.862,4.011,4.011,0,0,0,2.922.347,2.826,2.826,0,0,0,2.089-2.054,3.592,3.592,0,0,0-.826-2.993,4.431,4.431,0,0,0-2.946-1.425,8.3,8.3,0,0,0-6.208,2.149,12.417,12.417,0,0,0-3.443,5.185,16.171,16.171,0,0,0-.712,2.85,15.491,15.491,0,0,0-.126,2.766,22,22,0,0,0,.814,4.915,43.657,43.657,0,0,0,2.634,6.747c.365.76.653,1.353.856,1.8l.221.461A.5.5,0,0,1,416.282,298.481Z" transform="translate(-375.364 -162.23)" fill="#fafafa"/>
      <path id="Trazado_113757" data-name="Trazado 113757" d="M398.494,235.72a.724.724,0,0,1,.054.251,6.922,6.922,0,0,1,.09.724,15.305,15.305,0,0,1,0,2.688,17.087,17.087,0,0,1-9.651,14.028,16.119,16.119,0,0,1-2.509.97c-.3.09-.545.138-.706.174a1.12,1.12,0,0,1-.251.042,8.206,8.206,0,0,1,.922-.335,17.6,17.6,0,0,0,11.974-14.9,19.453,19.453,0,0,0,.1-2.658A7.608,7.608,0,0,1,398.494,235.72Z" transform="translate(-364.964 -152.321)" fill="#fafafa"/>
      <path id="Trazado_113758" data-name="Trazado 113758" d="M568.378,279.078a8.717,8.717,0,0,0-2.311,2.113,32.215,32.215,0,0,0-1.874,2.874,22.1,22.1,0,0,1-2.562,3.383,21.554,21.554,0,0,1-6.131,4.61,18,18,0,0,1-2.143.916,4.7,4.7,0,0,1-.826.239,4.964,4.964,0,0,1,.778-.347c.5-.227,1.233-.533,2.089-1.006a23.049,23.049,0,0,0,5.987-4.628,22.742,22.742,0,0,0,2.544-3.323,31.08,31.08,0,0,1,1.946-2.856,7.489,7.489,0,0,1,1.718-1.593,4.4,4.4,0,0,1,.557-.305C568.3,279.1,568.378,279.066,568.378,279.078Z" transform="translate(-431.985 -169.72)" fill="#fafafa"/>
      <path id="Trazado_113759" data-name="Trazado 113759" d="M506.889,202.494a1.629,1.629,0,0,1-.275.066l-.8.144c-.694.114-1.7.269-2.94.437-2.491.335-5.939.724-9.765,1.006a48.535,48.535,0,0,1-5.388.192,15.5,15.5,0,0,1-4.365-.742,10.04,10.04,0,0,1-2.664-1.347,7.441,7.441,0,0,1-.635-.515,1.1,1.1,0,0,1-.192-.2s.311.233.892.6a10.883,10.883,0,0,0,2.664,1.239,15.752,15.752,0,0,0,4.311.665,53.284,53.284,0,0,0,5.388-.216c3.814-.281,7.262-.635,9.753-.916l2.952-.335a6.912,6.912,0,0,1,1.06-.072Z" transform="translate(-402.827 -138.601)" fill="#263238"/>
      <path id="Trazado_113760" data-name="Trazado 113760" d="M552.563,319.282A16.087,16.087,0,0,1,536.931,338.4l-45.351-.5,1.2-14.686,38.879-5.8" transform="translate(-407.526 -185.108)" fill="#b78876"/>
      <path id="Trazado_113761" data-name="Trazado 113761" d="M479.413,325.709a40.973,40.973,0,0,1-5.173-2.191,16.992,16.992,0,0,0-7.969-1.533l-10.806.551a5.131,5.131,0,0,0,1.8,2.395c1.132.6,7.867.766,7.867.766l-.347.359a7.783,7.783,0,0,1-5.388,2.353h-1.036a10.382,10.382,0,0,1-2.257-.437l-2.664-1.078c-.808-.365-1.658-.305-2.012.5s-.084,1.748,2.119,2.856c1.2.6,5.789,2.2,5.789,2.2a10.736,10.736,0,0,0,.269,1.928c.2.665,1.988,1.329,1.988,1.329a24.305,24.305,0,0,0,1.592,2.856,16.394,16.394,0,0,0,3.562,1.227,15.327,15.327,0,0,0,8.52-.066l4.119-1.227V325.925" transform="translate(-391.359 -186.931)" fill="#b78876"/>
      <path id="Trazado_113762" data-name="Trazado 113762" d="M469.9,340.945a8.657,8.657,0,0,1-2.814-.4,8.9,8.9,0,0,1-2.64-1.03c.03-.078,1.2.377,2.712.772S469.91,340.867,469.9,340.945Z" transform="translate(-396.638 -193.971)" fill="#aa6550"/>
      <path id="Trazado_113763" data-name="Trazado 113763" d="M470.986,345.614a3.939,3.939,0,0,1-2.886-.784,10.835,10.835,0,0,1,1.437.413,9.739,9.739,0,0,1,1.449.371Z" transform="translate(-398.103 -196.108)" fill="#aa6550"/>
      <path id="Trazado_113764" data-name="Trazado 113764" d="M471.428,326.6a4.791,4.791,0,0,1-.832.892,13.334,13.334,0,0,1-2.359,1.8,9.292,9.292,0,0,1-2.76,1.066,3.761,3.761,0,0,1-1.2.132,15.47,15.47,0,0,0,3.844-1.431,18.377,18.377,0,0,0,2.365-1.694A6.441,6.441,0,0,1,471.428,326.6Z" transform="translate(-396.57 -188.792)" fill="#aa6550"/>
      <path id="Trazado_113765" data-name="Trazado 113765" d="M499.362,317.109l-1.1,16.608h42.717a15.949,15.949,0,0,0,8.232-2.275h0a15.985,15.985,0,0,0,7.448-16.763,49.09,49.09,0,0,0-2.754-9.208L532.422,309l.689,2.676Z" transform="translate(-410.207 -180.312)" fill="#fc4b52"/>
      <path id="Trazado_113766" data-name="Trazado 113766" d="M544.2,313.51a2.48,2.48,0,0,1-.431.1l-1.251.227-4.592.766-15.183,2.395-15.2,2.323-4.61.671-1.257.168a2.035,2.035,0,0,1-.443.036,2.773,2.773,0,0,1,.437-.1l1.245-.221,4.592-.766,15.189-2.395,15.195-2.3,4.61-.671,1.257-.168A2.035,2.035,0,0,1,544.2,313.51Z" transform="translate(-411.398 -183.539)" fill="#263238"/>
      <path id="Trazado_113767" data-name="Trazado 113767" d="M530.622,340.521c-.078,0,.257-1.2.3-3.155a13.509,13.509,0,0,0-.066-1.592,15.066,15.066,0,0,0-.263-1.8,16.819,16.819,0,0,0-1.389-3.939,18.018,18.018,0,0,0-2.335-3.472q-.317-.359-.629-.7c-.2-.228-.425-.425-.6-.6-.4-.413-.826-.742-1.2-1.06-1.527-1.227-2.61-1.8-2.574-1.856a4.631,4.631,0,0,1,.76.389,8.042,8.042,0,0,1,.862.521c.317.228.713.449,1.09.772a16.132,16.132,0,0,1,1.233,1.042c.21.2.443.4.653.6l.653.706a17.437,17.437,0,0,1,2.395,3.52,16.416,16.416,0,0,1,1.389,4.023,13.212,13.212,0,0,1,.24,1.844,11.479,11.479,0,0,1,0,1.622,10.328,10.328,0,0,1-.12,1.329,6.641,6.641,0,0,1-.174.988A5.551,5.551,0,0,1,530.622,340.521Z" transform="translate(-419.681 -187.086)" fill="#fafafa"/>
      <path id="Trazado_113768" data-name="Trazado 113768" d="M569.944,337.231a8.818,8.818,0,0,1-1.982-.24,9.943,9.943,0,0,1-2.215-.784,8.681,8.681,0,0,1-2.5-1.856,7.915,7.915,0,0,1-1.838-3.293,8.855,8.855,0,0,1-.317-2.1,8.144,8.144,0,0,1,.18-2.233,6.718,6.718,0,0,1,.88-2.2,5.035,5.035,0,0,1,1.8-1.712,4.508,4.508,0,0,1,2.508-.6,3.365,3.365,0,0,1,2.341,1.2,3.287,3.287,0,0,1,.79,2.526,2.994,2.994,0,0,1-1.473,2.1,7.017,7.017,0,0,1-4.718.647,9.837,9.837,0,0,1-8.328-9.435,7.077,7.077,0,0,1,.168-1.988,16.659,16.659,0,0,0-.048,1.982,10.129,10.129,0,0,0,1.706,5.041,9.776,9.776,0,0,0,6.544,4.191,6.724,6.724,0,0,0,4.514-.629,2.694,2.694,0,0,0,1.329-1.886,2.994,2.994,0,0,0-.724-2.281,3.048,3.048,0,0,0-2.131-1.1,4.136,4.136,0,0,0-2.329.533,5.388,5.388,0,0,0-2.544,3.7,7.873,7.873,0,0,0-.186,2.167,8.6,8.6,0,0,0,.293,2.03,7.656,7.656,0,0,0,1.748,3.215,8.764,8.764,0,0,0,2.395,1.856,10.548,10.548,0,0,0,2.161.814C569.231,337.171,569.95,337.189,569.944,337.231Z" transform="translate(-433.001 -185.048)" fill="#fafafa"/>
    </g>
    <g id="Character_1" data-name="Character 1" transform="translate(600 1349.635)">
      <path id="Trazado_113769" data-name="Trazado 113769" d="M193.908,48.4H86.926A23.577,23.577,0,0,0,63.35,71.977V110.1H40.27l23.08,23.074V159.1a23.577,23.577,0,0,0,23.577,23.577H193.908A23.577,23.577,0,0,0,217.485,159.1V71.977A23.577,23.577,0,0,0,193.908,48.4Z" transform="translate(-40.27 -41.294)" fill="#fc4b52"/>
      <path id="Trazado_113770" data-name="Trazado 113770" d="M219.42,53.892c-.677,1.748.485,3.658,1.8,5.011s2.88,2.634,3.293,4.466c.341,1.539-.228,3.137-.09,4.706s1.006,3.047,1.5,4.58a15.018,15.018,0,0,1-.263,8.621,15.847,15.847,0,0,1-3.209,6.352,8.466,8.466,0,0,1-6.274,2.993,2.479,2.479,0,0,1-1.856-.671,2.994,2.994,0,0,1-.533-1.646,160.451,160.451,0,0,1,0-36.275" transform="translate(-109.488 -42.751)" fill="#12263f"/>
      <path id="Trazado_113771" data-name="Trazado 113771" d="M213.429,119.39a9.629,9.629,0,0,1,9.609,9.95,11.111,11.111,0,0,1,7.969,12.417c-.341,1.76-1.126,3.437-1.233,5.227-.12,1.946.6,3.844.952,5.759a18.164,18.164,0,0,1-1.042,10.393c-.82,1.982-2.353,4.029-4.5,4.089a4.43,4.43,0,0,1-3.592-2.113,11.1,11.1,0,0,1-1.449-4.089c-.928-4.676-1.2-9.483-2.491-14.081s-3.778-9.118-7.933-11.453c-2.293-1.293-5.047-1.9-6.873-3.808a7.466,7.466,0,0,1-1.347-7.723,9.825,9.825,0,0,1,5.867-5.478" transform="translate(-104.759 -69.418)" fill="#12263f"/>
      <path id="Trazado_113772" data-name="Trazado 113772" d="M161.07,51.959c-.06-2.227,1.994-3.945,4.065-4.76s4.376-1.126,6.22-2.395c1.64-1.1,2.736-2.82,4.119-4.191a13.7,13.7,0,0,1,23.05,6.286c.8,3.167.251,6.915-2.245,9.022-2.9,2.443-7.184,1.9-10.914,1.144s-7.921-1.515-11.022.7c-1.868,1.317-2.946,3.454-4.089,5.436s-2.574,3.975-4.73,4.742-5.1-.539-5.185-2.826" transform="translate(-88.454 -36.531)" fill="#12263f"/>
      <path id="Trazado_113773" data-name="Trazado 113773" d="M173.992,59.645a3.73,3.73,0,0,0-3.323,3.79h0l2.221,50.291c.1,5.939,8.777,9.274,15.135,9.13h0c6.424-.15,6.628-3.3,6.711-8.951.132-9.441.12-12.986.126-12.932s8.112-1.365,9.771-11.974c.82-5.269.539-13.9.078-20.954-.413-6.352-4.64-14.135-10.968-13.453Z" transform="translate(-92.599 -43.762)" fill="#ffbe9d"/>
      <path id="Trazado_113774" data-name="Trazado 113774" d="M222.666,87.414a1.353,1.353,0,0,1-1.305,1.371,1.293,1.293,0,0,1-1.4-1.2,1.353,1.353,0,0,1,1.305-1.371,1.293,1.293,0,0,1,1.4,1.2Z" transform="translate(-112.38 -56.468)" fill="#12263f"/>
      <path id="Trazado_113775" data-name="Trazado 113775" d="M220.82,83.669c-.168.18-1.2-.6-2.658-.6s-2.532.742-2.694.563c-.078-.078.1-.4.563-.736a3.706,3.706,0,0,1,2.143-.647,3.592,3.592,0,0,1,2.119.677C220.749,83.3,220.9,83.591,220.82,83.669Z" transform="translate(-110.57 -54.878)" fill="#12263f"/>
      <path id="Trazado_113776" data-name="Trazado 113776" d="M199.186,87.415a1.359,1.359,0,0,1-1.305,1.371,1.293,1.293,0,0,1-1.4-1.2,1.359,1.359,0,0,1,1.305-1.371,1.3,1.3,0,0,1,1.4,1.2Z" transform="translate(-102.957 -56.469)" fill="#12263f"/>
      <path id="Trazado_113777" data-name="Trazado 113777" d="M196.834,84.179c-.168.18-1.2-.6-2.658-.6s-2.532.742-2.688.563c-.078-.078.09-.4.557-.742a3.724,3.724,0,0,1,2.137-.641,3.592,3.592,0,0,1,2.119.677C196.762,83.784,196.918,84.1,196.834,84.179Z" transform="translate(-100.947 -55.083)" fill="#12263f"/>
      <path id="Trazado_113778" data-name="Trazado 113778" d="M208.869,95.051a9.827,9.827,0,0,1,2.395-.431c.371-.042.724-.114.79-.371a1.928,1.928,0,0,0-.251-1.1L210.689,90.3c-1.539-4.041-2.658-7.364-2.491-7.424s1.545,3.167,3.083,7.184l1.066,2.856a2.2,2.2,0,0,1,.2,1.461.946.946,0,0,1-.6.551,2.64,2.64,0,0,1-.629.09A9.092,9.092,0,0,1,208.869,95.051Z" transform="translate(-107.654 -55.131)" fill="#12263f"/>
      <path id="Trazado_113779" data-name="Trazado 113779" d="M201.569,129.574a26.941,26.941,0,0,1-14.189-3.754s3.454,7.268,14.051,6.256Z" transform="translate(-99.306 -72.363)" fill="#eb996e"/>
      <path id="Trazado_113780" data-name="Trazado 113780" d="M205.391,108.434a2.634,2.634,0,0,0-2.365-.976,2.4,2.4,0,0,0-1.658.892,1.521,1.521,0,0,0-.108,1.742,1.8,1.8,0,0,0,1.916.485,5.664,5.664,0,0,0,1.862-1.12,1.617,1.617,0,0,0,.419-.437.479.479,0,0,0,0-.539" transform="translate(-104.786 -64.987)" fill="#eb996e"/>
      <path id="Trazado_113781" data-name="Trazado 113781" d="M201.993,104.92c.239,0,.245,1.569,1.6,2.694s3.047.94,3.059,1.161c0,.1-.377.311-1.09.335a3.957,3.957,0,0,1-2.556-.886,3.443,3.443,0,0,1-1.239-2.257C201.705,105.3,201.9,104.908,201.993,104.92Z" transform="translate(-105.076 -63.976)" fill="#12263f"/>
      <path id="Trazado_113782" data-name="Trazado 113782" d="M197.05,80.116c-.144.4-1.6.21-3.317.419s-3.1.683-3.329.329c-.1-.174.138-.545.695-.934a5.819,5.819,0,0,1,5.065-.6C196.793,79.6,197.11,79.925,197.05,80.116Z" transform="translate(-100.51 -53.577)" fill="#12263f"/>
      <path id="Trazado_113783" data-name="Trazado 113783" d="M220.174,76.567c-.257.335-1.263,0-2.479,0s-2.233.228-2.467-.114c-.108-.174.054-.5.5-.82a3.592,3.592,0,0,1,3.981.114C220.144,76.064,220.281,76.406,220.174,76.567Z" transform="translate(-110.468 -52.004)" fill="#12263f"/>
      <path id="Trazado_113784" data-name="Trazado 113784" d="M163.813,92.982A9.4,9.4,0,0,0,175,82.583c-.329-2.6-1.73-5.245-.826-7.705,1.2-3.257,5.753-4.257,6.963-7.5.7-1.892.072-4.1.868-5.945.748-1.742,2.58-2.742,4.365-3.389s3.688-1.084,5.185-2.251,2.425-3.353,1.461-4.981a100.282,100.282,0,0,0-23.134,5.622c-1.73.641-3.544,1.419-4.568,2.952-1.078,1.628-1.024,3.73-.934,5.676.443,9.507-1.006,18.416-.563,27.923" transform="translate(-89.814 -42.261)" fill="#12263f"/>
      <path id="Trazado_113785" data-name="Trazado 113785" d="M158.028,87.049a.6.6,0,0,1-.174-.054,2.4,2.4,0,0,1-.485-.233,3.592,3.592,0,0,1-1.317-1.563,5.221,5.221,0,0,1-.347-3.215,10.273,10.273,0,0,1,1.922-3.85,27.921,27.921,0,0,0,2.91-4.275,6.586,6.586,0,0,0,.688-2.724,9.052,9.052,0,0,0-.6-2.946,8.981,8.981,0,0,1-.6-3.2A7.184,7.184,0,0,1,163.47,59.2a8.238,8.238,0,0,1,3.49-.994,14.686,14.686,0,0,0,3.49-.6,4.538,4.538,0,0,0,2.455-2.209,16.932,16.932,0,0,0,1.161-3.125,16.913,16.913,0,0,1,1.2-2.993,11.375,11.375,0,0,1,3.921-4.5,8.579,8.579,0,0,1,5.023-1.3,6.424,6.424,0,0,1,3.957,1.616,6.286,6.286,0,0,1,1.8,2.718,5.036,5.036,0,0,1,.245,2.036,3,3,0,0,1-.12.706,6.083,6.083,0,0,0,.06-.706,5.281,5.281,0,0,0-.3-1.994,6.191,6.191,0,0,0-1.8-2.628A6.262,6.262,0,0,0,184.2,43.7a8.382,8.382,0,0,0-4.873,1.287,11.106,11.106,0,0,0-3.856,4.37,16.487,16.487,0,0,0-1.161,2.993,17.062,17.062,0,0,1-1.2,3.179,5.573,5.573,0,0,1-1.054,1.431,4.64,4.64,0,0,1-1.545.94,15.021,15.021,0,0,1-3.592.6,7.879,7.879,0,0,0-3.365.952,6.873,6.873,0,0,0-3.3,5.526,8.813,8.813,0,0,0,.6,3.1,9.136,9.136,0,0,1,.6,3.035,6.874,6.874,0,0,1-.742,2.838,26.923,26.923,0,0,1-2.993,4.293A10.077,10.077,0,0,0,155.795,82a5.1,5.1,0,0,0,.281,3.131,3.592,3.592,0,0,0,1.245,1.557C157.789,86.965,158.034,87.025,158.028,87.049Z" transform="translate(-86.55 -39.316)" fill="#455a64"/>
      <path id="Trazado_113786" data-name="Trazado 113786" d="M211.05,39.15a.982.982,0,0,1,.413.126,4.442,4.442,0,0,1,1,.6,5.137,5.137,0,0,1,1.048,7.011,4.819,4.819,0,0,1-.778.874,1.2,1.2,0,0,1-.359.239c-.042-.048.449-.419.952-1.233a5.161,5.161,0,0,0-1-6.717,14.613,14.613,0,0,0-1.275-.9Z" transform="translate(-108.804 -37.582)" fill="#455a64"/>
      <path id="Trazado_113787" data-name="Trazado 113787" d="M238.107,147.537a8.568,8.568,0,0,0,.305-1.12,5.172,5.172,0,0,0-.521-3.047,7.053,7.053,0,0,0-3.341-3.119,13.489,13.489,0,0,0-2.6-.922c-.934-.245-1.922-.443-2.91-.76a6.711,6.711,0,0,1-2.676-1.461,4.5,4.5,0,0,1-1.263-2.544c-.162-.892-.216-1.736-.413-2.491a4.927,4.927,0,0,0-.964-1.9,5.5,5.5,0,0,0-2.562-1.742,11.247,11.247,0,0,0-1.138-.245.887.887,0,0,1,.305,0,4.357,4.357,0,0,1,.868.132,5.43,5.43,0,0,1,2.694,1.718,5.1,5.1,0,0,1,1.048,1.982c.216.784.281,1.64.443,2.5a4.191,4.191,0,0,0,1.2,2.395,6.3,6.3,0,0,0,2.556,1.383c.964.311,1.952.515,2.892.76a13.77,13.77,0,0,1,2.652.964,7.185,7.185,0,0,1,3.413,3.281,5.137,5.137,0,0,1,.443,3.161,3.933,3.933,0,0,1-.269.838A1.249,1.249,0,0,1,238.107,147.537Z" transform="translate(-112.404 -73.305)" fill="#455a64"/>
      <path id="Trazado_113788" data-name="Trazado 113788" d="M164.231,98.144c-5.388-1.431-10-6.687-11.878-11.914s-1.88-10.926-1.395-16.458c.347-4.011,1.048-8.25,3.712-11.267,4.011-4.55,8.382-6.867,14.417-6.681" transform="translate(-84.58 -42.664)" fill="#12263f"/>
      <path id="Trazado_113789" data-name="Trazado 113789" d="M195.733,141.889l-5-1.251a2.856,2.856,0,0,0,.994-3.49,4.58,4.58,0,0,0-3.82-2.832l-22.8-2.574a1.826,1.826,0,0,0-1.91,1.126q-1.515,3.856-.1,6.346h-.108l-4.394.874-7.43,65.7,48.782-2.281Z" transform="translate(-84.77 -74.734)" fill="#f5f5f5"/>
      <path id="Trazado_113790" data-name="Trazado 113790" d="M197.875,146.226a5.155,5.155,0,0,1-.916.18c-.6.1-1.455.2-2.521.305a58.889,58.889,0,0,1-16.7-.82c-1.054-.2-1.9-.4-2.479-.551a5.113,5.113,0,0,1-.892-.269,6.088,6.088,0,0,1,.916.15c.6.12,1.443.275,2.5.455a69.124,69.124,0,0,0,16.638.826c1.066-.072,1.928-.144,2.526-.2a5.6,5.6,0,0,1,.928-.072Z" transform="translate(-94.085 -80.088)" fill="#263238"/>
      <path id="Trazado_113791" data-name="Trazado 113791" d="M176.8,160.772a17.912,17.912,0,0,1,1.706-2.838,17.708,17.708,0,0,1,1.97-2.664,17.7,17.7,0,0,1-1.712,2.838A17.458,17.458,0,0,1,176.8,160.772Z" transform="translate(-95.06 -84.182)" fill="#e0e0e0"/>
      <path id="Trazado_113792" data-name="Trazado 113792" d="M200.319,162.909a33.493,33.493,0,0,1-4.089-5.089,17.414,17.414,0,0,1,2.167,2.449A17.206,17.206,0,0,1,200.319,162.909Z" transform="translate(-102.857 -85.205)" fill="#e0e0e0"/>
      <path id="Trazado_113793" data-name="Trazado 113793" d="M190.081,175.852a18.433,18.433,0,0,1-.736-3.269,17.25,17.25,0,0,1-.425-3.323,35.525,35.525,0,0,1,1.161,6.592Z" transform="translate(-99.924 -89.796)" fill="#e0e0e0"/>
      <path id="Trazado_113794" data-name="Trazado 113794" d="M207.049,181.13a26.105,26.105,0,0,1-2.766,2.952,27.233,27.233,0,0,1-2.993,2.724,25.443,25.443,0,0,1,2.766-2.952A27.239,27.239,0,0,1,207.049,181.13Z" transform="translate(-104.888 -94.559)" fill="#e0e0e0"/>
      <path id="Trazado_113795" data-name="Trazado 113795" d="M180.509,196.137a10.734,10.734,0,0,1-2.993-2.395,10.86,10.86,0,0,1-2.215-3.113c.084-.048,1,1.389,2.443,2.9S180.581,196.059,180.509,196.137Z" transform="translate(-94.458 -98.371)" fill="#e0e0e0"/>
      <path id="Trazado_113796" data-name="Trazado 113796" d="M188.812,214.27c.03.09-1.365.533-2.946,1.371s-2.736,1.73-2.8,1.658a8.5,8.5,0,0,1,2.652-1.934,8.616,8.616,0,0,1,3.089-1.1Z" transform="translate(-97.576 -107.858)" fill="#e0e0e0"/>
      <path id="Trazado_113797" data-name="Trazado 113797" d="M203.006,210.021a6.525,6.525,0,0,1-.952-1.024c-.551-.665-1.287-1.6-2.054-2.676s-1.413-2.071-1.862-2.808a5.758,5.758,0,0,1-.659-1.233,6.551,6.551,0,0,1,.844,1.114l1.934,2.748,1.97,2.718a6.25,6.25,0,0,1,.778,1.161Z" transform="translate(-103.359 -103.047)" fill="#e0e0e0"/>
      <path id="Trazado_113798" data-name="Trazado 113798" d="M203.244,227.52a17.111,17.111,0,0,1-3.592.838,17.363,17.363,0,0,1-3.682.365,30.345,30.345,0,0,1,3.634-.671A30.99,30.99,0,0,1,203.244,227.52Z" transform="translate(-102.753 -113.176)" fill="#e0e0e0"/>
      <path id="Trazado_113799" data-name="Trazado 113799" d="M185.085,140.646c-.042-.03.245-.359.491-.994a5.269,5.269,0,0,0,.263-2.6,10.681,10.681,0,0,0-.772-2.556,4.994,4.994,0,0,1-.407-1.048,3.316,3.316,0,0,1,.6.958,8.286,8.286,0,0,1,.88,2.6,4.855,4.855,0,0,1-.365,2.73A2.088,2.088,0,0,1,185.085,140.646Z" transform="translate(-98.214 -75.425)" fill="#e0e0e0"/>
      <path id="Trazado_113800" data-name="Trazado 113800" d="M200.583,137.26a3.993,3.993,0,0,1,.9,1.958,4.083,4.083,0,0,1,.066,2.161c-.09,0-.1-.958-.371-2.089S200.5,137.3,200.583,137.26Z" transform="translate(-104.599 -76.954)" fill="#e0e0e0"/>
      <path id="Trazado_113801" data-name="Trazado 113801" d="M268.276,171.66l22.691-39.855L293.7,124.9s7.077-15.213,7.568-16.764c.569-1.8,1.569-1.946,2.215-1.688,1.006.4,1.329,1.892.886,3.443-.156.533-2.9,8.891-2.9,8.891a21.046,21.046,0,0,1,2.347-1.742c1.742-1.2,4.933-1.138,7.891-.084s3.688,1.61,3.335,2.778a1.575,1.575,0,0,1-.952.94,3.089,3.089,0,0,1-2.185.048c-4.754-1.622-6.861.521-6.861.521l-.353.9s3.592-1.144,5.6.473a2.933,2.933,0,0,1,.742.868,3.927,3.927,0,0,1,1.455,6.6,1.613,1.613,0,0,1-1.8.461,2.1,2.1,0,0,1-.677-.784,3.147,3.147,0,0,0-.329-.455l-1.353,2.395s-3.335,5.215-4.532,7.645l-15.632,41.627a11.016,11.016,0,0,1-14.369,6.376h0a11.022,11.022,0,0,1-5.526-15.692Z" transform="translate(-131.192 -64.548)" fill="#ffbe9d"/>
      <path id="Trazado_113802" data-name="Trazado 113802" d="M309.75,143.121a2.283,2.283,0,0,0,2.628-.461c.718-.629,1.2-1.473,1.892-2.149,2.018-2.024,5.388-2.209,7.322-4.329.269-.293.509-.742.275-1.066s-.665-.257-1.024-.186l-9.286,1.814" transform="translate(-148.413 -75.996)" fill="#ffbe9d"/>
      <path id="Trazado_113803" data-name="Trazado 113803" d="M311.573,136.576a3.8,3.8,0,0,1,.982-.305c.641-.156,1.575-.371,2.724-.6l4.047-.862,1.2-.239a1.886,1.886,0,0,1,1.419.042.8.8,0,0,1,.3.844,1.587,1.587,0,0,1-.359.683,6.425,6.425,0,0,1-1.048.928,36.014,36.014,0,0,1-4.592,2.215,7.011,7.011,0,0,0-1.76,1.2c-.479.461-.856.988-1.251,1.437a3.341,3.341,0,0,1-2.461,1.383c-.712,0-1.006-.347-.982-.353a2.885,2.885,0,0,0,.97.144,3.239,3.239,0,0,0,2.179-1.419,19.267,19.267,0,0,1,1.227-1.509,7.238,7.238,0,0,1,1.85-1.329,37.7,37.7,0,0,0,4.508-2.215,5.775,5.775,0,0,0,.946-.832c.263-.293.353-.647.168-.748a1.889,1.889,0,0,0-1.012.03l-1.2.222-4.071.748c-1.161.2-2.1.365-2.754.461A3.856,3.856,0,0,1,311.573,136.576Z" transform="translate(-148.428 -75.827)" fill="#eb996e"/>
      <path id="Trazado_113804" data-name="Trazado 113804" d="M329.844,130.739a3.916,3.916,0,0,1,1.066-1.437,2.994,2.994,0,0,1,1.8-.6,7.574,7.574,0,0,1,2.395.4,12.6,12.6,0,0,0,2.431.551,3.975,3.975,0,0,0,2.036-.317,1.545,1.545,0,0,0,.868-1.084.987.987,0,0,0,0-.515c-.036,0-.036.186-.126.479a1.437,1.437,0,0,1-.844.9,3.951,3.951,0,0,1-1.9.216,13.628,13.628,0,0,1-2.359-.563,7.5,7.5,0,0,0-2.479-.389,3.161,3.161,0,0,0-1.934.718,2.783,2.783,0,0,0-.808,1.132C329.832,130.554,329.82,130.739,329.844,130.739Z" transform="translate(-156.473 -73.134)" fill="#eb996e"/>
      <path id="Trazado_113805" data-name="Trazado 113805" d="M327.388,111.27a9.889,9.889,0,0,0-.563,1.658l-1.239,4.017c-.485,1.5-.928,2.862-1.3,4.005a9.882,9.882,0,0,0-.5,1.676,8.051,8.051,0,0,0,.73-1.593c.4-1.006.9-2.395,1.4-3.981s.892-2.993,1.144-4.065a8.328,8.328,0,0,0,.323-1.718Z" transform="translate(-154.047 -66.524)" fill="#eb996e"/>
      <path id="Trazado_113806" data-name="Trazado 113806" d="M332,136.487a2.528,2.528,0,0,0,.551-.036,1.611,1.611,0,0,1,1.305.353.868.868,0,0,1,.21.832,4.657,4.657,0,0,1-.425,1.06,1.94,1.94,0,0,0-.222,1.371,1.67,1.67,0,0,0,1.066,1.072,1.892,1.892,0,0,0,1.491-.15,2.293,2.293,0,0,0,.988-.964,7.431,7.431,0,0,0,.653-2.155,4.443,4.443,0,0,0,0-1.515,1.018,1.018,0,0,0-.21-.515c-.03,0,.048.192.078.539a5.241,5.241,0,0,1-.126,1.449,8.441,8.441,0,0,1-.694,2.048,1.868,1.868,0,0,1-2.083.934,1.317,1.317,0,0,1-.85-.838,1.659,1.659,0,0,1,.186-1.144,4.675,4.675,0,0,0,.413-1.144,1.12,1.12,0,0,0-.323-1.06,1.7,1.7,0,0,0-1.5-.305,1.353,1.353,0,0,0-.509.168Z" transform="translate(-157.342 -76.384)" fill="#eb996e"/>
      <path id="Trazado_113807" data-name="Trazado 113807" d="M338.461,140.51a.814.814,0,0,0-.1.485,1.515,1.515,0,0,0,.694,1.2,2.041,2.041,0,0,0,2.018,0,3.281,3.281,0,0,0,1.521-1.94,3.987,3.987,0,0,0,0-2.467,3.807,3.807,0,0,0-1.108-1.676,3.592,3.592,0,0,0-1.155-.694c-.3-.108-.479-.126-.485-.1a6.07,6.07,0,0,1,1.473.976,3.754,3.754,0,0,1,.946,3.856,3.089,3.089,0,0,1-1.347,1.766,1.8,1.8,0,0,1-1.736.054,1.485,1.485,0,0,1-.688-.976C338.443,140.66,338.491,140.51,338.461,140.51Z" transform="translate(-159.894 -76.169)" fill="#eb996e"/>
      <path id="Trazado_113808" data-name="Trazado 113808" d="M323.859,146.975a1.431,1.431,0,0,0-.8-.245,3.293,3.293,0,0,0-2.083.5l.257.174a9.7,9.7,0,0,0,.168-1.2,7.566,7.566,0,0,0-.6-4.053,18.711,18.711,0,0,1,.257,4.023,10.489,10.489,0,0,1-.15,1.138l-.072.389.329-.216a3.424,3.424,0,0,1,1.886-.569A6.719,6.719,0,0,0,323.859,146.975Z" transform="translate(-152.847 -78.916)" fill="#eb996e"/>
      <path id="Trazado_113809" data-name="Trazado 113809" d="M333.781,126.489c-.1,0,.036.718.671,1.269s1.347.6,1.347.5-.569-.269-1.114-.76S333.9,126.453,333.781,126.489Z" transform="translate(-158.045 -72.631)" fill="#eb996e"/>
      <path id="Trazado_113810" data-name="Trazado 113810" d="M215.45,220.91l23.738.234L235.2,203.919l1.335,3.251a16.35,16.35,0,0,0,15.129,10.178h0c7.508,0,12.7-5.586,15.871-12.387,7.424-15.9,14.578-41.508,14.578-41.508l-14.471-12.716c-10.477,19.817-20.32,37.023-20.32,37.023s-2.844-8.639-5.041-16.344-2.179-11.764-5.55-15.608c-5.191-5.909-12.573-7.382-19.446-9.148l-.257,31.935-1.575,42.292" transform="translate(-110.57 -80.726)" fill="#e8505b"/>
      <path id="Trazado_113811" data-name="Trazado 113811" d="M147.212,196.336l43.226,8.418,2.1,16.608H126.264a13.058,13.058,0,0,1-13.171-14.087c.952-12.1,1.988-27.013,2.778-33.318a42.908,42.908,0,0,1,4.891-14.369c3.347-6.3,14.5-14.369,24.277-14.788l1.85,41.172" transform="translate(-69.478 -79.98)" fill="#e8505b"/>
      <g id="Grupo_80131" data-name="Grupo 80131" transform="translate(43.574 64.85)">
        <path id="Trazado_113812" data-name="Trazado 113812" d="M215.45,220.91l23.738.234L235.2,203.919l1.335,3.251a16.35,16.35,0,0,0,15.129,10.178h0c7.508,0,12.7-5.586,15.871-12.387,7.424-15.9,14.578-41.508,14.578-41.508l-14.471-12.716c-10.477,19.817-20.32,37.023-20.32,37.023s-2.844-8.639-5.041-16.344-2.179-11.764-5.55-15.608c-5.191-5.909-12.573-7.382-19.446-9.148l-.257,31.935-1.575,42.292" transform="translate(-154.144 -145.576)" fill="#feca2e"/>
        <path id="Trazado_113813" data-name="Trazado 113813" d="M147.212,196.356,186.2,203.54a4.065,4.065,0,0,1,3.251,3.161l3.089,14.71H126.264a13.058,13.058,0,0,1-13.171-14.087c.952-12.1,1.988-27.013,2.778-33.318a42.908,42.908,0,0,1,4.891-14.369c3.347-6.3,14.5-14.369,24.277-14.788l1.85,41.172" transform="translate(-113.052 -144.85)" fill="#feca2e"/>
      </g>
      <path id="Trazado_113814" data-name="Trazado 113814" d="M153.178,203.624a1.688,1.688,0,0,1,0-.4v-5.322c0-3.514-.066-8.382-.335-13.728-.138-2.676-.311-5.227-.5-7.544a31.086,31.086,0,0,0-.868-6.083,8.717,8.717,0,0,0-1.9-3.592,12.276,12.276,0,0,0-1.144-1,4.46,4.46,0,0,1,1.227.916,8.382,8.382,0,0,1,2.03,3.634,29.936,29.936,0,0,1,.946,6.119c.2,2.317.383,4.867.521,7.55.275,5.388.305,10.232.245,13.77-.036,1.754-.084,3.179-.126,4.161l-.066,1.132A1.438,1.438,0,0,1,153.178,203.624Z" transform="translate(-83.675 -88.471)" fill="#263238"/>
      <path id="Trazado_113815" data-name="Trazado 113815" d="M206.98,239.652a6.737,6.737,0,0,0-1.575-1.275,9.951,9.951,0,0,0-2.209-.88c-.892-.257-1.94-.455-3.1-.689-4.622-.94-11-2.251-18.063-3.592s-13.495-2.395-18.147-3.131l-5.514-.886-1.5-.251a3.252,3.252,0,0,1-.521-.108,3.09,3.09,0,0,1,.527.048l1.509.192c1.305.174,3.2.437,5.526.784,4.664.694,11.1,1.724,18.17,3.047s13.447,2.664,18.051,3.664c1.155.251,2.2.461,3.1.736a9.537,9.537,0,0,1,2.221.946,4.963,4.963,0,0,1,1.2.958,2.914,2.914,0,0,1,.251.305A.533.533,0,0,1,206.98,239.652Z" transform="translate(-86.857 -113.705)" fill="#263238"/>
      <path id="Trazado_113816" data-name="Trazado 113816" d="M149.252,228.87c0,.054-.8.245-2.03.742a18.139,18.139,0,0,0-2.1,1.036,18.756,18.756,0,0,0-2.329,1.64,17.787,17.787,0,0,0-2.018,2.012,16.382,16.382,0,0,0-1.377,1.886c-.706,1.126-1.03,1.892-1.084,1.868a2.336,2.336,0,0,1,.186-.557,12.191,12.191,0,0,1,.706-1.425,15.015,15.015,0,0,1,1.347-1.952,16.5,16.5,0,0,1,2.036-2.071,16.891,16.891,0,0,1,2.395-1.652,14.262,14.262,0,0,1,2.149-.988,11.079,11.079,0,0,1,1.533-.449,2.293,2.293,0,0,1,.581-.09Z" transform="translate(-79.618 -113.717)" fill="#263238"/>
      <path id="Trazado_113817" data-name="Trazado 113817" d="M247.327,218.564a2.394,2.394,0,0,1-.09-.407c-.048-.305-.114-.7-.192-1.2-.168-1.036-.389-2.532-.641-4.388-.5-3.706-1.114-8.843-1.628-14.53s-.82-10.848-.988-14.59c-.084-1.868-.132-3.383-.156-4.424v-1.2a2.249,2.249,0,0,1,0-.419,1.8,1.8,0,0,1,.048.419l.078,1.2c.066,1.078.15,2.58.257,4.418.222,3.736.569,8.891,1.078,14.578s1.09,10.818,1.539,14.53c.222,1.8.407,3.323.539,4.394.054.5.1.892.138,1.2A1.707,1.707,0,0,1,247.327,218.564Z" transform="translate(-121.876 -93.066)" fill="#263238"/>
      <path id="Trazado_113818" data-name="Trazado 113818" d="M271.533,226.953a4.309,4.309,0,0,1-.347-.4,11.962,11.962,0,0,1-.8-1.2,15.806,15.806,0,0,1-2.125-9.082,10.076,10.076,0,0,1,.192-1.419,1.992,1.992,0,0,1,.132-.509c.054,0-.06.748-.1,1.94a17.854,17.854,0,0,0,2.1,8.98C271.144,226.312,271.581,226.923,271.533,226.953Z" transform="translate(-131.749 -107.89)" fill="#263238"/>
      <path id="Trazado_113819" data-name="Trazado 113819" d="M141.828,187.985a1.035,1.035,0,0,1-.222.048c-.15,0-.371.054-.653.06a10.137,10.137,0,0,1-2.395-.186,17.513,17.513,0,0,1-3.407-1.072c-1.239-.509-2.556-1.2-3.933-1.856a29.653,29.653,0,0,0-3.987-1.67,13.261,13.261,0,0,0-3.437-.671,11.578,11.578,0,0,0-3.215.359.838.838,0,0,1,.21-.1,5.062,5.062,0,0,1,.6-.21,8.215,8.215,0,0,1,2.395-.275,13.058,13.058,0,0,1,3.52.6,28.009,28.009,0,0,1,4.035,1.664c1.383.689,2.688,1.353,3.909,1.874a18.467,18.467,0,0,0,3.335,1.12A15.974,15.974,0,0,0,141.828,187.985Z" transform="translate(-72.499 -95.074)" fill="#fafafa"/>
      <path id="Trazado_113820" data-name="Trazado 113820" d="M163.663,189.28a20.643,20.643,0,0,1-3.52.754,21.23,21.23,0,0,1-3.592.455,20.955,20.955,0,0,1,3.52-.76,20.758,20.758,0,0,1,3.592-.449Z" transform="translate(-86.933 -97.83)" fill="#fafafa"/>
      <path id="Trazado_113821" data-name="Trazado 113821" d="M139.969,210.75a5.516,5.516,0,0,1-.868.371c-.569.222-1.4.521-2.437.856a61.871,61.871,0,0,1-8.274,2.048c-1.64.287-3.215.5-4.652.641a18.876,18.876,0,0,1-3.844.1,6.431,6.431,0,0,1-2.491-.712,3.528,3.528,0,0,1-.6-.383c-.126-.1-.192-.156-.186-.168s.287.186.832.443a6.98,6.98,0,0,0,2.461.6,19.849,19.849,0,0,0,3.79-.174c1.431-.156,2.993-.371,4.628-.659a75.952,75.952,0,0,0,8.262-1.952c1.042-.305,1.88-.6,2.461-.76A5.07,5.07,0,0,1,139.969,210.75Z" transform="translate(-70.909 -106.446)" fill="#fafafa"/>
      <path id="Trazado_113822" data-name="Trazado 113822" d="M163.776,215.909a16.938,16.938,0,0,1-3.263.21,16.8,16.8,0,0,1-3.263-.1,34.284,34.284,0,0,1,6.526-.108Z" transform="translate(-87.214 -108.461)" fill="#fafafa"/>
      <path id="Trazado_113823" data-name="Trazado 113823" d="M116.69,248.363a1.114,1.114,0,0,1,.066-.317c.06-.24.144-.539.239-.9.054-.2.114-.419.18-.653s.18-.479.275-.748a18.793,18.793,0,0,1,.742-1.8l.485-1.024c.174-.353.4-.7.6-1.072a25.6,25.6,0,0,1,1.473-2.287,27.456,27.456,0,0,1,9.322-8.112c.862-.419,1.664-.844,2.467-1.138.4-.156.772-.329,1.15-.449l1.084-.341a16.988,16.988,0,0,1,1.892-.485c.281-.06.539-.126.778-.168l.671-.09.922-.114a1.1,1.1,0,0,1,.323,0,1.468,1.468,0,0,1-.317.084l-.91.168-.659.12c-.239.048-.5.12-.772.192a17.768,17.768,0,0,0-1.862.521l-1.066.359c-.371.126-.742.3-1.132.461a25.191,25.191,0,0,0-2.431,1.155,30.45,30.45,0,0,0-5.059,3.5,31.133,31.133,0,0,0-4.191,4.52c-.539.784-1.072,1.509-1.479,2.251-.21.365-.431.706-.6,1.054l-.5,1.006a18.569,18.569,0,0,0-.778,1.8c-.1.263-.21.509-.293.736l-.21.641-.293.874a1.27,1.27,0,0,1-.114.251Z" transform="translate(-70.938 -113.633)" fill="#fafafa"/>
      <path id="Trazado_113824" data-name="Trazado 113824" d="M160.7,230.85a10.777,10.777,0,0,0-2.455,3.089A14.883,14.883,0,0,0,156.864,238a42.173,42.173,0,0,0-.569,5.263,37.887,37.887,0,0,1-.6,5.3,14.614,14.614,0,0,1-1.5,4.1,9.315,9.315,0,0,1-1.826,2.311,5.531,5.531,0,0,1-.6.491,1.01,1.01,0,0,1-.239.15,10.609,10.609,0,0,0,2.5-3.059,14.92,14.92,0,0,0,1.413-4.047,38.954,38.954,0,0,0,.6-5.263,38.78,38.78,0,0,1,.6-5.3,14.584,14.584,0,0,1,1.461-4.113,9.278,9.278,0,0,1,1.8-2.335,6.941,6.941,0,0,1,.6-.5,1.072,1.072,0,0,1,.2-.15Z" transform="translate(-84.919 -114.512)" fill="#fafafa"/>
      <path id="Trazado_113825" data-name="Trazado 113825" d="M183.889,257.408c-.084,0,0-5.167.222-11.525s.449-11.513.533-11.513,0,5.161-.222,11.525S183.972,257.408,183.889,257.408Z" transform="translate(-97.892 -115.925)" fill="#fafafa"/>
      <path id="Trazado_113826" data-name="Trazado 113826" d="M210.326,258.466a3.976,3.976,0,0,1-.263-.742c-.078-.245-.168-.545-.245-.9s-.186-.754-.251-1.2a21.188,21.188,0,0,1-.317-3.2,24.6,24.6,0,0,1,.251-3.927,24.343,24.343,0,0,1,.934-3.826,21.478,21.478,0,0,1,1.263-2.952c.2-.413.419-.766.6-1.078a8.706,8.706,0,0,1,.5-.784,3.882,3.882,0,0,1,.473-.635c.054.036-.6.964-1.383,2.592a23.74,23.74,0,0,0-2.395,10.6,24.457,24.457,0,0,0,.245,3.167C210.05,257.371,210.385,258.454,210.326,258.466Z" transform="translate(-108.08 -117.875)" fill="#fafafa"/>
      <path id="Trazado_113827" data-name="Trazado 113827" d="M153.142,159.133c0,.048-.946-.365-2.5-.868a28.3,28.3,0,0,0-12.573-1.108c-1.616.221-2.6.467-2.616.413a2.681,2.681,0,0,1,.677-.222,17.363,17.363,0,0,1,1.9-.413,25.457,25.457,0,0,1,12.656,1.1,19.156,19.156,0,0,1,1.8.742A3.13,3.13,0,0,1,153.142,159.133Z" transform="translate(-78.466 -84.71)" fill="#fafafa"/>
      <path id="Trazado_113828" data-name="Trazado 113828" d="M233.847,202.527a16.764,16.764,0,0,1-2.221,0c-1.371-.054-3.263-.126-5.352-.18s-3.981-.072-5.352-.09a17.449,17.449,0,0,1-2.221-.072,2.107,2.107,0,0,1,.6-.078c.383,0,.94-.048,1.628-.072,1.371-.042,3.263-.054,5.358,0s3.987.162,5.388.269c.683.054,1.233.108,1.616.15A2.644,2.644,0,0,1,233.847,202.527Z" transform="translate(-111.874 -102.934)" fill="#fafafa"/>
      <path id="Trazado_113829" data-name="Trazado 113829" d="M256.665,199.15c0,.048-.748.311-1.916.886a18.739,18.739,0,0,0-7.484,6.669c-.706,1.09-1.048,1.8-1.1,1.8a1.8,1.8,0,0,1,.192-.539,12.2,12.2,0,0,1,.718-1.383,16.931,16.931,0,0,1,7.574-6.753,12.734,12.734,0,0,1,1.455-.551,1.748,1.748,0,0,1,.557-.126Z" transform="translate(-122.898 -101.791)" fill="#fafafa"/>
      <path id="Trazado_113830" data-name="Trazado 113830" d="M240.332,167.016a8.915,8.915,0,0,0-3.041.425,21.068,21.068,0,0,0-3.071,1.365,24.893,24.893,0,0,1-3.8,1.706,15.476,15.476,0,0,1-7.5.491,14.792,14.792,0,0,1-2.209-.6,4.188,4.188,0,0,1-.772-.341,30.421,30.421,0,0,0,2.993.718,16,16,0,0,0,7.37-.569,26.389,26.389,0,0,0,3.766-1.664,19.477,19.477,0,0,1,3.131-1.317,6.856,6.856,0,0,1,2.275-.323,3.674,3.674,0,0,1,.6.054A.425.425,0,0,1,240.332,167.016Z" transform="translate(-112.372 -88.851)" fill="#fafafa"/>
      <path id="Trazado_113831" data-name="Trazado 113831" d="M236.307,233.736a3.776,3.776,0,0,1-.694.323c-.228.1-.509.21-.844.317s-.712.251-1.138.359a22.409,22.409,0,0,1-3.053.635,23.35,23.35,0,0,1-7.6-.228,21.978,21.978,0,0,1-2.993-.814c-.425-.138-.79-.3-1.114-.431a8.278,8.278,0,0,1-.826-.365,4.45,4.45,0,0,1-.677-.365c0-.054,1.012.419,2.688.952a26.2,26.2,0,0,0,2.993.742,24.916,24.916,0,0,0,10.537-.341C235.259,234.1,236.271,233.664,236.307,233.736Z" transform="translate(-111.341 -115.44)" fill="#fafafa"/>
      <path id="Trazado_113832" data-name="Trazado 113832" d="M268.384,245.045a1.227,1.227,0,0,1-.233-.192,7.892,7.892,0,0,1-.6-.6,14.257,14.257,0,0,1-1.892-2.538,20.668,20.668,0,0,1-2.67-10.028,40.312,40.312,0,0,1,1.359-10.334c.323-1.3.6-2.335.82-3.053.1-.329.186-.6.251-.82a.975.975,0,0,1,.108-.281,1.048,1.048,0,0,1-.048.3c-.054.222-.114.5-.192.832-.18.772-.425,1.8-.724,3.071a43.334,43.334,0,0,0-1.263,10.28,21.176,21.176,0,0,0,2.5,9.944,16.049,16.049,0,0,0,1.8,2.574C268.079,244.728,268.384,245.022,268.384,245.045Z" transform="translate(-129.648 -109.034)" fill="#fafafa"/>
      <path id="Trazado_113833" data-name="Trazado 113833" d="M293.787,222.193a12.009,12.009,0,0,0-3.167-1.8,24.84,24.84,0,0,0-3.832-.994,43.962,43.962,0,0,1-4.79-1.1,19.662,19.662,0,0,1-7.574-4.544,18.082,18.082,0,0,1-1.8-2.018c-.2-.251-.329-.461-.425-.6s-.138-.216-.126-.222a8.278,8.278,0,0,1,.647.748,21.668,21.668,0,0,0,1.85,1.928,20.4,20.4,0,0,0,7.526,4.43c1.64.521,3.263.8,4.736,1.114a23.3,23.3,0,0,1,3.856,1.072,9.184,9.184,0,0,1,2.359,1.311,4.736,4.736,0,0,1,.551.485C293.74,222.122,293.8,222.188,293.787,222.193Z" transform="translate(-133.295 -106.514)" fill="#fafafa"/>
      <path id="Trazado_113834" data-name="Trazado 113834" d="M306.858,190.814a4.022,4.022,0,0,1-.641-.557c-.2-.186-.437-.413-.736-.659s-.6-.551-1.006-.844a27.471,27.471,0,0,0-2.778-1.97,30.414,30.414,0,0,0-3.7-1.922,31.068,31.068,0,0,0-3.939-1.347,28.759,28.759,0,0,0-3.347-.653c-.479-.078-.916-.1-1.3-.144s-.718-.066-.988-.078a4.188,4.188,0,0,1-.844-.078,4.7,4.7,0,0,1,.844-.042,15.062,15.062,0,0,1,2.317.1,24.077,24.077,0,0,1,3.383.6,25.679,25.679,0,0,1,7.723,3.3,24.225,24.225,0,0,1,2.772,2.042c.377.305.695.6.982.88s.515.5.7.706A4.792,4.792,0,0,1,306.858,190.814Z" transform="translate(-139.516 -95.113)" fill="#fafafa"/>
      <path id="Trazado_113835" data-name="Trazado 113835" d="M226.722,150.475a4.233,4.233,0,0,1-1.137.545,20.607,20.607,0,0,1-2.9.9,21.884,21.884,0,0,1-2.993.485,4.257,4.257,0,0,1-1.257,0c0-.09,1.9-.251,4.191-.79S226.686,150.385,226.722,150.475Z" transform="translate(-111.766 -82.254)" fill="#fafafa"/>
      <path id="Trazado_113836" data-name="Trazado 113836" d="M254.126,273.612a1.67,1.67,0,0,1-1.832,2.113h0a1.664,1.664,0,0,1-1.365-1.2l-.509-1.886h.078a1.742,1.742,0,0,1-1.946,2.054h0c-.784,0-1.461-1.144-1.688-1.748h0a3.257,3.257,0,0,1-3.041-1.461L240.308,266l-6.508-4.76,3.939-14.063,14,9.07c.551.425.635.6,1.509,1.413l9.04,8.316a3.338,3.338,0,0,1-3.317,0c-1.425-.569-7.663-4.79-7.663-4.79l2.814,12.369" transform="translate(-117.934 -121.065)" fill="#ffbe9d"/>
      <path id="Trazado_113837" data-name="Trazado 113837" d="M247.739,272a2.87,2.87,0,0,1,.413.245l.467.323a2.824,2.824,0,0,1,.6.5,2.635,2.635,0,0,1,.479.814c.108.311.222.641.341.976l.766,2.251c.533,1.6,1,3.059,1.323,4.113a10.116,10.116,0,0,1,.461,1.73,10.236,10.236,0,0,1-.671-1.664c-.377-1.036-.88-2.479-1.413-4.077-.257-.8-.509-1.551-.742-2.257l-.311-.988a2.544,2.544,0,0,0-.4-.76,3.106,3.106,0,0,0-.515-.5l-.431-.365A1.777,1.777,0,0,1,247.739,272Z" transform="translate(-123.528 -131.026)" fill="#eb996e"/>
      <path id="Trazado_113838" data-name="Trazado 113838" d="M257.773,280.927a2.523,2.523,0,0,1-.2-.6c-.126-.443-.275-.982-.449-1.6-.383-1.353-.892-3.227-1.545-5.263a19.043,19.043,0,0,0-2.155-4.993,4.329,4.329,0,0,0-1.143-1.143c-.329-.2-.539-.263-.533-.293s.06,0,.162,0a1.906,1.906,0,0,1,.431.168,3.9,3.9,0,0,1,1.263,1.114,17.372,17.372,0,0,1,2.269,5.029c.659,2.036,1.138,3.933,1.461,5.3.162.688.281,1.245.359,1.628A2.109,2.109,0,0,1,257.773,280.927Z" transform="translate(-125.137 -129.026)" fill="#eb996e"/>
      <path id="Trazado_113839" data-name="Trazado 113839" d="M264.018,281.109a2.525,2.525,0,0,1-.245-.629c-.15-.479-.335-1.06-.557-1.748-.455-1.473-1.06-3.52-1.712-5.789s-1.2-4.251-1.646-5.807a2.79,2.79,0,0,0-.958-1.461,3.642,3.642,0,0,0-.6-.311.384.384,0,0,1,.18,0,1.629,1.629,0,0,1,.473.2,2.838,2.838,0,0,1,1.1,1.491c.491,1.479,1.072,3.526,1.736,5.8s1.227,4.323,1.628,5.813c.18.7.335,1.293.455,1.8A3.28,3.28,0,0,1,264.018,281.109Z" transform="translate(-127.766 -128.358)" fill="#eb996e"/>
    </g>
    <g id="Speech_Bubble-3" data-name="Speech Bubble" transform="translate(790 1401.476)">
      <path id="Trazado_113845-3" data-name="Trazado 113845" d="M30.64,0A30.6,30.6,0,0,1,55.1,49.033c1.421,4.333,3.81,12.247,3.81,12.247s-7.4-3.377-11.24-5.165A30.181,30.181,0,0,1,30.64,61.28,30.64,30.64,0,0,1,30.64,0Z" transform="translate(0 0)" fill="#12263f"/>
      <path id="Trazado_113840" data-name="Trazado 113840" d="M410,73.935a2.615,2.615,0,1,0,2.615-2.615A2.615,2.615,0,0,0,410,73.935Z" transform="translate(-371.092 -43.129)" fill="#fff"/>
      <circle id="Elipse_4718" data-name="Elipse 4718" cx="2.615" cy="2.615" r="2.615" transform="translate(28.402 28.191)" fill="#fff"/>
      <path id="Trazado_113841" data-name="Trazado 113841" d="M381.881,72.627a2.608,2.608,0,1,0,1.587-1.221A2.615,2.615,0,0,0,381.881,72.627Z" transform="translate(-363.897 -43.129)" fill="#fff"/>
    </g>
  </g>
</svg>
