<svg xmlns="http://www.w3.org/2000/svg" width="377" height="979.999" viewBox="0 0 377 979.999">
  <g id="Grupo_115821" data-name="Grupo 115821" transform="translate(-938 -1903)">
    <g id="Grupo_115818" data-name="Grupo 115818" transform="translate(7585 11007.76)">
      <path id="Trazado_158923" data-name="Trazado 158923" d="M449.076,157.829l-77.652-30.223a10.4,10.4,0,0,1-5.918-13.479L407.354,6.652A10.4,10.4,0,0,1,420.833.713l49.241,19.145,22.851,54.127-30.307,77.926A10.531,10.531,0,0,1,449.076,157.829Z" transform="translate(-6901.118 -9026.223)" fill="#fc4b52"/>
      <path id="Trazado_158929" data-name="Trazado 158929" d="M442.928,68.173c-.147.4-14.743-4.907-32.476-11.836S378.333,43.489,378.481,43.11,393.223,48.017,411,54.946,443.1,67.731,442.928,68.173Z" transform="translate(-6885.977 -8978.564)" fill="#12263f"/>
      <path id="Trazado_158930" data-name="Trazado 158930" d="M440.448,74.555c-.168.379-14.743-4.907-32.5-11.836S375.832,49.871,376,49.471s14.743,4.907,32.5,11.836S440.6,74.155,440.448,74.555Z" transform="translate(-6888.721 -8971.529)" fill="#12263f"/>
    </g>
    <g id="Grupo_115817" data-name="Grupo 115817" transform="translate(7628.797 10346.031)">
      <path id="Trazado_158915" data-name="Trazado 158915" d="M311.456,342.433l-79.548,24.789a10.4,10.4,0,0,1-13.058-6.845L184.542,250.291a10.4,10.4,0,0,1,6.845-13.058L241.933,221.5l51.516,28.1,24.873,79.8a10.4,10.4,0,0,1-6.866,13.037Z" transform="translate(-6680.225 -8664.531)" fill="#feca2e"/>
      <path id="Trazado_158916" data-name="Trazado 158916" d="M211.49,221.5l9.667,31a9.688,9.688,0,0,0,12.131,6.318l29.8-9.267Z" transform="translate(-6649.886 -8664.531)" fill="#12263f"/>
      <path id="Trazado_158917" data-name="Trazado 158917" d="M232.045,236.624c.126.4-8,3.286-18.176,6.466s-18.492,5.413-18.618,5.013,8.024-3.286,18.176-6.466S231.918,236.224,232.045,236.624Z" transform="translate(-6667.851 -8647.854)" fill="#12263f"/>
      <path id="Trazado_158918" data-name="Trazado 158918" d="M258.412,241.415c.126.4-13.332,4.949-30.054,10.173s-30.391,9.119-30.518,8.719,13.332-4.949,30.075-10.173S258.286,241.015,258.412,241.415Z" transform="translate(-6664.985 -8642.535)" fill="#12263f"/>
      <path id="Trazado_158919" data-name="Trazado 158919" d="M266.037,247.554c0,.4-14.574,5.328-32.792,11.015s-33.108,9.962-33.235,9.562,14.553-5.328,32.792-10.994S265.911,247.153,266.037,247.554Z" transform="translate(-6662.585 -8635.742)" fill="#12263f"/>
      <path id="Trazado_158920" data-name="Trazado 158920" d="M268.077,254.114c.126.4-14.553,5.328-32.792,10.994s-33.108,9.983-33.235,9.583,14.553-5.328,32.792-11.015S267.951,253.713,268.077,254.114Z" transform="translate(-6660.329 -8628.485)" fill="#12263f"/>
      <path id="Trazado_158921" data-name="Trazado 158921" d="M270.117,260.664c.126.4-14.553,5.328-32.792,11.015s-33.108,9.962-33.234,9.562,14.553-5.328,32.792-11.015S269.991,260.263,270.117,260.664Z" transform="translate(-6658.073 -8621.241)" fill="#12263f"/>
      <path id="Trazado_158922" data-name="Trazado 158922" d="M272.146,267.215c.126.4-14.553,5.328-32.771,11.015s-33.108,9.962-33.234,9.562,14.553-5.328,32.771-10.994S272.02,266.794,272.146,267.215Z" transform="translate(-6655.805 -8613.996)" fill="#12263f"/>
    </g>
    <g id="Grupo_115816" data-name="Grupo 115816" transform="translate(7076.753 11234.207)">
      <path id="Trazado_158924" data-name="Trazado 158924" d="M421.661,9.43,409.546,41.3a10.274,10.274,0,0,0,5.688,13.2l29.983,11.933Z" transform="translate(-6258.584 -8980.461)" fill="#e1e1e1"/>
      <path id="Trazado_158926" data-name="Trazado 158926" d="M447.043,47.725c-.152.421-13.917-4.68-30.743-11.357s-30.4-12.444-30.2-12.865,13.917,4.68,30.764,11.379S447.2,47.326,447.043,47.725Z" transform="translate(-6285.248 -8963.348)" fill="#fafafa"/>
      <path id="Trazado_158927" data-name="Trazado 158927" d="M449.9,56.7c-.152.4-15.2-5.168-33.5-12.466S383.309,30.7,383.461,30.282s15.2,5.168,33.5,12.466S450.048,56.3,449.9,56.7Z" transform="translate(-6288.339 -8955.088)" fill="#fafafa"/>
      <path id="Trazado_158928" data-name="Trazado 158928" d="M447.371,63.077c-.152.421-15.2-5.168-33.5-12.444S380.784,37.08,381,36.681s15.2,5.168,33.5,12.466S447.545,62.677,447.371,63.077Z" transform="translate(-6291.221 -8947.292)" fill="#fafafa"/>
      <rect id="Rectángulo_40585" data-name="Rectángulo 40585" width="12.549" height="6.898" transform="translate(-5867.604 -8479.487)" fill="#e1e1e1"/>
      <rect id="Rectángulo_40586" data-name="Rectángulo 40586" width="28.984" height="146.861" transform="translate(-5888.316 -8653.343)" fill="#afafaf"/>
      <path id="Trazado_158943" data-name="Trazado 158943" d="M488.046,332.265H352.007c-14.481.012-26.227-11.978-26.227-26.773h0c0-14.795,11.746-26.785,26.227-26.773h136.04a25.9,25.9,0,0,1,18.536,7.835,27.047,27.047,0,0,1,7.669,18.938h0a27.047,27.047,0,0,1-7.669,18.938,25.9,25.9,0,0,1-18.536,7.835Z" transform="translate(-6296.098 -8977.867)" fill="#fc4b52"/>
      <rect id="Rectángulo_40587" data-name="Rectángulo 40587" width="18.367" height="104.251" transform="translate(-5882.909 -8506.461)" fill="#afafaf"/>
      <path id="Trazado_158944" data-name="Trazado 158944" d="M336.373,463.4c-3.6.466,154.776,0,154.776,0s-67.564-7.741-71.928-50.817H400.767S396.229,455.656,336.373,463.4Z" transform="translate(-6283.763 -8814.812)" fill="#afafaf"/>
      <path id="Trazado_158945" data-name="Trazado 158945" d="M478.792,303.177c0,.333-31.459.577-70.256.577s-70.256-.244-70.256-.577,31.459-.577,70.256-.577S478.792,302.866,478.792,303.177Z" transform="translate(-6281.459 -8948.779)" fill="#1e2e34"/>
      <path id="Trazado_158946" data-name="Trazado 158946" d="M392.664,365.919a185.639,185.639,0,0,1-29.244,0,178.808,178.808,0,0,1,29.245,0Z" transform="translate(-6252.018 -8872.38)" fill="#12263f"/>
      <path id="Trazado_158947" data-name="Trazado 158947" d="M380.883,396.592h0a3.775,3.775,0,0,1-3.713-3.793V378.071a3.753,3.753,0,0,1,3.713-3.771h0a3.731,3.731,0,0,1,3.691,3.771v14.795A3.752,3.752,0,0,1,380.883,396.592Z" transform="translate(-6235.916 -8861.442)" fill="#e1e1e1"/>
      <path id="Trazado_158968" data-name="Trazado 158968" d="M427.47,130.252c-.369-6.654-1.172-38.617-1.563-43.5a27.256,27.256,0,0,0-7.881-17.634c-4.733-4.436-12.093-6.41-17.89-3.527h0a11.225,11.225,0,0,0-7.99,7.83c-13.2,47.978-11.116,99.039-16.956,148.613,17.238,2.861,40.426,1.686,57.859.754C433.114,183.22,429.836,172.928,427.47,130.252Z" transform="translate(-6238.235 -9239.131)" fill="#1e2e34"/>
      <path id="Trazado_158969" data-name="Trazado 158969" d="M403.474,190.352a5.049,5.049,0,0,1-.13-1.287c0-.954-.109-2.218-.174-3.66,0-3.372-.239-7.941-.413-13.53-.239-11.579-.565-27.283-.912-44.651-.13-8.717-.261-17.013-.369-24.577,0-3.771,0-7.364-.13-10.736a52.883,52.883,0,0,0-.63-9.227,15.01,15.01,0,0,0-6.709-10.891,11.522,11.522,0,0,0-4.538-1.42h.3a4.484,4.484,0,0,1,.955,0,9.126,9.126,0,0,1,3.5,1.065,13.27,13.27,0,0,1,4.342,3.882,18.316,18.316,0,0,1,2.909,7.209,54.554,54.554,0,0,1,.76,9.36c0,3.372.152,6.965.239,10.736.152,7.564.3,15.859.456,24.577.239,17.368.434,33.072.586,44.651v17.213a5.412,5.412,0,0,1-.043,1.286Z" transform="translate(-6221.511 -9231.687)" fill="#3e5963"/>
      <path id="Trazado_158970" data-name="Trazado 158970" d="M388.864,156.606a14.523,14.523,0,0,1-.2-2.884c0-1.863-.109-4.436-.109-7.874,0-6.654.13-15.859.369-26s.521-19.1.716-25.974c0-3.15.174-5.789.261-7.874a15.34,15.34,0,0,1,.217-2.884A13.289,13.289,0,0,1,390.34,86c0,1.863,0,4.436.108,7.874,0,6.654-.13,15.859-.391,26s-.521,19.1-.695,25.974c-.109,3.15-.2,5.789-.261,7.874a14,14,0,0,1-.239,2.884Z" transform="translate(-6222.577 -9216.131)" fill="#3e5963"/>
      <path id="Trazado_158971" data-name="Trazado 158971" d="M386.341,48.288c13.026-1.353,23.882,4.436,34.173,12.51a65.624,65.624,0,0,1,21.711,32.429c4.1,13.309,4.169,32.251-.5,45.427a40.147,40.147,0,0,1-26.791,25.863c-18,5.213-38.276,3.105-52.432-9.4s-21.429-32.074-20.929-51.172a64,64,0,0,1,12.158-36.8,46.868,46.868,0,0,1,32.7-18.854" transform="translate(-6277.63 -9258.799)" fill="#1e2e34"/>
      <path id="Trazado_158972" data-name="Trazado 158972" d="M424.218,95.053c-1.563-5.124-.478-10.647-.868-15.993-.89-11.778-9.488-21.76-19.844-27.017-9.64-4.9-21.711-4.791-33.956-1.641a45.352,45.352,0,0,0-22.232,12.776,37.265,37.265,0,0,0-8.684,32.473l58.988-4.791c5.167,4.991,10.486,10.07,16.956,13.087a11.8,11.8,0,0,0,6.1,1.508,5.46,5.46,0,0,0,4.776-3.527C426.042,99.6,424.891,97.293,424.218,95.053Z" transform="translate(-6281.965 -9258.694)" fill="#1e2e34"/>
      <path id="Trazado_158973" data-name="Trazado 158973" d="M368.077,56.659l50.3,14.462a9.681,9.681,0,0,1,8.272,10.115L418.815,194a35.483,35.483,0,0,1-8.554,20.784l-5.276,6.078c-12.028,13.885-34.412,10.913-41.837-6.011a12.681,12.681,0,0,1-.977-3.017,25.352,25.352,0,0,1-.326-2.573,83.444,83.444,0,0,1,.217-17.146c.152-10.07.26-14.218.239-14.107s-20.69-4.1-24.294-31.941c-1.78-13.841-.521-36.444,1.107-54.876C340.569,74.581,351.9,54.485,368.077,56.659Z" transform="translate(-6282.793 -9248.559)" fill="#ffc4a3"/>
      <path id="Trazado_158974" data-name="Trazado 158974" d="M341,83.647a3.521,3.521,0,0,0,3.257,3.66,3.274,3.274,0,0,0,2.477-.76,3.417,3.417,0,0,0,1.192-2.345,3.521,3.521,0,0,0-3.257-3.682,3.3,3.3,0,0,0-2.478.776A3.44,3.44,0,0,0,341,83.647Z" transform="translate(-6278.274 -9219.319)" fill="#1e2e34"/>
      <path id="Trazado_158975" data-name="Trazado 158975" d="M340.157,79.452c.413.466,3.1-1.442,6.861-1.331s6.513,2.085,6.861,1.641-.217-1.065-1.39-1.974a9.271,9.271,0,0,0-5.471-1.885,8.916,8.916,0,0,0-5.471,1.641C340.374,78.343,339.9,79.23,340.157,79.452Z" transform="translate(-6279.341 -9224.929)" fill="#1e2e34"/>
      <path id="Trazado_158976" data-name="Trazado 158976" d="M356.451,84.264a3.593,3.593,0,0,0,.932,2.557,3.442,3.442,0,0,0,2.433,1.125,3.3,3.3,0,0,0,2.471-.768,3.44,3.44,0,0,0,1.2-2.338,3.521,3.521,0,0,0-3.257-3.682,3.271,3.271,0,0,0-2.548.716A3.417,3.417,0,0,0,356.451,84.264Z" transform="translate(-6260.182 -9218.56)" fill="#1e2e34"/>
      <path id="Trazado_158977" data-name="Trazado 158977" d="M356.52,80.1c.412.466,3.1-1.442,6.839-1.331s6.513,2.085,6.861,1.641-.217-1.065-1.39-1.974a9.208,9.208,0,0,0-5.471-1.885,8.959,8.959,0,0,0-5.471,1.641C356.715,79.059,356.3,79.88,356.52,80.1Z" transform="translate(-6260.164 -9224.135)" fill="#1e2e34"/>
      <path id="Trazado_158978" data-name="Trazado 158978" d="M355.551,108.381a23.23,23.23,0,0,0-6.057-1.287c-.955-.133-1.845-.355-2-1.02a4.963,4.963,0,0,1,.716-2.884c.955-2.218,1.954-4.791,3.018-7.364,4.19-10.492,7.273-19.12,6.861-19.275s-4.168,8.185-8.359,18.676c-1.02,2.573-2,5.035-2.909,7.408a5.7,5.7,0,0,0-.586,3.815,2.388,2.388,0,0,0,1.52,1.464,5.985,5.985,0,0,0,1.628.288A25.038,25.038,0,0,0,355.551,108.381Z" transform="translate(-6272.264 -9224.134)" fill="#1e2e34"/>
      <path id="Trazado_158979" data-name="Trazado 158979" d="M348.8,116.152a68.012,68.012,0,0,0,36.6-8.872s-9.64,18.943-36.735,15.527Z" transform="translate(-6269.292 -9186.701)" fill="#ffa275"/>
      <path id="Trazado_158980" data-name="Trazado 158980" d="M351.322,96.41a6.7,6.7,0,0,1,6.1-2.373,6.031,6.031,0,0,1,4.19,2.462,4.018,4.018,0,0,1,.2,4.547,4.471,4.471,0,0,1-4.95,1.153,14.228,14.228,0,0,1-4.711-3.061,4.028,4.028,0,0,1-1.042-1.153,1.287,1.287,0,0,1,0-1.42" transform="translate(-6266.689 -9202.915)" fill="#ffa275"/>
      <path id="Trazado_158981" data-name="Trazado 158981" d="M362.127,92.22c-.608,0-.716,4.1-4.342,6.965s-7.859,2.218-7.924,2.861c0,.244.955.821,2.779.932a9.914,9.914,0,0,0,6.513-2.218,8.913,8.913,0,0,0,3.322-5.834C362.843,93.263,362.409,92.22,362.127,92.22Z" transform="translate(-6267.897 -9205.045)" fill="#1e2e34"/>
      <path id="Trazado_158982" data-name="Trazado 158982" d="M356.93,74.526c.326,1.043,4.082.665,8.467,1.309s7.9,2,8.511,1.065c.26-.444-.326-1.42-1.737-2.484a14.667,14.667,0,0,0-12.94-1.8C357.6,73.239,356.778,74.016,356.93,74.526Z" transform="translate(-6259.639 -9229.872)" fill="#1e2e34"/>
      <path id="Trazado_158983" data-name="Trazado 158983" d="M340.868,72.179c.63.887,3.235,0,6.34,0s5.732.754,6.34-.155c.282-.421-.109-1.309-1.238-2.218a8.959,8.959,0,0,0-10.2,0C340.976,70.8,340.585,71.669,340.868,72.179Z" transform="translate(-6278.531 -9234.29)" fill="#1e2e34"/>
      <path id="Trazado_158984" data-name="Trazado 158984" d="M419.551,87.417c-4.342-16.237-26.053-39.394-42.423-38.994L350.25,63.24a25.729,25.729,0,0,0,16.261,20.54c4.559,1.664,10.117,2.218,12.679,6.5s.716,10.248,3.148,14.662c3.344,6.1,13.265,6.277,15.7,12.821,1.064,2.861.3,6.189,1.411,9.028,1.476,3.771,10.465,8.872,14.307,7.852s4.169-7.675,5.558-11.091a18.754,18.754,0,0,0,1.107-12.266C419.182,103.343,421.592,95.092,419.551,87.417Z" transform="translate(-6267.44 -9258.401)" fill="#1e2e34"/>
      <path id="Trazado_158985" data-name="Trazado 158985" d="M374.294,92.519c0-2.063,2.54-6.876,4.538-7.142,5.341-.688,14.937,0,14.677,13.841-.369,18.9-18.867,14.617-18.888,14.085S374.1,99.64,374.294,92.519Z" transform="translate(-6239.335 -9213.596)" fill="#ffc4a3"/>
      <path id="Trazado_158986" data-name="Trazado 158986" d="M377.089,102.875s.326.222.868.51a3.214,3.214,0,0,0,2.41,0c1.976-.688,3.669-3.837,3.821-7.231a11.123,11.123,0,0,0-.8-4.747,3.761,3.761,0,0,0-2.367-2.573,1.659,1.659,0,0,0-1.932.865c-.261.532-.152.909-.239.932s-.391-.311-.239-1.087a2.223,2.223,0,0,1,.76-1.176,2.431,2.431,0,0,1,1.889-.333,4.572,4.572,0,0,1,3.3,2.994,11.3,11.3,0,0,1,1.02,5.3c-.2,3.793-2.171,7.32-4.863,8.052a3.372,3.372,0,0,1-2.953-.555C377.132,103.318,377.024,102.9,377.089,102.875Z" transform="translate(-6236.029 -9210.223)" fill="#ffa275"/>
      <path id="Trazado_158987" data-name="Trazado 158987" d="M394.242,97.745a16.909,16.909,0,0,0,1.042-5.612,42.046,42.046,0,0,0-6.839-26.307,16.979,16.979,0,0,0-3.626-4.436c-.369.222,5.428,6.9,8.033,17.235S393.916,97.745,394.242,97.745Z" transform="translate(-6226.978 -9242.6)" fill="#ff7e67"/>
      <path id="Trazado_158988" data-name="Trazado 158988" d="M374.244,53C372.072,60.564,360,69.636,354.6,75.292,344.3,86.05,342.394,87.6,340.31,121.872a83.422,83.422,0,0,1-5.536-34.625,41.615,41.615,0,0,1,12.419-26.329,31.03,31.03,0,0,1,27.052-8.007" transform="translate(-6285.702 -9253.574)" fill="#1e2e34"/>
      <path id="Trazado_158989" data-name="Trazado 158989" d="M427.463,79.393a17.677,17.677,0,0,1-3.192.577,33.859,33.859,0,0,1-3.778.421c-1.476,0-3.148.288-5.015.266a86.127,86.127,0,0,1-13.026-.754,98.3,98.3,0,0,1-15.7-3.5A99.9,99.9,0,0,1,371.84,70.21a89.969,89.969,0,0,1-11.159-7.031c-1.541-1.065-2.822-2.218-3.973-3.15a31.22,31.22,0,0,1-2.866-2.551,21.2,21.2,0,0,1-2.3-2.218,16.889,16.889,0,0,1,2.584,2c.782.688,1.759,1.508,2.953,2.4s2.5,1.974,4.06,2.994A99.151,99.151,0,0,0,372.317,69.3a106.518,106.518,0,0,0,14.7,6.1,102.32,102.32,0,0,0,15.458,3.482,96.96,96.96,0,0,0,13.026.976h4.993c1.476,0,2.736-.133,3.756-.222a16.16,16.16,0,0,1,3.213-.244Z" transform="translate(-6265.931 -9250.066)" fill="#3e5963"/>
      <path id="Trazado_158990" data-name="Trazado 158990" d="M415.528,80.164a7.519,7.519,0,0,1-2.171.4,52.649,52.649,0,0,1-6.014.377A73.274,73.274,0,0,1,369.37,70.648a53,53,0,0,1-5.015-3.372,8.245,8.245,0,0,1-1.715-1.442c.109-.155,2.692,1.664,7.121,4.1a81.976,81.976,0,0,0,37.6,10.181C412.379,80.253,415.528,79.964,415.528,80.164Z" transform="translate(-6252.931 -9237.197)" fill="#3e5963"/>
      <path id="Trazado_158991" data-name="Trazado 158991" d="M404.413,72.64a11.981,11.981,0,0,1,.456,2.884c.174,1.863.282,4.569.26,7.919q-.075,5.893-.738,11.756a79.113,79.113,0,0,1-2.8,14.174,38.034,38.034,0,0,1-15.675,20.407,35.92,35.92,0,0,1-7.078,3.3,11.123,11.123,0,0,1-2.757.754,17.636,17.636,0,0,1,2.605-1.176,41.778,41.778,0,0,0,6.817-3.593,34.594,34.594,0,0,0,8.359-7.719,38.675,38.675,0,0,0,6.643-12.421,81.867,81.867,0,0,0,2.844-13.952c.543-4.436.825-8.318.977-11.645a66.748,66.748,0,0,0,0-7.874,20.093,20.093,0,0,1,.087-2.817Z" transform="translate(-6237.191 -9228.896)" fill="#3e5963"/>
      <path id="Trazado_158993" data-name="Trazado 158993" d="M304.51,369.955,331,428.624l42.749-20.185-27.4-72.6Z" transform="translate(-6321.006 -8908.29)" fill="#ffc4a3"/>
      <path id="Trazado_158994" data-name="Trazado 158994" d="M325.542,389.506l15.48,30.166s-39.622,41.833-35.888,51.194l93.139-45.649-25.6-60.488Z" transform="translate(-6320.566 -8873.099)" fill="#fc4b52"/>
      <path id="Trazado_158995" data-name="Trazado 158995" d="M335.688,381.316a4.061,4.061,0,0,1,1.693,7.941,4.345,4.345,0,0,1-4.972-3.371,4.26,4.26,0,0,1,3.669-4.636" transform="translate(-6288.354 -8852.975)" fill="#e1e1e1"/>
      <g id="Grupo_115812" data-name="Grupo 115812" transform="translate(-6016.007 -8455.468)" opacity="0.6">
        <path id="Trazado_158996" data-name="Trazado 158996" d="M398.449,396.166l-3.886-7.586-87.842,46.58s-3.278,3.882-1.411,6.654Z" transform="translate(-304.735 -388.58)" fill="#fff"/>
      </g>
      <path id="Trazado_158997" data-name="Trazado 158997" d="M320.744,390.616c.239.466,2.605-.444,5.558,0s5.037,1.775,5.363,1.375-1.607-2.75-5.167-3.15S320.44,390.239,320.744,390.616Z" transform="translate(-6302.025 -8843.799)" fill="#12263f"/>
      <path id="Trazado_158998" data-name="Trazado 158998" d="M317.129,394.076c.109.488,2.453.333,4.928,1.531s3.886,3.061,4.342,2.817-.5-2.994-3.582-4.436S316.868,393.632,317.129,394.076Z" transform="translate(-6306.248 -8838.341)" fill="#12263f"/>
      <path id="Trazado_158999" data-name="Trazado 158999" d="M321.108,403.778c.456-.111,0-2.728-2.367-4.7s-4.95-1.952-4.972-1.464,1.954,1.2,3.865,2.839S320.631,403.955,321.108,403.778Z" transform="translate(-6310.162 -8833.381)" fill="#12263f"/>
      <path id="Trazado_159000" data-name="Trazado 159000" d="M318.727,387.023c.369.333,2.171-1.331,4.82-2.418s5.037-1.22,5.1-1.73-2.649-1.242-5.775,0S318.315,386.779,318.727,387.023Z" transform="translate(-6304.438 -8851.829)" fill="#12263f"/>
      <path id="Trazado_159001" data-name="Trazado 159001" d="M339.129,526.854,273.15,343.661s1.563-30.477,7.056-40.1,171.841-65.723,171.841-65.723,42.379-10.425,70.625,0,56.947,23.29,54.125,43.519a52.976,52.976,0,0,1-2.171,9.094c-9.713,29.246-36.279,49.175-66.5,49.885l-21.993,2.506L374,364.71a8.69,8.69,0,0,0-5.674,4.072,9.039,9.039,0,0,0-.947,7.018l36.214,123.283S364.01,518.891,339.129,526.854Z" transform="translate(-6357.73 -9033.314)" fill="#12263f"/>
      <path id="Trazado_159002" data-name="Trazado 159002" d="M277.543,314.906l-1.563,64.569,47.069,1.176,6.8-77.5Z" transform="translate(-6354.417 -8948.11)" fill="#ffc4a3"/>
      <path id="Trazado_159003" data-name="Trazado 159003" d="M306.331,333.69l-1.954,36.865S250.751,390.23,250.1,400.3l103.3,1.065,3.17-65.811Z" transform="translate(-6384.724 -8910.909)" fill="#fc4b52"/>
      <path id="Trazado_159004" data-name="Trazado 159004" d="M279.683,346.443a3.826,3.826,0,0,1,0-1.885,11.694,11.694,0,0,1,2.171-4.791,6.427,6.427,0,0,1,1.237-1.375,2.456,2.456,0,0,1,2.323-.488,1.577,1.577,0,0,1,1.02.954,1.788,1.788,0,0,1,0,1.264,10.769,10.769,0,0,1-1.086,1.93c-.8,1.242-1.476,2.484-2.5,3.9a3.073,3.073,0,0,1-2.757,1.131,6.435,6.435,0,0,1-2.67-1.087,22.578,22.578,0,0,1-3.93-3.3,17.441,17.441,0,0,1-1.541-1.863,5.665,5.665,0,0,1-1.172-2.107,1.96,1.96,0,0,1,1.194-2.218,2.754,2.754,0,0,1,2.475.51,14.554,14.554,0,0,1,2.627,2.728,17.647,17.647,0,0,1,2.562,4.569,4.9,4.9,0,0,1,.456,1.819,36.742,36.742,0,0,0-3.734-5.922,15.591,15.591,0,0,0-2.5-2.44,1.794,1.794,0,0,0-1.476-.355.984.984,0,0,0-.5,1.2,5.39,5.39,0,0,0,1.02,1.708,22.41,22.41,0,0,0,5.232,4.858,5.278,5.278,0,0,0,2.171.887,1.827,1.827,0,0,0,1.672-.71c.868-1.153,1.693-2.551,2.475-3.726a12.291,12.291,0,0,0,1.042-1.73.741.741,0,0,0-.326-1.043c-.933-.355-1.845.621-2.5,1.464A17.089,17.089,0,0,0,279.683,346.443Z" transform="translate(-6360.552 -8907.603)" fill="#1e2e34"/>
      <path id="Trazado_159005" data-name="Trazado 159005" d="M292.517,348.436a4.447,4.447,0,0,1,2.887,4.946,4.055,4.055,0,0,1-4.776,2.95,4.447,4.447,0,0,1-3.018-5.257,4.186,4.186,0,0,1,5.3-2.484" transform="translate(-6340.928 -8893.048)" fill="#e1e1e1"/>
      <g id="Grupo_115813" data-name="Grupo 115813" transform="translate(-6134.768 -8518.084)" opacity="0.6">
        <path id="Trazado_159006" data-name="Trazado 159006" d="M353.369,368.89l-.2-8.54-98.958,2.218s-4.624,2-4.147,5.3Z" transform="translate(-250.034 -360.35)" fill="#fff"/>
      </g>
      <path id="Trazado_159007" data-name="Trazado 159007" d="M274.311,350.309c0,.51,2.54.776,5.015,2.44s3.756,3.882,4.234,3.682-.26-3.194-3.278-5.168S274.224,349.821,274.311,350.309Z" transform="translate(-6356.374 -8891.218)" fill="#1e2e34"/>
      <path id="Trazado_159008" data-name="Trazado 159008" d="M269.3,352.183c-.109.488,2.063,1.4,3.756,3.593s2.171,4.436,2.67,4.436.847-2.928-1.3-5.612S269.324,351.7,269.3,352.183Z" transform="translate(-6362.241 -8888.632)" fill="#1e2e34"/>
      <path id="Trazado_159009" data-name="Trazado 159009" d="M268.483,362.9c.456.111,1.172-2.44,0-5.279s-3.6-3.993-3.821-3.549,1.216,1.952,2.171,4.281S267.984,362.9,268.483,362.9Z" transform="translate(-6367.697 -8886.196)" fill="#1e2e34"/>
      <path id="Trazado_159010" data-name="Trazado 159010" d="M274.8,345.457c.217.488,2.518-.2,5.384,0s5.059,1.176,5.319.732-1.845-2.218-5.211-2.529S274.56,345.058,274.8,345.457Z" transform="translate(-6355.82 -8898.809)" fill="#1e2e34"/>
      <path id="Trazado_159011" data-name="Trazado 159011" d="M315.918,227.89s-28.224-2.218-31.35,28.968S266.7,433.043,266.7,433.043l77.551,6.654,10.2-149.1L459.6,244.9S334.655,223.875,315.918,227.89Z" transform="translate(-6365.285 -9040.405)" fill="#12263f"/>
      <path id="Trazado_159012" data-name="Trazado 159012" d="M350.6,208.59s-17.108,49.042-13.851,54.5,47.286,27.948,47.286,27.948l110.052,43.231S505.4,315.88,505.4,287.688s-38.3-79.053-38.3-79.053Z" transform="translate(-6283.73 -9063.293)" fill="#12263f"/>
      <path id="Trazado_159013" data-name="Trazado 159013" d="M458.619,234.12s-.174,0-.521.288l-1.563.732-6.1,2.773-22.883,10.2-79.158,34.758.347-.51c-1,14.728-2.171,30.632-3.191,47.09-2.67,38.462-5.145,73.952-7.1,102.033V432h-.5l-48-4.3-13.222-1.264-3.452-.377a5.25,5.25,0,0,1-1.194-.177,9.635,9.635,0,0,1,1.194,0l3.474.222,13.244.976,48.046,3.882-.521.466c1.889-28.081,4.342-63.549,6.839-102.033,1.151-16.458,2.171-32.362,3.257-47.09v-.377l.326-.133,79.223-34.358,23.035-9.871,6.188-2.6,1.585-.643Z" transform="translate(-6358.984 -9032.196)" fill="#3e5963"/>
      <path id="Trazado_159014" data-name="Trazado 159014" d="M440.881,243.5a14.411,14.411,0,0,1-3.083-.865L429.5,239.9a178.378,178.378,0,0,0-27.768-7.164,80.035,80.035,0,0,0-28.419.377,111.8,111.8,0,0,0-11.377,3.371A14.133,14.133,0,0,1,364.806,235a50.939,50.939,0,0,1,8.337-2.75,74.707,74.707,0,0,1,28.789-.754,150.93,150.93,0,0,1,27.833,7.564c3.474,1.264,6.274,2.351,8.185,3.128A16.6,16.6,0,0,1,440.881,243.5Z" transform="translate(-6253.751 -9036.668)" fill="#3e5963"/>
      <path id="Trazado_159015" data-name="Trazado 159015" d="M424.471,225.191a79.708,79.708,0,0,0-9.64,0c-2.953.222-6.513.688-10.421,1.153s-8.228,1.02-12.679,1.885a58.471,58.471,0,0,0-21.6,8.163,70.069,70.069,0,0,0-7.469,6.166,8.1,8.1,0,0,1,1.585-2.107,34.444,34.444,0,0,1,5.406-4.791,54.783,54.783,0,0,1,21.841-8.673c4.516-.865,8.858-1.375,12.788-1.8s7.49-.776,10.508-.887a38.131,38.131,0,0,1,7.143.333A8.7,8.7,0,0,1,424.471,225.191Z" transform="translate(-6252.909 -9044.204)" fill="#3e5963"/>
      <path id="Trazado_159016" data-name="Trazado 159016" d="M324.06,387.781a7.165,7.165,0,0,1-.868-1.93,14.331,14.331,0,0,1-.434-5.723,7.587,7.587,0,0,1,.434-1.952,2.356,2.356,0,0,1,1.867-1.53,1.629,1.629,0,0,1,1.368.488,2.239,2.239,0,0,1,.586,1.287,14.694,14.694,0,0,1,0,2.418c-.13,1.619-.13,3.15-.369,5.035a3,3,0,0,1-1.932,2.373,6.02,6.02,0,0,1-2.931.133,23.617,23.617,0,0,1-5.1-1.553,22.056,22.056,0,0,1-2.28-1.153,6.521,6.521,0,0,1-2.128-1.575,2.255,2.255,0,0,1,0-2.839,2.587,2.587,0,0,1,2.475-.6,15.354,15.354,0,0,1,3.669,1.531,20.355,20.355,0,0,1,4.516,3.416,5.531,5.531,0,0,1,1.281,1.641,38.427,38.427,0,0,0-6.188-4.259,15.983,15.983,0,0,0-3.43-1.309c-.608,0-1.259,0-1.5.311a1.1,1.1,0,0,0,.13,1.4,5.865,5.865,0,0,0,1.737,1.264c.695.377,1.411.732,2.171,1.065A22.959,22.959,0,0,0,322,387.16a4.7,4.7,0,0,0,2.3,0,1.7,1.7,0,0,0,1.151-1.464c.217-1.53.282-3.3.434-4.835a16.289,16.289,0,0,0,.109-2.218c0-.621-.347-.932-.8-.887-1,0-1.368,1.442-1.541,2.573a20.136,20.136,0,0,0,.413,7.453Z" transform="translate(-6312.506 -8858.596)" fill="#12263f"/>
      <path id="Trazado_159018" data-name="Trazado 159018" d="M467.724,149.494s-8.988-22.181-10.855-24.222l-33.174-8.562L402.96,127.069a35.709,35.709,0,0,1-19.366,3.926c-7.425-.71-13.938-3.771-17.217-9.36h0s-18.145,9.867-26.444,31.023-7.165,36.031-6.752,53.6,7.577,67.453,6.752,77.3,2.54,36.954,14.264,36.954H470.785s26.314-7.431,27.464-23.6S467.724,149.494,467.724,149.494Z" transform="translate(-6287.455 -9175.214)" fill="#a7e446"/>
      <path id="Trazado_159019" data-name="Trazado 159019" d="M408.4,181.262a9.148,9.148,0,0,1-1.954,1.686,35.153,35.153,0,0,1-6.036,3.593,35.56,35.56,0,0,1-9.944,3.061,33.294,33.294,0,0,1-12.722-.577,41.707,41.707,0,0,1-19.8-11.712,48.546,48.546,0,0,1-4.538-5.412,9.927,9.927,0,0,1-1.368-2.218c.174-.155,2.28,2.884,6.513,6.965a43.415,43.415,0,0,0,19.54,11.09,35.1,35.1,0,0,0,22.036-2.063A66.839,66.839,0,0,0,408.4,181.262Z" transform="translate(-6265.345 -9110.693)" fill="#1e2e34"/>
      <g id="Grupo_115814" data-name="Grupo 115814" transform="translate(-5911.785 -8938.814)" opacity="0.3">
        <path id="Trazado_159020" data-name="Trazado 159020" d="M353.3,171.225a34.91,34.91,0,0,0,11.984,23.4,27.769,27.769,0,0,0,24.924,5.612,24.468,24.468,0,0,0,17.043-18.92,69.956,69.956,0,0,1-18.606,6.654,36.207,36.207,0,0,1-35.91-17.3l.934,1.02" transform="translate(-352.74 -170.67)"/>
      </g>
      <g id="Grupo_115815" data-name="Grupo 115815" transform="translate(-5860.07 -8985.041)" opacity="0.3">
        <path id="Trazado_159021" data-name="Trazado 159021" d="M423.434,215.93c-12.31-24.4-25.337-49.686-46.874-66.1h0c4.776,16.7,9.053,32.362,14.329,48.8,1.5,4.68,3.864,10.115,8.684,10.891,1.759.288,3.561-.155,5.3.2,2.974.621,5.037,3.349,6.643,5.989a16.73,16.73,0,0,0,5.927,6.9c2.736,1.353,6.9,0,7.164-3.039a7.362,7.362,0,0,0-1.172-3.638Z" transform="translate(-376.56 -149.83)"/>
      </g>
      <path id="Trazado_159022" data-name="Trazado 159022" d="M462.884,205.614l-58.728,28.148S378.1,180.527,376.084,173.14s-6.513-19.963.152-35.49a29.388,29.388,0,0,1,35.28-16.281C437.417,130.708,462.884,205.614,462.884,205.614Z" transform="translate(-6241.125 -9171.067)" fill="#a7e446"/>
      <path id="Trazado_159024" data-name="Trazado 159024" d="M433.473,181.653c11.116,18.654,18.888,29.412,18.888,29.412L352.6,273.172l11.724,27.549L485.6,249.7a28.163,28.163,0,0,0,16.652-19.386,23.821,23.821,0,0,0-.282-12.377L481.345,159.76Z" transform="translate(-6264.689 -9122.775)" fill="#ffc4a3"/>
      <path id="Trazado_159025" data-name="Trazado 159025" d="M423.2,192.463c-.239.333-4.95-3.726-11.941-6.322a83,83,0,0,0-13.027-3.15,26.19,26.19,0,0,1,13.526,1.974,27.167,27.167,0,0,1,11.441,7.5Z" transform="translate(-6211.252 -9094.702)" fill="#ffa275"/>
      <path id="Trazado_159027" data-name="Trazado 159027" d="M316.94,229.79l24.9-12.177,48.545-3.926,3.973-2.817,11.724,27.593s-12.723,6.211-19.388,6.765l-40.838-1.264-21.342,2.218Z" transform="translate(-6306.449 -9060.517)" fill="#ffc4a3"/>
      <path id="Trazado_159028" data-name="Trazado 159028" d="M459.009,171.377a6.428,6.428,0,0,0-1.151.421l-3.257,1.42-11.876,5.39-39.079,18.144-4.755,2.218.738.266c-6.774-14.262-12.722-27.039-16.913-36.244l-4.82-10.824c-.543-1.176-.977-2.218-1.324-2.95a4.8,4.8,0,0,0-.543-1,5.722,5.722,0,0,0,.326,1.087c.261.688.63,1.73,1.151,3.039,1.02,2.617,2.584,6.388,4.6,11.09,4.017,9.316,9.835,22.181,16.609,36.444l.239.51.5-.244,4.755-2.218,38.841-18.477,11.724-5.723,3.17-1.6a4.1,4.1,0,0,0,1.064-.754Z" transform="translate(-6237.25 -9136.831)" fill="#1e2e34"/>
      <path id="Trazado_159029" data-name="Trazado 159029" d="M407.025,120.8c0,.2-2.757.133-7.013,1.176A33.392,33.392,0,0,0,376.13,144.4c-1.411,4.237-1.563,7.054-1.78,7.009a6.616,6.616,0,0,1,0-1.974,29.763,29.763,0,0,1,1-5.279,32.12,32.12,0,0,1,24.577-22.98,28.481,28.481,0,0,1,5.254-.554,6.232,6.232,0,0,1,1.846.177Z" transform="translate(-6239.305 -9170.457)" fill="#1e2e34"/>
      <path id="Trazado_159030" data-name="Trazado 159030" d="M435.991,138.13a12.736,12.736,0,0,1-.781,2.64,26.844,26.844,0,0,1-3.343,6.787l-1.542,1.974-.847,1.043c-.3.333-.651.621-1,.954l-2.171,1.974c-.8.6-1.65,1.153-2.518,1.752a47.241,47.241,0,0,1-12.4,5.457c-9.205,2.617-17.738,3.859-23.643,5.745s-9.271,3.837-9.379,3.616a11.97,11.97,0,0,1,2.3-1.464,18.508,18.508,0,0,1,2.866-1.42l1.845-.776,2.171-.732c5.927-2.218,14.481-3.482,23.578-6.078a48.258,48.258,0,0,0,12.158-5.257l2.453-1.641,2.171-1.863c.347-.311.695-.6,1-.909l.76-1,1.563-1.863a31.663,31.663,0,0,0,3.582-6.455A13.679,13.679,0,0,1,435.991,138.13Z" transform="translate(-6234.51 -9149.121)" fill="#fff"/>
      <path id="Trazado_159031" data-name="Trazado 159031" d="M431.33,131.815a14.04,14.04,0,0,0-2.453.6,11.353,11.353,0,0,0-4.885,4.725c-.782,1.242-1.563,2.706-2.605,4.17a22.083,22.083,0,0,1-3.951,4.17,34.3,34.3,0,0,1-11.572,5.723c-4.342,1.375-8.684,2.218-12.4,3.105a55.022,55.022,0,0,0-9.792,3.238,34.675,34.675,0,0,0-7.924,5.279,3.577,3.577,0,0,1,.391-.577,14.16,14.16,0,0,1,1.324-1.42,24.96,24.96,0,0,1,5.884-4.015,50.97,50.97,0,0,1,9.857-3.549c3.821-1.02,8.055-1.819,12.332-3.15a35.025,35.025,0,0,0,11.246-5.479,22.23,22.23,0,0,0,3.843-3.882c1.021-1.4,1.846-2.817,2.714-4.081a11.1,11.1,0,0,1,5.384-4.68,4.917,4.917,0,0,1,1.932-.288,1.342,1.342,0,0,1,.673.111Z" transform="translate(-6237.579 -9156.958)" fill="#fff"/>
      <path id="Trazado_159032" data-name="Trazado 159032" d="M433.61,155.8a7.44,7.44,0,0,1-.912.532l-2.757,1.309c-2.388,1.109-5.884,2.684-10.269,4.436a107.1,107.1,0,0,1-15.827,4.991,57.876,57.876,0,0,1-20.278,1.22,85.816,85.816,0,0,1-19.54-5.7,72.364,72.364,0,0,0-15.784-4.436,31.293,31.293,0,0,0-10.964.244c-2.562.555-3.908,1.153-3.93,1.042a4.306,4.306,0,0,1,.933-.488,17.8,17.8,0,0,1,2.888-1,29.768,29.768,0,0,1,11.159-.621,69.318,69.318,0,0,1,16.044,4.259,90.251,90.251,0,0,0,19.323,5.567,59.316,59.316,0,0,0,19.909-1.109,113.225,113.225,0,0,0,15.762-4.747c4.342-1.641,7.946-3.083,10.378-4.059l2.822-1.109A5.155,5.155,0,0,1,433.61,155.8Z" transform="translate(-6287.232 -9127.598)" fill="#fff"/>
      <path id="Trazado_159033" data-name="Trazado 159033" d="M335.14,148.354a3.2,3.2,0,0,1,.76-.6,11.38,11.38,0,0,1,2.475-1.309,19.9,19.9,0,0,1,10.139-1.042,38.3,38.3,0,0,1,14.22,5.235,130.468,130.468,0,0,0,16.2,8.739,47.008,47.008,0,0,0,17.89,2.75,91.473,91.473,0,0,0,14.85-1.819c4.19-.843,7.577-1.664,9.9-2.218a25.762,25.762,0,0,1,3.647-.754,20.212,20.212,0,0,1-3.539,1.2c-2.3.665-5.645,1.6-9.835,2.551a85.664,85.664,0,0,1-14.98,2.085,46.453,46.453,0,0,1-18.324-2.75,122.9,122.9,0,0,1-16.3-8.872,39.2,39.2,0,0,0-13.83-5.368,20.674,20.674,0,0,0-9.878.665C336.291,147.666,335.205,148.465,335.14,148.354Z" transform="translate(-6285.136 -9140.558)" fill="#fff"/>
      <path id="Trazado_159036" data-name="Trazado 159036" d="M257.422,175.25,397.414,176.4c4.538,0,8.88,2.218,9.553,6.81l15.2,104.251h72.1a4.187,4.187,0,0,1,3.9,2.052,4.383,4.383,0,0,1,0,4.48,4.187,4.187,0,0,1-3.9,2.052H264.088L248.347,186.03a9.5,9.5,0,0,1,2.11-7.523,9.081,9.081,0,0,1,6.965-3.257Z" transform="translate(-6386.902 -9103.906)" fill="#dff7f9"/>
      <path id="Trazado_159037" data-name="Trazado 159037" d="M257.472,175.262a7,7,0,0,0-2.171.2,9.156,9.156,0,0,0-5.363,3.682,9.636,9.636,0,0,0-1.737,4.547,28.627,28.627,0,0,0,.521,5.9l2.019,14.506c3.083,21.848,7.512,53.346,13.026,92.074v.377h.391l223.4.133h6.014a5.543,5.543,0,0,0,3.191-.621,4.785,4.785,0,0,0,2.171-2.573,4.951,4.951,0,0,0-2.171-5.944,5.8,5.8,0,0,0-3.148-.6h-71.3l.543.466c-5.514-37.331-10.66-72.155-15.2-103.386a8.233,8.233,0,0,0-2.583-5.457,10.4,10.4,0,0,0-5.363-2.418,48.7,48.7,0,0,0-5.645-.2h-5.493l-21.081-.133-37.451-.244-53.322-.288H262.314l14.264.222,53.322.6,37.451.377,21.081.2h5.493a41.271,41.271,0,0,1,5.515.2,9.5,9.5,0,0,1,4.885,2.218,7.189,7.189,0,0,1,2.171,4.88c4.581,31.253,9.661,66.077,15.2,103.43v.466h71.646a4.518,4.518,0,0,1,2.605.466,3.763,3.763,0,0,1,1.65,4.436,3.662,3.662,0,0,1-1.65,1.974,4.389,4.389,0,0,1-2.627.466H487.3l-223.4.133.413.377c-5.6-38.684-10.182-70.159-13.352-92.007q-1.216-8.185-2.171-14.506a25.59,25.59,0,0,1-.564-5.789,9.4,9.4,0,0,1,1.607-4.436,9.27,9.27,0,0,1,5.189-3.638,13.1,13.1,0,0,1,2.453-.089Z" transform="translate(-6386.951 -9103.919)" fill="#12263f"/>
      <ellipse id="Elipse_5139" data-name="Elipse 5139" cx="8.771" cy="8.961" rx="8.771" ry="8.961" transform="translate(-6068.516 -8878.549)" fill="#12263f"/>
      <path id="Trazado_159038" data-name="Trazado 159038" d="M336.124,294.461c-.2,0-4.646-26.506-9.944-59.29s-9.422-59.357-9.227-59.4,4.646,26.506,9.943,59.29S336.341,294.417,336.124,294.461Z" transform="translate(-6306.441 -9103.272)" fill="#12263f"/>
    </g>
    <g id="Grupo_115819" data-name="Grupo 115819" transform="translate(7753.028 11371.183)">
      <path id="Trazado_158933" data-name="Trazado 158933" d="M151.743,223.89c-16.138,8.377-28.593,22.813-37.513,38.7S99.56,295.923,93.868,313.234L88.88,402.519c18.822-32.041,33.918-69.7,38.026-106.582l-12.529-1.115c8.406-1.276,15.448-7.335,19.937-14.583s6.792-15.551,9.052-23.737l-15.287,2.274A56.643,56.643,0,0,0,151.743,223.89Z" transform="translate(-6617.265 -9022.635)" fill="#3e5963"/>
      <g id="Grupo_115811" data-name="Grupo 115811" transform="translate(-6528.384 -8798.745)" opacity="0.3">
        <path id="Trazado_158934" data-name="Trazado 158934" d="M151.743,223.89c-16.138,8.377-28.593,22.813-37.513,38.7S99.56,295.923,93.868,313.234L88.88,402.519c18.822-32.041,33.918-69.7,38.026-106.582l-12.529-1.115c8.406-1.276,15.448-7.335,19.937-14.583s6.792-15.551,9.052-23.737l-15.287,2.274A56.643,56.643,0,0,0,151.743,223.89Z" transform="translate(-88.88 -223.89)" fill="#727997"/>
      </g>
      <path id="Trazado_158935" data-name="Trazado 158935" d="M99.9,425.807s-40.872-48.926-40.4-95.623h16.49s-17.942-11.736-16.519-18.4,1.892-31.6,1.892-31.6l15.067,3.77S65.1,278.295,63.691,269.287s3.3-50.467,3.3-50.467,18.426,19.336,24.1,39.2,20.539,42.926,16.138,103.369S99.9,425.807,99.9,425.807Z" transform="translate(-6631.04 -9025.003)" fill="#727997"/>
      <path id="Trazado_158936" data-name="Trazado 158936" d="M101.1,413.456s44.276-29.429,54.134-67.147L141.962,342.7s17-5.56,17.311-11.179,5.384-25.835,5.384-25.835l-12.954-.264s10.269-2.069,13.438-8.964,8.392-41.3,8.392-41.3-19.072,11.516-27.874,26.2-25.879,30.031-35.591,79.529S101.1,413.456,101.1,413.456Z" transform="translate(-6611.561 -9008.03)" fill="#12263f"/>
      <path id="Trazado_158937" data-name="Trazado 158937" d="M72.2,247.92a3.286,3.286,0,0,1,.147.513L72.7,249.9l1.291,5.795c.572,2.523,1.232,5.619,1.951,9.213s1.57,7.687,2.391,12.235c1.76,9.066,3.609,19.908,5.5,31.967s3.682,25.38,5.325,39.376,2.846,27.39,3.8,39.611,1.584,23.165,1.951,32.393c.22,4.607.337,8.8.44,12.455s.191,6.822.22,9.4,0,4.548,0,5.956v1.54a3.6,3.6,0,0,1,0,.528,2.933,2.933,0,0,1,0-.528v-1.54c0-1.467-.117-3.4-.205-5.942s-.176-5.736-.352-9.4-.293-7.834-.557-12.441c-.44-9.228-1.174-20.2-2.113-32.363s-2.259-25.541-3.858-39.537-3.448-27.287-5.252-39.346-3.741-22.915-5.457-32c-.792-4.548-1.6-8.641-2.289-12.235s-1.291-6.7-1.8-9.242-.895-4.4-1.159-5.868c-.117-.646-.22-1.144-.279-1.467a1.79,1.79,0,0,1-.044-.543Z" transform="translate(-6625.056 -9011.412)" fill="#12263f"/>
      <path id="Trazado_158938" data-name="Trazado 158938" d="M109.8,416.672s-37.41-42.442-49.014-68.1l8.8-3.741c-6.352,1.056-12.866-1.687-17.8-5.868s-8.538-9.609-12.089-14.979l11.546-1.951A42.97,42.97,0,0,1,26,302.52c13.629,2.245,25.967,9.727,36.119,19.072a179.733,179.733,0,0,1,21.889,25.365A86.969,86.969,0,0,1,92.5,360.924C98.766,373.936,109.813,401.077,109.8,416.672Z" transform="translate(-6646.633 -8985.911)" fill="#12263f"/>
      <path id="Trazado_158939" data-name="Trazado 158939" d="M158.959,272a1.465,1.465,0,0,1-.176.44l-.572,1.232-2.274,4.709c-2.01,4.064-4.841,9.991-8.289,17.355s-7.409,16.138-11.736,26.011-8.8,20.773-13.2,32.275-8.465,22.666-11.971,32.8-6.47,19.351-8.8,27.111-4.284,14.04-5.545,18.411l-1.467,5.017c-.176.528-.308.968-.411,1.291a1.759,1.759,0,0,1-.161.44,1.774,1.774,0,0,1,.088-.455c.088-.338.191-.778.337-1.32.323-1.2.763-2.934,1.335-5.061,1.174-4.4,2.934-10.709,5.325-18.485s5.267-17,8.7-27.17,7.467-21.287,11.927-32.862,9.008-22.461,13.2-32.275,8.45-18.661,11.9-26,6.426-13.2,8.509-17.253l2.406-4.651c.264-.5.469-.895.646-1.2a2.6,2.6,0,0,1,.235-.367Z" transform="translate(-6614.709 -9000.166)" fill="#12263f"/>
      <path id="Trazado_158940" data-name="Trazado 158940" d="M94.025,415.812a2.7,2.7,0,0,1-.176-.777c-.1-.6-.22-1.335-.367-2.245-.293-1.966-.778-4.783-1.467-8.26s-1.628-7.57-2.846-12.089-2.817-9.4-4.709-14.451-4.005-9.756-6.03-13.966-4.049-7.908-5.868-10.959-3.286-5.5-4.4-7.159l-1.218-1.937c-.279-.44-.411-.675-.381-.689s.191.191.5.616.807,1.1,1.335,1.848c1.159,1.614,2.743,4.005,4.592,7.042s3.9,6.734,6,10.93,4.181,8.934,6.1,14,3.448,10.02,4.68,14.553,2.1,8.67,2.714,12.162,1.027,6.338,1.218,8.318l.22,2.274A2.933,2.933,0,0,1,94.025,415.812Z" transform="translate(-6627.69 -8966.873)" fill="#12263f"/>
      <rect id="Rectángulo_40584" data-name="Rectángulo 40584" width="81.862" height="16.695" transform="translate(-6566.176 -8561.038)" fill="#feca2e"/>
      <path id="Trazado_158941" data-name="Trazado 158941" d="M68.44,397.3l8.846,56.159h49.469L135,397.3Z" transform="translate(-6626.812 -8941.643)" fill="#feca2e"/>
      <path id="Trazado_158942" data-name="Trazado 158942" d="M137.522,397.44c0,.22-15.492.382-34.593.382s-34.579-.161-34.579-.382,15.477-.44,34.579-.44S137.522,397.235,137.522,397.44Z" transform="translate(-6626.853 -8941.783)" fill="#12263f"/>
    </g>
  </g>
</svg>
