<svg xmlns="http://www.w3.org/2000/svg" width="91.54" height="103.994" viewBox="0 0 91.54 103.994">
  <g id="Capa_2" data-name="Capa 2" transform="translate(2 2)">
    <g id="Recursos" transform="translate(0 0)">
      <rect id="Rectángulo_40458" data-name="Rectángulo 40458" width="31.896" height="32.326" rx="5" transform="translate(46.745 61.779)" fill="#12263f"/>
      <rect id="Rectángulo_40459" data-name="Rectángulo 40459" width="40.795" height="73.052" rx="5" transform="translate(46.745 8.92)" fill="#fc4b52" stroke="#12263f" stroke-miterlimit="10" stroke-width="4"/>
      <rect id="Rectángulo_40460" data-name="Rectángulo 40460" width="33.299" height="2.944" rx="1.472" transform="translate(46.745 67.825)" fill="#12263f"/>
      <rect id="Rectángulo_40461" data-name="Rectángulo 40461" width="33.299" height="2.944" rx="1.472" transform="translate(46.745 58.866)" fill="#12263f"/>
      <rect id="Rectángulo_40462" data-name="Rectángulo 40462" width="33.299" height="2.944" rx="1.472" transform="translate(46.745 49.91)" fill="#12263f"/>
      <rect id="Rectángulo_40463" data-name="Rectángulo 40463" width="33.299" height="2.944" rx="1.472" transform="translate(46.745 40.952)" fill="#12263f"/>
      <rect id="Rectángulo_40464" data-name="Rectángulo 40464" width="33.299" height="2.944" rx="1.472" transform="translate(46.745 31.993)" fill="#12263f"/>
      <rect id="Rectángulo_40465" data-name="Rectángulo 40465" width="33.299" height="2.944" rx="1.472" transform="translate(46.745 23.037)" fill="#12263f"/>
      <rect id="Rectángulo_40466" data-name="Rectángulo 40466" width="57.531" height="81.494" rx="5" transform="translate(0 18.5)" fill="#feca2e" stroke="#12263f" stroke-miterlimit="10" stroke-width="4"/>
      <rect id="Rectángulo_40467" data-name="Rectángulo 40467" width="51.117" height="60.385" rx="5" transform="translate(18.212)" fill="#dff7f9" stroke="#12263f" stroke-miterlimit="10" stroke-width="4"/>
      <path id="Trazado_158714" data-name="Trazado 158714" d="M144.271,176.87c0,9.255-13.981,4.048-13.981,14.809v6.254h39.481v-6.254c0-10.762-13.981-5.555-13.981-14.809Z" transform="translate(-106.227 -143.701)" fill="#12263f"/>
      <rect id="Rectángulo_40468" data-name="Rectángulo 40468" width="22.166" height="28.526" rx="11.083" transform="translate(32.71 6.436)" fill="#12263f"/>
    </g>
  </g>
</svg>
