<svg xmlns="http://www.w3.org/2000/svg" width="101.909" height="85.115" viewBox="0 0 101.909 85.115">
  <g id="Capa_2" data-name="Capa 2" transform="translate(0 2)">
    <g id="Recursos" transform="translate(0 0)">
      <rect id="Rectángulo_40469" data-name="Rectángulo 40469" width="65.681" height="80.759" rx="5" transform="translate(34.227 0.357)" fill="#feca2e" stroke="#12263f" stroke-miterlimit="10" stroke-width="4"/>
      <path id="Trazado_158715" data-name="Trazado 158715" d="M260.827,7a5.325,5.325,0,0,1,5.325,5.325v3.887c-2.5,3.548-6.472,9.2-9.412,9.2H209.885c-2.942,0-6.914-5.649-9.415-9.2V12.325A5.325,5.325,0,0,1,205.795,7Z" transform="translate(-166.242 -7)" fill="#feca2e" stroke="#12263f" stroke-miterlimit="10" stroke-width="4"/>
      <rect id="Rectángulo_40470" data-name="Rectángulo 40470" width="25.391" height="3.765" transform="translate(69.086 72.24)" fill="#12263f"/>
      <rect id="Rectángulo_40471" data-name="Rectángulo 40471" width="10.974" height="3.765" transform="translate(83.503 65.5)" fill="#12263f"/>
      <circle id="Elipse_5095" data-name="Elipse 5095" cx="7.343" cy="7.343" r="7.343" transform="translate(60.855 11.411)" fill="#dff7f9" stroke="#12263f" stroke-miterlimit="10" stroke-width="4"/>
      <rect id="Rectángulo_40473" data-name="Rectángulo 40473" width="13.223" height="3.765" transform="translate(7.424 7.673)" fill="#12263f"/>
      <rect id="Rectángulo_40474" data-name="Rectángulo 40474" width="16.866" height="3.765" transform="translate(0 19.937)" fill="#12263f"/>
      <rect id="Rectángulo_40475" data-name="Rectángulo 40475" width="3.765" height="3.765" transform="translate(10.286 40.926)" fill="#12263f"/>
      <rect id="Rectángulo_40476" data-name="Rectángulo 40476" width="23.777" height="3.765" transform="translate(0 70.358)" fill="#12263f"/>
      <rect id="Rectángulo_40477" data-name="Rectángulo 40477" width="3.765" height="3.765" transform="translate(0 79.234)" fill="#12263f"/>
      <rect id="Rectángulo_40478" data-name="Rectángulo 40478" width="12.676" height="3.765" transform="translate(7.424 79.233)" fill="#12263f"/>
      <rect id="Rectángulo_40479" data-name="Rectángulo 40479" width="11.029" height="3.765" transform="translate(17.227 40.926)" fill="#12263f"/>
      <rect id="Rectángulo_40480" data-name="Rectángulo 40480" width="3.765" height="3.765" transform="translate(0 7.673)" fill="#12263f"/>
      <path id="Trazado_158716" data-name="Trazado 158716" d="M200.076,238.72l-18.128-12.75v7.1H160v11.081h21.948v7.316Z" transform="translate(-132.932 -179.228)" fill="#dff7f9" stroke="#12263f" stroke-miterlimit="10" stroke-width="4"/>
    </g>
  </g>
</svg>
